<svg width="40" height="37" viewBox="0 0 40 37" fill="none" xmlns="http://www.w3.org/2000/svg">
<path fill-rule="evenodd" clip-rule="evenodd" d="M23.0239 1.2506C31.009 4.57737 34.8063 13.5311 31.6562 21.4074L31.4939 21.798C30.8751 23.2885 31.0589 24.2319 31.7738 24.9466L34.0786 27.2366L36.5427 29.6578L38.2739 31.3447C39.4474 32.4847 39.5078 34.3114 38.4482 35.522L38.2853 35.6944C37.1131 36.8449 35.2459 36.8998 34.0074 35.8556L33.8425 35.7064L27.7448 29.7869C27.3254 29.3797 27.3216 28.7159 27.7365 28.3042C28.1168 27.9268 28.7168 27.8923 29.1373 28.2028L29.2472 28.2961L35.3449 34.2155C35.7084 34.5684 36.2755 34.5963 36.6712 34.3004L36.7746 34.2117C37.1625 33.827 37.1593 33.2123 36.771 32.8351L34.1928 30.3188L32.5624 28.7139L30.2493 26.4157C28.9964 25.1631 28.613 23.4411 29.3901 21.3268L29.5212 20.9927C32.5078 14.0868 29.2251 6.11218 22.1891 3.18081C15.1531 0.249451 7.02816 3.47142 4.04155 10.3773C1.05493 17.2831 4.33763 25.2578 11.3736 28.1891C11.9167 28.4154 12.1701 29.0309 11.9396 29.5639C11.709 30.0969 11.0819 30.3456 10.5389 30.1193C2.41674 26.7355 -1.37269 17.5298 2.07496 9.55795C5.5226 1.58607 14.9018 -2.13326 23.0239 1.2506ZM16.7008 4.2C23.1625 4.2 28.4008 9.43827 28.4008 15.9C28.4008 22.3617 23.1625 27.6 16.7008 27.6C10.239 27.6 5.00078 22.3617 5.00078 15.9C5.00078 9.43827 10.239 4.2 16.7008 4.2ZM16.7008 6C11.2332 6 6.80078 10.4324 6.80078 15.9C6.80078 21.3676 11.2332 25.8 16.7008 25.8C22.1684 25.8 26.6008 21.3676 26.6008 15.9C26.6008 10.4324 22.1684 6 16.7008 6ZM16.3183 8.4C20.3403 8.4 23.6008 11.6605 23.6008 15.6825C23.6008 16.2997 23.1004 16.8 22.4832 16.8C21.866 16.8 21.3657 16.2997 21.3657 15.6825C21.3657 12.8949 19.1059 10.6351 16.3183 10.6351C15.7011 10.6351 15.2008 10.1347 15.2008 9.51754C15.2008 8.90034 15.7011 8.4 16.3183 8.4Z" fill="#ED2D24"/>
</svg>
