<svg width="160" height="161" viewBox="0 0 160 161" fill="none" xmlns="http://www.w3.org/2000/svg">
<path d="M29.1727 109.001C28.8018 108.591 28.1694 108.56 27.7602 108.931C27.3509 109.302 27.3198 109.934 27.6906 110.343L29.1727 109.001ZM68.0616 122.493C68.2691 121.981 68.0224 121.398 67.5106 121.19C66.9988 120.983 66.4156 121.229 66.2081 121.741L68.0616 122.493ZM31.4012 102.065C30.9641 101.728 30.3361 101.808 29.9985 102.246C29.6609 102.683 29.7415 103.311 30.1786 103.648L31.4012 102.065ZM61.2944 74.8292L62.0753 75.454L62.0825 75.4449L61.2944 74.8292ZM74.7741 70.5499C75.3244 70.5967 75.8084 70.1886 75.8553 69.6383C75.9021 69.088 75.4939 68.6039 74.9436 68.5571L74.7741 70.5499ZM28.4316 109.672C27.6906 110.343 27.6909 110.344 27.6912 110.344C27.6915 110.344 27.692 110.345 27.6926 110.346C27.6937 110.347 27.6953 110.349 27.6973 110.351C27.7014 110.355 27.7073 110.362 27.715 110.37C27.7303 110.387 27.7529 110.412 27.7825 110.444C27.8416 110.508 27.9288 110.603 28.0424 110.724C28.2695 110.967 28.6024 111.32 29.0283 111.76C29.8799 112.64 31.1044 113.872 32.6002 115.284C35.5869 118.104 39.6762 121.663 44.0504 124.569C48.3929 127.455 53.156 129.794 57.4643 129.994C59.6472 130.095 61.7437 129.648 63.5913 128.419C65.4348 127.193 66.9455 125.245 68.0616 122.493L66.2081 121.741C65.2045 124.216 63.916 125.801 62.4838 126.754C61.0556 127.703 59.3998 128.081 57.5569 127.996C53.8135 127.822 49.4307 125.743 45.1572 122.904C40.9154 120.085 36.9187 116.611 33.9732 113.83C32.503 112.442 31.3 111.232 30.4656 110.369C30.0485 109.938 29.7237 109.594 29.5039 109.359C29.3941 109.241 29.3105 109.151 29.2547 109.09C29.2269 109.06 29.2059 109.037 29.1922 109.022C29.1853 109.014 29.1803 109.009 29.177 109.005C29.1754 109.004 29.1742 109.002 29.1735 109.001C29.1731 109.001 29.1729 109.001 29.1727 109.001C29.1727 109.001 29.1727 109.001 28.4316 109.672ZM30.1786 103.648C35.753 107.954 40.2398 111.018 43.8473 113.039C47.4325 115.047 50.2448 116.081 52.4464 116.211C53.5649 116.277 54.5591 116.112 55.4178 115.693C56.2811 115.272 56.9442 114.625 57.4431 113.829C58.414 112.28 58.7851 110.13 58.904 107.773C59.0243 105.387 58.8906 102.618 58.7303 99.7314C58.569 96.8258 58.3795 93.7872 58.3736 90.7902C58.3616 84.7466 59.1063 79.1651 62.0753 75.4539L60.5136 74.2045C57.077 78.5001 56.3615 84.717 56.3736 90.7942C56.3797 93.8576 56.5733 96.9599 56.7334 99.8423C56.8946 102.744 57.0207 105.409 56.9065 107.672C56.791 109.963 56.4333 111.675 55.7485 112.767C55.4195 113.292 55.023 113.661 54.5409 113.896C54.0541 114.133 53.417 114.265 52.5643 114.215C50.8236 114.112 48.3339 113.26 44.8248 111.294C41.3381 109.341 36.9383 106.342 31.4012 102.065L30.1786 103.648ZM62.0825 75.4449C64.2328 72.6924 67.3602 71.4515 70.0406 70.9108C71.3728 70.6421 72.5675 70.5522 73.4279 70.5297C73.8572 70.5185 74.201 70.5242 74.4341 70.5323C74.5506 70.5364 74.6393 70.5411 74.6971 70.5447C74.726 70.5464 74.7471 70.5479 74.7601 70.5489C74.7665 70.5493 74.771 70.5497 74.7733 70.5499C74.7745 70.55 74.7752 70.55 74.7753 70.55C74.7754 70.55 74.7753 70.55 74.7751 70.55C74.775 70.55 74.7747 70.55 74.7747 70.55C74.7744 70.55 74.7741 70.5499 74.8588 69.5535C74.9436 68.5571 74.9432 68.5571 74.9428 68.5571C74.9426 68.557 74.9422 68.557 74.9418 68.557C74.9411 68.5569 74.9402 68.5568 74.9392 68.5568C74.9371 68.5566 74.9346 68.5564 74.9315 68.5561C74.9253 68.5557 74.917 68.555 74.9066 68.5542C74.8857 68.5527 74.8566 68.5507 74.8194 68.5484C74.7452 68.5439 74.639 68.5383 74.5043 68.5336C74.2348 68.5241 73.85 68.518 73.3757 68.5304C72.4287 68.5551 71.1154 68.6537 69.6452 68.9503C66.7209 69.5402 63.066 70.9372 60.5064 74.2136L62.0825 75.4449Z" fill="#CC3E19"/>
<path fill-rule="evenodd" clip-rule="evenodd" d="M87.4909 65.6972C58.1572 62.4389 62.6238 87.5749 64.4072 103.219C65.5654 113.372 65.2833 120.356 63.5913 125.353C62.5296 128.488 62.3799 130.293 62.3799 132.509C62.3799 133.955 62.3812 145.033 84.6035 145.033C104.256 145.033 111.862 137.058 111.862 137.058C116.149 134.693 128.255 70.2266 87.4909 65.6972Z" fill="#0F4D43"/>
<path fill-rule="evenodd" clip-rule="evenodd" d="M83.1886 61.2839C83.1886 61.2839 90.9226 66.6437 101.03 56.5365C102.07 55.4967 104.169 56.2303 106.926 55.6177C109.683 55.0047 116.651 52.8613 116.498 46.4289C116.344 39.9968 109.912 37.6992 108.993 35.4029C108.075 33.1047 107.616 25.064 102.562 21.772C97.5085 18.4795 92.5299 18.8618 91.076 18.9392C89.6211 19.0161 89.2379 14.1145 78.9774 15.1866C68.7163 16.2592 64.1214 24.223 63.4334 28.4338C63.2218 29.7213 61.7482 31.2667 60.7525 32.033C59.7568 32.7985 54.4729 36.5501 53.784 39.6906C53.0945 42.8292 53.0945 49.6449 61.8247 55.5408C65.6346 58.1134 70.7068 59.5223 77.0624 59.216L83.1886 61.2839Z" fill="#AA0A0A"/>
<path d="M119.745 105.708C112.166 102.384 94.4208 102.502 85.8145 104.232" stroke="#CC3E19" stroke-width="1.91127" stroke-linecap="round" stroke-linejoin="round"/>
<path fill-rule="evenodd" clip-rule="evenodd" d="M35.9223 112.243L48.7185 110.961C49.7037 110.801 50.3672 109.844 50.2016 108.822L45.1407 82.3151C44.9764 81.2939 44.2843 80.042 42.2747 80.5026L31.1308 82.6878C30.146 82.8476 29.6058 84.5768 29.7719 85.598L33.838 110.682C34.0041 111.704 34.937 112.403 35.9223 112.243Z" fill="#0C7B92"/>
<path fill-rule="evenodd" clip-rule="evenodd" d="M39.6042 84.8673C39.698 85.8816 40.4384 86.2912 41.2184 86.1752C42.1686 86.0327 42.813 85.189 42.6792 84.3681C42.5472 83.548 41.5315 82.8636 40.7538 82.9896C39.9751 83.1148 39.5273 84.04 39.6042 84.8673Z" stroke="#F5F5F5" stroke-width="1.01843"/>
<path d="M43.9316 82.0166C43.9316 82.0166 48.7381 107.992 48.8355 108.593C48.9329 109.194 48.704 109.953 47.8143 109.974C46.9242 109.995 35.1387 111.242 35.1387 111.242" stroke="#F5F5F5" stroke-width="1.18108" stroke-linecap="round"/>
<path d="M83.1631 118.102C106.078 121.181 121.842 125.991 128.114 124.047C140.63 120.166 134.5 93.0899 115.503 77.1477C110.309 72.7872 97.3086 65.44 95.801 72.034C94.2951 78.6276 115.207 104.25 115.207 104.25" stroke="#CC3E19" stroke-width="2" stroke-linecap="round" stroke-linejoin="round"/>
<path fill-rule="evenodd" clip-rule="evenodd" d="M33.4024 107.788C28.5927 109.1 25.1045 102.406 25.0008 99.9553C24.8979 97.5042 35.1212 89.7461 35.9813 91.0362C36.84 92.3277 31.0082 95.1906 30.397 97.6576C35.1935 93.733 40.9985 92.3824 41.1309 93.8691C41.2633 95.3558 36.5274 95.6698 32.2569 99.8206C38.6139 95.9092 42.3446 96.4971 42.4902 97.2375C42.7209 98.4062 35.0825 99.776 34.1673 102.051C40.3186 99.7163 41.6592 98.7939 42.0988 99.8661C42.5375 100.94 34.6661 103.957 34.0049 104.896C33.3432 105.833 33.4024 107.788 33.4024 107.788Z" fill="#F48159"/>
<path fill-rule="evenodd" clip-rule="evenodd" d="M86.1796 108.054L82.9126 114.596C77.9878 113.975 73.3738 107.846 73.3738 107.846C71.1995 107.61 67.6995 108.999 66.1663 108.733C64.6336 108.465 69.3924 106.618 69.968 106.358C70.5428 106.098 72.354 105.51 72.354 105.51C70.9756 105.137 69.3764 105.6 68.6256 106.004C67.8756 106.408 65.1083 107.863 63.5824 107.408C62.5935 107.201 68.1905 103.653 68.1905 103.653L71.2277 103.019C69.7919 102.661 67.7623 103.035 67.3227 103.224C66.8817 103.415 62.7146 106.019 61.9683 105.37C61.389 104.865 64.5558 102.232 66.2551 101.15C67.9534 100.067 70.5774 99.3981 70.5774 99.3981C68.5755 97.626 61.3289 98.5867 60.7705 96.4565C62.867 94.8246 71.6841 96.5976 72.7321 97.2233C73.7816 97.8476 84.6433 105.802 86.1796 108.054Z" fill="#F48159"/>
<path fill-rule="evenodd" clip-rule="evenodd" d="M92.6479 27.4893C95.5895 28.7871 96.3635 35.6519 96.9124 40.6477C96.9124 40.6477 100.385 39.1237 101.847 39.7945C103.309 40.4644 103.856 43.876 102.09 45.5817C100.323 47.2877 98.8005 48.0186 96.3635 47.4092C96.3635 47.4092 95.2668 57.5215 87.2866 60.2628C87.2866 60.2628 86.9207 60.8717 87.47 62.6993C88.0175 64.5273 90.6983 72.5681 90.8198 73.2989C90.9418 74.0302 91.5511 76.2837 84.2413 76.5272C76.9309 76.7711 77.8452 73.4209 77.9057 72.4461C77.9667 71.4709 79.6728 62.394 79.8553 61.4811C79.8553 61.4811 76.5651 61.4811 74.9823 60.4458C73.3982 59.41 68.9517 56.4252 68.4638 45.6422C68.4638 45.6422 65.1127 45.8256 64.1993 42.7793C63.2864 39.733 65.6615 39.0022 68.5243 40.0989C68.5243 40.0989 68.2809 33.5804 69.6211 32.2411C70.9617 30.901 72.9713 29.9863 76.7489 29.9863C80.5256 29.9863 86.3128 28.6465 87.8354 28.0372C89.3581 27.4278 90.5764 26.5759 92.6479 27.4893Z" fill="#F48159"/>
<path d="M90.1334 39.9657C90.4131 40.2853 90.8989 40.3176 91.2185 40.0379C91.5381 39.7583 91.5704 39.2724 91.2907 38.9529L90.1334 39.9657ZM81.905 37.6856C81.5507 37.9199 81.4535 38.397 81.6877 38.7512C81.922 39.1055 82.399 39.2027 82.7533 38.9685L81.905 37.6856ZM69.2682 36.7483C68.8969 36.9546 68.7632 37.4227 68.9694 37.794C69.1756 38.1652 69.6438 38.299 70.015 38.0928L69.2682 36.7483ZM75.8352 36.9664L76.1866 36.2824L76.1862 36.2822L75.8352 36.9664ZM77.2696 43.3861L76.5301 43.175L76.5301 43.1751L77.2696 43.3861ZM76.1369 49.126L75.4901 49.5419L75.4902 49.5421L76.1369 49.126ZM81.2463 50.0667C81.5994 49.8308 81.6945 49.3532 81.4586 49.0001C81.2227 48.647 80.7452 48.5519 80.392 48.7878L81.2463 50.0667ZM83.2051 53.3143C83.4329 52.9559 83.3271 52.4807 82.9687 52.2528C82.6103 52.025 82.1351 52.1308 81.9072 52.4891L83.2051 53.3143ZM76.9327 52.5582C76.7013 52.2021 76.225 52.1011 75.8689 52.3325C75.5128 52.5639 75.4117 53.0402 75.6432 53.3963L76.9327 52.5582ZM90.7121 39.4593C91.2907 38.9529 91.2905 38.9526 91.2902 38.9522C91.2901 38.9521 91.2898 38.9518 91.2896 38.9515C91.2891 38.951 91.2886 38.9505 91.2881 38.9498C91.2869 38.9486 91.2856 38.947 91.284 38.9453C91.2809 38.9417 91.2768 38.9372 91.2718 38.9317C91.2619 38.9206 91.2482 38.9058 91.2311 38.8874C91.1967 38.8507 91.1481 38.7999 91.0858 38.738C90.9613 38.6144 90.7813 38.4454 90.5513 38.2548C90.0932 37.8753 89.4247 37.4002 88.5883 37.0291C86.8876 36.2747 84.5066 35.9652 81.905 37.6856L82.7533 38.9685C84.8339 37.5925 86.6443 37.8492 87.9646 38.4349C88.6387 38.734 89.188 39.1225 89.5701 39.4391C89.7601 39.5965 89.9059 39.7337 90.002 39.8292C90.05 39.8769 90.0855 39.914 90.1076 39.9377C90.1187 39.9495 90.1264 39.958 90.1308 39.9628C90.1329 39.9652 90.1342 39.9667 90.1347 39.9672C90.1349 39.9674 90.1349 39.9674 90.1347 39.9672C90.1346 39.9671 90.1344 39.9669 90.1342 39.9666C90.1341 39.9665 90.1339 39.9663 90.1338 39.9662C90.1336 39.966 90.1334 39.9657 90.7121 39.4593ZM69.6416 37.4205C70.015 38.0928 70.0148 38.0929 70.0146 38.093C70.0146 38.093 70.0144 38.0931 70.0143 38.0932C70.0141 38.0933 70.014 38.0934 70.0139 38.0934C70.0137 38.0935 70.0137 38.0935 70.0139 38.0934C70.0144 38.0931 70.0156 38.0925 70.0176 38.0914C70.0216 38.0892 70.0288 38.0853 70.039 38.08C70.0593 38.0693 70.0916 38.0525 70.1349 38.031C70.2216 37.988 70.3519 37.9261 70.5182 37.8552C70.8518 37.7128 71.3235 37.5369 71.8728 37.4028C72.9898 37.13 74.3228 37.0546 75.4841 37.6505L76.1862 36.2822C74.5529 35.4442 72.7891 35.5959 71.508 35.9087C70.8583 36.0674 70.3055 36.2738 69.9146 36.4407C69.7185 36.5243 69.5614 36.5988 69.4513 36.6534C69.3962 36.6807 69.3528 36.7032 69.322 36.7194C69.3065 36.7275 69.2943 36.7341 69.2853 36.739C69.2808 36.7414 69.2771 36.7434 69.2742 36.745C69.2728 36.7458 69.2716 36.7464 69.2706 36.747C69.2701 36.7473 69.2696 36.7475 69.2692 36.7477C69.269 36.7479 69.2688 36.748 69.2687 36.7481C69.2684 36.7482 69.2682 36.7483 69.6416 37.4205ZM75.4837 37.6503C76.5296 38.1877 76.9028 39.1905 76.9449 40.3464C76.9872 41.5093 76.6787 42.6547 76.5301 43.175L78.009 43.5972C78.1622 43.0608 78.5336 41.7142 78.4818 40.2905C78.4297 38.8595 77.9349 37.1808 76.1866 36.2824L75.4837 37.6503ZM76.5301 43.1751C76.4621 43.4135 76.3228 43.8052 76.1424 44.3305C75.968 44.8383 75.7664 45.4403 75.5951 46.0472C75.4252 46.649 75.2768 47.2842 75.2195 47.8549C75.1669 48.3788 75.1673 49.0399 75.4901 49.5419L76.7836 48.71C76.7847 48.7117 76.7574 48.6665 76.742 48.5317C76.7271 48.4016 76.7277 48.2277 76.7497 48.0087C76.7939 47.5692 76.9146 47.0337 77.0752 46.4649C77.2343 45.9011 77.4244 45.3324 77.597 44.83C77.7635 44.3452 77.9262 43.8873 78.009 43.5972L76.5301 43.1751ZM75.4902 49.5421C75.8286 50.068 76.4325 50.2975 76.917 50.4104C77.4377 50.5317 78.0289 50.5654 78.5769 50.5554C79.1305 50.5452 79.6758 50.4896 80.1194 50.4149C80.3408 50.3777 80.5466 50.334 80.721 50.2857C80.8683 50.2448 81.0786 50.1787 81.2463 50.0667L80.392 48.7878C80.4462 48.7516 80.4464 48.7658 80.3101 48.8036C80.201 48.8339 80.0498 48.8671 79.8641 48.8983C79.4934 48.9607 79.024 49.009 78.5487 49.0177C78.0679 49.0265 77.6161 48.9941 77.266 48.9126C77.0921 48.872 76.9655 48.8244 76.8805 48.7784C76.7954 48.7323 76.779 48.7029 76.7836 48.7099L75.4902 49.5421ZM81.9072 52.4891C81.4942 53.1387 80.6079 53.7827 79.6415 53.9361C78.7497 54.0775 77.7476 53.8122 76.9327 52.5582L75.6432 53.3963C76.7914 55.1632 78.3951 55.691 79.8825 55.455C81.2951 55.2309 82.5614 54.3267 83.2051 53.3143L81.9072 52.4891Z" fill="#3D1955"/>
<path fill-rule="evenodd" clip-rule="evenodd" d="M83.8477 42.8355C83.8477 43.5154 84.219 44.0664 84.6773 44.0664C85.136 44.0664 85.5069 43.5154 85.5069 42.8355C85.5069 42.1556 85.136 41.6045 84.6773 41.6045C84.219 41.6045 83.8477 42.1556 83.8477 42.8355Z" fill="#3D1955"/>
<path fill-rule="evenodd" clip-rule="evenodd" d="M72.5859 42.9746C72.5859 43.6545 72.9573 44.2056 73.4155 44.2056C73.8743 44.2056 74.2451 43.6545 74.2451 42.9746C74.2451 42.2947 73.8743 41.7432 73.4155 41.7432C72.9573 41.7432 72.5859 42.2947 72.5859 42.9746Z" fill="#3D1955"/>
</svg>
