<svg width="160" height="160" viewBox="0 0 160 160" fill="none" xmlns="http://www.w3.org/2000/svg">
<mask id="mask0_4175_154042" style="mask-type:alpha" maskUnits="userSpaceOnUse" x="17" y="15" width="127" height="127">
<path fill-rule="evenodd" clip-rule="evenodd" d="M80.1198 15C45.2599 15 17 43.2599 17 78.1201C17 112.98 45.2599 141.24 80.1198 141.24C114.98 141.24 143.24 112.98 143.24 78.1201" fill="white"/>
</mask>
<g mask="url(#mask0_4175_154042)">
<path fill-rule="evenodd" clip-rule="evenodd" d="M130.063 109.697L117.932 121.436L114.077 139.117C114.077 139.117 114.353 155.088 114.628 159.219C128.947 152.059 132.711 138.558 133.031 125.345C133.352 112.132 130.063 109.697 130.063 109.697Z" fill="#F5F5F5"/>
</g>
<mask id="mask1_4175_154042" style="mask-type:alpha" maskUnits="userSpaceOnUse" x="17" y="15" width="127" height="127">
<path fill-rule="evenodd" clip-rule="evenodd" d="M80.1198 15C45.2599 15 17 43.2599 17 78.1201C17 112.98 45.2599 141.24 80.1198 141.24C114.98 141.24 143.24 112.98 143.24 78.1201C143.24 43.2599 114.98 15 80.1198 15Z" fill="white"/>
</mask>
<g mask="url(#mask1_4175_154042)">
<path fill-rule="evenodd" clip-rule="evenodd" d="M10.2285 134.886C10.2285 134.886 19.8206 79.7604 73.8802 79.8223C91.047 79.8421 103.854 85.591 110.007 98.3054C114.249 107.072 117.734 144.568 117.734 144.568L10.2285 134.886Z" fill="#F5F5F5"/>
</g>
<mask id="mask2_4175_154042" style="mask-type:alpha" maskUnits="userSpaceOnUse" x="17" y="15" width="127" height="127">
<path fill-rule="evenodd" clip-rule="evenodd" d="M80.1198 15C45.2599 15 17 43.2599 17 78.1201C17 112.98 45.2599 141.24 80.1198 141.24C114.98 141.24 143.24 112.98 143.24 78.1201" fill="white"/>
</mask>
<g mask="url(#mask2_4175_154042)">
<path d="M130.216 108.575C132.779 113.613 133.914 121.523 133.221 129.917" stroke="#3D1955" stroke-width="1.8" stroke-linecap="round" stroke-linejoin="round"/>
</g>
<mask id="mask3_4175_154042" style="mask-type:alpha" maskUnits="userSpaceOnUse" x="17" y="15" width="127" height="127">
<path fill-rule="evenodd" clip-rule="evenodd" d="M80.1198 15C45.2599 15 17 43.2599 17 78.1201C17 112.98 45.2599 141.24 80.1198 141.24C114.98 141.24 143.24 112.98 143.24 78.1201" fill="white"/>
</mask>
<g mask="url(#mask3_4175_154042)">
<path d="M10.2285 134.7C11.9943 118.366 29.5074 80.0434 73.8802 79.6368C91.0464 79.4797 103.854 85.4055 110.007 98.1199C115.166 108.784 117.517 132.326 118.313 157.682" stroke="#D5431B" stroke-width="1.8" stroke-linecap="round" stroke-linejoin="round"/>
</g>
<mask id="mask4_4175_154042" style="mask-type:alpha" maskUnits="userSpaceOnUse" x="17" y="15" width="127" height="127">
<path fill-rule="evenodd" clip-rule="evenodd" d="M80.1198 15C45.2599 15 17 43.2599 17 78.1201C17 112.98 45.2599 141.24 80.1198 141.24C114.98 141.24 143.24 112.98 143.24 78.1201" fill="white"/>
</mask>
<g mask="url(#mask4_4175_154042)">
<path fill-rule="evenodd" clip-rule="evenodd" d="M72.8772 83.565C57.7806 84.0808 51.7857 93.8264 50.9445 108.048C49.8977 125.748 51.4952 153.688 51.4952 153.688L104.35 152.008C104.35 152.008 102.093 118.43 101.566 106.998C101.038 95.5671 91.8906 82.9156 72.8772 83.565Z" fill="#AA0A0A"/>
</g>
<path d="M56.4 86.1494C52.6351 89.0687 43.4851 99.0708 41.6525 102.665C42.1611 104.439 47.1216 111.442 47.1216 111.442C45.7206 112.694 40.3604 117.826 40.3604 117.826C40.3604 117.826 48.617 131.743 48.9014 144.234" stroke="#FABF45" stroke-width="1.8" stroke-linecap="round" stroke-linejoin="round"/>
<path d="M91.8906 86.1494C95.6556 89.0687 104.805 99.0708 106.638 102.665C106.129 104.439 101.169 111.442 101.169 111.442C102.57 112.694 107.93 117.826 107.93 117.826C107.93 117.826 105.622 133.268 105.331 145" stroke="#FABF45" stroke-width="1.8" stroke-linecap="round" stroke-linejoin="round"/>
<path fill-rule="evenodd" clip-rule="evenodd" d="M99.335 54.2675C99.3653 56.9681 96.3411 58.164 93.2272 58.1488C93.5054 69.8758 88.4579 75.5929 82.4928 77.466C82.929 79.3241 83.2904 85.7326 83.3576 87.0869C80.9355 90.9911 68.464 89.5016 65.485 87.0869V72.8474C62.5737 69.7855 60.4901 65.6186 59.4821 60.9394C55.8189 61.5489 51.4107 60.4808 51.4485 57.2237C51.4711 54.9216 53.6073 51.6344 58.8205 55.1475C58.8054 54.9294 58.8054 54.7035 58.8054 54.4857C58.8054 42.7583 65.2291 33.2578 75.1058 33.2578C84.223 33.2578 90.6622 41.1936 92.5951 51.7925C97.3492 48.9494 99.3127 52.0633 99.335 54.2675Z" fill="#BC5724"/>
<path d="M65.6729 50.8549C67.5847 48.8595 71.6102 48.0303 74.4834 49.6467" stroke="#3D1955" stroke-width="1.47108" stroke-linecap="round"/>
<path d="M88.773 49.2801C86.6254 47.4582 82.6621 47.8323 80.6274 49.492C83.1185 54.6567 84.651 60.6841 84.0647 61.9657C83.479 63.2476 78.2539 61.5733 78.2539 61.5733" stroke="#3D1955" stroke-width="1.47059" stroke-linecap="round" stroke-linejoin="round"/>
<path d="M75.2646 66.0791C75.5676 67.2716 76.8297 68.2642 78.4634 68.3462C80.3916 68.4424 81.2886 67.3786 81.5259 66.2756" stroke="#3D1955" stroke-width="1.47108" stroke-linecap="round"/>
<path fill-rule="evenodd" clip-rule="evenodd" d="M85.8272 52.6922C85.8909 53.286 85.5506 53.8095 85.066 53.8618C84.5812 53.9144 84.1369 53.4756 84.0722 52.8819C84.0081 52.2881 84.3488 51.764 84.8333 51.7123C85.3179 51.6597 85.7631 52.0984 85.8272 52.6922Z" fill="#3D1955"/>
<path fill-rule="evenodd" clip-rule="evenodd" d="M73.001 53.4718C73.0651 54.0652 72.7244 54.5897 72.2399 54.6419C71.7553 54.6939 71.3107 54.2552 71.246 53.6614C71.182 53.0677 71.5226 52.5435 72.0072 52.4915C72.4917 52.4392 72.937 52.878 73.001 53.4718Z" fill="#3D1955"/>
<path fill-rule="evenodd" clip-rule="evenodd" d="M64.4073 80.8496L75.0715 87.6907L84.0197 81.6018L84.7125 89.0385L75.0715 96.7915L62.9453 88.5537L64.4073 80.8496Z" fill="#AA0A0A"/>
<path fill-rule="evenodd" clip-rule="evenodd" d="M90.1825 78.7881C88.7546 90.8323 81.9379 121.318 75.3926 127.136L102.37 133.268L117.19 132.663L125.055 85.1775L90.1825 78.7881Z" fill="#F5F5F5"/>
<path fill-rule="evenodd" clip-rule="evenodd" d="M89.3564 75.0068L128.26 80.373L119.876 138.058L82.9844 133.027L89.3564 75.0068Z" fill="#FABF45"/>
<path fill-rule="evenodd" clip-rule="evenodd" d="M115.112 101.136C114.168 100.937 110.038 94.7406 109.343 95.3022C108.391 96.0621 113.7 103.24 113.7 103.24C113.336 103.408 109.64 97.9164 109.495 98.9926C109.15 101.543 117.519 111.918 121.277 116.69L128.507 110.385C128.825 105.241 125.908 95.205 124.939 95.5209C124.012 95.8229 124.737 100.153 124.408 101.958C123.1 101.479 112.601 91.1155 111.544 92.1836C110.621 93.1165 117.925 99.7466 117.8 99.9143C117.622 100.154 110.708 92.42 109.536 93.3476C108.713 93.9989 114.481 99.5424 115.112 101.136Z" fill="#BC5724"/>
<path d="M63.0283 89.488L69.1841 97.5L75.265 89.2207L80.9492 96.7914L84.2658 91.5066" stroke="#F5F5F5" stroke-width="1.90686" stroke-linecap="round" stroke-linejoin="round"/>
<path fill-rule="evenodd" clip-rule="evenodd" d="M92.6577 22.4894C86.3281 20.1932 82.069 25.5015 78.3954 25.4743C76.3774 25.4598 70.6811 24.9854 65.9393 27.8661C62.0157 30.2498 61.3152 35.8257 59.2641 36.727C56.7176 37.8461 54.7773 39.7707 54.1773 42.9332C53.5381 46.3005 53.4013 49.8232 54.8296 52.2632C55.5502 53.4944 55.5858 53.6908 58.1963 54.8555C60.1159 55.7122 60.3578 57.8017 60.3578 57.8017L62.6382 57.7961L62.7026 45.4156C65.7336 45.7458 68.8825 45.3949 71.8275 44.6176C73.9779 44.0499 76.4597 41.9719 79.6429 41.2794C81.8883 40.7908 85.4317 41.3926 88.7969 41.5653C90.5973 44.4567 91.8938 47.9475 92.5955 51.7923C93.3103 51.3647 93.9613 51.0741 94.5529 50.8925C94.9771 48.1205 94.7574 44.3321 93.9461 41.2051C95.3131 40.8224 96.431 40.1216 97.1092 38.9053C100.551 32.7309 98.9874 24.7862 92.6577 22.4894Z" fill="#0C7B92"/>
<path d="M62.1087 57.2718L62.1737 44.7619C65.2363 45.0954 68.418 44.7412 71.3939 43.9556C73.5663 43.3819 76.0744 41.2822 79.2907 40.5827C83.9492 39.5697 94.1407 43.2043 96.9387 38.1838C100.416 31.9451 98.8363 24.6776 92.4411 22.3567C86.0449 20.0368 81.7419 24.6405 78.0302 24.613C75.9908 24.5981 70.2352 23.3589 65.4439 26.2699C61.4794 28.6783 60.6183 33.2697 58.699 34.4708C55.7738 36.3013 53.1234 38.1581 52.517 41.3537C51.8712 44.756 51.7722 49.4071 53.6658 52.4876" stroke="#3D1955" stroke-width="1.8" stroke-linecap="round" stroke-linejoin="round"/>
</svg>
