<svg width="160" height="161" viewBox="0 0 160 161" fill="none" xmlns="http://www.w3.org/2000/svg">
<path fill-rule="evenodd" clip-rule="evenodd" d="M81.1115 151.008C38.3363 152.025 14 121.689 14 85.5203C14 49.3532 44.0469 19.9457 81.1115 20.0334C127.674 20.1438 146 54.946 146 91.1137C146 127.281 118.166 150.127 81.1115 151.008Z" fill="#F5F5F5"/>
<path fill-rule="evenodd" clip-rule="evenodd" d="M113.414 155.033H46.2148L45 41.0332H115L113.414 155.033Z" fill="#D5431B"/>
<path fill-rule="evenodd" clip-rule="evenodd" d="M38 30.4314V48.9659C38 50.1073 38.9035 51.0332 40.0173 51.0332L114.983 48.5275C116.096 48.5275 117 47.6022 117 46.4608V29.1785C117 28.0371 116.096 27.1112 114.983 27.1112H109.1V13.963C109.1 12.8837 108.243 12.0138 107.189 12.0335C98.0054 12.2028 58.4544 12.9428 49.2367 13.1842C48.1614 13.2119 47.3108 14.1132 47.3108 15.2158L47.3402 28.3C47.3402 28.3 42.7548 28.364 40.0167 28.364C38.9029 28.364 38 29.29 38 30.4314Z" stroke="#AA0A0A" stroke-width="6.288"/>
<path d="M48 28.0332L111 27.0332" stroke="#AA0A0A" stroke-width="6.288"/>
<path fill-rule="evenodd" clip-rule="evenodd" d="M104.055 134.071L49.946 135.033L49 62.0332H105L104.055 134.071Z" fill="#F5F5F5"/>
<path fill-rule="evenodd" clip-rule="evenodd" d="M60 115.003L53.1932 115.033L53 80.0623L59.8075 80.0332L60 115.003Z" fill="#3D1955"/>
<path fill-rule="evenodd" clip-rule="evenodd" d="M81 115.003L74.1925 115.033L74 80.0623L80.8081 80.0332L81 115.003Z" fill="#3D1955"/>
<path fill-rule="evenodd" clip-rule="evenodd" d="M87 115.018L84.1606 115.033L84 80.0484L86.8399 80.0332L87 115.018Z" fill="#3D1955"/>
<path fill-rule="evenodd" clip-rule="evenodd" d="M93 115.018L90.1601 115.033L90 80.0484L92.8394 80.0332L93 115.018Z" fill="#3D1955"/>
<path fill-rule="evenodd" clip-rule="evenodd" d="M68 115.018L65.1606 115.033L65 80.0484L67.8394 80.0332L68 115.018Z" fill="#3D1955"/>
</svg>
