<svg width="400" height="267" viewBox="0 0 400 267" fill="none" xmlns="http://www.w3.org/2000/svg">
<mask id="mask0_4708_164216" style="mask-type:alpha" maskUnits="userSpaceOnUse" x="11" y="3" width="199" height="215">
<path d="M114.1 4.36814C147.194 -0.474604 180.544 14.8617 194.355 35.8531C208.167 56.8445 209.772 88.8006 205.291 98.7734C200.81 108.746 216.797 145.426 205.207 177.563C198.783 195.39 169.062 217.4 115.435 217.021C61.8083 216.641 37.8458 195.198 22.8864 178.82C12.2234 167.127 20.438 101.383 14.6872 98.8881C6.26587 95.2403 18.6031 51.7463 28.6219 37.4147C43.9773 15.4524 80.9932 9.21704 114.087 4.38052" fill="#BBE5FA"/>
</mask>
<g mask="url(#mask0_4708_164216)">
<path d="M114.1 4.36814C147.194 -0.474604 180.544 14.8617 194.355 35.8531C208.167 56.8445 209.772 88.8006 205.291 98.7734C200.81 108.746 216.797 145.426 205.207 177.563C198.783 195.39 169.062 217.4 115.435 217.021C61.8083 216.641 37.8458 195.198 22.8864 178.82C12.2234 167.127 20.438 101.383 14.6872 98.8881C6.26587 95.2403 18.6031 51.7463 28.6219 37.4147C43.9773 15.4524 80.9932 9.21704 114.087 4.38052" fill="#D4EEF2"/>
<path fill-rule="evenodd" clip-rule="evenodd" d="M98.5158 38.4232L98.5158 6.36075C98.5158 5.90584 98.696 5.46968 99.0171 5.14743C99.3382 4.82518 99.7739 4.64325 100.229 4.6416V4.6416C100.684 4.64325 101.119 4.82518 101.441 5.14743C101.762 5.46968 101.942 5.90584 101.942 6.36075L101.942 38.4232C119.889 39.1582 134.166 51.3675 134.166 66.3179L66.2666 66.3179C66.2853 51.3488 80.5629 39.1395 98.5158 38.4232Z" stroke="white" stroke-width="2" stroke-linecap="round" stroke-linejoin="round"/>
<path fill-rule="evenodd" clip-rule="evenodd" d="M45.0308 16.2908L45.0308 6.32394C45.0325 5.86846 45.2141 5.43209 45.5362 5.11002C45.8583 4.78794 46.2946 4.60613 46.7501 4.60449V4.60449C47.205 4.60614 47.6407 4.78807 47.9618 5.11032C48.2828 5.43257 48.4632 5.86903 48.4632 6.32394L48.4632 16.2221C61.8313 16.845 72.4584 26.6876 72.4584 38.7288L21.7207 38.7288C21.7207 26.9181 31.9866 17.2439 45.0308 16.2908Z" stroke="white" stroke-width="2" stroke-linecap="round" stroke-linejoin="round"/>
<path d="M-84.1904 187.721C-83.7232 189.141 77.0927 188.194 77.0927 188.194" stroke="white" stroke-width="2" stroke-miterlimit="7.15"/>
<path d="M77.1056 212.321L-84.6572 211.374" stroke="white" stroke-width="2" stroke-miterlimit="7.15"/>
<path d="M88.4176 156.867L87.2091 129.228C87.2839 124.095 85.9633 120.581 80.251 120.581C47.3478 120.581 -57.3171 120.07 -86.6385 120.936C-90.8433 121.055 -94.1635 124.176 -94.1137 127.951L-93.8022 156.605C-90.8869 156.468 -88.2955 157.851 -86.2087 161.994C-85.7808 163.104 -85.5062 164.267 -85.3927 165.451L79.1235 165.594C79.2381 164.41 79.5148 163.246 79.9458 162.137C82.2382 157.596 85.1472 156.406 88.4176 156.867Z" stroke="white" stroke-width="2" stroke-miterlimit="7.15"/>
<path d="M79.124 165.639C77.305 178.477 78.0525 217.965 78.0525 217.965H90.3492L91.296 178.72L95.5507 170.678C99.8115 162.642 95.0772 158.843 90.8226 157.435C90.0402 157.17 89.2354 156.976 88.4181 156.855" stroke="white" stroke-width="2" stroke-miterlimit="7.15"/>
</g>
<path d="M315.894 201.065C315.401 200.972 314.891 201.053 314.451 201.296C314.012 201.539 313.67 201.927 313.487 202.394C313.376 202.89 313.466 203.41 313.738 203.84C314.009 204.27 314.439 204.576 314.935 204.689C315.036 204.725 315.142 204.748 315.249 204.758C315.452 204.782 315.657 204.765 315.854 204.709C316.05 204.653 316.234 204.559 316.394 204.432C316.554 204.305 316.688 204.148 316.787 203.969C316.887 203.791 316.95 203.594 316.973 203.391C317.174 202.444 316.779 201.316 315.894 201.065Z" stroke="#F5F5F5" stroke-width="1.14" stroke-miterlimit="7.15"/>
<path d="M240.186 220.199C256.1 256.674 307.815 196.446 307.815 196.446M224.053 127.866C224.053 127.866 239.635 126.119 248.224 136.522C271.549 164.161 226.571 247.164 303.331 184.503L224.053 127.866Z" stroke="#0D6D5E" stroke-width="2.15" stroke-linecap="round" stroke-linejoin="round"/>
<path d="M294.751 201.292H294.827C295.672 201.377 296.516 201.125 297.176 200.592C297.836 200.058 298.258 199.285 298.352 198.441L304.338 154.004C304.566 152.199 303.54 149.168 301.791 148.94L282.029 145.615C278.466 144.912 277.278 147.154 277.069 148.959L269.373 195.952C269.245 196.802 269.459 197.668 269.968 198.361C270.478 199.054 271.241 199.517 272.091 199.648L294.722 201.311" fill="#CC3E19"/>
<path d="M296.062 199.468C296.062 199.468 275.16 197.795 273.639 197.833C272.119 197.871 271.635 196.541 271.739 195.477C271.844 194.413 279.122 148.37 279.122 148.37" stroke="#F5F5F5" stroke-width="1.32" stroke-miterlimit="7.15" stroke-linecap="round"/>
<path d="M298.95 193.329C298.95 193.329 298.95 189.871 297.753 188.256C296.556 186.641 282.551 181.681 283.245 179.772C283.938 177.862 286.371 179.42 297.335 183.249C295.615 179.277 282.076 177.225 282.428 175.154C282.646 173.843 289.173 172.627 300.594 179.221C292.869 172.142 284.499 171.781 284.66 169.149C284.822 166.517 295.112 168.627 303.767 175.325C302.58 170.992 292.147 166.232 293.61 163.924C295.074 161.615 313.468 174.793 313.392 179.125C313.316 183.458 307.501 195.429 298.95 193.377" fill="#F5AA6E"/>
<path d="M185.583 41.767C190.733 19.6388 246.999 1.36772 261.412 37.8808C275.664 73.9852 239.844 90.3938 252.262 105.615C266.581 123.173 246.011 136.598 233.07 144.779C213.735 157.026 163.711 159.411 146.001 131.04C128.291 102.67 170.704 95.0495 171.056 83.1255C171.407 71.2015 162.4 51.4487 185.612 41.767" fill="#AA0A0A"/>
<path d="M164.908 146.128C154.133 142.736 144.613 136.693 138.694 127.221C120.955 98.8407 163.397 91.2301 163.748 79.3061C164.1 67.3821 155.093 47.6294 178.304 37.9477C183.444 15.8194 246.276 2.09014 258.969 34.0521" stroke="#0D6D5E" stroke-width="1.85" stroke-linecap="round" stroke-linejoin="round"/>
<path d="M207.311 126.091C106.599 137.321 153.003 247.658 160.565 251.838C160.565 251.838 180.518 266.033 215.245 266.033C254.447 266.033 254.447 246.499 254.447 243.943C254.53 239.64 253.804 235.361 252.309 231.325C249.325 222.499 248.822 210.185 250.874 192.266C254.019 164.665 261.895 120.323 210.143 126.072" fill="#026980"/>
<path d="M213.079 194.033C197.877 190.983 166.59 190.774 153.222 196.645" stroke="#0D6D5E" stroke-width="2.15" stroke-linecap="round" stroke-linejoin="round"/>
<path d="M159.435 193.359C159.435 193.359 190.02 150.043 187.378 138.404C184.737 126.765 166.476 139.401 157.307 147.107C123.815 175.24 114.552 221.444 136.67 228.285C147.73 231.724 175.54 223.23 215.977 217.833" stroke="#0D6D5E" stroke-width="2.15" stroke-linecap="round" stroke-linejoin="round"/>
<path d="M210.676 200.105C213.384 196.133 232.528 182.052 234.429 180.997C236.329 179.943 251.825 176.769 255.531 179.648C254.581 183.449 241.754 181.71 238.229 184.836C240.886 185.53 243.441 186.568 245.83 187.924C248.833 189.824 254.381 194.48 253.431 195.363C252.12 196.513 244.785 191.924 243.987 191.563C241.752 190.898 239.391 190.774 237.098 191.202L242.457 192.323C242.457 192.323 252.329 198.584 250.581 198.974C247.892 199.772 242.98 197.207 241.688 196.504C239.663 195.46 237.34 195.152 235.113 195.63C235.113 195.63 238.305 196.655 239.322 197.121C240.338 197.587 248.728 200.874 246.03 201.311C243.331 201.748 237.146 199.297 233.317 199.706C233.317 199.706 225.156 210.517 216.452 211.62L210.752 200.076" fill="#F5AA6E"/>
<path d="M249.754 71.5526C249.326 75.9517 247.198 79.5149 241.098 79.4199C240.458 79.4269 239.833 79.2303 239.312 78.859C237.858 88.0181 235.511 96.0279 233.611 99.6099C231.084 104.36 224.879 111.011 214.808 110.507C214.808 110.507 220.974 135.838 219.264 141.235C217.554 146.631 199.065 144.322 195.777 140.854C194.504 139.515 197.459 118.128 201.136 107.942C188.908 102.593 189.231 87.8854 187.264 82.2893C182.97 83.8855 176.138 82.8117 174.618 76.75C172.528 68.3985 183.587 67.2487 187.103 70.2226C187.682 65.5195 187.939 52.8926 191.046 45.2537C194.153 37.6147 226.932 36.6076 232.974 40.7216C239.065 47.2964 241.098 54.6501 240.661 66.1085C245.326 64.6833 250.419 65.7192 249.849 71.6004" fill="#F5AA6E"/>
<path d="M249.754 71.5526C249.326 75.9517 247.198 79.5149 241.098 79.4199C240.458 79.4269 239.833 79.2303 239.312 78.859C237.858 88.0181 235.511 96.0279 233.611 99.6099C231.084 104.36 224.879 111.011 214.808 110.507C214.808 110.507 220.974 135.838 219.264 141.235C217.554 146.631 199.065 144.322 195.777 140.854C194.504 139.515 197.459 118.128 201.136 107.942C188.908 102.593 189.231 87.8854 187.264 82.2893C182.97 83.8855 176.138 82.8117 174.618 76.75C172.528 68.3985 183.587 67.2487 187.103 70.2226C187.682 65.5195 187.939 52.8926 191.046 45.2537C194.153 37.6147 226.932 36.6076 232.974 40.7216C239.065 47.2964 241.098 54.6501 240.661 66.1085C245.231 64.6453 250.324 65.6714 249.754 71.5526Z" stroke="#F5AA6E" stroke-width="0.77" stroke-miterlimit="7.15"/>
<path d="M191.445 42.1756C201.897 50.6411 237.744 57.064 247.901 55.0402C258.058 53.0165 253.726 34.5844 245.602 29.1783C237.479 23.7721 217.507 17.4725 191.445 42.1756Z" fill="#AA0A0A"/>
<path d="M215.283 151.448C216.541 155.971 217.493 160.574 218.134 165.225C218.865 171.382 218.865 181.529 218.865 181.529" stroke="#D4EEF2" stroke-width="2.12" stroke-linecap="round" stroke-linejoin="round"/>
<path d="M191.368 132.969L191.273 162.822L214.2 149.634L234.817 154.651L222.893 128.979" stroke="#D4EEF2" stroke-width="2.12" stroke-linecap="round" stroke-linejoin="round"/>
<path d="M238.523 59.7239C232.281 55.6669 225.801 57.7668 223.492 59.8C221.383 61.1872 225.392 80.9211 224.138 82.3083C222.884 83.6954 216.822 82.3083 216.822 82.3083" stroke="#264385" stroke-width="1.73" stroke-miterlimit="7.15" stroke-linecap="round"/>
<path d="M197.858 61.016C201.336 56.7214 209.744 56.7121 213.336 59.344" stroke="#264385" stroke-width="1.73" stroke-miterlimit="7.15" stroke-linecap="round"/>
<path d="M208.803 66.8589C208.803 68.094 208.062 69.0917 207.15 69.0917C206.237 69.0917 205.506 68.094 205.506 66.8589C205.506 65.6237 206.247 64.6357 207.15 64.6357C208.052 64.6357 208.803 65.5857 208.803 66.8589Z" fill="#264385"/>
<path d="M233.345 66.9731C233.345 68.1893 232.614 69.187 231.702 69.187C230.79 69.187 230.067 68.1893 230.067 66.9731C230.067 65.757 230.799 64.75 231.702 64.75C232.604 64.75 233.345 65.7 233.345 66.9731Z" fill="#264385"/>
<path d="M193.107 42.251C203.559 50.707 239.407 57.1394 249.563 55.1156" stroke="#0D6D5E" stroke-width="1.85" stroke-linecap="round" stroke-linejoin="round"/>
<path d="M182.638 82.1183C183.567 82.1183 184.319 81.3654 184.319 80.4366C184.319 79.5078 183.567 78.7549 182.638 78.7549C181.709 78.7549 180.956 79.5078 180.956 80.4366C180.956 81.3654 181.709 82.1183 182.638 82.1183Z" fill="white"/>
<path d="M243.083 78.4982C244.012 78.4982 244.765 77.7453 244.765 76.8165C244.765 75.8877 244.012 75.1348 243.083 75.1348C242.154 75.1348 241.401 75.8877 241.401 76.8165C241.401 77.7453 242.154 78.4982 243.083 78.4982Z" fill="white"/>
<path d="M223.16 94.8216C221.317 96.1897 215.321 95.534 215.321 94.6504" stroke="#264385" stroke-width="1.35" stroke-miterlimit="7.15" stroke-linecap="round"/>
<path fill-rule="evenodd" clip-rule="evenodd" d="M338.172 10.6528C338.234 10.6888 338.303 10.7371 338.379 10.7972L338.537 10.9331L338.713 11.1001L338.905 11.2973L339.112 11.5241L339.335 11.7798L339.573 12.0638L339.958 12.5413L340.373 13.0785L340.819 13.6732L341.293 14.3231L341.625 14.7858L342.504 16.0412L343.064 16.8585L344.047 18.3202L345.086 19.8971L346.399 21.9265L347.774 24.0882L348.958 25.9776L350.416 28.3345L352.404 31.5992L353.915 34.1156L355.43 36.6699L356.581 38.6321L358.203 41.4295L359.793 44.2102L361.033 46.407L361.938 48.0305L363.108 50.1535L363.675 51.1937L364.768 53.2242L365.8 55.1781L366.765 57.0433L367.219 57.9389L367.654 58.8079L368.069 59.6487L368.65 60.8539L369.009 61.6178L369.344 62.3483L369.655 63.0439C369.804 63.3827 369.943 63.7079 370.072 64.0186C370.392 64.786 370.029 65.667 369.261 65.9864C368.494 66.3059 367.613 65.9428 367.294 65.1754L367.03 64.556L366.74 63.8979L366.424 63.2028L366.083 62.4723L365.528 61.3134L364.921 60.0835L364.268 58.788L363.57 57.4322L362.831 56.0214L362.055 54.5608L360.968 52.5452L360.116 50.9893L358.94 48.8659L357.725 46.6982L356.477 44.4987L354.883 41.7239L354.238 40.6111L352.248 37.2098L350.764 34.706L349.292 32.2499L347.844 29.8604L346.155 27.1073L344.8 24.9302L343.759 23.2788L342.522 21.3433L341.59 19.9094L340.717 18.5879L340.103 17.6762L339.344 16.5744L338.66 15.6113L338.347 15.1848L338.056 14.7965L337.658 14.2887L337.576 14.1889L337.103 14.8212L336.658 15.4297L336.202 16.0683L335.733 16.7367L335.253 17.4349L334.76 18.1627L334 19.3096L333.213 20.5224L332.4 21.8006L331.844 22.6889L330.987 24.0751L330.104 25.5257L329.196 27.04L328.576 28.0847L327.625 29.7044L326.648 31.3866L325.646 33.131L324.619 34.9371L323.566 36.8044L322.124 39.3888L320.776 41.8277L319.549 44.0669L318.291 46.3771L316.678 49.363L314.161 54.0618L311.455 59.161L305.477 70.5038L306.106 70.5842L306.671 70.6452L307.626 70.7326L308.706 70.815L309.908 70.8921L310.775 70.9404L312.236 71.011L313.81 71.075L316.076 71.1501L317.892 71.1985L320.457 71.2525L322.481 71.285L324.583 71.3105L327.497 71.3337L328.997 71.3406C329.899 71.3437 330.804 71.3452 331.711 71.345L334.093 71.3408L337.778 71.3198L340.375 71.2946L344.205 71.2413L347.922 71.1703L350.904 71.0983L353.196 71.0326L356.45 70.9212L358.968 70.8172L361.284 70.7036L362.976 70.6061L364.142 70.5293L365.216 70.4495L366.192 70.3668C367.019 70.2914 367.751 70.9014 367.827 71.7292C367.902 72.5569 367.292 73.289 366.464 73.3643L365.79 73.4228L364.69 73.5078L363.488 73.5895L362.192 73.6677L359.834 73.7901L357.252 73.9021L355.044 73.9838L352.724 74.0582L350.304 74.1249L347.16 74.1972L343.909 74.2566L340.576 74.3025L336.505 74.3391L333.77 74.3517L330.35 74.354L327.477 74.3436L323.83 74.3124L321.739 74.2843L319.729 74.2493L317.804 74.2072L315.973 74.1583L314.806 74.1219L313.143 74.0616L311.589 73.9946L310.161 73.9215L309.288 73.87L307.702 73.7587L306.991 73.6989L306.334 73.6363L305.59 73.5541L304.935 73.4674L304.666 73.4265L304.176 73.3406C303.794 73.2665 303.476 73.1852 303.215 73.0924C302.882 72.9742 302.609 72.832 302.364 72.6033C301.838 72.1108 301.64 71.3312 302.016 70.6187L308.318 58.6545L311.506 52.6445L313.203 49.4701L315.244 45.6825L316.907 42.6238L318.139 40.3766L319.505 37.905L320.991 35.2424L322.075 33.32L323.133 31.4617L324.165 29.668L325.17 27.9392L326.148 26.2757L327.101 24.6778L328.027 23.1459L328.926 21.6803L329.799 20.2814L330.367 19.386L331.195 18.099L331.733 17.2786L332.259 16.4884L332.773 15.7284L333.523 14.6454L334.007 13.9615L334.48 13.3083L334.941 12.6859L335.61 11.81L336.041 11.2649C336.112 11.1766 336.182 11.0896 336.252 11.004C336.719 10.4314 337.533 10.2826 338.172 10.6528ZM337.622 56.4736C340.897 56.4736 343.344 59.0814 343.344 62.344C343.344 65.5809 340.363 68.4983 337.067 68.4983C333.844 68.4983 331.569 66.0267 331.375 62.7657C331.143 58.8538 333.946 56.4736 337.622 56.4736ZM337.622 59.4836C335.545 59.4836 334.261 60.5743 334.38 62.5874C334.484 64.3434 335.538 65.4884 337.067 65.4884C338.715 65.4884 340.335 63.9039 340.335 62.344C340.335 60.7025 339.191 59.4836 337.622 59.4836ZM336.538 25.8068C337.343 25.786 338.188 25.7988 339.029 25.8353L339.659 25.867L340.164 25.8988L340.677 25.9381C341.379 26.0007 341.937 26.5406 342.033 27.2269L342.046 27.3661L342.276 32.2219L342.542 38.1233L342.7 41.8595L342.848 45.7596L342.918 48.1218L342.941 49.4558L342.94 50.2783L342.932 50.5956L342.92 50.8494L342.903 51.0397L342.893 51.1112C342.35 54.2752 333.459 54.6321 332.183 51.5473C332.125 51.4066 332.088 51.2581 332.075 51.1071L332.069 50.9553L332.332 27.5962C332.34 26.9165 332.802 26.3264 333.46 26.1561C334.276 25.9451 335.311 25.8384 336.538 25.8068ZM337.172 28.8072L336.616 28.8157C336.31 28.8236 336.022 28.8368 335.752 28.8554L335.327 28.8905L335.086 50.3674L335.193 50.4091L335.319 50.4503L335.461 50.4897C336.03 50.6362 336.807 50.7006 337.622 50.6678C338.319 50.6399 338.988 50.543 339.503 50.4013L339.714 50.3378L339.837 50.2952L339.937 50.255V49.9381L339.923 48.9019L339.889 47.4907L339.806 44.9608L339.616 40.1293L339.374 34.6467L339.103 28.8523L338.904 28.8426C338.514 28.8257 338.125 28.8143 337.741 28.8094L337.172 28.8072Z" fill="#D5431B"/>
<path d="M314.085 133.921C336.233 119.661 338.196 99.7644 335.318 92.0515C331.248 81.1279 321.81 84.7838 325.567 91.5499C331.618 102.436 384.586 95.4188 387.973 58.4154C391.359 21.412 371.832 11.843 360.156 6.41255C346.128 -0.12152 311.539 -1.57005 293.881 18.0196C277.126 36.6123 275.257 74.8635 315.653 86.7151" stroke="#D5431B" stroke-width="3" stroke-miterlimit="10" stroke-linecap="round"/>
</svg>
