<svg width="400" height="267" viewBox="0 0 400 267" fill="none" xmlns="http://www.w3.org/2000/svg">
<mask id="mask0_4708_164171" style="mask-type:alpha" maskUnits="userSpaceOnUse" x="15" y="7" width="212" height="228">
<path d="M117.854 233.874C82.5985 239.288 46.9182 223.185 32.031 200.904C17.1437 178.623 15.1906 144.557 19.8939 133.888C24.5973 123.219 7.27209 84.224 19.3892 49.8656C26.1054 30.8065 57.6335 7.11037 114.824 7.11036C172.015 7.11036 197.731 29.7967 213.807 47.1486C225.267 59.5381 217.003 129.71 223.154 132.327C232.162 136.153 219.334 182.629 208.758 197.988C192.549 221.524 153.122 228.453 117.867 233.861" fill="#BBE5FA"/>
</mask>
<g mask="url(#mask0_4708_164171)">
<path d="M117.854 233.874C82.5985 239.288 46.9182 223.185 32.031 200.904C17.1437 178.623 15.1906 144.557 19.8939 133.888C24.5973 123.219 7.27209 84.224 19.3892 49.8656C26.1054 30.8065 57.6335 7.11037 114.824 7.11036C172.015 7.11036 197.731 29.7967 213.807 47.1486C225.267 59.5381 217.003 129.71 223.154 132.327C232.162 136.153 219.334 182.629 208.758 197.988C192.549 221.524 153.122 228.453 117.867 233.861" fill="#D4EEF2"/>
<path d="M70.5986 41.0075C72.3659 37.655 75.0181 34.8509 78.267 32.8996C81.5159 30.9484 85.2373 29.9246 89.0271 29.9396C92.8169 29.9547 96.5302 31.0081 99.7635 32.9851C102.997 34.962 105.626 37.7871 107.367 41.1536C109.108 44.5201 109.893 48.2992 109.636 52.0803C109.38 55.8615 108.093 59.5002 105.914 62.6011C103.736 65.7021 100.749 68.1468 97.2785 69.6697C93.8081 71.1926 89.9868 71.7354 86.2296 71.2392" stroke="white" stroke-width="2" stroke-linecap="round" stroke-linejoin="round"/>
<path d="M88.7498 64.956C89.1443 62.7417 88.9212 60.4615 88.1049 58.3657C87.2887 56.2699 85.9109 54.4393 84.1227 53.0751C82.3345 51.7108 80.2051 50.8657 77.9681 50.6322C75.7311 50.3987 73.473 50.786 71.4416 51.7515C71.3373 51.8053 71.2231 51.8368 71.106 51.8444C70.9889 51.8519 70.8715 51.8353 70.7612 51.7953C70.6509 51.7553 70.55 51.693 70.4649 51.6122C70.3798 51.5314 70.3123 51.4339 70.2667 51.3258C70.1853 51.1626 70.1585 50.9775 70.1901 50.7978C70.3532 49.9361 70.4359 49.0611 70.4371 48.1841C70.4575 44.3345 69.0186 40.6202 66.4102 37.7891" stroke="white" stroke-width="2" stroke-linecap="round" stroke-linejoin="round"/>
<path d="M63.8823 84.5201H64.342C74.2689 84.5201 113.883 84.7244 113.883 84.7244C115.437 84.7016 116.991 84.7613 118.54 84.9032C118.429 66.4372 117.688 31.4208 117.688 31.4208C117.688 30.5923 117.525 29.772 117.208 29.0066C116.891 28.2412 116.426 27.5457 115.84 26.9599C115.255 26.3741 114.559 25.9095 113.794 25.5924C113.028 25.2754 112.208 25.1123 111.38 25.1123L63.8057 25.9211C63.8057 26.3893 63.8057 26.866 63.8057 27.3683C63.8482 27.3683 63.8737 66.4883 63.8823 84.5201Z" stroke="white" stroke-width="2" stroke-linecap="round" stroke-linejoin="round"/>
<path d="M63.8821 90.3859V91.3225C63.8821 102.595 63.6777 147.563 63.6777 147.563C63.6777 148.372 63.6777 149.13 63.6777 149.819H107.531C109.205 149.819 110.811 149.155 111.995 147.972C113.18 146.789 113.846 145.185 113.848 143.511C113.848 143.511 118.454 106.902 118.582 90.0879C117.028 90.2343 115.468 90.2942 113.908 90.2669L63.8821 90.3859Z" stroke="white" stroke-width="2" stroke-linecap="round" stroke-linejoin="round"/>
<path d="M63.7197 75.0786H76.737C79.6081 75.0664 82.3837 74.0463 84.5792 72.1961C86.7748 70.346 88.2509 67.7835 88.7497 64.9561" stroke="white" stroke-width="2" stroke-linecap="round" stroke-linejoin="round"/>
<path d="M57.7772 33.1323C56.9197 32.887 56.0296 32.7751 55.138 32.8004C51.2447 32.7917 47.494 34.2651 44.6478 36.9216C41.8015 39.5781 40.0731 43.2183 39.8136 47.103C39.8143 47.2231 39.7896 47.3421 39.741 47.452C39.6925 47.5619 39.6213 47.6603 39.532 47.7407C39.4428 47.8211 39.3375 47.8818 39.2232 47.9186C39.1088 47.9554 38.9879 47.9676 38.8685 47.9544C38.7205 47.943 38.5775 47.8963 38.4513 47.8182C36.8227 46.7713 34.942 46.1828 33.0071 46.1147C31.0722 46.0465 29.1546 46.5013 27.4563 47.431C25.758 48.3607 24.3419 49.7311 23.3568 51.3978C22.3716 53.0646 21.854 54.966 21.8584 56.9021V57.2854C21.8678 57.4028 21.8527 57.5208 21.8142 57.6321C21.7756 57.7434 21.7145 57.8454 21.6345 57.9318C21.5545 58.0183 21.4573 58.0871 21.3493 58.1341C21.2413 58.1811 21.1248 58.2051 21.007 58.2048C20.9059 58.2084 20.8051 58.1939 20.709 58.1621C19.8802 57.9148 19.0199 57.7887 18.155 57.7876C15.9045 57.8582 13.7699 58.8017 12.203 60.4186C10.636 62.0354 9.75977 64.1986 9.75977 66.4502C9.75977 68.7018 10.636 70.865 12.203 72.4818C13.7699 74.0987 15.9045 75.0423 18.155 75.1128H57.7943" stroke="white" stroke-width="2" stroke-linecap="round" stroke-linejoin="round"/>
<path d="M116.99 160.64H3.38436C1.71044 160.638 0.105882 159.971 -1.07696 158.787C-2.2598 157.602 -2.92424 155.997 -2.92424 154.323L-6.07422 76.8494L-2.92424 22.2688C-2.92424 20.5948 -2.2598 18.9894 -1.07696 17.8049C0.105882 16.6205 1.71044 15.954 3.38436 15.9517L120.872 14.249C121.701 14.249 122.523 14.4123 123.289 14.7298C124.056 15.0472 124.752 15.5125 125.339 16.0991C125.925 16.6857 126.391 17.3821 126.708 18.1485C127.025 18.9149 127.189 19.7365 127.189 20.566C127.189 20.566 127.938 79.1821 127.938 91.7141C127.938 104.246 123.29 154.28 123.29 154.28C123.295 155.112 123.137 155.937 122.823 156.707C122.509 157.477 122.046 158.178 121.46 158.769C120.875 159.36 120.179 159.829 119.412 160.15C118.644 160.471 117.821 160.638 116.99 160.64V160.64Z" stroke="white" stroke-width="2" stroke-linecap="round" stroke-linejoin="round"/>
<path d="M58.0078 84.5289V77.9394L58.144 28.8841C58.144 27.8369 58.144 26.8663 58.144 26.0234L12.7581 26.7983C11.0827 26.7983 9.47597 27.4639 8.29129 28.6486C7.10661 29.8333 6.441 31.4399 6.441 33.1153C4.4779 48.1467 3.42601 63.2831 3.29102 78.4416C3.29102 80.3997 3.29098 82.5112 3.35909 84.7247C4.89328 84.5891 6.43346 84.5321 7.97348 84.5543L58.0078 84.5289Z" stroke="white" stroke-width="2" stroke-linecap="round" stroke-linejoin="round"/>
<path d="M3.41797 86.4697C3.96284 109.874 6.46579 143.511 6.46579 143.511C6.46805 145.185 7.13456 146.789 8.31899 147.972C9.50343 149.155 11.109 149.819 12.7829 149.819H58.1773C58.1773 149.13 58.1773 148.372 58.1773 147.563L58.0581 90.3946H52.5923L9.37748 90.2499" stroke="white" stroke-width="2" stroke-linecap="round" stroke-linejoin="round"/>
<path d="M118.539 84.903C116.991 84.7611 115.436 84.7015 113.882 84.7243C113.882 84.7243 74.2681 84.5199 64.3413 84.5199H63.8815C63.8815 66.4882 63.8815 27.3682 63.8815 27.3682C63.8815 26.8659 63.8815 26.3891 63.8815 25.9209L58.2116 26.023C58.2116 26.8743 58.2116 27.8364 58.2116 28.8836L58.0753 77.939V84.5285H8.06655C6.52653 84.5063 4.98634 84.5631 3.45215 84.6987C3.45215 85.2776 3.45215 85.8565 3.45215 86.4014L3.61396 90.0026C3.61396 90.1559 6.61075 90.1984 9.36915 90.1984L52.5841 90.3431H58.0497L58.1689 147.512C58.1689 148.321 58.1689 149.078 58.1689 149.768H63.6687C63.6687 149.078 63.6687 148.321 63.6687 147.512C63.6687 147.512 63.873 102.543 63.873 91.2712V90.3346L113.873 90.2155C115.433 90.2428 116.994 90.1832 118.547 90.0367V89.3641C118.556 88.053 118.556 86.5461 118.539 84.903Z" stroke="white" stroke-width="2" stroke-linecap="round" stroke-linejoin="round"/>
</g>
<path d="M305.029 199.55C304.532 199.456 304.017 199.538 303.574 199.783C303.131 200.027 302.787 200.418 302.602 200.889C302.491 201.389 302.582 201.913 302.855 202.347C303.129 202.78 303.562 203.087 304.062 203.202C304.164 203.238 304.27 203.261 304.378 203.271C304.582 203.295 304.79 203.278 304.988 203.222C305.186 203.166 305.371 203.071 305.532 202.943C305.694 202.815 305.828 202.657 305.928 202.477C306.028 202.297 306.092 202.099 306.116 201.894C306.318 200.94 305.92 199.802 305.029 199.55Z" stroke="#F5F5F5" stroke-width="1.14" stroke-miterlimit="7.15"/>
<path d="M139.774 132.706C150.173 113.423 170.927 112.315 181.311 114.969C182.897 124.928 205.591 132.594 214.563 126.001C237.691 126.001 247.135 147.67 238.058 193.527C228.98 239.385 255.213 244.424 223.64 258.03C192.067 271.636 161.317 253.296 146.214 244.424C131.111 235.552 121.364 166.847 139.774 132.706Z" fill="#3D1955"/>
<path d="M220.29 127.733C243.373 129.171 251.452 151.385 239.542 196.589C227.631 241.793 253.5 248.454 221.143 260.071C188.785 271.688 159.234 251.472 144.712 241.678" stroke="#D5431B" stroke-width="2"/>
<path d="M283.978 163.929C277.232 182.883 255.31 200.045 240.297 198.845C229.307 197.963 231.229 179.454 224.105 163.714C219.199 152.878 211.214 156.307 197.619 160.529C184.024 164.751 179.809 176.476 188.64 197C197.471 217.525 225.826 237.427 251.095 232.272C285.41 225.28 300.497 186.542 305.32 169.714" stroke="#026980" stroke-width="2.04" stroke-linecap="round" stroke-linejoin="round"/>
<path d="M284.06 162.658C285.86 170.659 300.853 171.159 305.327 169.609C309.8 168.059 314.897 147.602 311.844 147.26C308.79 146.917 308.684 157.466 304.795 160.081C307.689 150.284 305.106 140.793 302.334 141.627C299.562 142.462 303.094 149.666 299.296 158.837C300.815 146.753 296.554 141.702 295.103 141.963C292.825 142.432 296.941 154.627 293.653 157.57C292.536 146.88 293.03 144.265 290.736 144.362C288.442 144.458 289.817 158.159 288.7 159.783C287.584 161.407 284.037 162.681 284.037 162.681" fill="#F5AA6E"/>
<path d="M229.236 174.287C216.204 192.264 198.242 207.876 185.936 202.278C174.849 197.23 183.048 182.725 180.355 163.887C178.5 150.928 171.295 141.278 155.555 141.583C139.815 141.888 128.265 163.634 131.272 188.048C134.279 212.463 145.007 249.754 173.435 252.067C212.052 255.204 242.41 217.645 248.919 200.464" stroke="#026980" stroke-width="2.04" stroke-linecap="round" stroke-linejoin="round"/>
<path d="M276.135 169.204L255.539 166.633C254.768 166.474 254.093 166.019 253.661 165.368C253.23 164.716 253.078 163.923 253.238 163.161L262.502 121.125C262.812 119.508 264.011 117.541 267.202 118.353L285.09 122.295C286.674 122.593 287.473 125.373 287.164 126.99L279.56 166.797C279.428 167.565 278.994 168.25 278.352 168.701C277.709 169.153 276.912 169.334 276.135 169.204Z" fill="#026980"/>
<path d="M271.247 125.593C271.239 125.922 271.17 126.244 271.045 126.537C270.92 126.829 270.742 127.085 270.524 127.285C270.305 127.485 270.053 127.624 269.784 127.693C269.515 127.762 269.237 127.758 268.969 127.682C268.376 127.58 267.84 127.203 267.476 126.633C267.113 126.063 266.952 125.345 267.028 124.634C267.192 123.944 267.555 123.346 268.052 122.944C268.549 122.542 269.149 122.363 269.746 122.437C270.794 122.677 271.383 124.224 271.247 125.593Z" stroke="#F5F5F5" stroke-width="1.2" stroke-miterlimit="10"/>
<path d="M264.551 120.292C264.551 120.292 255.584 161.399 255.362 162.351C255.14 163.302 255.523 164.521 256.978 164.581C258.433 164.64 277.652 167.116 277.652 167.116" stroke="#3D1955" stroke-width="1.39" stroke-linecap="round" stroke-linejoin="round"/>
<path d="M235.099 176.333L244.965 191.593C255.003 188.767 259.203 180.991 261.984 176.901C265.322 171.996 275.479 166.688 275.063 164.504C274.646 162.321 263.404 168.617 263.404 168.617C266.148 165.08 277.449 157.087 276.535 155.375C275.62 153.663 261.419 163.39 260.965 162.411C260.512 161.431 276.438 150.545 275.561 147.861C274.683 145.177 257.761 156.975 257.761 156.975C261.984 147.315 268.691 147.166 268.378 145.902C267.226 143.659 261.687 144.803 257.389 148.818C254.021 151.943 240.683 174.321 235.084 176.333" fill="#F5AA6E"/>
<path d="M184.648 113.367C186.042 119.881 196.782 128.274 211.66 124.801L212.781 115.991C218.181 120.358 226.398 119.486 230.293 118.175C234.187 116.863 242.943 111.079 239.697 85.2976C236.452 59.5163 229.319 53.248 229.319 53.248L190.077 60.1351L188.668 82.3089C185.209 77.6132 177.84 73.879 175.745 81.7796C174.395 86.8479 178.4 92.2144 187.48 90.7237C186.396 95.0988 184.648 113.337 184.648 113.337" fill="#F5AA6E"/>
<path d="M205.287 73.468C208.313 71.0025 215.302 68.9023 220.186 71.3982" stroke="#3D1955" stroke-width="1.75" stroke-miterlimit="10" stroke-linecap="round"/>
<path d="M237.212 70.0351C235.61 69.3342 233.854 69.0735 232.12 69.2793C230.387 69.4851 228.738 70.15 227.339 71.2071C232.215 79.2145 236.112 88.6779 235.249 90.7526C234.386 92.8273 225.506 90.2431 225.506 90.2431" stroke="#3D1955" stroke-width="1.75" stroke-miterlimit="10" stroke-linecap="round"/>
<path d="M236.148 77.2516C236.14 77.5558 236.074 77.8502 235.959 78.1003C235.843 78.3504 235.683 78.5459 235.497 78.6639C235.31 78.7819 235.106 78.8176 234.907 78.7667C234.707 78.7159 234.522 78.5807 234.372 78.3769C234.221 78.1731 234.113 77.9091 234.059 77.6158C234.004 77.3225 234.007 77.0119 234.065 76.7204C234.124 76.429 234.236 76.1686 234.389 75.9698C234.542 75.771 234.73 75.642 234.93 75.5978C235.235 75.5817 235.533 75.7452 235.761 76.0537C235.988 76.3623 236.127 76.7917 236.148 77.2516Z" fill="#3D1955"/>
<path d="M218.057 79.3788C218.049 79.6834 217.983 79.9781 217.868 80.2285C217.752 80.4788 217.592 80.6743 217.405 80.7923C217.219 80.9102 217.014 80.9456 216.814 80.8943C216.615 80.843 216.429 80.7071 216.279 80.5025C216.129 80.298 216.021 80.0333 215.967 79.7394C215.913 79.4456 215.916 79.1347 215.975 78.8432C216.035 78.5518 216.148 78.2919 216.302 78.094C216.456 77.896 216.644 77.7681 216.844 77.7254C217.149 77.7115 217.446 77.8759 217.672 78.1842C217.898 78.4924 218.036 78.9205 218.057 79.3788Z" fill="#3D1955"/>
<path d="M189.917 85.1519L193.275 84.2742L193.02 65.2121C201.872 66.9673 213.378 64.0816 216.661 61.4488C219.944 58.8159 232.844 64.8327 239.035 55.4244C245.226 46.016 245.863 33.603 236.254 29.0885C226.645 24.574 216.406 32.599 213.25 32.3461C210.095 32.0932 203.506 29.9661 198.08 34.7335C192.653 39.5009 192.39 47.5259 188.98 48.4035C185.569 49.2811 176.777 52.4569 176.08 57.9382C175.331 63.7543 174.828 71.9206 177.579 75.9964C179.288 78.5102 183.163 77.7218 185.982 79.7969C187.656 81.2866 188.981 83.122 189.865 85.1741" fill="#0D6D5E"/>
<path d="M192.075 85.174L190.791 59.9479C199.653 61.7041 211.182 58.8169 214.479 56.1827C217.776 53.5485 230.686 60.5953 236.897 51.182C243.108 41.7688 243.732 29.3493 234.111 24.8324C224.49 20.3155 214.223 28.3447 211.054 28.0917C207.885 27.8387 201.291 25.7104 195.853 30.4729C190.416 35.2353 190.16 43.2794 186.736 44.1575C183.311 45.0356 175.245 48.3543 173.818 53.6972C172.233 59.6503 171.73 68.2078 173.067 74.4362" stroke="#D5431B" stroke-width="2.04" stroke-miterlimit="10" stroke-linecap="round"/>
<path d="M221.013 104.082C223.568 104.082 229.237 103.268 230.962 101.393" stroke="#3D1955" stroke-width="2" stroke-miterlimit="7.15" stroke-linecap="round"/>
<path d="M309.003 136.501C331.585 121.963 333.586 101.677 330.651 93.8127C326.502 82.6754 316.88 86.4027 320.71 93.3012C326.879 104.4 380.884 97.2459 384.337 59.5185C387.789 21.7912 367.88 12.0349 355.976 6.49823C341.674 -0.163676 306.408 -1.64054 288.404 18.3324C271.321 37.2888 269.416 76.2884 310.602 88.3719" stroke="#D5431B" stroke-width="3" stroke-miterlimit="10" stroke-linecap="round"/>
<path fill-rule="evenodd" clip-rule="evenodd" d="M337.072 24.3502C348.231 28.9991 353.537 41.5115 349.135 52.5182L348.908 53.064C348.044 55.1468 348.301 56.4651 349.3 57.464L352.52 60.6641L355.964 64.0475L358.383 66.4049C360.023 67.998 360.107 70.5508 358.627 72.2425L358.399 72.4833C356.761 74.0911 354.152 74.1678 352.421 72.7086L352.19 72.5001L343.669 64.228C343.083 63.659 343.078 62.7313 343.658 62.156C344.189 61.6286 345.028 61.5804 345.615 62.0143L345.769 62.1446L354.29 70.4167C354.798 70.9098 355.59 70.9489 356.143 70.5353L356.288 70.4113C356.83 69.8738 356.825 69.0147 356.283 68.4877L352.68 64.9712L350.402 62.7285L347.169 59.5169C345.418 57.7665 344.882 55.3601 345.968 52.4055L346.152 51.9386C350.325 42.288 345.738 31.1439 335.906 27.0475C326.073 22.9511 314.719 27.4536 310.545 37.1042C306.372 46.7547 310.959 57.8988 320.792 61.9952C321.55 62.3114 321.905 63.1715 321.582 63.9164C321.26 64.6612 320.384 65.0087 319.625 64.6926C308.275 59.9638 302.979 47.0994 307.797 35.9592C312.615 24.819 325.722 19.6214 337.072 24.3502ZM328.236 28.4718C337.266 28.4718 344.586 35.792 344.586 44.8219C344.586 53.8517 337.266 61.1719 328.236 61.1719C319.206 61.1719 311.886 53.8517 311.886 44.8219C311.886 35.792 319.206 28.4718 328.236 28.4718ZM328.236 30.9872C320.595 30.9872 314.401 37.1812 314.401 44.8219C314.401 52.4625 320.595 58.6565 328.236 58.6565C335.877 58.6565 342.071 52.4625 342.071 44.8219C342.071 37.1812 335.877 30.9872 328.236 30.9872Z" fill="#D5431B"/>
<path fill-rule="evenodd" clip-rule="evenodd" d="M323.392 39.8676C323.896 39.3751 324.686 39.3547 325.214 39.8004L325.309 39.8894L328.226 42.8734L331.086 40.081C331.622 39.5579 332.48 39.568 333.004 40.1036C333.496 40.6078 333.516 41.3978 333.07 41.925L332.981 42.0207L330.121 44.8129L333.038 47.796C333.562 48.3314 333.552 49.1897 333.017 49.7131C332.513 50.2056 331.723 50.2259 331.195 49.7803L331.1 49.6913L328.181 46.707L325.322 49.4998C324.786 50.0229 323.928 50.0127 323.405 49.4771C322.913 48.9729 322.893 48.183 323.339 47.6557L323.428 47.56L326.286 44.7675L323.371 41.7847C322.847 41.2493 322.857 40.391 323.392 39.8676Z" fill="#D5431B"/>
</svg>
