<svg width="160" height="160" viewBox="0 0 160 160" fill="none" xmlns="http://www.w3.org/2000/svg">
<mask id="mask0_4175_154045" style="mask-type:alpha" maskUnits="userSpaceOnUse" x="15" y="15" width="130" height="131">
<path fill-rule="evenodd" clip-rule="evenodd" d="M80.0004 15C44.1015 15 15 44.1015 15 80.0004C15 115.899 44.1015 145.001 80.0004 145.001C115.899 145.001 145 115.899 145 80.0004" fill="white"/>
</mask>
<g mask="url(#mask0_4175_154045)">
<path fill-rule="evenodd" clip-rule="evenodd" d="M116.765 151.33C116.621 152.056 119.974 157.621 119.353 157.953C118.509 158.41 115.146 152.125 115.146 152.125C114.913 152.336 117.039 157.444 116.377 157.443C115.657 157.441 110.712 147.271 108.39 143.247C110.134 141.432 112.624 139.18 113.636 139.161C118.297 139.074 124.411 146.041 124.285 146.812C124.181 147.459 120.768 144.497 119.227 144.315C119.175 145.38 125.041 154.599 124.086 155.296C123.549 155.682 119.345 149.234 118.792 149.565C118.24 149.897 122.615 157.517 121.945 157.989C121.27 158.466 117.731 152.231 116.765 151.33Z" fill="#F48159"/>
</g>
<mask id="mask1_4175_154045" style="mask-type:alpha" maskUnits="userSpaceOnUse" x="15" y="15" width="130" height="131">
<path fill-rule="evenodd" clip-rule="evenodd" d="M80.0004 15C44.1015 15 15 44.1015 15 80.0004C15 115.899 44.1015 145.001 80.0004 145.001C115.899 145.001 145 115.899 145 80.0004C145 44.1015 115.899 15 80.0004 15Z" fill="white"/>
</mask>
<g mask="url(#mask1_4175_154045)">
<path fill-rule="evenodd" clip-rule="evenodd" d="M111.543 138.513C114.923 135.356 115.607 135.86 107.031 119.932C99.6725 106.263 102.844 104.016 97.6559 90.8611C92.6834 78.2526 82.0989 85.5603 83.2226 94.1631C85.6861 113.018 95.1071 131.451 106.726 139.52C108.19 140.537 110.573 139.419 111.543 138.513Z" stroke="#3D1955" stroke-width="0.905971" stroke-linecap="round" stroke-linejoin="round"/>
</g>
<mask id="mask2_4175_154045" style="mask-type:alpha" maskUnits="userSpaceOnUse" x="15" y="15" width="130" height="131">
<path fill-rule="evenodd" clip-rule="evenodd" d="M80.0004 15C44.1015 15 15 44.1015 15 80.0004C15 115.899 44.1015 145.001 80.0004 145.001C115.899 145.001 145 115.899 145 80.0004C145 44.1015 115.899 15 80.0004 15Z" fill="white"/>
</mask>
<g mask="url(#mask2_4175_154045)">
<path fill-rule="evenodd" clip-rule="evenodd" d="M60.7779 121.506C54.5655 128.363 52.7138 159.784 53.4467 186.361C52.8145 199.005 46.9426 204.827 47.1018 210.148C54.4184 213.266 61.6457 215.914 68.5048 212.404L75.1227 187.261L76.5949 159.027L83.242 216.275C83.242 216.275 94.2263 220.867 102.303 214.611C102.303 214.611 100.262 168.071 98.2019 146.977C96.4168 128.714 95.3305 123.489 95.3305 123.489L60.7779 121.506Z" fill="#AA0A0A"/>
</g>
<mask id="mask3_4175_154045" style="mask-type:alpha" maskUnits="userSpaceOnUse" x="15" y="15" width="130" height="131">
<path fill-rule="evenodd" clip-rule="evenodd" d="M80.0004 15C44.1015 15 15 44.1015 15 80.0004C15 115.899 44.1015 145.001 80.0004 145.001C115.899 145.001 145 115.899 145 80.0004" fill="white"/>
</mask>
<g mask="url(#mask3_4175_154045)">
<path fill-rule="evenodd" clip-rule="evenodd" d="M55.0969 126.318C54.9962 131.593 85.8372 137.374 97.8745 131.326C97.8745 131.326 104.063 85.067 85.366 81.9787C77.0833 80.6112 70.7027 82.1257 66.7718 86.1054C56.7292 96.2747 55.1335 124.422 55.0969 126.318Z" fill="#0F4D43"/>
</g>
<mask id="mask4_4175_154045" style="mask-type:alpha" maskUnits="userSpaceOnUse" x="15" y="15" width="130" height="131">
<path fill-rule="evenodd" clip-rule="evenodd" d="M80.0004 15C44.1015 15 15 44.1015 15 80.0004C15 115.899 44.1015 145.001 80.0004 145.001C115.899 145.001 145 115.899 145 80.0004" fill="white"/>
</mask>
<g mask="url(#mask4_4175_154045)">
<path fill-rule="evenodd" clip-rule="evenodd" d="M95.5039 49.5962C97.532 50.1024 100.509 48.7552 97.5482 43.9306C94.5866 39.1051 87.3903 35.457 83.6519 35.5358C83.6519 35.5358 82.2658 29.7962 76.003 27.0142C63.5961 21.5038 56.1503 29.8816 55.4255 35.9307C54.8104 41.06 57.7932 55.3048 49.7087 58.2778C45.8875 59.6834 58.9225 60.0198 63.0712 54.2088C63.0712 54.2088 60.7523 66.181 78.3926 74.1208C78.3926 74.1208 93.4751 49.0892 95.5039 49.5962Z" fill="#3D1955"/>
</g>
<mask id="mask5_4175_154045" style="mask-type:alpha" maskUnits="userSpaceOnUse" x="15" y="15" width="130" height="131">
<path fill-rule="evenodd" clip-rule="evenodd" d="M80.0004 15C44.1015 15 15 44.1015 15 80.0004C15 115.899 44.1015 145.001 80.0004 145.001C115.899 145.001 145 115.899 145 80.0004" fill="white"/>
</mask>
<g mask="url(#mask5_4175_154045)">
<path fill-rule="evenodd" clip-rule="evenodd" d="M71.6415 62.9388C71.1328 67.5083 76.9414 72.376 78.3934 74.1196C77.8384 78.2098 77.4444 79.3855 76.6059 81.6069C76.3979 82.1594 76.198 82.7143 76.4539 83.2473C77.7344 85.914 82.7127 88.0939 85.9716 86.0813C86.3421 85.853 86.8597 85.4135 86.6541 85.0235C85.3476 82.5469 85.9261 76.8367 85.9261 76.8367C92.3709 75.167 95.3504 72.3589 97.0826 66.7811C99.3706 59.4198 97.5904 47.7254 97.5904 47.7254L73.8921 46.6992L72.5222 56.2738C69.5111 54.2181 67.2946 55.0664 66.9037 57.5299C66.5332 59.8634 67.9161 62.5813 71.6415 62.9388Z" fill="#F48159"/>
</g>
<mask id="mask6_4175_154045" style="mask-type:alpha" maskUnits="userSpaceOnUse" x="15" y="15" width="130" height="131">
<path fill-rule="evenodd" clip-rule="evenodd" d="M80.0004 15C44.1015 15 15 44.1015 15 80.0004C15 115.899 44.1015 145.001 80.0004 145.001C115.899 145.001 145 115.899 145 80.0004" fill="white"/>
</mask>
<g mask="url(#mask6_4175_154045)">
<path d="M79.6768 54.1657C81.4123 52.8747 85.0295 53.1704 86.4441 54.4647" stroke="#3D1955" stroke-width="0.503431" stroke-linecap="round"/>
</g>
<mask id="mask7_4175_154045" style="mask-type:alpha" maskUnits="userSpaceOnUse" x="15" y="15" width="130" height="131">
<path fill-rule="evenodd" clip-rule="evenodd" d="M80.0004 15C44.1015 15 15 44.1015 15 80.0004C15 115.899 44.1015 145.001 80.0004 145.001C115.899 145.001 145 115.899 145 80.0004" fill="white"/>
</mask>
<g mask="url(#mask7_4175_154045)">
<path d="M96.8065 54.4555C95.8234 53.6268 91.8112 53.0962 90.4511 55.3355C88.8115 58.0346 91.5992 62.05 91.0142 64.9767C90.7152 66.4725 88.458 66.7837 87.5537 65.3529" stroke="#3D1955" stroke-width="0.503431" stroke-linecap="round"/>
</g>
<mask id="mask8_4175_154045" style="mask-type:alpha" maskUnits="userSpaceOnUse" x="15" y="15" width="130" height="131">
<path fill-rule="evenodd" clip-rule="evenodd" d="M80.0004 15C44.1015 15 15 44.1015 15 80.0004C15 115.899 44.1015 145.001 80.0004 145.001C115.899 145.001 145 115.899 145 80.0004" fill="white"/>
</mask>
<g mask="url(#mask8_4175_154045)">
<path d="M89.4743 69.2173C88.6147 71.7434 85.2721 71.4794 84.5059 68.543" stroke="#3D1955" stroke-width="0.503431" stroke-linecap="round"/>
</g>
<mask id="mask9_4175_154045" style="mask-type:alpha" maskUnits="userSpaceOnUse" x="15" y="15" width="130" height="131">
<path fill-rule="evenodd" clip-rule="evenodd" d="M80.0004 15C44.1015 15 15 44.1015 15 80.0004C15 115.899 44.1015 145.001 80.0004 145.001C115.899 145.001 145 115.899 145 80.0004C145 44.1015 115.899 15 80.0004 15Z" fill="white"/>
</mask>
<g mask="url(#mask9_4175_154045)">
<path fill-rule="evenodd" clip-rule="evenodd" d="M73.3988 50.2653C74.9921 50.8828 90.4264 51.3256 95.6378 48.3543C95.6378 48.3543 97.0264 49.7534 98.6547 50.1719C100.282 50.5919 98.5694 46.7561 98.5694 46.7561L90.0576 42.8926L78.494 42.1045L72.6846 45.3789L73.3988 50.2653Z" fill="#3D1955"/>
</g>
<mask id="mask10_4175_154045" style="mask-type:alpha" maskUnits="userSpaceOnUse" x="15" y="15" width="130" height="131">
<path fill-rule="evenodd" clip-rule="evenodd" d="M80.0004 15C44.1015 15 15 44.1015 15 80.0004C15 115.899 44.1015 145.001 80.0004 145.001C115.899 145.001 145 115.899 145 80.0004" fill="white"/>
</mask>
<g mask="url(#mask10_4175_154045)">
<path d="M99.0437 49.8081C101.929 45.2824 92.1805 33.9464 80.4016 35.8468C80.4016 35.8468 77.7797 27.6235 69.0566 26.1756C57.0429 24.1817 52.9901 32.0004 52.2556 35.8728C50.7509 43.8053 59.5901 49.4075 49.2559 58.6555C49.2559 58.6555 60.2271 60.6632 64.5553 50.1437C64.5553 50.1437 60.4351 60.0408 69.4702 68.386" stroke="#0C7B92" stroke-width="0.905971" stroke-linecap="round" stroke-linejoin="round"/>
</g>
<mask id="mask11_4175_154045" style="mask-type:alpha" maskUnits="userSpaceOnUse" x="15" y="15" width="130" height="131">
<path fill-rule="evenodd" clip-rule="evenodd" d="M80.0004 15C44.1015 15 15 44.1015 15 80.0004C15 115.899 44.1015 145.001 80.0004 145.001C115.899 145.001 145 115.899 145 80.0004" fill="white"/>
</mask>
<g mask="url(#mask11_4175_154045)">
<path d="M85.616 35.7109C81.2439 35.3924 74.5683 36.5129 71.7002 39.9449" stroke="#0C7B92" stroke-width="0.905971" stroke-linecap="round" stroke-linejoin="round"/>
</g>
<mask id="mask12_4175_154045" style="mask-type:alpha" maskUnits="userSpaceOnUse" x="15" y="15" width="130" height="131">
<path fill-rule="evenodd" clip-rule="evenodd" d="M80.0004 15C44.1015 15 15 44.1015 15 80.0004C15 115.899 44.1015 145.001 80.0004 145.001C115.899 145.001 145 115.899 145 80.0004" fill="white"/>
</mask>
<g mask="url(#mask12_4175_154045)">
<path fill-rule="evenodd" clip-rule="evenodd" d="M92.4943 58.2367C92.4862 58.7917 92.7771 59.2451 93.1427 59.2508C93.5091 59.2556 93.813 58.8112 93.8211 58.2554C93.8301 57.7013 93.5384 57.2471 93.1727 57.2422C92.8055 57.2366 92.5024 57.6818 92.4943 58.2367Z" fill="#3D1955"/>
</g>
<mask id="mask13_4175_154045" style="mask-type:alpha" maskUnits="userSpaceOnUse" x="15" y="15" width="130" height="131">
<path fill-rule="evenodd" clip-rule="evenodd" d="M80.0004 15C44.1015 15 15 44.1015 15 80.0004C15 115.899 44.1015 145.001 80.0004 145.001C115.899 145.001 145 115.899 145 80.0004" fill="white"/>
</mask>
<g mask="url(#mask13_4175_154045)">
<path fill-rule="evenodd" clip-rule="evenodd" d="M82.3939 57.6947C82.3825 58.2496 82.6701 58.7046 83.0366 58.7119C83.4022 58.72 83.7093 58.2764 83.7207 57.7215C83.7313 57.1673 83.4444 56.7115 83.078 56.7042C82.7116 56.6961 82.4053 57.1397 82.3939 57.6947Z" fill="#3D1955"/>
</g>
<mask id="mask14_4175_154045" style="mask-type:alpha" maskUnits="userSpaceOnUse" x="15" y="15" width="130" height="131">
<path fill-rule="evenodd" clip-rule="evenodd" d="M80.0004 15C44.1015 15 15 44.1015 15 80.0004C15 115.899 44.1015 145.001 80.0004 145.001C115.899 145.001 145 115.899 145 80.0004C145 44.1015 115.899 15 80.0004 15Z" fill="white"/>
</mask>
<g mask="url(#mask14_4175_154045)">
<path fill-rule="evenodd" clip-rule="evenodd" d="M54.4898 149.566C59.1065 149.842 57.9056 139.449 61.7309 121.767C64.9882 106.712 67.3209 109.646 71.4249 96.3195C75.4126 83.3657 64.5307 82.1551 59.0691 88.8964C47.0985 103.671 43.3861 133.339 45.5401 147.319C45.8114 149.08 53.1638 149.487 54.4898 149.566Z" stroke="#3D1955" stroke-width="0.905971" stroke-linecap="round" stroke-linejoin="round"/>
</g>
<mask id="mask15_4175_154045" style="mask-type:alpha" maskUnits="userSpaceOnUse" x="15" y="15" width="130" height="131">
<path fill-rule="evenodd" clip-rule="evenodd" d="M80.0004 15C44.1015 15 15 44.1015 15 80.0004C15 115.899 44.1015 145.001 80.0004 145.001C115.899 145.001 145 115.899 145 80.0004" fill="white"/>
</mask>
<g mask="url(#mask15_4175_154045)">
<path fill-rule="evenodd" clip-rule="evenodd" d="M15.1436 115.551C10.9511 125.66 8.97754 149.094 8.97754 149.094L18.5017 151.455L24.6304 128.028L24.9059 141.201L62.9084 143.791V125.716L69.3312 151.455L78.0843 148.323C79.8832 114.412 66.7263 100.291 59.0555 96.8061C50.399 92.8736 24.8409 92.1724 15.1436 115.551Z" fill="#F5F5F5"/>
</g>
<mask id="mask16_4175_154045" style="mask-type:alpha" maskUnits="userSpaceOnUse" x="15" y="15" width="130" height="131">
<path fill-rule="evenodd" clip-rule="evenodd" d="M80.0004 15C44.1015 15 15 44.1015 15 80.0004C15 115.899 44.1015 145.001 80.0004 145.001C115.899 145.001 145 115.899 145 80.0004" fill="white"/>
</mask>
<g mask="url(#mask16_4175_154045)">
<path fill-rule="evenodd" clip-rule="evenodd" d="M37.5427 80.9451C34.3496 84.217 32.753 80.3503 32.753 80.3503C29.5615 82.4328 29.126 78.4165 29.5615 77.8218C27.0947 79.6069 25.7882 76.4828 26.6584 74.5498C24.047 74.8472 25.4981 71.5753 25.4981 71.5753C23.6115 71.1284 24.047 67.8572 25.9336 68.0051C23.4669 66.8156 25.3527 64.8818 25.3527 64.8818C23.6115 64.8818 23.9251 60.2717 27.3238 60.7177C24.7726 58.1892 27.8195 55.9581 29.416 56.5528C28.8351 55.2147 30.4317 53.5783 31.5927 54.4712C30.8672 52.2401 34.0595 50.1576 35.8007 52.3888C35.9461 49.4142 39.1385 48.9681 39.7194 50.6037C40.0095 46.2909 44.072 47.8347 44.3629 49.6652C45.3785 47.3317 48.5708 48.2247 48.2808 50.3063C51.4739 47.3317 53.0689 50.1576 52.9242 51.1993C55.391 49.7116 56.4075 51.0506 55.8265 52.5374C58.0032 52.0914 59.967 55.521 58.1478 56.8502C60.3253 56.9989 59.8411 60.7177 58.8645 61.1638C60.3253 62.3541 59.0197 64.7331 57.2776 64.4358C55.5364 64.1384 37.5427 80.9451 37.5427 80.9451Z" fill="#3D1955"/>
</g>
<mask id="mask17_4175_154045" style="mask-type:alpha" maskUnits="userSpaceOnUse" x="15" y="15" width="130" height="131">
<path fill-rule="evenodd" clip-rule="evenodd" d="M80.0004 15C44.1015 15 15 44.1015 15 80.0004C15 115.899 44.1015 145.001 80.0004 145.001C115.899 145.001 145 115.899 145 80.0004" fill="white"/>
</mask>
<g mask="url(#mask17_4175_154045)">
<path fill-rule="evenodd" clip-rule="evenodd" d="M27.7848 141.336L61.182 143.779C63.4936 157.138 63.2368 188.48 63.2368 188.48C59.6399 193.618 47.0152 190.021 47.0152 190.021L44.7588 166.823L42.8657 188.755C39.0884 193.379 24.9581 191.306 23.4176 189.251C23.1608 187.709 19.0496 154.307 27.7848 141.336Z" fill="#D5431B"/>
</g>
<mask id="mask18_4175_154045" style="mask-type:alpha" maskUnits="userSpaceOnUse" x="15" y="15" width="130" height="131">
<path fill-rule="evenodd" clip-rule="evenodd" d="M80.0004 15C44.1015 15 15 44.1015 15 80.0004C15 115.899 44.1015 145.001 80.0004 145.001C115.899 145.001 145 115.899 145 80.0004" fill="white"/>
</mask>
<g mask="url(#mask18_4175_154045)">
<path fill-rule="evenodd" clip-rule="evenodd" d="M32.4491 70.4544C29.0284 67.6285 26.0538 70.6031 27.0947 73.1316C28.1363 75.6601 31.0321 77.2957 32.9658 77.2957C33.8571 81.3119 37.1299 85.8432 41.2948 87.3309C41.5914 92.5366 39.2912 94.8466 37.9522 95.8874C39.1425 99.3081 50 100.944 51.9329 96.6309C50 95.8874 48.5131 91.0587 48.5131 88.2328C53.6839 88.0898 59.5973 83.1758 59.1512 72.7643C58.7052 62.3537 56.6138 59.2109 56.6138 59.2109C52.9859 60.8693 38.3982 58.2587 35.721 60.6377C33.0438 63.0183 34.9776 69.4136 32.4491 70.4544Z" fill="#804D00"/>
</g>
<mask id="mask19_4175_154045" style="mask-type:alpha" maskUnits="userSpaceOnUse" x="15" y="15" width="130" height="131">
<path fill-rule="evenodd" clip-rule="evenodd" d="M80.0004 15C44.1015 15 15 44.1015 15 80.0004C15 115.899 44.1015 145.001 80.0004 145.001C115.899 145.001 145 115.899 145 80.0004" fill="white"/>
</mask>
<g mask="url(#mask19_4175_154045)">
<path d="M33.6533 95.3818C15.6985 101.981 8.94662 118.094 7.25905 148.172C7.03154 150.748 16.2031 151.783 16.6191 150.014L23.679 128.069L22.7608 141.137L62.082 144.089" stroke="#0C7B92" stroke-width="0.905971" stroke-linecap="round" stroke-linejoin="round"/>
</g>
<mask id="mask20_4175_154045" style="mask-type:alpha" maskUnits="userSpaceOnUse" x="15" y="15" width="130" height="131">
<path fill-rule="evenodd" clip-rule="evenodd" d="M80.0004 15C44.1015 15 15 44.1015 15 80.0004C15 115.899 44.1015 145.001 80.0004 145.001C115.899 145.001 145 115.899 145 80.0004" fill="white"/>
</mask>
<g mask="url(#mask20_4175_154045)">
<path d="M56.6719 96.916C73.8596 108.119 74.473 126.687 76.6221 147.097C76.4677 147.251 74.8371 150.846 68.2631 150.545C67.8024 150.238 61.7362 125.613 61.7362 125.613" stroke="#0C7B92" stroke-width="0.905971" stroke-linecap="round" stroke-linejoin="round"/>
</g>
<mask id="mask21_4175_154045" style="mask-type:alpha" maskUnits="userSpaceOnUse" x="15" y="15" width="130" height="131">
<path fill-rule="evenodd" clip-rule="evenodd" d="M80.0004 15C44.1015 15 15 44.1015 15 80.0004C15 115.899 44.1015 145.001 80.0004 145.001C115.899 145.001 145 115.899 145 80.0004" fill="white"/>
</mask>
<g mask="url(#mask21_4175_154045)">
<path d="M19.3887 105.604C30.0366 109.133 56.2593 109.44 65.0068 105.604" stroke="#0C7B92" stroke-width="0.905971" stroke-linecap="round" stroke-linejoin="round"/>
</g>
<mask id="mask22_4175_154045" style="mask-type:alpha" maskUnits="userSpaceOnUse" x="15" y="15" width="130" height="131">
<path fill-rule="evenodd" clip-rule="evenodd" d="M80.0004 15C44.1015 15 15 44.1015 15 80.0004C15 115.899 44.1015 145.001 80.0004 145.001C115.899 145.001 145 115.899 145 80.0004" fill="white"/>
</mask>
<g mask="url(#mask22_4175_154045)">
<path d="M16.0635 110.924C28.0333 115.19 58.4909 116.572 69.0794 110.924" stroke="#0C7B92" stroke-width="0.905971" stroke-linecap="round" stroke-linejoin="round"/>
</g>
<mask id="mask23_4175_154045" style="mask-type:alpha" maskUnits="userSpaceOnUse" x="15" y="15" width="130" height="131">
<path fill-rule="evenodd" clip-rule="evenodd" d="M80.0004 15C44.1015 15 15 44.1015 15 80.0004C15 115.899 44.1015 145.001 80.0004 145.001C115.899 145.001 145 115.899 145 80.0004" fill="white"/>
</mask>
<g mask="url(#mask23_4175_154045)">
<path d="M13.5869 114.659C26.4351 123.138 60.6196 122.549 71.2081 116.902" stroke="#0C7B92" stroke-width="0.905971" stroke-linecap="round" stroke-linejoin="round"/>
</g>
<mask id="mask24_4175_154045" style="mask-type:alpha" maskUnits="userSpaceOnUse" x="15" y="15" width="130" height="131">
<path fill-rule="evenodd" clip-rule="evenodd" d="M80.0004 15C44.1015 15 15 44.1015 15 80.0004C15 115.899 44.1015 145.001 80.0004 145.001C115.899 145.001 145 115.899 145 80.0004" fill="white"/>
</mask>
<g mask="url(#mask24_4175_154045)">
<path d="M39.8379 67.5465C41.3264 66.1928 44.9559 66.1928 46.1738 67.5465" stroke="#3D1955" stroke-width="0.487555" stroke-linecap="round" stroke-linejoin="round"/>
</g>
<mask id="mask25_4175_154045" style="mask-type:alpha" maskUnits="userSpaceOnUse" x="15" y="15" width="130" height="131">
<path fill-rule="evenodd" clip-rule="evenodd" d="M80.0004 15C44.1015 15 15 44.1015 15 80.0004C15 115.899 44.1015 145.001 80.0004 145.001C115.899 145.001 145 115.899 145 80.0004" fill="white"/>
</mask>
<g mask="url(#mask25_4175_154045)">
<path d="M56.1912 67.0386C54.1168 65.1259 50.7206 66.5941 50.2217 67.5464C49.2507 69.3997 52.3147 74.3405 51.6931 76.2442C51.2438 77.6214 48.8055 76.9389 48.0791 76.2442" stroke="#3D1955" stroke-width="0.487555" stroke-linecap="round" stroke-linejoin="round"/>
</g>
<mask id="mask26_4175_154045" style="mask-type:alpha" maskUnits="userSpaceOnUse" x="15" y="15" width="130" height="131">
<path fill-rule="evenodd" clip-rule="evenodd" d="M80.0004 15C44.1015 15 15 44.1015 15 80.0004C15 115.899 44.1015 145.001 80.0004 145.001C115.899 145.001 145 115.899 145 80.0004" fill="white"/>
</mask>
<g mask="url(#mask26_4175_154045)">
<path d="M45.6582 80.6934C46.6901 83.2771 50.7827 83.2771 51.4172 80.9761" stroke="#3D1955" stroke-width="0.453754" stroke-linecap="round" stroke-linejoin="round"/>
</g>
<mask id="mask27_4175_154045" style="mask-type:alpha" maskUnits="userSpaceOnUse" x="15" y="15" width="130" height="131">
<path fill-rule="evenodd" clip-rule="evenodd" d="M80.0004 15C44.1015 15 15 44.1015 15 80.0004C15 115.899 44.1015 145.001 80.0004 145.001C115.899 145.001 145 115.899 145 80.0004" fill="white"/>
</mask>
<g mask="url(#mask27_4175_154045)">
<path fill-rule="evenodd" clip-rule="evenodd" d="M44.4027 70.5045C44.4027 71.0935 44.0899 71.3024 43.7048 71.3024C43.3188 71.3024 43.0068 71.0935 43.0068 70.5045C43.0068 69.9154 43.3188 69.4385 43.7048 69.4385C44.0899 69.4385 44.4027 69.9154 44.4027 70.5045Z" fill="#3D1955"/>
</g>
<mask id="mask28_4175_154045" style="mask-type:alpha" maskUnits="userSpaceOnUse" x="15" y="15" width="130" height="131">
<path fill-rule="evenodd" clip-rule="evenodd" d="M80.0004 15C44.1015 15 15 44.1015 15 80.0004C15 115.899 44.1015 145.001 80.0004 145.001C115.899 145.001 145 115.899 145 80.0004" fill="white"/>
</mask>
<g mask="url(#mask28_4175_154045)">
<path fill-rule="evenodd" clip-rule="evenodd" d="M54.2201 70.2428C54.2201 70.8318 53.9073 71.0406 53.5222 71.0406C53.1362 71.0406 52.8242 70.8318 52.8242 70.2428C52.8242 69.6537 53.1362 69.1768 53.5222 69.1768C53.9073 69.1768 54.2201 69.6537 54.2201 70.2428Z" fill="#3D1955"/>
</g>
<mask id="mask29_4175_154045" style="mask-type:alpha" maskUnits="userSpaceOnUse" x="15" y="15" width="130" height="131">
<path fill-rule="evenodd" clip-rule="evenodd" d="M80.0004 15C44.1015 15 15 44.1015 15 80.0004C15 115.899 44.1015 145.001 80.0004 145.001C115.899 145.001 145 115.899 145 80.0004" fill="white"/>
</mask>
<g mask="url(#mask29_4175_154045)">
<path fill-rule="evenodd" clip-rule="evenodd" d="M148.909 125.469C153.102 135.578 155.076 159.012 155.076 159.012L145.551 161.374L139.423 137.946L139.147 151.119L101.145 153.71V135.634L94.7219 161.374L85.9688 158.241C84.1699 124.33 97.3268 110.21 104.998 106.724C113.654 102.792 139.212 102.09 148.909 125.469Z" fill="#0C7B92"/>
</g>
<mask id="mask30_4175_154045" style="mask-type:alpha" maskUnits="userSpaceOnUse" x="15" y="15" width="130" height="131">
<path fill-rule="evenodd" clip-rule="evenodd" d="M80.0004 15C44.1015 15 15 44.1015 15 80.0004C15 115.899 44.1015 145.001 80.0004 145.001C115.899 145.001 145 115.899 145 80.0004" fill="white"/>
</mask>
<g mask="url(#mask30_4175_154045)">
<path fill-rule="evenodd" clip-rule="evenodd" d="M110.606 97.6865C106.525 97.6865 101.138 96.8749 99.5384 91.9738C98.3773 88.4142 97.1399 54.289 125.061 64.6493C134.298 64.6493 140.644 72.6224 139.566 85.8264C138.488 99.0304 132.862 97.8986 123.046 97.6865C113.229 97.4737 110.606 97.6865 110.606 97.6865Z" fill="#D5431B"/>
</g>
<mask id="mask31_4175_154045" style="mask-type:alpha" maskUnits="userSpaceOnUse" x="15" y="15" width="130" height="131">
<path fill-rule="evenodd" clip-rule="evenodd" d="M80.0004 15C44.1015 15 15 44.1015 15 80.0004C15 115.899 44.1015 145.001 80.0004 145.001C115.899 145.001 145 115.899 145 80.0004C145 44.1015 115.899 15 80.0004 15Z" fill="white"/>
</mask>
<g mask="url(#mask31_4175_154045)">
<path fill-rule="evenodd" clip-rule="evenodd" d="M109.067 96.6455C104.986 96.6455 99.5993 95.8338 97.9995 90.9327C96.8376 87.3732 96.1145 53.7606 124.035 64.1209C133.273 64.1209 139.105 71.5813 138.028 84.7853C136.949 97.9894 131.324 96.8575 121.507 96.6455C111.69 96.4326 109.067 96.6455 109.067 96.6455Z" stroke="#AA0A0A" stroke-width="0.646317"/>
</g>
<mask id="mask32_4175_154045" style="mask-type:alpha" maskUnits="userSpaceOnUse" x="15" y="15" width="130" height="131">
<path fill-rule="evenodd" clip-rule="evenodd" d="M80.0004 15C44.1015 15 15 44.1015 15 80.0004C15 115.899 44.1015 145.001 80.0004 145.001C115.899 145.001 145 115.899 145 80.0004" fill="white"/>
</mask>
<g mask="url(#mask32_4175_154045)">
<path fill-rule="evenodd" clip-rule="evenodd" d="M140.371 151.676C149.201 164.439 146.277 234.415 146.016 235.932C144.458 237.954 125.036 241.853 121.218 237.303L121.057 179.375L116.624 235.932C116.624 235.932 100.153 239.408 96.5166 234.352C96.5166 234.352 98.3488 166.702 100.686 153.556C106.618 150.769 103.738 106.097 103.738 106.097L106.99 105.085L108.105 120.767L130.035 120.58L131.149 106.451L133.645 107.407L133.798 121.788C133.798 121.788 133.966 148.322 140.371 151.676Z" fill="#3D1955"/>
</g>
<mask id="mask33_4175_154045" style="mask-type:alpha" maskUnits="userSpaceOnUse" x="15" y="15" width="130" height="131">
<path fill-rule="evenodd" clip-rule="evenodd" d="M80.0004 15C44.1015 15 15 44.1015 15 80.0004C15 115.899 44.1015 145.001 80.0004 145.001C115.899 145.001 145 115.899 145 80.0004" fill="white"/>
</mask>
<g mask="url(#mask33_4175_154045)">
<path fill-rule="evenodd" clip-rule="evenodd" d="M129.913 83.0148C133.21 80.2913 136.076 83.6713 135.073 86.108C134.069 88.5439 131.279 89.6075 129.416 89.6075C128.555 93.4775 125.916 97.8439 121.903 99.2779C121.616 104.294 123.833 106.52 125.123 107.523C123.976 110.82 113.513 112.397 111.65 108.24C113.513 107.523 114.947 102.87 114.947 100.147C109.963 100.008 103.882 95.2504 104.695 85.2411C105.215 78.8361 106.114 76.7959 106.114 76.7959C112.634 76.9844 119.376 74.9702 127.785 73.043C129.767 75.8689 128.549 82.035 129.913 83.0148Z" fill="#FAD7BE"/>
</g>
<mask id="mask34_4175_154045" style="mask-type:alpha" maskUnits="userSpaceOnUse" x="15" y="15" width="130" height="131">
<path fill-rule="evenodd" clip-rule="evenodd" d="M80.0004 15C44.1015 15 15 44.1015 15 80.0004C15 115.899 44.1015 145.001 80.0004 145.001C115.899 145.001 145 115.899 145 80.0004" fill="white"/>
</mask>
<g mask="url(#mask34_4175_154045)">
<path d="M123.792 80.2124C122.357 78.9084 118.861 78.9084 117.687 80.2124" stroke="#3D1955" stroke-width="0.484994" stroke-linecap="round"/>
</g>
<mask id="mask35_4175_154045" style="mask-type:alpha" maskUnits="userSpaceOnUse" x="15" y="15" width="130" height="131">
<path fill-rule="evenodd" clip-rule="evenodd" d="M80.0004 15C44.1015 15 15 44.1015 15 80.0004C15 115.899 44.1015 145.001 80.0004 145.001C115.899 145.001 145 115.899 145 80.0004" fill="white"/>
</mask>
<g mask="url(#mask35_4175_154045)">
<path d="M108.035 79.7233C110.034 77.8805 113.219 79.3471 113.787 80.2124C115.409 82.6825 111.907 85.7992 112.635 87.5859C113.17 88.9006 114.869 89.4685 115.852 88.5942" stroke="#3D1955" stroke-width="0.484994" stroke-linecap="round"/>
</g>
<mask id="mask36_4175_154045" style="mask-type:alpha" maskUnits="userSpaceOnUse" x="15" y="15" width="130" height="131">
<path fill-rule="evenodd" clip-rule="evenodd" d="M80.0004 15C44.1015 15 15 44.1015 15 80.0004C15 115.899 44.1015 145.001 80.0004 145.001C115.899 145.001 145 115.899 145 80.0004" fill="white"/>
</mask>
<g mask="url(#mask36_4175_154045)">
<path d="M117.671 92.8821C116.677 95.3716 113.247 94.8589 112.635 92.6416" stroke="#3D1955" stroke-width="0.484994" stroke-linecap="round"/>
</g>
<mask id="mask37_4175_154045" style="mask-type:alpha" maskUnits="userSpaceOnUse" x="15" y="15" width="130" height="131">
<path fill-rule="evenodd" clip-rule="evenodd" d="M80.0004 15C44.1015 15 15 44.1015 15 80.0004C15 115.899 44.1015 145.001 80.0004 145.001C115.899 145.001 145 115.899 145 80.0004" fill="white"/>
</mask>
<g mask="url(#mask37_4175_154045)">
<path fill-rule="evenodd" clip-rule="evenodd" d="M119.395 83.0631C119.395 83.6311 119.695 83.8318 120.066 83.8318C120.438 83.8318 120.739 83.6311 120.739 83.0631C120.739 82.496 120.438 82.0361 120.066 82.0361C119.695 82.0361 119.395 82.496 119.395 83.0631Z" fill="#3D1955"/>
</g>
<mask id="mask38_4175_154045" style="mask-type:alpha" maskUnits="userSpaceOnUse" x="15" y="15" width="130" height="131">
<path fill-rule="evenodd" clip-rule="evenodd" d="M80.0004 15C44.1015 15 15 44.1015 15 80.0004C15 115.899 44.1015 145.001 80.0004 145.001C115.899 145.001 145 115.899 145 80.0004" fill="white"/>
</mask>
<g mask="url(#mask38_4175_154045)">
<path fill-rule="evenodd" clip-rule="evenodd" d="M109.935 82.811C109.935 83.3782 110.235 83.5797 110.607 83.5797C110.978 83.5797 111.279 83.3782 111.279 82.811C111.279 82.2431 110.978 81.7832 110.607 81.7832C110.235 81.7832 109.935 82.2431 109.935 82.811Z" fill="#3D1955"/>
</g>
<mask id="mask39_4175_154045" style="mask-type:alpha" maskUnits="userSpaceOnUse" x="15" y="15" width="130" height="131">
<path fill-rule="evenodd" clip-rule="evenodd" d="M80.0004 15C44.1015 15 15 44.1015 15 80.0004C15 115.899 44.1015 145.001 80.0004 145.001C115.899 145.001 145 115.899 145 80.0004C145 44.1015 115.899 15 80.0004 15Z" fill="white"/>
</mask>
<g mask="url(#mask39_4175_154045)">
<path fill-rule="evenodd" clip-rule="evenodd" d="M101.781 77.5269V76.0547L106.242 76.7989V78.2606L101.781 77.5269Z" fill="#0F4D43"/>
</g>
<mask id="mask40_4175_154045" style="mask-type:alpha" maskUnits="userSpaceOnUse" x="15" y="15" width="130" height="131">
<path fill-rule="evenodd" clip-rule="evenodd" d="M80.0004 15C44.1015 15 15 44.1015 15 80.0004C15 115.899 44.1015 145.001 80.0004 145.001C115.899 145.001 145 115.899 145 80.0004C145 44.1015 115.899 15 80.0004 15Z" fill="white"/>
</mask>
<g mask="url(#mask40_4175_154045)">
<path fill-rule="evenodd" clip-rule="evenodd" d="M111.098 129.211H127.607C127.607 129.211 129.596 144.419 120.259 144.356C111.746 144.299 110.701 137.463 111.098 129.211Z" stroke="#F5F5F5" stroke-width="0.6709" stroke-linecap="round" stroke-linejoin="round"/>
</g>
</svg>
