<svg width="31" height="40" viewBox="0 0 31 40" fill="none" xmlns="http://www.w3.org/2000/svg">
<path fill-rule="evenodd" clip-rule="evenodd" d="M15.7006 0.410156C20.6007 0.410156 24.126 4.38542 24.126 9.54445C24.126 12.6412 22.8221 14.9998 20.3656 16.8452C19.7197 17.3304 19.0648 17.7501 18.3063 18.1573L18.1924 18.217L18.8061 18.4493L20.6219 19.1256L21.4016 19.422L22.1184 19.7013L22.564 19.8794L22.9858 20.052L23.3853 20.2201L23.7641 20.3844L24.124 20.546L24.4665 20.7056C24.5222 20.7321 24.5773 20.7585 24.6318 20.7849L24.9513 20.9433C25.0034 20.9697 25.0549 20.996 25.1059 21.0225L25.4061 21.1815L25.6954 21.342C25.7428 21.369 25.7898 21.396 25.8365 21.4231L26.1126 21.5877L26.3819 21.7559L26.6461 21.9287C26.6898 21.958 26.7333 21.9875 26.7767 22.0172L27.0362 22.1986C27.0793 22.2293 27.1224 22.2604 27.1655 22.2918C29.4685 23.9691 30.7206 26.0864 30.7866 28.8438L30.7894 29.0751V34.9494C30.7894 35.4961 30.3461 35.9394 29.7994 35.9394C29.2814 35.9394 28.8563 35.5416 28.813 35.0348L28.8094 34.9494V29.0751C28.8094 26.8781 27.8819 25.263 25.9998 23.8923L25.7705 23.7288L25.5378 23.5702L25.3004 23.4158L25.0567 23.2647L24.8052 23.1161C24.7626 23.0915 24.7196 23.067 24.6761 23.0426L24.4102 22.8965C24.365 22.8722 24.3193 22.8479 24.273 22.8237L23.9893 22.6782L23.6919 22.5321L23.3792 22.3847L23.0498 22.2352L22.7021 22.0828C22.6426 22.0571 22.5822 22.0313 22.521 22.0053L21.9462 21.7662L21.3204 21.5154L20.8723 21.3403L20.3978 21.158L19.6331 20.8694L18.0324 20.2738L17.416 20.0405L16.8355 19.8168L16.2889 19.6016L15.6988 19.3624L15.1045 19.6037L14.5518 19.8213L13.6574 20.1641L11.5035 20.9678L10.5265 21.3403L9.86376 21.6005L9.45251 21.7662L8.87773 22.0053L8.52043 22.1594L8.18209 22.3103L7.86123 22.4586L7.55635 22.6053L7.26595 22.7509C7.21867 22.7752 7.17194 22.7994 7.12571 22.8237L6.85424 22.9694C6.80994 22.9937 6.76608 23.0181 6.72263 23.0426L6.46673 23.1901C6.42483 23.2149 6.38329 23.2397 6.34206 23.2647L6.09837 23.4158L5.86094 23.5702L5.6283 23.7288L5.39894 23.8923C3.57755 25.2188 2.6502 26.7742 2.59223 28.8553L2.58933 29.0652L2.64853 35.0235C2.69133 36.2068 4.09093 37.0263 6.91752 37.3797C8.57634 37.5869 10.6955 37.3621 12.8166 36.7828L13.0408 36.7197L12.8322 36.5746C12.519 36.3539 12.2042 36.1212 11.887 35.8764L11.6486 35.6905C7.1235 32.127 7.38241 25.8527 12.1017 25.332C13.4826 25.1797 14.7028 25.8971 15.5725 26.9838L15.6406 27.0718L15.6678 27.0354C16.7906 25.5421 18.2687 24.88 20.221 25.5163L20.3848 25.5724C24.4634 27.0335 23.5166 33.4068 19.0441 36.2343C18.6917 36.4571 18.3264 36.6697 17.9508 36.8716L17.7508 36.9766L17.8922 37.0262C20.2058 37.8066 22.6091 37.8137 25.5569 37.0743L25.8349 37.0028C26.3636 36.8635 26.9051 37.1791 27.0445 37.7078C27.1838 38.2365 26.8682 38.7781 26.3395 38.9174C22.0704 40.0426 18.716 39.7791 15.392 38.121L15.2866 38.0667L14.9799 38.1786C12.2047 39.1622 9.2541 39.6074 6.92783 39.3732L6.67196 39.3444C3.05994 38.8928 0.845934 37.6284 0.676816 35.2126L0.669231 35.0692L0.609375 29.0751C0.609375 26.2044 1.86625 24.0156 4.23329 22.2918L4.49203 22.1071C4.53527 22.0768 4.57859 22.0469 4.62202 22.0172L4.88421 21.8417L5.15075 21.6713C5.19562 21.6432 5.24075 21.6154 5.28615 21.5877L5.56224 21.4231C5.60891 21.396 5.65594 21.369 5.70334 21.342L5.99266 21.1815L6.29283 21.0225L6.60548 20.8641C6.65872 20.8378 6.71255 20.8114 6.76699 20.7849L7.27474 20.546L7.63461 20.3844L8.01347 20.2201L8.41296 20.052L8.83471 19.8794L9.28033 19.7013L9.75147 19.5169L10.5096 19.2265L11.3343 18.917L12.5927 18.4493L13.2058 18.217L13.0925 18.1573C12.3881 17.7792 11.7731 17.3903 11.1718 16.9482L11.0332 16.8452C8.57664 14.9998 7.27273 12.6412 7.27273 9.54445C7.27273 4.38591 10.8001 0.410156 15.7006 0.410156ZM19.717 27.4364C18.5462 27.017 17.8335 27.3641 17.1182 28.4098L17.0305 28.541L16.946 28.6743L16.8063 28.909L16.6247 29.2275C16.1582 30.053 14.9642 29.9833 14.5805 29.1327C14.0933 28.0553 13.1479 27.2086 12.3188 27.3001C9.70986 27.5879 9.54777 31.5159 12.8737 34.135C13.7054 34.7902 14.5092 35.3517 15.3033 35.8206L15.4168 35.8864L15.5086 35.8488C16.2851 35.5178 17.0334 35.1402 17.7281 34.7202L17.986 34.5608C21.2673 32.4863 21.9013 28.2189 19.717 27.4364ZM15.7006 2.39016C11.9499 2.39016 9.25272 5.43017 9.25272 9.54445C9.25272 11.9855 10.2415 13.774 12.2225 15.2622C13.0987 15.9205 14.0255 16.4569 15.3157 17.0413L15.6994 17.2114L15.8009 17.1673C17.178 16.5605 18.1499 16.0168 19.0535 15.3534L19.1763 15.2622C21.1573 13.774 22.146 11.9855 22.146 9.54445C22.146 5.42951 19.4507 2.39016 15.7006 2.39016Z" fill="#ED2D24"/>
</svg>
