<svg width="98" height="160" viewBox="0 0 98 160" fill="none" xmlns="http://www.w3.org/2000/svg">
<g clip-path="url(#clip0_10780_24918)">
<path fill-rule="evenodd" clip-rule="evenodd" d="M98 0V160C53.8172 160 18 124.183 18 80C18 36.259 53.1045 0.717181 96.6771 0.0107177L98 0Z" fill="#C2E8FF"/>
<path fill-rule="evenodd" clip-rule="evenodd" d="M51.4922 67.5607C49.3044 68.9354 47.9105 71.2451 46.9754 74.1534C45.9922 77.2111 45.6288 80.4341 45.3141 83.2258C45.1995 84.2417 45.0914 85.2004 44.9623 86.0733C44.7126 87.7606 44.3926 89.1061 43.8655 90.0777C43.3656 90.9992 42.6955 91.5614 41.6647 91.7627C38.3464 92.4104 33.8429 91.0881 29.5474 88.3851C25.2792 85.6994 21.3997 81.762 19.3117 77.4584C19.0947 77.0112 18.5563 76.8246 18.1091 77.0416C17.6619 77.2585 17.4753 77.797 17.6922 78.2441C19.9574 82.9127 24.1003 87.0843 28.5888 89.9086C33.0499 92.7158 38.0374 94.3047 42.0095 93.5293L42.0096 93.5293C43.6471 93.2096 44.7329 92.2537 45.4477 90.9361C46.1352 89.6686 46.4887 88.0541 46.7429 86.3368C46.889 85.3495 47.0053 84.3176 47.125 83.2563C47.434 80.515 47.7651 77.5774 48.6889 74.7044L47.8322 74.4289L48.689 74.7044C49.5583 72.0006 50.7646 70.1437 52.4498 69.0848C54.1265 68.0314 56.4425 67.6651 59.7588 68.3002L59.7588 68.3002C62.7976 68.8823 65.1715 71.2869 66.4182 74.9544C67.6647 78.6214 67.7385 83.4619 66.19 88.6194C64.6608 93.7123 60.7909 99.0609 55.7273 102.997C50.6652 106.932 44.5174 109.373 38.4749 108.83L38.3951 109.718L38.4749 108.83C30.1909 108.085 23.7032 103.314 18.8429 97.6508C13.9829 91.9884 10.8196 85.5114 9.19245 81.5443C9.00383 81.0844 8.47812 80.8645 8.01824 81.0531C7.55836 81.2418 7.33847 81.7675 7.52709 82.2273C9.19353 86.2903 12.4446 92.9598 17.477 98.8232C22.5092 104.686 29.392 109.82 38.3137 110.623C44.9401 111.219 51.5287 108.54 56.832 104.418C62.1338 100.297 66.2582 94.6517 67.9139 89.1371C69.5503 83.6871 69.5101 78.4571 68.1224 74.3751C66.735 70.2937 63.9545 67.2711 60.0974 66.5324C56.5181 65.8468 53.6885 66.1807 51.4922 67.5607Z" fill="#0082AA"/>
<path fill-rule="evenodd" clip-rule="evenodd" d="M93.5034 69.2942C88.4382 59.2529 78.3302 58.6765 73.2727 60.0613C72.4975 65.2462 62.2392 68.8021 57.8698 65.3702C46.6048 65.3702 43.8462 78.2965 41.5473 96.5313C39.2481 114.766 39.2481 122.383 53.9615 131.616C68.675 140.849 83.8478 148.235 91.2042 143.619C98.5609 139.002 102.469 87.0674 93.5034 69.2942Z" fill="#323264"/>
<path fill-rule="evenodd" clip-rule="evenodd" d="M57.0292 66.9872C56.9404 66.4982 56.472 66.1737 55.9829 66.2624C51.3434 67.1045 48.5646 70.4578 46.6931 75.5629C44.8334 80.6357 43.7832 87.6566 42.7034 96.221L43.5617 96.3292L42.7034 96.221C41.6262 104.766 41.0476 111.045 42.57 116.281C44.1177 121.605 47.7866 125.726 54.8071 130.132L55.2855 129.369L54.8071 130.132C61.7781 134.506 70.3235 138.832 77.9288 141.395C81.7284 142.676 85.3344 143.53 88.4134 143.713C91.463 143.895 94.1712 143.428 95.9843 141.858C96.3601 141.532 96.4008 140.964 96.0754 140.588C95.75 140.212 95.1816 140.172 94.8059 140.497C93.5264 141.605 91.4064 142.088 88.5203 141.916C85.6636 141.746 82.2264 140.944 78.5036 139.69C71.0639 137.183 62.6471 132.926 55.7639 128.607C48.9309 124.319 45.6729 120.507 44.2984 115.779C42.8985 110.963 43.4021 105.071 44.4893 96.4461C45.5743 87.8407 46.6062 81.0296 48.3831 76.1825C50.1482 71.3676 52.5606 68.713 56.3044 68.0335C56.7934 67.9447 57.1179 67.4763 57.0292 66.9872Z" fill="#E52600"/>
<path fill-rule="evenodd" clip-rule="evenodd" d="M18.0581 58.505L19.2116 61.2421L9.03062 65.3901L7.80056 62.3308L8.76209 61.9224L8.06837 60.2764C8.01615 60.1524 8.07402 60.0092 8.19787 59.9568L15.7056 56.8852C15.8291 56.8328 15.9717 56.8909 16.0239 57.0149L16.8231 58.9113C16.8231 58.9113 18.0613 58.5036 18.0581 58.505Z" fill="#F9F9F6"/>
<path fill-rule="evenodd" clip-rule="evenodd" d="M16.0733 78.0696L24.3986 74.5328L18.6562 60.486L9.98369 64.1705L16.0733 78.0696Z" fill="#E52600"/>
<path d="M10.3 65.6C10.4 65.6 10.5 65.6 10.6 65.5L19.9 61.9C20.3 61.7 20.5 61.2 20.4 60.8L19.5 58.6C19.3 58.4 19.2 58.2 19 58.2C18.8 58.1 18.6 58.1 18.4 58.2C18.3 58.2 18.1 58.3 18 58.4L17.5 57.3C17.3 56.9 16.9 56.7 16.5 56.9C15.4 57.4 10.4 59.3 9.29999 59.8C9.09999 59.9 8.89999 60 8.89999 60.2C8.79999 60.4 8.79999 60.6 8.89999 60.8L9.39999 61.9L9.19999 62C8.99999 62.1 8.79999 62.2 8.79999 62.4C8.69999 62.6 8.69999 62.8 8.79999 63L9.69999 65.1C9.79999 65.3 9.89999 65.5 10.1 65.5C9.99999 65.6 10.2 65.6 10.3 65.6ZM19.3 61L10.4 64.4L9.69999 62.8L10.7 62.4L9.89999 60.6C11.3 60 15.2 58.5 16.6 57.9L17.4 59.7L17.9 59.5C17.9 59.5 18.2 59.4 18.6 59.2L19.3 61Z" fill="#AA0A0A"/>
<path fill-rule="evenodd" clip-rule="evenodd" d="M10.1362 62.6545L17.8281 59.5571L17.4218 58.5482L9.72991 61.6456L10.1362 62.6545Z" fill="#AA0A0A"/>
<path d="M80.9732 67.7262C78.7252 69.8636 77.4593 72.879 76.8847 76.2132C76.2568 79.8554 76.4343 83.2589 76.5801 86.0527L76.6816 88.4679C76.7123 90.0816 76.6137 91.3145 76.2541 92.2548C75.9217 93.124 75.3498 93.7878 74.2568 94.251C71.8042 95.2908 68.6026 94.29 65.0012 91.5319C61.467 88.8253 57.8811 84.6674 54.8681 80.1903C54.5213 79.6748 53.8222 79.5381 53.3067 79.885C52.7912 80.2319 52.6546 80.931 53.0015 81.4465C56.0947 86.0428 59.8388 90.4124 63.6332 93.3183C67.3604 96.1727 71.4863 97.8694 75.1349 96.3226C76.7897 95.6212 77.8042 94.5004 78.3556 93.0585C78.8799 91.6876 78.9627 90.0827 78.9312 88.4251C78.9149 87.5685 78.8689 86.6812 78.8214 85.762C78.6788 83.0067 78.5213 79.9637 79.102 76.5954C79.6262 73.5533 80.7416 71.0511 82.5235 69.3568C83.4089 68.515 84.489 67.8438 85.8031 67.4071C87.0953 66.9778 88.6138 66.7752 90.3958 66.8604C93.673 67.017 96.6364 69.4371 98.6024 73.5134C100.557 77.5661 101.411 83.0692 100.525 88.8798C99.6198 94.8208 97.7399 102.245 94.4096 108.241C91.0752 114.244 86.4214 118.599 80.0106 118.931C70.9517 119.401 62.9276 115.09 56.7503 109.504C50.5627 103.908 46.3793 97.1659 44.9854 93.0842C44.7846 92.4962 44.1451 92.1823 43.5572 92.3831C42.9692 92.5839 42.6553 93.2233 42.8561 93.8113C44.3934 98.3127 48.8197 105.365 55.2411 111.172C61.673 116.989 70.2573 121.69 80.127 121.178C87.6542 120.788 92.8689 115.649 96.3765 109.334C99.8882 103.011 101.824 95.294 102.75 89.2189C103.696 83.013 102.803 77.0437 100.629 72.536C98.4664 68.052 94.9198 64.824 90.5033 64.6129C86.4038 64.417 83.2472 65.564 80.9732 67.7262Z" fill="#0082AA"/>
<path fill-rule="evenodd" clip-rule="evenodd" d="M29.3713 77.8604L39.3903 76.8521C40.1613 76.7264 40.6818 75.9739 40.5523 75.1707L36.5897 54.3327C36.4602 53.5299 35.9192 52.5453 34.3455 52.9078L25.6197 54.626C24.8487 54.7514 24.426 56.1108 24.5562 56.9136L27.74 76.6339C27.8695 77.4367 28.5999 77.9858 29.3713 77.8604Z" fill="#0082AA"/>
<path fill-rule="evenodd" clip-rule="evenodd" d="M33.1011 54.5364C33.5149 54.469 33.952 54.6188 34.288 54.8556C34.6249 55.0931 34.9182 55.4591 34.9885 55.8944C35.1261 56.7444 34.4692 57.5588 33.567 57.694C33.1923 57.7501 32.8027 57.6826 32.4893 57.4533C32.1707 57.2202 31.9686 56.8476 31.9248 56.3695C31.8887 55.9791 31.9748 55.5669 32.1655 55.231C32.3568 54.8942 32.6717 54.6063 33.1011 54.5364ZM34.3355 56C34.3016 55.7903 34.1456 55.5645 33.9069 55.3963C33.6674 55.2274 33.4027 55.1575 33.2074 55.1893C33.0274 55.2186 32.8623 55.3436 32.7408 55.5576C32.6188 55.7724 32.5595 56.0488 32.5835 56.3088C32.6127 56.6281 32.7373 56.8152 32.8799 56.9194C33.0275 57.0275 33.2333 57.0751 33.4691 57.0398C34.0558 56.9518 34.4067 56.4395 34.3355 56Z" fill="#F9F9F6"/>
<path fill-rule="evenodd" clip-rule="evenodd" d="M35.5723 53.7216C35.3643 53.76 35.2268 53.9597 35.2651 54.1676L35.6417 54.0982L36.0183 54.0288C35.98 53.8208 35.7803 53.6833 35.5723 53.7216ZM39.86 74.9303C39.8209 74.6882 38.8594 69.4571 37.9099 64.298C37.4346 61.7159 36.9617 59.1486 36.6077 57.2269L36.0183 54.0288C36.0183 54.0287 36.0183 54.0288 35.6417 54.0982C35.2651 54.1676 35.2651 54.1675 35.2651 54.1676L35.8544 57.3656C36.2085 59.2874 36.6814 61.8546 37.1566 64.4367C38.1081 69.6059 39.0666 74.8212 39.1038 75.0521C39.1321 75.2269 39.1071 75.3988 39.0409 75.5123C38.9883 75.6027 38.8939 75.6887 38.673 75.6939C38.3046 75.7025 35.7984 75.9544 33.4192 76.1998C32.2219 76.3233 31.0463 76.4463 30.1702 76.5384C29.7321 76.5845 29.3689 76.6228 29.1151 76.6496L28.7175 76.6917C28.7174 76.6917 28.7171 76.6918 28.7506 77.008L28.7175 76.6917C28.5072 76.7141 28.3544 76.9027 28.3767 77.113C28.399 77.3233 28.5876 77.4757 28.7979 77.4534L28.7646 77.1395C28.7979 77.4534 28.7979 77.4534 28.7979 77.4534L29.1956 77.4113C29.4492 77.3845 29.8124 77.3462 30.2503 77.3001C31.1261 77.208 32.3011 77.0851 33.4978 76.9617C35.9068 76.7132 38.3627 76.4672 38.6909 76.4595C39.1665 76.4484 39.5104 76.228 39.7027 75.8978C39.8815 75.5909 39.9081 75.228 39.86 74.9303Z" fill="#323264"/>
<path fill-rule="evenodd" clip-rule="evenodd" d="M51.0007 82.0602L45.9216 89.413C41.024 87.874 39.0702 83.9904 37.7629 81.9416C36.1937 79.4829 31.2752 76.7234 31.5117 75.6559C31.7477 74.5888 37.1891 77.8514 37.1891 77.8514C35.8899 76.0726 30.4485 71.9796 30.921 71.1495C31.3934 70.3194 38.241 75.3133 38.4771 74.839C38.7135 74.3646 31.0392 68.7776 31.5117 67.4731C31.9838 66.1687 40.1341 72.2169 40.1341 72.2169C38.2001 67.4086 34.903 67.234 35.0752 66.6193C35.6764 65.5334 38.3708 66.1761 40.4382 68.2139C42.0487 69.8007 48.284 80.9928 51.0007 82.0602Z" fill="#F5966E"/>
<path fill-rule="evenodd" clip-rule="evenodd" d="M9.20223 78.9031C5.2467 78.1555 4.77952 70.9133 5.47324 68.7246C6.1666 66.5359 16.1359 63.7654 16.3635 65.236C16.5907 66.707 11.3956 66.9171 10.1701 68.8383C14.9365 67.2887 19.6373 68.3941 19.2675 69.7495C18.898 71.1043 15.3113 69.5125 10.8607 71.4678C16.7728 70.5456 19.3363 72.5313 19.211 73.2381C19.0141 74.3534 12.957 72.542 11.5681 74.1756C16.8331 74.555 18.1098 74.2747 18.0964 75.3879C18.0833 76.501 11.3367 76.0423 10.5544 76.6041C9.77245 77.1664 9.20223 78.9031 9.20223 78.9031Z" fill="#F5966E"/>
<path fill-rule="evenodd" clip-rule="evenodd" d="M72.3785 59.1879C71.6845 62.4016 66.3567 66.5531 58.976 64.8256C58.922 64.3944 58.4213 60.4828 58.4213 60.4828C55.7392 62.6372 51.6623 62.2064 49.7308 61.5598C47.7999 60.9136 43.4548 58.0588 45.0642 45.3483C46.6732 32.6375 50.2138 29.5676 50.2138 29.5676L69.6862 32.9606L70.3838 43.894C72.1001 41.5781 75.7561 39.7372 76.7967 43.6336C77.4643 46.1334 75.4798 48.7955 70.9738 48.0412C71.5102 50.1956 72.3785 59.1879 72.3785 59.1879Z" fill="#F5966E"/>
<path fill-rule="evenodd" clip-rule="evenodd" d="M58.6293 38.8205C59.8606 39.0596 60.9658 39.5815 61.6068 40.1154C61.8112 40.2856 62.115 40.2579 62.2853 40.0535C62.4555 39.8491 62.4278 39.5453 62.2234 39.3751C61.4339 38.7175 60.1702 38.1383 58.813 37.8747C57.4549 37.611 55.9297 37.6495 54.6457 38.3182C54.4097 38.4411 54.3181 38.732 54.4409 38.9679C54.5638 39.2039 54.8547 39.2956 55.0907 39.1727C56.1158 38.6389 57.3988 38.5816 58.6293 38.8205Z" fill="#323264"/>
<path fill-rule="evenodd" clip-rule="evenodd" d="M51.6455 38.0936C50.1434 36.9629 48.1107 36.625 46.1463 37.4416C45.9006 37.5437 45.7842 37.8257 45.8863 38.0713C45.9885 38.317 46.2704 38.4334 46.5161 38.3313C48.0043 37.7126 49.5172 37.8885 50.7071 38.6188C49.5499 40.5487 48.5154 42.616 47.8009 44.3559C47.4197 45.2841 47.125 46.1304 46.9525 46.8193C46.8664 47.1632 46.8078 47.4796 46.7868 47.7541C46.7667 48.0157 46.7758 48.2951 46.8732 48.5298C46.9962 48.8263 47.2487 48.9902 47.4811 49.0796C47.7136 49.169 47.983 49.2075 48.2496 49.2208C48.786 49.2475 49.4326 49.1766 50.0361 49.0783C50.6458 48.979 51.2386 48.8472 51.6772 48.7409C51.8969 48.6876 52.0792 48.6404 52.2069 48.6064C52.2707 48.5894 52.321 48.5757 52.3556 48.5662L52.3955 48.5551L52.4061 48.5521L52.4101 48.551C52.4102 48.551 52.4103 48.551 52.2877 48.1195L52.4101 48.551C52.666 48.4783 52.8147 48.2118 52.7419 47.9559C52.6692 47.7 52.4028 47.5515 52.1469 47.6242L52.1445 47.6249L52.1356 47.6274L52.0995 47.6374C52.0675 47.6462 52.02 47.6592 51.9591 47.6754C51.8372 47.7078 51.662 47.7532 51.4501 47.8046C51.0254 47.9076 50.4583 48.0334 49.8813 48.1274C49.2982 48.2223 48.7313 48.2802 48.2976 48.2586C48.0791 48.2477 47.9243 48.2178 47.827 48.1804C47.7889 48.1657 47.7684 48.1536 47.7584 48.1465C47.748 48.1084 47.7333 48.0116 47.7474 47.8276C47.7628 47.6265 47.8085 47.3673 47.8871 47.0533C48.0441 46.4263 48.3204 45.6271 48.6921 44.7219C49.4346 42.9138 50.539 40.7279 51.7663 38.7306L51.9958 38.3572L51.6455 38.0936Z" fill="#323264"/>
<path fill-rule="evenodd" clip-rule="evenodd" d="M46.8329 41.4528C46.7666 41.9212 47.021 42.3452 47.4017 42.3998C47.7821 42.4547 48.1452 42.1189 48.2115 41.6505C48.2786 41.1821 48.0238 40.7581 47.6431 40.7035C47.2623 40.6489 46.8996 40.9845 46.8329 41.4528Z" fill="#323264"/>
<path fill-rule="evenodd" clip-rule="evenodd" d="M55.6815 42.374C55.6148 42.8423 55.8693 43.2664 56.25 43.3209C56.6307 43.3755 56.9938 43.04 57.0602 42.5716C57.1268 42.1033 56.8724 41.6792 56.4917 41.6247C56.111 41.5697 55.7479 41.9056 55.6815 42.374Z" fill="#323264"/>
<path fill-rule="evenodd" clip-rule="evenodd" d="M69.7262 45.4384L68.0703 44.9942L68.1934 35.5742C63.873 36.4419 58.2559 35.0166 56.6511 33.715C55.0463 32.4137 48.7506 35.3882 45.7259 30.7404C42.7016 26.0926 42.3929 19.9572 47.0841 17.7259C51.775 15.495 56.7746 19.4612 58.3177 19.3376C59.8611 19.2136 63.0707 18.1599 65.7245 20.5148C68.379 22.8697 68.5022 26.8363 70.1687 27.2699C71.8356 27.7035 76.1257 29.2737 76.4648 31.9797C76.8247 34.8557 77.0791 38.8903 75.7241 40.904C74.8893 42.1443 72.9976 41.7546 71.6193 42.782C70.3663 43.8304 69.7262 45.4384 69.7262 45.4384Z" fill="#284B9B"/>
<path d="M55.1708 14.8799C53.0642 14.1561 50.3595 13.6353 47.6944 14.9027C44.9964 16.1861 43.7557 18.61 43.61 21.2672C43.4662 23.8897 44.375 26.7718 45.9684 29.2208C47.7529 31.9629 50.521 32.2498 52.7708 32.1175C53.3365 32.0843 53.8853 32.0238 54.3885 31.9648L54.6562 31.9332H54.6562C55.0602 31.8852 55.4249 31.8419 55.7629 31.8142C56.1757 31.7804 56.4953 31.7751 56.7383 31.8032C56.9861 31.832 57.0674 31.8862 57.081 31.8973C57.5947 32.3138 58.3537 32.6878 59.209 33.0041C60.0812 33.3265 61.1173 33.612 62.2318 33.8253C64.0938 34.1817 66.2312 34.3474 68.2361 34.1169L67.664 45.4694C67.639 45.9659 68.0212 46.3886 68.5176 46.4136C69.014 46.4386 69.4367 46.0564 69.4618 45.56L70.1477 31.9474L69.0134 32.1751C67.0027 32.5789 64.6423 32.454 62.5702 32.0574C61.5397 31.8602 60.6006 31.5995 59.8332 31.3158C59.0489 31.0258 58.5037 30.7335 58.2148 30.4992C57.8274 30.185 57.361 30.0634 56.9456 30.0152C56.5254 29.9665 56.0662 29.9833 55.6159 30.0202C55.242 30.0509 54.8372 30.0989 54.4323 30.1471L54.4322 30.1471L54.1787 30.1771C53.6811 30.2355 53.1757 30.2906 52.6651 30.3206C50.6097 30.4415 48.7174 30.1448 47.4772 28.2392C46.0463 26.04 45.2886 23.5305 45.4073 21.3657C45.5241 19.2354 46.4747 17.4762 48.4675 16.5283L50.8549 15.9412C52.1229 15.882 53.3899 16.1713 54.5859 16.5822L56.7179 17.4297C56.8887 17.5028 57.0557 17.5743 57.2191 17.6431C57.6008 17.8038 57.9746 17.9543 58.3118 18.0603C58.6302 18.1603 59.0143 18.2538 59.387 18.2239C59.7294 18.1964 60.0985 18.1421 60.487 18.085C62.1895 17.8346 64.2664 17.5291 66.1244 19.1776C67.2808 20.2037 67.9091 21.6007 68.486 22.955L68.5414 23.0851C68.7255 23.5181 68.9149 23.9635 69.1207 24.3663C69.2023 24.526 69.2864 24.679 69.3739 24.8219C69.7025 25.3588 70.1825 25.9334 70.9392 26.1304C71.6974 26.3277 73.0122 26.8132 74.204 27.5529C75.4262 28.3113 76.3343 29.2217 76.5912 30.1982C77.3344 33.0229 77.5667 37.1097 76.9601 40.0302C76.859 40.5169 77.1716 40.9934 77.6583 41.0945C78.1449 41.1956 78.6214 40.883 78.7225 40.3963C79.3939 37.1637 79.135 32.7924 78.332 29.7403C77.8952 28.0799 76.4887 26.8522 75.1531 26.0234C73.7873 25.1758 72.3009 24.6248 71.3926 24.3885L70.9092 23.8823L70.1727 22.3216L70.142 22.2495C69.5772 20.9236 68.8168 19.1601 67.319 17.8312C64.7514 15.5531 61.622 16.0598 59.9732 16.3268L59.2427 16.4296L59.1429 16.4184L58.8513 16.343L57.9174 15.9841L57.4545 15.7868L57.4544 15.7868L57.4544 15.7868C56.799 15.506 56.014 15.1696 55.1708 14.8799Z" fill="#E52600"/>
<path fill-rule="evenodd" clip-rule="evenodd" d="M55.2728 50.6285C55.0161 50.5585 54.7513 50.7098 54.6813 50.9664C54.4913 51.6628 53.6969 52.325 52.5741 52.3601C51.909 52.381 51.4757 52.2052 51.1962 51.9744C50.9125 51.74 50.7446 51.4136 50.6764 51.0637C50.6254 50.8026 50.3725 50.6322 50.1113 50.6831C49.8502 50.734 49.6798 50.987 49.7307 51.2481C49.8336 51.7758 50.0971 52.3162 50.5827 52.7172C51.0725 53.1218 51.7465 53.35 52.6043 53.3231M55.2728 50.6285C55.5295 50.6985 55.6808 50.9634 55.6108 51.22L55.2728 50.6285ZM55.6108 51.22C55.2877 52.4042 54.0616 53.2775 52.6043 53.3231L55.6108 51.22Z" fill="#323264"/>
<path d="M54.6813 50.9664C54.7513 50.7098 55.0161 50.5585 55.2728 50.6285C55.5295 50.6985 55.6808 50.9634 55.6108 51.22C55.2877 52.4042 54.0616 53.2775 52.6043 53.3231C51.7465 53.35 51.0725 53.1218 50.5827 52.7172C50.0971 52.3162 49.8336 51.7758 49.7307 51.2481C49.6798 50.987 49.8502 50.734 50.1113 50.6831C50.3725 50.6322 50.6254 50.8026 50.6764 51.0637C50.7446 51.4136 50.9125 51.74 51.1962 51.9744C51.4757 52.2052 51.909 52.381 52.5741 52.3601C53.6969 52.325 54.4913 51.6628 54.6813 50.9664Z" fill="#323264"/>
</g>
<defs>
<clipPath id="clip0_10780_24918">
<path d="M0 0H90C94.4183 0 98 3.58172 98 8V160H0V0Z" fill="white"/>
</clipPath>
</defs>
</svg>
