<svg width="160" height="160" viewBox="0 0 160 160" fill="none" xmlns="http://www.w3.org/2000/svg">
<g clip-path="url(#clip0_5061_55432)">
<path fill-rule="evenodd" clip-rule="evenodd" d="M160 0V160C115.817 160 80 124.183 80 80C80 36.259 115.104 0.717181 158.677 0.0107177L160 0Z" fill="#C2E8FF"/>
<path fill-rule="evenodd" clip-rule="evenodd" d="M81.3076 18.4161C81.076 18.6373 80.9565 18.9511 80.9824 19.2703C81.2824 22.9772 84.138 25.6247 87.0239 27.429C89.5203 28.9899 92.2708 30.0629 94.0316 30.7246C94.0288 30.7592 94.0261 30.7941 94.0236 30.8293C93.986 31.3397 93.9588 31.9914 93.9392 32.6237C93.9279 32.9878 93.919 33.3496 93.912 33.6805L75.1839 27.4238C74.7583 27.2816 74.2892 27.4222 74.0119 27.775C73.0929 28.9443 73.4062 30.5068 74.0363 31.8337C74.7017 33.2351 75.9028 34.797 77.4952 36.3631C80.55 39.3673 85.2063 42.5444 90.8795 44.7883C90.8341 45.0818 90.7797 45.4225 90.7249 45.7604C90.6974 45.9297 90.6699 46.0978 90.6436 46.2582C90.1655 46.1369 89.5541 45.9838 88.8458 45.8111C87.0859 45.3818 84.7222 44.8296 82.316 44.3403C79.9174 43.8526 77.4451 43.4208 75.4788 43.2407C74.5017 43.1512 73.6011 43.119 72.8791 43.1879C72.5197 43.2222 72.1571 43.2856 71.8341 43.405C71.5251 43.5191 71.1259 43.7311 70.8708 44.1464C70.3012 45.0738 70.5485 46.0717 70.9701 46.8437C71.3927 47.6176 72.1015 48.3959 72.9236 49.1417C74.5824 50.6467 76.9729 52.2583 79.3769 53.7213C81.7935 55.192 84.2758 56.5436 86.1501 57.5258C87.0882 58.0174 87.8762 58.4176 88.4303 58.6953C88.5215 58.741 88.6064 58.7833 88.6846 58.8223L88.5228 63.169L77.4983 61.7249C77.1603 61.6806 76.8217 61.8012 76.5877 62.0491C76.3537 62.2969 76.2528 62.642 76.3165 62.9768C76.6263 64.6063 77.6496 66.1423 78.8649 67.4816C80.0956 68.8378 81.614 70.0907 83.069 71.15C84.5284 72.2125 85.9508 73.0995 87.0064 73.7202C87.535 74.031 87.9736 74.2761 88.2815 74.4444C88.4355 74.5285 88.5569 74.5934 88.6407 74.6378C88.6825 74.66 88.715 74.677 88.7375 74.6887L88.7635 74.7023L88.7729 74.7071C88.7731 74.7072 88.774 74.7077 89.2111 73.8585L88.774 74.7077C89.2958 74.9762 89.9365 74.7709 90.205 74.2492C90.4735 73.7274 90.2682 73.0867 89.7464 72.8182L89.7412 72.8155L89.7205 72.8048C89.7018 72.795 89.673 72.7799 89.635 72.7598C89.559 72.7195 89.4457 72.659 89.3003 72.5795C89.0095 72.4206 88.5904 72.1864 88.0834 71.8883C87.0677 71.2912 85.7072 70.4422 84.3197 69.432C82.9277 68.4186 81.5352 67.2621 80.4386 66.0536C79.8201 65.372 79.3227 64.7032 78.9683 64.0606L89.4032 65.4275C89.6996 65.4663 89.9987 65.3784 90.227 65.1855C90.4554 64.9925 90.5918 64.7122 90.6029 64.4135L90.8337 58.2133C90.8494 57.7919 90.6144 57.4011 90.2349 57.2174L90.232 57.216L90.1799 57.1906C90.1426 57.1724 90.087 57.1452 90.0142 57.1094C89.8685 57.0377 89.6544 56.9318 89.3823 56.7954C88.8378 56.5226 88.0615 56.1283 87.1365 55.6436C85.2845 54.6731 82.8455 53.3446 80.4816 51.906C78.105 50.4597 75.8557 48.9327 74.3515 47.5679C73.5921 46.879 73.0887 46.2896 72.8351 45.8253C72.7142 45.6039 72.6747 45.4548 72.6659 45.3694C72.759 45.3456 72.8945 45.3211 73.0811 45.3033C73.6075 45.253 74.3546 45.2716 75.285 45.3568C77.1335 45.5261 79.5149 45.9392 81.8926 46.4227C84.2626 46.9047 86.5976 47.45 88.3423 47.8756C89.214 48.0882 89.937 48.2705 90.4416 48.3996C90.6939 48.4642 90.8915 48.5154 91.0257 48.5504L91.1785 48.5903L91.229 48.6036L91.5016 47.5767L92.5493 47.7531L92.6347 47.2424C92.6859 46.9349 92.7541 46.5218 92.8225 46.1007C92.8907 45.6802 92.9594 45.2487 93.0113 44.9052C93.0371 44.734 93.0595 44.5803 93.0756 44.459L93.0764 44.4531C93.0877 44.3678 93.1082 44.2134 93.1082 44.0985C93.1082 43.6552 92.833 43.2584 92.4177 43.1032C86.6511 40.9479 81.9593 37.7727 78.9852 34.848C77.4925 33.38 76.4761 32.0178 75.9558 30.9222C75.7284 30.4433 75.6208 30.0754 75.5815 29.7971L94.615 36.1557C94.9375 36.2635 95.2921 36.2104 95.5689 36.0128C95.8457 35.8152 96.0112 35.4972 96.0141 35.1571L96.0146 35.1032L96.0163 34.948C96.0179 34.8139 96.0204 34.6218 96.0242 34.3906C96.0317 33.9279 96.0439 33.3107 96.0632 32.6895C96.0826 32.0653 96.1086 31.4497 96.1428 30.9854C96.1601 30.75 96.1781 30.5748 96.1949 30.4635C96.1951 30.462 96.1953 30.4605 96.1956 30.459C96.2729 30.2809 96.3014 30.0818 96.2724 29.8827C96.2167 29.5003 95.9579 29.1783 95.5964 29.0418C95.4622 28.9911 95.3192 28.9376 95.1682 28.881C93.4322 28.2308 90.6445 27.1866 88.1505 25.6272C85.8736 24.2036 84.0529 22.4815 83.3716 20.4255L98.4933 22.3557C99.0754 22.43 99.6075 22.0184 99.6818 21.4363C99.7561 20.8542 99.3444 20.3221 98.7623 20.2478L82.1759 18.1306C81.8583 18.0901 81.5393 18.195 81.3076 18.4161ZM91.5016 47.5767L92.5493 47.7531C92.4997 48.0478 92.3283 48.3079 92.0772 48.4698C91.8261 48.6316 91.5178 48.6801 91.229 48.6036L91.5016 47.5767Z" fill="#E52600"/>
<path fill-rule="evenodd" clip-rule="evenodd" d="M108.513 103.755C108.026 104.083 107.898 104.744 108.227 105.23L115.794 116.433C115.933 116.639 116.14 116.789 116.378 116.859L125.852 119.612L127.358 131.234C127.434 131.816 127.967 132.227 128.549 132.151C129.13 132.076 129.541 131.543 129.466 130.961L127.87 118.649C127.816 118.23 127.518 117.883 127.113 117.765L117.34 114.925L109.988 104.041C109.659 103.554 108.999 103.426 108.513 103.755Z" fill="#E52600"/>
<path fill-rule="evenodd" clip-rule="evenodd" d="M136.519 36.1405C137.071 23.8284 136.538 22.259 130.449 21.2242C124.727 20.2509 98.7252 17.9137 93.7273 18.0917C89.6866 18.2358 89.9257 26.3987 89.2595 30.4912C88.6097 34.4837 77.1767 95.5916 80.4686 102.036C83.1091 107.203 122.29 111.321 125.592 108.871C130.255 105.412 136.519 36.1405 136.519 36.1405" fill="#C2E8FF"/>
<path d="M112.449 106.519C116.806 106.519 120.418 106.094 122.012 105.031C123.499 104.075 126.049 102.481 130.406 66.3561C132.531 48.9312 134.018 31.7187 134.018 31.6124V31.5062C134.549 19.6062 134.337 16.4187 125.943 14.9312C117.124 13.4437 95.3431 11.7437 93.4306 11.7437C88.0118 11.9562 87.1618 18.6499 86.6306 23.1124C86.5243 23.8562 86.4181 24.5999 86.3118 25.3437C86.2056 25.7687 86.0993 26.6187 85.8868 27.8937C75.0493 90.5812 77.2806 95.3624 78.1306 97.1687C79.1931 99.5062 82.2743 101.525 87.5868 103.119C94.3868 105.137 104.693 106.519 112.449 106.519ZM119.249 100.994C116.381 102.269 100.231 101.844 89.0743 98.4437C83.4431 96.7437 82.6993 95.2562 82.5931 95.1499C82.0618 93.8749 80.9993 85.2687 90.7743 28.7437C90.9868 27.4687 91.1993 26.5124 91.1993 26.1937C91.3056 25.4499 91.4118 24.7062 91.5181 23.7499C91.7306 21.8374 92.3681 16.7374 93.5368 16.7374C95.2368 16.7374 116.487 18.3312 125.093 19.8187C128.068 20.2437 128.493 20.5624 128.812 21.0937C129.449 22.5812 129.343 26.5124 129.131 31.1874C126.368 62.5312 122.012 96.9562 119.249 100.994Z" fill="#323264"/>
<path fill-rule="evenodd" clip-rule="evenodd" d="M132.458 47.0107C131.994 46.6531 131.329 46.7382 130.97 47.2009C129.322 49.3253 129.299 52.0313 129.969 54.6532C130.641 57.2869 132.06 60.0439 133.607 62.5133C135.161 64.9941 136.883 67.2433 138.212 68.8681C138.878 69.6819 139.447 70.3423 139.851 70.8003C139.869 70.8202 139.886 70.8396 139.903 70.8587C139.372 71.657 138.796 72.7681 138.225 74.1257C137.426 76.0246 136.604 78.4867 135.911 81.4312C134.525 87.3213 133.648 95.1722 134.526 104.351C134.582 104.935 135.101 105.363 135.685 105.307C136.269 105.251 136.697 104.732 136.641 104.148C135.787 95.216 136.643 87.5981 137.98 81.918C138.648 79.0774 139.435 76.7292 140.184 74.9495C140.944 73.1412 141.633 71.9972 142.073 71.5006C142.436 71.0904 142.428 70.4713 142.054 70.0708M142.054 70.0708L142.045 70.0616L142.016 70.0298C141.99 70.0011 141.95 69.9578 141.897 69.9004C141.793 69.7856 141.639 69.6149 141.445 69.3944C141.055 68.9532 140.503 68.3132 139.857 67.5229C138.562 65.9395 136.899 63.7652 135.408 61.385C133.909 58.9934 132.621 56.4519 132.028 54.1274C131.554 52.2726 131.551 50.6852 132.104 49.4213L152.175 64.8983L167.088 130.781C167.218 131.353 167.787 131.712 168.359 131.583C168.932 131.453 169.291 130.884 169.161 130.312L154.163 64.0559C154.108 63.8147 153.971 63.6001 153.775 63.4491L132.458 47.0107" fill="#E52600"/>
<path fill-rule="evenodd" clip-rule="evenodd" d="M92.2525 56.9936L106.928 58.8082L121.662 61.056C123.207 61.2695 124.632 60.1942 124.846 58.6556C124.846 58.654 124.846 58.6532 124.847 58.6516L125.513 53.8539L126.179 49.0507C126.393 47.512 125.314 46.0912 123.771 45.877H123.767L123.761 45.8762L108.577 43.5216L94.3477 41.8146C92.8015 41.6011 91.3758 42.678 91.1624 44.2182V44.219L90.496 49.0159L89.8296 53.8144C89.617 55.3546 90.6967 56.7754 92.2422 56.9873L92.2525 56.9936Z" fill="#323264"/>
<path fill-rule="evenodd" clip-rule="evenodd" d="M87.8344 88.4156L102.513 90.2315L117.249 92.48C118.794 92.6927 120.22 91.6179 120.434 90.0788V90.0749L121.101 85.275L121.767 80.4766C121.98 78.9368 120.901 77.5156 119.356 77.302H119.354L104.169 74.946L89.9355 73.2384C88.3899 73.0249 86.964 74.1013 86.7505 75.6427V75.6435L86.084 80.4418L85.4175 85.241C85.2049 86.7824 86.284 88.2028 87.8297 88.4164H87.8313L87.8344 88.4156Z" fill="#323264"/>
<path fill-rule="evenodd" clip-rule="evenodd" d="M106.88 71.3526L120.519 73.2053C120.888 73.2431 121.255 73.1067 121.505 72.8363C121.809 72.5241 122.001 72.1244 122.053 71.6971L122.463 68.8021L122.872 65.9064C122.94 65.4807 122.866 65.0447 122.661 64.6631C122.494 64.3375 122.18 64.1081 121.813 64.0442L114.779 62.9326L108.173 62.1915C107.803 62.1545 107.437 62.2916 107.187 62.5613C106.885 62.8727 106.694 63.2724 106.641 63.6989L106.232 66.5954L105.822 69.4912C105.755 69.9169 105.828 70.3529 106.033 70.7345C106.2 71.0601 106.514 71.2895 106.88 71.3526" fill="#323264"/>
<path fill-rule="evenodd" clip-rule="evenodd" d="M88.6799 69.6989L102.317 71.5514C102.687 71.5893 103.053 71.4537 103.304 71.1833C103.607 70.8703 103.798 70.4706 103.852 70.0434L104.262 67.1486L104.671 64.2523C104.739 63.8266 104.665 63.3899 104.459 63.0091C104.292 62.6835 103.978 62.4541 103.612 62.3903L96.5789 61.2787L89.9749 60.5377C89.6049 60.5006 89.2389 60.6378 88.988 60.9074C88.6855 61.2188 88.4933 61.6177 88.4402 62.045L88.0307 64.9413L87.6213 67.8368C87.5537 68.2625 87.6269 68.6985 87.8321 69.08C87.9978 69.4072 88.3131 69.6374 88.6799 69.6989" fill="#323264"/>
<path fill-rule="evenodd" clip-rule="evenodd" d="M104.907 21.2963C104.843 22.398 105.685 23.3425 106.787 23.406L115.612 23.9143C116.713 23.9777 117.658 23.1361 117.721 22.0344C117.785 20.9327 116.943 19.9882 115.841 19.9248L107.016 19.4165C105.915 19.353 104.97 20.1946 104.907 21.2963Z" fill="#323264"/>
<path fill-rule="evenodd" clip-rule="evenodd" d="M117.313 30.6514C116.948 30.4787 116.512 30.6349 116.339 31.0004C115.173 33.4675 115.406 35.3749 116.303 36.6803C117.154 37.9185 118.547 38.5149 119.512 38.4861L119.512 38.4861C119.913 38.4741 120.504 38.3693 121.025 37.9445C121.335 38.1816 121.654 38.3598 121.981 38.4798C122.983 38.8484 123.952 38.6281 124.668 38.0457C125.111 37.6845 125.275 37.1498 125.313 36.6663C125.351 36.1745 125.269 35.633 125.118 35.1044C125 34.6942 124.833 34.2687 124.624 33.851C124.763 33.8526 124.895 33.8514 125.017 33.8502C125.039 33.85 125.061 33.8498 125.082 33.8496C125.515 33.8459 125.783 33.8524 125.963 33.9027C126.006 33.9148 126.029 33.9257 126.039 33.9316C126.041 33.9361 126.043 33.9428 126.045 33.9524C126.138 34.3457 126.533 34.589 126.926 34.4959C127.319 34.4028 127.563 34.0085 127.469 33.6152C127.4 33.3201 127.257 33.0621 127.039 32.8603C126.828 32.665 126.583 32.5566 126.358 32.4935C125.947 32.3783 125.466 32.3826 125.093 32.3859C125.085 32.386 125.077 32.386 125.069 32.3861L125.059 32.3862C124.639 32.3898 124.289 32.3929 123.979 32.3371C123.716 32.2898 123.544 32.2098 123.425 32.0968C123.402 32.0726 123.38 32.0486 123.357 32.0249C123.082 31.7378 122.628 31.7226 122.335 31.9906C122.042 32.2586 122.016 32.7119 122.277 33.0116C122.308 33.0481 122.341 33.083 122.374 33.1163C122.992 33.7909 123.478 34.6959 123.711 35.5085C123.832 35.9305 123.874 36.2894 123.854 36.5531C123.833 36.8251 123.756 36.9008 123.744 36.9105L123.744 36.9105C123.409 37.183 122.98 37.2876 122.486 37.1061C122.291 37.0345 122.074 36.9132 121.843 36.7253C122.005 36.2503 122.083 35.6761 122.062 34.9927C122.023 33.6843 121.63 32.8496 121.069 32.3525C120.521 31.8666 119.934 31.8129 119.733 31.8046L119.733 31.8046C119.291 31.7863 119.01 32.0945 118.887 32.2882C118.739 32.5206 118.66 32.8085 118.637 33.1245C118.593 33.7556 118.767 34.623 119.301 35.7879C119.308 35.8033 119.316 35.8184 119.324 35.8333C119.537 36.2241 119.761 36.5739 119.994 36.883C119.827 36.9816 119.64 37.018 119.468 37.0231C119.025 37.0363 118.093 36.7004 117.51 35.8516C116.973 35.07 116.665 33.7356 117.662 31.6257C117.835 31.2603 117.679 30.8241 117.313 30.6514ZM120.601 35.1112C120.243 34.3155 120.124 33.7795 120.1 33.4487C120.273 33.6033 120.568 34.0037 120.599 35.0372L120.599 35.0377C120.6 35.0625 120.601 35.087 120.601 35.1112ZM126.036 33.9239C126.036 33.924 126.036 33.9245 126.037 33.9254Z" fill="#E52600"/>
</g>
<defs>
<clipPath id="clip0_5061_55432">
<path d="M0 0H152C156.418 0 160 3.58172 160 8V152C160 156.418 156.418 160 152 160H0V0Z" fill="white"/>
</clipPath>
</defs>
</svg>
