<svg width="71" height="71" viewBox="-2 -2 76 76" fill="none" xmlns="http://www.w3.org/2000/svg">
<path d="M0 36C0 16.1177 16.1177 0 36 0V0C55.8823 0 72 16.1177 72 36V36C72 55.8823 55.8823 72 36 72V72C16.1177 72 0 55.8823 0 36V36Z" fill="#C2E8FF"/>
<path fill-rule="evenodd" clip-rule="evenodd" d="M42.8895 42.816C42.8895 43.7697 42.3703 44.412 41.4835 44.7253L41.4099 44.7505L41.2622 44.7966L41.1873 44.8175L41.0337 44.8556L40.8725 44.8891L40.7005 44.9186L40.5149 44.9446L40.3125 44.9677L40.0905 44.9886L39.8458 45.0078L39.4295 45.0345L38.412 45.0913L38.0726 45.1158L37.878 45.133L37.6192 45.1596C37.5773 45.1644 37.5361 45.1693 37.4953 45.1744L36.9811 45.2452L36.6343 45.2907L35.3797 45.4449L35.1414 45.477L34.84 45.5232L34.6732 45.5535L34.4688 45.5988L34.3599 45.6298L34.2996 45.6505L34.3187 45.6847C34.4247 45.8558 34.7116 46.0959 35.1824 46.3259L35.2943 46.3788C36.1211 46.7564 37.2295 46.9863 38.3098 46.9863C38.8658 46.9863 39.4493 46.9408 40.0592 46.8522C41.6849 46.616 43.4127 46.0954 45.3661 45.3188L45.7679 45.1569L46.177 44.9876L46.6061 44.8061L48.4546 44.0062C51.2254 42.8377 53.4955 45.3894 51.4633 47.7009C49.2142 50.2598 43.0808 52.9767 38.0771 53.0206C35.869 53.04 34.4892 52.8164 32.6333 52.2469L31.5226 51.8947C30.4397 51.5535 29.6329 51.3466 28.6126 51.1774C28.4154 51.1447 28.215 51.1151 28.0118 51.0886C25.9536 50.8197 23.7364 50.8696 21.6186 51.1163L21.3915 51.1437L20.9651 51.2L20.5779 51.2574L20.2103 51.3192C19.8034 51.3964 19.4109 51.1291 19.3337 50.7222C19.2564 50.3152 19.5238 49.9227 19.9307 49.8455L20.1905 49.8003L20.5455 49.745L20.976 49.6847L21.1282 49.665L21.445 49.6264C23.6749 49.3666 26.0084 49.3141 28.2061 49.6012C28.4262 49.63 28.6435 49.6621 28.858 49.6976C29.8574 49.8634 30.6684 50.0631 31.6676 50.369L32.8401 50.7402C34.6816 51.3217 35.9312 51.5394 38.0639 51.5207C42.6473 51.4804 48.3738 48.9439 50.3367 46.7106C51.216 45.7104 50.4718 44.8333 49.1226 45.354L48.8854 45.4529L47.4238 46.0875L46.9702 46.2812L46.5422 46.4603L45.9203 46.7127C43.8673 47.5289 42.0354 48.0808 40.2749 48.3366C39.5961 48.4352 38.941 48.4863 38.3098 48.4863C35.4555 48.4863 32.7012 47.2281 32.7734 45.4865C32.8079 44.6537 33.2372 44.3159 34.2837 44.1011L34.5175 44.0568L34.7707 44.0155L35.0437 43.9763L36.2634 43.8255L36.779 43.7589L37.1019 43.7139C37.2369 43.6944 37.3755 43.6771 37.5191 43.6615L37.8102 43.6329L38.2297 43.6L39.3273 43.5375L39.7198 43.5107L39.9532 43.491L40.165 43.4697L40.3563 43.4464L40.5278 43.4209C41.2029 43.3096 41.3895 43.1347 41.3895 42.816C41.3895 42.1709 40.0765 41.5398 37.4132 41.5839L37.2295 41.588C37.052 41.5929 36.8733 41.5989 36.6933 41.606L36.1494 41.6308L35.5976 41.6624L35.3186 41.6808L34.7541 41.7231L34.1807 41.7728C32.9284 41.8885 31.6108 42.0573 30.2112 42.2877L29.5593 42.3985C29.2304 42.4561 28.897 42.5171 28.5589 42.5815L27.8763 42.715L27.1808 42.8578C26.8297 42.9317 26.4737 43.0091 26.1124 43.0902L25.383 43.2574C24.7692 43.4009 24.1406 43.5549 23.4963 43.7199L22.7155 43.9231L22.3193 44.0288L21.5151 44.2481L21.107 44.362L20.2785 44.5979C19.8806 44.7128 19.4648 44.4833 19.3499 44.0854C19.235 43.6874 19.4645 43.2716 19.8625 43.1568L20.6891 42.9213L21.5002 42.6966L21.9001 42.5882L22.6884 42.3794C22.9487 42.3116 23.2066 42.2454 23.4621 42.181L24.2213 41.9927C24.4721 41.9317 24.7205 41.8722 24.9666 41.8145L25.6981 41.6461L26.4164 41.4873L27.1216 41.3381C27.2381 41.314 27.354 41.2903 27.4694 41.267L28.1558 41.1316C28.7227 41.0226 29.2769 40.923 29.8194 40.8324L30.4648 40.7279C30.6781 40.6945 30.8896 40.6625 31.0993 40.6319L31.7232 40.5442C31.9294 40.5163 32.1339 40.4897 32.3368 40.4645L33.09 40.376L33.8284 40.2994L34.4089 40.2467L34.9807 40.2012L35.5442 40.1628L36.0997 40.1313C36.4674 40.1127 36.8301 40.0985 37.1881 40.0886C40.7098 39.9914 42.8895 41.0153 42.8895 42.816ZM36.1077 18.7675C39.6158 18.7675 42.0757 21.5377 42.0757 25.3058C42.0757 27.9999 40.962 29.8113 38.0583 31.4147L37.9496 31.4735L37.9903 31.489C38.1752 31.558 38.3649 31.6273 38.5595 31.697L39.0821 31.8811C39.3213 31.964 39.5542 32.0474 39.7808 32.1311L40.2256 32.2992C44.8819 34.0989 46.7107 36.1133 46.7659 38.8753L46.7672 39.0053V42.5749C46.7672 42.9891 46.4314 43.3249 46.0172 43.3249C45.6273 43.3249 45.307 43.0274 45.2706 42.6471L45.2672 42.5749V39.0053C45.2672 37.1978 44.2532 35.781 41.3566 34.4063L41.014 34.2479C40.6629 34.0896 40.2863 33.9316 39.8829 33.7736L39.4705 33.6154L39.2575 33.5363L38.8177 33.3778L38.5908 33.2984C37.8533 33.0427 37.1723 32.7889 36.5446 32.5337L36.1076 32.352L35.9801 32.406C35.3332 32.6772 34.6268 32.9463 33.8573 33.2171L33.3977 33.3778L32.9579 33.5363L32.7449 33.6154L32.3324 33.7736L32.1262 33.8553L31.7278 34.0188L31.3481 34.1824C28.0755 35.628 26.9482 37.0995 26.9482 39.0053C26.9482 39.4196 26.6124 39.7553 26.1982 39.7553C25.784 39.7553 25.4482 39.4196 25.4482 39.0053C25.4482 36.4375 26.9416 34.512 30.7538 32.8115L31.1496 32.6393C31.5533 32.4679 31.9814 32.2986 32.4346 32.1311L32.8961 31.9642L33.1333 31.8811C33.4194 31.7819 33.6955 31.6837 33.9619 31.5862L34.2651 31.4735L34.157 31.4147C31.3043 29.8394 30.1793 28.0634 30.1407 25.4468L30.1397 25.3058C30.1397 21.5377 32.5996 18.7675 36.1077 18.7675ZM36.1077 20.2675C33.4703 20.2675 31.6397 22.3291 31.6397 25.3058C31.6397 27.6581 32.7042 29.1511 35.9441 30.6466L36.1076 30.721L36.2712 30.6466L36.4527 30.5618L36.8017 30.392C39.5777 29.0044 40.541 27.577 40.5748 25.4247L40.5757 25.3058C40.5757 22.3291 38.745 20.2675 36.1077 20.2675Z" fill="#E52600"/>
<path d="M36 71C16.67 71 1 55.33 1 36H-1C-1 56.4345 15.5655 73 36 73V71ZM71 36C71 55.33 55.33 71 36 71V73C56.4345 73 73 56.4345 73 36H71ZM36 1C55.33 1 71 16.67 71 36H73C73 15.5655 56.4345 -1 36 -1V1ZM36 -1C15.5655 -1 -1 15.5655 -1 36H1C1 16.67 16.67 1 36 1V-1Z" fill="#D9DADA"/>
</svg>
