<svg width="184" height="185" viewBox="0 0 184 185" fill="none" xmlns="http://www.w3.org/2000/svg">
<circle cx="86.25" cy="93.1836" r="51.75" fill="#F5F5F5"/>
<path fill-rule="evenodd" clip-rule="evenodd" d="M89.0217 44.9876C89.107 45.037 89.2013 45.1031 89.3044 45.1855L89.5222 45.3718L89.7628 45.6006L90.0256 45.8708L90.3101 46.1817L90.6157 46.5321L90.9418 46.9213L91.4683 47.5757L92.0379 48.3119L92.6487 49.1269L93.2988 50.0176L93.7531 50.6518L94.9578 52.3722L95.7251 53.4923L97.0722 55.4955L98.4968 57.6565L100.296 60.4377L102.18 63.4003L103.803 65.9896L105.801 69.2197L108.526 73.6939L110.596 77.1425L112.672 80.6431L114.25 83.3321L116.473 87.1659L118.653 90.9768L120.351 93.9874L121.592 96.2123L123.196 99.1218L123.972 100.547L125.47 103.33L126.885 106.008L128.207 108.564L128.83 109.791L129.426 110.982L129.994 112.135L130.79 113.786L131.282 114.833L131.741 115.834L132.167 116.788C132.371 117.252 132.562 117.698 132.74 118.123C133.177 119.175 132.68 120.382 131.628 120.82C130.577 121.258 129.369 120.76 128.931 119.709L128.571 118.86L128.173 117.958L127.74 117.005L127.273 116.004L126.511 114.416L125.68 112.73L124.784 110.955L123.828 109.097L122.816 107.163L121.752 105.162L120.262 102.4L119.095 100.267L117.484 97.3572L115.817 94.3864L114.107 91.3721L111.923 87.5694L111.039 86.0443L108.311 81.3829L106.277 77.9516L104.261 74.5857L102.277 71.3109L99.9614 67.5378L98.1049 64.5542L96.6787 62.2911L94.9832 59.6385L93.7062 57.6734L92.5086 55.8623L91.6673 54.6129L90.6279 53.1029L89.6901 51.783L89.2618 51.1985L88.8618 50.6665L88.3174 49.9704L88.2044 49.8337L87.5567 50.7002L86.9471 51.5342L86.3212 52.4093L85.679 53.3254L85.0206 54.2822L84.346 55.2796L83.3038 56.8514L82.2255 58.5135L81.1112 60.2652L80.3484 61.4826L79.1745 63.3824L77.965 65.3703L76.7201 67.4456L75.8706 68.8774L74.567 71.097L73.2285 73.4025L71.8552 75.7931L70.4472 78.2683L69.0047 80.8274L67.028 84.3691L65.1808 87.7116L63.4988 90.7803L61.7756 93.9463L59.5644 98.0385L56.1158 104.478L52.4064 111.466L44.214 127.011L45.0764 127.121L45.8507 127.205L47.1589 127.325L48.6389 127.438L50.2863 127.543L51.4752 127.609L53.4765 127.706L55.6341 127.794L58.7392 127.897L61.2281 127.963L64.7437 128.037L67.517 128.082L70.3979 128.117L74.3914 128.148L76.4478 128.158C77.6834 128.162 78.924 128.164 80.1666 128.164L83.4306 128.158L88.4818 128.129L92.0402 128.095L97.2897 128.022L102.384 127.925L106.469 127.826L109.611 127.736L114.071 127.583L117.521 127.441L120.695 127.285L123.014 127.151L124.613 127.046L126.084 126.937L127.421 126.823C128.556 126.72 129.559 127.556 129.662 128.69C129.765 129.825 128.929 130.828 127.795 130.931L126.871 131.011L125.363 131.128L123.716 131.24L121.939 131.347L118.708 131.515L115.17 131.668L112.144 131.78L108.964 131.882L105.648 131.974L101.339 132.073L96.883 132.154L92.3152 132.217L86.7371 132.267L82.9884 132.285L78.3013 132.288L74.3643 132.273L69.3667 132.231L66.5011 132.192L63.7454 132.144L61.1083 132.086L58.5983 132.019L56.9997 131.969L54.7202 131.887L52.5905 131.795L50.633 131.695L49.4369 131.624L47.2638 131.472L46.2883 131.39L45.388 131.304L44.3694 131.191L43.471 131.073L43.1024 131.016L42.431 130.899C41.9074 130.797 41.4718 130.686 41.1139 130.559C40.6581 130.397 40.2835 130.202 39.9484 129.888C39.2267 129.213 38.9552 128.145 39.4704 127.169L48.1075 110.772L52.4767 102.536L54.8027 98.1852L57.5997 92.9944L59.8788 88.8026L61.5669 85.7229L63.4388 82.3356L65.4757 78.6867L66.9614 76.0521L68.411 73.5054L69.8247 71.0472L71.2022 68.678L72.5436 66.3982L73.8488 64.2083L75.1178 62.1089L76.3505 60.1004L77.5469 58.1832L78.3244 56.9561L79.4603 55.1924L80.1973 54.0681L80.9182 52.985L81.6228 51.9435L82.6494 50.4593L83.3135 49.5221L83.9613 48.6269L84.5929 47.7739L85.5099 46.5736L86.1008 45.8265C86.1979 45.7055 86.2944 45.5863 86.3902 45.4689C87.0302 44.6842 88.1453 44.4803 89.0217 44.9876ZM88.2672 107.783C92.7563 107.783 96.11 111.357 96.11 115.828C96.11 120.264 92.0246 124.263 87.5073 124.263C83.0906 124.263 79.9723 120.875 79.7069 116.406C79.3889 111.045 83.2293 107.783 88.2672 107.783ZM88.2672 111.908C85.4209 111.908 83.661 113.403 83.8246 116.162C83.9676 118.568 85.4122 120.138 87.5073 120.138C89.7661 120.138 91.985 117.966 91.985 115.828C91.985 113.579 90.4174 111.908 88.2672 111.908ZM86.7825 65.7555C87.8859 65.7271 89.0428 65.7446 90.1958 65.7946L91.0588 65.8381L91.7518 65.8816L92.454 65.9355C93.4166 66.0214 94.1811 66.7612 94.313 67.7018L94.3308 67.8925L94.6452 74.5473L95.0107 82.6349L95.2266 87.7551L95.4291 93.1001L95.5251 96.3374L95.5565 98.1656L95.5553 99.2928L95.5451 99.7276L95.5283 100.075L95.505 100.336L95.4908 100.434C94.7472 104.77 82.5617 105.26 80.8137 101.032C80.734 100.839 80.6841 100.636 80.6655 100.429L80.6573 100.221L81.0182 68.2079C81.0287 67.2764 81.6623 66.4676 82.5641 66.2343C83.6818 65.9452 85.1005 65.7989 86.7825 65.7555ZM87.6506 69.8675L86.8889 69.8791C86.4701 69.8899 86.0742 69.9081 85.7047 69.9335L85.123 69.9816L84.7916 99.4149L84.9384 99.472L85.1113 99.5285L85.3054 99.5826C86.0854 99.7833 87.1504 99.8715 88.2682 99.8267C89.2229 99.7883 90.1403 99.6555 90.846 99.4613L91.1349 99.3744L91.3025 99.3159L91.4398 99.2609V98.8265L91.4208 97.4066L91.3745 95.4725L91.2613 92.0054L90.9998 85.384L90.669 77.8704L90.2971 69.9294L90.024 69.9161C89.4902 69.8929 88.9565 69.8772 88.4312 69.8705L87.6506 69.8675Z" fill="#D5431B"/>
</svg>
