<svg width="40" height="39" viewBox="0 0 40 39" fill="none" xmlns="http://www.w3.org/2000/svg">
<path fill-rule="evenodd" clip-rule="evenodd" d="M32.8054 0.410156C35.483 0.410156 38.062 2.81985 38.062 5.6389C38.062 8.75376 36.6475 11.1795 34.2409 12.7534L34.1465 12.814L34.1765 12.8395C37.4482 15.6071 39.0413 18.0427 39.4351 22.2023L39.4586 22.4702L39.4802 22.7466L39.5186 23.2958L39.5503 23.8397L39.5753 24.3783L39.5937 24.9112L39.6053 25.4381C39.6066 25.5255 39.6077 25.6125 39.6085 25.6993L39.6099 26.2169C39.6088 26.4741 39.6052 26.7288 39.599 26.9809L39.5831 27.4817C39.5798 27.5645 39.5763 27.6471 39.5725 27.7294L39.5461 28.2192L39.5126 28.7015C39.5064 28.7813 39.5 28.8607 39.4932 28.9398L39.449 29.4102C39.4331 29.5657 39.416 29.7198 39.3977 29.8725L39.3391 30.3264C39.3288 30.4013 39.3181 30.4759 39.3071 30.5501L39.2377 30.9908L39.1608 31.4224C39.1474 31.4936 39.1337 31.5644 39.1197 31.6348L39.0318 32.0524C38.1001 36.2488 36.0125 38.9415 32.5492 38.9415C27.9595 38.9415 25.7278 36.4479 25.1205 31.3692L25.0736 30.9399L25.0342 30.4987C25.0222 30.3497 25.0115 30.1986 25.0021 30.0456L24.9772 29.5804C24.9736 29.5018 24.9704 29.4228 24.9674 29.3433L24.9532 28.86L24.946 28.3648L24.9458 27.8575C24.9567 26.0766 25.1151 24.4417 25.373 22.9847L25.4426 22.607L25.5117 22.2615L25.5793 21.9489L25.6445 21.6699L25.7063 21.4249L25.7639 21.2147L25.8164 21.0398C25.9811 20.5184 26.5372 20.2292 27.0586 20.3939C27.551 20.5494 27.8363 21.0541 27.7278 21.5489L27.6339 21.8868L27.5919 22.0507C27.5007 22.415 27.4088 22.8429 27.3227 23.3297C27.0836 24.6804 26.936 26.2045 26.9257 27.8696L26.9258 28.3675C26.9263 28.4492 26.9271 28.5302 26.9282 28.6106L26.9378 29.0851C26.9421 29.2407 26.9475 29.3937 26.954 29.5442L26.9768 29.9881C26.9986 30.3516 27.0275 30.6994 27.0638 31.0318L27.1108 31.4233C27.6254 35.3286 29.2534 36.9615 32.5492 36.9615C34.835 36.9615 36.3647 34.8216 37.1053 31.4119L37.1844 31.0278L37.2569 30.6336L37.3229 30.2294C37.3438 30.0931 37.3637 29.9551 37.3824 29.8156L37.4354 29.3924C37.4437 29.3211 37.4517 29.2494 37.4594 29.1774L37.5026 28.7406C37.5158 28.5935 37.528 28.445 37.5391 28.2951L37.5691 27.8411C37.5781 27.6884 37.5859 27.5343 37.5926 27.3789L37.6094 26.9088C37.6117 26.8298 37.6137 26.7505 37.6154 26.6709L37.6223 26.1893L37.6226 25.7006L37.6163 25.2048L37.6034 24.7023C37.6007 24.618 37.5977 24.5334 37.5944 24.4485L37.5715 23.9364C37.5628 23.7647 37.5529 23.5919 37.5419 23.4182L37.5057 22.8942C37.4991 22.8064 37.4922 22.7183 37.4851 22.6301C37.1906 18.9946 35.931 16.96 33.0936 14.5182L32.2205 13.7854L32.0755 13.8415C30.4369 14.4606 28.5205 14.7962 26.4015 14.8194L26.1652 14.8207C23.9146 14.8207 21.7835 14.3089 19.9886 13.403L19.8467 13.33L19.7796 13.3669C18.0535 14.2857 16.0651 14.8294 14.053 14.8625L13.8583 14.8641C11.8877 14.8641 9.99127 14.4921 8.31376 13.8285L8.00986 13.7038L7.17311 14.5184L6.74927 14.9396C4.00068 17.7104 2.78398 19.7685 2.53811 22.8149L2.5162 23.0956L2.47745 23.6495L2.44548 24.1936C2.44072 24.2835 2.43624 24.3729 2.43205 24.4619L2.4103 24.991C2.40114 25.253 2.39455 25.5113 2.39054 25.7656L2.38596 26.2693L2.38831 26.7625L2.3976 27.2453C2.40398 27.4841 2.41298 27.7189 2.42461 27.9497L2.45138 28.406C2.45642 28.4811 2.46176 28.5558 2.4674 28.6301L2.50473 29.0701L2.54915 29.4992L2.60067 29.9173C3.19742 34.3863 5.05007 36.8963 8.31402 36.8963C10.0483 36.8963 11.6511 35.7033 12.8463 33.736L12.8825 33.6742L12.7952 33.4999C11.683 31.2459 11.0608 28.4459 11.0302 25.3846L11.029 25.1358L11.0326 24.745L11.0433 24.3662L11.0612 23.9996C11.2275 21.2366 12.0563 19.5768 13.9958 19.5768C15.6606 19.5768 16.5212 21.0086 16.8108 23.2557L16.8491 23.5903C16.8548 23.647 16.8602 23.7042 16.8653 23.7618L16.8917 24.1131C16.8992 24.2319 16.9054 24.3525 16.9104 24.4749L16.9214 24.8468C16.9239 24.9724 16.9251 25.0997 16.9251 25.2284C16.9251 28.3656 16.2849 31.2717 15.1749 33.5889L15.1487 33.6412L15.2159 33.7456C16.4121 35.5725 18.0362 36.7447 19.942 36.9726L20.1015 36.9894C20.9016 37.0624 21.6718 36.9414 22.3711 36.6942C22.444 36.6685 22.5119 36.643 22.5745 36.6182L22.7464 36.5467C22.7723 36.5353 22.7969 36.5242 22.82 36.5135L22.9414 36.4542L23.027 36.4069C23.4955 36.1249 24.1038 36.2761 24.3857 36.7445C24.6677 37.213 24.5165 37.8213 24.0481 38.1033C23.8393 38.229 23.4936 38.3975 23.0309 38.561C22.0792 38.8974 21.0297 39.0623 19.9216 38.9612C17.5901 38.7485 15.6277 37.5456 14.1447 35.661L14.0393 35.5246L14.0218 35.55C12.5678 37.5693 10.6525 38.816 8.4739 38.8742L8.31402 38.8763C4.86231 38.8763 2.55162 36.8846 1.37411 33.3896C0.440255 30.6179 0.218336 26.9445 0.564525 22.6556C0.863085 18.9564 2.36075 16.507 5.56578 13.3228L6.16066 12.7402L6.14991 12.7341C3.66984 11.1636 2.03057 8.84321 1.96334 6.17906L1.96119 6.00855C1.96119 2.61652 4.14674 0.414025 7.08714 0.414025C10.161 0.414025 12.4398 2.42993 12.4398 5.93057C12.4398 8.19297 11.5927 9.90898 9.71407 11.9754L9.53566 12.169L9.62677 12.2008C10.8577 12.6168 12.2206 12.8602 13.6443 12.8825L13.8583 12.8841C15.1999 12.8841 16.5308 12.6093 17.749 12.1252L17.9153 12.0568L17.8438 11.9975C16.0194 10.4623 14.8683 8.39187 14.8132 6.01616L14.8111 5.83742C14.8111 2.51174 17.0039 0.410156 20.0116 0.410156C22.7924 0.410156 25.1604 2.78302 25.1604 5.5139C25.1604 7.98024 23.9037 10.2103 21.9727 11.8735L21.7793 12.0352L21.8568 12.0663C23.0914 12.5401 24.4838 12.8149 25.9546 12.839L26.1652 12.8407C27.6373 12.8407 28.9794 12.6813 30.1678 12.3754L30.5021 12.2836L30.4679 12.2514C28.4701 10.3315 27.6018 8.63369 27.5575 6.02615L27.5557 5.81271C27.5557 2.56344 29.9482 0.410156 32.8054 0.410156ZM13.9958 21.5568C13.4412 21.5568 13.0099 22.7403 13.009 25.1366C13.008 27.3575 13.3436 29.3999 13.9542 31.1417L13.9931 31.2508L14.0045 31.2184C14.5787 29.5384 14.9201 27.5773 14.9438 25.4639L14.9451 25.2284C14.9451 24.8351 14.9307 24.4688 14.9046 24.1317L14.8746 23.8044C14.8634 23.6987 14.8509 23.5962 14.8374 23.4972L14.7935 23.2105C14.6131 22.1516 14.2982 21.5568 13.9958 21.5568ZM32.8054 2.39016C30.9979 2.39016 29.5357 3.70619 29.5357 5.81271C29.5357 8.07449 30.2652 9.4171 32.2697 11.2243L32.5391 11.4634L32.6777 11.3866C34.797 10.1842 36.024 8.27639 36.08 5.81561L36.082 5.6389C36.082 3.94453 34.4184 2.39016 32.8054 2.39016ZM7.08714 2.39403C5.2437 2.39403 3.94119 3.70664 3.94119 6.00855C3.94119 8.04024 5.29176 9.8977 7.38743 11.1684L7.62106 11.3056L7.73609 11.1891C9.6114 9.25412 10.4095 7.86095 10.4575 6.10197L10.4598 5.93057C10.4598 3.58119 9.1178 2.39403 7.08714 2.39403ZM20.0116 2.39016C18.0791 2.39016 16.7911 3.62453 16.7911 5.83742C16.7911 7.88951 17.939 9.70285 19.7643 10.9699L19.8335 11.017L19.8577 11.001C21.7884 9.66733 23.1128 7.75174 23.1778 5.67404L23.1804 5.5139C23.1804 3.87563 21.6979 2.39016 20.0116 2.39016Z" fill="#284B9B"/>
</svg>
