<svg width="71" height="71" viewBox="-2 -2 76 76" fill="none" xmlns="http://www.w3.org/2000/svg">
<path d="M0 36C0 16.1178 16.1178 0 36 0C55.8823 0 72 16.1178 72 36C72 55.8823 55.8823 72 36 72C16.1178 72 0 55.8823 0 36Z" fill="#C2E8FF"/>
<path d="M27.8163 53.0236C26.1325 53.0236 24.4487 52.9504 23.3506 52.8772C20.4955 52.5844 19.8366 51.7059 19.5437 49.8024C18.5188 43.6529 19.1777 35.1608 19.617 32.1592C19.7634 31.4271 20.7151 30.2558 25.254 26.6686C26.8646 25.3508 34.2586 19.7138 34.6247 19.4942C35.43 18.8353 36.6745 18.8353 37.4798 19.4942C39.8225 21.178 51.3162 29.3773 52.2679 31.6468C52.7072 32.7449 52.9268 35.6 53 40.1389C53 43.7994 52.9268 47.6062 52.7804 49.3632C52.7072 49.8024 52.3411 50.1685 51.8287 50.1685C51.3894 50.1685 51.0234 49.7292 51.0234 49.2168C51.3162 45.4099 51.4626 34.2823 50.6573 32.3056C50.1449 31.0611 43.0437 25.4972 36.4549 20.8119C36.4549 20.8119 36.4549 20.8119 36.3817 20.8119C36.1621 20.6655 35.8692 20.6655 35.6496 20.8119C35.5764 20.8851 27.8895 26.7418 26.3521 27.9863C22.2525 31.2075 21.5204 32.2324 21.374 32.5253C20.8615 35.7464 20.349 43.9458 21.3008 49.5096C21.5204 50.8274 21.6668 50.9738 23.5702 51.1934C25.62 51.413 29.4269 51.413 32.2088 51.1934C33.0141 51.1202 33.7462 50.9738 34.4051 50.7542C32.8677 49.29 31.8428 47.3134 31.6963 44.8975C31.4767 42.3352 32.1356 39.9193 33.3801 38.5283C34.1122 37.7231 35.0639 37.2838 36.0889 37.2838C37.1138 37.2838 37.9923 37.6498 38.7244 38.4551C39.9689 39.7729 40.5546 41.9691 40.4081 44.8975C40.3349 47.3866 39.31 49.4364 37.6994 50.9006C38.3583 51.1202 39.0904 51.2666 39.8957 51.3398C42.824 51.4862 45.4595 51.413 48.0218 50.9738C48.4611 50.9006 48.9003 51.1934 48.9735 51.7059C49.0467 52.1451 48.7539 52.5844 48.2415 52.6576C45.5327 53.0968 42.824 53.2432 39.6761 53.0236C38.2851 52.9504 37.0406 52.5844 35.9424 51.9987C34.9175 52.5112 33.673 52.8772 32.282 52.9504C30.9643 52.9504 29.3537 53.0236 27.8163 53.0236ZM36.0156 38.9676C35.5032 38.9676 34.9907 39.1872 34.6247 39.6997C33.673 40.7246 33.1605 42.7012 33.3801 44.7511C33.5998 47.0205 34.5515 48.7775 36.0889 49.9489C37.6994 48.8507 38.6511 47.0937 38.7244 44.7511C38.7976 42.4084 38.3583 40.505 37.4798 39.5533C37.0406 39.114 36.6013 38.9676 36.0156 38.9676Z" fill="#E52600"/>
<path d="M36 71C16.67 71 1 55.33 1 36H-1C-1 56.4345 15.5655 73 36 73V71ZM71 36C71 55.33 55.33 71 36 71V73C56.4345 73 73 56.4345 73 36H71ZM36 1C55.33 1 71 16.67 71 36H73C73 15.5655 56.4345 -1 36 -1V1ZM36 -1C15.5655 -1 -1 15.5655 -1 36H1C1 16.67 16.67 1 36 1V-1Z" fill="#D9DADA"/>
</svg>
