<svg width="411" height="265" viewBox="0 0 411 265" fill="none" xmlns="http://www.w3.org/2000/svg">
<path d="M108.444 227.03C143.731 232.449 179.443 216.332 194.344 194.031C209.244 171.729 211.199 137.633 206.492 126.954C201.784 116.276 219.125 77.2455 206.997 42.8563C200.275 23.78 168.718 0.0625 111.476 0.0625C54.2335 0.0625 28.4948 22.7692 12.404 40.1367C0.934231 52.5373 9.20573 122.772 3.04864 125.392C-5.96756 129.222 6.8719 175.739 17.4573 191.112C33.6811 214.669 73.1437 221.604 108.431 227.017" fill="#E6F4F9"/>
<mask id="mask0_4708_164267" style="mask-type:alpha" maskUnits="userSpaceOnUse" x="0" y="0" width="212" height="229">
<path d="M108.573 227.001C143.86 232.42 179.572 216.302 194.473 194.001C209.373 171.7 211.328 137.604 206.621 126.925C201.913 116.247 219.254 77.2162 207.126 42.827C200.404 23.7507 168.847 0.0332031 111.605 0.0332031C54.3624 0.0332031 28.6237 22.74 12.5329 40.1074C1.06314 52.5081 9.33463 122.743 3.17755 125.362C-5.83865 129.192 7.0008 175.71 17.5862 191.082C33.81 214.64 73.2726 221.575 108.559 226.988" fill="#E6F4F9"/>
</mask>
<g mask="url(#mask0_4708_164267)">
<path d="M1.34268 53.6116C1.12102 53.6098 0.908936 53.5209 0.752195 53.3642C0.595455 53.2074 0.506621 52.9954 0.504883 52.7738L0.877232 51.8827C0.876346 51.7725 0.897413 51.6632 0.939202 51.5612C0.980991 51.4591 1.04268 51.3664 1.12065 51.2884C1.19862 51.2105 1.29132 51.1487 1.39337 51.107C1.49541 51.0652 1.60476 51.0441 1.71503 51.0449C1.82473 51.0449 1.93336 51.0667 2.03464 51.1089C2.13591 51.1511 2.22784 51.2128 2.3051 51.2907C2.38237 51.3686 2.44345 51.461 2.48482 51.5626C2.5262 51.6642 2.54704 51.773 2.54617 51.8827L2.18047 52.7738C2.18047 52.996 2.0922 53.209 1.93509 53.3661C1.77797 53.5233 1.56487 53.6116 1.34268 53.6116Z" fill="white"/>
<path d="M14.1024 53.6116C13.8808 53.6098 13.6687 53.5209 13.512 53.3642C13.3552 53.2074 13.2664 52.9954 13.2646 52.7738L13.637 51.8827C13.6361 51.773 13.657 51.6642 13.6984 51.5626C13.7397 51.461 13.8008 51.3686 13.8781 51.2907C13.9553 51.2128 14.0473 51.1511 14.1485 51.1089C14.2498 51.0667 14.3584 51.0449 14.4681 51.0449C14.5784 51.0441 14.6878 51.0652 14.7898 51.107C14.8918 51.1487 14.9845 51.2105 15.0625 51.2884C15.1405 51.3664 15.2022 51.4591 15.244 51.5612C15.2857 51.6632 15.3068 51.7725 15.3059 51.8827L14.9402 52.7738C14.9402 52.996 14.852 53.209 14.6949 53.3661C14.5377 53.5233 14.3246 53.6116 14.1024 53.6116Z" fill="white"/>
<path d="M20.4854 53.6116C20.2644 53.6098 20.053 53.5208 19.8973 53.3639C19.7416 53.2069 19.6543 52.9948 19.6543 52.7738L20.02 51.8827C20.0191 51.7725 20.0402 51.6632 20.082 51.5612C20.1238 51.4591 20.1854 51.3664 20.2634 51.2884C20.3414 51.2105 20.4341 51.1487 20.5361 51.107C20.6382 51.0652 20.7475 51.0441 20.8578 51.0449C21.08 51.0449 21.2931 51.1333 21.4502 51.2904C21.6073 51.4475 21.6956 51.6605 21.6956 51.8827L21.3232 52.7738C21.3232 52.996 21.235 53.209 21.0778 53.3661C20.9207 53.5233 20.7076 53.6116 20.4854 53.6116Z" fill="white"/>
<path d="M33.2587 53.6116C33.037 53.6098 32.825 53.5209 32.6682 53.3642C32.5115 53.2074 32.4226 52.9954 32.4209 52.7738L32.7932 51.8827C32.7924 51.773 32.8132 51.6642 32.8546 51.5626C32.896 51.461 32.957 51.3686 33.0343 51.2907C33.1116 51.2128 33.2035 51.1511 33.3048 51.1089C33.4061 51.0667 33.5147 51.0449 33.6244 51.0449C33.7347 51.0441 33.844 51.0652 33.9461 51.107C34.0481 51.1487 34.1408 51.2105 34.2188 51.2884C34.2967 51.3664 34.3584 51.4591 34.4002 51.5612C34.442 51.6632 34.4631 51.7725 34.4622 51.8827L34.0965 52.7738C34.0965 52.996 34.0082 53.209 33.8511 53.3661C33.694 53.5233 33.4809 53.6116 33.2587 53.6116Z" fill="white"/>
<path d="M39.6415 53.6116C39.4193 53.6116 39.2062 53.5233 39.0491 53.3661C38.892 53.209 38.8037 52.996 38.8037 52.7738L39.1694 51.8827C39.1685 51.7725 39.1896 51.6632 39.2314 51.5612C39.2732 51.4591 39.3348 51.3664 39.4128 51.2884C39.4908 51.2105 39.5835 51.1487 39.6855 51.107C39.7876 51.0652 39.8969 51.0441 40.0072 51.0449C40.2294 51.0449 40.4425 51.1333 40.5996 51.2904C40.7567 51.4475 40.845 51.6605 40.845 51.8827L40.4726 52.7738C40.4726 52.9948 40.3853 53.2069 40.2296 53.3639C40.0739 53.5208 39.8625 53.6098 39.6415 53.6116Z" fill="white"/>
<path d="M52.4081 53.6116C52.1864 53.6098 51.9744 53.5209 51.8176 53.3642C51.6609 53.2074 51.5721 52.9954 51.5703 52.7738L51.9427 51.8827C51.9418 51.7725 51.9628 51.6632 52.0046 51.5612C52.0464 51.4591 52.1081 51.3664 52.1861 51.2884C52.264 51.2105 52.3567 51.1487 52.4588 51.107C52.5608 51.0652 52.6702 51.0441 52.7805 51.0449C53.0026 51.0449 53.2158 51.1333 53.3729 51.2904C53.53 51.4475 53.6182 51.6605 53.6182 51.8827L53.2459 52.7738C53.2459 52.996 53.1576 53.209 53.0005 53.3661C52.8434 53.5233 52.6303 53.6116 52.4081 53.6116Z" fill="white"/>
<path d="M58.7977 53.6116C58.5755 53.6116 58.3624 53.5233 58.2053 53.3661C58.0482 53.209 57.96 52.996 57.96 52.7738L58.3257 51.8827C58.3257 51.6605 58.4139 51.4475 58.571 51.2904C58.7281 51.1333 58.9413 51.0449 59.1634 51.0449C59.2737 51.0441 59.383 51.0652 59.4851 51.107C59.5871 51.1487 59.6798 51.2105 59.7578 51.2884C59.8358 51.3664 59.8975 51.4591 59.9393 51.5612C59.9811 51.6632 60.0021 51.7725 60.0012 51.8827L59.6355 52.7738C59.6338 52.9954 59.5449 53.2074 59.3882 53.3642C59.2315 53.5209 59.0194 53.6098 58.7977 53.6116Z" fill="white"/>
<path d="M14.1024 65.5335C13.8808 65.5317 13.6687 65.4428 13.512 65.2861C13.3552 65.1293 13.2664 64.9173 13.2646 64.6957L13.637 63.8046C13.6361 63.6949 13.657 63.5861 13.6984 63.4845C13.7397 63.3829 13.8008 63.2905 13.8781 63.2126C13.9553 63.1347 14.0473 63.073 14.1485 63.0308C14.2498 62.9886 14.3584 62.9668 14.4681 62.9668C14.5784 62.9659 14.6878 62.987 14.7898 63.0288C14.8918 63.0706 14.9845 63.1323 15.0625 63.2103C15.1405 63.2883 15.2022 63.381 15.244 63.483C15.2857 63.5851 15.3068 63.6944 15.3059 63.8046L14.9402 64.6957C14.9402 64.9179 14.852 65.1309 14.6949 65.288C14.5377 65.4451 14.3246 65.5335 14.1024 65.5335Z" fill="white"/>
<path d="M26.8759 65.5335C26.6537 65.5335 26.4406 65.4451 26.2835 65.288C26.1263 65.1309 26.0381 64.9179 26.0381 64.6957L26.4038 63.8046C26.4038 63.5824 26.492 63.3694 26.6492 63.2123C26.8063 63.0552 27.0194 62.9668 27.2416 62.9668C27.3518 62.9659 27.4612 62.987 27.5632 63.0288C27.6653 63.0706 27.758 63.1323 27.836 63.2103C27.9139 63.2883 27.9756 63.381 28.0174 63.483C28.0592 63.5851 28.0803 63.6944 28.0794 63.8046L27.7136 64.6957C27.7119 64.9173 27.6231 65.1293 27.4664 65.2861C27.3096 65.4428 27.0975 65.5317 26.8759 65.5335Z" fill="white"/>
<path d="M20.4854 65.5335C20.2644 65.5317 20.053 65.4427 19.8973 65.2857C19.7416 65.1288 19.6543 64.9167 19.6543 64.6957L20.02 63.8046C20.0191 63.6944 20.0402 63.5851 20.082 63.483C20.1238 63.381 20.1854 63.2883 20.2634 63.2103C20.3414 63.1323 20.4341 63.0706 20.5361 63.0288C20.6382 62.987 20.7475 62.9659 20.8578 62.9668C21.08 62.9668 21.2931 63.0552 21.4502 63.2123C21.6073 63.3694 21.6956 63.5824 21.6956 63.8046L21.3232 64.6957C21.3232 64.9179 21.235 65.1309 21.0778 65.288C20.9207 65.4451 20.7076 65.5335 20.4854 65.5335Z" fill="white"/>
<path d="M33.2587 65.5335C33.037 65.5317 32.825 65.4428 32.6682 65.2861C32.5115 65.1293 32.4226 64.9173 32.4209 64.6957L32.7932 63.8046C32.7924 63.6949 32.8132 63.5861 32.8546 63.4845C32.896 63.3829 32.957 63.2905 33.0343 63.2126C33.1116 63.1347 33.2035 63.073 33.3048 63.0308C33.4061 62.9886 33.5147 62.9668 33.6244 62.9668C33.7347 62.9659 33.844 62.987 33.9461 63.0288C34.0481 63.0706 34.1408 63.1323 34.2188 63.2103C34.2967 63.2883 34.3584 63.381 34.4002 63.483C34.442 63.5851 34.4631 63.6944 34.4622 63.8046L34.0965 64.6957C34.0965 64.9179 34.0082 65.1309 33.8511 65.288C33.694 65.4451 33.4809 65.5335 33.2587 65.5335Z" fill="white"/>
<path d="M39.6415 65.5335C39.4193 65.5335 39.2062 65.4451 39.0491 65.288C38.892 65.1309 38.8037 64.9179 38.8037 64.6957L39.1694 63.8046C39.1685 63.6944 39.1896 63.5851 39.2314 63.483C39.2732 63.381 39.3348 63.2883 39.4128 63.2103C39.4908 63.1323 39.5835 63.0706 39.6855 63.0288C39.7876 62.987 39.8969 62.9659 40.0072 62.9668C40.2294 62.9668 40.4425 63.0552 40.5996 63.2123C40.7567 63.3694 40.845 63.5824 40.845 63.8046L40.4726 64.6957C40.4726 64.9167 40.3853 65.1288 40.2296 65.2857C40.0739 65.4427 39.8625 65.5317 39.6415 65.5335Z" fill="white"/>
<path d="M58.7977 65.5335C58.5755 65.5335 58.3624 65.4451 58.2053 65.288C58.0482 65.1309 57.96 64.9179 57.96 64.6957L58.3257 63.8046C58.3257 63.5824 58.4139 63.3694 58.571 63.2123C58.7281 63.0552 58.9413 62.9668 59.1634 62.9668C59.2737 62.9659 59.383 62.987 59.4851 63.0288C59.5871 63.0706 59.6798 63.1323 59.7578 63.2103C59.8358 63.2883 59.8975 63.381 59.9393 63.483C59.9811 63.5851 60.0021 63.6944 60.0012 63.8046L59.6355 64.6957C59.6338 64.9173 59.5449 65.1293 59.3882 65.2861C59.2315 65.4428 59.0194 65.5317 58.7977 65.5335Z" fill="white"/>
<path d="M1.34268 77.4551C1.12048 77.4551 0.907384 77.367 0.750268 77.2098C0.593152 77.0527 0.504883 76.8395 0.504883 76.6173L0.877232 75.7265C0.877232 75.5043 0.965501 75.2911 1.12262 75.134C1.27973 74.9768 1.49283 74.8887 1.71503 74.8887C1.93607 74.8904 2.14746 74.9795 2.30314 75.1364C2.45882 75.2933 2.54618 75.5054 2.54617 75.7265L2.18047 76.6173C2.18136 76.7276 2.16029 76.837 2.1185 76.9391C2.07672 77.0411 2.01503 77.1338 1.93706 77.2118C1.85908 77.2898 1.76639 77.3513 1.66434 77.3931C1.56229 77.4349 1.45295 77.456 1.34268 77.4551Z" fill="white"/>
<path d="M7.71868 77.4551C7.60841 77.456 7.49909 77.4349 7.39704 77.3931C7.295 77.3513 7.20228 77.2898 7.1243 77.2118C7.04633 77.1338 6.98465 77.0411 6.94286 76.9391C6.90107 76.837 6.88 76.7276 6.88089 76.6173L7.2466 75.7265C7.2466 75.5043 7.33487 75.2911 7.49198 75.134C7.6491 74.9768 7.8622 74.8887 8.08439 74.8887C8.30605 74.8904 8.51814 74.9792 8.67488 75.1359C8.83162 75.2926 8.92043 75.5048 8.92217 75.7265L8.55648 76.6173C8.55648 76.8395 8.46821 77.0527 8.31109 77.2098C8.15398 77.367 7.94088 77.4551 7.71868 77.4551Z" fill="white"/>
<path d="M20.4855 77.4551C20.3758 77.4551 20.2671 77.4335 20.1659 77.3913C20.0646 77.3491 19.9727 77.2872 19.8954 77.2094C19.8181 77.1315 19.757 77.0391 19.7157 76.9375C19.6743 76.8358 19.6534 76.727 19.6543 76.6173L20.02 75.7265C20.02 75.5043 20.1083 75.2911 20.2654 75.134C20.4225 74.9768 20.6356 74.8887 20.8578 74.8887C21.0795 74.8904 21.2916 74.9792 21.4483 75.1359C21.605 75.2926 21.6938 75.5048 21.6956 75.7265L21.3232 76.6173C21.3241 76.7276 21.3031 76.837 21.2613 76.9391C21.2195 77.0411 21.1578 77.1338 21.0798 77.2118C21.0019 77.2898 20.9091 77.3513 20.8071 77.3931C20.7051 77.4349 20.5957 77.456 20.4855 77.4551Z" fill="white"/>
<path d="M33.6175 74.8887C33.8397 74.8887 34.0529 74.9768 34.21 75.134C34.3671 75.2911 34.4553 75.5043 34.4553 75.7265L34.0896 76.6173C34.0905 76.7276 34.0695 76.837 34.0277 76.9391C33.9859 77.0411 33.9242 77.1338 33.8462 77.2118C33.7683 77.2898 33.6756 77.3513 33.5735 77.3931C33.4715 77.4349 33.3621 77.456 33.2519 77.4551C33.1418 77.4551 33.0329 77.4334 32.9313 77.3913C32.8296 77.3492 32.7373 77.2876 32.6595 77.2098C32.5817 77.132 32.52 77.0396 32.4779 76.9379C32.4358 76.8363 32.4141 76.7274 32.4141 76.6173" fill="white"/>
<path d="M39.6415 77.4551C39.5312 77.456 39.4219 77.4349 39.3199 77.3931C39.2178 77.3513 39.1251 77.2898 39.0471 77.2118C38.9691 77.1338 38.9075 77.0411 38.8657 76.9391C38.8239 76.837 38.8029 76.7276 38.8037 76.6173L39.1694 75.7265C39.1694 75.5043 39.2577 75.2911 39.4148 75.134C39.5719 74.9768 39.785 74.8887 40.0072 74.8887C40.2289 74.8904 40.441 74.9792 40.5977 75.1359C40.7544 75.2926 40.8432 75.5048 40.845 75.7265L40.4726 76.6173C40.4735 76.727 40.4527 76.8358 40.4113 76.9375C40.3699 77.0391 40.3088 77.1315 40.2316 77.2094C40.1543 77.2872 40.0624 77.3491 39.9611 77.3913C39.8598 77.4335 39.7512 77.4551 39.6415 77.4551Z" fill="white"/>
<path d="M52.4081 77.4551C52.1859 77.4551 51.9728 77.367 51.8157 77.2098C51.6586 77.0527 51.5703 76.8395 51.5703 76.6173L51.9427 75.7265C51.9427 75.5043 52.0309 75.2911 52.1881 75.134C52.3452 74.9768 52.5583 74.8887 52.7805 74.8887C53.0021 74.8904 53.2142 74.9792 53.3709 75.1359C53.5277 75.2926 53.6165 75.5048 53.6182 75.7265L53.2459 76.6173C53.2468 76.7276 53.2257 76.837 53.1839 76.9391C53.1421 77.0411 53.0805 77.1338 53.0025 77.2118C52.9245 77.2898 52.8318 77.3513 52.7298 77.3931C52.6277 77.4349 52.5184 77.456 52.4081 77.4551Z" fill="white"/>
<path d="M1.34268 101.298C1.12163 101.298 0.909528 101.211 0.752602 101.055C0.595675 100.9 0.506637 100.688 0.504883 100.467L0.877232 99.5694C0.877229 99.4597 0.898946 99.3511 0.94113 99.2498C0.983314 99.1485 1.04514 99.0566 1.12302 98.9794C1.20091 98.9021 1.29332 98.841 1.39493 98.7997C1.49654 98.7583 1.60532 98.7374 1.71503 98.7383C1.93546 98.7383 2.14686 98.8259 2.30273 98.9818C2.4586 99.1377 2.54617 99.349 2.54617 99.5694L2.18047 100.467C2.18048 100.577 2.15876 100.685 2.11658 100.787C2.07439 100.888 2.01257 100.98 1.93468 101.057C1.8568 101.134 1.76438 101.196 1.66278 101.237C1.56117 101.278 1.45238 101.299 1.34268 101.298Z" fill="white"/>
<path d="M14.1024 101.298C13.8814 101.298 13.6693 101.211 13.5124 101.055C13.3554 100.9 13.2664 100.688 13.2646 100.467L13.637 99.5694C13.637 99.349 13.7246 99.1377 13.8804 98.9818C14.0363 98.8259 14.2477 98.7383 14.4681 98.7383C14.5778 98.7374 14.6866 98.7583 14.7883 98.7997C14.8899 98.841 14.9823 98.9021 15.0601 98.9794C15.138 99.0566 15.1998 99.1485 15.242 99.2498C15.2842 99.3511 15.3059 99.4597 15.3059 99.5694L14.9402 100.467C14.9402 100.577 14.9185 100.685 14.8763 100.787C14.8342 100.888 14.7723 100.98 14.6944 101.057C14.6166 101.134 14.5241 101.196 14.4225 101.237C14.3209 101.278 14.2121 101.299 14.1024 101.298Z" fill="white"/>
<path d="M26.8759 101.298C26.7662 101.299 26.6574 101.278 26.5558 101.237C26.4542 101.196 26.3617 101.134 26.2839 101.057C26.206 100.98 26.1441 100.888 26.102 100.787C26.0598 100.685 26.0381 100.577 26.0381 100.467L26.4038 99.5694C26.4055 99.3484 26.4946 99.137 26.6515 98.9813C26.8084 98.8256 27.0205 98.7383 27.2416 98.7383C27.3513 98.7374 27.46 98.7583 27.5617 98.7997C27.6633 98.841 27.7557 98.9021 27.8336 98.9794C27.9114 99.0566 27.9733 99.1485 28.0154 99.2498C28.0576 99.3511 28.0794 99.4597 28.0794 99.5694" fill="white"/>
<path d="M20.4854 101.298C20.265 101.298 20.0536 101.211 19.8977 101.055C19.7419 100.899 19.6543 100.688 19.6543 100.467L20.02 99.5694C20.02 99.4597 20.0417 99.3511 20.0839 99.2498C20.1261 99.1485 20.1879 99.0566 20.2658 98.9794C20.3437 98.9021 20.4361 98.841 20.5377 98.7997C20.6393 98.7583 20.7481 98.7374 20.8578 98.7383C21.0788 98.7383 21.2909 98.8256 21.4478 98.9813C21.6048 99.137 21.6938 99.3484 21.6956 99.5694L21.3232 100.467C21.3232 100.577 21.3015 100.685 21.2593 100.787C21.2171 100.888 21.1553 100.98 21.0774 101.057C20.9996 101.134 20.9071 101.196 20.8055 101.237C20.7039 101.278 20.5951 101.299 20.4854 101.298Z" fill="white"/>
<path d="M39.6415 101.298C39.5318 101.299 39.423 101.278 39.3214 101.237C39.2198 101.196 39.1274 101.134 39.0495 101.057C38.9716 100.98 38.9098 100.888 38.8676 100.787C38.8254 100.685 38.8037 100.577 38.8037 100.467L39.1694 99.5694C39.1694 99.4597 39.1911 99.3511 39.2333 99.2498C39.2755 99.1485 39.3373 99.0566 39.4152 98.9794C39.4931 98.9021 39.5855 98.841 39.6871 98.7997C39.7887 98.7583 39.8975 98.7374 40.0072 98.7383C40.2282 98.7383 40.4403 98.8256 40.5972 98.9813C40.7542 99.137 40.8432 99.3484 40.845 99.5694" fill="white"/>
<path d="M58.7977 101.298C58.688 101.299 58.5792 101.278 58.4776 101.237C58.376 101.196 58.2836 101.134 58.2057 101.057C58.1278 100.98 58.066 100.888 58.0238 100.787C57.9817 100.685 57.96 100.577 57.96 100.467L58.3257 99.5694C58.3274 99.3484 58.4164 99.137 58.5734 98.9813C58.7303 98.8256 58.9424 98.7383 59.1635 98.7383C59.2732 98.7374 59.3819 98.7583 59.4835 98.7997C59.5851 98.841 59.6776 98.9021 59.7554 98.9794C59.8333 99.0566 59.8951 99.1485 59.9373 99.2498C59.9795 99.3511 60.0012 99.4597 60.0012 99.5694L59.6355 100.467C59.6338 100.688 59.5447 100.9 59.3878 101.055C59.2309 101.211 59.0188 101.298 58.7977 101.298Z" fill="white"/>
<path d="M7.71868 89.377C7.60841 89.3779 7.49909 89.3569 7.39704 89.3152C7.295 89.2734 7.20228 89.2116 7.1243 89.1337C7.04633 89.0557 6.98465 88.963 6.94286 88.861C6.90107 88.7589 6.88 88.6496 6.88089 88.5394L7.2466 87.6483C7.2466 87.4261 7.33487 87.2131 7.49198 87.056C7.6491 86.8989 7.8622 86.8105 8.08439 86.8105C8.30605 86.8123 8.51814 86.901 8.67488 87.0578C8.83162 87.2145 8.92043 87.4267 8.92217 87.6483L8.55648 88.5394C8.55648 88.7616 8.46821 88.9746 8.31109 89.1317C8.15398 89.2888 7.94088 89.377 7.71868 89.377Z" fill="white"/>
<path d="M26.8759 89.377C26.7656 89.3779 26.6563 89.3569 26.5542 89.3152C26.4522 89.2734 26.3595 89.2116 26.2815 89.1337C26.2035 89.0557 26.1419 88.963 26.1001 88.861C26.0583 88.7589 26.0372 88.6496 26.0381 88.5394L26.4038 87.6483C26.4055 87.4267 26.4944 87.2145 26.6511 87.0578C26.8078 86.901 27.0199 86.8123 27.2416 86.8105C27.4638 86.8105 27.6769 86.8989 27.834 87.056C27.9911 87.2131 28.0794 87.4261 28.0794 87.6483L27.7137 88.5394C27.7137 88.6494 27.692 88.7583 27.6499 88.86C27.6078 88.9616 27.5461 89.0539 27.4683 89.1317C27.3905 89.2095 27.2981 89.2713 27.1965 89.3134C27.0948 89.3555 26.9859 89.377 26.8759 89.377Z" fill="white"/>
<path d="M20.4855 89.377C20.3758 89.377 20.2671 89.3554 20.1659 89.3132C20.0646 89.271 19.9727 89.2091 19.8954 89.1312C19.8181 89.0534 19.757 88.9609 19.7157 88.8593C19.6743 88.7577 19.6534 88.6491 19.6543 88.5394L20.02 87.6483C20.02 87.4261 20.1083 87.2131 20.2654 87.056C20.4225 86.8989 20.6356 86.8105 20.8578 86.8105C21.0795 86.8123 21.2916 86.901 21.4483 87.0578C21.605 87.2145 21.6938 87.4267 21.6956 87.6483L21.3232 88.5394C21.3241 88.6496 21.3031 88.7589 21.2613 88.861C21.2195 88.963 21.1578 89.0557 21.0798 89.1337C21.0019 89.2116 20.9091 89.2734 20.8071 89.3152C20.7051 89.3569 20.5957 89.3779 20.4855 89.377Z" fill="white"/>
<path d="M33.2587 89.377C33.0365 89.377 32.8234 89.2888 32.6663 89.1317C32.5092 88.9746 32.4209 88.7616 32.4209 88.5394L32.7932 87.6483C32.7932 87.4273 32.8806 87.2152 33.0363 87.0583C33.192 86.9013 33.4033 86.8123 33.6244 86.8105C33.8466 86.8105 34.0597 86.8989 34.2168 87.056C34.3739 87.2131 34.4622 87.4261 34.4622 87.6483L34.0965 88.5394C34.0974 88.6496 34.0763 88.7589 34.0345 88.861C33.9927 88.963 33.931 89.0557 33.8531 89.1337C33.7751 89.2116 33.6824 89.2734 33.5804 89.3152C33.4783 89.3569 33.369 89.3779 33.2587 89.377Z" fill="white"/>
<path d="M39.6415 89.377C39.5312 89.3779 39.4219 89.3569 39.3199 89.3152C39.2178 89.2734 39.1251 89.2116 39.0471 89.1337C38.9691 89.0557 38.9075 88.963 38.8657 88.861C38.8239 88.7589 38.8029 88.6496 38.8037 88.5394L39.1694 87.6483C39.1694 87.4261 39.2577 87.2131 39.4148 87.056C39.5719 86.8989 39.785 86.8105 40.0072 86.8105C40.2289 86.8123 40.441 86.901 40.5977 87.0578C40.7544 87.2145 40.8432 87.4267 40.845 87.6483L40.4726 88.5394C40.4735 88.6491 40.4527 88.7577 40.4113 88.8593C40.3699 88.9609 40.3088 89.0534 40.2316 89.1312C40.1543 89.2091 40.0624 89.271 39.9611 89.3132C39.8598 89.3554 39.7512 89.377 39.6415 89.377Z" fill="white"/>
<path d="M52.4081 89.377C52.1859 89.377 51.9728 89.2888 51.8157 89.1317C51.6586 88.9746 51.5703 88.7616 51.5703 88.5394L51.9427 87.6483C51.9427 87.4261 52.0309 87.2131 52.1881 87.056C52.3452 86.8989 52.5583 86.8105 52.7805 86.8105C53.0021 86.8123 53.2142 86.901 53.3709 87.0578C53.5277 87.2145 53.6165 87.4267 53.6182 87.6483L53.2459 88.5394C53.2468 88.6496 53.2257 88.7589 53.1839 88.861C53.1421 88.963 53.0805 89.0557 53.0025 89.1337C52.9245 89.2116 52.8318 89.2734 52.7298 89.3152C52.6277 89.3569 52.5184 89.3779 52.4081 89.377Z" fill="white"/>
<path d="M50.9385 46.7356H63.2792C65.9976 46.7242 68.6256 45.7587 70.7047 44.0076C72.7839 42.2565 74.1823 39.8311 74.6559 37.1543" stroke="white" stroke-width="2" stroke-linecap="round" stroke-linejoin="round"/>
<path d="M45.3131 7.02724C44.501 6.79435 43.6575 6.68894 42.813 6.71475C39.1245 6.70628 35.5708 8.10116 32.8728 10.6164C30.1748 13.1316 28.5346 16.5788 28.2847 20.2589C28.2772 20.369 28.2479 20.4767 28.1986 20.5755C28.1493 20.6742 28.081 20.7623 27.9976 20.8345C27.9142 20.9068 27.8173 20.9618 27.7126 20.9966C27.6078 21.0313 27.4972 21.0451 27.3871 21.037C27.2466 21.0292 27.111 20.9831 26.9948 20.9039C24.7168 19.443 21.952 18.946 19.3078 19.5219C16.6636 20.0979 14.3561 21.6998 12.892 23.9758C11.8325 25.626 11.2715 27.5469 11.2763 29.5079V29.8669C11.2817 29.9769 11.2653 30.087 11.228 30.1907C11.1908 30.2944 11.1335 30.3897 11.0594 30.4712C10.9853 30.5527 10.8958 30.619 10.7961 30.6659C10.6964 30.7128 10.5884 30.7395 10.4784 30.7446C10.3838 30.7453 10.2897 30.7319 10.1991 30.7047C9.40998 30.4661 8.58998 30.3452 7.76555 30.3457C5.58999 30.3475 3.50403 31.2125 1.96568 32.7508C0.427321 34.2892 -0.437692 36.3751 -0.439453 38.5506C-0.434171 40.7233 0.432605 42.8051 1.97077 44.3396C3.50894 45.874 5.5929 46.7357 7.76555 46.7357H45.3131" stroke="white" stroke-width="2" stroke-linecap="round" stroke-linejoin="round"/>
<path d="M53.4917 11.4355C52.8436 10.6309 52.0899 9.91745 51.251 9.31445" stroke="white" stroke-width="2" stroke-linecap="round" stroke-linejoin="round"/>
<path d="M92.3221 23.9173C91.6464 23.9086 90.9734 24.0051 90.3273 24.2033C90.2525 24.2162 90.1761 24.2162 90.1013 24.2033C90.0105 24.2035 89.9206 24.185 89.8373 24.1491C89.7539 24.1132 89.6787 24.0606 89.6164 23.9945C89.5541 23.9285 89.506 23.8505 89.475 23.7652C89.444 23.6798 89.4309 23.5891 89.4363 23.4985V23.2059C89.4319 21.6176 88.9702 20.0639 88.1065 18.7309C87.5214 17.8203 86.7625 17.0339 85.8733 16.4167C84.9841 15.7995 83.9819 15.3637 82.9241 15.134C81.8663 14.9043 80.7737 14.8852 79.7086 15.078C78.6434 15.2708 77.6267 15.6716 76.7166 16.2575C76.6195 16.3164 76.5104 16.3529 76.3974 16.364C76.308 16.3722 76.2178 16.3621 76.1323 16.3344C76.0468 16.3068 75.9677 16.2621 75.9 16.2031C75.8323 16.1441 75.7772 16.0718 75.7381 15.9909C75.699 15.91 75.6768 15.8221 75.6727 15.7323C75.4597 12.7817 74.1396 10.0204 71.9768 8.00193C69.8141 5.98344 66.9685 4.85675 64.0101 4.84766C61.8138 4.85397 59.6635 5.47686 57.8038 6.64532C55.9441 7.81378 54.4499 9.48084 53.4912 11.4568C55.9587 14.1411 57.3218 17.6581 57.3078 21.3042C57.3039 22.134 57.226 22.9617 57.0751 23.7777C57.0433 23.9489 57.0666 24.1258 57.1416 24.283C57.188 24.3824 57.2536 24.4716 57.3346 24.5455C57.4156 24.6194 57.5105 24.6766 57.6137 24.7137C57.7169 24.7508 57.8265 24.767 57.936 24.7616C58.0456 24.7561 58.153 24.7292 58.252 24.682C59.7947 23.9524 61.4791 23.5709 63.1856 23.5649C64.7102 23.5587 66.2211 23.853 67.6319 24.4307C69.0428 25.0085 70.326 25.8586 71.4084 26.9323C72.4907 28.006 73.351 29.2825 73.94 30.6886C74.5291 32.0948 74.8354 33.6032 74.8415 35.1278C74.8404 35.8212 74.7782 36.5131 74.6554 37.1955H92.3221C94.0855 37.1955 95.7767 36.495 97.0237 35.2481C98.2706 34.0011 98.9712 32.3099 98.9712 30.5464C98.9659 28.7864 98.2631 27.1004 97.0167 25.8578C95.7703 24.6152 94.0821 23.9173 92.3221 23.9173V23.9173Z" stroke="white" stroke-width="2" stroke-linecap="round" stroke-linejoin="round"/>
<path d="M74.6562 37.1744C74.7789 36.4919 74.8412 35.7999 74.8423 35.1065C74.8362 33.5813 74.5297 32.0723 73.9402 30.6657C73.3507 29.2591 72.4899 27.9825 71.4068 26.9087C70.3237 25.8349 69.0397 24.985 67.6281 24.4077C66.2164 23.8303 64.7049 23.5367 63.1798 23.5437C61.4732 23.5498 59.7889 23.9311 58.2461 24.6607C58.1471 24.7079 58.0397 24.735 57.9302 24.7404C57.8206 24.7459 57.7111 24.7295 57.6079 24.6924C57.5046 24.6553 57.4098 24.5981 57.3288 24.5242C57.2477 24.4503 57.1821 24.3611 57.1357 24.2617C57.0607 24.1045 57.0375 23.9276 57.0692 23.7564C57.2201 22.9404 57.298 22.1127 57.3019 21.2829C57.316 17.6368 55.9529 14.1198 53.4854 11.4355" stroke="white" stroke-width="2" stroke-linecap="round" stroke-linejoin="round"/>
<path d="M1.34268 113.227C1.12102 113.225 0.908936 113.136 0.752195 112.98C0.595455 112.823 0.506621 112.611 0.504883 112.389L0.877232 111.498C0.876346 111.388 0.897413 111.278 0.939202 111.176C0.980991 111.074 1.04268 110.982 1.12065 110.904C1.19862 110.826 1.29132 110.764 1.39337 110.722C1.49541 110.68 1.60476 110.659 1.71503 110.66C1.82473 110.66 1.93336 110.682 2.03464 110.724C2.13591 110.766 2.22784 110.828 2.3051 110.906C2.38237 110.984 2.44345 111.076 2.48482 111.178C2.5262 111.279 2.54704 111.388 2.54617 111.498L2.18047 112.389C2.18047 112.611 2.0922 112.824 1.93509 112.981C1.77797 113.138 1.56487 113.227 1.34268 113.227Z" fill="white"/>
<path d="M7.71963 113.227C7.49744 113.227 7.28434 113.138 7.12722 112.981C6.97011 112.824 6.88184 112.611 6.88184 112.389L7.24755 111.498C7.24666 111.388 7.26773 111.278 7.30952 111.176C7.35131 111.074 7.41297 110.982 7.49095 110.904C7.56892 110.826 7.66164 110.764 7.76368 110.722C7.86573 110.68 7.97508 110.659 8.08535 110.66C8.30754 110.66 8.52062 110.749 8.67774 110.906C8.83485 111.063 8.92312 111.276 8.92312 111.498L8.55743 112.389C8.55569 112.611 8.46685 112.823 8.31011 112.98C8.15337 113.136 7.94129 113.225 7.71963 113.227Z" fill="white"/>
<path d="M14.1024 113.227C13.8808 113.225 13.6687 113.136 13.512 112.98C13.3552 112.823 13.2664 112.611 13.2646 112.389L13.637 111.498C13.6361 111.388 13.657 111.279 13.6984 111.178C13.7397 111.076 13.8008 110.984 13.8781 110.906C13.9553 110.828 14.0473 110.766 14.1485 110.724C14.2498 110.682 14.3584 110.66 14.4681 110.66C14.5784 110.659 14.6878 110.68 14.7898 110.722C14.8918 110.764 14.9845 110.826 15.0625 110.904C15.1405 110.982 15.2022 111.074 15.244 111.176C15.2857 111.278 15.3068 111.388 15.3059 111.498L14.9402 112.389C14.9402 112.611 14.852 112.824 14.6949 112.981C14.5377 113.138 14.3246 113.227 14.1024 113.227Z" fill="white"/>
<path d="M20.4854 113.227C20.2644 113.225 20.053 113.136 19.8973 112.979C19.7416 112.822 19.6543 112.61 19.6543 112.389L20.02 111.498C20.0191 111.388 20.0402 111.278 20.082 111.176C20.1238 111.074 20.1854 110.982 20.2634 110.904C20.3414 110.826 20.4341 110.764 20.5361 110.722C20.6382 110.68 20.7475 110.659 20.8578 110.66C21.08 110.66 21.2931 110.749 21.4502 110.906C21.6073 111.063 21.6956 111.276 21.6956 111.498L21.3232 112.389C21.3232 112.611 21.235 112.824 21.0778 112.981C20.9207 113.138 20.7076 113.227 20.4854 113.227Z" fill="white"/>
<path d="M32.4141 112.389L32.7864 111.498C32.7855 111.388 32.8064 111.279 32.8478 111.178C32.8891 111.076 32.9502 110.984 33.0275 110.906C33.1048 110.828 33.1967 110.766 33.298 110.724C33.3992 110.682 33.5078 110.66 33.6175 110.66C33.7278 110.659 33.8372 110.68 33.9392 110.722C34.0413 110.764 34.134 110.826 34.2119 110.904C34.2899 110.982 34.3516 111.074 34.3934 111.176C34.4352 111.278 34.4562 111.388 34.4553 111.498L34.0896 112.389" fill="white"/>
<path d="M39.6415 113.227C39.4193 113.227 39.2062 113.138 39.0491 112.981C38.892 112.824 38.8037 112.611 38.8037 112.389L39.1694 111.498C39.1685 111.388 39.1896 111.278 39.2314 111.176C39.2732 111.074 39.3348 110.982 39.4128 110.904C39.4908 110.826 39.5835 110.764 39.6855 110.722C39.7876 110.68 39.8969 110.659 40.0072 110.66C40.2294 110.66 40.4425 110.749 40.5996 110.906C40.7567 111.063 40.845 111.276 40.845 111.498L40.4726 112.389C40.4726 112.61 40.3853 112.822 40.2296 112.979C40.0739 113.136 39.8625 113.225 39.6415 113.227Z" fill="white"/>
<path d="M52.4081 113.227C52.1864 113.225 51.9744 113.136 51.8176 112.98C51.6609 112.823 51.5721 112.611 51.5703 112.389L51.9427 111.498C51.9418 111.388 51.9628 111.278 52.0046 111.176C52.0464 111.074 52.1081 110.982 52.1861 110.904C52.264 110.826 52.3567 110.764 52.4588 110.722C52.5608 110.68 52.6702 110.659 52.7805 110.66C53.0026 110.66 53.2158 110.749 53.3729 110.906C53.53 111.063 53.6182 111.276 53.6182 111.498L53.2459 112.389C53.2459 112.611 53.1576 112.824 53.0005 112.981C52.8434 113.138 52.6303 113.227 52.4081 113.227Z" fill="white"/>
<path d="M58.7977 113.227C58.5755 113.227 58.3624 113.138 58.2053 112.981C58.0482 112.824 57.96 112.611 57.96 112.389L58.3257 111.498C58.3257 111.276 58.4139 111.063 58.571 110.906C58.7281 110.749 58.9413 110.66 59.1634 110.66C59.2737 110.659 59.383 110.68 59.4851 110.722C59.5871 110.764 59.6798 110.826 59.7578 110.904C59.8358 110.982 59.8975 111.074 59.9393 111.176C59.9811 111.278 60.0021 111.388 60.0012 111.498L59.6355 112.389C59.6338 112.611 59.5449 112.823 59.3882 112.98C59.2315 113.136 59.0194 113.225 58.7977 113.227Z" fill="white"/>
<path d="M78.4726 41.7227C78.3625 41.7227 78.2536 41.701 78.152 41.6589C78.0503 41.6168 77.958 41.5552 77.8802 41.4774C77.8024 41.3996 77.7407 41.3072 77.6986 41.2055C77.6565 41.1039 77.6348 40.9949 77.6348 40.8849L78.0071 39.994C78.0071 39.7719 78.0954 39.5586 78.2525 39.4015C78.4096 39.2444 78.6227 39.1562 78.8449 39.1562C79.066 39.158 79.2774 39.247 79.433 39.404C79.5887 39.5609 79.6761 39.773 79.6761 39.994L79.3104 40.8849C79.3112 40.9952 79.2902 41.1046 79.2484 41.2067C79.2066 41.3087 79.1449 41.4014 79.0669 41.4794C78.989 41.5574 78.8963 41.6189 78.7942 41.6607C78.6922 41.7025 78.5828 41.7236 78.4726 41.7227Z" fill="white"/>
<path d="M91.2392 41.7227C91.1292 41.7227 91.0202 41.701 90.9186 41.6589C90.8169 41.6168 90.7245 41.5552 90.6467 41.4774C90.5689 41.3996 90.5072 41.3072 90.4651 41.2055C90.423 41.1039 90.4014 40.9949 90.4014 40.8849L90.7737 39.994C90.7737 39.773 90.8611 39.5609 91.0167 39.404C91.1724 39.247 91.3838 39.158 91.6049 39.1562C91.8271 39.1562 92.0401 39.2444 92.1973 39.4015C92.3544 39.5586 92.4427 39.7719 92.4427 39.994L92.077 40.8849C92.0779 40.9952 92.0568 41.1046 92.015 41.2067C91.9732 41.3087 91.9115 41.4014 91.8336 41.4794C91.7556 41.5574 91.6629 41.6189 91.5608 41.6607C91.4588 41.7025 91.3494 41.7236 91.2392 41.7227Z" fill="white"/>
<path d="M97.6151 41.7227C97.5051 41.7227 97.3961 41.701 97.2945 41.6589C97.1928 41.6168 97.1005 41.5552 97.0227 41.4774C96.9449 41.3996 96.8832 41.3072 96.8411 41.2055C96.799 41.1039 96.7773 40.9949 96.7773 40.8849L97.1497 39.994C97.1497 39.7719 97.2379 39.5586 97.3951 39.4015C97.5522 39.2444 97.7653 39.1562 97.9875 39.1562C98.2085 39.158 98.4199 39.247 98.5756 39.404C98.7313 39.5609 98.8186 39.773 98.8186 39.994L98.4529 40.8849C98.4538 40.9952 98.4327 41.1046 98.3909 41.2067C98.3491 41.3087 98.2875 41.4014 98.2095 41.4794C98.1315 41.5574 98.0388 41.6189 97.9368 41.6607C97.8347 41.7025 97.7254 41.7236 97.6151 41.7227Z" fill="white"/>
<path d="M72.082 53.6446C71.9717 53.6455 71.8624 53.6245 71.7603 53.5828C71.6583 53.541 71.5656 53.4792 71.4876 53.4013C71.4096 53.3233 71.3479 53.2306 71.3061 53.1285C71.2643 53.0265 71.2433 52.9171 71.2442 52.8068L71.6099 51.9159C71.6116 51.6943 71.7004 51.4821 71.8572 51.3254C72.0139 51.1686 72.226 51.0799 72.4477 51.0781C72.6699 51.0781 72.8829 51.1663 73.0401 51.3234C73.1972 51.4805 73.2855 51.6937 73.2855 51.9159L72.9198 52.8068C72.9198 53.029 72.8315 53.2422 72.6744 53.3993C72.5172 53.5564 72.3042 53.6446 72.082 53.6446Z" fill="white"/>
<path d="M78.4726 53.6446C78.2504 53.6446 78.0373 53.5564 77.8802 53.3993C77.7231 53.2422 77.6348 53.029 77.6348 52.8068L78.0071 51.9159C78.0071 51.6937 78.0954 51.4805 78.2525 51.3234C78.4096 51.1663 78.6227 51.0781 78.8449 51.0781C79.066 51.0799 79.2774 51.1689 79.433 51.3258C79.5887 51.4828 79.6761 51.6949 79.6761 51.9159L79.3104 52.8068C79.3112 52.9171 79.2902 53.0265 79.2484 53.1285C79.2066 53.2306 79.1449 53.3233 79.0669 53.4013C78.989 53.4792 78.8963 53.541 78.7942 53.5828C78.6922 53.6245 78.5828 53.6455 78.4726 53.6446Z" fill="white"/>
<path d="M84.8554 53.6446C84.7451 53.6455 84.6358 53.6245 84.5337 53.5828C84.4317 53.541 84.339 53.4792 84.261 53.4013C84.183 53.3233 84.1214 53.2306 84.0796 53.1285C84.0378 53.0265 84.0167 52.9171 84.0176 52.8068L84.3833 51.9159C84.385 51.6943 84.4739 51.4821 84.6306 51.3254C84.7873 51.1686 84.9994 51.0799 85.2211 51.0781C85.4433 51.0781 85.6564 51.1663 85.8135 51.3234C85.9706 51.4805 86.0588 51.6937 86.0588 51.9159L85.6931 52.8068C85.6931 53.029 85.6049 53.2422 85.4478 53.3993C85.2907 53.5564 85.0775 53.6446 84.8554 53.6446Z" fill="white"/>
<path d="M97.6151 53.6446C97.3929 53.6446 97.1798 53.5564 97.0227 53.3993C96.8656 53.2422 96.7773 53.029 96.7773 52.8068L97.1497 51.9159C97.1497 51.6937 97.2379 51.4805 97.3951 51.3234C97.5522 51.1663 97.7653 51.0781 97.9875 51.0781C98.2085 51.0799 98.4199 51.1689 98.5756 51.3258C98.7313 51.4828 98.8186 51.6949 98.8186 51.9159L98.4529 52.8068C98.4538 52.9171 98.4327 53.0265 98.3909 53.1285C98.3491 53.2306 98.2875 53.3233 98.2095 53.4013C98.1315 53.4792 98.0388 53.541 97.9368 53.5828C97.8347 53.6245 97.7254 53.6455 97.6151 53.6446Z" fill="white"/>
<path d="M65.6925 65.5659C65.472 65.5659 65.2606 65.4782 65.1047 65.3224C64.9489 65.1665 64.8613 64.9552 64.8613 64.7347L65.227 63.8437C65.2261 63.7334 65.2472 63.6241 65.289 63.5221C65.3308 63.4201 65.3925 63.3274 65.4704 63.2494C65.5484 63.1714 65.6411 63.1097 65.7432 63.0679C65.8452 63.0261 65.9545 63.005 66.0648 63.0059C66.1748 63.0059 66.2838 63.0276 66.3854 63.0697C66.4871 63.1118 66.5794 63.1735 66.6572 63.2513C66.735 63.3291 66.7967 63.4214 66.8388 63.5231C66.8809 63.6247 66.9026 63.7337 66.9026 63.8437L66.5302 64.7347C66.5302 64.8444 66.5085 64.9531 66.4663 65.0544C66.4242 65.1556 66.3623 65.2475 66.2844 65.3248C66.2066 65.4021 66.1141 65.4631 66.0125 65.5045C65.9109 65.5459 65.8022 65.5667 65.6925 65.5659Z" fill="white"/>
<path d="M72.0829 65.5659C71.9732 65.5667 71.8644 65.5459 71.7628 65.5045C71.6612 65.4631 71.5688 65.4021 71.4909 65.3248C71.413 65.2475 71.3512 65.1556 71.309 65.0544C71.2668 64.9531 71.2451 64.8444 71.2451 64.7347L71.6108 63.8437C71.6108 63.7337 71.6325 63.6247 71.6746 63.5231C71.7167 63.4214 71.7784 63.3291 71.8562 63.2513C71.934 63.1735 72.0264 63.1118 72.128 63.0697C72.2297 63.0276 72.3386 63.0059 72.4486 63.0059C72.5589 63.005 72.6682 63.0261 72.7703 63.0679C72.8723 63.1097 72.965 63.1714 73.043 63.2494C73.121 63.3274 73.1827 63.4201 73.2244 63.5221C73.2662 63.6241 73.2873 63.7334 73.2864 63.8437L72.9207 64.7347C72.919 64.9558 72.8299 65.1672 72.673 65.3229C72.5161 65.4785 72.304 65.5659 72.0829 65.5659Z" fill="white"/>
<path d="M78.4726 65.5659C78.2515 65.5659 78.0394 65.4785 77.8825 65.3229C77.7256 65.1672 77.6365 64.9558 77.6348 64.7347L78.0071 63.8437C78.0062 63.7334 78.0273 63.6241 78.0691 63.5221C78.1109 63.4201 78.1726 63.3274 78.2505 63.2494C78.3285 63.1714 78.4212 63.1097 78.5233 63.0679C78.6253 63.0261 78.7346 63.005 78.8449 63.0059C78.9546 63.0059 79.0632 63.0277 79.1645 63.0698C79.2658 63.112 79.3577 63.1738 79.435 63.2517C79.5123 63.3295 79.5733 63.422 79.6147 63.5236C79.6561 63.6252 79.6769 63.734 79.6761 63.8437L79.3104 64.7347C79.3104 64.8444 79.2886 64.9531 79.2464 65.0544C79.2043 65.1556 79.1425 65.2475 79.0646 65.3248C78.9867 65.4021 78.8943 65.4631 78.7927 65.5045C78.6911 65.5459 78.5823 65.5667 78.4726 65.5659Z" fill="white"/>
<path d="M84.8553 65.5659C84.7456 65.5667 84.6369 65.5459 84.5353 65.5045C84.4336 65.4631 84.3412 65.4021 84.2633 65.3248C84.1855 65.2475 84.1236 65.1556 84.0815 65.0544C84.0393 64.9531 84.0176 64.8444 84.0176 64.7347L84.3833 63.8437C84.3833 63.7337 84.4049 63.6247 84.447 63.5231C84.4891 63.4214 84.5508 63.3291 84.6286 63.2513C84.7064 63.1735 84.7988 63.1118 84.9005 63.0697C85.0021 63.0276 85.111 63.0059 85.2211 63.0059C85.3313 63.005 85.4406 63.0261 85.5427 63.0679C85.6447 63.1097 85.7375 63.1714 85.8154 63.2494C85.8934 63.3274 85.955 63.4201 85.9968 63.5221C86.0386 63.6241 86.0597 63.7334 86.0588 63.8437L85.6931 64.7347C85.6914 64.9558 85.6023 65.1672 85.4454 65.3229C85.2885 65.4785 85.0764 65.5659 84.8553 65.5659Z" fill="white"/>
<path d="M97.6151 65.5659C97.394 65.5659 97.182 65.4785 97.0251 65.3229C96.8681 65.1672 96.7791 64.9558 96.7773 64.7347L97.1497 63.8437C97.1488 63.7334 97.1699 63.6241 97.2117 63.5221C97.2534 63.4201 97.3151 63.3274 97.3931 63.2494C97.471 63.1714 97.5638 63.1097 97.6658 63.0679C97.7679 63.0261 97.8772 63.005 97.9874 63.0059C98.0971 63.0059 98.2058 63.0277 98.3071 63.0698C98.4083 63.112 98.5002 63.1738 98.5775 63.2517C98.6548 63.3295 98.7159 63.422 98.7572 63.5236C98.7986 63.6252 98.8194 63.734 98.8186 63.8437L98.4529 64.7347C98.4529 64.8444 98.4312 64.9531 98.389 65.0544C98.3468 65.1556 98.285 65.2475 98.2071 65.3248C98.1292 65.4021 98.0368 65.4631 97.9352 65.5045C97.8336 65.5459 97.7248 65.5667 97.6151 65.5659Z" fill="white"/>
<path d="M65.6925 89.4181C65.4714 89.4163 65.26 89.3273 65.1043 89.1703C64.9487 89.0134 64.8613 88.8013 64.8613 88.5803L65.227 87.6894C65.2261 87.5791 65.2472 87.4697 65.289 87.3676C65.3308 87.2656 65.3925 87.1729 65.4704 87.0949C65.5484 87.017 65.6411 86.9552 65.7432 86.9134C65.8452 86.8716 65.9545 86.8507 66.0648 86.8516C66.1748 86.8516 66.2838 86.8733 66.3854 86.9154C66.4871 86.9575 66.5794 87.0191 66.6572 87.0969C66.735 87.1747 66.7967 87.2671 66.8388 87.3688C66.8809 87.4704 66.9026 87.5794 66.9026 87.6894L66.5302 88.5803C66.5302 88.8025 66.442 89.0157 66.2849 89.1728C66.1277 89.3299 65.9147 89.4181 65.6925 89.4181Z" fill="white"/>
<path d="M72.0829 89.4181C71.8607 89.4181 71.6476 89.3299 71.4905 89.1728C71.3334 89.0157 71.2451 88.8025 71.2451 88.5803L71.6108 87.6894C71.6108 87.5794 71.6325 87.4704 71.6746 87.3688C71.7167 87.2671 71.7784 87.1747 71.8562 87.0969C71.934 87.0191 72.0264 86.9575 72.128 86.9154C72.2297 86.8733 72.3386 86.8516 72.4486 86.8516C72.5589 86.8507 72.6682 86.8716 72.7703 86.9134C72.8723 86.9552 72.965 87.017 73.043 87.0949C73.121 87.1729 73.1827 87.2656 73.2244 87.3676C73.2662 87.4697 73.2873 87.5791 73.2864 87.6894L72.9207 88.5803C72.919 88.8019 72.8301 89.0141 72.6734 89.1708C72.5167 89.3276 72.3046 89.4163 72.0829 89.4181Z" fill="white"/>
<path d="M78.4726 89.4181C78.2509 89.4163 78.0388 89.3276 77.8821 89.1708C77.7253 89.0141 77.6365 88.8019 77.6348 88.5803L78.0071 87.6894C78.0062 87.5791 78.0273 87.4697 78.0691 87.3676C78.1109 87.2656 78.1726 87.1729 78.2505 87.0949C78.3285 87.017 78.4212 86.9552 78.5233 86.9134C78.6253 86.8716 78.7346 86.8507 78.8449 86.8516C78.9546 86.8516 79.0632 86.8732 79.1645 86.9154C79.2658 86.9576 79.3577 87.0195 79.435 87.0974C79.5123 87.1752 79.5733 87.2677 79.6147 87.3693C79.6561 87.4709 79.6769 87.5797 79.6761 87.6894L79.3104 88.5803C79.3104 88.8025 79.2221 89.0157 79.065 89.1728C78.9078 89.3299 78.6948 89.4181 78.4726 89.4181Z" fill="white"/>
<path d="M91.2392 89.4181C91.0175 89.4163 90.8054 89.3276 90.6487 89.1708C90.4919 89.0141 90.4031 88.8019 90.4014 88.5803L90.7737 87.6894C90.7728 87.5797 90.7937 87.4709 90.8351 87.3693C90.8765 87.2677 90.9375 87.1752 91.0148 87.0974C91.0921 87.0195 91.184 86.9576 91.2853 86.9154C91.3865 86.8732 91.4952 86.8516 91.6049 86.8516C91.7151 86.8507 91.8245 86.8716 91.9265 86.9134C92.0286 86.9552 92.1213 87.017 92.1992 87.0949C92.2772 87.1729 92.3389 87.2656 92.3807 87.3676C92.4225 87.4697 92.4436 87.5791 92.4427 87.6894L92.077 88.5803C92.077 88.8025 91.9887 89.0157 91.8316 89.1728C91.6744 89.3299 91.4614 89.4181 91.2392 89.4181Z" fill="white"/>
<path d="M84.8553 89.4181C84.6331 89.4181 84.4201 89.3299 84.2629 89.1728C84.1058 89.0157 84.0176 88.8025 84.0176 88.5803L84.3833 87.6894C84.3833 87.5794 84.4049 87.4704 84.447 87.3688C84.4891 87.2671 84.5508 87.1747 84.6286 87.0969C84.7064 87.0191 84.7988 86.9575 84.9005 86.9154C85.0021 86.8733 85.111 86.8516 85.2211 86.8516C85.3313 86.8507 85.4406 86.8716 85.5427 86.9134C85.6447 86.9552 85.7375 87.017 85.8154 87.0949C85.8934 87.1729 85.955 87.2656 85.9968 87.3676C86.0386 87.4697 86.0597 87.5791 86.0588 87.6894L85.6931 88.5803C85.6914 88.8019 85.6025 89.0141 85.4458 89.1708C85.2891 89.3276 85.077 89.4163 84.8553 89.4181Z" fill="white"/>
<path d="M65.6925 77.4944C65.4714 77.4926 65.26 77.4036 65.1043 77.2467C64.9487 77.0898 64.8613 76.8777 64.8613 76.6566L65.227 75.7656C65.2261 75.6553 65.2472 75.546 65.289 75.444C65.3308 75.3419 65.3925 75.2492 65.4704 75.1713C65.5484 75.0933 65.6411 75.0316 65.7432 74.9898C65.8452 74.948 65.9545 74.9269 66.0648 74.9278C66.287 74.9278 66.5001 75.0161 66.6572 75.1732C66.8143 75.3303 66.9026 75.5434 66.9026 75.7656L66.5036 76.6566C66.5037 76.8743 66.4191 77.0835 66.2677 77.2399C66.1163 77.3962 65.91 77.4875 65.6925 77.4944Z" fill="white"/>
<path d="M72.0829 77.4944C71.8607 77.4944 71.6476 77.4061 71.4905 77.249C71.3334 77.0918 71.2451 76.8788 71.2451 76.6566L71.6108 75.7656C71.6108 75.5434 71.6991 75.3303 71.8562 75.1732C72.0133 75.0161 72.2264 74.9278 72.4486 74.9278C72.5589 74.9269 72.6682 74.948 72.7703 74.9898C72.8723 75.0316 72.965 75.0933 73.043 75.1713C73.121 75.2492 73.1827 75.3419 73.2244 75.444C73.2662 75.546 73.2873 75.6553 73.2864 75.7656L72.9207 76.6566C72.919 76.8783 72.8301 77.0904 72.6734 77.2472C72.5167 77.4039 72.3046 77.4927 72.0829 77.4944Z" fill="white"/>
<path d="M91.2392 77.4944C91.0175 77.4927 90.8054 77.4039 90.6487 77.2472C90.4919 77.0904 90.4031 76.8783 90.4014 76.6566L90.7737 75.7656C90.7728 75.6559 90.7937 75.547 90.8351 75.4454C90.8765 75.3438 90.9375 75.2514 91.0148 75.1735C91.0921 75.0956 91.184 75.0339 91.2853 74.9917C91.3865 74.9495 91.4952 74.9278 91.6049 74.9278C91.7151 74.9269 91.8245 74.948 91.9265 74.9898C92.0286 75.0316 92.1213 75.0933 92.1992 75.1713C92.2772 75.2492 92.3389 75.3419 92.3807 75.444C92.4225 75.546 92.4436 75.6553 92.4427 75.7656L92.077 76.6566C92.077 76.8788 91.9887 77.0918 91.8316 77.249C91.6744 77.4061 91.4614 77.4944 91.2392 77.4944Z" fill="white"/>
<path d="M84.8553 77.4944C84.6331 77.4944 84.4201 77.4061 84.2629 77.249C84.1058 77.0918 84.0176 76.8788 84.0176 76.6566L84.3833 75.7656C84.3833 75.5434 84.4715 75.3303 84.6286 75.1732C84.7857 75.0161 84.9989 74.9278 85.2211 74.9278C85.3313 74.9269 85.4406 74.948 85.5427 74.9898C85.6447 75.0316 85.7375 75.0933 85.8154 75.1713C85.8934 75.2492 85.955 75.3419 85.9968 75.444C86.0386 75.546 86.0597 75.6553 86.0588 75.7656L85.6931 76.6566C85.6914 76.8783 85.6025 77.0904 85.4458 77.2472C85.2891 77.4039 85.077 77.4927 84.8553 77.4944Z" fill="white"/>
<path d="M97.6151 77.4944C97.3934 77.4927 97.1814 77.4039 97.0246 77.2472C96.8679 77.0904 96.7791 76.8783 96.7773 76.6566L97.1497 75.7656C97.1488 75.6553 97.1699 75.546 97.2117 75.444C97.2534 75.3419 97.3151 75.2492 97.3931 75.1713C97.471 75.0933 97.5638 75.0316 97.6658 74.9898C97.7679 74.948 97.8772 74.9269 97.9874 74.9278C98.0971 74.9278 98.2058 74.9495 98.3071 74.9917C98.4083 75.0339 98.5002 75.0956 98.5775 75.1735C98.6548 75.2514 98.7159 75.3438 98.7572 75.4454C98.7986 75.547 98.8194 75.6559 98.8186 75.7656L98.4529 76.6566C98.4529 76.8788 98.3646 77.0918 98.2075 77.249C98.0504 77.4061 97.8373 77.4944 97.6151 77.4944Z" fill="white"/>
<path d="M65.6925 101.338C65.5828 101.338 65.4741 101.316 65.3729 101.274C65.2716 101.232 65.1797 101.17 65.1024 101.092C65.0252 101.014 64.9641 100.922 64.9227 100.82C64.8813 100.719 64.8605 100.61 64.8614 100.5L65.227 99.6093C65.227 99.3871 65.3153 99.174 65.4724 99.0169C65.6295 98.8598 65.8426 98.7715 66.0648 98.7715C66.2865 98.7732 66.4986 98.862 66.6553 99.0187C66.8121 99.1755 66.9009 99.3876 66.9026 99.6093L66.5302 100.5C66.5311 100.611 66.5101 100.72 66.4683 100.822C66.4265 100.924 66.3648 101.017 66.2869 101.095C66.2089 101.173 66.1162 101.234 66.0141 101.276C65.9121 101.318 65.8028 101.339 65.6925 101.338Z" fill="white"/>
<path d="M72.082 101.338C71.9717 101.339 71.8624 101.318 71.7603 101.276C71.6583 101.234 71.5656 101.173 71.4876 101.095C71.4096 101.017 71.3479 100.924 71.3061 100.822C71.2643 100.72 71.2433 100.611 71.2442 100.5L71.6099 99.6093C71.6116 99.3876 71.7004 99.1755 71.8572 99.0187C72.0139 98.862 72.226 98.7732 72.4477 98.7715C72.6699 98.7715 72.8829 98.8598 73.0401 99.0169C73.1972 99.174 73.2855 99.3871 73.2855 99.6093L72.9198 100.5C72.9198 100.723 72.8315 100.936 72.6744 101.093C72.5172 101.25 72.3042 101.338 72.082 101.338Z" fill="white"/>
<path d="M91.2392 101.338C91.017 101.338 90.8039 101.25 90.6467 101.093C90.4896 100.936 90.4014 100.723 90.4014 100.5L90.7737 99.6093C90.7737 99.3882 90.8611 99.1761 91.0167 99.0192C91.1724 98.8623 91.3838 98.7732 91.6049 98.7715C91.8271 98.7715 92.0401 98.8598 92.1973 99.0169C92.3544 99.174 92.4427 99.3871 92.4427 99.6093L92.077 100.5C92.0779 100.611 92.0568 100.72 92.015 100.822C91.9732 100.924 91.9115 101.017 91.8336 101.095C91.7556 101.173 91.6629 101.234 91.5608 101.276C91.4588 101.318 91.3494 101.339 91.2392 101.338Z" fill="white"/>
<path d="M84.8554 101.338C84.7451 101.339 84.6358 101.318 84.5337 101.276C84.4317 101.234 84.339 101.173 84.261 101.095C84.183 101.017 84.1214 100.924 84.0796 100.822C84.0378 100.72 84.0167 100.611 84.0176 100.5L84.3833 99.6093C84.385 99.3876 84.4739 99.1755 84.6306 99.0187C84.7873 98.862 84.9994 98.7732 85.2211 98.7715C85.4433 98.7715 85.6564 98.8598 85.8135 99.0169C85.9706 99.174 86.0588 99.3871 86.0588 99.6093L85.6931 100.5C85.6931 100.723 85.6049 100.936 85.4478 101.093C85.2907 101.25 85.0775 101.338 84.8554 101.338Z" fill="white"/>
<path d="M97.6151 101.338C97.3929 101.338 97.1798 101.25 97.0227 101.093C96.8656 100.936 96.7773 100.723 96.7773 100.5L97.1497 99.6093C97.1497 99.3871 97.2379 99.174 97.3951 99.0169C97.5522 98.8598 97.7653 98.7715 97.9875 98.7715C98.2085 98.7732 98.4199 98.8623 98.5756 99.0192C98.7313 99.1761 98.8186 99.3882 98.8186 99.6093L98.4529 100.5C98.4538 100.611 98.4327 100.72 98.3909 100.822C98.3491 100.924 98.2875 101.017 98.2095 101.095C98.1315 101.173 98.0388 101.234 97.9368 101.276C97.8347 101.318 97.7254 101.339 97.6151 101.338Z" fill="white"/>
<path d="M65.6925 113.322C65.5828 113.322 65.4741 113.3 65.3729 113.258C65.2716 113.216 65.1797 113.154 65.1024 113.076C65.0252 112.998 64.9641 112.906 64.9227 112.804C64.8813 112.702 64.8605 112.593 64.8614 112.484L65.227 111.593C65.227 111.483 65.2487 111.375 65.2909 111.273C65.3331 111.172 65.3949 111.08 65.4728 111.003C65.5507 110.926 65.6431 110.864 65.7447 110.823C65.8463 110.782 65.9551 110.761 66.0648 110.762C66.2859 110.762 66.4979 110.849 66.6549 111.005C66.8118 111.16 66.9008 111.372 66.9026 111.593L66.5302 112.484C66.5311 112.594 66.5101 112.703 66.4683 112.806C66.4265 112.908 66.3648 113 66.2869 113.078C66.2089 113.156 66.1162 113.218 66.0141 113.26C65.9121 113.302 65.8028 113.322 65.6925 113.322Z" fill="white"/>
<path d="M72.082 113.322C71.9717 113.322 71.8624 113.302 71.7603 113.26C71.6583 113.218 71.5656 113.156 71.4876 113.078C71.4096 113 71.3479 112.908 71.3061 112.806C71.2643 112.703 71.2433 112.594 71.2442 112.484L71.6099 111.593C71.6116 111.372 71.7007 111.16 71.8576 111.005C72.0145 110.849 72.2266 110.762 72.4477 110.762C72.5574 110.761 72.6662 110.782 72.7678 110.823C72.8694 110.864 72.9618 110.926 73.0397 111.003C73.1176 111.08 73.1794 111.172 73.2216 111.273C73.2637 111.375 73.2855 111.483 73.2855 111.593L72.9198 112.484C72.9198 112.706 72.8315 112.919 72.6744 113.076C72.5172 113.233 72.3042 113.322 72.082 113.322Z" fill="white"/>
<path d="M78.4726 113.322C78.2504 113.322 78.0373 113.233 77.8802 113.076C77.7231 112.919 77.6348 112.706 77.6348 112.484L78.0071 111.593C78.0071 111.483 78.0288 111.375 78.071 111.273C78.1132 111.172 78.175 111.08 78.2529 111.003C78.3308 110.926 78.4232 110.864 78.5248 110.823C78.6264 110.782 78.7352 110.761 78.8449 110.762C79.0653 110.762 79.2768 110.849 79.4326 111.005C79.5885 111.161 79.6761 111.372 79.6761 111.593L79.3104 112.484C79.3112 112.594 79.2902 112.703 79.2484 112.806C79.2066 112.908 79.1449 113 79.0669 113.078C78.989 113.156 78.8963 113.218 78.7942 113.26C78.6922 113.302 78.5828 113.322 78.4726 113.322Z" fill="white"/>
<path d="M91.2392 113.322C91.017 113.322 90.8039 113.233 90.6467 113.076C90.4896 112.919 90.4014 112.706 90.4014 112.484L90.7737 111.593C90.7737 111.372 90.8613 111.161 91.0171 111.005C91.173 110.849 91.3844 110.762 91.6049 110.762C91.7146 110.761 91.8234 110.782 91.925 110.823C92.0266 110.864 92.119 110.926 92.1969 111.003C92.2748 111.08 92.3366 111.172 92.3788 111.273C92.4209 111.375 92.4427 111.483 92.4427 111.593L92.077 112.484C92.0779 112.594 92.0568 112.703 92.015 112.806C91.9732 112.908 91.9115 113 91.8336 113.078C91.7556 113.156 91.6629 113.218 91.5608 113.26C91.4588 113.302 91.3494 113.322 91.2392 113.322Z" fill="white"/>
<path d="M84.8554 113.322C84.7451 113.322 84.6358 113.302 84.5337 113.26C84.4317 113.218 84.339 113.156 84.261 113.078C84.183 113 84.1214 112.908 84.0796 112.806C84.0378 112.703 84.0167 112.594 84.0176 112.484L84.3833 111.593C84.385 111.372 84.4741 111.16 84.631 111.005C84.7879 110.849 85 110.762 85.2211 110.762C85.3308 110.761 85.4396 110.782 85.5412 110.823C85.6428 110.864 85.7352 110.926 85.8131 111.003C85.8909 111.08 85.9528 111.172 85.995 111.273C86.0371 111.375 86.0588 111.483 86.0588 111.593L85.6931 112.484C85.6931 112.706 85.6049 112.919 85.4478 113.076C85.2907 113.233 85.0775 113.322 84.8554 113.322Z" fill="white"/>
<path d="M101.405 127.802H-6.20417C-7.79128 127.802 -9.31339 127.172 -10.4356 126.05C-11.5579 124.927 -12.1884 123.405 -12.1884 121.818L-15.1738 48.452L-12.1884 -3.24492C-12.1884 -4.83203 -11.5579 -6.35417 -10.4356 -7.47643C-9.31339 -8.59869 -7.79128 -9.22913 -6.20417 -9.22913L105.069 -10.8184C106.656 -10.8184 108.178 -10.1879 109.3 -9.06566C110.423 -7.9434 111.053 -6.42126 111.053 -4.83415C111.053 -4.83415 111.758 50.686 111.758 62.5614C111.758 74.4367 107.356 121.825 107.356 121.825C107.354 123.405 106.728 124.92 105.613 126.04C104.498 127.16 102.985 127.794 101.405 127.802V127.802Z" stroke="white" stroke-width="2" stroke-linecap="round" stroke-linejoin="round"/>
<path d="M45.533 55.7068V49.47L45.666 3.00586C45.666 2.01514 45.666 1.09086 45.6992 0.292969L2.67278 1.03109C1.08567 1.03109 -0.436433 1.66153 -1.55869 2.78379C-2.68095 3.90605 -3.31143 5.42819 -3.31143 7.0153C-5.17153 21.2531 -6.1685 35.5905 -6.29687 49.9487C-6.29687 51.8105 -6.29688 53.8052 -6.23704 55.9329C-5.51893 55.8398 -3.83006 55.7733 -1.86193 55.7733L45.533 55.7068Z" stroke="white" stroke-width="2" stroke-linecap="round" stroke-linejoin="round"/>
<path d="M51.0907 55.7058H51.5295C60.9314 55.7058 98.4523 55.8986 98.4523 55.8986C99.9259 55.8786 101.399 55.934 102.867 56.0649C102.761 38.5777 102.096 5.41194 102.096 5.41194C102.096 3.82483 101.466 2.30269 100.343 1.18043C99.2211 0.0581764 97.699 -0.572266 96.1119 -0.572266L51.0508 0.192318C51.0508 0.63116 51.0508 1.0833 51.0508 1.52214C51.0641 1.56204 51.084 38.6242 51.0907 55.7058Z" stroke="white" stroke-width="2" stroke-linecap="round" stroke-linejoin="round"/>
<path d="M-6.1709 57.5488C-5.65892 79.717 -3.28518 111.58 -3.28518 111.58C-3.28518 113.167 -2.65472 114.689 -1.53246 115.811C-0.410209 116.933 1.11191 117.564 2.69902 117.564H45.6789C45.6789 116.899 45.6789 116.187 45.6789 115.429L45.5725 61.2791H40.3862L-0.54575 61.1526" stroke="white" stroke-width="2" stroke-linecap="round" stroke-linejoin="round"/>
<path d="M51.0911 61.2587C51.0911 61.5778 51.0911 61.8769 51.0911 62.1496C51.0911 72.8214 50.8916 115.422 50.8916 115.422C50.8916 116.18 50.8916 116.905 50.8916 117.557H92.4353C94.0224 117.557 95.5445 116.926 96.6667 115.804C97.789 114.682 98.4195 113.16 98.4195 111.573C98.4195 111.573 102.788 76.8707 102.901 60.9727C101.429 61.1107 99.9508 61.1684 98.4727 61.1455L51.0911 61.2587Z" stroke="white" stroke-width="2" stroke-linecap="round" stroke-linejoin="round"/>
<path d="M50.8848 117.557H45.6719" stroke="white" stroke-width="2" stroke-linecap="round" stroke-linejoin="round"/>
<path d="M102.868 56.0455C101.4 55.9147 99.9261 55.8592 98.4526 55.8793C98.4526 55.8793 60.9316 55.6864 51.5298 55.6864H51.0909C51.0909 38.6049 51.0909 1.54271 51.0909 1.54271C51.0909 1.07063 51.0909 0.618487 51.0909 0.212891L45.7251 0.305907C45.7251 1.1038 45.6919 2.02808 45.6919 3.0188L45.5589 49.4828V55.7197L-1.80944 55.753C-3.80417 55.753 -5.46647 55.8195 -6.18457 55.9126C-6.18457 56.4578 -6.18457 57.003 -6.14468 57.5615L-5.9984 60.9791C-5.9984 61.1187 -3.15921 61.1653 -0.546111 61.1653L40.3858 61.2916H45.5722L45.6785 115.442C45.6785 116.2 45.6785 116.925 45.6785 117.576H50.8848C50.8848 116.912 50.8848 116.2 50.8848 115.442C50.8848 115.442 51.0843 72.8412 51.0843 62.1693C51.0843 61.8967 51.0843 61.5976 51.0843 61.2784L98.4459 61.172C99.9241 61.1948 101.402 61.1371 102.874 60.9991C102.874 60.7797 102.874 60.5669 102.874 60.3342C102.888 59.0642 102.881 57.628 102.868 56.0455Z" stroke="white" stroke-width="2" stroke-linecap="round" stroke-linejoin="round"/>
</g>
<path d="M182.282 139.023C239.285 133.557 232.39 176.962 221.652 207.741C210.914 238.52 234.997 253.015 234.997 253.015L132.8 254.691C117.766 215.321 130.034 144.036 182.282 138.996" fill="#005A96"/>
<path d="M103.331 250.695C83.5698 243.82 82.373 197.695 120.971 162.74C155.706 131.277 209.039 120.445 236.885 152.414C259.572 179.749 232.018 240.515 245.695 253.8" stroke="#003B5C" stroke-width="1.75" stroke-miterlimit="10" stroke-linecap="round"/>
<path d="M112.999 218.932C128.538 214.85 170.953 219.305 186.558 226.366" stroke="#003B5C" stroke-width="1.75" stroke-miterlimit="10" stroke-linecap="round"/>
<path d="M191.811 112.831C172.222 111.502 153.691 101.182 153.691 79.7388C153.691 64.3527 160.34 57.0054 165.912 53.4016C167.648 52.2859 169.496 51.3544 171.425 50.6223C176.192 48.7672 225.695 44.2657 229.671 55.9416C233.647 67.6174 232.051 71.2943 232.051 71.2943L191.811 112.831Z" fill="#AA0A0A"/>
<path d="M185.261 248.76C141.956 254.951 116.735 254.924 104.561 251.148C80.2584 243.614 85.8636 192.449 122.095 161.684" stroke="#003B5C" stroke-width="1.75" stroke-miterlimit="10" stroke-linecap="round"/>
<path d="M179.257 98.0919C181.125 105.619 182.475 110.665 186.684 114.755C186.258 125.3 180.587 136.83 176.378 143.732C175.988 144.365 175.781 145.095 175.781 145.839C175.781 146.583 175.988 147.313 176.378 147.947C180.367 154.423 193.845 158.758 201.804 152.834C202.251 152.499 202.619 152.068 202.88 151.574C203.141 151.08 203.289 150.533 203.313 149.975C203.852 139.429 203.081 125.579 203.081 125.579C213.626 134.955 227.835 131.298 230.568 111.769C233.301 92.2407 232.131 63.317 232.131 63.317L180.932 62.5391L179.789 88.331C170.021 80.5183 168.485 86.7684 168.485 89.1156C168.485 91.4627 169.516 98.0985 179.284 98.0985" fill="#BC5724"/>
<path d="M239.637 71.202C232.45 75.2846 220.794 70.823 219.025 66.6673C217.323 68.8416 203.606 73.8418 198.858 62.8109C191.544 71.4548 179.124 65.1248 180.7 59.2603C181.228 56.951 182.256 54.7856 183.712 52.917C175.427 54.8519 167.82 56.8465 167.82 56.8465C151.736 60.098 146.397 42.3315 156.517 33.0626C149.329 25.6688 156.371 11.247 169.429 12.7763C176.85 -5.88108 196.026 3.3544 193.885 15.2962C206.325 7.35052 215.794 15.7816 208.892 29.9576C214.211 31.068 216.698 35.6891 216.279 40.1174C230.907 31.673 243.274 42.91 236.991 53.0433C244.219 52.3784 250.05 65.2777 239.651 71.202" fill="#AA0A0A"/>
<path d="M218.009 92.1531C218.009 98.257 212.556 102.093 206.466 102.546C199.657 103.044 194.956 96.7676 194.956 90.6571C194.956 84.5465 198.394 80.6368 206.466 80.4373C214.91 80.2245 218.009 86.0492 218.009 92.1531Z" stroke="#E6F4F9" stroke-width="1.75" stroke-miterlimit="10"/>
<path d="M196.186 77.864C200.374 74.1538 208.466 74.1538 212.463 77.1061" stroke="#003B5C" stroke-width="2.1" stroke-miterlimit="10" stroke-linecap="round"/>
<path d="M236.446 78.0567C233.687 76.2481 226.639 76.4409 223.693 79.0075C223.979 86.142 227.975 105.65 226.167 106.222C224.358 106.794 219.697 105.464 217.124 104.035" stroke="#003B5C" stroke-width="2.1" stroke-miterlimit="10" stroke-linecap="round"/>
<path d="M241.752 91.0889C241.789 93.3128 240.967 95.4654 239.458 97.0988C237.948 98.7322 235.867 99.721 233.647 99.8593C228.866 100.285 225.568 94.9787 225.568 89.8257C225.568 84.6726 227.982 81.368 233.647 81.1818C239.571 81.0156 241.752 85.9292 241.752 91.0889Z" stroke="#E6F4F9" stroke-width="1.75" stroke-miterlimit="10"/>
<path d="M218.062 90.7966C219.391 87.6383 224.139 87.266 225.376 89.6796" stroke="#E6F4F9" stroke-width="1.75" stroke-miterlimit="10"/>
<path d="M195.142 86.3354L178.014 86.1426" stroke="#E6F4F9" stroke-width="1.75" stroke-miterlimit="10" stroke-linecap="round"/>
<path d="M211.387 115.906C211.364 117.013 217.427 117.179 221.569 114.56" stroke="#003B5C" stroke-width="2.1" stroke-miterlimit="10" stroke-linecap="round"/>
<path d="M212.217 91.6547C212.217 92.9845 211.492 94.0418 210.601 94.0418C209.71 94.0418 208.985 92.9845 208.985 91.6547C208.985 90.3248 209.703 89.2676 210.594 89.2676C211.485 89.2676 212.21 90.3315 212.21 91.6547" fill="#003B5C"/>
<path d="M231.904 91.6555C231.904 92.9853 231.18 94.0426 230.295 94.0426C229.411 94.0426 228.68 92.972 228.68 91.6555C228.68 90.3389 229.404 89.2617 230.295 89.2617C231.186 89.2617 231.904 90.3323 231.904 91.6555Z" fill="#003B5C"/>
<path d="M169.616 146.396L177.854 176.257L193.786 159.189L213.986 171.423L207.443 144.674" stroke="#F4F4F4" stroke-width="1.75" stroke-linecap="round" stroke-linejoin="round"/>
<path d="M197.177 172.708C197.202 172.943 197.177 173.181 197.104 173.405C197.03 173.63 196.909 173.837 196.749 174.011C196.589 174.185 196.394 174.324 196.177 174.416C195.959 174.509 195.724 174.555 195.488 174.549C195.235 174.559 194.984 174.519 194.747 174.432C194.51 174.344 194.292 174.21 194.107 174.039C193.922 173.867 193.772 173.661 193.667 173.431C193.562 173.202 193.502 172.953 193.493 172.701C193.466 172.188 193.641 171.685 193.982 171.3C194.323 170.916 194.802 170.681 195.315 170.646C195.831 170.682 196.313 170.917 196.659 171.302C197.005 171.687 197.188 172.191 197.17 172.708" fill="#F4F4F4"/>
<path d="M196.212 181.505C196.442 181.449 196.681 181.442 196.914 181.485C197.147 181.528 197.368 181.619 197.563 181.754C197.757 181.888 197.921 182.062 198.044 182.265C198.167 182.467 198.245 182.693 198.274 182.928C198.361 183.43 198.245 183.945 197.952 184.362C197.659 184.778 197.213 185.061 196.711 185.149C196.207 185.247 195.685 185.142 195.258 184.857C194.831 184.572 194.533 184.129 194.431 183.626C194.395 183.111 194.561 182.601 194.893 182.206C195.226 181.81 195.699 181.559 196.212 181.505Z" fill="#F4F4F4"/>
<path d="M213.992 246.54L271.434 240.004L256.892 259.054L213.992 246.54Z" fill="#CCE4EC"/>
<path d="M214.012 253.787L213.992 246.54L253.175 249.186L254.359 188.227L343.151 185.328L337.426 256.972L256.892 259.054L214.012 253.787Z" fill="#0082AA"/>
<path d="M260.39 186.133L258.003 261.467" stroke="#003B5C" stroke-width="1.75" stroke-linecap="round" stroke-linejoin="round"/>
<path d="M185.607 230.269L185.042 244.458C194.005 248.002 207.589 241.892 207.589 241.892C211.506 243.527 216.16 249.159 219.019 250.143C221.878 251.127 215.508 243.494 214.77 242.543C214.032 241.592 211.505 238.873 211.505 238.873C214.198 239.538 216.486 241.812 217.383 243.201C218.281 244.591 221.632 249.651 224.651 250.303C226.532 250.875 220.322 239.604 220.322 239.604L215.754 235.688C218.19 236.487 220.401 237.854 222.204 239.678C222.776 240.409 227.43 248.74 229.305 248.321C230.761 248.009 227.836 240.568 225.981 237.138C224.126 233.707 220.262 230.116 220.262 230.116C225.329 228.972 236.759 237.383 239.698 234.278C237.656 229.544 221 224.305 218.633 224.398C216.266 224.491 190.348 227.855 185.627 230.249" fill="#BC5724"/>
<path d="M382.707 240.062C386.649 220.042 383.558 198.838 379.382 191.344C375.206 183.851 364.967 181.497 364.508 184.549C364.049 187.601 370.831 190.852 383.737 194.336C386.982 195.214 393.398 195.666 393.338 191.756C393.265 186.989 361.117 192.893 363.291 200.959C364.621 205.866 392.414 183.571 386.098 179.462C381.536 176.503 370.931 206.012 374.462 207.767C378.365 209.702 378.916 196.71 378.916 196.71" stroke="#264385" stroke-width="2.63" stroke-linecap="round" stroke-linejoin="round"/>
<path d="M395.36 242.097C392.328 226.691 394.695 210.374 397.92 204.609C401.145 198.844 406.006 196.81 407.143 199.376C408.107 201.551 405.208 203.559 395.54 207.076C393.452 207.834 387.135 209.736 387.182 206.704C387.242 203.04 408.858 204.456 407.182 210.66C406.165 214.443 390.36 200.607 394.197 197.694C397.016 195.56 403.964 216.146 400.952 216.558C396.63 217.143 397.023 206.976 397.023 206.976" stroke="#264385" stroke-width="2.1" stroke-linejoin="round"/>
<path d="M373.564 224.204L400.998 223.652L407.634 260.143L365.824 260.355L373.564 224.204Z" fill="#E6F4F9"/>
<path d="M377.792 226.983L402.108 226.631L409.309 263.713L370.053 264.032L377.792 226.983Z" stroke="#264385" stroke-width="1.75" stroke-linejoin="round"/>
<path d="M295.085 164.536C318.569 149.416 320.65 128.319 317.599 120.14C313.283 108.557 303.276 112.434 307.259 119.608C313.676 131.151 369.841 123.711 373.431 84.4742C377.022 45.2377 356.316 35.0912 343.936 29.3331C329.062 22.4047 292.385 20.8688 273.661 41.6406C255.895 61.3552 253.913 101.915 296.747 114.482" stroke="#0071BC" stroke-width="3" stroke-miterlimit="10" stroke-linecap="round"/>
<path fill-rule="evenodd" clip-rule="evenodd" d="M320.125 37.2528C320.149 37.4504 320.133 37.6507 320.079 37.8423C320.025 38.0338 319.934 38.2128 319.81 38.3687C319.686 38.5246 319.533 38.6542 319.359 38.7503C319.184 38.8464 318.993 38.907 318.795 38.9284C315.424 39.3274 313.083 42.1334 311.66 46.3356C310.365 50.5296 309.913 54.9385 310.331 59.3081C310.368 59.7029 310.25 60.0967 310.002 60.4059C309.754 60.7151 309.394 60.9152 309.001 60.9637C308.602 61.0007 308.204 60.8781 307.895 60.6226C307.586 60.3672 307.391 59.9997 307.352 59.6006C306.9 54.8026 307.411 49.9626 308.855 45.3647C310.41 40.7835 313.363 36.5281 318.502 35.923C318.892 35.8911 319.28 36.0119 319.582 36.26C319.885 36.5081 320.08 36.8641 320.125 37.2528Z" fill="#0071BC"/>
<path fill-rule="evenodd" clip-rule="evenodd" d="M327.193 41.7004C325.391 39.5528 322.685 38.4755 318.802 38.9276C318.604 38.9517 318.403 38.9364 318.211 38.8825C318.019 38.8286 317.84 38.737 317.684 38.6134C317.527 38.4897 317.397 38.3364 317.3 38.1621C317.203 37.9878 317.142 37.796 317.12 37.5978C317.097 37.4004 317.113 37.2004 317.167 37.0092C317.221 36.818 317.313 36.6394 317.436 36.4837C317.56 36.328 317.713 36.1983 317.887 36.1019C318.061 36.0056 318.252 35.9445 318.449 35.9222C323.104 35.3703 326.927 36.6736 329.507 39.7521C332.087 42.8307 333.184 47.1858 333.244 52.5317C333.247 52.9326 333.092 53.3188 332.811 53.6054C332.531 53.892 332.149 54.0558 331.748 54.061C331.347 54.0628 330.962 53.9068 330.676 53.6268C330.39 53.3468 330.225 52.9653 330.218 52.565C330.165 47.5582 329.061 43.9345 327.193 41.7004Z" fill="#0071BC"/>
<path fill-rule="evenodd" clip-rule="evenodd" d="M345.758 60.2511C347.054 71.3418 346.808 83.5562 345.758 96.3092C345.757 96.6896 345.613 97.0556 345.354 97.3342C345.095 97.6128 344.741 97.7835 344.361 97.812C328.306 99.0738 312.187 99.3092 296.102 98.5168C295.613 98.4742 295.142 98.3101 294.732 98.0395C294.322 97.769 293.986 97.4006 293.755 96.9675C293.361 96.3141 293.133 95.5746 293.09 94.8132C292.149 83.7558 292.013 72.6447 292.684 61.5676C292.701 60.8411 292.997 60.1491 293.511 59.6352C294.025 59.1213 294.717 58.8252 295.444 58.8083L300.969 58.5622C301.168 58.5524 301.366 58.582 301.553 58.6494C301.74 58.7168 301.912 58.8205 302.058 58.9547C302.205 59.0889 302.323 59.2509 302.407 59.4312C302.49 59.6114 302.537 59.8064 302.545 60.005C302.555 60.2035 302.525 60.402 302.458 60.5889C302.39 60.7758 302.287 60.9475 302.152 61.0941C302.018 61.2406 301.856 61.3592 301.676 61.4428C301.496 61.5263 301.301 61.5733 301.102 61.5809L295.696 61.8269C295.038 72.7602 295.176 83.727 296.109 94.6403C296.112 94.6712 296.112 94.7024 296.109 94.7333C296.109 94.7333 296.109 94.7334 296.109 94.7866C296.116 94.8482 296.132 94.9085 296.155 94.9661C296.196 95.1111 296.256 95.2499 296.335 95.3784L296.414 95.4914C311.885 96.2402 327.386 96.0382 342.832 94.8864C343.783 82.6853 343.962 71.1158 342.746 60.6501L308.802 60.9559C308.401 60.9577 308.016 60.8006 307.73 60.5189C307.445 60.2373 307.283 59.8542 307.279 59.4532C307.277 59.255 307.315 59.0583 307.389 58.8745C307.463 58.6907 307.573 58.5234 307.712 58.382C307.851 58.2406 308.016 58.128 308.199 58.0505C308.381 57.9731 308.577 57.9323 308.775 57.9306L342.898 57.6247C343.624 57.5994 344.331 57.8606 344.866 58.352C345.401 58.8434 345.721 59.5256 345.758 60.2511Z" fill="#0071BC"/>
<path fill-rule="evenodd" clip-rule="evenodd" d="M322.306 74.1151C322.289 73.8493 322.218 73.5896 322.099 73.3515C321.979 73.1134 321.813 72.9016 321.611 72.7287C321.408 72.5558 321.173 72.4253 320.919 72.3448C320.665 72.2642 320.397 72.2355 320.132 72.26C319.867 72.2373 319.601 72.2677 319.348 72.3495C319.095 72.4312 318.861 72.5627 318.66 72.7361C318.459 72.9096 318.294 73.1216 318.176 73.3595C318.057 73.5974 317.988 73.8565 317.971 74.1216C317.98 74.4354 318.071 74.7415 318.234 75.0096C318.397 75.2777 318.627 75.4988 318.902 75.651L319.514 76.0234V82.5462C319.513 82.6276 319.528 82.7084 319.559 82.7838C319.59 82.8593 319.635 82.9279 319.693 82.9855C319.75 83.043 319.819 83.0885 319.894 83.1192C319.97 83.15 320.051 83.1654 320.132 83.1645C320.217 83.1699 320.302 83.158 320.382 83.1294C320.462 83.1009 320.535 83.0563 320.598 82.9984C320.66 82.9406 320.71 82.8707 320.744 82.7929C320.778 82.7152 320.796 82.6312 320.797 82.5462V75.9967L321.415 75.631C321.682 75.4764 321.904 75.2557 322.06 74.9901C322.216 74.7245 322.301 74.4232 322.306 74.1151ZM320.125 69.74C321.329 69.6969 322.5 70.1336 323.382 70.9541C324.263 71.7745 324.783 72.9116 324.826 74.1151C324.823 74.736 324.683 75.3484 324.416 75.9091C324.15 76.4698 323.763 76.9651 323.284 77.3598V82.5462C323.283 82.9598 323.2 83.369 323.041 83.7507C322.882 84.1324 322.649 84.4789 322.355 84.7705C322.062 85.062 321.714 85.2928 321.331 85.4496C320.949 85.6065 320.539 85.6863 320.125 85.6845C319.293 85.6845 318.495 85.3538 317.906 84.7653C317.318 84.1767 316.987 83.3785 316.987 82.5462V77.3731C316.508 76.9765 316.122 76.4798 315.856 75.9182C315.589 75.3565 315.449 74.7433 315.444 74.1216C315.461 73.5243 315.595 72.9363 315.839 72.391C316.084 71.8457 316.433 71.3541 316.868 70.9445C317.303 70.5348 317.815 70.2152 318.374 70.0039C318.933 69.7927 319.528 69.6939 320.125 69.7134V69.74Z" fill="#0071BC"/>
</svg>
