<svg width="532" height="360" viewBox="0 0 532 360" fill="none" xmlns="http://www.w3.org/2000/svg">
<circle cx="247" cy="182" r="93" fill="white"/>
<path d="M176.393 104.893C183.012 119.645 178.944 128.015 164.012 134.827C149.08 141.639 125.927 137.778 108.774 130.85C96.7008 125.973 85.7058 120.477 71.2994 109.446C56.8929 98.4157 47.1245 85.5556 39.2448 73.0442C24.4168 49.5 18.721 35.502 15.7207 8.99967" stroke="#E52600" stroke-width="1.5" stroke-linecap="round"/>
<path d="M304.192 86.4983C227.147 48.2478 176.404 94.3284 158.049 125.235C127.25 177.092 146.779 293.239 261.989 289.931C388.795 286.29 393.731 101.858 299.316 79.4352C227.795 62.4517 261.905 125.587 299.224 142.11C321.626 152.028 386.974 161.766 460.608 152.294C472.098 150.392 491.222 143.166 487.14 125.235C482.154 103.331 455.506 108.36 438.158 125.235C420.81 142.11 399.369 190.99 487.14 215.027C524.387 225.228 510.101 222.167 530 225.228" stroke="#E52600" stroke-width="1.5" stroke-linecap="round"/>
<path d="M531 272C512.854 274.606 495.269 280.651 478.433 287.954C466.196 293.263 457.949 300.299 450.309 311.042C442.733 321.695 436.562 335.715 437.617 349.132M395 349.132C404.198 344.148 414.208 340.371 424.071 337.995C441.63 333.764 457.383 335.166 472.523 345.318C473.855 346.211 475.198 347.216 476.5 348.317" stroke="#E52600" stroke-width="1.5" stroke-linecap="round"/>
<path fill-rule="evenodd" clip-rule="evenodd" d="M288.346 297.524C316.578 286.004 327.458 219.465 292.488 189.765C255.815 158.619 192.033 166.237 175.613 190.866C175.613 190.866 162.874 201.55 155.195 233.543C147.517 265.536 253.829 311.61 288.346 297.524Z" fill="#284B9B"/>
<path fill-rule="evenodd" clip-rule="evenodd" d="M221.549 100.196C212.986 99.3914 212.829 77.178 239.799 73.9344C266.114 70.7686 266.473 83.9121 275.886 86.4224C285.3 88.9328 298.48 80.2103 308.521 91.1936C318.563 102.176 309.149 114.728 313.228 121.318C317.308 127.908 328.471 128.705 334.347 137.593C342.23 149.519 333.822 170.421 317.391 171.264C303.303 171.986 300.776 165.124 291.384 163.678C282.09 162.249 275.671 166.207 263.21 163.678C246.15 160.458 243.879 137.008 243.879 137.008L221.549 100.196Z" fill="#AA0A0A"/>
<path fill-rule="evenodd" clip-rule="evenodd" d="M257.919 117.594C266.587 116.181 268.321 119.414 267.529 123.906C266.736 128.398 263.186 128.522 257.637 128.522C257.105 133.387 255.753 140.676 254.05 146.544C253.786 157.378 252.878 178.517 252.349 179.31C249.179 183.009 235.553 181.159 233.704 175.61C233.44 174.025 238.988 149.978 238.988 149.978C232.882 155.652 217.289 158.162 213.691 137.824C209.845 116.071 219.998 99.8304 219.998 99.8304C225.734 99.7962 234.314 89.5703 234.314 89.5703C234.579 96.7049 243.738 111.596 257.919 117.594Z" fill="#BC5724"/>
<path fill-rule="evenodd" clip-rule="evenodd" d="M162.42 280.339L247.58 282.524L257.169 177.578L153.117 179.302L162.42 280.339Z" fill="#F5F5F0"/>
<path fill-rule="evenodd" clip-rule="evenodd" d="M253.187 180.971C253.489 181.29 253.64 181.723 253.6 182.16L244.447 282.663C244.375 283.452 243.711 284.055 242.918 284.05L163.737 283.542C162.953 283.537 162.3 282.938 162.228 282.156L153.348 185.924C153.31 185.507 153.444 185.093 153.721 184.778C153.997 184.463 154.39 184.276 154.809 184.259L252.021 180.497C252.46 180.48 252.885 180.653 253.187 180.971ZM156.535 187.246L165.139 280.499L241.536 280.99L250.403 183.614L156.535 187.246Z" fill="#323264"/>
<path fill-rule="evenodd" clip-rule="evenodd" d="M250.405 268.215C248.39 264.664 234.281 251.022 219.205 252.507C218.326 256.379 230.337 255.402 231.15 261.26C219.963 262.055 209.161 255.599 205.632 256.634C202.102 257.669 214.131 264.401 223.391 265.27C211.638 266.258 204.17 258.694 202.983 260.382C201.564 262.396 211.323 269.768 221.701 270.243C215.725 271.443 204.911 265.014 203.953 267.193C203.463 268.308 206.939 272.456 220.521 274.887C212.694 276.112 207.309 270.897 206.971 273.875C206.739 275.915 226.905 281.169 243.113 278.759C246.213 278.78 248.723 280.25 250.705 279.871C253.948 279.252 253.344 272.827 250.405 268.215Z" fill="#BC5724"/>
<path fill-rule="evenodd" clip-rule="evenodd" d="M163.917 266.706C160.245 270.106 149.093 263.986 150.181 252.154C151.269 240.322 165.413 233.25 168.405 233.25C171.397 233.25 161.605 240.322 160.245 242.498C158.885 244.674 158.069 246.035 158.069 246.035C160.381 243.45 170.853 234.066 172.622 235.562C174.389 237.058 161.741 247.394 161.333 249.298C163.509 247.802 171.805 239.37 173.165 240.866C174.526 242.362 162.829 252.018 163.646 252.97C167.181 251.882 171.941 245.49 173.029 246.714C174.117 247.938 167.861 254.874 165.005 257.594C164.733 258.954 163.917 266.706 163.917 266.706Z" fill="#BC5724"/>
<path d="M220.755 105.75C219.071 105.627 217.626 106.125 217.089 106.577C216.544 107.036 215.731 106.966 215.272 106.422C214.813 105.877 214.883 105.063 215.428 104.605C216.639 103.585 218.829 103.024 220.942 103.177C223.123 103.336 225.544 104.279 227.018 106.661L227.189 106.936L227.209 107.258C227.229 107.576 227.164 107.914 227.109 108.162C227.045 108.447 226.952 108.777 226.843 109.135C226.623 109.851 226.311 110.753 225.95 111.763C225.793 112.204 225.626 112.666 225.453 113.146L225.273 113.645C224.939 114.567 224.586 115.544 224.23 116.549C223.964 117.302 223.697 118.07 223.437 118.841C222.58 121.379 221.826 123.869 221.452 125.844C221.264 126.837 221.185 127.634 221.213 128.21C221.235 128.654 221.312 128.819 221.328 128.855L221.33 128.859C221.526 129.008 221.902 129.134 222.566 129.107C223.241 129.079 224.032 128.899 224.826 128.642C225.61 128.388 226.34 128.079 226.878 127.829C227.146 127.706 227.363 127.598 227.51 127.523C227.584 127.486 227.641 127.456 227.678 127.437L227.718 127.415L227.726 127.411C228.351 127.07 229.135 127.3 229.476 127.925C229.818 128.55 229.586 129.334 228.961 129.675L228.959 129.676L228.954 129.679L228.938 129.687L228.882 129.717C228.834 129.742 228.766 129.778 228.68 129.822C228.508 129.909 228.262 130.031 227.961 130.17C227.363 130.447 226.533 130.8 225.62 131.096C224.718 131.388 223.676 131.642 222.671 131.683C221.688 131.724 220.54 131.566 219.642 130.81C218.868 130.158 218.676 129.141 218.637 128.335C218.595 127.464 218.715 126.438 218.918 125.364C219.328 123.204 220.13 120.573 220.993 118.016C221.61 116.189 222.271 114.361 222.858 112.739L222.858 112.739L222.935 112.525C223.143 111.951 223.34 111.405 223.521 110.896C223.881 109.889 224.176 109.034 224.377 108.378C224.468 108.083 224.534 107.843 224.578 107.658C223.645 106.425 222.233 105.857 220.755 105.75Z" fill="#323264"/>
<path fill-rule="evenodd" clip-rule="evenodd" d="M238.762 108.614C236.865 108.675 235.229 109.457 234.553 110.196C234.073 110.722 233.257 110.759 232.731 110.279C232.206 109.799 232.169 108.983 232.649 108.457C233.907 107.08 236.274 106.113 238.68 106.036C241.155 105.957 243.912 106.813 245.783 109.4C246.2 109.977 246.071 110.783 245.494 111.2C244.917 111.618 244.111 111.488 243.693 110.911C242.435 109.172 240.59 108.555 238.762 108.614Z" fill="#323264"/>
<path fill-rule="evenodd" clip-rule="evenodd" d="M225.409 133.504C226.122 133.518 226.687 134.107 226.673 134.819C226.617 137.685 227.975 138.621 228.664 138.677C229.026 138.706 229.502 138.568 229.973 138.008C230.459 137.432 230.931 136.401 231.096 134.756C231.167 134.048 231.799 133.531 232.508 133.602C233.217 133.673 233.733 134.306 233.662 135.014C233.462 137.008 232.861 138.583 231.946 139.669C231.018 140.772 229.767 141.353 228.456 141.247C225.798 141.033 224.025 138.286 224.095 134.768C224.109 134.056 224.697 133.49 225.409 133.504Z" fill="#323264"/>
<path fill-rule="evenodd" clip-rule="evenodd" d="M238.7 114.184C238.7 115.596 238.108 116.599 237.432 116.599C236.757 116.599 236.162 115.701 236.162 114.289C236.162 112.877 236.795 112.133 237.471 112.133C238.147 112.133 238.7 112.771 238.7 114.184Z" fill="#323264"/>
<path fill-rule="evenodd" clip-rule="evenodd" d="M221.421 111.219C221.421 112.631 220.828 113.634 220.153 113.634C219.478 113.634 218.883 112.736 218.883 111.324C218.883 109.911 219.516 109.168 220.192 109.168C220.867 109.168 221.421 109.807 221.421 111.219Z" fill="#323264"/>
<path fill-rule="evenodd" clip-rule="evenodd" d="M272.778 182.143C271.815 182.991 271.087 184.381 270.864 186.513C270.192 192.943 271.832 200.587 274.065 210.995L274.118 211.244C276.36 221.692 279.11 234.663 280.371 251.338L280.371 251.338C280.807 257.115 279.619 261.057 277.367 263.857C275.156 266.606 272.082 268.037 269.266 269.143C268.652 269.385 268.057 269.609 267.483 269.826C265.293 270.652 263.403 271.365 261.906 272.465C261.014 273.121 260.325 273.878 259.86 274.831C259.393 275.785 259.107 277.026 259.153 278.709L257.933 278.743L259.153 278.709C259.218 281.074 260.361 283.375 262.504 285.513C264.654 287.658 267.744 289.566 271.491 291.086C278.986 294.125 288.829 295.494 298.182 294.278C307.54 293.061 316.207 289.289 321.615 282.265C326.989 275.285 329.369 264.801 325.582 249.656C317.914 218.982 304.13 198.741 292.174 188.578C286.156 183.463 280.777 181.046 276.981 180.899C275.121 180.826 273.739 181.297 272.778 182.143ZM294.15 186.253C306.684 196.907 320.752 217.753 328.543 248.916C332.486 264.688 330.13 276.208 324.033 284.126C317.97 292.001 308.43 296.022 298.576 297.304C288.717 298.586 278.342 297.157 270.344 293.914C266.344 292.292 262.868 290.187 260.349 287.674C257.824 285.154 256.195 282.151 256.103 278.793C256.045 276.713 256.396 274.967 257.118 273.491C257.841 272.011 258.892 270.893 260.1 270.006C261.97 268.632 264.375 267.729 266.608 266.891C267.134 266.693 267.651 266.499 268.15 266.303C270.899 265.222 273.313 264.028 274.989 261.944C276.624 259.912 277.724 256.811 277.328 251.568C276.083 235.113 273.372 222.313 271.135 211.884C271.085 211.653 271.036 211.424 270.987 211.195C268.836 201.174 267.106 193.114 267.829 186.196L267.829 186.196C268.109 183.518 269.079 181.334 270.762 179.852C272.448 178.369 274.661 177.755 277.099 177.849C281.897 178.036 287.923 180.96 294.15 186.253Z" fill="#E52600"/>
</svg>
