<svg width="532" height="360" viewBox="0 0 532 360" fill="none" xmlns="http://www.w3.org/2000/svg">
<circle cx="247" cy="182" r="93" fill="white"/>
<path d="M176.393 104.893C183.012 119.645 178.944 128.015 164.012 134.827C149.08 141.639 125.927 137.778 108.774 130.85C96.7008 125.973 85.7058 120.477 71.2994 109.446C56.8929 98.4157 47.1245 85.5556 39.2448 73.0442C24.4168 49.5 18.721 35.502 15.7207 8.99967" stroke="#E52600" stroke-width="1.5" stroke-linecap="round"/>
<path d="M304.192 86.4983C227.147 48.2478 176.404 94.3284 158.049 125.235C127.25 177.092 146.779 293.239 261.989 289.931C388.795 286.29 393.731 101.858 299.316 79.4352C227.795 62.4517 261.905 125.587 299.224 142.11C321.626 152.028 386.974 161.766 460.608 152.294C472.098 150.392 491.222 143.166 487.14 125.235C482.154 103.331 455.506 108.36 438.158 125.235C420.81 142.11 399.369 190.99 487.14 215.027C524.387 225.228 510.101 222.167 530 225.228" stroke="#E52600" stroke-width="1.5" stroke-linecap="round"/>
<path d="M531 272C512.854 274.606 495.269 280.651 478.433 287.954C466.196 293.263 457.949 300.299 450.309 311.042C442.733 321.695 436.562 335.715 437.617 349.132M395 349.132C404.198 344.148 414.208 340.371 424.071 337.995C441.63 333.764 457.383 335.166 472.523 345.318C473.855 346.211 475.198 347.216 476.5 348.317" stroke="#E52600" stroke-width="1.5" stroke-linecap="round"/>
<path fill-rule="evenodd" clip-rule="evenodd" d="M359.028 242.141V103.721C359.028 103.402 359.316 103.09 359.672 103.09L361.652 103.09C363.111 103.09 364.275 104.272 364.275 105.731V242.123L364.275 242.141L364.275 246.076C364.275 248.265 362.519 250.012 360.352 250.012H197.664C195.485 250.012 193.741 248.25 193.741 246.076V242.141H359.028Z" fill="#0082AA"/>
<path fill-rule="evenodd" clip-rule="evenodd" d="M364.276 242.143L364.276 246.078C364.276 248.267 362.519 250.013 360.352 250.013H197.665C195.485 250.013 193.741 248.251 193.741 246.078V242.143H359.028V103.723C359.028 103.404 359.316 103.092 359.672 103.092H361.652C362.306 103.092 362.901 103.329 363.359 103.723C363.921 104.208 364.276 104.928 364.276 105.733V242.125L364.276 242.143ZM351.101 234.215V103.723C351.101 99.1226 354.842 95.1641 359.672 95.1641H361.652C367.56 95.1641 372.203 99.9667 372.203 105.733V242.138L372.203 242.156L372.203 246.078C372.203 252.642 366.901 257.941 360.352 257.941H197.665C191.066 257.941 185.814 252.589 185.814 246.078V234.215H351.101Z" fill="#0082AA"/>
<path fill-rule="evenodd" clip-rule="evenodd" d="M210.795 250.667V254.602C210.795 254.612 210.795 254.621 210.795 254.631C210.81 256.791 212.548 258.538 214.718 258.538H377.406C379.573 258.538 381.329 256.791 381.329 254.602L381.329 250.667L381.329 250.649V114.258C381.329 112.799 380.165 111.616 378.706 111.616H376.725C376.37 111.616 376.082 111.928 376.082 112.248V250.667H210.795ZM372.118 246.703H206.831V254.602C206.831 258.945 210.329 262.502 214.718 262.502H377.406C381.763 262.502 385.293 258.979 385.293 254.602L385.293 250.667L385.293 250.662L385.293 250.649L385.293 114.258C385.293 110.645 382.389 107.652 378.706 107.652H376.725C374.133 107.652 372.118 109.788 372.118 112.248V246.703Z" fill="#284B9B"/>
<rect width="2.55801" height="7.8708" transform="matrix(-1 0 0 1 376.11 250.668)" fill="#284B9B"/>
<path fill-rule="evenodd" clip-rule="evenodd" d="M258.801 194.306L258.475 194.359C258.483 194.366 258.499 194.375 258.505 194.382L258.801 194.306Z" fill="#9B5A19"/>
<path fill-rule="evenodd" clip-rule="evenodd" d="M293.109 202.843L274.938 191.62L262.589 192.034L257.748 193.624L253.396 194.706C254.638 195.962 262.148 200.778 266.439 203.221C270.042 205.272 273.523 206.718 274.84 205.825L277.216 206.476C282.317 209.336 287.168 211.228 289.438 209.836L289.687 209.359C294.933 212.409 299.451 214.384 301.07 213.31C305.785 210.192 293.109 202.843 293.109 202.843Z" fill="#9B5A19"/>
<path fill-rule="evenodd" clip-rule="evenodd" d="M266.229 192.444C265.697 192.054 265.289 191.755 265.027 191.567C264.436 191.141 263.611 191.275 263.185 191.866C262.76 192.457 262.894 193.282 263.485 193.708C263.736 193.888 264.132 194.179 264.652 194.56C267.553 196.686 274.31 201.639 281.157 206.105C285.19 208.737 289.298 211.228 292.697 212.882C294.391 213.707 295.963 214.35 297.293 214.688C297.957 214.857 298.61 214.963 299.213 214.957C299.811 214.951 300.461 214.835 301.024 214.462C301.878 213.896 302.429 213.11 302.577 212.152C302.716 211.253 302.472 210.373 302.114 209.611C301.405 208.104 300.012 206.562 298.605 205.238C297.168 203.887 295.591 202.647 294.384 201.752C293.778 201.302 293.26 200.935 292.893 200.68C292.709 200.553 292.562 200.453 292.461 200.385L292.343 200.306L292.312 200.285L292.3 200.277C292.3 200.277 292.299 200.276 291.573 201.378L292.3 200.277C291.692 199.876 290.873 200.043 290.471 200.651C290.07 201.259 290.238 202.077 290.846 202.479L290.853 202.483L290.879 202.5L290.984 202.571C291.077 202.634 291.214 202.728 291.389 202.848C291.737 203.09 292.232 203.44 292.812 203.871C293.976 204.734 295.464 205.906 296.797 207.16C298.159 208.442 299.241 209.701 299.726 210.734C299.965 211.242 299.998 211.567 299.969 211.75C299.95 211.874 299.89 212.048 299.567 212.262C299.568 212.262 299.567 212.262 299.567 212.262C299.567 212.262 299.474 212.316 299.188 212.318C298.891 212.321 298.48 212.268 297.943 212.131C296.868 211.858 295.482 211.303 293.852 210.51C290.603 208.929 286.605 206.509 282.598 203.896C275.825 199.477 269.152 194.587 266.229 192.444Z" fill="#323264"/>
<path fill-rule="evenodd" clip-rule="evenodd" d="M273.355 202.869C266.917 198.75 260.777 193.895 259.317 192.65C258.763 192.177 257.93 192.242 257.457 192.797C256.984 193.351 257.05 194.184 257.604 194.657C259.146 195.972 265.382 200.9 271.933 205.091C275.205 207.184 278.607 209.127 281.569 210.337C283.047 210.942 284.471 211.386 285.748 211.558C287.001 211.727 288.296 211.657 289.352 211.012C289.973 210.632 290.169 209.819 289.789 209.198C289.408 208.576 288.596 208.381 287.975 208.761C287.668 208.949 287.091 209.077 286.1 208.943C285.133 208.813 283.941 208.456 282.567 207.895C279.824 206.774 276.578 204.931 273.355 202.869Z" fill="#323264"/>
<path fill-rule="evenodd" clip-rule="evenodd" d="M118.719 243.473L182.158 220.125C201.603 231.941 257.203 218.364 257.203 218.364C259.789 209.312 231.422 212.484 226.902 208.896C232.331 198.215 270.905 193.223 270.905 193.223C278.731 196.426 307.97 211.702 310.619 207.159C312.873 203.359 275.827 181.54 275.827 181.54C268.314 177.316 225.488 177.926 195.412 185.283C165.337 192.641 118.719 197.449 118.719 197.449" fill="#BC5724"/>
<path fill-rule="evenodd" clip-rule="evenodd" d="M226.125 208.841C226.62 209.377 227.454 209.41 227.99 208.916C230.777 206.342 234.748 204.12 239.221 202.238C243.679 200.362 248.556 198.856 253.092 197.682C257.625 196.509 261.797 195.672 264.835 195.129C266.353 194.857 267.587 194.659 268.44 194.529C268.859 194.465 269.185 194.418 269.408 194.386C271.036 195.069 273.418 196.179 276.259 197.503C276.803 197.757 277.364 198.018 277.939 198.286C281.706 200.037 286.066 202.042 290.345 203.83C294.614 205.615 298.851 207.204 302.365 208.108C304.119 208.559 305.747 208.853 307.138 208.9C308.482 208.945 309.842 208.769 310.842 208.025C311.426 207.591 311.548 206.764 311.113 206.179C310.678 205.595 309.851 205.474 309.267 205.909C309 206.107 308.391 206.302 307.226 206.263C306.108 206.226 304.689 205.981 303.023 205.552C299.696 204.697 295.599 203.167 291.362 201.396C287.135 199.629 282.816 197.644 279.052 195.893C278.484 195.629 277.928 195.37 277.387 195.118C274.358 193.706 271.774 192.502 270.083 191.81C269.87 191.723 269.639 191.693 269.411 191.723L269.583 193.031C269.411 191.723 269.412 191.722 269.411 191.723L269.404 191.723L269.386 191.726L269.317 191.735C269.256 191.743 269.167 191.756 269.051 191.772C268.819 191.805 268.478 191.854 268.042 191.921C267.17 192.053 265.914 192.255 264.37 192.531C261.285 193.083 257.046 193.933 252.431 195.128C247.82 196.321 242.812 197.864 238.198 199.806C233.598 201.741 229.31 204.106 226.2 206.977C225.664 207.471 225.631 208.306 226.125 208.841Z" fill="#323264"/>
</svg>
