<svg width="160" height="160" viewBox="0 0 160 160" fill="none" xmlns="http://www.w3.org/2000/svg">
<g clip-path="url(#clip0_4323_6462)">
<path fill-rule="evenodd" clip-rule="evenodd" d="M160 0V160C115.817 160 80 124.183 80 80C80 36.259 115.104 0.717181 158.677 0.0107177L160 0Z" fill="#C2E8FF"/>
<path fill-rule="evenodd" clip-rule="evenodd" d="M92.2812 41.3197L95.0881 61.2916L159.898 49.8058L156.709 29.5026L150.371 30.3934L148.822 19.3703C148.705 18.5386 147.95 17.9574 147.135 18.0719L99.5675 25.4418C98.7525 25.5564 98.1868 26.3232 98.3037 27.1549L100.133 40.1697C100.133 40.1697 92.2609 41.3223 92.2812 41.3197Z" fill="#F9F9F6"/>
<path fill-rule="evenodd" clip-rule="evenodd" d="M164.026 140.647L109.945 148.247L95.7305 54.1992L152.066 46.2818L164.026 140.647Z" fill="#E52600"/>
<path fill-rule="evenodd" clip-rule="evenodd" d="M103.883 28.7173L143.882 22.3259C145.349 22.0933 146.718 23.1059 146.925 24.575L148.229 33.8604L151.914 33.3434C153.375 33.1381 154.731 34.1099 155.013 35.5369L155.04 35.6914L156.958 49.3434C157.171 50.854 156.114 52.2493 154.637 52.4563L93.9036 63.0107C92.391 63.2233 90.9907 62.1733 90.7784 60.6626L88.7207 46.0211C88.5084 44.5104 89.5644 43.1152 91.077 42.9027L91.557 42.8345L93.5285 42.5454L95.9248 42.1826L94.6045 32.9369C94.4055 31.5209 95.3283 30.2029 96.708 29.8916L96.8631 29.8612L103.883 28.7173ZM144.724 24.8842C144.69 24.6457 144.47 24.4827 144.23 24.5207L113.11 29.4849L97.2283 32.0533C96.9524 32.0992 96.7664 32.3527 96.8047 32.6251L98.4365 44.0459L97.3506 44.2135L92.9949 44.871L91.3862 45.1033C91.0869 45.1453 90.8801 45.4186 90.9213 45.7118L92.979 60.3534C93.0202 60.6463 93.2947 60.8522 93.5587 60.8157L154.292 50.2613C154.592 50.2192 154.799 49.9457 154.758 49.6527L152.839 36.0007C152.798 35.7078 152.523 35.5019 152.224 35.544L146.338 36.3711L144.724 24.8842Z" fill="#AA0A0A"/>
<path d="M146.787 34.0107L147.133 36.2057L96.4668 44.2057L96.1202 42.0107L146.787 34.0107Z" fill="#AA0A0A"/>
<path fill-rule="evenodd" clip-rule="evenodd" d="M153.069 123.01L109.8 129.872L100.877 71.8828L145.769 65.5736L153.069 123.01Z" fill="#F9F9F6"/>
<path fill-rule="evenodd" clip-rule="evenodd" d="M117.359 114.193L113.083 114.819L109.006 86.6916L113.283 86.0664L117.359 114.193Z" fill="#323264"/>
<path fill-rule="evenodd" clip-rule="evenodd" d="M133.359 112.416L129.083 113.041L125.006 84.9143L129.283 84.2891L133.359 112.416Z" fill="#323264"/>
<path fill-rule="evenodd" clip-rule="evenodd" d="M139.592 110.773L137.094 111.136L132.996 83.0003L135.494 82.637L139.592 110.773Z" fill="#323264"/>
<path fill-rule="evenodd" clip-rule="evenodd" d="M144.036 109.886L141.538 110.249L137.44 82.1135L139.938 81.7503L144.036 109.886Z" fill="#323264"/>
<path fill-rule="evenodd" clip-rule="evenodd" d="M122.703 114.327L120.205 114.691L116.107 86.5549L118.605 86.1916L122.703 114.327Z" fill="#323264"/>
</g>
<defs>
<clipPath id="clip0_4323_6462">
<path d="M0 0H152C156.418 0 160 3.58172 160 8V160H0V0Z" fill="white"/>
</clipPath>
</defs>
</svg>
