<svg width="160" height="160" viewBox="0 0 160 160" fill="none" xmlns="http://www.w3.org/2000/svg">
<g clip-path="url(#clip0_4323_15255)">
<path fill-rule="evenodd" clip-rule="evenodd" d="M160 0V160C115.817 160 80 124.183 80 80C80 36.259 115.104 0.717181 158.677 0.0107177L160 0Z" fill="#C2E8FF"/>
<mask id="mask0_4323_15255" style="mask-type:alpha" maskUnits="userSpaceOnUse" x="49" y="0" width="160" height="160">
<rect x="49" width="160" height="160" fill="white"/>
</mask>
<g mask="url(#mask0_4323_15255)">
<path fill-rule="evenodd" clip-rule="evenodd" d="M90.8431 18.3651C101.405 8.08261 121.125 17.2844 119.638 33.8274C126.737 18.6561 150.016 17.5272 155.138 34.6611C161.548 56.1035 125.528 83.4493 108.056 89.5946C100.77 79.2036 74.7234 34.0591 90.8431 18.3651Z" fill="#E52600"/>
<path fill-rule="evenodd" clip-rule="evenodd" d="M91.6491 15.9112C99.602 12.2286 108.525 13.7062 114.99 21.7563C117.034 24.3009 118.624 27.3113 119.655 30.4603L119.822 30.9863L119.947 31.4057L120.289 31.1442C122.904 29.1729 125.798 27.5248 128.789 26.3854L129.35 26.1777L129.883 25.9928C138.796 22.9938 147.832 26.417 151.774 34.2686C155.99 42.6694 150.743 54.1913 139.304 65.3987L138.496 66.1801C136.86 67.7416 135.105 69.2955 133.239 70.8323C125.769 76.9869 118.729 81.8072 112.33 85.445L111.816 85.7353L110.815 86.2906C109.666 86.9189 108.589 87.4794 107.587 87.975L106.746 88.3839L106.04 88.7164L105.48 88.9723L104.971 89.1973L104.385 89.4454L104.165 89.5335C103.771 89.6854 103.324 89.539 103.097 89.1831L102.336 87.9751L101.344 86.3719L100.746 85.3935L99.8002 83.83C97.3307 79.7193 94.8611 75.4076 92.5552 71.1005C91.1988 68.5669 89.9384 66.1064 88.7925 63.7422L88.493 63.1211L87.9121 61.8965L87.3556 60.6959L86.8238 59.5198L86.3173 58.3685C84.8357 54.9525 83.6993 51.8787 82.9553 49.2032C78.8152 34.3148 82.2206 20.2776 91.6491 15.9112ZM113.604 22.8695C107.683 15.4975 99.6474 14.1667 92.3961 17.5245C83.9193 21.45 80.7341 34.5797 84.6681 48.7269C85.3496 51.1778 86.3799 53.9959 87.7184 57.1271L88.2036 58.2451L88.7139 59.3886L89.2491 60.5571L89.8087 61.75C89.9992 62.1517 90.1938 62.5573 90.3923 62.9669C91.5272 65.3084 92.7769 67.7479 94.1225 70.2614C96.4133 74.5404 98.8687 78.8273 101.324 82.9145L102.264 84.4688L103.425 86.3598L104.196 87.5951L104.502 87.4618L105.294 87.1028L105.583 86.9676L105.98 86.7795L106.802 86.3797C107.502 86.0335 108.241 85.6545 109.016 85.2415L109.964 84.7295C110.447 84.4653 110.943 84.1887 111.452 83.8996C117.763 80.3114 124.718 75.5489 132.109 69.4602L132.998 68.7193C133.144 68.5956 133.29 68.4719 133.435 68.348L134.297 67.6041L135.14 66.8585C135.279 66.7341 135.418 66.6096 135.555 66.4851L136.37 65.7375C138.385 63.867 140.221 61.9871 141.865 60.1162L142.512 59.3684C150.261 50.2771 153.394 41.4606 150.185 35.0662C146.65 28.0258 138.543 24.9545 130.45 27.6778C127.11 28.8012 123.847 30.6286 120.96 32.869L120.422 33.2946L120.439 33.3652C121.065 36.3224 121.144 39.1606 120.653 41.4773C119.812 45.4522 117.379 47.4497 114.922 46.4593C112.609 45.5265 111.692 42.4098 112.987 39.1274C113.312 38.3014 113.984 37.2749 114.909 36.1657L115.321 35.6856C116.174 34.7167 117.204 33.6993 118.352 32.7075L118.44 32.6327C117.529 29.1069 115.858 25.6759 113.604 22.8695ZM118.495 34.9708L118.87 34.6226L118.949 35.1023C119.287 37.3192 119.276 39.3988 118.914 41.109C118.274 44.1307 116.834 45.3132 115.587 44.8105C114.279 44.2829 113.674 42.229 114.641 39.7794C115.054 38.7296 116.298 37.1147 118.015 35.4313L118.495 34.9708Z" fill="#323264"/>
<path fill-rule="evenodd" clip-rule="evenodd" d="M100.664 118.819L101.051 118.838C101.045 118.828 101.028 118.814 101.022 118.804L100.664 118.819Z" fill="#9B5A19"/>
<path fill-rule="evenodd" clip-rule="evenodd" d="M80.7631 109.857L90.3723 118.858L97.917 120.205L101.054 119.886L103.831 119.805C103.236 118.9 99.2867 115.075 96.9915 113.072C95.0645 111.39 93.1346 110.084 92.2231 110.444L90.8634 109.751C88.1294 107.397 85.4247 105.649 83.8717 106.182L83.6605 106.433C80.8626 103.947 78.3705 102.193 77.2524 102.621C73.9987 103.863 80.7631 109.857 80.7631 109.857Z" fill="#9B5A19"/>
<path d="M87.8722 108.487L87.298 107.908L86.4647 107.079L85.6646 106.3L85.1495 105.808L84.649 105.338L84.1629 104.891L83.6912 104.466L83.2339 104.064C83.1588 103.999 83.0844 103.935 83.0105 103.872L82.5744 103.505L82.1523 103.161L81.7443 102.84C81.6774 102.789 81.6111 102.738 81.5454 102.689L81.1582 102.404C80.9046 102.221 80.6602 102.055 80.4249 101.905L80.0786 101.693C78.8339 100.957 77.8614 100.714 77.1416 101.005C75.3587 101.725 75.4131 103.471 76.5904 105.639C76.9711 106.34 77.47 107.092 78.0623 107.881C78.6054 108.604 79.1973 109.319 79.797 109.995L80.2438 110.49L80.6084 110.878C80.9161 111.195 81.4225 111.203 81.7397 110.896C82.0324 110.612 82.0616 110.158 81.8224 109.841L81.7311 109.737L81.4205 109.406L81.142 109.099C81.0937 109.045 81.0444 108.99 80.9942 108.934C80.4213 108.287 79.8562 107.605 79.3417 106.92C78.7928 106.189 78.3354 105.499 77.9965 104.875C77.2159 103.438 77.1933 102.71 77.7408 102.489C77.8943 102.427 78.2474 102.528 78.7555 102.793L79.0222 102.939L79.3135 103.112L79.6281 103.313L79.9649 103.541L80.3225 103.796C80.3838 103.841 80.4459 103.886 80.5087 103.933L80.8953 104.229C81.427 104.645 82.0009 105.126 82.6138 105.668L83.2395 106.23C83.3459 106.327 83.4534 106.425 83.5619 106.525L84.2252 107.146C84.3378 107.252 84.4514 107.361 84.566 107.47L85.2654 108.148L85.9879 108.861L86.7328 109.61L87.1796 110.066L88.0904 111.007C88.2441 111.167 88.3987 111.329 88.5541 111.492C89.8753 112.881 91.2112 114.33 92.5721 115.842L93.7986 117.213L96.1034 119.826C96.3976 120.155 96.9034 120.184 97.2329 119.89C97.5372 119.618 97.585 119.166 97.3591 118.839L97.2818 118.743L94.5855 115.691C92.9294 113.835 91.3116 112.069 89.7132 110.389C89.085 109.729 88.4709 109.095 87.8722 108.487Z" fill="#323264"/>
<path d="M93.7039 110.308L93.1742 109.774L92.6556 109.262L92.1481 108.772L91.6518 108.305C91.57 108.229 91.4887 108.154 91.4078 108.08L90.9282 107.648L90.4598 107.24L90.0026 106.856C89.852 106.732 89.7034 106.612 89.5566 106.496L89.1218 106.161C89.0502 106.108 88.9792 106.055 88.9086 106.003L88.4906 105.706C86.6352 104.428 85.1218 103.93 83.9565 104.362C83.5423 104.516 83.3311 104.976 83.4848 105.391C83.6266 105.773 84.0299 105.982 84.4168 105.891L84.5131 105.862C85.0576 105.66 85.988 105.994 87.2012 106.785L87.5554 107.024C87.6157 107.065 87.6766 107.108 87.7381 107.152L88.1144 107.427C88.1783 107.475 88.2428 107.524 88.3078 107.574L88.705 107.885C88.7723 107.939 88.8402 107.993 88.9086 108.049L89.3255 108.395L89.7548 108.763L90.196 109.154L90.6486 109.567L91.1121 110.001L91.5858 110.457L92.0694 110.933L92.5622 111.429L93.1062 111.99L93.657 112.57L94.2108 113.164L94.7638 113.768L95.3121 114.376L95.8518 114.985L96.3792 115.587L96.8903 116.18L97.6181 117.04L98.0718 117.586L98.6954 118.352C98.7605 118.433 98.8241 118.512 98.8862 118.59L99.2393 119.04L99.5511 119.447C99.5994 119.511 99.6459 119.573 99.6904 119.633C99.9533 119.988 100.454 120.063 100.809 119.8C101.164 119.537 101.239 119.036 100.976 118.681L100.678 118.285L100.336 117.845L99.9548 117.365L99.5381 116.85L99.0896 116.306L98.3657 115.445L97.592 114.544L97.055 113.93L96.5054 113.31L95.9471 112.691L95.3839 112.076C95.2899 111.974 95.1958 111.873 95.1017 111.772L94.5385 111.173L93.9801 110.591C93.8876 110.496 93.7955 110.402 93.7039 110.308Z" fill="#323264"/>
<path fill-rule="evenodd" clip-rule="evenodd" d="M191.825 107.707L150.321 113.674C140.044 104.005 104.556 105.062 104.556 105.062C101.821 110.214 119.443 111.951 121.724 114.708C117.053 120.482 93.0028 118.531 93.0028 118.531C88.6664 115.581 72.8916 102.551 70.6991 104.963C68.8414 106.975 88.5109 124.977 88.5109 124.977C92.5261 128.506 118.592 133.66 137.79 133.081C156.988 132.501 185.897 135.599 185.897 135.599" fill="#9B5A19"/>
<path d="M121.822 115.003C121.604 114.619 121.116 114.484 120.731 114.701C117.916 116.296 113.635 117.287 108.33 117.755C105.033 118.045 101.545 118.117 98.0908 118.029L97.0769 117.998L96.1114 117.96L95.1982 117.915L94.0454 117.844L93.7234 117.821L92.966 117.29L90.6186 115.607L85.496 111.913L84.505 111.216L83.5507 110.554L82.373 109.751L81.3408 109.062L80.6768 108.628L80.0321 108.213L79.4065 107.818L78.7999 107.443L78.2121 107.089C78.1157 107.031 78.0201 106.975 77.9253 106.919L77.3657 106.596L76.8247 106.293L76.3023 106.011C76.2167 105.965 76.1319 105.921 76.0479 105.878L75.553 105.627L75.0763 105.398L74.6178 105.19C72.6698 104.337 71.2293 104.092 70.256 104.516C69.8508 104.692 69.6652 105.163 69.8415 105.568C70.0042 105.942 70.4183 106.129 70.7997 106.017L70.8942 105.983C71.1958 105.852 71.6637 105.873 72.2828 106.036L72.5792 106.122C72.6816 106.154 72.7874 106.189 72.8968 106.228L73.2352 106.353C73.2933 106.376 73.3523 106.399 73.4121 106.424L73.7811 106.579C73.8443 106.606 73.9083 106.634 73.9732 106.663L74.3721 106.847L74.7905 107.051L75.2281 107.273L75.6846 107.513L76.1596 107.772L76.6528 108.05L77.1639 108.345L77.6925 108.658L78.2383 108.989L79.0886 109.518L79.676 109.892L80.2795 110.283L81.2142 110.901L82.1832 111.556L83.1122 112.196C83.2697 112.305 83.4286 112.416 83.5891 112.528L84.9204 113.468L91.4965 118.208L92.5768 118.973L93.0091 119.27C93.1207 119.344 93.2491 119.388 93.3824 119.399L93.722 119.426L94.4082 119.472L95.1113 119.512L96.0395 119.558C96.1987 119.565 96.3601 119.572 96.5236 119.579L97.5293 119.614C97.7009 119.619 97.8745 119.624 98.05 119.628C101.561 119.718 105.107 119.645 108.471 119.348C113.984 118.862 118.461 117.826 121.52 116.094C121.904 115.876 122.039 115.388 121.822 115.003Z" fill="#323264"/>
</g>
</g>
<defs>
<clipPath id="clip0_4323_15255">
<path d="M0 0H152C156.418 0 160 3.58172 160 8V160H0V0Z" fill="white"/>
</clipPath>
</defs>
</svg>
