<svg width="160" height="160" viewBox="0 0 160 160" fill="none" xmlns="http://www.w3.org/2000/svg">
<path fill-rule="evenodd" clip-rule="evenodd" d="M160 0V160C115.817 160 80 124.183 80 80C80 36.259 115.104 0.717181 158.677 0.0107177L160 0Z" fill="#C2E8FF"/>
<mask id="mask0_4323_15283" style="mask-type:alpha" maskUnits="userSpaceOnUse" x="0" y="0" width="160" height="160">
<rect width="160" height="160" fill="white"/>
</mask>
<g mask="url(#mask0_4323_15283)">
<path fill-rule="evenodd" clip-rule="evenodd" d="M148.4 100.164C148.4 100.164 157.113 106.798 159.796 114.564C162.479 122.331 153.688 111.006 152.988 115.028C152.285 119.05 156.892 126.961 157.564 133.22C158.236 139.479 148.246 128.644 145.51 126.502C142.776 124.358 145.903 141.277 141.784 134.566C137.664 127.858 133.826 115.861 132.904 107.836L148.4 100.164Z" fill="#E52600"/>
<path fill-rule="evenodd" clip-rule="evenodd" d="M108.898 106.129C108.849 100.128 115.433 91.456 115.433 91.456L115.555 89.7854C97.9797 53.5068 99.8616 23.0215 106.472 20.2396C111.878 17.9672 139.592 34.6255 155.446 73.4955C155.446 73.4955 168.135 72.8944 175.624 79.0382C177.969 80.9617 182.247 101.486 180.345 104.044C174.456 99.6228 164.291 88.9621 161.119 90.8132C158.575 97.2472 136.917 110.123 128.562 107.591C128.562 107.591 125.736 117.436 125.944 130.21C119.206 128.593 108.934 110.537 108.898 106.129Z" fill="#C2E8FF"/>
<path fill-rule="evenodd" clip-rule="evenodd" d="M122.496 60.7914C125.806 59.486 129.384 60.0744 131.532 65.4754C133.16 69.5676 130.99 73.3175 127.716 74.7152C124.891 75.9215 121.383 74.5592 119.292 70.1555C117.511 66.4049 119.187 62.0968 122.496 60.7914Z" fill="#F5F5F0"/>
<path fill-rule="evenodd" clip-rule="evenodd" d="M112.099 44.1313C113.78 42.3719 116.696 41.3216 119.75 44.1061C122.062 46.2158 121.867 49.1882 120.238 50.9943C118.83 52.5535 116.327 52.6925 113.658 50.4778C111.74 48.8855 110.417 45.8907 112.099 44.1313Z" fill="#F5F5F0"/>
<path fill-rule="evenodd" clip-rule="evenodd" d="M109.071 88.4226C101.056 72.4286 96.9203 56.2861 96.3087 41.8151L96.2802 41.0681L96.2543 40.1623L96.2384 39.2659C96.2366 39.1173 96.2352 38.9691 96.2342 38.8214L96.2331 37.94L96.2416 37.0694C96.2439 36.9252 96.2465 36.7815 96.2495 36.6382L96.2722 35.7846C96.2768 35.6434 96.2817 35.5026 96.287 35.3624L96.3236 34.5271L96.3691 33.7047L96.4236 32.8956C96.4334 32.7619 96.4435 32.6288 96.4541 32.4963L96.5215 31.7084L96.5975 30.9352C96.6108 30.8076 96.6245 30.6806 96.6386 30.5543L96.727 29.8042L96.8234 29.0702C96.8737 28.7074 96.9269 28.3507 96.983 28.0006L97.0991 27.3091C97.1191 27.1953 97.1394 27.0823 97.16 26.9701L97.2874 26.3058C97.331 26.0874 97.3759 25.8722 97.422 25.6602L97.5639 25.0339C97.6124 24.8284 97.662 24.6262 97.7128 24.4275L97.8686 23.8414C98.7969 20.483 100.068 18.1916 101.544 17.4457C103.583 16.417 106.969 17.3971 111.104 19.9972L111.647 20.3455C111.739 20.4051 111.83 20.4654 111.922 20.5265L112.478 20.902L113.041 21.2954L113.612 21.7065L114.19 22.1351L114.775 22.581L115.367 23.0441C115.466 23.1227 115.565 23.202 115.665 23.282L116.266 23.7704C116.366 23.8532 116.467 23.9366 116.568 24.0208L117.178 24.5341C117.28 24.621 117.382 24.7086 117.484 24.7969L118.102 25.3347L118.724 25.8885C118.828 25.9822 118.932 26.0765 119.037 26.1714L119.666 26.749L120.3 27.3422C120.405 27.4424 120.512 27.5432 120.618 27.6446L121.257 28.2608L121.9 28.8922L122.545 29.5384L123.194 30.1994C133.382 40.6738 143.14 54.9793 150.491 71.1396L151.038 72.3577L151.512 72.2977C157.369 71.6052 162.841 72.0604 165.989 74.7855C166.614 75.3268 167.352 76.3337 168.131 77.6607L168.425 78.173L168.722 78.7136L169.022 79.2808L169.322 79.8729C169.372 79.9735 169.423 80.0752 169.473 80.1777L169.774 80.8039C169.811 80.8812 169.847 80.959 169.884 81.0371C169.897 81.0663 169.911 81.0955 169.924 81.1248L170.224 81.7813L170.522 82.4558L170.817 83.1466L171.109 83.8521L171.395 84.5704L171.677 85.3L171.952 86.0391L172.221 86.7861L172.482 87.539L172.609 87.9173L172.884 88.7627C173.018 89.1826 173.145 89.5981 173.266 90.0089L173.501 90.824L173.718 91.6258C175.113 96.9249 175.366 101.289 174.094 103.797C173.831 104.316 173.15 104.446 172.714 104.062C167.25 99.2531 161.607 95.8133 156.526 93.5615C156.43 93.5187 156.335 93.4771 156.242 93.4366L155.705 93.2076L155.288 93.0373L155.264 93.1003C151.19 103.35 130.83 112.773 121.21 108.325L121.031 108.24C120.814 108.387 120.633 108.606 120.484 108.915L120.405 109.093C120.38 109.155 120.356 109.221 120.333 109.289L120.267 109.505L120.206 109.741C120.197 109.783 120.187 109.825 120.178 109.867L120.126 110.135L120.08 110.425L120.039 110.738L120.004 111.074L119.973 111.434L119.937 112.021L119.919 112.445L119.906 112.895L119.895 113.623L119.894 114.415L119.907 115.574L119.927 116.525L119.967 117.907L120.067 120.702L120.102 121.983L120.116 122.766L120.121 123.5C120.121 123.619 120.121 123.736 120.12 123.851L120.112 124.527C120.109 124.636 120.107 124.745 120.104 124.852L120.082 125.485C120.073 125.692 120.062 125.896 120.05 126.098C120.02 126.59 119.595 126.963 119.104 126.931C118.346 126.88 117.138 126.067 115.709 124.785L115.274 124.387L114.827 123.962L114.37 123.513C114.293 123.436 114.215 123.358 114.137 123.279L113.667 122.796L113.189 122.293L112.705 121.772L112.218 121.234L111.727 120.681L111.235 120.115L110.742 119.537L110.251 118.95L109.762 118.355L109.037 117.452L108.561 116.846L108.092 116.238L107.632 115.629L107.182 115.023L106.743 114.421L106.318 113.824L105.907 113.234L105.511 112.653L105.132 112.083L104.772 111.525L104.432 110.982L104.113 110.454C104.061 110.368 104.011 110.282 103.961 110.197L103.676 109.697C102.858 108.227 102.371 107.033 102.384 106.329C102.405 105.181 102.522 104.039 102.73 102.903C103.591 98.2006 105.862 94.0107 108.704 90.5655C109.031 90.1688 109.34 89.8163 109.622 89.5103L109.071 88.4226ZM106.919 19.7175C104.893 18.8042 103.306 18.5482 102.346 19.0327C101.567 19.4263 100.819 20.5963 100.17 22.3673L100.01 22.8225C99.9572 22.9783 99.9053 23.1382 99.8541 23.3021L99.703 23.8056L99.5568 24.3322C99.5328 24.4219 99.5091 24.5125 99.4856 24.6041L99.347 25.1644C99.3244 25.2597 99.302 25.3558 99.2798 25.4528L99.1495 26.0455C99.1282 26.146 99.1072 26.2474 99.0865 26.3497L98.9649 26.9733L98.8496 27.6168L98.7406 28.2796L98.6382 28.961L98.5426 29.6605L98.4542 30.3774C98.4401 30.4983 98.4262 30.6199 98.4127 30.7422L98.3353 31.4842L98.2656 32.242L98.2039 33.0152L98.1503 33.8031L98.105 34.6051L98.0684 35.4205C98.063 35.5575 98.058 35.6951 98.0534 35.8331L98.0302 36.6677L98.0162 37.5142L98.0116 38.3721C98.0116 38.516 98.0121 38.6603 98.0129 38.8051L98.023 39.6788L98.0431 40.5624L98.057 41.0077C98.5635 55.9037 102.904 72.6866 111.492 89.2586C111.673 89.6068 111.604 90.0322 111.322 90.3054L111.196 90.433L110.82 90.835C110.589 91.0892 110.339 91.3769 110.075 91.6967C107.41 94.9282 105.277 98.8629 104.479 103.224C104.288 104.265 104.181 105.312 104.161 106.362C104.154 106.761 104.416 107.441 104.877 108.31L105.103 108.725C105.143 108.796 105.184 108.869 105.226 108.942L105.492 109.393L105.782 109.867L106.095 110.361L106.429 110.873L106.783 111.401L107.156 111.943L107.544 112.498L107.948 113.063L108.366 113.637L108.795 114.217L109.235 114.802L109.911 115.683L110.602 116.563L111.303 117.435L111.773 118.009L112.243 118.575L112.946 119.405L113.411 119.941L113.87 120.463L114.324 120.968L114.769 121.453L115.205 121.918L115.629 122.36C115.699 122.431 115.768 122.502 115.837 122.571L116.242 122.975C116.308 123.04 116.374 123.104 116.439 123.166L116.821 123.527C117.381 124.046 117.883 124.462 118.303 124.743L118.327 124.76L118.339 124.156C118.341 124.047 118.342 123.937 118.342 123.825L118.341 123.133L118.325 122.007L118.304 121.189L118.275 120.307L118.152 116.995L118.107 115.575L118.082 114.288L118.081 113.683L118.092 113.016L118.106 112.645L118.133 112.162L118.174 111.621L118.217 111.151C118.485 108.552 119.214 106.947 120.751 106.408C120.989 106.324 121.252 106.346 121.473 106.468C130.08 111.203 151.026 101.403 153.895 91.6267C154.038 91.1395 154.559 90.8709 155.039 91.037L155.178 91.0869L155.874 91.3554L156.389 91.5666C156.479 91.6042 156.571 91.6429 156.664 91.6828L157.247 91.9363C162.134 94.1022 167.508 97.3238 172.764 101.759L172.902 101.877L172.933 101.744C173.434 99.4314 173.018 95.7952 171.845 91.5154L171.601 90.6511C171.431 90.0695 171.248 89.4772 171.053 88.8758L170.801 88.1188C170.76 87.999 170.719 87.8794 170.678 87.7599L170.426 87.0458L170.167 86.3379L169.902 85.6381C169.857 85.5222 169.812 85.4067 169.767 85.2917L169.494 84.6072L169.218 83.9352L168.938 83.2773L168.656 82.6355L168.374 82.0114L168.091 81.4068L167.809 80.8236L167.529 80.2633L167.251 79.728C167.23 79.687 167.208 79.6462 167.186 79.6057C167.162 79.5602 167.138 79.515 167.114 79.4702L166.842 78.9754C166.797 78.8953 166.752 78.8164 166.708 78.7388L166.444 78.2886C165.835 77.2746 165.277 76.5212 164.825 76.1296C162.197 73.8538 157.087 73.4288 151.725 74.0628L151.446 74.097L151.145 74.1366L150.65 74.2109C150.248 74.2799 149.85 74.0662 149.686 73.6926C142.334 56.9746 132.344 42.1566 121.92 31.439C121.815 31.3318 121.711 31.2253 121.607 31.1193L120.985 30.4908L120.365 29.8767L119.749 29.2774C119.646 29.1787 119.544 29.0806 119.442 28.9832L118.831 28.4061L118.225 27.8442C118.124 27.7517 118.024 27.66 117.923 27.5689L117.324 27.0298L116.73 26.5062C116.632 26.4202 116.533 26.3349 116.435 26.2503L115.85 25.7502L115.27 25.266C115.174 25.1867 115.078 25.108 114.983 25.0299L114.413 24.5699L113.851 24.1262L113.296 23.6989L112.748 23.2883L112.209 22.8945L111.678 22.5176L111.156 22.1579L110.644 21.8154L110.141 21.4904L109.647 21.1829C109.566 21.1332 109.485 21.0842 109.405 21.0359L108.927 20.7552C108.77 20.6646 108.614 20.5771 108.461 20.4925L108.006 20.2481C107.781 20.1304 107.56 20.0196 107.345 19.9158L106.919 19.7175Z" fill="#323264"/>
</g>
</svg>
