<svg width="184" height="184" viewBox="0 0 184 184" fill="none" xmlns="http://www.w3.org/2000/svg">
<path fill-rule="evenodd" clip-rule="evenodd" d="M107.46 52.7769L102.165 70.0954L167.505 89.0318L173.062 69.7119L166.878 67.8213L170.061 57.4111C170.301 56.6249 169.85 55.7912 169.056 55.5484L120.863 41.5072C120.069 41.2643 119.229 41.7033 118.988 42.4896L115.32 54.4872C115.32 54.4872 107.439 52.7705 107.46 52.7769Z" fill="#F5F5F0"/>
<path fill-rule="evenodd" clip-rule="evenodd" d="M132.531 170.294L79.0029 153.929L105.082 65.1656L160.841 82.213L132.531 170.294Z" fill="#E52600"/>
<path fill-rule="evenodd" clip-rule="evenodd" d="M162.093 55.5947C164.171 56.1935 165.383 58.3726 164.744 60.4622L162.358 68.2643L164.781 69.005C166.875 69.6452 168.1 71.8621 167.449 73.9926L163.415 87.1879C162.767 89.3062 160.538 90.4547 158.458 89.844L98.4953 73.6038L98.4593 73.5927C96.3639 72.9521 95.1403 70.7344 95.7917 68.6038L100.118 54.4533C100.77 52.3202 103.026 51.1705 105.119 51.8104C106.151 52.1258 107.527 52.5344 108.683 52.8748L111.042 45.0953L111.044 45.0904C111.676 43.0216 113.839 41.8633 115.903 42.4332L115.908 42.4346C123.275 44.4871 154.782 53.5012 162.089 55.5936L162.093 55.5947ZM110.249 55.7717C109.595 58.0181 109.595 58.0181 109.595 58.0181L108.989 57.8411C108.612 57.731 108.087 57.5772 107.494 57.4026C106.529 57.1185 105.378 56.7776 104.391 56.4797L100.474 69.292L159.136 85.1798L162.773 73.284L156.516 71.371L160.031 59.8716C151.748 57.5002 123.446 49.4047 115.316 47.1276L111.816 58.6645L109.595 58.0181L110.249 55.7717Z" fill="#AA0A0A"/>
<path fill-rule="evenodd" clip-rule="evenodd" d="M159.182 72.1731L109.841 58.0862L111.125 53.5868L160.467 67.6737L159.182 72.1731Z" fill="#AA0A0A"/>
<path fill-rule="evenodd" clip-rule="evenodd" d="M16.2431 39.0134L16.9891 60.3768L96.1748 56.4369L94.9571 32.739L87.4253 33.002L86.9769 20.1604C86.943 19.1905 86.1295 18.433 85.162 18.4668L26.7288 21.2899C25.7613 21.3237 25.0026 22.1361 25.0365 23.1059L25.5533 37.9057C25.5533 37.9057 16.2179 39.0142 16.2431 39.0134Z" fill="#F5F5F0"/>
<path fill-rule="evenodd" clip-rule="evenodd" d="M88.5145 160.567L23.3201 162.843L18.3301 53.7546L86.2422 51.3831L88.5145 160.567Z" fill="#C2E8FF"/>
<path fill-rule="evenodd" clip-rule="evenodd" d="M77.5294 21.6122C79.8614 21.4927 81.811 23.3097 81.8917 25.62L82.2425 35.6662L85.5817 35.5496C87.9505 35.4669 89.9305 37.3234 90.0129 39.6847L90.5814 55.9619C90.6634 58.3111 88.8404 60.2879 86.4948 60.3942L14.2586 65.2798L14.2205 65.2811C11.85 65.3639 9.87005 63.5074 9.78754 61.1444L9.17798 43.6889C9.09537 41.3233 10.9438 39.3374 13.3116 39.2547C14.6187 39.2091 16.3735 39.1328 17.8077 39.0676C17.8828 39.0641 17.957 39.0608 18.0301 39.0574L17.6574 29.0499L17.6572 29.0445C17.5771 26.7485 19.3331 24.7928 21.6403 24.6485L21.6455 24.6481C30.541 24.1117 68.6766 22.0814 77.5253 21.6124L77.5294 21.6122ZM20.5679 43.6226L19.8331 43.6578C19.3763 43.6794 18.7397 43.7092 18.0203 43.742C16.7211 43.801 15.1441 43.8699 13.868 43.917L14.4498 60.5769L85.8917 55.7451L85.3503 40.2398L77.7294 40.5059L77.2338 26.3136C67.6177 26.8237 31.7591 28.7339 22.349 29.2936L22.8784 43.5103L20.5679 43.6226Z" fill="#284B9B"/>
<path fill-rule="evenodd" clip-rule="evenodd" d="M80.5791 40.3917L20.863 43.6045L20.6116 38.9321L80.3278 35.7192L80.5791 40.3917Z" fill="#284B9B"/>
<path fill-rule="evenodd" clip-rule="evenodd" d="M32.2874 126.979L33.0201 147.961C33.1488 150.539 35.3293 152.546 37.917 152.456C40.5112 152.365 42.5582 150.205 42.5069 147.63L41.7741 126.648C41.6455 124.069 39.4652 122.063 36.8773 122.153C34.2828 122.244 32.236 124.402 32.2874 126.979ZM29.7147 127.043C29.6283 123.045 32.7935 119.721 36.7875 119.581C40.7846 119.442 44.1526 122.542 44.345 126.532L44.3458 126.549L45.0796 147.566C45.166 151.563 42.001 154.888 38.0068 155.028C34.0094 155.167 30.6416 152.065 30.4493 148.077L30.4485 148.06L29.7147 127.043Z" fill="#323264"/>
<path fill-rule="evenodd" clip-rule="evenodd" d="M65.2442 107.986C63.7683 105.87 60.856 105.327 58.7104 106.78C56.56 108.235 55.9698 111.153 57.3808 113.308L69.1337 130.701C70.6093 132.815 73.5201 133.359 75.6678 131.907M65.2442 107.986L76.9969 125.377C78.4069 127.534 77.816 130.452 75.6678 131.907M57.268 104.649C60.5812 102.406 65.0826 103.244 67.362 106.524L67.3716 106.538L79.1442 123.959C81.3378 127.302 80.4172 131.8 77.1103 134.038C73.7958 136.279 69.2958 135.442 67.0162 132.163L67.0064 132.149L55.2343 114.728C53.0382 111.385 53.9599 106.887 57.268 104.649Z" fill="#323264"/>
<path fill-rule="evenodd" clip-rule="evenodd" d="M48.6479 105.865C45.9132 102.956 41.3376 102.787 38.388 105.489C35.4448 108.188 35.1901 112.773 37.8522 115.759L52.0515 131.274L52.0577 131.28C54.7951 134.188 59.3707 134.358 62.3193 131.655C65.2624 128.955 65.5167 124.37 62.8541 121.385L48.6595 105.877L48.6479 105.865ZM46.7673 107.622C44.9987 105.746 42.0382 105.635 40.1269 107.386C38.213 109.141 38.0565 112.114 39.768 114.041L53.9373 129.522C55.71 131.399 58.6712 131.508 60.58 129.759C62.494 128.002 62.6498 125.028 60.9387 123.104L46.7673 107.622Z" fill="#323264"/>
<path fill-rule="evenodd" clip-rule="evenodd" d="M47.5005 144.042C47.5319 141.449 49.6376 139.364 52.2155 139.355L47.5005 144.042ZM52.2155 139.355L73.1943 139.605C75.7671 139.673 77.8273 141.819 77.7978 144.417C77.7667 147.011 75.6608 149.096 73.0827 149.104L52.104 148.857C49.5316 148.788 47.471 146.641 47.5005 144.042M44.9272 144.012C44.9752 140.012 48.2259 136.789 52.2194 136.782L52.2368 136.782L73.2506 137.032C77.2486 137.132 80.4169 140.452 80.371 144.447C80.3231 148.447 77.0723 151.671 73.0788 151.678L73.0615 151.678L52.0477 151.43C48.0492 151.33 44.8813 148.006 44.9272 144.012Z" fill="#323264"/>
<path fill-rule="evenodd" clip-rule="evenodd" d="M75.773 83.1944C74.2569 79.4973 70.0454 77.6741 66.3246 79.1427L66.3092 79.1489L46.8754 87.1094L46.8593 87.1161C43.1857 88.6795 41.4488 92.917 42.9647 96.6192C44.4775 100.316 48.6911 102.138 52.4091 100.674L71.8577 92.7032L71.8735 92.6965C75.5459 91.1336 77.2875 86.8977 75.773 83.1944ZM67.2766 81.5336L47.8594 89.4873C45.4898 90.5005 44.3629 93.2429 45.3461 95.6439C46.3293 98.0466 49.0635 99.2203 51.4583 98.2821L70.8733 90.3253C73.2442 89.3116 74.373 86.5698 73.3916 84.1698C72.4046 81.7645 69.6716 80.5928 67.2766 81.5336Z" fill="#323264"/>
</svg>
