<svg width="160" height="161" viewBox="0 0 160 161" fill="none" xmlns="http://www.w3.org/2000/svg">
<path d="M29.1727 109.001C28.8018 108.591 28.1694 108.56 27.7602 108.931C27.3509 109.302 27.3198 109.934 27.6906 110.343L29.1727 109.001ZM68.0616 122.493C68.2691 121.981 68.0224 121.398 67.5106 121.19C66.9988 120.983 66.4156 121.229 66.2081 121.741L68.0616 122.493ZM31.4012 102.065C30.9641 101.728 30.3361 101.808 29.9985 102.246C29.6609 102.683 29.7415 103.311 30.1786 103.648L31.4012 102.065ZM61.2944 74.8292L62.0753 75.454L62.0825 75.4449L61.2944 74.8292ZM74.7741 70.5499C75.3244 70.5967 75.8084 70.1886 75.8553 69.6383C75.9021 69.088 75.4939 68.6039 74.9436 68.5571L74.7741 70.5499ZM28.4316 109.672C27.6906 110.343 27.6909 110.344 27.6912 110.344C27.6915 110.344 27.692 110.345 27.6926 110.346C27.6937 110.347 27.6953 110.349 27.6973 110.351C27.7014 110.355 27.7073 110.362 27.715 110.37C27.7303 110.387 27.7529 110.412 27.7825 110.444C27.8416 110.508 27.9288 110.603 28.0424 110.724C28.2695 110.967 28.6024 111.32 29.0283 111.76C29.8799 112.64 31.1044 113.872 32.6002 115.284C35.5869 118.104 39.6762 121.663 44.0504 124.569C48.3929 127.455 53.156 129.794 57.4643 129.994C59.6472 130.095 61.7437 129.648 63.5913 128.419C65.4348 127.193 66.9455 125.245 68.0616 122.493L66.2081 121.741C65.2045 124.216 63.916 125.801 62.4838 126.754C61.0556 127.703 59.3998 128.081 57.5569 127.996C53.8135 127.822 49.4307 125.743 45.1572 122.904C40.9154 120.085 36.9187 116.611 33.9732 113.83C32.503 112.442 31.3 111.232 30.4656 110.369C30.0485 109.938 29.7237 109.594 29.5039 109.359C29.3941 109.241 29.3105 109.151 29.2547 109.09C29.2269 109.06 29.2059 109.037 29.1922 109.022C29.1853 109.014 29.1803 109.009 29.177 109.005C29.1754 109.004 29.1742 109.002 29.1735 109.001C29.1731 109.001 29.1729 109.001 29.1727 109.001C29.1727 109.001 29.1727 109.001 28.4316 109.672ZM30.1786 103.648C35.753 107.954 40.2398 111.018 43.8473 113.039C47.4325 115.047 50.2448 116.081 52.4464 116.211C53.5649 116.277 54.5591 116.112 55.4178 115.693C56.2811 115.272 56.9442 114.625 57.4431 113.829C58.414 112.28 58.7851 110.13 58.904 107.773C59.0243 105.387 58.8906 102.618 58.7303 99.7314C58.569 96.8258 58.3795 93.7872 58.3736 90.7902C58.3616 84.7466 59.1063 79.1651 62.0753 75.4539L60.5136 74.2045C57.077 78.5001 56.3615 84.717 56.3736 90.7942C56.3797 93.8576 56.5733 96.9599 56.7334 99.8423C56.8946 102.744 57.0207 105.409 56.9065 107.672C56.791 109.963 56.4333 111.675 55.7485 112.767C55.4195 113.292 55.023 113.661 54.5409 113.896C54.0541 114.133 53.417 114.265 52.5643 114.215C50.8236 114.112 48.3339 113.26 44.8248 111.294C41.3381 109.341 36.9383 106.342 31.4012 102.065L30.1786 103.648ZM62.0825 75.4449C64.2328 72.6924 67.3602 71.4515 70.0406 70.9108C71.3728 70.6421 72.5675 70.5522 73.4279 70.5297C73.8572 70.5185 74.201 70.5242 74.4341 70.5323C74.5506 70.5364 74.6393 70.5411 74.6971 70.5447C74.726 70.5464 74.7471 70.5479 74.7601 70.5489C74.7665 70.5493 74.771 70.5497 74.7733 70.5499C74.7745 70.55 74.7752 70.55 74.7753 70.55C74.7754 70.55 74.7753 70.55 74.7751 70.55C74.775 70.55 74.7747 70.55 74.7747 70.55C74.7744 70.55 74.7741 70.5499 74.8588 69.5535C74.9436 68.5571 74.9432 68.5571 74.9428 68.5571C74.9426 68.557 74.9422 68.557 74.9418 68.557C74.9411 68.5569 74.9402 68.5568 74.9392 68.5568C74.9371 68.5566 74.9346 68.5564 74.9315 68.5561C74.9253 68.5557 74.917 68.555 74.9066 68.5542C74.8857 68.5527 74.8566 68.5507 74.8194 68.5484C74.7452 68.5439 74.639 68.5383 74.5043 68.5336C74.2348 68.5241 73.85 68.518 73.3757 68.5304C72.4287 68.5551 71.1154 68.6537 69.6452 68.9503C66.7209 69.5402 63.066 70.9372 60.5064 74.2136L62.0825 75.4449Z" fill="#0071BC"/>
<path fill-rule="evenodd" clip-rule="evenodd" d="M87.4909 65.6982C58.1572 62.4398 62.6238 87.5759 64.4072 103.22C65.5654 113.373 65.2833 120.357 63.5913 125.354C62.5296 128.488 62.3799 130.294 62.3799 132.51C62.3799 133.956 62.3812 145.034 84.6035 145.034C104.256 145.034 111.862 137.059 111.862 137.059C116.149 134.694 128.255 70.2275 87.4909 65.6982Z" fill="#005A96"/>
<path fill-rule="evenodd" clip-rule="evenodd" d="M83.1886 61.2839C83.1886 61.2839 90.9226 66.6437 101.03 56.5365C102.07 55.4967 104.169 56.2303 106.926 55.6177C109.683 55.0047 116.651 52.8613 116.498 46.4289C116.344 39.9968 109.912 37.6992 108.993 35.4029C108.075 33.1047 107.616 25.064 102.562 21.772C97.5085 18.4795 92.5299 18.8618 91.076 18.9392C89.6211 19.0161 89.2379 14.1145 78.9774 15.1866C68.7163 16.2592 64.1214 24.223 63.4334 28.4338C63.2218 29.7213 61.7482 31.2667 60.7525 32.033C59.7568 32.7985 54.4729 36.5501 53.784 39.6906C53.0945 42.8292 53.0945 49.6449 61.8247 55.5408C65.6346 58.1134 70.7068 59.5223 77.0624 59.216L83.1886 61.2839Z" fill="#AA0A0A"/>
<path d="M119.745 105.707C112.166 102.383 94.4208 102.501 85.8145 104.232" stroke="#0071BC" stroke-width="1.91127" stroke-linecap="round" stroke-linejoin="round"/>
<path fill-rule="evenodd" clip-rule="evenodd" d="M35.9223 112.243L48.7185 110.961C49.7037 110.801 50.3672 109.844 50.2016 108.822L45.1407 82.3151C44.9764 81.2939 44.2843 80.042 42.2747 80.5026L31.1308 82.6878C30.146 82.8476 29.6058 84.5768 29.7719 85.598L33.838 110.682C34.0041 111.704 34.937 112.403 35.9223 112.243Z" fill="#0082AA"/>
<path fill-rule="evenodd" clip-rule="evenodd" d="M39.6042 84.8673C39.698 85.8816 40.4384 86.2912 41.2184 86.1752C42.1686 86.0327 42.813 85.189 42.6792 84.3681C42.5472 83.548 41.5315 82.8636 40.7538 82.9896C39.9751 83.1148 39.5273 84.04 39.6042 84.8673Z" stroke="#F4F4F4" stroke-width="1.01843"/>
<path d="M43.9316 82.0156C43.9316 82.0156 48.7381 107.991 48.8355 108.592C48.9329 109.193 48.704 109.952 47.8143 109.973C46.9242 109.994 35.1387 111.241 35.1387 111.241" stroke="#F4F4F4" stroke-width="1.18108" stroke-linecap="round"/>
<path d="M83.1631 118.101C106.078 121.18 121.842 125.99 128.114 124.046C140.63 120.165 134.5 93.0889 115.503 77.1467C110.309 72.7862 97.3086 65.439 95.801 72.0331C94.2951 78.6266 115.207 104.249 115.207 104.249" stroke="#0071BC" stroke-width="2" stroke-linecap="round" stroke-linejoin="round"/>
<path fill-rule="evenodd" clip-rule="evenodd" d="M33.4024 107.788C28.5927 109.1 25.1045 102.406 25.0008 99.9553C24.8979 97.5042 35.1212 89.7461 35.9813 91.0362C36.84 92.3277 31.0082 95.1906 30.397 97.6576C35.1935 93.733 40.9985 92.3824 41.1309 93.8691C41.2633 95.3558 36.5274 95.6698 32.2569 99.8206C38.6139 95.9092 42.3446 96.4971 42.4902 97.2375C42.7209 98.4062 35.0825 99.776 34.1673 102.051C40.3186 99.7163 41.6592 98.7939 42.0988 99.8661C42.5375 100.94 34.6661 103.957 34.0049 104.896C33.3432 105.833 33.4024 107.788 33.4024 107.788Z" fill="#E67350"/>
<path fill-rule="evenodd" clip-rule="evenodd" d="M86.1796 108.055L82.9126 114.597C77.9878 113.976 73.3738 107.847 73.3738 107.847C71.1995 107.611 67.6995 109 66.1663 108.734C64.6336 108.466 69.3924 106.619 69.968 106.359C70.5428 106.099 72.354 105.511 72.354 105.511C70.9756 105.138 69.3764 105.601 68.6256 106.005C67.8756 106.409 65.1083 107.864 63.5824 107.409C62.5935 107.202 68.1905 103.654 68.1905 103.654L71.2277 103.02C69.7919 102.662 67.7623 103.036 67.3227 103.225C66.8817 103.416 62.7146 106.02 61.9683 105.371C61.389 104.866 64.5558 102.233 66.2551 101.151C67.9534 100.068 70.5774 99.3991 70.5774 99.3991C68.5755 97.627 61.3289 98.5877 60.7705 96.4575C62.867 94.8256 71.6841 96.5985 72.7321 97.2243C73.7816 97.8486 84.6433 105.803 86.1796 108.055Z" fill="#E67350"/>
<path fill-rule="evenodd" clip-rule="evenodd" d="M92.6479 27.4883C95.5895 28.7862 96.3635 35.651 96.9124 40.6468C96.9124 40.6468 100.385 39.1227 101.847 39.7935C103.309 40.4634 103.856 43.8751 102.09 45.5807C100.323 47.2868 98.8005 48.0176 96.3635 47.4083C96.3635 47.4083 95.2668 57.5205 87.2866 60.2619C87.2866 60.2619 86.9207 60.8708 87.47 62.6983C88.0175 64.5264 90.6983 72.5671 90.8198 73.2979C90.9418 74.0292 91.5511 76.2828 84.2413 76.5262C76.9309 76.7701 77.8452 73.4199 77.9057 72.4451C77.9667 71.4699 79.6728 62.393 79.8553 61.4801C79.8553 61.4801 76.5651 61.4801 74.9823 60.4448C73.3982 59.409 68.9517 56.4242 68.4638 45.6412C68.4638 45.6412 65.1127 45.8246 64.1993 42.7783C63.2864 39.7321 65.6615 39.0012 68.5243 40.0979C68.5243 40.0979 68.2809 33.5795 69.6211 32.2402C70.9617 30.9 72.9713 29.9853 76.7489 29.9853C80.5256 29.9853 86.3128 28.6455 87.8354 28.0362C89.3581 27.4268 90.5764 26.5749 92.6479 27.4883Z" fill="#E67350"/>
<path d="M90.1334 39.9647C90.4131 40.2843 90.8989 40.3167 91.2185 40.037C91.5381 39.7573 91.5704 39.2715 91.2907 38.9519L90.1334 39.9647ZM81.905 37.6847C81.5507 37.9189 81.4535 38.396 81.6877 38.7502C81.922 39.1045 82.399 39.2017 82.7533 38.9675L81.905 37.6847ZM69.2682 36.7473C68.8969 36.9536 68.7632 37.4217 68.9694 37.793C69.1756 38.1642 69.6438 38.298 70.015 38.0918L69.2682 36.7473ZM75.8352 36.9654L76.1866 36.2814L76.1862 36.2812L75.8352 36.9654ZM77.2696 43.3851L76.5301 43.174L76.5301 43.1741L77.2696 43.3851ZM76.1369 49.125L75.4901 49.541L75.4902 49.5411L76.1369 49.125ZM81.2463 50.0657C81.5994 49.8298 81.6945 49.3523 81.4586 48.9991C81.2227 48.646 80.7452 48.5509 80.392 48.7868L81.2463 50.0657ZM83.2051 53.3133C83.4329 52.955 83.3271 52.4797 82.9687 52.2518C82.6103 52.024 82.1351 52.1298 81.9072 52.4882L83.2051 53.3133ZM76.9327 52.5573C76.7013 52.2012 76.225 52.1001 75.8689 52.3315C75.5128 52.563 75.4117 53.0392 75.6432 53.3953L76.9327 52.5573ZM90.7121 39.4583C91.2907 38.9519 91.2905 38.9516 91.2902 38.9513C91.2901 38.9511 91.2898 38.9508 91.2896 38.9506C91.2891 38.9501 91.2886 38.9495 91.2881 38.9489C91.2869 38.9476 91.2856 38.9461 91.284 38.9443C91.2809 38.9408 91.2768 38.9362 91.2718 38.9307C91.2619 38.9197 91.2482 38.9048 91.2311 38.8864C91.1967 38.8497 91.1481 38.7989 91.0858 38.737C90.9613 38.6134 90.7813 38.4444 90.5513 38.2538C90.0932 37.8743 89.4247 37.3992 88.5883 37.0282C86.8876 36.2737 84.5066 35.9642 81.905 37.6847L82.7533 38.9675C84.8339 37.5916 86.6443 37.8482 87.9646 38.434C88.6387 38.733 89.188 39.1215 89.5701 39.4381C89.7601 39.5955 89.9059 39.7328 90.002 39.8283C90.05 39.876 90.0855 39.913 90.1076 39.9367C90.1187 39.9486 90.1264 39.9571 90.1308 39.9618C90.1329 39.9642 90.1342 39.9657 90.1347 39.9662C90.1349 39.9664 90.1349 39.9665 90.1347 39.9662C90.1346 39.9661 90.1344 39.9659 90.1342 39.9657C90.1341 39.9655 90.1339 39.9653 90.1338 39.9652C90.1336 39.965 90.1334 39.9647 90.7121 39.4583ZM69.6416 37.4196C70.015 38.0918 70.0148 38.0919 70.0146 38.092C70.0146 38.092 70.0144 38.0921 70.0143 38.0922C70.0141 38.0923 70.014 38.0924 70.0139 38.0924C70.0137 38.0925 70.0137 38.0925 70.0139 38.0924C70.0144 38.0922 70.0156 38.0915 70.0176 38.0904C70.0216 38.0882 70.0288 38.0844 70.039 38.079C70.0593 38.0683 70.0916 38.0516 70.1349 38.0301C70.2216 37.987 70.3519 37.9252 70.5182 37.8542C70.8518 37.7118 71.3235 37.5359 71.8728 37.4018C72.9898 37.129 74.3228 37.0537 75.4841 37.6496L76.1862 36.2812C74.5529 35.4432 72.7891 35.5949 71.508 35.9077C70.8583 36.0664 70.3055 36.2729 69.9146 36.4397C69.7185 36.5234 69.5614 36.5978 69.4513 36.6524C69.3962 36.6797 69.3528 36.7022 69.322 36.7184C69.3065 36.7265 69.2943 36.7331 69.2853 36.738C69.2808 36.7404 69.2771 36.7424 69.2742 36.744C69.2728 36.7448 69.2716 36.7455 69.2706 36.746C69.2701 36.7463 69.2696 36.7465 69.2692 36.7468C69.269 36.7469 69.2688 36.747 69.2687 36.7471C69.2684 36.7472 69.2682 36.7473 69.6416 37.4196ZM75.4837 37.6494C76.5296 38.1868 76.9028 39.1896 76.9449 40.3454C76.9872 41.5084 76.6787 42.6538 76.5301 43.174L78.009 43.5963C78.1622 43.0598 78.5336 41.7133 78.4818 40.2895C78.4297 38.8585 77.9349 37.1798 76.1866 36.2814L75.4837 37.6494ZM76.5301 43.1741C76.4621 43.4125 76.3228 43.8042 76.1424 44.3296C75.968 44.8373 75.7664 45.4393 75.5951 46.0462C75.4252 46.6481 75.2768 47.2832 75.2195 47.854C75.1669 48.3779 75.1673 49.0389 75.4901 49.541L76.7836 48.709C76.7847 48.7107 76.7574 48.6656 76.742 48.5308C76.7271 48.4007 76.7277 48.2267 76.7497 48.0077C76.7939 47.5683 76.9146 47.0328 77.0752 46.464C77.2343 45.9002 77.4244 45.3315 77.597 44.8291C77.7635 44.3443 77.9262 43.8863 78.009 43.5962L76.5301 43.1741ZM75.4902 49.5411C75.8286 50.067 76.4325 50.2965 76.917 50.4094C77.4377 50.5307 78.0289 50.5644 78.5769 50.5544C79.1305 50.5442 79.6758 50.4886 80.1194 50.414C80.3408 50.3767 80.5466 50.3331 80.721 50.2847C80.8683 50.2439 81.0786 50.1777 81.2463 50.0657L80.392 48.7868C80.4462 48.7506 80.4464 48.7649 80.3101 48.8027C80.201 48.8329 80.0498 48.8661 79.8641 48.8973C79.4934 48.9597 79.024 49.008 78.5487 49.0167C78.0679 49.0255 77.6161 48.9931 77.266 48.9116C77.0921 48.871 76.9655 48.8234 76.8805 48.7774C76.7954 48.7313 76.779 48.7019 76.7836 48.7089L75.4902 49.5411ZM81.9072 52.4882C81.4942 53.1378 80.6079 53.7817 79.6415 53.9351C78.7497 54.0766 77.7476 53.8112 76.9327 52.5573L75.6432 53.3953C76.7914 55.1622 78.3951 55.69 79.8825 55.454C81.2951 55.2299 82.5614 54.3257 83.2051 53.3133L81.9072 52.4882Z" fill="#003B5C"/>
<path fill-rule="evenodd" clip-rule="evenodd" d="M83.8477 42.8345C83.8477 43.5144 84.219 44.0655 84.6773 44.0655C85.136 44.0655 85.5069 43.5144 85.5069 42.8345C85.5069 42.1546 85.136 41.6035 84.6773 41.6035C84.219 41.6035 83.8477 42.1546 83.8477 42.8345Z" fill="#005A96"/>
<path fill-rule="evenodd" clip-rule="evenodd" d="M72.5859 42.9756C72.5859 43.6555 72.9573 44.2066 73.4155 44.2066C73.8743 44.2066 74.2451 43.6555 74.2451 42.9756C74.2451 42.2957 73.8743 41.7441 73.4155 41.7441C72.9573 41.7441 72.5859 42.2957 72.5859 42.9756Z" fill="#005A96"/>
</svg>
