<svg width="160" height="160" viewBox="0 0 160 160" fill="none" xmlns="http://www.w3.org/2000/svg">
<mask id="mask0_4175_154799" style="mask-type:alpha" maskUnits="userSpaceOnUse" x="17" y="15" width="127" height="127">
<path fill-rule="evenodd" clip-rule="evenodd" d="M80.1198 15C45.2599 15 17 43.2599 17 78.1201C17 112.98 45.2599 141.24 80.1198 141.24C114.98 141.24 143.24 112.98 143.24 78.1201" fill="white"/>
</mask>
<g mask="url(#mask0_4175_154799)">
<path fill-rule="evenodd" clip-rule="evenodd" d="M130.063 109.697L117.932 121.436L114.077 139.117C114.077 139.117 114.353 155.088 114.628 159.219C128.947 152.059 132.711 138.558 133.031 125.345C133.352 112.132 130.063 109.697 130.063 109.697Z" fill="#F4F4F4"/>
</g>
<mask id="mask1_4175_154799" style="mask-type:alpha" maskUnits="userSpaceOnUse" x="17" y="15" width="127" height="127">
<path fill-rule="evenodd" clip-rule="evenodd" d="M80.1198 15C45.2599 15 17 43.2599 17 78.1201C17 112.98 45.2599 141.24 80.1198 141.24C114.98 141.24 143.24 112.98 143.24 78.1201C143.24 43.2599 114.98 15 80.1198 15Z" fill="white"/>
</mask>
<g mask="url(#mask1_4175_154799)">
<path fill-rule="evenodd" clip-rule="evenodd" d="M10.2285 134.886C10.2285 134.886 19.8206 79.7604 73.8802 79.8223C91.047 79.8421 103.854 85.591 110.007 98.3054C114.249 107.072 117.734 144.568 117.734 144.568L10.2285 134.886Z" fill="#F4F4F4"/>
</g>
<mask id="mask2_4175_154799" style="mask-type:alpha" maskUnits="userSpaceOnUse" x="17" y="15" width="127" height="127">
<path fill-rule="evenodd" clip-rule="evenodd" d="M80.1198 15C45.2599 15 17 43.2599 17 78.1201C17 112.98 45.2599 141.24 80.1198 141.24C114.98 141.24 143.24 112.98 143.24 78.1201" fill="white"/>
</mask>
<g mask="url(#mask2_4175_154799)">
<path d="M130.216 108.574C132.779 113.612 133.914 121.522 133.221 129.916" stroke="#003B5C" stroke-width="1.8" stroke-linecap="round" stroke-linejoin="round"/>
</g>
<mask id="mask3_4175_154799" style="mask-type:alpha" maskUnits="userSpaceOnUse" x="17" y="15" width="127" height="127">
<path fill-rule="evenodd" clip-rule="evenodd" d="M80.1198 15C45.2599 15 17 43.2599 17 78.1201C17 112.98 45.2599 141.24 80.1198 141.24C114.98 141.24 143.24 112.98 143.24 78.1201" fill="white"/>
</mask>
<g mask="url(#mask3_4175_154799)">
<path d="M10.2285 134.701C11.9943 118.367 29.5074 80.0444 73.8802 79.6378C91.0464 79.4806 103.854 85.4065 110.007 98.1209C115.166 108.785 117.517 132.327 118.313 157.683" stroke="#0071BC" stroke-width="1.8" stroke-linecap="round" stroke-linejoin="round"/>
</g>
<mask id="mask4_4175_154799" style="mask-type:alpha" maskUnits="userSpaceOnUse" x="17" y="15" width="127" height="127">
<path fill-rule="evenodd" clip-rule="evenodd" d="M80.1198 15C45.2599 15 17 43.2599 17 78.1201C17 112.98 45.2599 141.24 80.1198 141.24C114.98 141.24 143.24 112.98 143.24 78.1201" fill="white"/>
</mask>
<g mask="url(#mask4_4175_154799)">
<path fill-rule="evenodd" clip-rule="evenodd" d="M72.8772 83.565C57.7806 84.0808 51.7857 93.8264 50.9445 108.048C49.8977 125.748 51.4952 153.688 51.4952 153.688L104.35 152.008C104.35 152.008 102.093 118.43 101.566 106.998C101.038 95.5671 91.8906 82.9156 72.8772 83.565Z" fill="#AA0A0A"/>
</g>
<path d="M56.4 86.1504C52.6351 89.0697 43.4851 99.0718 41.6525 102.666C42.1611 104.44 47.1216 111.443 47.1216 111.443C45.7206 112.695 40.3604 117.826 40.3604 117.826C40.3604 117.826 48.617 131.744 48.9014 144.235" stroke="#0082AA" stroke-width="1.8" stroke-linecap="round" stroke-linejoin="round"/>
<path d="M91.8906 86.1504C95.6556 89.0697 104.805 99.0718 106.638 102.666C106.129 104.44 101.169 111.443 101.169 111.443C102.57 112.695 107.93 117.826 107.93 117.826C107.93 117.826 105.622 133.269 105.331 145.001" stroke="#0082AA" stroke-width="1.8" stroke-linecap="round" stroke-linejoin="round"/>
<path fill-rule="evenodd" clip-rule="evenodd" d="M99.335 54.2675C99.3653 56.9681 96.3411 58.164 93.2272 58.1488C93.5054 69.8758 88.4579 75.5929 82.4928 77.466C82.929 79.3241 83.2904 85.7326 83.3576 87.0869C80.9355 90.9911 68.464 89.5016 65.485 87.0869V72.8474C62.5737 69.7855 60.4901 65.6186 59.4821 60.9394C55.8189 61.5489 51.4107 60.4808 51.4485 57.2237C51.4711 54.9216 53.6073 51.6344 58.8205 55.1475C58.8054 54.9294 58.8054 54.7035 58.8054 54.4857C58.8054 42.7583 65.2291 33.2578 75.1058 33.2578C84.223 33.2578 90.6622 41.1936 92.5951 51.7925C97.3492 48.9494 99.3127 52.0633 99.335 54.2675Z" fill="#BC5724"/>
<path d="M65.6729 50.854C67.5847 48.8586 71.6102 48.0293 74.4834 49.6457" stroke="#003B5C" stroke-width="1.47108" stroke-linecap="round"/>
<path d="M88.773 49.2791C86.6254 47.4573 82.6621 47.8313 80.6274 49.491C83.1185 54.6557 84.651 60.6831 84.0647 61.9647C83.479 63.2466 78.2539 61.5724 78.2539 61.5724" stroke="#003B5C" stroke-width="1.47059" stroke-linecap="round" stroke-linejoin="round"/>
<path d="M75.2646 66.0781C75.5676 67.2706 76.8297 68.2632 78.4634 68.3452C80.3916 68.4414 81.2886 67.3777 81.5259 66.2746" stroke="#003B5C" stroke-width="1.47108" stroke-linecap="round"/>
<path fill-rule="evenodd" clip-rule="evenodd" d="M85.8272 52.6932C85.8909 53.2869 85.5506 53.8105 85.066 53.8627C84.5812 53.9153 84.1369 53.4766 84.0722 52.8828C84.0081 52.2891 84.3488 51.7649 84.8333 51.7133C85.3179 51.6607 85.7631 52.0994 85.8272 52.6932Z" fill="#003B5C"/>
<path fill-rule="evenodd" clip-rule="evenodd" d="M73.001 53.4708C73.0651 54.0642 72.7244 54.5887 72.2399 54.641C71.7553 54.693 71.3107 54.2542 71.246 53.6604C71.182 53.0667 71.5226 52.5425 72.0072 52.4906C72.4917 52.4383 72.937 52.877 73.001 53.4708Z" fill="#003B5C"/>
<path fill-rule="evenodd" clip-rule="evenodd" d="M64.4073 80.8496L75.0715 87.6907L84.0197 81.6018L84.7125 89.0385L75.0715 96.7915L62.9453 88.5537L64.4073 80.8496Z" fill="#AA0A0A"/>
<path fill-rule="evenodd" clip-rule="evenodd" d="M90.1825 78.7891C88.7546 90.8333 81.9379 121.319 75.3926 127.137L102.37 133.269L117.19 132.664L125.055 85.1784L90.1825 78.7891Z" fill="#F4F4F4"/>
<path fill-rule="evenodd" clip-rule="evenodd" d="M89.3564 75.0078L128.26 80.374L119.876 138.059L82.9844 133.028L89.3564 75.0078Z" fill="#0082AA"/>
<path fill-rule="evenodd" clip-rule="evenodd" d="M115.112 101.135C114.168 100.936 110.038 94.7396 109.343 95.3012C108.391 96.0611 113.7 103.239 113.7 103.239C113.336 103.407 109.64 97.9154 109.495 98.9916C109.15 101.542 117.519 111.917 121.277 116.689L128.507 110.384C128.825 105.24 125.908 95.2041 124.939 95.52C124.012 95.822 124.737 100.152 124.408 101.957C123.1 101.478 112.601 91.1146 111.544 92.1826C110.621 93.1155 117.925 99.7456 117.8 99.9133C117.622 100.153 110.708 92.419 109.536 93.3467C108.713 93.998 114.481 99.5414 115.112 101.135Z" fill="#BC5724"/>
<path d="M63.0283 89.488L69.1841 97.5L75.265 89.2207L80.9492 96.7914L84.2658 91.5066" stroke="#F4F4F4" stroke-width="1.90686" stroke-linecap="round" stroke-linejoin="round"/>
<path fill-rule="evenodd" clip-rule="evenodd" d="M92.6577 22.4904C86.3281 20.1942 82.069 25.5025 78.3954 25.4753C76.3774 25.4607 70.6811 24.9864 65.9393 27.867C62.0157 30.2507 61.3152 35.8267 59.2641 36.728C56.7176 37.8471 54.7773 39.7717 54.1773 42.9342C53.5381 46.3015 53.4013 49.8242 54.8296 52.2642C55.5502 53.4953 55.5858 53.6918 58.1963 54.8565C60.1159 55.7132 60.3578 57.8027 60.3578 57.8027L62.6382 57.7971L62.7026 45.4166C65.7336 45.7467 68.8825 45.3959 71.8275 44.6186C73.9779 44.0508 76.4597 41.9728 79.6429 41.2804C81.8883 40.7918 85.4317 41.3936 88.7969 41.5663C90.5973 44.4577 91.8938 47.9485 92.5955 51.7933C93.3103 51.3657 93.9613 51.0751 94.5529 50.8935C94.9771 48.1215 94.7574 44.333 93.9461 41.2061C95.3131 40.8234 96.431 40.1225 97.1092 38.9062C100.551 32.7319 98.9874 24.7871 92.6577 22.4904Z" fill="#005A96"/>
<path d="M62.1087 57.2718L62.1737 44.7619C65.2363 45.0954 68.418 44.7412 71.3939 43.9556C73.5663 43.3819 76.0744 41.2822 79.2907 40.5827C83.9492 39.5697 94.1407 43.2043 96.9387 38.1838C100.416 31.9451 98.8363 24.6776 92.4411 22.3567C86.0449 20.0368 81.7419 24.6405 78.0302 24.613C75.9908 24.5981 70.2352 23.3589 65.4439 26.2699C61.4794 28.6783 60.6183 33.2697 58.699 34.4708C55.7738 36.3013 53.1234 38.1581 52.517 41.3537C51.8712 44.756 51.7722 49.4071 53.6658 52.4876" stroke="#003B5C" stroke-width="1.8" stroke-linecap="round" stroke-linejoin="round"/>
</svg>
