<svg width="153" height="120" viewBox="0 0 153 120" fill="none" xmlns="http://www.w3.org/2000/svg">
<path d="M1.12695 93.4723C2.54738 80.3347 9.5317 52.5684 36.2792 52.5684C61.6423 52.5684 70.2483 75.5577 70.8892 95.9507" stroke="#0071BC" stroke-width="1.91448" stroke-linecap="round" stroke-linejoin="round"/>
<path fill-rule="evenodd" clip-rule="evenodd" d="M35.8852 54.9801C23.4142 55.1362 15.9247 65.3846 20.2199 104.044C21.1063 112.02 57.4377 112.905 57.9738 102.693C59.7815 68.2655 49.4757 54.8097 35.8852 54.9801Z" fill="#0082AA"/>
<path fill-rule="evenodd" clip-rule="evenodd" d="M56.7514 31.4172C56.7751 33.5895 54.3439 34.5509 51.8388 34.5396C52.0628 43.9714 48.0027 48.5686 43.2061 50.0755C43.5564 51.5698 43.847 56.7239 43.9014 57.8126C41.9531 60.9523 31.9225 59.7548 29.5274 57.8126V46.3605C27.1855 43.8985 25.5104 40.5471 24.6989 36.7838C21.7532 37.2737 18.2077 36.415 18.2375 33.795C18.256 31.9442 19.9744 29.2994 24.1669 32.125C24.1545 31.9503 24.1545 31.7684 24.1545 31.5928C24.1545 22.161 29.3209 14.5195 37.2645 14.5195C44.5979 14.5195 49.7755 20.9028 51.3305 29.4267C55.1543 27.1394 56.7329 29.6445 56.7514 31.4172Z" fill="#F5AA6E"/>
<path d="M29.6777 28.673C31.2153 27.0676 34.4526 26.4011 36.7636 27.7013" stroke="#003B5C" stroke-width="1.34016" stroke-linecap="round"/>
<path d="M48.256 27.4053C46.5285 25.9406 43.3414 26.2416 41.7051 27.5758C43.7081 31.7294 44.9405 36.5773 44.4691 37.6084C43.9976 38.6387 39.7959 37.2921 39.7959 37.2921" stroke="#003B5C" stroke-width="1.34016" stroke-linecap="round" stroke-linejoin="round"/>
<path d="M37.2051 41.4766C37.4484 42.4359 38.4633 43.2339 39.777 43.2997C41.3289 43.3778 42.0498 42.5221 42.2409 41.6348" stroke="#003B5C" stroke-width="1.34016" stroke-linecap="round"/>
<path fill-rule="evenodd" clip-rule="evenodd" d="M46.4893 30.1404C46.5479 30.6775 46.2387 31.151 45.8012 31.1983C45.3615 31.2466 44.9599 30.849 44.9015 30.3119C44.8438 29.7747 45.1521 29.3002 45.5905 29.254C46.0291 29.2057 46.4307 29.6032 46.4893 30.1404Z" fill="#003B5C"/>
<path fill-rule="evenodd" clip-rule="evenodd" d="M35.6592 30.7672C35.7178 31.3043 35.4086 31.7789 34.9711 31.8261C34.5314 31.8734 34.1298 31.4758 34.0714 30.9387C34.0138 30.4026 34.322 29.9281 34.7604 29.8808C35.199 29.8335 35.6017 30.2301 35.6592 30.7672Z" fill="#003B5C"/>
<path fill-rule="evenodd" clip-rule="evenodd" d="M28.6595 52.7969L37.2368 58.299L44.4326 53.4019L44.9903 59.3836L37.2368 65.6181L27.4834 58.9933L28.6595 52.7969Z" fill="#0082AA"/>
<path fill-rule="evenodd" clip-rule="evenodd" d="M49.9171 6.83587C44.8257 4.98924 42.864 8.28302 39.91 8.26145C38.2873 8.24922 33.7054 7.86808 29.8919 10.1842C26.7367 12.1018 26.1727 16.586 24.5232 17.3111C22.4752 18.2109 20.9151 19.7588 20.4312 22.3028C19.9176 25.0103 19.8079 27.844 20.9561 29.8058C21.5364 30.7969 21.5652 30.9542 23.6645 31.8919C25.2082 32.58 25.4023 34.2604 25.4023 34.2604L27.2367 34.2562L27.2881 24.2985C29.7264 24.5646 32.2593 24.2821 34.6278 23.6566C36.3563 23.2005 38.3529 21.5295 40.9136 20.9729C42.7192 20.5795 45.5694 21.0632 48.2758 21.2029C49.7239 23.5272 50.7664 26.3352 51.3304 29.4278C51.9055 29.0837 52.4294 28.8495 52.9049 28.7037C53.2459 26.475 53.0692 23.4276 52.417 20.9132C57.2465 14.0748 55.0084 8.68267 49.9171 6.83587Z" fill="#005A96"/>
<path fill-rule="evenodd" clip-rule="evenodd" d="M38.2705 67.2841L41.1268 64.1043L37.307 60.418L33.3547 64.9291L36.1167 67.2841L31.9395 101.113L37.8463 106.493L42.6716 101.247L38.2705 67.2841Z" fill="#005A96"/>
<path d="M29.0566 60.4785L32.0208 66.2004L37.3062 60.418L42.4829 65.6303L43.9649 60.7209" stroke="#E6F4F9" stroke-width="1.91448" stroke-linecap="round" stroke-linejoin="round"/>
<path d="M151.778 93.4723C150.358 80.3347 143.373 52.5684 116.626 52.5684" stroke="#0071BC" stroke-width="1.91448" stroke-linecap="round" stroke-linejoin="round"/>
<path d="M151.778 93.4723C150.357 80.3347 143.373 52.5684 116.626 52.5684C91.2625 52.5684 82.6565 75.5577 82.0156 95.9507" stroke="#0071BC" stroke-width="1.91448" stroke-linecap="round" stroke-linejoin="round"/>
<path fill-rule="evenodd" clip-rule="evenodd" d="M117.02 54.9801C129.491 55.1362 136.981 65.3846 132.686 104.044C131.799 112.02 95.4679 112.905 94.9317 102.693C93.124 68.2655 103.43 54.8097 117.02 54.9801Z" fill="#0082AA"/>
<path d="M125.074 60.6465L123.314 68.4073L115.667 64.0729L108.099 67.7827L107.887 60.7225" stroke="#E6F4F9" stroke-width="1.91448" stroke-linecap="round" stroke-linejoin="round"/>
<path fill-rule="evenodd" clip-rule="evenodd" d="M55.7837 67.875C66.2292 63.2418 86.0286 64.575 97.5063 73.2468C108.464 81.5252 110.88 99.9296 109.405 108.289C106.167 126.638 43.5315 119.737 41.5646 112.362C37.6616 97.7254 43.3814 73.3771 55.7837 67.875Z" fill="#F4F4F4"/>
<path d="M100.945 93.618C101.299 81.0432 99.003 75.9047 95.6351 72.3766C87.9833 64.3633 70.9026 62.5711 61.0704 66.2296C50.8087 70.0473 51.546 79.9639 53.3373 86.4735" stroke="#005A96" stroke-width="2.68008" stroke-linejoin="round"/>
<path fill-rule="evenodd" clip-rule="evenodd" d="M77.5567 110.532L86.136 67.5699C86.136 67.5699 85.0586 65.4603 76.8963 64.6693C68.7349 63.8785 65.6455 65.8269 65.6455 65.8269L77.5567 110.532Z" fill="#0082AA"/>
<path fill-rule="evenodd" clip-rule="evenodd" d="M96.8108 92.6957C96.6146 95.0303 98.5168 97.6791 100.98 97.5589C103.319 97.4459 105.197 95.9022 105.393 93.5677C105.588 91.2331 103.76 89.1204 101.427 88.9242C99.092 88.728 97.0059 90.3621 96.8108 92.6957Z" fill="#E6F4F9"/>
<path d="M61.7073 108.284C61.7083 108.284 66.1237 107.517 66.0869 107.357C63.6054 96.4986 63.0907 85.2468 54.3553 86.2544C43.2544 87.5351 46.6706 101.929 48.1763 110.568C48.2226 110.828 52.4326 110.362 52.4973 110.365" stroke="#005A96" stroke-width="2.68008" stroke-linecap="round" stroke-linejoin="round"/>
<path fill-rule="evenodd" clip-rule="evenodd" d="M55.9241 110.227C55.9241 108.834 54.7594 107.581 53.4499 107.653C51.6678 107.753 51.0742 108.784 51.0742 110.178C51.0742 111.572 52.1372 112.703 53.4499 112.703C54.7614 112.703 55.9241 111.621 55.9241 110.227Z" fill="#E6F4F9"/>
<path fill-rule="evenodd" clip-rule="evenodd" d="M63.3002 108.729C63.3002 107.335 62.1356 106.082 60.8249 106.155C59.043 106.255 58.4492 107.286 58.4492 108.68C58.4492 110.075 59.5133 111.205 60.8249 111.205C62.1375 111.205 63.3002 110.123 63.3002 108.729Z" fill="#E6F4F9"/>
<path d="M79.8359 113.964C79.8359 113.964 86.7914 94.412 92.4876 88.8994L85.9142 83.3758L93.9976 80.3376C93.9976 80.3376 91.0159 75.3777 88.2991 72.7207" stroke="#0082AA" stroke-width="1.91448" stroke-linecap="round" stroke-linejoin="round"/>
<path d="M74.2871 113.664C74.2871 113.664 69.1393 93.3684 61.6045 85.8336L65.4634 82.1587L57.8311 78.0605C57.8311 78.0605 57.9296 74.0158 62.5227 71.1328" stroke="#0082AA" stroke-width="1.91448" stroke-linecap="round" stroke-linejoin="round"/>
<path fill-rule="evenodd" clip-rule="evenodd" d="M125.96 8.99306C133.76 8.44356 136.309 17.7028 137.278 33.6885C138.264 49.9258 118.155 47.3828 113.304 48.2054C108.237 49.0651 96.2709 44.2081 95.4019 34.235C94.6306 25.3886 98.1904 24.1325 98.7317 15.0622C99.4507 3.02147 114.565 -1.27893 125.96 8.99306Z" fill="#003B5C"/>
<path fill-rule="evenodd" clip-rule="evenodd" d="M98.2275 29.6191C97.9841 33.2253 101.327 32.0872 102.556 32.2382C102.952 39.963 106.959 46.2026 112.275 46.8414C112.571 49.4933 110.704 56.6214 110.824 59.3114C110.95 62.1483 119.403 61.1407 121.114 59.5199C121.777 58.8913 119.884 51.9748 119.183 46.0505C125.724 42.6806 125.665 35.7046 126.824 32.9541C129.409 33.0907 131.616 33.4717 131.963 30.3463C132.319 27.1417 127.937 28.2449 127.11 28.3578C127.012 25.973 127.548 22.0936 126.344 18.1433C125.531 15.4739 119.87 18.2101 114.299 18.1311C109.777 18.0664 105.582 15.7399 104.214 16.5658C102.618 17.9124 102.649 21.9415 102.421 27.6975C99.7557 27.5793 98.3784 27.3913 98.2275 29.6191Z" fill="#693223"/>
<path d="M105.079 24.1219C106.671 22.384 110.392 22.4344 111.71 23.6546C113.953 25.0082 110.144 31.862 111.515 33.3349C112.843 34.7615 114.922 33.7848 115.283 33.2681" stroke="#25282A" stroke-width="1.34016" stroke-linecap="round" stroke-linejoin="round"/>
<path d="M123.573 24.8264C121.982 23.2395 118.664 22.3358 116.339 23.9431" stroke="#25282A" stroke-width="1.34016" stroke-linecap="round" stroke-linejoin="round"/>
<path fill-rule="evenodd" clip-rule="evenodd" d="M118.688 27.4025C118.736 27.9839 119.121 28.4276 119.548 28.3916C119.975 28.3578 120.283 27.8575 120.235 27.2762C120.188 26.6948 119.803 26.2522 119.376 26.2871C118.948 26.322 118.641 26.8211 118.688 27.4025Z" fill="#25282A"/>
<path fill-rule="evenodd" clip-rule="evenodd" d="M107.597 27.3576C107.644 27.939 108.029 28.3825 108.456 28.3478C108.884 28.3129 109.192 27.8126 109.143 27.2312C109.096 26.6499 108.711 26.2072 108.284 26.2422C107.856 26.2771 107.549 26.7762 107.597 27.3576Z" fill="#25282A"/>
<path d="M116.151 37.7659C115.35 40.7476 111.715 40.2154 111.212 37.7012" stroke="#25282A" stroke-width="1.34016" stroke-linecap="round" stroke-linejoin="round"/>
<path fill-rule="evenodd" clip-rule="evenodd" d="M88.7273 21.775C91.9204 19.7012 91.1944 14.8 87.2297 13.968C90.877 7.34936 84.9682 3.08292 78.8168 6.58225C80.1181 0.914699 71.1783 -3.97318 67.1675 4.78068C59.7253 2.64529 56.2506 11.6211 60.8838 15.4819C56.7148 16.6724 55.2501 24.24 59.259 26.0713C58.8922 26.4657 58.4589 28.6955 60.1257 30.1098C59.3216 32.0788 58.7803 34.5479 58.7463 37.6004C58.6929 42.2953 60.7831 46.7642 65.5293 49.0546C64.7036 46.4006 64.3204 43.8636 63.9003 42.6619C63.7544 40.0243 63.7514 34.7091 63.8048 31.2787C63.847 31.2808 63.888 31.2827 63.9312 31.2838C65.6629 31.3331 67.5588 30.6347 68.8643 28.6812C71.811 33.8577 79.8788 30.6429 80.5989 29.4771C81.4616 30.9953 85.5721 32.5605 88.907 32.0336C88.7479 36.182 88.4787 42.0765 88.3246 42.7934L88.2045 43.4034C88.001 44.6391 87.7865 45.8182 87.5605 46.9069C89.9207 44.0793 91.8044 39.329 90.8862 31.3957C91.0104 31.33 91.1306 31.2602 91.2488 31.1842C91.3227 31.1369 91.3967 31.0856 91.4675 31.0342C96.2888 27.541 93.4754 21.4134 88.7273 21.775Z" fill="#0082AA"/>
<path fill-rule="evenodd" clip-rule="evenodd" d="M88.8965 37.4942C88.8832 37.1737 88.9366 33.4988 88.9818 31.046C85.6335 31.6089 81.4675 30.0313 80.5987 28.502C79.8787 29.6678 71.8108 33.8582 68.8641 28.6806C67.5587 30.6353 65.6627 31.3336 63.931 31.2844C63.8827 31.2834 63.8375 31.2802 63.7903 31.2783C63.7491 33.5759 63.746 36.4671 63.8098 37.8711C62.1603 36.4794 56.3983 35.1288 57.4685 40.0465C58.097 42.9346 61.6026 42.9892 63.9001 42.6625C64.8307 45.3237 65.4161 54.7381 73.4038 57.6427C72.3172 62.7228 70.683 69.0486 71.286 69.6833C72.8379 71.3256 80.6788 72.4164 81.4809 69.8621C82.2831 67.3066 80.1211 57.8235 80.1211 57.8235C82.6621 57.6427 84.667 54.848 85.8614 52.6006C86.7581 50.9111 87.6025 47.1951 88.2915 42.8649C88.5104 43.0323 89.0168 42.8957 89.3731 42.9081C93.6048 43.0518 94.3402 41.2092 94.5383 39.1293C94.8054 36.349 91.1222 36.4456 88.8965 37.4942Z" fill="#BC5724"/>
<path fill-rule="evenodd" clip-rule="evenodd" d="M71.8453 38.4549C71.8453 39.1667 71.457 39.7439 70.9763 39.7439C70.4966 39.7439 70.1074 39.1667 70.1074 38.4549C70.1074 37.7432 70.4966 37.166 70.9763 37.166C71.457 37.166 71.8453 37.7432 71.8453 38.4549Z" fill="#003B5C"/>
<path fill-rule="evenodd" clip-rule="evenodd" d="M84.4703 38.4549C84.4703 39.1667 84.082 39.7439 83.6013 39.7439C83.1216 39.7439 82.7324 39.1667 82.7324 38.4549C82.7324 37.7432 83.1216 37.166 83.6013 37.166C84.082 37.166 84.4703 37.7432 84.4703 38.4549Z" fill="#003B5C"/>
<path d="M86.7827 33.5993C84.8794 32.1233 81.0186 32.0966 78.7765 34.3891C77.391 37.9983 79.2079 46.9946 78.341 47.2771C77.4742 47.5605 75.798 46.9001 74.5664 46.1914" stroke="#003B5C" stroke-width="1.34016" stroke-linecap="round"/>
<path d="M72.6357 49.8457C73.0764 52.3159 75.9368 52.8099 77.0718 51.0073" stroke="#003B5C" stroke-width="1.34016" stroke-linecap="round"/>
<path d="M66.8301 33.9509C68.8349 32.396 72.4894 32.3981 74.4059 33.8124" stroke="#003B5C" stroke-width="1.34016" stroke-linecap="round"/>
<path d="M115.666 64.0723L115.065 105.374" stroke="#E6F4F9" stroke-width="1.91448" stroke-linecap="round" stroke-linejoin="round"/>
<path fill-rule="evenodd" clip-rule="evenodd" d="M97.0046 93.0746C96.8157 95.3209 98.6459 97.8691 101.015 97.7541C103.267 97.6453 105.074 96.159 105.262 93.9127C105.451 91.6664 103.692 89.6328 101.446 89.4449C99.1996 89.2569 97.1926 90.8283 97.0046 93.0746Z" stroke="#005A96" stroke-width="2.14416"/>
<path fill-rule="evenodd" clip-rule="evenodd" d="M99.4761 93.3855C99.4001 94.2873 100.134 95.3113 101.087 95.264C101.99 95.2199 102.715 94.6242 102.792 93.7224C102.868 92.8206 102.161 92.004 101.259 91.9281C100.357 91.8521 99.5511 92.4837 99.4761 93.3855Z" stroke="#005A96" stroke-width="1.43664"/>
</svg>
