<svg width="400" height="267" viewBox="0 0 400 267" fill="none" xmlns="http://www.w3.org/2000/svg">
<mask id="mask0_4708_164272" style="mask-type:alpha" maskUnits="userSpaceOnUse" x="15" y="7" width="212" height="228">
<path d="M117.854 233.873C82.5985 239.287 46.9182 223.184 32.031 200.903C17.1437 178.622 15.1906 144.556 19.8939 133.887C24.5973 123.218 7.27209 84.223 19.3892 49.8647C26.1054 30.8055 57.6335 7.10939 114.824 7.10938C172.015 7.10938 197.731 29.7957 213.807 47.1476C225.267 59.5371 217.003 129.709 223.154 132.326C232.162 136.152 219.334 182.628 208.758 197.987C192.549 221.523 153.122 228.452 117.867 233.86" fill="#BBE5FA"/>
</mask>
<g mask="url(#mask0_4708_164272)">
<path d="M117.854 233.873C82.5985 239.287 46.9182 223.184 32.031 200.903C17.1437 178.622 15.1906 144.556 19.8939 133.887C24.5973 123.218 7.27209 84.223 19.3892 49.8647C26.1054 30.8055 57.6335 7.10939 114.824 7.10938C172.015 7.10938 197.731 29.7957 213.807 47.1476C225.267 59.5371 217.003 129.709 223.154 132.326C232.162 136.152 219.334 182.628 208.758 197.987C192.549 221.523 153.122 228.452 117.867 233.86" fill="#E6F4F9"/>
<path d="M70.5986 41.0055C72.3659 37.653 75.0181 34.8489 78.267 32.8977C81.5159 30.9464 85.2373 29.9226 89.0271 29.9377C92.8169 29.9527 96.5302 31.0061 99.7635 32.9831C102.997 34.9601 105.626 37.7852 107.367 41.1516C109.108 44.5181 109.893 48.2972 109.636 52.0784C109.38 55.8595 108.093 59.4982 105.914 62.5992C103.736 65.7002 100.749 68.1449 97.2785 69.6678C93.8081 71.1907 89.9868 71.7334 86.2296 71.2373" stroke="white" stroke-width="2" stroke-linecap="round" stroke-linejoin="round"/>
<path d="M88.7498 64.956C89.1443 62.7417 88.9212 60.4615 88.1049 58.3657C87.2887 56.2699 85.9109 54.4393 84.1227 53.0751C82.3345 51.7108 80.2051 50.8657 77.9681 50.6322C75.7311 50.3987 73.473 50.786 71.4416 51.7515C71.3373 51.8053 71.2231 51.8368 71.106 51.8444C70.9889 51.8519 70.8715 51.8353 70.7612 51.7953C70.6509 51.7553 70.55 51.693 70.4649 51.6122C70.3798 51.5314 70.3123 51.4339 70.2667 51.3258C70.1853 51.1626 70.1585 50.9775 70.1901 50.7978C70.3532 49.9361 70.4359 49.0611 70.4371 48.1841C70.4575 44.3345 69.0186 40.6202 66.4102 37.7891" stroke="white" stroke-width="2" stroke-linecap="round" stroke-linejoin="round"/>
<path d="M63.8823 84.5191H64.342C74.2689 84.5191 113.883 84.7234 113.883 84.7234C115.437 84.7007 116.991 84.7603 118.54 84.9022C118.429 66.4362 117.688 31.4198 117.688 31.4198C117.688 30.5914 117.525 29.771 117.208 29.0056C116.891 28.2402 116.426 27.5447 115.84 26.9589C115.255 26.3731 114.559 25.9085 113.794 25.5915C113.028 25.2744 112.208 25.1113 111.38 25.1113L63.8057 25.9201C63.8057 26.3883 63.8057 26.865 63.8057 27.3673C63.8482 27.3673 63.8737 66.4874 63.8823 84.5191Z" stroke="white" stroke-width="2" stroke-linecap="round" stroke-linejoin="round"/>
<path d="M63.8821 90.384V91.3206C63.8821 102.593 63.6777 147.561 63.6777 147.561C63.6777 148.37 63.6777 149.128 63.6777 149.817H107.531C109.205 149.817 110.811 149.153 111.995 147.97C113.18 146.787 113.846 145.183 113.848 143.509C113.848 143.509 118.454 106.9 118.582 90.0859C117.028 90.2324 115.468 90.2922 113.908 90.2649L63.8821 90.384Z" stroke="white" stroke-width="2" stroke-linecap="round" stroke-linejoin="round"/>
<path d="M63.7197 75.0776H76.737C79.6081 75.0654 82.3837 74.0453 84.5792 72.1952C86.7748 70.345 88.2509 67.7826 88.7497 64.9551" stroke="white" stroke-width="2" stroke-linecap="round" stroke-linejoin="round"/>
<path d="M57.7772 33.1303C56.9197 32.8851 56.0296 32.7732 55.138 32.7984C51.2447 32.7898 47.494 34.2632 44.6478 36.9197C41.8015 39.5762 40.0731 43.2164 39.8136 47.1011C39.8143 47.2212 39.7896 47.3401 39.741 47.45C39.6925 47.5599 39.6213 47.6583 39.532 47.7387C39.4428 47.8192 39.3375 47.8798 39.2232 47.9167C39.1088 47.9535 38.9879 47.9656 38.8685 47.9524C38.7205 47.941 38.5775 47.8944 38.4513 47.8163C36.8227 46.7694 34.942 46.1809 33.0071 46.1127C31.0722 46.0446 29.1546 46.4993 27.4563 47.429C25.758 48.3588 24.3419 49.7291 23.3568 51.3959C22.3716 53.0626 21.854 54.9641 21.8584 56.9002V57.2835C21.8678 57.4009 21.8527 57.5189 21.8142 57.6302C21.7756 57.7415 21.7145 57.8435 21.6345 57.9299C21.5545 58.0163 21.4573 58.0852 21.3493 58.1321C21.2413 58.1791 21.1248 58.2032 21.007 58.2028C20.9059 58.2064 20.8051 58.192 20.709 58.1602C19.8802 57.9129 19.0199 57.7868 18.155 57.7856C15.9045 57.8562 13.7699 58.7998 12.203 60.4166C10.636 62.0335 9.75977 64.1967 9.75977 66.4482C9.75977 68.6998 10.636 70.863 12.203 72.4799C13.7699 74.0967 15.9045 75.0403 18.155 75.1109H57.7943" stroke="white" stroke-width="2" stroke-linecap="round" stroke-linejoin="round"/>
<path d="M116.99 160.639H3.38436C1.71044 160.637 0.105882 159.97 -1.07696 158.786C-2.2598 157.601 -2.92424 155.996 -2.92424 154.322L-6.07422 76.8484L-2.92424 22.2678C-2.92424 20.5939 -2.2598 18.9884 -1.07696 17.804C0.105882 16.6195 1.71044 15.953 3.38436 15.9508L120.872 14.248C121.701 14.248 122.523 14.4113 123.289 14.7288C124.056 15.0463 124.752 15.5115 125.339 16.0981C125.925 16.6847 126.391 17.3811 126.708 18.1475C127.025 18.914 127.189 19.7355 127.189 20.5651C127.189 20.5651 127.938 79.1811 127.938 91.7131C127.938 104.245 123.29 154.279 123.29 154.279C123.295 155.111 123.137 155.936 122.823 156.706C122.509 157.476 122.046 158.177 121.46 158.768C120.875 159.359 120.179 159.828 119.412 160.149C118.644 160.47 117.821 160.637 116.99 160.639V160.639Z" stroke="white" stroke-width="2" stroke-linecap="round" stroke-linejoin="round"/>
<path d="M58.0078 84.527V77.9375L58.144 28.8821C58.144 27.835 58.144 26.8643 58.144 26.0215L12.7581 26.7964C11.0827 26.7964 9.47597 27.462 8.29129 28.6466C7.10661 29.8313 6.441 31.438 6.441 33.1134C4.4779 48.1448 3.42601 63.2812 3.29102 78.4397C3.29102 80.3978 3.29098 82.5093 3.35909 84.7228C4.89328 84.5872 6.43346 84.5302 7.97348 84.5524L58.0078 84.527Z" stroke="white" stroke-width="2" stroke-linecap="round" stroke-linejoin="round"/>
<path d="M3.41797 86.4688C3.96284 109.873 6.46579 143.51 6.46579 143.51C6.46805 145.184 7.13456 146.788 8.31899 147.971C9.50343 149.154 11.109 149.818 12.7829 149.818H58.1773C58.1773 149.129 58.1773 148.371 58.1773 147.562L58.0581 90.3936H52.5923L9.37748 90.2489" stroke="white" stroke-width="2" stroke-linecap="round" stroke-linejoin="round"/>
<path d="M118.539 84.902C116.991 84.7602 115.436 84.7005 113.882 84.7233C113.882 84.7233 74.2681 84.519 64.3413 84.519H63.8815C63.8815 66.4872 63.8815 27.3672 63.8815 27.3672C63.8815 26.8649 63.8815 26.3882 63.8815 25.9199L58.2116 26.022C58.2116 26.8733 58.2116 27.8355 58.2116 28.8826L58.0753 77.938V84.5275H8.06655C6.52653 84.5053 4.98634 84.5621 3.45215 84.6977C3.45215 85.2766 3.45215 85.8556 3.45215 86.4004L3.61396 90.0017C3.61396 90.1549 6.61075 90.1975 9.36915 90.1975L52.5841 90.3421H58.0497L58.1689 147.511C58.1689 148.32 58.1689 149.077 58.1689 149.767H63.6687C63.6687 149.077 63.6687 148.32 63.6687 147.511C63.6687 147.511 63.873 102.542 63.873 91.2702V90.3336L113.873 90.2145C115.433 90.2418 116.994 90.1822 118.547 90.0357V89.3631C118.556 88.052 118.556 86.5452 118.539 84.902Z" stroke="white" stroke-width="2" stroke-linecap="round" stroke-linejoin="round"/>
</g>
<path d="M305.029 199.55C304.532 199.456 304.017 199.538 303.574 199.783C303.131 200.027 302.787 200.418 302.602 200.889C302.491 201.389 302.582 201.913 302.855 202.347C303.129 202.78 303.562 203.087 304.062 203.202C304.164 203.238 304.27 203.261 304.378 203.271C304.582 203.295 304.79 203.278 304.988 203.222C305.186 203.166 305.371 203.071 305.532 202.943C305.694 202.815 305.828 202.657 305.928 202.477C306.028 202.297 306.092 202.099 306.116 201.894C306.318 200.94 305.92 199.802 305.029 199.55Z" stroke="#F4F4F4" stroke-width="1.14" stroke-miterlimit="7.15"/>
<path d="M139.774 132.705C150.173 113.422 170.927 112.314 181.311 114.968C182.897 124.927 205.591 132.593 214.563 126C237.691 126 247.135 147.669 238.058 193.527C228.98 239.384 255.213 244.423 223.64 258.029C192.067 271.635 161.317 253.295 146.214 244.423C131.111 235.551 121.364 166.846 139.774 132.705Z" fill="#003B5C"/>
<path d="M220.29 127.733C243.373 129.171 251.452 151.385 239.542 196.589C227.631 241.793 253.5 248.454 221.143 260.071C188.785 271.688 159.234 251.472 144.712 241.678" stroke="#0071BC" stroke-width="2"/>
<path d="M283.978 163.929C277.232 182.883 255.31 200.045 240.297 198.845C229.307 197.963 231.229 179.454 224.105 163.714C219.199 152.878 211.214 156.307 197.619 160.529C184.024 164.751 179.809 176.476 188.64 197C197.471 217.525 225.826 237.427 251.095 232.272C285.41 225.28 300.497 186.542 305.32 169.714" stroke="#0082AA" stroke-width="2.04" stroke-linecap="round" stroke-linejoin="round"/>
<path d="M284.06 162.658C285.86 170.659 300.853 171.159 305.327 169.609C309.8 168.059 314.897 147.602 311.844 147.26C308.79 146.917 308.684 157.466 304.795 160.081C307.689 150.284 305.106 140.793 302.334 141.627C299.562 142.462 303.094 149.666 299.296 158.837C300.815 146.753 296.554 141.702 295.103 141.963C292.825 142.432 296.941 154.627 293.653 157.57C292.536 146.88 293.03 144.265 290.736 144.362C288.442 144.458 289.817 158.159 288.7 159.783C287.584 161.407 284.037 162.681 284.037 162.681" fill="#F5AA6E"/>
<path d="M229.236 174.287C216.204 192.264 198.242 207.876 185.936 202.278C174.849 197.23 183.048 182.725 180.355 163.887C178.5 150.928 171.295 141.278 155.555 141.583C139.815 141.888 128.265 163.634 131.272 188.048C134.279 212.463 145.007 249.754 173.435 252.067C212.052 255.204 242.41 217.645 248.919 200.464" stroke="#0082AA" stroke-width="2.04" stroke-linecap="round" stroke-linejoin="round"/>
<path d="M276.135 169.204L255.539 166.633C254.768 166.474 254.093 166.019 253.661 165.368C253.23 164.716 253.078 163.923 253.238 163.161L262.502 121.125C262.812 119.508 264.011 117.541 267.202 118.353L285.09 122.295C286.674 122.593 287.473 125.373 287.164 126.99L279.56 166.797C279.428 167.565 278.994 168.25 278.352 168.701C277.709 169.153 276.912 169.334 276.135 169.204Z" fill="#0082AA"/>
<path d="M271.247 125.592C271.239 125.921 271.17 126.243 271.045 126.536C270.92 126.828 270.742 127.084 270.524 127.284C270.305 127.484 270.053 127.623 269.784 127.692C269.515 127.761 269.237 127.757 268.969 127.681C268.376 127.579 267.84 127.202 267.476 126.632C267.113 126.062 266.952 125.344 267.028 124.633C267.192 123.943 267.555 123.345 268.052 122.943C268.549 122.541 269.149 122.362 269.746 122.437C270.794 122.676 271.383 124.223 271.247 125.592Z" stroke="#F4F4F4" stroke-width="1.2" stroke-miterlimit="10"/>
<path d="M264.551 120.293C264.551 120.293 255.584 161.4 255.362 162.351C255.14 163.303 255.523 164.522 256.978 164.582C258.433 164.641 277.652 167.117 277.652 167.117" stroke="#003B5C" stroke-width="1.39" stroke-linecap="round" stroke-linejoin="round"/>
<path d="M235.099 176.334L244.965 191.594C255.003 188.768 259.203 180.992 261.984 176.902C265.322 171.997 275.479 166.689 275.063 164.505C274.646 162.322 263.404 168.618 263.404 168.618C266.148 165.081 277.449 157.088 276.535 155.376C275.62 153.664 261.419 163.391 260.965 162.412C260.512 161.432 276.438 150.546 275.561 147.862C274.683 145.178 257.761 156.976 257.761 156.976C261.984 147.316 268.691 147.167 268.378 145.903C267.226 143.66 261.687 144.804 257.389 148.819C254.021 151.944 240.683 174.322 235.084 176.334" fill="#F5AA6E"/>
<path d="M184.648 113.367C186.042 119.881 196.782 128.274 211.66 124.801L212.781 115.991C218.181 120.358 226.398 119.486 230.293 118.175C234.187 116.863 242.943 111.079 239.697 85.2976C236.452 59.5163 229.319 53.248 229.319 53.248L190.077 60.1351L188.668 82.3089C185.209 77.6132 177.84 73.879 175.745 81.7796C174.395 86.8479 178.4 92.2144 187.48 90.7237C186.396 95.0988 184.648 113.337 184.648 113.337" fill="#F5AA6E"/>
<path d="M205.287 73.468C208.313 71.0025 215.302 68.9023 220.186 71.3982" stroke="#003B5C" stroke-width="1.75" stroke-miterlimit="10" stroke-linecap="round"/>
<path d="M237.212 70.0351C235.61 69.3342 233.854 69.0735 232.12 69.2793C230.387 69.4851 228.738 70.15 227.339 71.2071C232.215 79.2145 236.112 88.6779 235.249 90.7526C234.386 92.8273 225.506 90.2431 225.506 90.2431" stroke="#003B5C" stroke-width="1.75" stroke-miterlimit="10" stroke-linecap="round"/>
<path d="M236.148 77.2506C236.14 77.5549 236.074 77.8493 235.959 78.0993C235.843 78.3494 235.683 78.5449 235.497 78.6629C235.31 78.7809 235.106 78.8166 234.907 78.7658C234.707 78.7149 234.522 78.5797 234.372 78.3759C234.221 78.1721 234.113 77.9081 234.059 77.6148C234.004 77.3215 234.007 77.0109 234.065 76.7195C234.124 76.428 234.236 76.1677 234.389 75.9689C234.542 75.7701 234.73 75.641 234.93 75.5968C235.235 75.5807 235.533 75.7442 235.761 76.0527C235.988 76.3613 236.127 76.7907 236.148 77.2506Z" fill="#003B5C"/>
<path d="M218.057 79.3788C218.049 79.6834 217.983 79.9781 217.868 80.2285C217.752 80.4788 217.592 80.6743 217.405 80.7923C217.219 80.9102 217.014 80.9456 216.814 80.8943C216.615 80.843 216.429 80.7071 216.279 80.5025C216.129 80.298 216.021 80.0333 215.967 79.7394C215.913 79.4456 215.916 79.1347 215.975 78.8432C216.035 78.5518 216.148 78.2919 216.302 78.094C216.456 77.896 216.644 77.7681 216.844 77.7254C217.149 77.7115 217.446 77.8759 217.672 78.1842C217.898 78.4924 218.036 78.9205 218.057 79.3788Z" fill="#003B5C"/>
<path d="M189.917 85.1509L193.275 84.2732L193.02 65.2111C201.872 66.9663 213.378 64.0807 216.661 61.4478C219.944 58.815 232.844 64.8318 239.035 55.4234C245.226 46.0151 245.863 33.6021 236.254 29.0875C226.645 24.573 216.406 32.598 213.25 32.3451C210.095 32.0923 203.506 29.9651 198.08 34.7325C192.653 39.4999 192.39 47.5249 188.98 48.4025C185.569 49.2801 176.777 52.4559 176.08 57.9373C175.331 63.7533 174.828 71.9197 177.579 75.9954C179.288 78.5092 183.163 77.7208 185.982 79.7959C187.656 81.2856 188.981 83.121 189.865 85.1731" fill="#005A96"/>
<path d="M192.075 85.174L190.791 59.9479C199.653 61.7041 211.182 58.8169 214.479 56.1827C217.776 53.5485 230.686 60.5953 236.897 51.182C243.108 41.7688 243.732 29.3493 234.111 24.8324C224.49 20.3155 214.223 28.3447 211.054 28.0917C207.885 27.8387 201.291 25.7104 195.853 30.4729C190.416 35.2353 190.16 43.2794 186.736 44.1575C183.311 45.0356 175.245 48.3543 173.818 53.6972C172.233 59.6503 171.73 68.2078 173.067 74.4362" stroke="#0071BC" stroke-width="2.04" stroke-miterlimit="10" stroke-linecap="round"/>
<path d="M221.013 104.081C223.568 104.081 229.237 103.267 230.962 101.392" stroke="#003B5C" stroke-width="2" stroke-miterlimit="7.15" stroke-linecap="round"/>
<path d="M309.003 136.501C331.585 121.963 333.586 101.677 330.651 93.8127C326.502 82.6754 316.88 86.4027 320.71 93.3012C326.879 104.4 380.884 97.2459 384.337 59.5185C387.789 21.7912 367.88 12.0349 355.976 6.49823C341.674 -0.163676 306.408 -1.64054 288.404 18.3324C271.321 37.2888 269.416 76.2884 310.602 88.3719" stroke="#0071BC" stroke-width="3" stroke-miterlimit="10" stroke-linecap="round"/>
<path fill-rule="evenodd" clip-rule="evenodd" d="M337.072 24.3512C348.231 29.0001 353.537 41.5124 349.135 52.5191L348.908 53.065C348.044 55.1478 348.301 56.4661 349.3 57.4649L352.52 60.6651L355.964 64.0485L358.383 66.4059C360.023 67.999 360.107 70.5517 358.627 72.2434L358.399 72.4843C356.761 74.0921 354.152 74.1688 352.421 72.7096L352.19 72.5011L343.669 64.229C343.083 63.66 343.078 62.7323 343.658 62.157C344.189 61.6296 345.028 61.5814 345.615 62.0153L345.769 62.1456L354.29 70.4177C354.798 70.9108 355.59 70.9499 356.143 70.5363L356.288 70.4123C356.83 69.8748 356.825 69.0157 356.283 68.4886L352.68 64.9722L350.402 62.7295L347.169 59.5178C345.418 57.7674 344.882 55.3611 345.968 52.4065L346.152 51.9395C350.325 42.289 345.738 31.1449 335.906 27.0485C326.073 22.9521 314.719 27.4546 310.545 37.1051C306.372 46.7557 310.959 57.8998 320.792 61.9962C321.55 62.3124 321.905 63.1725 321.582 63.9173C321.26 64.6622 320.384 65.0097 319.625 64.6935C308.275 59.9648 302.979 47.1004 307.797 35.9602C312.615 24.8199 325.722 19.6224 337.072 24.3512ZM328.236 28.4728C337.266 28.4728 344.586 35.7929 344.586 44.8228C344.586 53.8527 337.266 61.1729 328.236 61.1729C319.206 61.1729 311.886 53.8527 311.886 44.8228C311.886 35.7929 319.206 28.4728 328.236 28.4728ZM328.236 30.9882C320.595 30.9882 314.401 37.1822 314.401 44.8228C314.401 52.4635 320.595 58.6575 328.236 58.6575C335.877 58.6575 342.071 52.4635 342.071 44.8228C342.071 37.1822 335.877 30.9882 328.236 30.9882Z" fill="#0071BC"/>
<path fill-rule="evenodd" clip-rule="evenodd" d="M323.392 39.8676C323.896 39.3751 324.686 39.3547 325.214 39.8004L325.309 39.8894L328.226 42.8734L331.086 40.081C331.622 39.5579 332.48 39.568 333.004 40.1036C333.496 40.6078 333.516 41.3978 333.07 41.925L332.981 42.0207L330.121 44.8129L333.038 47.796C333.562 48.3314 333.552 49.1897 333.017 49.7131C332.513 50.2056 331.723 50.2259 331.195 49.7803L331.1 49.6913L328.181 46.707L325.322 49.4998C324.786 50.0229 323.928 50.0127 323.405 49.4771C322.913 48.9729 322.893 48.183 323.339 47.6557L323.428 47.56L326.286 44.7675L323.371 41.7847C322.847 41.2493 322.857 40.391 323.392 39.8676Z" fill="#0071BC"/>
</svg>
