<svg width="400" height="267" viewBox="0 0 400 267" fill="none" xmlns="http://www.w3.org/2000/svg">
<mask id="mask0_4708_164277" style="mask-type:alpha" maskUnits="userSpaceOnUse" x="11" y="3" width="199" height="215">
<path d="M114.1 4.36814C147.194 -0.474604 180.544 14.8617 194.355 35.8531C208.167 56.8445 209.772 88.8006 205.291 98.7734C200.81 108.746 216.797 145.426 205.207 177.563C198.783 195.39 169.062 217.4 115.435 217.021C61.8083 216.641 37.8458 195.198 22.8864 178.82C12.2234 167.127 20.438 101.383 14.6872 98.8881C6.26587 95.2403 18.6031 51.7463 28.6219 37.4147C43.9773 15.4524 80.9932 9.21704 114.087 4.38052" fill="#BBE5FA"/>
</mask>
<g mask="url(#mask0_4708_164277)">
<path d="M114.1 4.36814C147.194 -0.474604 180.544 14.8617 194.355 35.8531C208.167 56.8445 209.772 88.8006 205.291 98.7734C200.81 108.746 216.797 145.426 205.207 177.563C198.783 195.39 169.062 217.4 115.435 217.021C61.8083 216.641 37.8458 195.198 22.8864 178.82C12.2234 167.127 20.438 101.383 14.6872 98.8881C6.26587 95.2403 18.6031 51.7463 28.6219 37.4147C43.9773 15.4524 80.9932 9.21704 114.087 4.38052" fill="#E6F4F9"/>
<path fill-rule="evenodd" clip-rule="evenodd" d="M98.5158 38.4241L98.5158 6.36172C98.5158 5.90682 98.696 5.47066 99.0171 5.14841C99.3382 4.82615 99.7739 4.64423 100.229 4.64258V4.64258C100.684 4.64423 101.119 4.82615 101.441 5.14841C101.762 5.47066 101.942 5.90682 101.942 6.36172L101.942 38.4241C119.889 39.1592 134.166 51.3685 134.166 66.3189L66.2666 66.3189C66.2853 51.3498 80.5629 39.1405 98.5158 38.4241Z" stroke="white" stroke-width="2" stroke-linecap="round" stroke-linejoin="round"/>
<path fill-rule="evenodd" clip-rule="evenodd" d="M45.0308 16.2899L45.0308 6.32296C45.0325 5.86749 45.2141 5.43111 45.5362 5.10904C45.8583 4.78696 46.2946 4.60516 46.7501 4.60352V4.60352C47.205 4.60516 47.6407 4.78709 47.9618 5.10934C48.2828 5.43159 48.4632 5.86806 48.4632 6.32296L48.4632 16.2211C61.8313 16.8441 72.4584 26.6866 72.4584 38.7279L21.7207 38.7279C21.7207 26.9171 31.9866 17.243 45.0308 16.2899Z" stroke="white" stroke-width="2" stroke-linecap="round" stroke-linejoin="round"/>
<path d="M-84.1904 187.721C-83.7232 189.141 77.0927 188.194 77.0927 188.194" stroke="white" stroke-width="2" stroke-miterlimit="7.15"/>
<path d="M77.1056 212.32L-84.6572 211.373" stroke="white" stroke-width="2" stroke-miterlimit="7.15"/>
<path d="M88.4176 156.867L87.2091 129.228C87.2839 124.095 85.9633 120.581 80.251 120.581C47.3478 120.581 -57.3171 120.07 -86.6385 120.936C-90.8433 121.055 -94.1635 124.176 -94.1137 127.951L-93.8022 156.605C-90.8869 156.468 -88.2955 157.851 -86.2087 161.994C-85.7808 163.104 -85.5062 164.267 -85.3927 165.451L79.1235 165.594C79.2381 164.41 79.5148 163.246 79.9458 162.137C82.2382 157.596 85.1472 156.406 88.4176 156.867Z" stroke="white" stroke-width="2" stroke-miterlimit="7.15"/>
<path d="M79.124 165.639C77.305 178.477 78.0525 217.965 78.0525 217.965H90.3492L91.296 178.72L95.5507 170.678C99.8115 162.642 95.0772 158.843 90.8226 157.435C90.0402 157.17 89.2354 156.976 88.4181 156.855" stroke="white" stroke-width="2" stroke-miterlimit="7.15"/>
</g>
<path d="M315.894 201.065C315.401 200.972 314.891 201.053 314.451 201.296C314.012 201.539 313.67 201.927 313.487 202.394C313.376 202.89 313.466 203.41 313.738 203.84C314.009 204.27 314.439 204.576 314.935 204.689C315.036 204.725 315.142 204.748 315.249 204.758C315.452 204.782 315.657 204.765 315.854 204.709C316.05 204.653 316.234 204.559 316.394 204.432C316.554 204.305 316.688 204.148 316.787 203.969C316.887 203.791 316.95 203.594 316.973 203.391C317.174 202.444 316.779 201.316 315.894 201.065Z" stroke="#F4F4F4" stroke-width="1.14" stroke-miterlimit="7.15"/>
<path d="M240.186 220.201C256.1 256.676 307.815 196.448 307.815 196.448M224.053 127.868C224.053 127.868 239.635 126.12 248.224 136.524C271.549 164.163 226.571 247.165 303.331 184.505L224.053 127.868Z" stroke="#005A96" stroke-width="2.15" stroke-linecap="round" stroke-linejoin="round"/>
<path d="M294.751 201.294H294.827C295.672 201.379 296.516 201.127 297.176 200.594C297.836 200.06 298.258 199.287 298.352 198.443L304.338 154.006C304.566 152.201 303.54 149.17 301.791 148.942L282.029 145.617C278.466 144.914 277.278 147.156 277.069 148.961L269.373 195.954C269.245 196.804 269.459 197.67 269.968 198.363C270.478 199.056 271.241 199.519 272.091 199.65L294.722 201.313" fill="#AF181E"/>
<path d="M296.062 199.469C296.062 199.469 275.16 197.796 273.639 197.834C272.119 197.872 271.635 196.542 271.739 195.478C271.844 194.414 279.122 148.371 279.122 148.371" stroke="#F4F4F4" stroke-width="1.32" stroke-miterlimit="7.15" stroke-linecap="round"/>
<path d="M298.95 193.331C298.95 193.331 298.95 189.873 297.753 188.258C296.556 186.643 282.551 181.683 283.245 179.774C283.938 177.864 286.371 179.422 297.335 183.251C295.615 179.279 282.076 177.227 282.428 175.156C282.646 173.845 289.173 172.629 300.594 179.222C292.869 172.144 284.499 171.783 284.66 169.151C284.822 166.519 295.112 168.629 303.767 175.327C302.58 170.994 292.147 166.234 293.61 163.925C295.074 161.617 313.468 174.795 313.392 179.127C313.316 183.46 307.501 195.431 298.95 193.379" fill="#F5AA6E"/>
<path d="M185.583 41.768C190.733 19.6398 246.999 1.3687 261.412 37.8817C275.664 73.9862 239.844 90.3948 252.262 105.616C266.581 123.174 246.011 136.599 233.07 144.78C213.735 157.027 163.711 159.412 146.001 131.041C128.291 102.671 170.704 95.0504 171.056 83.1264C171.407 71.2025 162.4 51.4497 185.612 41.768" fill="#AA0A0A"/>
<path d="M164.908 146.129C154.133 142.737 144.613 136.694 138.694 127.222C120.955 98.8417 163.397 91.231 163.748 79.3071C164.1 67.3831 155.093 47.6304 178.304 37.9487C183.444 15.8204 246.276 2.09111 258.969 34.0531" stroke="#005A96" stroke-width="1.85" stroke-linecap="round" stroke-linejoin="round"/>
<path d="M207.311 126.092C106.599 137.322 153.003 247.659 160.565 251.839C160.565 251.839 180.518 266.034 215.245 266.034C254.447 266.034 254.447 246.5 254.447 243.944C254.53 239.641 253.804 235.362 252.309 231.326C249.325 222.5 248.822 210.186 250.874 192.267C254.019 164.666 261.895 120.324 210.143 126.073" fill="#0082AA"/>
<path d="M213.079 194.033C197.877 190.983 166.59 190.774 153.222 196.645" stroke="#005A96" stroke-width="2.15" stroke-linecap="round" stroke-linejoin="round"/>
<path d="M159.435 193.36C159.435 193.36 190.02 150.044 187.378 138.405C184.737 126.766 166.476 139.402 157.307 147.108C123.815 175.241 114.552 221.445 136.67 228.286C147.73 231.725 175.54 223.231 215.977 217.834" stroke="#005A96" stroke-width="2.15" stroke-linecap="round" stroke-linejoin="round"/>
<path d="M210.676 200.105C213.384 196.133 232.528 182.052 234.429 180.997C236.329 179.943 251.825 176.769 255.531 179.648C254.581 183.449 241.754 181.71 238.229 184.836C240.886 185.53 243.441 186.568 245.83 187.924C248.833 189.824 254.381 194.48 253.431 195.363C252.12 196.513 244.785 191.924 243.987 191.563C241.752 190.898 239.391 190.774 237.098 191.202L242.457 192.323C242.457 192.323 252.329 198.584 250.581 198.974C247.892 199.772 242.98 197.207 241.688 196.504C239.663 195.46 237.34 195.152 235.113 195.63C235.113 195.63 238.305 196.655 239.322 197.121C240.338 197.587 248.728 200.874 246.03 201.311C243.331 201.748 237.146 199.297 233.317 199.706C233.317 199.706 225.156 210.517 216.452 211.62L210.752 200.076" fill="#F5AA6E"/>
<path d="M249.754 71.5536C249.326 75.9527 247.198 79.5159 241.098 79.4209C240.458 79.4278 239.833 79.2312 239.312 78.86C237.858 88.0191 235.511 96.0289 233.611 99.6109C231.084 104.361 224.879 111.012 214.808 110.508C214.808 110.508 220.974 135.839 219.264 141.236C217.554 146.632 199.065 144.323 195.777 140.855C194.504 139.515 197.459 118.129 201.136 107.943C188.908 102.594 189.231 87.8864 187.264 82.2902C182.97 83.8864 176.138 82.8127 174.618 76.751C172.528 68.3994 183.587 67.2497 187.103 70.2235C187.682 65.5205 187.939 52.8936 191.046 45.2547C194.153 37.6157 226.932 36.6086 232.974 40.7226C239.065 47.2974 241.098 54.651 240.661 66.1095C245.326 64.6843 250.419 65.7202 249.849 71.6014" fill="#F5AA6E"/>
<path d="M249.754 71.5536C249.326 75.9527 247.198 79.5159 241.098 79.4209C240.458 79.4278 239.833 79.2312 239.312 78.86C237.858 88.0191 235.511 96.0289 233.611 99.6109C231.084 104.361 224.879 111.012 214.808 110.508C214.808 110.508 220.974 135.839 219.264 141.236C217.554 146.632 199.065 144.323 195.777 140.855C194.504 139.515 197.459 118.129 201.136 107.943C188.908 102.594 189.231 87.8864 187.264 82.2902C182.97 83.8864 176.138 82.8127 174.618 76.751C172.528 68.3994 183.587 67.2497 187.103 70.2235C187.682 65.5205 187.939 52.8936 191.046 45.2547C194.153 37.6157 226.932 36.6086 232.974 40.7226C239.065 47.2974 241.098 54.651 240.661 66.1095C245.231 64.6463 250.324 65.6724 249.754 71.5536Z" stroke="#F5AA6E" stroke-width="0.77" stroke-miterlimit="7.15"/>
<path d="M191.445 42.1756C201.897 50.6411 237.744 57.064 247.901 55.0402C258.058 53.0165 253.726 34.5844 245.602 29.1783C237.479 23.7721 217.507 17.4725 191.445 42.1756Z" fill="#AA0A0A"/>
<path d="M215.283 151.449C216.541 155.972 217.493 160.575 218.134 165.226C218.865 171.383 218.865 181.53 218.865 181.53" stroke="#E6F4F9" stroke-width="2.12" stroke-linecap="round" stroke-linejoin="round"/>
<path d="M191.368 132.969L191.273 162.822L214.2 149.634L234.817 154.651L222.893 128.979" stroke="#E6F4F9" stroke-width="2.12" stroke-linecap="round" stroke-linejoin="round"/>
<path d="M238.523 59.7249C232.281 55.6679 225.801 57.7678 223.492 59.801C221.383 61.1882 225.392 80.9221 224.138 82.3092C222.884 83.6964 216.822 82.3092 216.822 82.3092" stroke="#264385" stroke-width="1.73" stroke-miterlimit="7.15" stroke-linecap="round"/>
<path d="M197.858 61.0169C201.336 56.7224 209.744 56.7131 213.336 59.3449" stroke="#264385" stroke-width="1.73" stroke-miterlimit="7.15" stroke-linecap="round"/>
<path d="M208.803 66.8598C208.803 68.095 208.062 69.0927 207.15 69.0927C206.237 69.0927 205.506 68.095 205.506 66.8598C205.506 65.6247 206.247 64.6367 207.15 64.6367C208.052 64.6367 208.803 65.5867 208.803 66.8598Z" fill="#264385"/>
<path d="M233.345 66.9751C233.345 68.1912 232.614 69.1889 231.702 69.1889C230.79 69.1889 230.067 68.1912 230.067 66.9751C230.067 65.7589 230.799 64.752 231.702 64.752C232.604 64.752 233.345 65.7019 233.345 66.9751Z" fill="#264385"/>
<path d="M193.107 42.252C203.559 50.708 239.407 57.1403 249.563 55.1166" stroke="#005A96" stroke-width="1.85" stroke-linecap="round" stroke-linejoin="round"/>
<path d="M182.638 82.1193C183.567 82.1193 184.319 81.3664 184.319 80.4376C184.319 79.5088 183.567 78.7559 182.638 78.7559C181.709 78.7559 180.956 79.5088 180.956 80.4376C180.956 81.3664 181.709 82.1193 182.638 82.1193Z" fill="white"/>
<path d="M243.083 78.5001C244.012 78.5001 244.765 77.7472 244.765 76.8184C244.765 75.8896 244.012 75.1367 243.083 75.1367C242.154 75.1367 241.401 75.8896 241.401 76.8184C241.401 77.7472 242.154 78.5001 243.083 78.5001Z" fill="white"/>
<path d="M223.16 94.8216C221.317 96.1897 215.321 95.534 215.321 94.6504" stroke="#264385" stroke-width="1.35" stroke-miterlimit="7.15" stroke-linecap="round"/>
<path fill-rule="evenodd" clip-rule="evenodd" d="M338.172 10.6538C338.234 10.6898 338.303 10.738 338.379 10.7982L338.537 10.9341L338.713 11.101L338.905 11.2982L339.112 11.5251L339.335 11.7808L339.573 12.0648L339.958 12.5422L340.373 13.0795L340.819 13.6742L341.293 14.324L341.625 14.7868L342.504 16.0422L343.064 16.8595L344.047 18.3212L345.086 19.898L346.399 21.9274L347.774 24.0892L348.958 25.9786L350.416 28.3355L352.404 31.6002L353.915 34.1166L355.43 36.6709L356.581 38.6331L358.203 41.4305L359.793 44.2112L361.033 46.408L361.938 48.0315L363.108 50.1545L363.675 51.1947L364.768 53.2252L365.8 55.179L366.765 57.0443L367.219 57.9399L367.654 58.8089L368.069 59.6497L368.65 60.8549L369.009 61.6188L369.344 62.3493L369.655 63.0449C369.804 63.3837 369.943 63.7089 370.072 64.0196C370.392 64.7869 370.029 65.6679 369.261 65.9874C368.494 66.3068 367.613 65.9438 367.294 65.1764L367.03 64.557L366.74 63.8989L366.424 63.2038L366.083 62.4732L365.528 61.3143L364.921 60.0845L364.268 58.789L363.57 57.4332L362.831 56.0223L362.055 54.5618L360.968 52.5462L360.116 50.9903L358.94 48.8669L357.725 46.6992L356.477 44.4997L354.883 41.7249L354.238 40.6121L352.248 37.2108L350.764 34.707L349.292 32.2509L347.844 29.8614L346.155 27.1082L344.8 24.9312L343.759 23.2798L342.522 21.3442L341.59 19.9104L340.717 18.5889L340.103 17.6772L339.344 16.5753L338.66 15.6122L338.347 15.1857L338.056 14.7975L337.658 14.2896L337.576 14.1899L337.103 14.8222L336.658 15.4307L336.202 16.0693L335.733 16.7377L335.253 17.4359L334.76 18.1637L334 19.3106L333.213 20.5234L332.4 21.8016L331.844 22.6898L330.987 24.0761L330.104 25.5266L329.196 27.0409L328.576 28.0857L327.625 29.7053L326.648 31.3876L325.646 33.132L324.619 34.9381L323.566 36.8054L322.124 39.3897L320.776 41.8287L319.549 44.0678L318.291 46.3781L316.678 49.364L314.161 54.0628L311.455 59.1619L305.477 70.5048L306.106 70.5852L306.671 70.6462L307.626 70.7336L308.706 70.816L309.908 70.893L310.775 70.9414L312.236 71.012L313.81 71.076L316.076 71.1511L317.892 71.1995L320.457 71.2535L322.481 71.286L324.583 71.3115L327.497 71.3347L328.997 71.3415C329.899 71.3447 330.804 71.3461 331.711 71.3459L334.093 71.3417L337.778 71.3208L340.375 71.2955L344.205 71.2423L347.922 71.1713L350.904 71.0993L353.196 71.0336L356.45 70.9222L358.968 70.8182L361.284 70.7045L362.976 70.6071L364.142 70.5303L365.216 70.4505L366.192 70.3677C367.019 70.2924 367.751 70.9024 367.827 71.7301C367.902 72.5579 367.292 73.29 366.464 73.3653L365.79 73.4237L364.69 73.5088L363.488 73.5904L362.192 73.6687L359.834 73.7911L357.252 73.9031L355.044 73.9848L352.724 74.0591L350.304 74.1259L347.16 74.1982L343.909 74.2575L340.576 74.3035L336.505 74.34L333.77 74.3527L330.35 74.3549L327.477 74.3445L323.83 74.3134L321.739 74.2853L319.729 74.2502L317.804 74.2082L315.973 74.1593L314.806 74.1228L313.143 74.0626L311.589 73.9955L310.161 73.9224L309.288 73.8709L307.702 73.7597L306.991 73.6999L306.334 73.6373L305.59 73.5551L304.935 73.4684L304.666 73.4275L304.176 73.3416C303.794 73.2675 303.476 73.1862 303.215 73.0934C302.882 72.9752 302.609 72.8329 302.364 72.6043C301.838 72.1118 301.64 71.3321 302.016 70.6197L308.318 58.6554L311.506 52.6455L313.203 49.4711L315.244 45.6835L316.907 42.6248L318.139 40.3775L319.505 37.9059L320.991 35.2434L322.075 33.3209L323.133 31.4627L324.165 29.669L325.17 27.9402L326.148 26.2767L327.101 24.6788L328.027 23.1468L328.926 21.6813L329.799 20.2824L330.367 19.387L331.195 18.1L331.733 17.2796L332.259 16.4893L332.773 15.7294L333.523 14.6464L334.007 13.9625L334.48 13.3093L334.941 12.6868L335.61 11.811L336.041 11.2659C336.112 11.1776 336.182 11.0906 336.252 11.005C336.719 10.4324 337.533 10.2836 338.172 10.6538ZM337.622 56.4746C340.897 56.4746 343.344 59.0824 343.344 62.345C343.344 65.5819 340.363 68.4993 337.067 68.4993C333.844 68.4993 331.569 66.0277 331.375 62.7667C331.143 58.8548 333.946 56.4746 337.622 56.4746ZM337.622 59.4845C335.545 59.4845 334.261 60.5752 334.38 62.5884C334.484 64.3443 335.538 65.4894 337.067 65.4894C338.715 65.4894 340.335 63.9048 340.335 62.345C340.335 60.7035 339.191 59.4845 337.622 59.4845ZM336.538 25.8077C337.343 25.787 338.188 25.7997 339.029 25.8363L339.659 25.868L340.164 25.8998L340.677 25.939C341.379 26.0017 341.937 26.5416 342.033 27.2279L342.046 27.367L342.276 32.2229L342.542 38.1243L342.7 41.8605L342.848 45.7606L342.918 48.1228L342.941 49.4568L342.94 50.2792L342.932 50.5966L342.92 50.8503L342.903 51.0407L342.893 51.1122C342.35 54.2762 333.459 54.6331 332.183 51.5483C332.125 51.4076 332.088 51.2591 332.075 51.108L332.069 50.9563L332.332 27.5972C332.34 26.9175 332.802 26.3273 333.46 26.1571C334.276 25.9461 335.311 25.8394 336.538 25.8077ZM337.172 28.8082L336.616 28.8167C336.31 28.8245 336.022 28.8378 335.752 28.8563L335.327 28.8914L335.086 50.3683L335.193 50.4101L335.319 50.4512L335.461 50.4907C336.03 50.6372 336.807 50.7016 337.622 50.6688C338.319 50.6409 338.988 50.5439 339.503 50.4022L339.714 50.3388L339.837 50.2962L339.937 50.256V49.939L339.923 48.9029L339.889 47.4917L339.806 44.9618L339.616 40.1302L339.374 34.6477L339.103 28.8533L338.904 28.8436C338.514 28.8267 338.125 28.8152 337.741 28.8104L337.172 28.8082Z" fill="#0071BC"/>
<path d="M314.085 133.921C336.233 119.661 338.196 99.7644 335.318 92.0515C331.248 81.1279 321.81 84.7838 325.567 91.5499C331.618 102.436 384.586 95.4188 387.973 58.4154C391.359 21.412 371.832 11.843 360.156 6.41255C346.128 -0.12152 311.539 -1.57005 293.881 18.0196C277.126 36.6123 275.257 74.8635 315.653 86.7151" stroke="#0071BC" stroke-width="3" stroke-miterlimit="10" stroke-linecap="round"/>
</svg>
