<svg width="71" height="71" viewBox="-2 -2 76 76" fill="none" xmlns="http://www.w3.org/2000/svg">
<path d="M0 36C0 16.1178 16.1178 0 36 0C55.8823 0 72 16.1178 72 36C72 55.8823 55.8823 72 36 72C16.1178 72 0 55.8823 0 36Z" fill="#C2E8FF"/>
<path fill-rule="evenodd" clip-rule="evenodd" d="M50.738 25.2152C51.0273 24.9273 51.4953 24.9284 51.7832 25.2178C52.111 25.5471 52.4139 26.0982 52.6333 26.8037C52.858 27.5261 53.0107 28.4594 52.9994 29.5986C52.9767 31.8794 52.2969 34.9912 50.2084 38.9262C48.0865 42.9241 44.5269 45.8412 41.232 46.692C39.5755 47.1198 37.9139 47.0397 36.5547 46.207C35.9239 45.8206 35.3879 45.2904 34.9596 44.6205C33.6865 45.4247 32.3587 46.0445 31.0473 46.3486C29.3472 46.7429 27.6334 46.6124 26.143 45.614C24.4551 44.4833 23.6168 42.9557 23.4096 41.2421C23.2069 39.5647 23.6122 37.7533 24.3032 35.9958C25.3742 33.2717 27.1957 30.5197 28.8573 28.3186C27.6817 28.529 26.1945 28.6061 24.6466 28.1617C23.2928 27.773 22.3065 27.8799 21.6154 28.1016C20.9551 28.3133 20.5239 28.6401 20.2362 28.8581C20.2182 28.8717 20.2009 28.8849 20.184 28.8976C19.858 29.1433 19.3946 29.0782 19.1489 28.7522C18.9032 28.4262 18.9683 27.9627 19.2943 27.717C19.3119 27.7038 19.3308 27.6894 19.3511 27.674C19.6544 27.4433 20.2578 26.9846 21.164 26.6939C22.1412 26.3805 23.4267 26.2735 25.0545 26.7408C27.3673 27.4049 29.5566 26.6669 30.4863 26.3535C30.5188 26.3426 30.5497 26.3322 30.5791 26.3223C30.891 26.2178 31.2344 26.3321 31.4216 26.6026C31.6088 26.8731 31.5947 27.2348 31.387 27.4899C29.4786 29.8337 26.9723 33.2469 25.6789 36.5366C25.0324 38.1811 24.7158 39.7293 24.8772 41.0647C25.0342 42.3638 25.6463 43.502 26.9657 44.3859C28.031 45.0995 29.2989 45.2366 30.7134 44.9086C31.8689 44.6406 33.0937 44.0667 34.313 43.2795C34.1416 42.7961 34.0089 42.2667 33.9174 41.692C33.1411 36.8163 34.2349 32.9785 35.9838 30.5024C36.8551 29.2689 37.8996 28.3601 38.9691 27.8479C40.0333 27.3384 41.1823 27.1984 42.1808 27.6285C43.5839 28.2327 44.1992 29.624 44.3207 31.0459C44.4429 32.4765 44.0929 34.0965 43.4021 35.4848C42.0858 38.1302 39.2983 41.4761 36.1796 43.7836C36.5062 44.3059 36.8991 44.6844 37.3269 44.9465C38.2439 45.5083 39.4628 45.6221 40.8624 45.2607C43.6799 44.5332 46.9355 41.9396 48.9027 38.2332C50.9033 34.4638 51.5013 31.5834 51.5212 29.5839C51.5312 28.5831 51.3964 27.8043 51.2218 27.2427C51.0418 26.6641 50.8337 26.3592 50.7354 26.2605C50.4475 25.9712 50.4486 25.5032 50.738 25.2152ZM35.5787 42.3857C38.4139 40.2138 40.9143 37.1663 42.0786 34.8263C42.6657 33.6465 42.9439 32.2964 42.8478 31.1718C42.751 30.0386 42.3014 29.2899 41.5961 28.9861C41.1038 28.7741 40.4149 28.7946 39.6075 29.1812C38.8056 29.5652 37.945 30.2882 37.1913 31.3553C35.6902 33.4804 34.6543 36.919 35.3773 41.4596C35.4304 41.793 35.4981 42.1012 35.5787 42.3857Z" fill="#E52600"/>
<path d="M36 71C16.67 71 1 55.33 1 36H-1C-1 56.4345 15.5655 73 36 73V71ZM71 36C71 55.33 55.33 71 36 71V73C56.4345 73 73 56.4345 73 36H71ZM36 1C55.33 1 71 16.67 71 36H73C73 15.5655 56.4345 -1 36 -1V1ZM36 -1C15.5655 -1 -1 15.5655 -1 36H1C1 16.67 16.67 1 36 1V-1Z" fill="#D9DADA"/>
</svg>
