<svg width="532" height="360" viewBox="0 0 532 360" fill="none" xmlns="http://www.w3.org/2000/svg">
<circle cx="247" cy="182" r="93" fill="white"/>
<path d="M176.393 104.893C183.012 119.645 178.944 128.015 164.012 134.827C149.08 141.639 125.927 137.778 108.774 130.85C96.7008 125.973 85.7058 120.477 71.2994 109.446C56.8929 98.4157 47.1245 85.5556 39.2448 73.0442C24.4168 49.5 18.721 35.502 15.7207 8.99967" stroke="#E52600" stroke-width="1.5" stroke-linecap="round"/>
<path d="M304.192 86.4983C227.147 48.2478 176.404 94.3284 158.049 125.235C127.25 177.092 146.779 293.239 261.989 289.931C388.795 286.29 393.731 101.858 299.316 79.4352C227.795 62.4517 261.905 125.587 299.224 142.11C321.626 152.028 386.974 161.766 460.608 152.294C472.098 150.392 491.222 143.166 487.14 125.235C482.154 103.331 455.506 108.36 438.158 125.235C420.81 142.11 399.369 190.99 487.14 215.027C524.387 225.228 510.101 222.167 530 225.228" stroke="#E52600" stroke-width="1.5" stroke-linecap="round"/>
<path d="M531 272C512.854 274.606 495.269 280.651 478.433 287.954C466.196 293.263 457.949 300.299 450.309 311.042C442.733 321.695 436.562 335.715 437.617 349.132M395 349.132C404.198 344.148 414.208 340.371 424.071 337.995C441.63 333.764 457.383 335.166 472.523 345.318C473.855 346.211 475.198 347.216 476.5 348.317" stroke="#E52600" stroke-width="1.5" stroke-linecap="round"/>
<path fill-rule="evenodd" clip-rule="evenodd" d="M278.278 95.4554C274.61 79.8181 234.509 66.9111 224.253 92.7037C214.105 118.223 239.627 129.803 230.775 140.553C218.808 155.084 233.409 169.79 243.105 173.896C258.114 180.253 293.875 178.558 306.515 158.516C319.155 138.472 288.889 133.091 288.66 124.664C288.429 116.236 294.826 102.289 278.278 95.4554Z" fill="#284B9B"/>
<path d="M266.589 175.223C269.728 175.223 272.692 175.049 275.831 174.7C291.524 172.957 303.208 166.853 308.962 157.437C317.855 143.138 307.044 135.292 299.197 129.537C295.535 126.922 292.048 124.306 291.873 122.213C291.873 120.644 292.048 118.9 292.048 117.157C292.745 108.961 293.617 97.9753 280.016 91.8722C277.4 82.8047 265.019 76.876 254.034 75.6553C240.956 74.2603 230.319 78.9685 225.959 88.3847C218.636 103.73 224.913 114.89 229.796 123.783C233.981 131.281 236.073 135.64 232.411 140.174C227.703 145.754 225.959 151.16 227.006 156.042C228.226 161.622 233.109 166.505 241.304 170.69C247.408 173.654 256.824 175.223 266.589 175.223ZM249.674 78.4453C251.069 78.4453 252.29 78.4453 253.685 78.6197C265.543 79.8403 275.656 86.1178 277.226 93.2672C277.4 93.7903 277.749 94.1391 278.098 94.3135C290.478 99.5447 289.606 108.787 289.083 116.808C288.909 118.726 288.734 120.644 288.909 122.213C289.083 125.875 292.919 128.665 297.453 131.978C305.474 137.907 313.844 144.01 306.346 156.042C299.197 167.551 283.852 170.864 275.482 171.736C263.45 173.131 250.198 171.562 242.699 167.9C235.201 164.238 231.016 160.053 229.97 155.345C229.098 151.334 230.668 146.8 234.678 142.092C239.909 135.815 236.248 129.188 232.411 122.388C227.529 113.669 222.123 103.73 228.575 89.7797C232.063 82.456 239.735 78.4453 249.674 78.4453Z" fill="#323264"/>
<path fill-rule="evenodd" clip-rule="evenodd" d="M158.787 164.948C157.558 164.796 150.484 156.448 149.629 157.273C148.458 158.393 156.673 167.138 156.673 167.138C156.217 167.404 149.223 161.274 148.877 162.342C148.503 163.507 163.047 178.158 168.216 184.031L176.228 174.845C176.277 167.996 171.195 155.409 169.904 155.204C168.824 155.029 170.412 161.875 169.893 164.458C168.176 163.978 157.939 149.87 156.332 151.042C155.438 151.703 163.469 161.894 162.652 162.61C161.834 163.328 152.033 152.241 150.933 153.074C149.822 153.91 157.862 162.912 158.787 164.948Z" fill="#F5966E"/>
<path fill-rule="evenodd" clip-rule="evenodd" d="M326.285 293.087C348.8 271.716 351.978 245.646 350.233 229.602C347.808 207.293 323.751 154.951 262.8 154.395C239.218 154.18 221.625 162.274 213.174 179.64C199.612 207.508 198.701 214.997 201.307 265.794L312.409 283.203L318.15 287.762L326.285 293.087Z" fill="#F9F9F6"/>
<path fill-rule="evenodd" clip-rule="evenodd" d="M179.91 168.847C179.382 168.755 178.844 168.948 178.494 169.354L164.814 185.227C164.49 185.602 164.369 186.111 164.488 186.591C173.092 221.249 183.929 247.323 201.516 263.798C202.131 264.374 203.097 264.342 203.673 263.727C204.249 263.112 204.218 262.147 203.603 261.571C186.82 245.85 176.185 220.779 167.641 186.621L179.161 173.255C179.584 174.306 180.139 175.67 180.803 177.264C182.406 181.111 184.646 186.307 187.191 191.692C189.733 197.071 192.593 202.668 195.438 207.306C196.86 209.625 198.293 211.729 199.695 213.455C201.082 215.162 202.508 216.586 203.931 217.456C204.65 217.896 205.589 217.67 206.029 216.951C206.468 216.232 206.242 215.293 205.523 214.853C204.534 214.249 203.367 213.135 202.064 211.531C200.775 209.945 199.42 207.963 198.039 205.711C195.277 201.208 192.471 195.723 189.95 190.388C187.432 185.059 185.211 179.91 183.62 176.09C182.825 174.182 182.187 172.607 181.749 171.51C181.529 170.962 181.36 170.533 181.246 170.242C181.189 170.096 181.145 169.985 181.116 169.911L181.074 169.801C181.074 169.801 181.073 169.8 179.65 170.35L181.074 169.801C180.88 169.301 180.438 168.938 179.91 168.847Z" fill="#323264"/>
<path fill-rule="evenodd" clip-rule="evenodd" d="M326.699 293.814L323.52 299.162L309.6 287.111L312.409 283.203L326.699 293.814Z" fill="#F5966E"/>
<path fill-rule="evenodd" clip-rule="evenodd" d="M331.236 286.238C330.394 286.243 329.714 286.93 329.719 287.772L331.244 287.764L332.77 287.756C332.766 286.913 332.079 286.234 331.236 286.238ZM331.244 287.764L332.77 287.756L332.772 288.237C332.774 288.552 332.776 289.017 332.778 289.615C332.781 290.812 332.785 292.544 332.785 294.686C332.786 298.97 332.772 304.894 332.716 311.456C332.709 312.299 332.02 312.976 331.178 312.969C330.335 312.962 329.658 312.273 329.665 311.43C329.721 304.879 329.734 298.964 329.734 294.687C329.733 292.548 329.73 290.819 329.726 289.625C329.724 289.028 329.722 288.564 329.721 288.25L329.719 287.772L331.244 287.764Z" fill="#323264"/>
<path d="M320.172 227.987C327.838 249.235 319.889 271.394 312.469 283.345L326.285 293.007C348.8 271.649 351.978 245.593 350.233 229.559C347.808 207.262 323.751 154.949 262.8 154.395C239.218 154.18 221.625 162.268 213.174 179.625C202.59 201.362 201.086 268.787 201.967 318.632" stroke="#E52600" stroke-width="1.75" stroke-linecap="round" stroke-linejoin="round"/>
<path fill-rule="evenodd" clip-rule="evenodd" d="M265.026 158.96C282.706 159.321 292.308 170.872 293.45 190.364C294.873 214.626 287.891 241.024 287.891 241.024L237.557 240.783C237.557 240.783 231.427 206.1 232.144 190.431C232.861 174.763 241.379 158.477 265.026 158.96Z" fill="#AA0A0A"/>
<path fill-rule="evenodd" clip-rule="evenodd" d="M285.599 162.572C285.081 163.236 285.199 164.195 285.864 164.713C288.291 166.607 292.574 170.909 296.601 175.405C298.602 177.639 300.514 179.894 302.074 181.884C303.395 183.568 304.418 185.008 305.037 186.064C304.82 186.532 304.458 187.208 303.957 188.058C303.251 189.258 302.365 190.65 301.491 191.981C300.618 193.31 299.766 194.566 299.131 195.49C298.813 195.952 298.551 196.33 298.368 196.593C298.276 196.724 298.205 196.826 298.156 196.896L298.084 196.999C297.639 197.63 297.736 198.496 298.31 199.013C299.235 199.844 301.497 201.994 303.551 203.957C304.573 204.933 305.536 205.857 306.243 206.537C306.327 206.617 306.407 206.694 306.483 206.767C306.125 207.317 305.65 208.064 305.092 208.979C303.832 211.048 302.148 213.985 300.451 217.461C297.077 224.376 293.57 233.586 293.37 242.403L293.37 242.43L294.896 242.438C293.37 242.43 293.37 242.429 293.37 242.43L292.967 320.993C292.963 321.835 293.643 322.522 294.485 322.526C295.328 322.531 296.014 321.851 296.019 321.008L296.421 242.459C296.61 234.308 299.884 225.581 303.194 218.8C304.84 215.426 306.475 212.574 307.698 210.567C308.309 209.563 308.816 208.773 309.169 208.235C309.346 207.967 309.483 207.761 309.576 207.625C309.622 207.556 309.657 207.505 309.68 207.471L309.706 207.435L309.711 207.426L309.712 207.425C309.713 207.425 309.712 207.425 309.712 207.425C310.141 206.81 310.059 205.974 309.519 205.454L309.204 205.15C309.002 204.956 308.711 204.677 308.357 204.336C307.648 203.655 306.683 202.73 305.659 201.751C304.148 200.306 302.492 198.731 301.343 197.658C301.437 197.521 301.538 197.374 301.646 197.218C302.288 196.282 303.153 195.008 304.041 193.657C304.927 192.308 305.845 190.868 306.587 189.606C307.294 188.406 307.949 187.192 308.183 186.369C308.288 186 308.25 185.605 308.077 185.262C307.385 183.897 306.067 182.031 304.476 180.001C302.864 177.946 300.907 175.639 298.874 173.369C294.833 168.857 290.397 164.38 287.74 162.307C287.076 161.789 286.117 161.907 285.599 162.572Z" fill="#0082AA"/>
<path fill-rule="evenodd" clip-rule="evenodd" d="M257.233 246.56C256.511 246.522 255.896 247.076 255.858 247.798L254.718 269.456C254.68 270.178 255.234 270.793 255.955 270.831C256.676 270.869 257.292 270.315 257.33 269.594L258.47 247.935C258.508 247.214 257.954 246.598 257.233 246.56Z" fill="#284B9B"/>
<path fill-rule="evenodd" clip-rule="evenodd" d="M260.587 250.496C260.528 251.536 261.127 252.417 262.263 252.424C263.233 252.429 264.003 251.779 264.003 250.783C264.003 249.787 263.292 249 262.196 249.004C261.226 249.008 260.644 249.501 260.587 250.496Z" fill="#284B9B"/>
<path fill-rule="evenodd" clip-rule="evenodd" d="M238.982 162.565C238.46 161.903 237.501 161.791 236.839 162.313C234.183 164.41 229.747 168.941 225.707 173.507C223.674 175.804 221.716 178.139 220.105 180.219C218.514 182.274 217.197 184.161 216.507 185.54C216.337 185.88 216.3 186.27 216.402 186.636C216.635 187.464 217.289 188.69 217.995 189.905C218.738 191.182 219.655 192.639 220.541 194.004C221.429 195.372 222.294 196.661 222.936 197.608C223.049 197.775 223.155 197.931 223.254 198.075C222.104 199.161 220.439 200.764 218.921 202.233C217.897 203.224 216.932 204.16 216.223 204.849C215.869 205.194 215.578 205.477 215.376 205.673L215.062 205.979L215.061 205.98C214.585 206.445 214.464 207.164 214.763 207.758L214.77 207.772L214.792 207.817L214.882 207.998C214.961 208.158 215.079 208.396 215.229 208.706C215.53 209.325 215.964 210.228 216.495 211.362C217.555 213.631 218.998 216.817 220.525 220.488C223.591 227.857 226.953 237.072 228.292 244.709C228.437 245.539 229.228 246.094 230.058 245.948C230.888 245.803 231.443 245.012 231.297 244.182C229.898 236.199 226.426 226.728 223.342 219.316C221.795 215.596 220.334 212.368 219.259 210.07C218.728 208.934 218.291 208.024 217.984 207.393C218.097 207.284 218.219 207.165 218.35 207.038C219.058 206.35 220.021 205.415 221.043 204.426C223.096 202.439 225.359 200.264 226.283 199.422C226.849 198.907 226.946 198.051 226.509 197.423L226.435 197.317C226.387 197.247 226.315 197.143 226.224 197.01C226.041 196.745 225.778 196.362 225.461 195.894C224.826 194.959 223.973 193.688 223.101 192.343C222.226 190.995 221.34 189.586 220.633 188.371C220.128 187.502 219.762 186.811 219.546 186.335C220.165 185.263 221.192 183.8 222.518 182.088C224.078 180.073 225.991 177.791 227.992 175.529C232.019 170.979 236.303 166.624 238.73 164.708C239.392 164.186 239.504 163.226 238.982 162.565Z" fill="#0082AA"/>
<path fill-rule="evenodd" clip-rule="evenodd" d="M307.032 283.981C306.624 284.053 306.264 284.288 306.033 284.631L302.634 289.682C302.187 290.346 302.33 291.243 302.961 291.736L321.288 306.064C321.935 306.57 322.866 306.472 323.395 305.844L327.866 300.529C328.139 300.205 328.265 299.782 328.213 299.361C328.162 298.94 327.937 298.56 327.594 298.312L308.194 284.247C307.859 284.005 307.439 283.908 307.032 283.981ZM324.475 299.82L322.008 302.753L305.959 290.207L307.682 287.646L324.475 299.82Z" fill="#323264"/>
<path fill-rule="evenodd" clip-rule="evenodd" d="M233.255 116.418C233.546 119.536 235.031 122.052 239.264 121.992C239.79 121.983 240.203 121.839 240.523 121.591C241.535 128.083 243.169 133.762 244.488 136.296C246.242 139.667 250.555 144.374 257.55 144.02C257.55 144.02 253.269 161.966 254.446 165.793C255.624 169.624 268.474 167.987 270.757 165.528C271.641 164.573 268.77 153.055 267.063 142.201C275.559 138.413 275.329 127.989 276.694 123.999C279.678 125.131 284.423 124.374 285.481 120.076C286.932 114.158 279.251 113.371 276.826 115.456C276.426 112.116 276.242 103.172 274.087 97.7467C271.932 92.3199 249.165 91.6166 244.978 94.5288C240.747 99.1901 239.337 104.409 239.636 112.522C236.4 111.519 232.863 112.25 233.255 116.418Z" fill="#F5966E"/>
<path fill-rule="evenodd" clip-rule="evenodd" d="M248.397 105.491C246.084 105.28 243.346 105.665 240.66 107.243C240.147 107.544 239.976 108.203 240.277 108.715C240.578 109.228 241.238 109.399 241.75 109.098C244.001 107.776 246.278 107.458 248.201 107.633C250.115 107.808 251.611 108.463 252.343 109.026C252.361 109.083 252.385 109.177 252.406 109.317C252.464 109.701 252.482 110.26 252.457 110.977C252.408 112.4 252.202 114.242 251.97 116.134C251.92 116.537 251.869 116.944 251.819 117.347C251.635 118.811 251.456 120.245 251.353 121.422C251.287 122.172 251.248 122.858 251.264 123.405C251.272 123.676 251.294 123.951 251.346 124.198C251.389 124.4 251.489 124.786 251.796 125.083C252.096 125.373 252.464 125.532 252.778 125.626C253.102 125.723 253.452 125.775 253.791 125.802C254.469 125.856 255.227 125.82 255.909 125.756C256.599 125.691 257.25 125.595 257.726 125.515C257.965 125.475 258.162 125.439 258.3 125.413C258.369 125.4 258.423 125.389 258.461 125.381L258.506 125.372L258.518 125.37L258.521 125.369C258.521 125.369 258.523 125.369 258.304 124.315L258.523 125.369C259.105 125.247 259.478 124.678 259.357 124.096C259.236 123.514 258.666 123.141 258.084 123.262L258.075 123.264L258.039 123.271C258.007 123.278 257.959 123.287 257.897 123.299C257.772 123.323 257.591 123.356 257.37 123.393C256.927 123.467 256.33 123.555 255.709 123.613C255.079 123.672 254.462 123.697 253.963 123.657C253.734 123.638 253.556 123.608 253.427 123.573C253.422 123.511 253.418 123.434 253.415 123.343C253.403 122.924 253.432 122.338 253.496 121.61C253.596 120.477 253.768 119.099 253.951 117.642C254.002 117.232 254.054 116.815 254.106 116.396C254.337 114.514 254.555 112.582 254.608 111.05C254.634 110.29 254.621 109.576 254.533 108.995C254.49 108.705 254.42 108.403 254.303 108.129C254.198 107.883 254.014 107.569 253.687 107.345C252.572 106.475 250.652 105.696 248.397 105.491ZM253.462 123.793C253.462 123.793 253.46 123.785 253.456 123.772C253.459 123.787 253.462 123.793 253.462 123.793Z" fill="#323264"/>
<path fill-rule="evenodd" clip-rule="evenodd" d="M266.827 107.613C269.139 107.745 271.227 108.418 272.361 109.554C272.781 109.974 273.462 109.974 273.883 109.554C274.303 109.134 274.303 108.453 273.883 108.033C272.201 106.349 269.476 105.609 266.95 105.465C264.416 105.32 261.744 105.754 260.035 106.765C259.524 107.068 259.355 107.728 259.657 108.239C259.96 108.751 260.62 108.92 261.131 108.617C262.334 107.905 264.524 107.481 266.827 107.613Z" fill="#323264"/>
<path fill-rule="evenodd" clip-rule="evenodd" d="M264.003 113.925C264.003 114.869 264.514 115.635 265.142 115.635C265.773 115.635 266.283 114.869 266.283 113.925C266.283 112.98 265.773 112.215 265.142 112.215C264.514 112.215 264.003 112.98 264.003 113.925Z" fill="#323264"/>
<path fill-rule="evenodd" clip-rule="evenodd" d="M244.624 113.925C244.624 114.868 245.135 115.635 245.765 115.635C246.394 115.635 246.904 114.868 246.904 113.925C246.904 112.98 246.394 112.215 245.765 112.215C245.135 112.215 244.624 112.98 244.624 113.925Z" fill="#323264"/>
<path fill-rule="evenodd" clip-rule="evenodd" d="M274.263 95.0383C266.785 100.915 241.264 105.382 234.028 103.97C226.79 102.56 229.875 89.7665 235.665 86.0053C241.454 82.2441 255.688 77.8774 274.263 95.0383Z" fill="#284B9B"/>
<path fill-rule="evenodd" clip-rule="evenodd" d="M275.563 94.3185C275.123 93.6001 274.183 93.3746 273.465 93.815C268.173 97.0586 260.238 99.5689 252.251 100.779C244.235 101.994 236.466 101.853 231.462 100.049C230.669 99.7637 229.795 100.175 229.509 100.968C229.224 101.76 229.635 102.635 230.428 102.92C236.139 104.978 244.506 105.039 252.708 103.796C260.938 102.549 269.304 99.9443 275.059 96.4167C275.778 95.9763 276.003 95.0369 275.563 94.3185Z" fill="#323264"/>
<path fill-rule="evenodd" clip-rule="evenodd" d="M236.645 122.472C236.645 123.101 237.156 123.612 237.786 123.612C238.415 123.612 238.925 123.101 238.925 122.472C238.925 121.842 238.414 121.313 237.786 121.333C236.916 121.359 236.645 121.842 236.645 122.472Z" fill="#F9F9F6"/>
<path fill-rule="evenodd" clip-rule="evenodd" d="M278.822 124.753C278.822 125.383 279.333 125.893 279.963 125.893C280.591 125.893 281.102 125.383 281.102 124.753C281.102 124.123 280.591 123.594 279.963 123.614C279.092 123.641 278.822 124.123 278.822 124.753Z" fill="#F9F9F6"/>
<path fill-rule="evenodd" clip-rule="evenodd" d="M260.583 128.238C259.989 128.238 259.507 128.72 259.507 129.314C259.507 130.3 258.639 131.316 257.511 131.592C256.988 131.72 256.476 131.665 256.034 131.407C255.592 131.149 255.105 130.621 254.766 129.589C254.58 129.025 253.972 128.718 253.407 128.903C252.843 129.089 252.536 129.697 252.722 130.262C253.187 131.674 253.957 132.686 254.949 133.265C255.939 133.844 257.037 133.923 258.023 133.682C259.912 133.22 261.659 131.485 261.659 129.314C261.659 128.72 261.177 128.238 260.583 128.238Z" fill="#323264"/>
<path d="M154.382 143.339C154.179 138.733 154.375 138.488 156.615 138.101C158.719 137.737 168.284 136.863 170.123 136.929C171.609 136.983 171.521 139.695 171.766 141.226C172.006 142.719 176.211 165.579 175 167.99C174.029 169.923 159.616 171.463 158.401 170.547C156.686 169.253 154.382 143.339 154.382 143.339Z" fill="#C2E8FF"/>
<path fill-rule="evenodd" clip-rule="evenodd" d="M158.343 135.6C160.024 135.307 162.854 135.006 165.31 134.783L168.573 134.514L170.292 134.419C170.983 134.444 171.492 134.8 171.832 135.255C172.148 135.68 172.332 136.204 172.452 136.684L172.713 138.179L172.771 138.657C172.806 138.953 172.837 139.216 172.875 139.457C172.897 139.592 172.951 139.914 173.032 140.387C173.379 142.429 174.206 147.302 174.92 152.234C175.36 155.275 175.761 158.359 175.982 160.843C176.092 162.083 176.159 163.19 176.162 164.074C176.163 164.516 176.149 164.917 176.113 165.26C176.079 165.583 176.018 165.929 175.889 166.214C175.642 166.764 175.153 167.168 174.661 167.469C174.15 167.782 173.52 168.051 172.836 168.284C171.465 168.75 169.757 169.107 168.056 169.348C166.35 169.589 164.615 169.717 163.178 169.712C162.461 169.709 161.801 169.673 161.247 169.597C160.729 169.525 160.184 169.403 159.788 169.157C159.432 168.935 159.226 168.546 159.107 168.288C158.965 167.98 158.835 167.599 158.713 167.176C158.468 166.325 158.229 165.199 157.999 163.911C157.538 161.329 157.096 158.006 156.712 154.735C156.328 151.46 156 148.222 155.769 145.803C155.653 144.594 155.562 143.589 155.499 142.886C155.467 142.534 155.443 142.258 155.427 142.07L155.402 141.781L155.4 141.763L155.4 141.744C155.35 140.598 155.322 139.688 155.348 138.973C155.374 138.272 155.451 137.658 155.672 137.156C155.918 136.595 156.313 136.233 156.82 136.001C157.267 135.797 157.807 135.694 158.343 135.6ZM170.227 136.205C170.27 136.207 170.314 136.209 170.399 136.323C170.507 136.469 170.62 136.726 170.719 137.12C170.815 137.502 170.881 137.941 170.94 138.403C170.957 138.538 170.974 138.68 170.991 138.822C171.028 139.139 171.066 139.461 171.11 139.737C171.134 139.886 171.192 140.228 171.276 140.726C171.629 142.803 172.443 147.598 173.151 152.49C173.59 155.52 173.985 158.566 174.201 161.001C174.31 162.22 174.372 163.27 174.375 164.08C174.376 164.486 174.362 164.817 174.336 165.071C174.322 165.198 174.306 165.297 174.29 165.371C174.282 165.407 174.275 165.435 174.269 165.454C174.263 165.473 174.26 165.481 174.26 165.481C174.231 165.544 174.106 165.714 173.729 165.944C173.371 166.163 172.876 166.382 172.261 166.592C171.033 167.009 169.444 167.347 167.806 167.578C166.171 167.809 164.522 167.929 163.185 167.924C162.515 167.922 161.94 167.888 161.492 167.826C161.119 167.775 160.902 167.712 160.797 167.67C160.781 167.643 160.758 167.601 160.73 167.539C160.642 167.349 160.541 167.065 160.431 166.682C160.211 165.919 159.985 164.864 159.759 163.596C159.307 161.068 158.87 157.788 158.487 154.527C158.105 151.269 157.779 148.044 157.548 145.633C157.433 144.428 157.341 143.426 157.279 142.727C157.248 142.377 157.224 142.102 157.207 141.915L157.184 141.648C157.135 140.507 157.111 139.669 157.134 139.038C157.158 138.389 157.229 138.055 157.308 137.874C157.362 137.751 157.418 137.693 157.563 137.627C157.768 137.533 158.081 137.46 158.65 137.361C160.25 137.081 163.011 136.787 165.471 136.563C166.696 136.452 167.835 136.36 168.703 136.296C169.137 136.264 169.501 136.24 169.773 136.225C169.909 136.217 170.019 136.211 170.102 136.208C170.184 136.205 170.221 136.205 170.227 136.205Z" fill="#323264"/>
<path fill-rule="evenodd" clip-rule="evenodd" d="M166.519 137.4C166.462 136.91 166.019 136.559 165.529 136.615L162.207 137.001C161.716 137.058 161.365 137.501 161.422 137.992C161.479 138.482 161.922 138.833 162.413 138.776L165.735 138.391C166.225 138.334 166.576 137.89 166.519 137.4Z" fill="#323264"/>
<path d="M161.551 164.362L158.861 144.348L159.7 145.382L160.299 144.101L161.216 145.081L161.738 143.854L162.597 144.829L163.177 143.608L164.014 144.558L164.616 143.361L165.485 144.288L166.055 143.115L166.955 144.18L167.494 142.868L168.354 143.945L168.933 142.622L169.771 143.621L170.372 142.375L173.204 162.742L161.551 164.362Z" fill="#F5F5F0"/>
<path fill-rule="evenodd" clip-rule="evenodd" d="M170.369 147.112C170.299 146.623 169.847 146.283 169.358 146.353L161.264 147.503C160.775 147.573 160.436 148.025 160.505 148.514C160.575 149.002 161.027 149.342 161.516 149.273L169.61 148.122C170.099 148.053 170.438 147.6 170.369 147.112Z" fill="#323264"/>
<path fill-rule="evenodd" clip-rule="evenodd" d="M170.626 149.661C170.553 149.173 170.099 148.836 169.611 148.908L161.598 150.098C161.11 150.171 160.773 150.625 160.845 151.113C160.918 151.602 161.372 151.939 161.86 151.866L169.873 150.676C170.361 150.604 170.698 150.149 170.626 149.661Z" fill="#323264"/>
<path fill-rule="evenodd" clip-rule="evenodd" d="M170.957 152.073C170.883 151.585 170.428 151.249 169.94 151.323L162.026 152.516C161.538 152.59 161.202 153.045 161.276 153.533C161.349 154.021 161.805 154.357 162.293 154.283L170.206 153.09C170.694 153.016 171.03 152.561 170.957 152.073Z" fill="#323264"/>
<path fill-rule="evenodd" clip-rule="evenodd" d="M171.467 158.231C171.384 157.744 170.922 157.418 170.435 157.501L166.357 158.202C165.871 158.286 165.544 158.748 165.628 159.234C165.712 159.721 166.174 160.047 166.66 159.964L170.738 159.263C171.224 159.179 171.551 158.717 171.467 158.231Z" fill="#323264"/>
</svg>
