<svg width="100" height="160" viewBox="0 0 100 160" fill="none" xmlns="http://www.w3.org/2000/svg">
<path fill-rule="evenodd" clip-rule="evenodd" d="M100 0V160C53.8172 160 18 124.183 18 80C18 36.259 53.1045 0.717181 96.6771 0.0107177L98 0Z" fill="#C2E8FF"/>
<mask id="mask0_6772_17842" style="mask-type:alpha" maskUnits="userSpaceOnUse" x="-13" y="0" width="160" height="160">
<rect x="-13" width="160" height="160" fill="white"/>
</mask>
<path fill-rule="evenodd" clip-rule="evenodd" d="M28.8431 18.3632C39.4051 8.08065 59.1248 17.2825 57.6375 33.8254C64.7374 18.6542 88.0157 17.5253 93.1382 34.6591C99.5481 56.1016 63.5281 83.4473 46.0562 89.5927C38.7697 79.2016 12.7234 34.0571 28.8431 18.3632Z" fill="#E52600"/>
<path fill-rule="evenodd" clip-rule="evenodd" d="M29.6496 15.9112C37.6025 12.2286 46.5253 13.7062 52.9908 21.7563C55.0343 24.3009 56.6244 27.3113 57.656 30.4603L57.8227 30.9863L57.9474 31.4057L58.2892 31.1442C60.9043 29.1729 63.7983 27.5248 66.789 26.3854L67.3508 26.1777L67.8833 25.9928C76.7961 22.9938 85.8323 26.417 89.774 34.2686C93.9908 42.6694 88.7436 54.1913 77.3044 65.3987L76.4963 66.1801C74.8602 67.7416 73.105 69.2955 71.2397 70.8323C63.7693 76.9869 56.7296 81.8072 50.3307 85.445L49.8169 85.7353L48.8153 86.2906C47.6668 86.9189 46.5894 87.4794 45.5871 87.975L44.7465 88.3839L44.0407 88.7164L43.4801 88.9723L42.9713 89.1973L42.3854 89.4454L42.1656 89.5335C41.7715 89.6854 41.3249 89.539 41.0972 89.1831L40.3365 87.9751L39.3442 86.3719L38.746 85.3935L37.8007 83.83C35.3311 79.7193 32.8616 75.4076 30.5557 71.1005C29.1993 68.5669 27.9389 66.1064 26.793 63.7422L26.4935 63.1211L25.9126 61.8965L25.3561 60.6959L24.8243 59.5198L24.3178 58.3685C22.8362 54.9525 21.6998 51.8787 20.9558 49.2032C16.8156 34.3148 20.2211 20.2776 29.6496 15.9112ZM51.6047 22.8695C45.6837 15.4975 37.6479 14.1667 30.3966 17.5245C21.9198 21.45 18.7346 34.5797 22.6686 48.7269C23.3501 51.1778 24.3804 53.9959 25.7189 57.1271L26.204 58.2451L26.7144 59.3886L27.2496 60.5571L27.8092 61.75C27.9997 62.1517 28.1943 62.5573 28.3928 62.9669C29.5277 65.3084 30.7774 67.7479 32.123 70.2614C34.4138 74.5404 36.8692 78.8273 39.3246 82.9145L40.2644 84.4688L41.4254 86.3598L42.1963 87.5951L42.5024 87.4618L43.2943 87.1028L43.584 86.9676L43.9808 86.7795L44.8024 86.3797C45.5026 86.0335 46.2411 85.6545 47.0165 85.2415L47.9647 84.7295C48.4475 84.4653 48.9434 84.1887 49.452 83.8996C55.7635 80.3114 62.7189 75.5489 70.1092 69.4602L70.9982 68.7193C71.1448 68.5956 71.2908 68.4719 71.4359 68.348L72.2976 67.6041L73.1409 66.8585C73.2799 66.7341 73.4181 66.6096 73.5555 66.4851L74.3708 65.7375C76.3852 63.867 78.2218 61.9871 79.8656 60.1162L80.5128 59.3684C88.261 50.2771 91.3949 41.4606 88.1852 35.0662C84.6508 28.0258 76.5434 24.9545 68.4502 27.6778C65.1107 28.8012 61.8479 30.6286 58.9603 32.869L58.4229 33.2946L58.4393 33.3652C59.066 36.3224 59.1443 39.1606 58.6537 41.4773C57.8123 45.4522 55.3791 47.4497 52.9227 46.4593C50.6094 45.5265 49.6927 42.4098 50.9871 39.1274C51.3127 38.3014 51.9846 37.2749 52.9098 36.1657L53.3215 35.6856C54.1749 34.7167 55.2047 33.6993 56.3521 32.7075L56.441 32.6327C55.5293 29.1069 53.8584 25.6759 51.6047 22.8695ZM56.4955 34.9708L56.8709 34.6226L56.9499 35.1023C57.2879 37.3192 57.2767 39.3988 56.9144 41.109C56.2749 44.1307 54.8344 45.3132 53.5875 44.8105C52.2791 44.2829 51.675 42.229 52.641 39.7794C53.0548 38.7296 54.2987 37.1147 56.0158 35.4313L56.4955 34.9708Z" fill="#323264"/>
<path fill-rule="evenodd" clip-rule="evenodd" d="M38.6639 118.819L39.0514 118.838C39.0446 118.828 39.0284 118.814 39.0224 118.804L38.6639 118.819Z" fill="#9B5A19"/>
<path fill-rule="evenodd" clip-rule="evenodd" d="M18.7631 109.857L28.3723 118.858L35.917 120.205L39.0542 119.886L41.8309 119.805C41.2358 118.9 37.2867 115.075 34.9915 113.072C33.0645 111.39 31.1346 110.084 30.2231 110.444L28.8634 109.751C26.1294 107.397 23.4247 105.649 21.8717 106.182L21.6605 106.433C18.8626 103.947 16.3705 102.193 15.2524 102.621C11.9987 103.863 18.7631 109.857 18.7631 109.857" fill="#9B5A19"/>
<path d="M25.8727 108.485L25.2985 107.906L24.4652 107.077L23.6651 106.298L23.15 105.806L22.6495 105.336L22.1634 104.889L21.6917 104.464L21.2343 104.062C21.1593 103.997 21.0848 103.933 21.011 103.87L20.5749 103.503L20.1528 103.159L19.7447 102.838C19.6779 102.787 19.6116 102.736 19.5459 102.687L19.1587 102.402C18.9051 102.22 18.6607 102.053 18.4254 101.903L18.0791 101.691C16.8344 100.955 15.8619 100.712 15.1421 101.003C13.3592 101.723 13.4135 103.469 14.5909 105.637C14.9716 106.338 15.4705 107.09 16.0628 107.879C16.6059 108.602 17.1978 109.317 17.7975 109.993L18.2442 110.488L18.6089 110.876C18.9165 111.193 19.423 111.201 19.7402 110.894C20.0329 110.61 20.062 110.156 19.8228 109.839L19.7316 109.736L19.421 109.404L19.1425 109.097C19.0941 109.043 19.0448 108.988 18.9947 108.932C18.4217 108.285 17.8567 107.603 17.3422 106.918C16.7933 106.187 16.3359 105.498 15.9969 104.873C15.2164 103.436 15.1937 102.708 15.7412 102.487C15.8948 102.425 16.2479 102.526 16.756 102.791L17.0227 102.937L17.314 103.11L17.6286 103.311L17.9654 103.539L18.323 103.794C18.3843 103.839 18.4463 103.884 18.5092 103.932L18.8958 104.228C19.4275 104.644 20.0014 105.125 20.6142 105.666L21.24 106.228C21.3464 106.325 21.4539 106.423 21.5624 106.523L22.2257 107.144C22.3383 107.251 22.4519 107.359 22.5665 107.468L23.2659 108.146L23.9884 108.859L24.7333 109.608L25.1801 110.064L26.0909 111.005C26.2446 111.165 26.3992 111.327 26.5546 111.49C27.8758 112.879 29.2117 114.328 30.5726 115.84L31.7991 117.211L34.1039 119.824C34.3981 120.153 34.9039 120.182 35.2334 119.888C35.5377 119.616 35.5855 119.164 35.3596 118.837L35.2823 118.741L32.586 115.689C30.9299 113.833 29.3121 112.067 27.7136 110.387C27.0855 109.727 26.4714 109.093 25.8727 108.485Z" fill="#323264"/>
<path d="M31.7039 110.309L31.1742 109.775L30.6556 109.263L30.1481 108.773L29.6518 108.306C29.57 108.23 29.4887 108.155 29.4078 108.081L28.9282 107.649L28.4598 107.241L28.0026 106.857C27.852 106.733 27.7034 106.613 27.5566 106.497L27.1218 106.162C27.0502 106.109 26.9792 106.056 26.9086 106.004L26.4906 105.707C24.6352 104.428 23.1218 103.931 21.9565 104.363C21.5423 104.517 21.3311 104.977 21.4848 105.391C21.6266 105.774 22.0299 105.983 22.4168 105.892L22.5131 105.863C23.0576 105.661 23.988 105.995 25.2012 106.786L25.5554 107.025C25.6157 107.066 25.6766 107.109 25.7381 107.153L26.1144 107.428C26.1783 107.476 26.2428 107.525 26.3078 107.575L26.705 107.886C26.7723 107.94 26.8402 107.994 26.9086 108.05L27.3255 108.396L27.7548 108.764L28.196 109.155L28.6486 109.568L29.1121 110.002L29.5858 110.458L30.0694 110.934L30.5622 111.43L31.1062 111.991L31.657 112.571L32.2108 113.165L32.7638 113.769L33.3121 114.377L33.8518 114.985L34.3792 115.588L34.8903 116.181L35.6181 117.041L36.0718 117.586L36.6954 118.353C36.7605 118.434 36.8241 118.513 36.8862 118.591L37.2393 119.041L37.5511 119.448C37.5994 119.512 37.6459 119.574 37.6904 119.634C37.9533 119.989 38.4543 120.064 38.8094 119.801C39.1644 119.538 39.2391 119.037 38.9761 118.682L38.6777 118.286L38.336 117.846L37.9548 117.366L37.5381 116.851L37.0896 116.307L36.3657 115.446L35.592 114.545L35.055 113.931L34.5054 113.311L33.9471 112.692L33.3839 112.077C33.2899 111.975 33.1958 111.874 33.1017 111.773L32.5385 111.174L31.9801 110.592C31.8876 110.497 31.7955 110.403 31.7039 110.309Z" fill="#323264"/>
<path fill-rule="evenodd" clip-rule="evenodd" d="M129.825 107.707L88.321 113.674C78.0439 104.005 42.5555 105.062 42.5555 105.062C39.8202 110.214 57.4425 111.951 59.7233 114.708C55.0527 120.482 31.0023 118.531 31.0023 118.531C26.6659 115.581 10.8912 102.551 8.69858 104.963C6.84091 106.975 26.5105 124.977 26.5105 124.977C30.5256 128.506 56.5917 133.66 75.79 133.081C94.9879 132.501 123.896 135.599 123.896 135.599" fill="#9B5A19"/>
<path d="M59.8215 115.004C59.6038 114.62 59.1156 114.485 58.7312 114.702C55.9156 116.297 51.6347 117.288 46.3302 117.756C43.0331 118.046 39.5454 118.118 36.0908 118.03L35.0769 117.999L34.1114 117.961L33.1982 117.916L32.0454 117.845L31.7234 117.822L30.966 117.291L28.6186 115.608L23.496 111.914L22.505 111.217L21.5507 110.555L20.373 109.752L19.3408 109.063L18.6768 108.629L18.0321 108.214L17.4065 107.819L16.7999 107.444L16.2121 107.09C16.1157 107.032 16.0201 106.976 15.9253 106.92L15.3657 106.597L14.8247 106.294L14.3023 106.012C14.2167 105.966 14.1319 105.922 14.0479 105.878L13.553 105.628L13.0763 105.399L12.6178 105.191C10.6698 104.338 9.22926 104.093 8.25598 104.517C7.85082 104.693 7.66524 105.164 7.84148 105.569C8.00416 105.943 8.41827 106.13 8.79968 106.018L8.89419 105.984C9.1958 105.853 9.66366 105.874 10.2828 106.037L10.5792 106.123C10.6816 106.155 10.7874 106.19 10.8968 106.229L11.2352 106.354C11.2933 106.377 11.3523 106.4 11.4121 106.425L11.7811 106.58C11.8443 106.607 11.9083 106.635 11.9732 106.664L12.3721 106.848L12.7905 107.052L13.2281 107.274L13.6846 107.514L14.1596 107.773L14.6528 108.051L15.1639 108.346L15.6925 108.659L16.2383 108.99L17.0886 109.519L17.676 109.893L18.2795 110.284L19.2142 110.902L20.1832 111.557L21.1122 112.197C21.2697 112.306 21.4286 112.417 21.5891 112.529L22.9204 113.469L29.4965 118.209L30.5768 118.974L31.0091 119.271C31.1207 119.345 31.2491 119.389 31.3824 119.4L31.722 119.427L32.4082 119.473L33.1113 119.513L34.0395 119.559C34.1987 119.566 34.3601 119.573 34.5236 119.579L35.5293 119.615C35.7009 119.62 35.8745 119.625 36.05 119.629C39.5607 119.719 43.1068 119.646 46.4707 119.349C51.9836 118.863 56.4608 117.827 59.5195 116.095C59.904 115.877 60.0392 115.389 59.8215 115.004Z" fill="#323264"/>
<defs>
<clipPath id="clip0_6772_17842">
<path d="M-62 0H90C94.4183 0 98 3.58172 98 8V160H-62V0Z" fill="white"/>
</clipPath>
</defs>
</svg>
