<svg width="160" height="160" viewBox="0 0 160 160" fill="none" xmlns="http://www.w3.org/2000/svg">
<g clip-path="url(#clip0_5721_162864)">
<path fill-rule="evenodd" clip-rule="evenodd" d="M160 0V160C115.817 160 80 124.183 80 80C80 36.259 115.104 0.717181 158.677 0.0107177L160 0Z" fill="#E6F4F9"/>
<path fill-rule="evenodd" clip-rule="evenodd" d="M81.3089 18.4151C81.0773 18.6363 80.9578 18.9501 80.9836 19.2693C81.2837 22.9762 84.1393 25.6237 87.0252 27.428C89.5216 28.9889 92.272 30.0619 94.0329 30.7236C94.0301 30.7582 94.0274 30.7931 94.0248 30.8283C93.9872 31.3387 93.9601 31.9904 93.9405 32.6227C93.9292 32.9868 93.9203 33.3486 93.9133 33.6795L75.1852 27.4228C74.7596 27.2806 74.2905 27.4212 74.0132 27.774C73.0941 28.9433 73.4075 30.5058 74.0375 31.8327C74.703 33.2341 75.904 34.796 77.4965 36.3621C80.5513 39.3663 85.2076 42.5434 90.8808 44.7873C90.8354 45.0808 90.781 45.4215 90.7262 45.7594C90.6987 45.9287 90.6712 46.0968 90.6449 46.2572C90.1668 46.1359 89.5554 45.9828 88.8471 45.8101C87.0871 45.3808 84.7235 44.8286 82.3173 44.3393C79.9187 43.8516 77.4464 43.4198 75.48 43.2397C74.503 43.1502 73.6024 43.118 72.8804 43.1869C72.521 43.2212 72.1584 43.2846 71.8354 43.404C71.5264 43.5181 71.1271 43.7301 70.8721 44.1454C70.3025 45.0728 70.5498 46.0707 70.9713 46.8427C71.3939 47.6166 72.1028 48.3949 72.9249 49.1407C74.5837 50.6457 76.9741 52.2573 79.3781 53.7203C81.7948 55.191 84.2771 56.5426 86.1514 57.5248C87.0895 58.0164 87.8775 58.4166 88.4316 58.6943C88.5228 58.74 88.6077 58.7823 88.6859 58.8213L88.5241 63.168L77.4996 61.7239C77.1616 61.6796 76.8229 61.8002 76.589 62.0481C76.355 62.2959 76.2541 62.641 76.3178 62.9758C76.6275 64.6053 77.6509 66.1413 78.8662 67.4806C80.0969 68.8368 81.6153 70.0897 83.0703 71.149C84.5297 72.2115 85.9521 73.0985 87.0076 73.7192C87.5362 74.03 87.9749 74.2751 88.2828 74.4434C88.4368 74.5275 88.5582 74.5924 88.6419 74.6368C88.6838 74.659 88.7163 74.676 88.7387 74.6877L88.7648 74.7013L88.7742 74.7061C88.7744 74.7062 88.7753 74.7067 89.2124 73.8575L88.7753 74.7067C89.2971 74.9752 89.9377 74.7699 90.2062 74.2481C90.4748 73.7264 90.2695 73.0857 89.7477 72.8172L89.7425 72.8145L89.7218 72.8038C89.703 72.794 89.6743 72.7789 89.6363 72.7588C89.5602 72.7185 89.447 72.658 89.3016 72.5785C89.0107 72.4196 88.5917 72.1854 88.0847 71.8873C87.069 71.2901 85.7085 70.4412 84.321 69.431C82.929 68.4176 81.5365 67.2611 80.4399 66.0526C79.8213 65.371 79.324 64.7022 78.9696 64.0596L89.4045 65.4265C89.7009 65.4653 90 65.3774 90.2283 65.1845C90.4566 64.9915 90.5931 64.7112 90.6042 64.4125L90.835 58.2122C90.8507 57.7909 90.6157 57.4001 90.2362 57.2164L90.2332 57.215L90.1811 57.1896C90.1439 57.1714 90.0882 57.1442 90.0154 57.1084C89.8698 57.0367 89.6557 56.9308 89.3835 56.7944C88.8391 56.5216 88.0627 56.1273 87.1378 55.6426C85.2858 54.6721 82.8468 53.3436 80.4829 51.905C78.1063 50.4587 75.857 48.9317 74.3528 47.5669C73.5934 46.878 73.0899 46.2886 72.8364 45.8243C72.7155 45.6029 72.676 45.4538 72.6671 45.3684C72.7603 45.3446 72.8957 45.3201 73.0824 45.3023C73.6088 45.252 74.3559 45.2706 75.2862 45.3558C77.1348 45.5251 79.5162 45.9382 81.8939 46.4217C84.2639 46.9037 86.5989 47.449 88.3435 47.8746C89.2153 48.0872 89.9383 48.2695 90.4429 48.3986C90.6952 48.4632 90.8928 48.5144 91.027 48.5494L91.1797 48.5893L91.2302 48.6026L91.5029 47.5757L92.5506 47.7521L92.636 47.2414C92.6871 46.9339 92.7554 46.5208 92.8237 46.0997C92.8919 45.6792 92.9607 45.2477 93.0126 44.9042C93.0384 44.733 93.0608 44.5793 93.0769 44.458L93.0777 44.4521C93.089 44.3668 93.1095 44.2124 93.1095 44.0975C93.1095 43.6542 92.8343 43.2574 92.419 43.1022C86.6524 40.9469 81.9605 37.7717 78.9865 34.847C77.4937 33.379 76.4774 32.0168 75.9571 30.9212C75.7297 30.4423 75.6221 30.0744 75.5827 29.7961L94.6162 36.1547C94.9388 36.2625 95.2934 36.2094 95.5702 36.0118C95.8469 35.8142 96.0124 35.4962 96.0154 35.1561L96.0159 35.1022L96.0176 34.947C96.0192 34.8129 96.0217 34.6208 96.0255 34.3896C96.0329 33.9269 96.0452 33.3097 96.0645 32.6885C96.0839 32.0643 96.1099 31.4487 96.1441 30.9844C96.1614 30.749 96.1794 30.5738 96.1962 30.4625C96.1964 30.461 96.1966 30.4595 96.1968 30.458C96.2742 30.2799 96.3027 30.0808 96.2737 29.8817C96.218 29.4993 95.9591 29.1773 95.5976 29.0408C95.4635 28.9901 95.3205 28.9366 95.1695 28.88C93.4335 28.2298 90.6458 27.1856 88.1518 25.6262C85.8749 24.2026 84.0542 22.4805 83.3728 20.4245L98.4946 22.3547C99.0766 22.429 99.6087 22.0174 99.683 21.4353C99.7573 20.8532 99.3457 20.3211 98.7636 20.2468L82.1772 18.1296C81.8595 18.0891 81.5405 18.194 81.3089 18.4151ZM91.5029 47.5757L92.5506 47.7521C92.501 48.0468 92.3296 48.3069 92.0785 48.4688C91.8273 48.6306 91.5191 48.6791 91.2302 48.6026L91.5029 47.5757Z" fill="#0071BC"/>
<path fill-rule="evenodd" clip-rule="evenodd" d="M108.513 103.754C108.026 104.083 107.898 104.743 108.227 105.23L115.794 116.433C115.933 116.638 116.14 116.789 116.378 116.858L125.852 119.611L127.358 131.234C127.434 131.816 127.967 132.226 128.549 132.151C129.13 132.075 129.541 131.542 129.466 130.961L127.87 118.648C127.816 118.23 127.518 117.883 127.113 117.765L117.34 114.925L109.988 104.04C109.659 103.554 108.999 103.426 108.513 103.754Z" fill="#0071BC"/>
<path fill-rule="evenodd" clip-rule="evenodd" d="M136.519 36.1405C137.071 23.8284 136.538 22.259 130.449 21.2242C124.727 20.2509 98.7257 17.9137 93.7278 18.0917C89.6871 18.2358 89.9262 26.3987 89.26 30.4912C88.6102 34.4837 77.1772 95.5916 80.4691 102.036C83.1096 107.203 122.29 111.321 125.592 108.871C130.255 105.412 136.519 36.1405 136.519 36.1405Z" fill="#E6F4F9"/>
<path d="M112.449 106.519C116.806 106.519 120.418 106.094 122.012 105.032C123.499 104.075 126.049 102.482 130.406 66.3566C132.531 48.9316 134.018 31.7191 134.018 31.6129V31.5066C134.549 19.6066 134.337 16.4191 125.943 14.9316C117.124 13.4441 95.3431 11.7441 93.4306 11.7441C88.0118 11.9566 87.1618 18.6504 86.6306 23.1129C86.5243 23.8566 86.4181 24.6004 86.3118 25.3441C86.2056 25.7691 86.0993 26.6191 85.8868 27.8941C75.0493 90.5816 77.2806 95.3629 78.1306 97.1691C79.1931 99.5066 82.2743 101.525 87.5868 103.119C94.3868 105.138 104.693 106.519 112.449 106.519ZM119.249 100.994C116.381 102.269 100.231 101.844 89.0743 98.4441C83.4431 96.7441 82.6993 95.2566 82.5931 95.1504C82.0618 93.8754 80.9993 85.2691 90.7743 28.7441C90.9868 27.4691 91.1993 26.5129 91.1993 26.1941C91.3056 25.4504 91.4118 24.7066 91.5181 23.7504C91.7306 21.8379 92.3681 16.7379 93.5368 16.7379C95.2368 16.7379 116.487 18.3316 125.093 19.8191C128.068 20.2441 128.493 20.5629 128.812 21.0941C129.449 22.5816 129.343 26.5129 129.131 31.1879C126.368 62.5316 122.012 96.9566 119.249 100.994Z" fill="#003B5C"/>
<path fill-rule="evenodd" clip-rule="evenodd" d="M132.458 47.0102C131.994 46.6526 131.329 46.7376 130.97 47.2004C129.322 49.3248 129.299 52.0307 129.969 54.6527C130.641 57.2864 132.06 60.0434 133.607 62.5128C135.161 64.9936 136.883 67.2427 138.212 68.8676C138.878 69.6814 139.447 70.3417 139.851 70.7998C139.869 70.8197 139.886 70.8391 139.903 70.8582C139.372 71.6565 138.796 72.7676 138.225 74.1252C137.426 76.0241 136.604 78.4862 135.911 81.4307C134.525 87.3208 133.648 95.1717 134.526 104.35C134.582 104.934 135.101 105.362 135.685 105.307C136.269 105.251 136.697 104.732 136.641 104.148C135.787 95.2155 136.643 87.5976 137.98 81.9175C138.648 79.0769 139.435 76.7286 140.184 74.949C140.944 73.1407 141.633 71.9967 142.073 71.5001C142.436 71.0899 142.428 70.4707 142.054 70.0703L132.458 47.0102ZM142.054 70.0703L142.045 70.0611L142.016 70.0293C141.99 70.0006 141.95 69.9572 141.897 69.8999C141.793 69.7851 141.639 69.6144 141.445 69.3939C141.055 68.9527 140.503 68.3127 139.857 67.5224C138.562 65.939 136.899 63.7647 135.408 61.3845C133.909 58.9929 132.621 56.4514 132.028 54.1269C131.554 52.2721 131.551 50.6847 132.104 49.4208L152.175 64.8977L167.088 130.781C167.218 131.353 167.787 131.712 168.359 131.582C168.932 131.453 169.291 130.884 169.161 130.311L154.163 64.0554C154.108 63.8142 153.971 63.5996 153.775 63.4486L132.458 47.0102" fill="#0071BC"/>
<path fill-rule="evenodd" clip-rule="evenodd" d="M92.2514 56.995L106.927 58.8095L121.661 61.0574C123.206 61.2709 124.631 60.1956 124.845 58.6569C124.845 58.6554 124.845 58.6546 124.846 58.653L125.512 53.8553L126.178 49.0521C126.392 47.5134 125.313 46.0926 123.77 45.8784H123.766L123.76 45.8776L108.576 43.523L94.3466 41.816C92.8004 41.6025 91.3747 42.6794 91.1613 44.2196V44.2203L90.4949 49.0173L89.8285 53.8158C89.6159 55.356 90.6956 56.7768 92.2411 56.9887L92.2514 56.995Z" fill="#003B5C"/>
<path fill-rule="evenodd" clip-rule="evenodd" d="M87.8334 88.4151L102.512 90.231L117.248 92.4795C118.793 92.6922 120.219 91.6174 120.433 90.0783V90.0744L121.1 85.2745L121.766 80.4761C121.979 78.9363 120.9 77.515 119.355 77.3015H119.353L104.168 74.9454L89.9345 73.2379C88.3888 73.0244 86.9629 74.1008 86.7495 75.6422V75.643L86.083 80.4413L85.4164 85.2405C85.2038 86.7819 86.2829 88.2023 87.8286 88.4159H87.8302L87.8334 88.4151Z" fill="#003B5C"/>
<path fill-rule="evenodd" clip-rule="evenodd" d="M106.88 71.3545L120.519 73.2072C120.888 73.2451 121.255 73.1087 121.505 72.8383C121.809 72.5261 122.001 72.1264 122.053 71.6991L122.463 68.8041L122.872 65.9084C122.94 65.4826 122.866 65.0467 122.661 64.6651C122.494 64.3395 122.18 64.1101 121.813 64.0462L114.779 62.9346L108.173 62.1935C107.803 62.1564 107.437 62.2936 107.187 62.5632C106.885 62.8747 106.694 63.2744 106.641 63.7009L106.232 66.5974L105.822 69.4932C105.755 69.9189 105.828 70.3549 106.033 70.7364C106.2 71.062 106.514 71.2915 106.88 71.3545Z" fill="#003B5C"/>
<path fill-rule="evenodd" clip-rule="evenodd" d="M88.6797 69.6984L102.317 71.5509C102.687 71.5888 103.053 71.4532 103.304 71.1828C103.607 70.8698 103.798 70.4701 103.852 70.0429L104.262 67.1481L104.671 64.2518C104.739 63.8261 104.665 63.3894 104.459 63.0086C104.292 62.683 103.978 62.4536 103.612 62.3898L96.5787 61.2782L89.9747 60.5372C89.6047 60.5001 89.2387 60.6373 88.9878 60.9069C88.6853 61.2183 88.4931 61.6172 88.44 62.0445L88.0305 64.9408L87.6211 67.8363C87.5535 68.262 87.6267 68.698 87.8319 69.0795C87.9976 69.4067 88.3129 69.6369 88.6797 69.6984Z" fill="#003B5C"/>
<path fill-rule="evenodd" clip-rule="evenodd" d="M104.908 21.2972C104.844 22.3989 105.686 23.3434 106.788 23.4069L115.613 23.9152C116.714 23.9786 117.659 23.137 117.722 22.0353C117.786 20.9336 116.944 19.9891 115.842 19.9257L107.017 19.4174C105.916 19.3539 104.971 20.1955 104.908 21.2972Z" fill="#003B5C"/>
<path fill-rule="evenodd" clip-rule="evenodd" d="M117.314 30.6504C116.949 30.4777 116.513 30.6339 116.34 30.9994C115.174 33.4665 115.407 35.3739 116.304 36.6793C117.155 37.9175 118.548 38.5139 119.513 38.4851C119.914 38.4731 120.505 38.3683 121.026 37.9435C121.336 38.1806 121.655 38.3588 121.982 38.4788C122.984 38.8474 123.953 38.6271 124.669 38.0447C125.112 37.6835 125.276 37.1488 125.314 36.6653C125.352 36.1735 125.27 35.632 125.119 35.1034C125.001 34.6932 124.834 34.2677 124.625 33.85C124.764 33.8516 124.896 33.8504 125.018 33.8492C125.04 33.849 125.062 33.8488 125.083 33.8486C125.516 33.8449 125.784 33.8514 125.964 33.9017C126.007 33.9138 126.03 33.9247 126.04 33.9306C126.042 33.9351 126.044 33.9418 126.046 33.9514C126.139 34.3447 126.534 34.588 126.927 34.4949C127.32 34.4018 127.564 34.0075 127.47 33.6142C127.401 33.3191 127.258 33.0611 127.04 32.8593C126.829 32.664 126.584 32.5556 126.359 32.4925C125.948 32.3773 125.467 32.3816 125.094 32.3849C125.086 32.385 125.078 32.385 125.07 32.3851L125.06 32.3852C124.64 32.3888 124.29 32.3919 123.98 32.3361C123.717 32.2888 123.545 32.2088 123.426 32.0958C123.403 32.0716 123.381 32.0476 123.358 32.0239C123.083 31.7368 122.629 31.7216 122.336 31.9896C122.043 32.2576 122.017 32.7109 122.278 33.0106C122.309 33.0471 122.342 33.082 122.375 33.1153C122.993 33.7899 123.478 34.6949 123.712 35.5075C123.833 35.9295 123.875 36.2884 123.855 36.5521C123.834 36.8241 123.757 36.8998 123.745 36.9095C123.41 37.182 122.981 37.2866 122.487 37.1051C122.292 37.0335 122.075 36.9122 121.844 36.7243C122.006 36.2493 122.084 35.6751 122.063 34.9917C122.024 33.6833 121.631 32.8486 121.07 32.3515C120.522 31.8656 119.935 31.8119 119.734 31.8036C119.292 31.7853 119.011 32.0935 118.888 32.2872C118.74 32.5196 118.661 32.8075 118.638 33.1235C118.594 33.7546 118.768 34.622 119.302 35.7869C119.309 35.8023 119.317 35.8174 119.325 35.8323C119.538 36.2231 119.762 36.5729 119.995 36.882C119.828 36.9806 119.641 37.017 119.469 37.0221C119.026 37.0353 118.094 36.6994 117.511 35.8506C116.974 35.069 116.666 33.7346 117.663 31.6247C117.836 31.2593 117.68 30.8231 117.314 30.6504ZM120.602 35.1102C120.244 34.3145 120.125 33.7785 120.101 33.4477C120.274 33.6023 120.569 34.0027 120.6 35.0362V35.0367C120.601 35.0615 120.602 35.086 120.602 35.1102ZM126.037 33.9229C126.037 33.923 126.037 33.9235 126.038 33.9244L126.037 33.9229Z" fill="#0071BC"/>
</g>
<defs>
<clipPath id="clip0_5721_162864">
<rect width="160" height="160" fill="white"/>
</clipPath>
</defs>
</svg>
