<svg width="160" height="161" viewBox="0 0 160 161" fill="none" xmlns="http://www.w3.org/2000/svg">
<ellipse cx="80.2905" cy="88.7547" rx="59.2905" ry="59.157" fill="#E6F4F9"/>
<path fill-rule="evenodd" clip-rule="evenodd" d="M90.7196 82.8403C90.7196 82.8403 97.1879 87.7646 99.1795 93.5298C101.171 99.295 94.6455 90.8883 94.1255 93.8738C93.604 96.8598 97.024 102.732 97.5229 107.378C98.0217 112.025 90.6054 103.982 88.5748 102.391C86.5448 100.8 88.8666 113.359 85.8087 108.378C82.7501 103.398 79.9011 94.4921 79.2169 88.5352L90.7196 82.8403Z" fill="#0071BC"/>
<path fill-rule="evenodd" clip-rule="evenodd" d="M61.3971 87.2673C61.3608 82.8128 66.2482 76.3751 66.2482 76.3751L66.3386 75.1349C53.2921 48.2044 54.6891 25.5744 59.5962 23.5093C63.6092 21.8225 84.1817 34.1883 95.9507 63.0425C95.9507 63.0425 105.37 62.5963 110.93 67.1569C112.67 68.5848 115.846 83.8203 114.434 85.7193C110.063 82.4374 102.517 74.5237 100.162 75.8979C98.2737 80.674 82.1964 90.232 75.9939 88.3523C75.9939 88.3523 73.8961 95.6605 74.0507 105.143C69.0491 103.943 61.4237 90.5393 61.3971 87.2673Z" fill="#E6F4F9"/>
<path fill-rule="evenodd" clip-rule="evenodd" d="M71.491 53.6117C73.948 52.6427 76.6039 53.0795 78.1983 57.0888C79.4068 60.1265 77.7956 62.9102 75.3654 63.9477C73.2682 64.8432 70.6646 63.8319 69.1121 60.563C67.7897 57.7788 69.0339 54.5808 71.491 53.6117Z" fill="#0082AA"/>
<path fill-rule="evenodd" clip-rule="evenodd" d="M63.7722 41.2447C65.0204 39.9386 67.185 39.159 69.4522 41.226C71.168 42.7921 71.0233 44.9985 69.8144 46.3392C68.7693 47.4967 66.9111 47.5999 64.9297 45.9559C63.5056 44.7739 62.5239 42.5507 63.7722 41.2447Z" fill="#0082AA"/>
<path fill-rule="evenodd" clip-rule="evenodd" d="M103.335 64.4805C99.9852 61.5803 92.2685 62.9047 92.2685 62.9047C80.287 35.6602 60.9509 19.6211 56.2252 22.006C52.3627 23.9572 48.4657 47.5111 62.7265 75.029C62.7265 75.029 57.3412 80.2574 57.2108 87.4095C57.1702 89.6481 66.6576 101.876 69.0063 102.032C69.3377 96.6039 67.8454 88.9754 70.4036 88.0783C77.3205 91.8837 93.228 84.1465 95.4219 76.669C95.4219 76.669 102.115 78.9877 109.195 85.2194C111.508 80.6581 105.794 66.6099 103.335 64.4805Z" stroke="#003B5C" stroke-width="2" stroke-linecap="round" stroke-linejoin="round"/>
<path d="M68.9533 156.913C84.1538 156.913 92.6593 133.079 84.4788 124.898C82.877 123.296 81.5813 123.235 81.0871 123.291C77.0546 123.743 78.2359 130.5 81.9268 131.935C97.6011 138.028 102.797 113.98 96.4974 107.938" stroke="#0071BC" stroke-width="2" stroke-linecap="round"/>
</svg>
