<svg width="184" height="185" viewBox="0 0 184 185" fill="none" xmlns="http://www.w3.org/2000/svg">
<circle cx="86.25" cy="93.1836" r="51.75" fill="#F4F4F4"/>
<path fill-rule="evenodd" clip-rule="evenodd" d="M89.0217 44.9866C89.107 45.036 89.2013 45.1021 89.3044 45.1845L89.5222 45.3708L89.7628 45.5996L90.0256 45.8699L90.3101 46.1807L90.6157 46.5312L90.9418 46.9204L91.4683 47.5747L92.0379 48.311L92.6487 49.126L93.2988 50.0166L93.7531 50.6508L94.9578 52.3712L95.7251 53.4913L97.0722 55.4945L98.4968 57.6555L100.296 60.4367L102.18 63.3994L103.803 65.9887L105.801 69.2187L108.526 73.6929L110.596 77.1415L112.672 80.6421L114.25 83.3311L116.473 87.1649L118.653 90.9758L120.351 93.9864L121.592 96.2114L123.196 99.1208L123.972 100.546L125.47 103.329L126.885 106.007L128.207 108.563L128.83 109.79L129.426 110.981L129.994 112.134L130.79 113.785L131.282 114.832L131.741 115.833L132.167 116.787C132.371 117.251 132.562 117.697 132.74 118.122C133.177 119.174 132.68 120.381 131.628 120.819C130.577 121.257 129.369 120.759 128.931 119.708L128.571 118.859L128.173 117.957L127.74 117.004L127.273 116.003L126.511 114.415L125.68 112.729L124.784 110.954L123.828 109.096L122.816 107.162L121.752 105.161L120.262 102.399L119.095 100.266L117.484 97.3563L115.817 94.3855L114.107 91.3712L111.923 87.5684L111.039 86.0434L108.311 81.3819L106.277 77.9506L104.261 74.5847L102.277 71.3099L99.9614 67.5368L98.1049 64.5533L96.6787 62.2901L94.9832 59.6375L93.7062 57.6725L92.5086 55.8614L91.6673 54.612L90.6279 53.1019L89.6901 51.782L89.2618 51.1975L88.8618 50.6655L88.3174 49.9694L88.2044 49.8328L87.5567 50.6992L86.9471 51.5332L86.3212 52.4084L85.679 53.3244L85.0206 54.2812L84.346 55.2786L83.3038 56.8504L82.2255 58.5125L81.1112 60.2643L80.3484 61.4816L79.1745 63.3814L77.965 65.3693L76.7201 67.4446L75.8706 68.8764L74.567 71.0961L73.2285 73.4015L71.8552 75.7921L70.4472 78.2673L69.0047 80.8264L67.028 84.3681L65.1808 87.7106L63.4988 90.7793L61.7756 93.9454L59.5644 98.0375L56.1158 104.477L52.4064 111.465L44.214 127.01L45.0764 127.12L45.8507 127.204L47.1589 127.324L48.6389 127.437L50.2863 127.542L51.4752 127.608L53.4765 127.705L55.6341 127.793L58.7392 127.896L61.2281 127.962L64.7437 128.036L67.517 128.081L70.3979 128.116L74.3914 128.147L76.4478 128.157C77.6834 128.161 78.924 128.163 80.1666 128.163L83.4306 128.157L88.4818 128.128L92.0402 128.094L97.2897 128.021L102.384 127.924L106.469 127.825L109.611 127.735L114.071 127.582L117.521 127.44L120.695 127.284L123.014 127.15L124.613 127.045L126.084 126.936L127.421 126.822C128.556 126.719 129.559 127.555 129.662 128.689C129.765 129.824 128.929 130.827 127.795 130.93L126.871 131.01L125.363 131.127L123.716 131.239L121.939 131.346L118.708 131.514L115.17 131.667L112.144 131.779L108.964 131.881L105.648 131.973L101.339 132.072L96.883 132.153L92.3152 132.216L86.7371 132.266L82.9884 132.284L78.3013 132.287L74.3643 132.272L69.3667 132.23L66.5011 132.191L63.7454 132.143L61.1083 132.085L58.5983 132.018L56.9997 131.969L54.7202 131.886L52.5905 131.794L50.633 131.694L49.4369 131.623L47.2638 131.471L46.2883 131.389L45.388 131.303L44.3694 131.19L43.471 131.072L43.1024 131.016L42.431 130.898C41.9074 130.796 41.4718 130.685 41.1139 130.558C40.6581 130.396 40.2835 130.201 39.9484 129.887C39.2267 129.212 38.9552 128.144 39.4704 127.168L48.1075 110.771L52.4767 102.535L54.8027 98.1843L57.5997 92.9935L59.8788 88.8016L61.5669 85.7219L63.4388 82.3347L65.4757 78.6858L66.9614 76.0511L68.411 73.5044L69.8247 71.0462L71.2022 68.677L72.5436 66.3972L73.8488 64.2073L75.1178 62.1079L76.3505 60.0994L77.5469 58.1822L78.3244 56.9552L79.4603 55.1914L80.1973 54.0671L80.9182 52.9841L81.6228 51.9425L82.6494 50.4583L83.3135 49.5211L83.9613 48.6259L84.5929 47.7729L85.5099 46.5726L86.1008 45.8255C86.1979 45.7045 86.2944 45.5853 86.3902 45.4679C87.0302 44.6832 88.1453 44.4793 89.0217 44.9866ZM88.2672 107.782C92.7563 107.782 96.11 111.356 96.11 115.827C96.11 120.263 92.0246 124.262 87.5073 124.262C83.0906 124.262 79.9723 120.874 79.7069 116.405C79.3889 111.044 83.2293 107.782 88.2672 107.782ZM88.2672 111.907C85.4209 111.907 83.661 113.402 83.8246 116.161C83.9676 118.567 85.4122 120.137 87.5073 120.137C89.7661 120.137 91.985 117.965 91.985 115.827C91.985 113.578 90.4174 111.907 88.2672 111.907ZM86.7825 65.7545C87.8859 65.7261 89.0428 65.7436 90.1958 65.7936L91.0588 65.8371L91.7518 65.8807L92.454 65.9345C93.4166 66.0204 94.1811 66.7603 94.313 67.7009L94.3308 67.8915L94.6452 74.5463L95.0107 82.6339L95.2266 87.7542L95.4291 93.0991L95.5251 96.3365L95.5565 98.1646L95.5553 99.2918L95.5451 99.7267L95.5283 100.074L95.505 100.335L95.4908 100.433C94.7472 104.769 82.5617 105.259 80.8137 101.031C80.734 100.838 80.6841 100.635 80.6655 100.428L80.6573 100.22L81.0182 68.2069C81.0287 67.2754 81.6623 66.4667 82.5641 66.2334C83.6818 65.9442 85.1005 65.7979 86.7825 65.7545ZM87.6507 69.8665L86.8889 69.8782C86.4701 69.889 86.0742 69.9071 85.7047 69.9325L85.123 69.9806L84.7916 99.4139L84.9384 99.4711L85.1113 99.5275L85.3054 99.5816C86.0854 99.7823 87.1504 99.8705 88.2682 99.8257C89.2229 99.7874 90.1403 99.6545 90.846 99.4603L91.1349 99.3734L91.3025 99.315L91.4398 99.2599V98.8255L91.4208 97.4056L91.3745 95.4716L91.2613 92.0044L90.9998 85.383L90.669 77.8694L90.2971 69.9284L90.024 69.9151C89.4902 69.8919 88.9565 69.8762 88.4312 69.8696L87.6507 69.8665Z" fill="#AF181E"/>
</svg>
