<svg width="186" height="185" viewBox="0 0 186 185" fill="none" xmlns="http://www.w3.org/2000/svg">
<path d="M150.579 119.83C142.8 123.043 132.779 124.268 124.365 124.241C90.3171 125.004 71.3008 104.163 71.3008 76.7955C71.3008 49.4283 96.7164 27.2441 128.15 27.2441C159.584 27.2441 184.999 49.4102 184.999 76.7955C184.994 83.035 183.661 89.2019 181.087 94.886C176.14 106.132 169.659 108.184 167.426 113.512C165.13 118.958 168.162 125.666 171.547 130.758L170.313 131.711C162.252 131.711 156.289 127.708 151.841 121.046" fill="#F5F5F0"/>
<path d="M31.4897 154.377H29.8104C28.0524 157.431 25.5347 159.979 22.5018 161.773C19.4688 163.567 16.0237 164.546 12.5006 164.616V164.099C15.3871 159.724 16.6125 156.247 14.6518 151.563C13.0304 148.073 11.1047 144.732 8.897 141.579C7.09113 139.173 5.55971 136.573 4.33126 133.827C2.13549 128.979 0.999769 123.718 1 118.396C1 95.0591 22.6941 76.1426 49.4622 76.1426C76.2302 76.1426 97.9334 95.0591 97.9334 118.396C97.9334 141.733 77.0562 158.544 50.3063 158.544C43.1264 158.544 38.125 157.164 31.4897 154.414" fill="#F5F5F0"/>
<path d="M120.735 73.5827C121.316 75.6795 122.551 77.6674 124.82 77.6674C125.903 77.6674 126.942 77.237 127.708 76.471C128.474 75.705 128.905 74.666 128.905 73.5827C128.905 72.4994 128.474 71.4604 127.708 70.6944C126.942 69.9284 125.903 69.498 124.82 69.498C122.56 69.498 120.127 71.4042 120.735 73.5827Z" fill="#0071BC"/>
<path d="M101.318 73.583C101.318 74.6663 101.749 75.7052 102.515 76.4712C103.281 77.2373 104.32 77.6676 105.403 77.6676C106.486 77.6676 107.525 77.2373 108.291 76.4712C109.057 75.7052 109.488 74.6663 109.488 73.583C109.488 71.3228 107.427 69.7162 105.403 69.4983C103.161 69.2532 101.318 71.3228 101.318 73.583Z" fill="#0071BC"/>
<path d="M140.014 73.5827C140.016 74.6653 140.447 75.7028 141.213 76.4683C141.978 77.2338 143.016 77.665 144.098 77.6674C144.642 77.6947 145.185 77.6077 145.693 77.4121C146.201 77.2165 146.662 76.9166 147.047 76.5317C147.432 76.1468 147.732 75.6855 147.928 75.1776C148.123 74.6696 148.21 74.1263 148.183 73.5827C148.183 72.4994 147.753 71.4604 146.987 70.6944C146.221 69.9284 145.182 69.498 144.098 69.498C143.015 69.498 141.976 69.9284 141.21 70.6944C140.444 71.4604 140.014 72.4994 140.014 73.5827Z" fill="#0071BC"/>
<path fill-rule="evenodd" clip-rule="evenodd" d="M96.7034 92.4125C89.3909 79.7562 75.9225 70.0866 57.9569 70.648C39.7312 71.2175 26.8841 76.1957 18.1845 83.2816C9.48596 90.3667 4.85434 99.6233 3.16792 108.899C0.480086 123.682 7.29002 134.422 10.9125 137.863C11.3269 138.257 11.3437 138.912 10.95 139.326C10.5563 139.741 9.90118 139.758 9.48676 139.364C5.44253 135.522 -1.70086 124.105 1.13131 108.528C2.89488 98.8287 7.75077 89.1103 16.8772 81.6766C26.0027 74.2438 39.318 69.1594 57.8923 68.579C76.7267 67.9904 90.8583 78.1583 98.4958 91.377C106.109 104.554 107.352 120.921 100.212 132.821C86.3275 155.962 55.2726 167.151 30.7132 155.479C28.4148 158.931 22.6178 164.632 13.7526 165.518C13.3467 165.559 12.9548 165.357 12.7519 165.003C12.5489 164.65 12.5727 164.21 12.8126 163.88C14.195 161.979 16.6999 156.232 14.9455 149.214C14.8069 148.66 15.144 148.098 15.6986 147.959C16.2531 147.821 16.8151 148.158 16.9537 148.712C18.4779 154.809 17.0986 160.069 15.6221 163.146C23.1892 161.612 27.9442 156.259 29.4225 153.631C29.6932 153.15 30.2937 152.966 30.7875 153.213C54.3989 165.018 84.8827 154.347 98.4371 131.756C105.097 120.656 104.04 105.111 96.7034 92.4125Z" fill="#0082AA"/>
<path fill-rule="evenodd" clip-rule="evenodd" d="M88.8369 29.5727C78.1237 36.8323 71.7631 47.1404 68.6532 54.491C65.5955 61.7183 64.724 72.9762 67.8363 84.4352C70.9408 95.8652 77.988 107.417 90.6718 115.309C100.789 121.604 112.782 123.41 123.731 123.074C134.677 122.737 144.482 120.261 150.13 118.096C150.594 117.918 151.118 118.095 151.38 118.518C156.29 126.45 163.978 129.004 168.563 129.46C164.207 122.642 165.469 115.37 166.802 112.323C167.031 111.799 167.641 111.56 168.165 111.79C168.689 112.019 168.927 112.629 168.698 113.153C167.463 115.976 166.22 123.4 171.433 129.916C171.676 130.22 171.728 130.635 171.568 130.99C171.407 131.344 171.061 131.579 170.672 131.597C166.294 131.796 156.345 129.769 150.08 120.325C144.139 122.489 134.496 124.814 123.794 125.143C112.606 125.487 100.161 123.652 89.5782 117.067C76.387 108.859 69.0593 96.8353 65.8387 84.9778C62.626 73.1493 63.4795 61.4073 66.7468 53.6845C69.9619 46.0851 76.5388 35.4057 87.6757 27.8591C98.8487 20.2879 114.527 15.9294 135.785 20.8797C157.026 25.8264 172.832 38.2163 180.32 53.2674C187.825 68.3499 186.93 86.0304 174.888 101.304C174.534 101.752 173.883 101.829 173.434 101.476C172.985 101.122 172.908 100.471 173.262 100.022C184.795 85.3953 185.625 68.5757 178.467 54.1895C171.293 39.7718 156.049 27.7242 135.315 22.8958C114.598 18.0712 99.5138 22.3377 88.8369 29.5727Z" fill="#0071BC"/>
</svg>
