<svg width="32" height="32" viewBox="0 0 32 32" fill="none" xmlns="http://www.w3.org/2000/svg">
<path fill-rule="evenodd" clip-rule="evenodd" d="M15.9999 0C7.16343 0 0 7.16354 0 16C0 24.8366 7.16335 32 15.9999 32C24.8364 32 32 24.8366 32 16C32 7.16358 24.8364 0 15.9999 0ZM15.9999 1.4709C24.024 1.4709 30.5291 7.97594 30.5291 16C30.5291 24.0242 24.0241 30.5291 15.9999 30.5291C7.97572 30.5291 1.47091 24.0243 1.47091 16C1.47091 7.97589 7.97581 1.4709 15.9999 1.4709ZM16 10.5796C16.3917 10.5796 16.7118 10.8858 16.7342 11.2719L16.7354 11.3151V15.2645H20.6849C21.0911 15.2645 21.4204 15.5938 21.4204 16C21.4204 16.3917 21.1142 16.7118 20.7282 16.7342L20.6849 16.7355H16.7354V20.685C16.7354 21.0912 16.4062 21.4204 16 21.4204C15.6083 21.4204 15.2881 21.1143 15.2658 20.7282L15.2645 20.685V16.7355H11.315C10.9088 16.7355 10.5795 16.4062 10.5795 16C10.5795 15.6083 10.8857 15.2882 11.2718 15.2658L11.315 15.2645H15.2645V11.3151C15.2645 10.9089 15.5938 10.5796 16 10.5796Z" fill="var(--icon-stroke, #284B9B)"/>
</svg>
