<svg width="24" height="24" viewBox="0 0 24 24" fill="none" xmlns="http://www.w3.org/2000/svg">
<path fill-rule="evenodd" clip-rule="evenodd" d="M17.7619 1.26655C17.7619 0.981268 17.5335 0.75 17.2518 0.75C17.1604 0.75 17.0747 0.774323 17.0005 0.816925C16.8459 0.905667 16.7416 1.07381 16.7416 1.26662C16.7416 1.26882 16.7416 1.27101 16.7416 1.27321L16.741 1.30814C16.7194 1.95699 16.1931 2.47632 15.5472 2.47632H8.42635L8.38529 2.47562C7.74459 2.45369 7.23178 1.92073 7.23178 1.26655L7.23175 1.26527C7.23172 1.25599 7.23146 1.24677 7.23096 1.23761L7.23092 1.2362C7.2154 0.965044 6.99336 0.75 6.72172 0.75C6.52363 0.75 6.35191 0.864365 6.26743 1.03145C6.23175 1.10199 6.21162 1.18193 6.21162 1.26662L6.21093 1.30821C6.18928 1.95706 5.66302 2.47639 5.01706 2.47639L3.3969 2.48742L3.36693 2.4885C3.34949 2.48964 3.33229 2.49167 3.31538 2.49454C3.28774 2.48985 3.25935 2.48741 3.2304 2.48741C1.44634 2.48741 0 3.95209 0 5.75891V10.5905V19.9784L0.000930838 20.0576C0.0158085 20.6897 0.208649 21.2935 0.552174 21.8081C1.14853 22.7023 2.14412 23.2501 3.2304 23.2501H20.7696L20.827 23.2496C22.5847 23.2185 24 21.7659 24 19.9784V5.75891L23.9999 5.75514C24 5.74852 24 5.7419 24 5.73527C24 5.72821 23.9999 5.72119 23.9996 5.7142L23.9995 5.70074C23.9688 3.9207 22.5346 2.48741 20.7696 2.48741L18.9594 2.4764L18.9189 2.47572C18.2796 2.45438 17.769 1.92865 17.7618 1.28057C17.7618 1.2759 17.7619 1.27123 17.7619 1.26655ZM17.2517 2.69861C16.8558 3.18135 16.2638 3.49323 15.5994 3.50881L15.5472 3.50942H8.42635C7.74088 3.50942 7.12812 3.19401 6.72188 2.69869C6.32635 3.18143 5.73513 3.49329 5.07262 3.50887L5.02049 3.50948L3.40376 3.5205C3.37363 3.52071 3.34409 3.51826 3.31535 3.51338C3.28772 3.51807 3.25934 3.52051 3.2304 3.52051C2.02717 3.52051 1.04845 4.49424 1.02073 5.70607L1.02012 5.75891V8.35073C1.52795 7.9115 2.18697 7.64631 2.90719 7.64631L2.91317 7.64634H21.0928C22.1304 7.64634 22.9723 6.79848 22.9798 5.74953C22.9749 4.53518 22.0153 3.54912 20.8188 3.52112L18.9563 3.50949C18.2708 3.50949 17.6579 3.19402 17.2517 2.69861ZM22.9798 7.97505C22.485 8.40301 21.8467 8.66574 21.1481 8.67892L21.0928 8.67945H2.90722L2.9019 8.67942C1.86208 8.6823 1.02012 9.53675 1.02012 10.5905V19.9784C1.02012 20.4314 1.15266 20.863 1.39742 21.2297C1.79513 21.826 2.45005 22.1966 3.17023 22.2161L3.2304 22.217H20.7696C21.9729 22.217 22.9515 21.2432 22.9792 20.0312L22.9798 19.9784V7.97505ZM7.19043 11.2158H6.30531C5.4602 11.2158 4.77512 11.9097 4.77512 12.7655V13.6619C4.77512 14.5178 5.46016 15.2115 6.30531 15.2115H7.19043C8.03546 15.2115 8.72062 14.5177 8.72062 13.6619V12.7655C8.72062 11.9098 8.03541 11.2158 7.19043 11.2158ZM6.30531 12.2489H7.19043C7.47201 12.2489 7.7005 12.4803 7.7005 12.7655V13.6619C7.7005 13.9471 7.47209 14.1784 7.19043 14.1784H6.30531C6.02356 14.1784 5.79524 13.9472 5.79524 13.6619V12.7655C5.79524 12.4803 6.02363 12.2489 6.30531 12.2489ZM17.6099 11.2158H16.7247C15.8797 11.2158 15.1945 11.9098 15.1945 12.7655V13.6619C15.1945 14.5177 15.8797 15.2115 16.7247 15.2115H17.6099C18.455 15.2115 19.14 14.5178 19.14 13.6619V12.7655C19.14 11.9097 18.455 11.2158 17.6099 11.2158ZM16.7247 12.2489H17.6099C17.8915 12.2489 18.1199 12.4803 18.1199 12.7655V13.6619C18.1199 13.9472 17.8916 14.1784 17.6099 14.1784H16.7247C16.4431 14.1784 16.2147 13.9471 16.2147 13.6619V12.7655C16.2147 12.4803 16.4431 12.2489 16.7247 12.2489ZM11.515 11.2158H12.4001C13.2451 11.2158 13.9303 11.9098 13.9303 12.7655V13.6619C13.9303 14.5177 13.2452 15.2115 12.4001 15.2115H11.515C10.6699 15.2115 9.98483 14.5178 9.98483 13.6619V12.7655C9.98483 11.9097 10.6699 11.2158 11.515 11.2158ZM12.4001 12.2489H11.515C11.2333 12.2489 11.005 12.4803 11.005 12.7655V13.6619C11.005 13.9472 11.2333 14.1784 11.515 14.1784H12.4001C12.6818 14.1784 12.9102 13.9471 12.9102 13.6619V12.7655C12.9102 12.4803 12.6817 12.2489 12.4001 12.2489ZM7.19043 16.1475H6.30531C5.4602 16.1475 4.77512 16.8414 4.77512 17.6971V18.5935C4.77512 19.4494 5.46016 20.1432 6.30531 20.1432H7.19043C8.03546 20.1432 8.72062 19.4494 8.72062 18.5935V17.6971C8.72062 16.8414 8.03541 16.1475 7.19043 16.1475ZM6.30531 17.1806H7.19043C7.47201 17.1806 7.7005 17.412 7.7005 17.6971V18.5935C7.7005 18.8788 7.47209 19.1101 7.19043 19.1101H6.30531C6.02356 19.1101 5.79524 18.8789 5.79524 18.5935V17.6971C5.79524 17.4119 6.02363 17.1806 6.30531 17.1806ZM11.515 16.1475H12.4001C13.2451 16.1475 13.9303 16.8414 13.9303 17.6971V18.5935C13.9303 19.4494 13.2452 20.1432 12.4001 20.1432H11.515C10.6699 20.1432 9.98483 19.4494 9.98483 18.5935V17.6971C9.98483 16.8414 10.6699 16.1475 11.515 16.1475ZM12.4001 17.1806H11.515C11.2333 17.1806 11.005 17.4119 11.005 17.6971V18.5935C11.005 18.8789 11.2333 19.1101 11.515 19.1101H12.4001C12.6818 19.1101 12.9102 18.8788 12.9102 18.5935V17.6971C12.9102 17.412 12.6817 17.1806 12.4001 17.1806Z" fill="var(--icon-fill,#284B9B)"/>
</svg>
