<svg width="32" height="32" viewBox="0 0 32 32" fill="none" xmlns="http://www.w3.org/2000/svg">
<path fill-rule="evenodd" clip-rule="evenodd" d="M15.9999 0C24.8365 0 32 7.1635 32 16C32 24.8367 24.8366 32 15.9999 32C7.16351 32 0 24.8365 0 16C0 7.16362 7.1636 0 15.9999 0ZM20.7339 11.2661C20.4087 10.9409 19.8983 10.9138 19.5423 11.1848L19.4492 11.2661L15.9999 14.7153L12.5072 11.2253C12.1503 10.912 11.6066 10.9256 11.2661 11.2662C10.9409 11.5914 10.9138 12.1018 11.1848 12.4578L11.2661 12.5508L14.7141 15.9999L11.2661 19.4495L11.2252 19.4931C10.9119 19.8499 10.9255 20.3936 11.2661 20.7342C11.5913 21.0594 12.1017 21.0864 12.4577 20.8154L12.5508 20.7341L15.9987 17.2845L19.4928 20.7751C19.8497 21.0885 20.3934 21.0749 20.7339 20.7343C21.0591 20.4091 21.0862 19.8987 20.8152 19.5427L20.7339 19.4496L17.2845 15.9999L20.7748 12.5071C21.0881 12.1503 21.0745 11.6066 20.7339 11.2661Z" fill="var(--icon-stroke, #284B9B)"/>
</svg>
