<svg width="36" height="36" viewBox="0 0 36 36" fill="none" xmlns="http://www.w3.org/2000/svg">
<rect x="4.5" y="3" width="27" height="27" rx="13.5" fill="var(--icon-background, #C2E8FF)"/>
<path fill-rule="evenodd" clip-rule="evenodd" d="M17.8008 4.94002C21.0676 4.94002 23.4178 7.5902 23.4178 11.0295C23.4178 13.0941 22.5485 14.6664 20.9108 15.8967C20.4802 16.2202 20.0436 16.5 19.5379 16.7714L19.462 16.8112L19.8711 16.9661L21.0817 17.417L21.6015 17.6146L22.0794 17.8008L22.3764 17.9195L22.6576 18.0346L22.9239 18.1466L23.1765 18.2562L23.4164 18.3639L23.6448 18.4703C23.6819 18.488 23.7186 18.5056 23.7549 18.5232L23.9679 18.6288C24.0027 18.6463 24.037 18.6639 24.071 18.6816L24.2711 18.7876L24.464 18.8946C24.4956 18.9126 24.527 18.9306 24.5581 18.9487L24.7422 19.0584L24.9217 19.1705L25.0978 19.2857C25.1269 19.3052 25.156 19.3249 25.1849 19.3447L25.3579 19.4656C25.3866 19.4861 25.4154 19.5068 25.4441 19.5278C26.9794 20.646 27.8142 22.0575 27.8582 23.8958L27.86 24.05V27.9662C27.86 28.3307 27.5645 28.6262 27.2 28.6262C26.8547 28.6262 26.5713 28.361 26.5424 28.0231L26.54 27.9662V24.05C26.54 22.5853 25.9217 21.5086 24.667 20.5948L24.5141 20.4858L24.359 20.3801L24.2007 20.2771L24.0382 20.1764L23.8706 20.0773C23.8421 20.0609 23.8135 20.0446 23.7845 20.0283L23.6072 19.9309C23.5771 19.9147 23.5466 19.8985 23.5158 19.8824L23.3266 19.7854L23.1283 19.688L22.9199 19.5897L22.7003 19.4901L22.4685 19.3885C22.4288 19.3713 22.3886 19.3541 22.3478 19.3368L21.9646 19.1774L21.5473 19.0102L21.2486 18.8935L20.9323 18.7719L20.4225 18.5795L19.3553 18.1824L18.9444 18.0269L18.5574 17.8778L18.193 17.7343L17.7996 17.5748L17.4034 17.7357L17.035 17.8808L16.4387 18.1093L15.0027 18.6451L14.3514 18.8935L13.9096 19.0669L13.6354 19.1774L13.2522 19.3368L13.014 19.4395L12.7885 19.5401L12.5746 19.639L12.3713 19.7368L12.1777 19.8339C12.1462 19.85 12.115 19.8662 12.0842 19.8824L11.9032 19.9795C11.8737 19.9957 11.8445 20.012 11.8155 20.0283L11.6449 20.1267C11.617 20.1432 11.5893 20.1597 11.5618 20.1764L11.3993 20.2771L11.241 20.3801L11.0859 20.4858L10.933 20.5948C9.71878 21.4791 9.10055 22.516 9.0619 23.9035L9.05997 24.0434L9.09944 28.0156C9.12797 28.8044 10.061 29.3508 11.9454 29.5864C13.0513 29.7245 14.4641 29.5747 15.8781 29.1885L16.0276 29.1464L15.8885 29.0496C15.6798 28.9025 15.4699 28.7474 15.2584 28.5842L15.0995 28.4603C12.0827 26.0846 12.2554 21.9017 15.4016 21.5546C16.3222 21.453 17.1356 21.9313 17.7154 22.6558L17.7608 22.7144L17.779 22.6902C18.5275 21.6946 19.5129 21.2532 20.8144 21.6775L20.9236 21.7148C23.6427 22.6889 23.0115 26.9378 20.0298 28.8228C19.7949 28.9713 19.5514 29.113 19.3009 29.2476L19.1676 29.3176L19.2619 29.3507C20.8043 29.871 22.4065 29.8757 24.3717 29.3828L24.557 29.3351C24.9095 29.2422 25.2705 29.4526 25.3634 29.8051C25.4563 30.1576 25.2459 30.5186 24.8934 30.6115C22.0474 31.3617 19.811 31.186 17.5951 30.0806L17.5248 30.0444L17.3204 30.119C15.4702 30.7747 13.5032 31.0715 11.9523 30.9154L11.7817 30.8962C9.37371 30.5951 7.8977 29.7522 7.78496 28.1417L7.7799 28.0461L7.74 24.05C7.74 22.1362 8.57792 20.677 10.1559 19.5278L10.3284 19.4046C10.3573 19.3845 10.3861 19.3645 10.4151 19.3447L10.5899 19.2277L10.7676 19.1141C10.7975 19.0954 10.8276 19.0768 10.8578 19.0584L11.0419 18.9487C11.073 18.9306 11.1044 18.9126 11.136 18.8946L11.3289 18.7876L11.529 18.6816L11.7374 18.576C11.7729 18.5584 11.8088 18.5408 11.8451 18.5232L12.1836 18.3639L12.4235 18.2562L12.6761 18.1466L12.9424 18.0346L13.2236 17.9195L13.5206 17.8008L13.8347 17.6778L14.3401 17.4843L14.8899 17.2779L15.7289 16.9661L16.1376 16.8112L16.0621 16.7714C15.5925 16.5194 15.1825 16.2601 14.7816 15.9654L14.6892 15.8967C13.0515 14.6664 12.1822 13.0941 12.1822 11.0295C12.1822 7.59052 14.5338 4.94002 17.8008 4.94002ZM20.4784 22.9575C19.6979 22.6779 19.2227 22.9093 18.7459 23.6064L18.6874 23.6939L18.6311 23.7828L18.5379 23.9392L18.4169 24.1516C18.1059 24.7019 17.3099 24.6555 17.0541 24.0884C16.7293 23.3701 16.099 22.8057 15.5463 22.8666C13.807 23.0585 13.6989 25.6772 15.9162 27.4233C16.4707 27.86 17.0065 28.2344 17.536 28.547L17.6116 28.5908L17.6728 28.5658C18.1905 28.3451 18.6893 28.0934 19.1525 27.8134L19.3244 27.7071C21.512 26.3241 21.9346 23.4792 20.4784 22.9575ZM17.8008 6.26003C15.3003 6.26003 13.5022 8.2867 13.5022 11.0296C13.5022 12.6569 14.1614 13.8492 15.4821 14.8414C16.0662 15.2802 16.6841 15.6379 17.5442 16.0274L17.8 16.1408L17.8677 16.1115C18.7858 15.7069 19.4337 15.3444 20.0361 14.9022L20.1179 14.8414C21.4386 13.8492 22.0978 12.6569 22.0978 11.0296C22.0978 8.28626 20.3009 6.26003 17.8008 6.26003Z" fill="var(--icon-stroke, #284B9B)"/>
</svg>
