<svg width="36" height="36" viewBox="0 0 36 36" fill="none" xmlns="http://www.w3.org/2000/svg">
<rect x="4.5" y="3" width="27" height="27" rx="13.5" fill="var(--icon-background, #C2E8FF)"/>
<path fill-rule="evenodd" clip-rule="evenodd" d="M22.8333 18.3719L24.2803 17.2708L24.5954 17.0259L24.8924 16.7909L25.1719 16.5648C25.2171 16.5278 25.2616 16.4912 25.3055 16.4548L25.5607 16.2403C26.468 15.4662 27.0699 14.8224 27.5626 14.0883C28.5043 12.6853 28.2349 11.0481 27.1842 10.5086C26.8459 10.3349 26.4719 10.2401 26.0851 10.2244L26.0528 10.2232L26.0387 10.3516C25.9334 11.2378 25.7467 12.0778 25.4625 12.9622L25.3952 13.1671C24.5981 15.5425 23.2659 16.9094 21.9395 16.3066C20.4354 15.6233 20.6376 13.1522 21.99 11.1484C22.7196 10.0672 23.7257 9.36864 24.7836 9.06962L24.8148 9.0612L24.8212 8.87922C24.8338 8.39895 24.8266 7.89184 24.8019 7.34377L24.7832 6.9828L24.7606 6.97158C24.7183 6.95139 24.6669 6.92971 24.6071 6.90737L24.5445 6.88483C24.357 6.81971 24.1197 6.75688 23.8392 6.69787L23.5884 6.64826C23.4143 6.61586 23.2268 6.58485 23.027 6.55552C21.7465 6.36752 20.0452 6.26 18.3895 6.26C16.9668 6.26 15.6511 6.35088 14.4758 6.50209L14.3033 6.52488L13.9758 6.57152L13.6725 6.61911L13.3281 6.67915L13.0538 6.73315C13.0444 6.73518 13.036 6.73703 13.0287 6.73871C12.6731 6.81915 12.3197 6.59616 12.2393 6.24064C12.1588 5.88512 12.3818 5.5317 12.7373 5.45125L12.9574 5.40587L13.1593 5.36815L13.3048 5.34248L13.6145 5.2915C13.8293 5.25777 14.0605 5.22465 14.3074 5.19289C15.442 5.0469 16.6979 4.95495 18.0496 4.94167L18.5707 4.94028L19.1065 4.9446L19.6297 4.95422L19.9711 4.96365L20.3063 4.97555L20.6348 4.98997L20.9566 5.00694L21.2713 5.02652L21.5786 5.04874L21.8783 5.07365C21.9276 5.07803 21.9766 5.08252 22.0252 5.08713L22.3129 5.11616L22.5923 5.14799L22.8631 5.18267L23.125 5.22024L23.3778 5.26075L23.6212 5.30423C23.8995 5.35672 24.1581 5.41538 24.3949 5.48053L24.5925 5.53796C25.4895 5.8135 26.0298 6.19432 26.0881 6.70073C26.1307 7.38953 26.1508 8.02048 26.1448 8.61372L26.1392 8.906L26.1547 8.90667C26.6852 8.92995 27.2046 9.05494 27.6848 9.28373L27.7871 9.33435C29.5941 10.2621 30.0127 12.8065 28.6586 14.8239C28.0698 15.701 27.3741 16.4387 26.328 17.3211L26.047 17.5548C25.9988 17.5943 25.9499 17.6342 25.9003 17.6744L25.5936 17.92L25.2687 18.175L24.9245 18.4405L23.6377 19.4185C23.538 19.4952 23.4407 19.5707 23.3458 19.6451L23.0682 19.8654L22.8047 20.0797L22.5551 20.2886C22.4742 20.3574 22.3956 20.4253 22.3192 20.4924L22.0967 20.6915L21.8876 20.8863C20.672 22.043 20.1626 22.9904 20.1626 24.1224C20.1626 26.2101 21.2265 27.5123 23.6161 28.7768L23.9033 28.9255C24.0011 28.975 24.101 29.0245 24.2029 29.074L24.5149 29.2228C24.674 29.2973 24.8378 29.3719 25.0064 29.4469L25.3499 29.5973C25.9802 29.8693 25.8279 30.8033 25.1438 30.861L24.8699 30.8809L24.556 30.9005L24.134 30.9237L23.6586 30.9464L23.0903 30.9698L22.6333 30.9861L21.9126 31.0078L20.8852 31.0313L20.0647 31.0445L19.4937 31.0512L18.9035 31.0561L17.9819 31.0597C17.8771 31.0599 17.7714 31.06 17.665 31.06L16.9819 31.0584L16.3199 31.0535L15.6792 31.0456L15.0596 31.0348L14.4613 31.0211C14.3634 31.0186 14.2663 31.016 14.1702 31.0133L13.6038 30.9956L13.0588 30.9754L12.5351 30.9528L11.8983 30.9207L11.3757 30.8897L10.8181 30.8509L10.4473 30.8198C9.76877 30.7533 9.62415 29.827 10.2502 29.5569L10.5941 29.4061L10.9257 29.2555C14.0168 27.8263 15.4375 26.4073 15.4375 24.0254C15.4375 22.799 14.8396 21.7893 13.3936 20.4953L13.1644 20.294L12.9217 20.0877L12.6651 19.8761C12.6212 19.8404 12.5767 19.8044 12.5316 19.7682L12.254 19.5479L11.8201 19.2128L10.8551 18.4805L10.501 18.2093L10.1665 17.9493C10.1124 17.9068 10.059 17.8647 10.0064 17.823L9.69973 17.5774C9.6501 17.5372 9.60118 17.4973 9.55297 17.4578L9.27197 17.2241C8.22588 16.3417 7.53016 15.6041 6.94139 14.7269C5.58738 12.7096 6.00586 10.1652 7.81266 9.23741C8.3103 8.98187 8.85473 8.84218 9.41197 8.81522L9.45 8.814L9.4492 8.79762C9.42817 8.12686 9.44375 7.43561 9.49262 6.71896L9.5125 6.44901C9.54121 6.08563 9.85906 5.81434 10.2224 5.84305C10.5858 5.87177 10.8571 6.18962 10.8284 6.55299C10.7661 7.34095 10.7454 8.09236 10.7707 8.81482L10.7772 8.9712L10.8675 8.99711C11.8645 9.29609 12.8075 9.95154 13.4983 10.9453L13.574 11.0571C14.9138 13.0888 15.145 15.506 13.6704 16.2052C12.5784 16.7227 11.4595 15.8707 10.6535 14.2238L10.5523 14.0093C10.4198 13.7176 10.2967 13.4036 10.1848 13.0702C9.88105 12.1649 9.67639 11.2385 9.55969 10.2743L9.5432 10.1308L9.50848 10.1317C9.15556 10.145 8.81331 10.2244 8.50027 10.3702L8.41564 10.4116C7.36506 10.9511 7.09577 12.5883 8.0374 13.9913C8.39576 14.5252 8.81182 15.0113 9.36114 15.5346L9.57353 15.7327C9.683 15.8328 9.79748 15.9345 9.91748 16.0385L10.165 16.2497L10.4281 16.4678C10.4733 16.5048 10.5191 16.5421 10.5657 16.5798L10.8539 16.8102L11.1598 17.05L12.7665 18.2747L13.0769 18.5158L13.3737 18.7514L13.657 18.982C13.7031 19.0201 13.7486 19.0579 13.7936 19.0956L14.0569 19.3196L14.3069 19.5396C16.0115 21.0675 16.7575 22.3403 16.7575 24.0254C16.7575 25.8327 16.0224 27.2984 14.6809 28.4909C14.2584 28.8664 13.8054 29.198 13.2882 29.5137L13.0516 29.654L13.651 29.6764L14.4977 29.7016L15.3922 29.7208L16.0151 29.7301C16.1207 29.7314 16.2271 29.7326 16.3345 29.7336L16.9892 29.7384L17.665 29.74L18.3273 29.7389L19.2796 29.7332L19.8873 29.7267L20.7583 29.7134L21.3119 29.7022L22.1021 29.6819L22.4848 29.67L22.3618 29.598C21.8683 29.305 21.4378 29.0011 21.0326 28.6575L20.9227 28.5628C19.578 27.385 18.8426 25.9304 18.8426 24.1224C18.8426 22.3571 19.6612 21.0443 21.543 19.4167L21.8062 19.1928C21.8962 19.1174 21.9884 19.0413 22.0828 18.9645L22.3728 18.7314L22.6764 18.4931C22.7281 18.453 22.7804 18.4126 22.8333 18.3719ZM24.6868 10.5048L24.62 10.5355C24.046 10.8081 23.5082 11.2585 23.0842 11.8868C22.1235 13.3101 21.9949 14.8819 22.4856 15.1048C22.586 15.1505 22.7667 15.0902 23.0414 14.8084C23.435 14.4046 23.8262 13.6937 24.1438 12.7471C24.3828 12.0351 24.5526 11.36 24.6632 10.6635L24.6868 10.5048ZM10.9647 10.4447L10.9108 10.42L10.9153 10.4516C11.0259 11.2095 11.1975 11.9388 11.4363 12.6502C11.753 13.594 12.149 14.3076 12.5487 14.714C12.8274 14.9973 13.0101 15.0574 13.1049 15.0124C13.5787 14.7878 13.4305 13.2372 12.472 11.7838C12.0629 11.1634 11.5334 10.7164 10.9647 10.4447Z" fill="var(--icon-stroke, #284B9B)"/>
</svg>
