<svg width="48" height="49" viewBox="0 0 48 49" fill="none" xmlns="http://www.w3.org/2000/svg">
<path fill-rule="evenodd" clip-rule="evenodd" d="M10.0434 4.22696C10.0996 2.01144 11.9133 0.232422 14.1425 0.232422H19.9897H24.6708L24.7766 0.233761C26.9921 0.289903 28.7712 2.10385 28.7712 4.33279V4.89242H26.5894V4.33279L26.5878 4.25372C26.5463 3.23104 25.7037 2.41424 24.6708 2.41424H19.9897H14.1425L14.0634 2.41584C13.0405 2.45732 12.2239 3.2998 12.2239 4.33279V4.89242H10.0421V4.33279L10.0434 4.22696ZM12.2223 4.99855C12.1701 7.05797 10.5997 8.73989 8.58845 8.96698C8.51176 8.98407 8.43203 8.99308 8.35019 8.99308L8.27113 8.99468C7.24844 9.03616 6.43165 9.87878 6.43165 10.9116V13.5705L6.43325 13.6496C6.46003 14.3099 6.82059 14.8843 7.35072 15.2085C7.40019 15.2282 7.44883 15.2518 7.49625 15.2793C7.5221 15.2944 7.54774 15.3096 7.57318 15.3252C7.81072 15.4305 8.07363 15.4891 8.35019 15.4891H30.4629L30.542 15.4875C30.7898 15.4774 31.0255 15.4204 31.2404 15.325C31.2659 15.3095 31.2916 15.2942 31.3175 15.2791C31.3647 15.2517 31.4131 15.2283 31.4623 15.2086C32.0136 14.8716 32.3815 14.2641 32.3815 13.5705V11.4804L32.3814 11.4714V10.9118L32.3798 10.8327C32.3384 9.80967 31.4961 8.99322 30.4629 8.99322H18.9247L18.8606 8.99137C18.2879 8.95819 17.8338 8.48329 17.8338 7.90231C17.8338 7.29982 18.3222 6.8114 18.9247 6.8114H27.0653C26.7616 6.23892 26.5896 5.58591 26.5896 4.89271H28.7715L28.7731 4.9718C28.8145 5.99477 29.6568 6.81126 30.6896 6.81126V6.81757C32.8488 6.93524 34.5632 8.72318 34.5632 10.9118V11.4623L34.5633 11.4713V13.5705L34.5619 13.6764C34.5454 14.3301 34.3758 14.9458 34.0878 15.489H35.4454H38.2654L38.3559 15.4904C39.9179 15.5382 41.1694 16.8193 41.1694 18.393V18.7304H41.1696L41.1716 18.7843C41.1991 19.1581 41.5109 19.4526 41.8918 19.4526V19.4558C43.432 19.5271 44.6588 20.7985 44.6588 22.3566V22.6937L44.6588 22.695V23.9584L44.6574 24.0489C44.6242 25.1356 43.994 26.072 43.0837 26.5413C42.8997 26.6758 42.7875 26.8901 42.7875 27.1248L42.7859 27.1836L41.9699 42.3243L41.969 42.3698C41.9212 43.9316 40.6396 45.1834 39.066 45.1834H30.758L30.6676 45.182C30.6224 45.1806 30.5775 45.1782 30.5329 45.1748C30.0275 46.8482 28.4595 48.081 26.6036 48.081H12.2094L12.1036 48.0797C9.88784 48.0235 8.10907 46.2099 8.10907 43.9806L7.35522 18.769C7.32767 18.131 7.01274 17.5767 6.51562 17.2386C5.17215 16.5653 4.24983 15.1756 4.24983 13.5705V10.9116L4.25117 10.8058C4.30539 8.66607 5.99937 6.93333 8.12325 6.81743V6.81126L8.20234 6.80966C9.22535 6.76819 10.0418 5.92591 10.0418 4.89271H12.2236L12.2223 4.99855ZM30.7341 43.0012L31.2163 26.8624H40.6175C40.6127 26.9148 40.6094 26.9675 40.6075 27.0205L40.6066 27.0774L39.7902 42.2206L39.7886 42.2794C39.7886 42.6599 39.4937 42.972 39.12 42.9996L39.066 43.0015H30.758C30.75 43.0015 30.742 43.0014 30.7341 43.0012ZM31.2814 24.6806L31.4563 18.8265C31.4563 18.4011 31.5955 18.0005 31.8393 17.6756C31.849 17.6745 31.8588 17.6735 31.8686 17.6728L31.9225 17.6708H35.4454H38.2654C38.6462 17.6708 38.958 17.9653 38.9856 18.3391L38.9876 18.393V18.7305H38.9878C38.9878 20.2159 40.1029 21.4407 41.5417 21.6135C41.5904 21.6232 41.6403 21.6296 41.6911 21.6326L41.7552 21.6344C42.1357 21.6344 42.4475 21.9289 42.475 22.3027L42.477 22.3566V22.6924L42.477 22.6937V23.9584C42.477 24.2096 42.3488 24.4308 42.1544 24.5602C42.1196 24.5758 42.0854 24.5933 42.0517 24.6129L42.0259 24.6281C41.9581 24.6555 41.8852 24.673 41.809 24.6786L41.7551 24.6806H31.2814ZM29.4365 17.6709H9.37293C9.4812 18.04 9.53852 18.4283 9.53852 18.8265L10.2904 43.948L10.292 44.0295C10.334 45.0827 11.1762 45.8992 12.2094 45.8992H26.6036L26.6827 45.8976C27.7058 45.8561 28.5225 45.0137 28.5225 43.9806L29.275 18.7939L29.2768 18.6737C29.2871 18.3304 29.3418 17.9938 29.4365 17.6709Z" fill="#606565"/>
<circle cx="6" cy="6" r="6" fill="#284B9B"/>
</svg>
