<svg width="36" height="36" viewBox="0 0 36 36" fill="none" xmlns="http://www.w3.org/2000/svg">
<rect x="4.5" y="3" width="27" height="27" rx="13.5" fill="var(--icon-background, #C2E8FF)"/>
<path fill-rule="evenodd" clip-rule="evenodd" d="M24.9274 8.83685C24.7617 9.83264 24.3223 10.7455 23.7157 11.0673C23.9421 11.3735 24.1889 11.5452 24.4128 11.5569C24.6267 11.5679 24.8431 11.407 25.0509 11.073C25.1349 10.9381 25.2073 10.7896 25.2665 10.6407L25.3021 10.5469L25.3317 10.4579C25.3998 10.2195 25.6066 10.0495 25.8496 10.0256L25.9063 10.0227L28.5033 10.0125C29.4314 10.0018 30.1432 10.8254 30.1598 11.7919L30.0663 28.1533C30.0424 29.1065 29.3605 29.9 28.4893 29.9278L7.85115 30.0079C6.96131 29.9885 6.28375 29.2051 6.24537 28.2672L6.24365 28.1788L6.27806 11.8976C6.28004 10.9464 6.93975 10.1352 7.82492 10.0785L7.906 10.0755L8.62158 10.0702L9.02242 10.0657L9.80857 10.0531L10.3481 10.0409L10.7637 10.0285C10.4912 8.22191 11.0182 6.40496 12.3599 6.39188L12.4368 6.39316L12.5245 6.39883C13.5326 6.48854 13.9958 7.39587 13.8737 8.50276C13.7664 9.47567 13.2353 10.4755 12.4733 11.015C12.4313 11.0447 12.3856 11.069 12.3374 11.087C12.4882 11.3392 12.6538 11.468 12.8044 11.4689C13.1893 11.4709 13.4976 11.2794 13.7565 10.9274C13.8555 10.7927 13.9384 10.6452 14.0043 10.4978L14.0375 10.4202L14.0604 10.361L14.0733 10.3232C14.1456 10.0843 14.3572 9.91701 14.6023 9.89855L14.6594 9.89697L16.5609 9.93196L19.5491 9.97901L21.5627 10.001L21.9593 10.0032C21.5127 8.2029 21.9699 6.44434 23.4985 6.393C24.7362 6.35147 25.1548 7.4708 24.9274 8.83685ZM28.9381 15.5703H7.47005L7.44363 28.1813C7.44294 28.5204 7.63314 28.7705 7.82383 28.8042L7.86192 28.8081L28.4201 28.7284C28.6225 28.7327 28.8299 28.5141 28.8624 28.1991L28.8665 28.1348L28.9381 15.5703ZM14.0838 22.7548C14.3427 22.7548 14.5556 22.9516 14.5812 23.2037L14.5838 23.2548V26.0268C14.5838 26.2857 14.387 26.4986 14.1349 26.5242L14.0838 26.5268H11.4438C11.1849 26.5268 10.972 26.3301 10.9464 26.0779L10.9438 26.0268V23.2548C10.9438 22.9959 11.1405 22.783 11.3927 22.7574L11.4438 22.7548H14.0838ZM19.5218 22.7548C19.7807 22.7548 19.9936 22.9516 20.0192 23.2037L20.0218 23.2548V26.0268C20.0218 26.2857 19.825 26.4986 19.5729 26.5242L19.5218 26.5268H16.8818C16.6229 26.5268 16.41 26.3301 16.3844 26.0779L16.3818 26.0268V23.2548C16.3818 22.9959 16.5785 22.783 16.8307 22.7574L16.8818 22.7548H19.5218ZM24.9598 22.7548C25.2187 22.7548 25.4316 22.9516 25.4572 23.2037L25.4598 23.2548V26.0268C25.4598 26.2857 25.263 26.4986 25.0109 26.5242L24.9598 26.5268H22.32C22.0611 26.5268 21.8482 26.3301 21.8226 26.0779L21.82 26.0268V23.2548C21.82 22.9959 22.0167 22.783 22.2689 22.7574L22.32 22.7548H24.9598ZM13.5836 23.7548H11.9436V25.5268H13.5836V23.7548ZM19.0216 23.7548H17.3816V25.5268H19.0216V23.7548ZM24.4596 23.7548H22.82V25.5268H24.4596V23.7548ZM14.0838 17.3968C14.3427 17.3968 14.5556 17.5936 14.5812 17.8457L14.5838 17.8968V20.6686C14.5838 20.9275 14.387 21.1404 14.1349 21.1661L14.0838 21.1686H11.4438C11.1849 21.1686 10.972 20.9719 10.9464 20.7198L10.9438 20.6686V17.8968C10.9438 17.638 11.1405 17.425 11.3927 17.3994L11.4438 17.3968H14.0838ZM19.5218 17.3968C19.7807 17.3968 19.9936 17.5936 20.0192 17.8457L20.0218 17.8968V20.6686C20.0218 20.9275 19.825 21.1404 19.5729 21.1661L19.5218 21.1686H16.8818C16.6229 21.1686 16.41 20.9719 16.3844 20.7198L16.3818 20.6686V17.8968C16.3818 17.638 16.5785 17.425 16.8307 17.3994L16.8818 17.3968H19.5218ZM24.9598 17.3968C25.2187 17.3968 25.4316 17.5936 25.4572 17.8457L25.4598 17.8968V20.6686C25.4598 20.9275 25.263 21.1404 25.0109 21.1661L24.9598 21.1686H22.32C22.0611 21.1686 21.8482 20.9719 21.8226 20.7198L21.82 20.6686V17.8968C21.82 17.638 22.0167 17.425 22.2689 17.3994L22.32 17.3968H24.9598ZM13.5836 18.3968H11.9436V20.1684H13.5836V18.3968ZM19.0216 18.3968H17.3816V20.1684H19.0216V18.3968ZM24.4596 18.3968H22.82V20.1684H24.4596V18.3968ZM15.0472 11.1044L15.0194 11.1615C14.9409 11.3136 14.843 11.4755 14.7232 11.6383C14.2555 12.2742 13.6134 12.6731 12.798 12.6688C12.0524 12.6648 11.4965 12.1667 11.1424 11.382L11.1009 11.2865L11.0732 11.2176L10.7254 11.2304L10.4104 11.2396L9.83286 11.2529L9.43918 11.2598L8.20783 11.2738L7.91541 11.2754C7.71017 11.2778 7.50452 11.5078 7.4804 11.8372L7.47805 11.9001L7.47285 14.3703H28.9448L28.9596 11.8589C28.9686 11.5046 28.7682 11.2423 28.5531 11.2148L28.5126 11.2124L26.326 11.2208L26.3084 11.2616C26.2761 11.3325 26.2402 11.4058 26.2004 11.4803L26.138 11.5931L26.0697 11.7071C25.6554 12.3728 25.0898 12.7934 24.3508 12.7552C23.5794 12.7152 22.9383 12.1832 22.481 11.3608L22.427 11.2608L22.398 11.204L21.6178 11.2013L20.2213 11.1877L18.0762 11.1574L16.54 11.1318L15.0472 11.1044ZM23.5388 7.59232C23.0521 7.60866 22.8337 8.63853 23.1502 9.81741L23.1786 9.9188L23.1948 9.97201L23.2224 9.94363C23.2539 9.90824 23.2877 9.86337 23.3224 9.81019L23.3573 9.75427L23.3924 9.69305C23.5501 9.40734 23.6805 9.01971 23.7437 8.63981C23.8648 7.91241 23.7425 7.58548 23.5388 7.59232ZM12.3879 7.59217C12.2663 7.58724 12.1028 7.79198 11.9916 8.29644C11.9076 8.67724 11.8861 9.13598 11.925 9.58894L11.9424 9.75837L11.9596 9.88523L11.9919 9.85451C12.3059 9.53779 12.5497 9.06255 12.6473 8.58428L12.6672 8.47393L12.6809 8.37121C12.7399 7.83673 12.6146 7.60144 12.3879 7.59217Z" fill="var(--icon-stroke, #284B9B)"/>
</svg>
