<svg width="40" height="40" viewBox="0 0 40 40" fill="none" xmlns="http://www.w3.org/2000/svg">
<path fill-rule="evenodd" clip-rule="evenodd" d="M34.6599 20.2574C34.6599 26.1428 31.4661 31.2938 26.4243 33.5064C26.045 33.6729 25.6026 33.5003 25.4361 33.121C25.2697 32.7417 25.4422 32.2993 25.8215 32.1329C30.305 30.1653 33.1599 25.5608 33.1599 20.2574C33.1599 12.3044 26.8657 5.35205 19.2138 6.46731C11.8568 7.53972 7.27225 12.2507 6.85909 19.2615C6.34331 28.0156 12.3603 33.4033 20.0289 33.1549L20.0856 33.1507L20.1944 33.1388L20.297 33.1217L20.3937 33.0987C20.7218 33.0074 20.9438 32.7976 21.0967 32.3515L21.1385 32.2176L21.1768 32.0701C21.189 32.0187 21.2006 31.9649 21.2117 31.9086L21.2435 31.7324C21.2535 31.6711 21.2631 31.6073 21.2722 31.5409L21.2981 31.3334L21.3215 31.1095L21.3424 30.8684L21.3611 30.6096L21.3777 30.3324L21.3993 29.8808L21.4407 28.7846L21.4698 27.736L21.5112 25.8066L21.5497 23.4376L21.5753 21.1691L21.5827 19.8279L21.5788 18.7831L21.5711 18.4455L21.4978 18.4209L21.4387 18.4038C21.1385 18.3217 20.7142 18.2715 20.2705 18.2678C19.8157 18.264 19.3814 18.3092 19.0613 18.3937C18.9748 18.4165 18.9006 18.4413 18.8405 18.4662L18.8116 18.479L18.6668 28.5897C18.6612 28.9795 18.3592 29.2955 17.9784 29.3264L17.9061 29.3288C17.5163 29.3232 17.2002 29.0212 17.1694 28.6404L17.167 28.5681L17.3165 18.1614C17.3178 18.0673 17.3369 17.9743 17.3726 17.8873C18.0004 16.3583 22.7657 16.3981 23.0372 17.9903L23.0445 18.0503L23.054 18.1929L23.0618 18.3947L23.0723 18.9585L23.0767 19.7063L23.0737 20.9836L23.0617 22.4528L23.0267 25.0217L22.9719 27.7175L22.9437 28.7292L22.9152 29.5123L22.8869 30.1636L22.8668 30.5075L22.8428 30.8352L22.8292 30.993L22.7988 31.2968L22.7639 31.585C22.4782 33.7365 21.7683 34.548 20.1005 34.653C11.5709 34.9297 4.79102 28.8589 5.36169 19.1733C5.81783 11.4331 10.9538 6.15549 18.9975 4.98299C27.6499 3.72191 34.6599 11.4649 34.6599 20.2574ZM20.1506 9.32467C21.7849 9.32467 23.2608 10.7801 23.2608 12.3917C23.2608 14.0164 22.0494 15.3174 20.4248 15.3174C18.6029 15.3174 17.2152 14.1296 17.3299 12.1818C17.4256 10.5576 18.552 9.32467 20.1506 9.32467ZM20.1506 10.8247C19.3992 10.8247 18.8789 11.3941 18.8273 12.27C18.7681 13.2751 19.4016 13.8174 20.4248 13.8174C21.1961 13.8174 21.7608 13.211 21.7608 12.3917C21.7608 11.6133 20.9611 10.8247 20.1506 10.8247Z" fill="var(--icon-fill, #E52600)"/>
</svg>
