<svg fill="none" height="24" viewBox="0 0 24 24" width="24" xmlns="http://www.w3.org/2000/svg"><path clip-rule="evenodd" d="m4.37022 15.507c-1.49721-1.4767-2.33019-3.4482-2.34502-5.5513-.01483-2.10284.78977-4.08583 2.26602-5.58358 1.49158-1.51362 3.48377-2.34712 5.60942-2.34712 2.08246 0 4.04626.80534 5.52916 2.268 1.4972 1.47675 2.3302 3.44822 2.345 5.55131.0148 2.10279-.7898 4.08579-2.266 5.58359-1.4919 1.5136-3.484 2.3471-5.60944 2.3471-2.08244 0-4.04625-.8053-5.52914-2.268zm19.33168 6.7504-6.1062-6.1248c3.1874-3.9095 2.9341-9.67252-.7336-13.284-1.9299-1.9006-4.4431-2.8486-6.95492-2.8486-2.55883 0-5.11663.984-7.05503 2.94791-3.8413 3.89132-3.796874 10.15609.09932 13.99249 1.92997 1.9006 4.4431 2.8486 6.95469 2.8486 2.21644 0 4.43114-.7396 6.24414-2.2131l6.1052 6.1238c.1994.2002.4614.3003.7233.3003.2607 0 .5217-.0996.7211-.2982.3993-.3981.4003-1.0448.002-1.4444z" fill="#606565" fill-rule="evenodd"/></svg>