<svg width="24" height="24" viewBox="0 0 24 24" fill="none" xmlns="http://www.w3.org/2000/svg">
<path fill-rule="evenodd" clip-rule="evenodd" d="M5.21559 2.93927C9.16953 -0.979759 15.5804 -0.979759 19.5346 2.93928C23.4489 6.8193 23.4881 13.0857 19.652 17.0135L19.5345 17.1318L12.7679 23.8387C12.5596 24.0452 12.2271 24.0534 12.0089 23.8635L11.9823 23.8387L5.21559 17.1318C1.26147 13.2126 1.26147 6.85849 5.21559 2.93927ZM18.749 3.71793C15.2287 0.228931 9.52126 0.228931 6.00118 3.71792C2.51613 7.17221 2.48128 12.751 5.89663 16.2478L6.00118 16.3531L12.3751 22.6707L18.7489 16.3532C22.2338 12.8989 22.2687 7.32001 18.8535 3.82326L18.749 3.71793ZM12.375 6.01983C10.1375 6.01983 8.32362 7.81776 8.32362 10.0357C8.32362 12.2534 10.1375 14.0513 12.375 14.0513L12.4428 14.0507C13.5266 14.0318 14.5048 13.5935 15.2207 12.8935L15.307 12.8065C16.0012 12.0854 16.4266 11.1092 16.4266 10.0357C16.4266 7.81772 14.6127 6.01983 12.375 6.01983ZM12.375 7.12102C13.9991 7.12102 15.3156 8.42589 15.3156 10.0357C15.3156 11.6257 14.0296 12.9217 12.4281 12.9497L12.3701 12.9501C10.7511 12.9501 9.43461 11.6453 9.43461 10.0357C9.43461 8.42591 10.7511 7.12102 12.375 7.12102Z" fill="#606565"  />
</svg>
