<svg width="359" height="252" viewBox="0 0 359 252" fill="none" xmlns="http://www.w3.org/2000/svg">
<mask id="mask0_1614_104093" style="mask-type:alpha" maskUnits="userSpaceOnUse" x="0" y="3" width="188" height="203">
<path d="M97.6324 4.21142C128.971 -0.374517 160.553 14.1485 173.632 34.0267C186.711 53.905 188.231 84.1664 183.988 93.6104C179.744 103.054 194.883 137.789 183.908 168.222C177.824 185.103 149.68 205.946 98.8969 205.587C48.1139 205.227 25.4222 184.921 11.2561 169.412C1.1585 158.339 8.93753 96.0817 3.49168 93.7189C-4.48308 90.2646 7.19992 49.0771 16.6874 35.5055C31.2285 14.7078 66.2814 8.80318 97.6205 4.22315" fill="#BBE5FA"/>
</mask>
<g mask="url(#mask0_1614_104093)">
<path d="M97.6324 4.21142C128.971 -0.374517 160.553 14.1485 173.632 34.0267C186.711 53.905 188.231 84.1664 183.988 93.6104C179.744 103.054 194.883 137.789 183.908 168.222C177.824 185.103 149.68 205.946 98.8969 205.587C48.1139 205.227 25.4222 184.921 11.2561 169.412C1.1585 158.339 8.93753 96.0817 3.49168 93.7189C-4.48308 90.2646 7.19992 49.0771 16.6874 35.5055C31.2285 14.7078 66.2814 8.80318 97.6205 4.22315" fill="#BBE5FA"/>
<path fill-rule="evenodd" clip-rule="evenodd" d="M82.8748 36.4606L82.8748 6.09844C82.8748 5.66765 83.0455 5.25462 83.3496 4.94946C83.6536 4.6443 84.0662 4.47202 84.497 4.47046V4.47046C84.9278 4.47202 85.3404 4.6443 85.6445 4.94946C85.9485 5.25462 86.1192 5.66765 86.1192 6.09844L86.1192 36.4606C103.114 37.1566 116.635 48.7185 116.635 62.876L52.3358 62.876C52.3535 48.7008 65.874 37.1389 82.8748 36.4606Z" stroke="white" stroke-width="2" stroke-linecap="round" stroke-linejoin="round"/>
<path fill-rule="evenodd" clip-rule="evenodd" d="M32.226 15.5016L32.226 6.0632C32.2275 5.63188 32.3995 5.21865 32.7045 4.91365C33.0095 4.60866 33.4227 4.43649 33.8541 4.43494V4.43494C34.2849 4.4365 34.6974 4.60878 35.0015 4.91394C35.3055 5.2191 35.4763 5.63242 35.4763 6.0632L35.4763 15.4365C48.1355 16.0264 58.1991 25.347 58.1991 36.7497L10.152 36.7497C10.152 25.5652 19.8735 16.4041 32.226 15.5016Z" stroke="white" stroke-width="2" stroke-linecap="round" stroke-linejoin="round"/>
<path d="M-90.1422 177.841C-89.6998 179.186 62.5881 178.289 62.5881 178.289" stroke="white" stroke-width="2" stroke-miterlimit="7.15"/>
<path d="M62.5997 201.136L-90.5847 200.239" stroke="white" stroke-width="2" stroke-miterlimit="7.15"/>
<path d="M73.3124 148.624L72.168 122.45C72.2388 117.589 70.9882 114.262 65.5788 114.262C34.4205 114.262 -64.694 113.778 -92.4605 114.598C-96.4423 114.71 -99.5865 117.666 -99.5393 121.241L-99.2443 148.376C-96.4836 148.246 -94.0296 149.556 -92.0535 153.478C-91.6482 154.53 -91.3882 155.631 -91.2807 156.752L64.5111 156.888C64.6197 155.766 64.8817 154.665 65.2898 153.614C67.4606 149.314 70.2154 148.187 73.3124 148.624Z" stroke="white" stroke-width="2" stroke-miterlimit="7.15"/>
<path d="M64.5112 156.929C62.7887 169.087 63.4966 206.481 63.4966 206.481H75.1412L76.0378 169.317L80.0668 161.702C84.1017 154.092 79.6185 150.494 75.5895 149.16C74.8486 148.909 74.0865 148.726 73.3125 148.612" stroke="white" stroke-width="2" stroke-miterlimit="7.15"/>
</g>
<path fill-rule="evenodd" clip-rule="evenodd" d="M309.822 10.1628C309.881 10.197 309.946 10.2427 310.017 10.2996L310.167 10.4283L310.334 10.5864L310.515 10.7732L310.712 10.9879L310.923 11.2301L311.148 11.499L311.512 11.9512L311.906 12.4599L312.328 13.0231L312.777 13.6385L313.091 14.0767L313.923 15.2655L314.454 16.0395L315.384 17.4236L316.369 18.9169L317.612 20.8387L318.914 22.8858L320.035 24.675L321.416 26.9069L323.299 29.9985L324.729 32.3815L326.164 34.8003L327.254 36.6584L328.79 39.3075L330.296 41.9408L331.47 44.021L332.327 45.5585L333.435 47.5688L333.972 48.5539L335.007 50.4767L335.984 52.327L336.898 54.0933L337.328 54.9414L337.74 55.7643L338.133 56.5605L338.683 57.7018L339.023 58.4252L339.34 59.1169L339.634 59.7757C339.776 60.0965 339.908 60.4045 340.03 60.6987C340.333 61.4253 339.989 62.2596 339.262 62.5621C338.535 62.8646 337.701 62.5208 337.399 61.7942L337.149 61.2076L336.875 60.5844L336.575 59.9262L336.253 59.2343L335.726 58.1369L335.152 56.9723L334.533 55.7455L333.872 54.4615L333.173 53.1255L332.438 51.7424L331.408 49.8337L330.602 48.3604L329.488 46.3496L328.337 44.2968L327.155 42.2139L325.646 39.5863L325.035 38.5325L323.15 35.3115L321.745 32.9405L320.352 30.6147L318.981 28.3519L317.381 25.7447L316.098 23.6831L315.113 22.1193L313.941 20.2864L313.059 18.9286L312.231 17.6771L311.65 16.8138L310.931 15.7704L310.283 14.8584L309.987 14.4545L309.711 14.0869L309.335 13.6059L309.257 13.5115L308.809 14.1102L308.388 14.6865L307.956 15.2912L307.512 15.9242L307.057 16.5853L306.591 17.2745L305.871 18.3606L305.126 19.5091L304.356 20.7195L303.828 21.5607L303.017 22.8734L302.182 24.247L301.321 25.681L300.734 26.6704L299.834 28.2041L298.909 29.7971L297.96 31.449L296.987 33.1593L295.99 34.9277L294.624 37.3749L293.348 39.6846L292.186 41.805L290.995 43.9927L289.467 46.8203L287.084 51.2699L284.521 56.0986L278.86 66.84L279.456 66.9161L279.991 66.9739L280.895 67.0567L281.918 67.1346L283.056 67.2076L283.877 67.2534L285.26 67.3203L286.751 67.3809L288.897 67.452L290.617 67.4978L293.046 67.549L294.962 67.5797L296.953 67.6039L299.712 67.6258L301.133 67.6323C301.987 67.6353 302.844 67.6367 303.703 67.6365L305.958 67.6325L309.449 67.6127L311.907 67.5888L315.535 67.5384L319.055 67.4711L321.878 67.4029L324.048 67.3407L327.13 67.2352L329.514 67.1367L331.708 67.0291L333.31 66.9368L334.415 66.8641L335.431 66.7885L336.355 66.7102C337.139 66.6389 337.832 67.2165 337.904 68.0003C337.975 68.7842 337.397 69.4775 336.613 69.5488L335.975 69.6041L334.933 69.6846L333.795 69.762L332.567 69.8361L330.334 69.952L327.89 70.0581L325.799 70.1354L323.601 70.2058L321.31 70.269L318.333 70.3375L315.254 70.3937L312.097 70.4372L308.243 70.4718L305.653 70.4838L302.414 70.4859L299.694 70.4761L296.24 70.4466L294.26 70.42L292.356 70.3868L290.534 70.347L288.799 70.3006L287.695 70.2662L286.12 70.2091L284.648 70.1456L283.296 70.0764L282.469 70.0276L280.967 69.9223L280.293 69.8656L279.671 69.8064L278.967 69.7285L278.347 69.6464L278.092 69.6077L277.628 69.5264C277.266 69.4561 276.965 69.3792 276.718 69.2913C276.403 69.1794 276.144 69.0446 275.913 68.8281C275.414 68.3618 275.226 67.6234 275.582 66.9488L281.55 55.619L284.57 49.9277L286.177 46.9217L288.109 43.3349L289.684 40.4384L290.851 38.3104L292.144 35.9698L293.552 33.4485L294.578 31.628L295.58 29.8683L296.557 28.1697L297.509 26.5326L298.435 24.9573L299.337 23.4441L300.214 21.9934L301.066 20.6056L301.893 19.2808L302.43 18.433L303.215 17.2142L303.724 16.4373L304.222 15.689L304.709 14.9693L305.418 13.9437L305.877 13.2961L306.325 12.6776L306.761 12.0881L307.395 11.2587L307.803 10.7425C307.87 10.6589 307.937 10.5766 308.003 10.4954C308.446 9.95321 309.216 9.81229 309.822 10.1628ZM309.3 53.5538C312.402 53.5538 314.72 56.0233 314.72 59.1129C314.72 62.1781 311.897 64.9408 308.775 64.9408C305.723 64.9408 303.569 62.6003 303.385 59.5122C303.165 55.8077 305.819 53.5538 309.3 53.5538ZM309.3 56.4041C307.333 56.4041 306.117 57.437 306.231 59.3433C306.329 61.0062 307.327 62.0905 308.775 62.0905C310.336 62.0905 311.869 60.59 311.869 59.1129C311.869 57.5584 310.786 56.4041 309.3 56.4041ZM308.274 24.5132C309.037 24.4935 309.836 24.5056 310.633 24.5402L311.229 24.5702L311.708 24.6004L312.193 24.6375C312.858 24.6969 313.387 25.2081 313.478 25.8581L313.49 25.9898L313.707 30.5882L313.96 36.1766L314.109 39.7146L314.249 43.4079L314.315 45.6449L314.337 46.9081L314.336 47.687L314.329 47.9875L314.318 48.2278L314.301 48.4081L314.292 48.4758C313.778 51.472 305.358 51.8099 304.15 48.8887C304.095 48.7555 304.06 48.6149 304.048 48.4718L304.042 48.3281L304.291 26.2077C304.299 25.5641 304.736 25.0053 305.359 24.8441C306.132 24.6443 307.112 24.5432 308.274 24.5132ZM308.874 27.3545L308.348 27.3626C308.058 27.37 307.785 27.3826 307.53 27.4001L307.128 27.4334L306.899 47.7714L307 47.8109L307.12 47.8499L307.254 47.8872C307.793 48.0259 308.529 48.0869 309.301 48.0559C309.961 48.0294 310.595 47.9376 311.082 47.8034L311.282 47.7434L311.398 47.703L311.492 47.6649V47.3648L311.479 46.3836L311.447 45.0473L311.369 42.6515L311.188 38.0762L310.96 32.8844L310.703 27.3973L310.514 27.3881C310.145 27.3721 309.777 27.3612 309.414 27.3566L308.874 27.3545Z" fill="#E52600"/>
<path d="M287.012 126.894C307.986 113.39 309.845 94.5485 307.119 87.2446C303.265 76.9003 294.328 80.3623 297.885 86.7696C303.615 97.0782 353.775 90.4334 356.982 55.3923C360.188 20.3512 341.697 11.2896 330.64 6.14711C317.356 -0.0404578 284.601 -1.41217 267.879 17.1387C252.013 34.7453 250.243 70.9681 288.497 82.1912" stroke="#DD1D14" stroke-width="3" stroke-miterlimit="10" stroke-linecap="round"/>
<path d="M288.726 190.477C288.259 190.389 287.775 190.466 287.359 190.696C286.943 190.926 286.62 191.294 286.446 191.736C286.341 192.206 286.426 192.699 286.683 193.106C286.94 193.513 287.348 193.802 287.817 193.909C287.913 193.943 288.013 193.965 288.114 193.975C288.306 193.997 288.501 193.981 288.687 193.928C288.873 193.875 289.047 193.786 289.199 193.666C289.351 193.546 289.477 193.397 289.571 193.228C289.665 193.059 289.725 192.873 289.747 192.68C289.937 191.784 289.563 190.715 288.726 190.477Z" stroke="#F4F4EF" stroke-width="1.14" stroke-miterlimit="7.15"/>
<path d="M217.031 208.597C232.102 243.138 281.074 186.104 281.074 186.104M201.754 121.161C201.754 121.161 216.51 119.506 224.643 129.358C246.732 155.531 204.138 234.132 276.828 174.794L201.754 121.161Z" stroke="#1E4B9E" stroke-width="2.15" stroke-linecap="round" stroke-linejoin="round"/>
<path d="M268.703 190.692H268.775C269.575 190.773 270.374 190.535 271 190.029C271.625 189.524 272.025 188.792 272.113 187.993L277.782 145.913C277.998 144.203 277.026 141.333 275.37 141.117L256.656 137.968C253.282 137.302 252.157 139.425 251.959 141.135L244.671 185.636C244.55 186.441 244.753 187.261 245.235 187.917C245.717 188.573 246.44 189.012 247.245 189.136L268.676 190.71" fill="#EC1C24"/>
<path d="M269.945 188.965C269.945 188.965 250.151 187.381 248.711 187.417C247.272 187.453 246.813 186.193 246.912 185.186C247.011 184.178 253.903 140.577 253.903 140.577" stroke="#F4F4EF" stroke-width="1.32" stroke-miterlimit="7.15" stroke-linecap="round"/>
<path d="M272.68 183.152C272.68 183.152 272.68 179.877 271.547 178.348C270.413 176.818 257.151 172.122 257.808 170.314C258.464 168.505 260.768 169.98 271.151 173.606C269.522 169.845 256.701 167.902 257.034 165.941C257.241 164.699 263.422 163.547 274.237 169.792C266.922 163.089 258.995 162.747 259.148 160.254C259.301 157.762 269.045 159.76 277.242 166.103C276.117 162 266.238 157.492 267.624 155.306C269.009 153.12 286.428 165.599 286.356 169.702C286.284 173.804 280.778 185.141 272.68 183.198" fill="#F8A464"/>
<path d="M165.324 39.6271C170.201 18.6723 223.483 1.37014 237.132 35.9469C250.628 70.1367 216.708 85.6751 228.467 100.089C242.026 116.716 222.547 129.429 210.293 137.176C191.983 148.774 144.612 151.032 127.841 124.166C111.07 97.2999 151.234 90.0839 151.567 78.7923C151.9 67.5006 143.371 48.7954 165.351 39.6271" fill="#B92026"/>
<path d="M145.746 138.454C135.543 135.242 126.528 129.52 120.922 120.549C104.124 93.6742 144.315 86.4671 144.648 75.1755C144.981 63.8839 136.452 45.1786 158.432 36.0103C163.3 15.0556 222.799 2.05433 234.819 32.3213" stroke="#1E4B9E" stroke-width="1.85" stroke-linecap="round" stroke-linejoin="round"/>
<path d="M185.901 119.479C90.5292 130.113 134.472 234.599 141.634 238.558C141.634 238.558 160.528 252 193.414 252C230.537 252 230.537 233.501 230.537 231.081C230.615 227.007 229.929 222.954 228.512 219.133C225.687 210.774 225.21 199.114 227.154 182.145C230.132 156.008 237.59 114.017 188.582 119.461" fill="#0782B5"/>
<path d="M191.362 183.818C176.966 180.93 147.338 180.732 134.679 186.292" stroke="#1E4B9E" stroke-width="2.15" stroke-linecap="round" stroke-linejoin="round"/>
<path d="M140.563 183.179C140.563 183.179 169.526 142.161 167.025 131.139C164.523 120.117 147.23 132.083 138.548 139.38C106.832 166.021 98.06 209.775 119.006 216.253C129.479 219.51 155.814 211.467 194.106 206.356" stroke="#1E4B9E" stroke-width="2.15" stroke-linecap="round" stroke-linejoin="round"/>
<path d="M189.086 189.568C191.65 185.807 209.78 172.472 211.58 171.474C213.379 170.475 228.054 167.47 231.563 170.196C230.663 173.795 218.516 172.149 215.178 175.109C217.695 175.766 220.114 176.749 222.376 178.033C225.219 179.832 230.474 184.241 229.574 185.078C228.333 186.167 221.387 181.821 220.631 181.479C218.514 180.849 216.278 180.732 214.108 181.137L219.182 182.199C219.182 182.199 228.53 188.128 226.875 188.497C224.329 189.253 219.677 186.823 218.453 186.158C216.536 185.17 214.336 184.877 212.227 185.33C212.227 185.33 215.25 186.302 216.213 186.742C217.176 187.183 225.12 190.297 222.565 190.71C220.01 191.124 214.153 188.803 210.527 189.19C210.527 189.19 202.798 199.428 194.557 200.472L189.158 189.54" fill="#F8A464"/>
<path d="M226.092 67.8333C225.687 71.9991 223.672 75.3733 217.895 75.2833C217.29 75.2899 216.697 75.1038 216.204 74.7522C214.827 83.4256 212.605 91.0107 210.805 94.4026C208.412 98.9013 202.537 105.199 193 104.722C193 104.722 198.839 128.71 197.219 133.82C195.6 138.93 178.091 136.744 174.978 133.46C173.772 132.191 176.571 111.938 180.053 102.293C168.473 97.2278 168.779 83.3 166.916 78.0005C162.85 79.5121 156.381 78.4953 154.941 72.755C152.962 64.8464 163.434 63.7576 166.763 66.5738C167.312 62.1201 167.555 50.1628 170.497 42.929C173.44 35.6951 204.48 34.7414 210.203 38.6372C215.97 44.8634 217.895 51.8271 217.481 62.6778C221.899 61.3282 226.722 62.3092 226.182 67.8785" fill="#F8A464"/>
<path d="M226.092 67.8333C225.687 71.9991 223.672 75.3733 217.895 75.2833C217.29 75.2899 216.697 75.1038 216.204 74.7522C214.827 83.4256 212.605 91.0107 210.805 94.4026C208.412 98.9013 202.537 105.199 193 104.722C193 104.722 198.839 128.71 197.219 133.82C195.6 138.93 178.091 136.744 174.978 133.46C173.772 132.191 176.571 111.938 180.053 102.293C168.473 97.2278 168.779 83.3 166.916 78.0005C162.85 79.5121 156.381 78.4953 154.941 72.755C152.962 64.8464 163.434 63.7576 166.763 66.5738C167.312 62.1201 167.555 50.1628 170.497 42.929C173.44 35.6951 204.48 34.7414 210.203 38.6372C215.97 44.8634 217.895 51.8271 217.481 62.6778C221.809 61.2923 226.632 62.264 226.092 67.8333Z" stroke="#F8A770" stroke-width="0.77" stroke-miterlimit="7.15"/>
<path d="M170.876 40.0138C180.773 48.0304 214.72 54.1126 224.338 52.1962C233.956 50.2797 229.853 32.8252 222.16 27.7057C214.468 22.5862 195.555 16.6207 170.876 40.0138Z" fill="#B92026"/>
<path d="M193.45 143.492C194.64 147.776 195.542 152.134 196.149 156.538C196.842 162.369 196.842 171.978 196.842 171.978" stroke="#BCE6FA" stroke-width="2.12" stroke-linecap="round" stroke-linejoin="round"/>
<path d="M170.803 125.992L170.713 154.262L192.424 141.774L211.948 146.524L200.656 122.214" stroke="#BCE6FA" stroke-width="2.12" stroke-linecap="round" stroke-linejoin="round"/>
<path d="M215.457 56.6319C209.546 52.79 203.41 54.7785 201.223 56.7039C199.226 58.0176 203.023 76.705 201.835 78.0186C200.647 79.3322 194.907 78.0186 194.907 78.0186" stroke="#27397C" stroke-width="1.73" stroke-miterlimit="7.15" stroke-linecap="round"/>
<path d="M176.949 57.8555C180.242 53.7887 188.204 53.7799 191.605 56.2722" stroke="#27397C" stroke-width="1.73" stroke-miterlimit="7.15" stroke-linecap="round"/>
<path d="M187.313 63.3888C187.313 64.5585 186.612 65.5033 185.748 65.5033C184.884 65.5033 184.191 64.5585 184.191 63.3888C184.191 62.2192 184.893 61.2836 185.748 61.2836C186.603 61.2836 187.313 62.1832 187.313 63.3888Z" fill="#27397C"/>
<path d="M210.554 63.497C210.554 64.6486 209.861 65.5934 208.997 65.5934C208.133 65.5934 207.45 64.6486 207.45 63.497C207.45 62.3453 208.142 61.3917 208.997 61.3917C209.852 61.3917 210.554 62.2913 210.554 63.497Z" fill="#27397C"/>
<path d="M172.45 40.0858C182.347 48.0934 216.294 54.1847 225.912 52.2682" stroke="#1E4B9E" stroke-width="1.85" stroke-linecap="round" stroke-linejoin="round"/>
<path d="M162.535 77.8386C163.415 77.8386 164.128 77.1256 164.128 76.2461C164.128 75.3666 163.415 74.6536 162.535 74.6536C161.656 74.6536 160.943 75.3666 160.943 76.2461C160.943 77.1256 161.656 77.8386 162.535 77.8386Z" fill="white"/>
<path d="M219.776 74.4107C220.655 74.4107 221.368 73.6977 221.368 72.8182C221.368 71.9386 220.655 71.2256 219.776 71.2256C218.896 71.2256 218.183 71.9386 218.183 72.8182C218.183 73.6977 218.896 74.4107 219.776 74.4107Z" fill="white"/>
<path d="M200.908 89.8681C199.163 91.1637 193.486 90.5427 193.486 89.706" stroke="#27397C" stroke-width="1.35" stroke-miterlimit="7.15" stroke-linecap="round"/>
</svg>
