<svg width="366" height="262" viewBox="0 0 366 262" fill="none" xmlns="http://www.w3.org/2000/svg">
<mask id="mask0_1635_107327" style="mask-type:alpha" maskUnits="userSpaceOnUse" x="0" y="7" width="208" height="225">
<path d="M101.295 230.328C66.5741 235.66 31.4345 219.801 16.7727 197.858C2.11101 175.914 0.187497 142.364 4.81959 131.857C9.45167 121.35 -7.611 82.9452 4.3225 49.1075C10.937 30.3371 41.9874 7.00001 98.3117 7.00001C154.636 7 179.962 29.3426 195.795 46.4316C207.081 58.6334 198.942 127.742 205 130.319C213.872 134.088 201.238 179.859 190.822 194.985C174.859 218.165 136.029 224.989 101.308 230.315" fill="#BBE5FA"/>
</mask>
<g mask="url(#mask0_1635_107327)">
<path d="M101.295 230.328C66.5741 235.66 31.4345 219.801 16.7727 197.858C2.11101 175.914 0.187497 142.364 4.81959 131.857C9.45167 121.35 -7.611 82.9452 4.3225 49.1075C10.937 30.3371 41.9874 7.00001 98.3117 7.00001C154.636 7 179.962 29.3426 195.795 46.4316C207.081 58.6334 198.942 127.742 205 130.319C213.872 134.088 201.238 179.859 190.822 194.985C174.859 218.165 136.029 224.989 101.308 230.315" fill="#BBE5FA"/>
<path d="M54.7563 40.3829C56.4968 37.0812 59.1088 34.3196 62.3085 32.3979C65.5082 30.4763 69.1732 29.4679 72.9056 29.4828C76.638 29.4976 80.295 30.535 83.4793 32.4821C86.6636 34.4291 89.2535 37.2114 90.9677 40.5268C92.6819 43.8423 93.4548 47.5642 93.2026 51.288C92.9504 55.0119 91.6826 58.5954 89.5369 61.6494C87.3912 64.7034 84.4497 67.1111 81.032 68.6109C77.6142 70.1107 73.8507 70.6453 70.1504 70.1566" stroke="white" stroke-width="2" stroke-linecap="round" stroke-linejoin="round"/>
<path d="M72.6322 63.969C73.0207 61.7882 72.801 59.5426 71.9971 57.4785C71.1932 55.4144 69.8363 53.6116 68.0752 52.268C66.3141 50.9245 64.217 50.0921 62.0139 49.8622C59.8108 49.6322 57.5869 50.0136 55.5863 50.9645C55.4836 51.0175 55.3711 51.0485 55.2558 51.056C55.1404 51.0634 55.0248 51.047 54.9162 51.0077C54.8075 50.9683 54.7082 50.9069 54.6244 50.8273C54.5406 50.7477 54.4741 50.6517 54.4292 50.5452C54.349 50.3845 54.3226 50.2022 54.3538 50.0253C54.5143 49.1767 54.5958 48.3149 54.5969 47.4512C54.617 43.6599 53.2 40.0019 50.631 37.2136" stroke="white" stroke-width="2" stroke-linecap="round" stroke-linejoin="round"/>
<path d="M48.141 83.2367H48.5938C58.3702 83.2367 97.3837 83.438 97.3837 83.438C98.9146 83.4155 100.445 83.4743 101.97 83.614C101.861 65.4278 101.132 30.942 101.132 30.942C101.132 30.1261 100.971 29.3182 100.659 28.5644C100.346 27.8106 99.8887 27.1256 99.3118 26.5487C98.7349 25.9717 98.05 25.5142 97.2962 25.2019C96.5424 24.8897 95.7345 24.7291 94.9186 24.7291L48.0655 25.5256C48.0655 25.9867 48.0655 26.4562 48.0655 26.9509C48.1074 26.9509 48.1326 65.4782 48.141 83.2367Z" stroke="white" stroke-width="2" stroke-linecap="round" stroke-linejoin="round"/>
<path d="M48.1408 89.0136V89.936C48.1408 101.037 47.9396 145.324 47.9396 145.324C47.9396 146.121 47.9396 146.867 47.9396 147.546H91.1286C92.7772 147.546 94.3584 146.892 95.5249 145.727C96.6914 144.562 97.3478 142.982 97.35 141.333C97.35 141.333 101.886 105.28 102.012 88.72C100.482 88.8643 98.9451 88.9232 97.4086 88.8963L48.1408 89.0136Z" stroke="white" stroke-width="2" stroke-linecap="round" stroke-linejoin="round"/>
<path d="M47.9814 73.9381H60.8015C63.6291 73.9261 66.3626 72.9214 68.5249 71.0993C70.6872 69.2772 72.1409 66.7536 72.6322 63.9689" stroke="white" stroke-width="2" stroke-linecap="round" stroke-linejoin="round"/>
<path d="M42.1292 32.6272C41.2847 32.3856 40.408 32.2754 39.53 32.3003C35.6956 32.2917 32.0018 33.7428 29.1987 36.3591C26.3956 38.9753 24.6933 42.5604 24.4377 46.3862C24.4384 46.5045 24.4141 46.6216 24.3663 46.7299C24.3185 46.8381 24.2484 46.935 24.1605 47.0142C24.0725 47.0934 23.9689 47.1532 23.8563 47.1894C23.7436 47.2257 23.6245 47.2377 23.5069 47.2247C23.3612 47.2134 23.2204 47.1675 23.0961 47.0906C21.4921 46.0596 19.6399 45.4799 17.7343 45.4128C15.8288 45.3457 13.9402 45.7936 12.2677 46.7092C10.5951 47.6249 9.20045 48.9745 8.23025 50.6159C7.26004 52.2574 6.75022 54.1301 6.75455 56.0369V56.4143C6.76383 56.5299 6.74901 56.6462 6.71105 56.7558C6.67309 56.8654 6.61289 56.9658 6.53409 57.051C6.45528 57.1361 6.3596 57.2039 6.25324 57.2501C6.14688 57.2964 6.03208 57.3201 5.91609 57.3197C5.81656 57.3233 5.7172 57.3091 5.62265 57.2778C4.80636 57.0342 3.95913 56.91 3.10727 56.9089C0.890922 56.9784 -1.21136 57.9077 -2.75457 59.5C-4.29777 61.0924 -5.16074 63.2228 -5.16074 65.4402C-5.16074 67.6577 -4.29777 69.7881 -2.75457 71.3805C-1.21136 72.9728 0.890922 73.9021 3.10727 73.9716H42.146" stroke="white" stroke-width="2" stroke-linecap="round" stroke-linejoin="round"/>
<path d="M100.444 158.203H-11.4399C-13.0885 158.201 -14.6687 157.545 -15.8336 156.378C-16.9986 155.212 -17.6529 153.63 -17.6529 151.982L-20.7552 75.6822L-17.6529 21.9285C-17.6529 20.2799 -16.9986 18.6988 -15.8336 17.5323C-14.6687 16.3658 -13.0885 15.7094 -11.4399 15.7072L104.267 14.0303C105.084 14.0303 105.893 14.1911 106.648 14.5037C107.403 14.8164 108.089 15.2746 108.667 15.8523C109.244 16.43 109.703 17.1159 110.015 17.8707C110.328 18.6255 110.489 19.4346 110.489 20.2516C110.489 20.2516 111.227 77.9795 111.227 90.3216C111.227 102.664 106.649 151.94 106.649 151.94C106.654 152.759 106.498 153.571 106.189 154.33C105.88 155.088 105.424 155.778 104.847 156.36C104.271 156.942 103.585 157.404 102.829 157.721C102.074 158.037 101.263 158.201 100.444 158.203V158.203Z" stroke="white" stroke-width="2" stroke-linecap="round" stroke-linejoin="round"/>
<path d="M42.3555 83.2452V76.7555L42.4896 28.4434C42.4896 27.4121 42.4896 26.4562 42.4896 25.6261L-2.20863 26.3892C-3.85864 26.3892 -5.44104 27.0448 -6.60778 28.2115C-7.77451 29.3782 -8.43003 30.9605 -8.43003 32.6105C-10.3634 47.4142 -11.3993 62.3213 -11.5323 77.2501C-11.5323 79.1785 -11.5323 81.258 -11.4652 83.438C-9.9543 83.3044 -8.43745 83.2483 -6.92076 83.2701L42.3555 83.2452Z" stroke="white" stroke-width="2" stroke-linecap="round" stroke-linejoin="round"/>
<path d="M-11.4063 85.1566C-10.8697 108.206 -8.4047 141.333 -8.4047 141.333C-8.40247 142.982 -7.74607 144.562 -6.57957 145.727C-5.41308 146.892 -3.83185 147.546 -2.18329 147.546H42.5233C42.5233 146.867 42.5233 146.121 42.5233 145.324L42.4059 89.0219H37.0229L-5.53713 88.8795" stroke="white" stroke-width="2" stroke-linecap="round" stroke-linejoin="round"/>
<path d="M101.97 83.614C100.445 83.4742 98.9144 83.4155 97.3836 83.4379C97.3836 83.4379 58.3701 83.2367 48.5936 83.2367H48.1408C48.1408 65.4781 48.1408 26.9509 48.1408 26.9509C48.1408 26.4562 48.1408 25.9867 48.1408 25.5255L42.5568 25.626C42.5568 26.4645 42.5568 27.412 42.5568 28.4433L42.4226 76.7554V83.2451H-6.82847C-8.34516 83.2232 -9.862 83.2792 -11.373 83.4127C-11.373 83.9829 -11.373 84.553 -11.373 85.0897L-11.2136 88.6363C-11.2136 88.7872 -8.26221 88.8292 -5.54561 88.8292L37.0146 88.9716H42.3974L42.5148 145.274C42.5148 146.071 42.5148 146.817 42.5148 147.496H47.9312C47.9312 146.817 47.9312 146.071 47.9312 145.274C47.9312 145.274 48.1324 100.987 48.1324 89.8856V88.9632L97.3752 88.8459C98.9117 88.8729 100.448 88.8141 101.978 88.6699V88.0075C101.987 86.7163 101.987 85.2322 101.97 83.614Z" stroke="white" stroke-width="2" stroke-linecap="round" stroke-linejoin="round"/>
</g>
<path d="M285.634 196.524C285.145 196.432 284.638 196.513 284.202 196.754C283.766 196.994 283.427 197.38 283.244 197.843C283.135 198.336 283.224 198.852 283.494 199.279C283.763 199.706 284.19 200.008 284.682 200.121C284.783 200.156 284.887 200.179 284.993 200.19C285.195 200.213 285.399 200.197 285.594 200.141C285.789 200.085 285.971 199.992 286.13 199.866C286.289 199.74 286.422 199.584 286.52 199.407C286.619 199.23 286.682 199.035 286.705 198.833C286.904 197.893 286.512 196.773 285.634 196.524Z" stroke="#F4F4EF" stroke-width="1.14" stroke-miterlimit="7.15"/>
<path d="M122.883 130.693C133.125 111.702 153.564 110.611 163.791 113.224C165.353 123.033 187.703 130.582 196.539 124.09C219.317 124.09 228.618 145.43 219.678 190.593C210.738 235.755 236.574 240.718 205.479 254.118C174.385 267.518 144.1 249.456 129.226 240.718C114.352 231.98 104.753 164.317 122.883 130.693Z" fill="#323264"/>
<path d="M202.18 125.796C224.914 127.212 232.87 149.089 221.14 193.608C209.41 238.128 234.887 244.687 203.02 256.128C171.152 267.569 142.049 247.66 127.747 238.014" stroke="#E52600" stroke-width="2"/>
<path d="M264.903 161.443C258.259 180.11 236.669 197.011 221.884 195.829C211.06 194.961 212.953 176.732 205.937 161.231C201.106 150.559 193.242 153.937 179.852 158.095C166.463 162.252 162.312 173.8 171.009 194.013C179.706 214.226 207.632 233.827 232.518 228.75C266.313 221.864 281.171 183.713 285.922 167.14" stroke="#007FAA" stroke-width="2.04" stroke-linecap="round" stroke-linejoin="round"/>
<path d="M264.983 160.191C266.756 168.071 281.522 168.563 285.928 167.037C290.333 165.51 295.353 145.363 292.346 145.026C289.339 144.688 289.234 155.077 285.404 157.653C288.254 148.004 285.711 138.657 282.98 139.479C280.25 140.301 283.728 147.396 279.988 156.427C281.484 144.527 277.288 139.552 275.859 139.809C273.615 140.271 277.669 152.282 274.43 155.18C273.331 144.651 273.817 142.076 271.558 142.172C269.299 142.267 270.653 155.76 269.553 157.359C268.454 158.958 264.961 160.213 264.961 160.213" fill="#F2986D"/>
<path d="M210.99 171.644C198.156 189.348 180.466 204.724 168.346 199.211C157.427 194.239 165.502 179.954 162.85 161.401C161.023 148.639 153.927 139.135 138.426 139.435C122.924 139.736 111.548 161.152 114.51 185.197C117.472 209.241 128.038 245.968 156.035 248.245C194.067 251.335 223.965 214.345 230.374 197.424" stroke="#007FAA" stroke-width="2.04" stroke-linecap="round" stroke-linejoin="round"/>
<path d="M257.178 166.638L236.894 164.106C236.135 163.949 235.47 163.501 235.045 162.859C234.62 162.218 234.47 161.436 234.628 160.686L243.752 119.287C244.057 117.695 245.238 115.757 248.381 116.557L265.997 120.44C267.557 120.733 268.345 123.471 268.04 125.063L260.551 164.267C260.422 165.024 259.994 165.698 259.361 166.143C258.729 166.587 257.943 166.765 257.178 166.638Z" fill="#007FAA"/>
<path d="M252.365 123.688C252.357 124.011 252.289 124.329 252.166 124.617C252.042 124.905 251.867 125.157 251.652 125.354C251.437 125.551 251.188 125.688 250.924 125.755C250.659 125.823 250.385 125.819 250.121 125.745C249.537 125.644 249.009 125.273 248.651 124.712C248.293 124.15 248.135 123.443 248.21 122.743C248.371 122.064 248.728 121.474 249.218 121.078C249.708 120.683 250.298 120.506 250.886 120.58C251.918 120.816 252.499 122.339 252.365 123.688Z" stroke="#F9F9F5" stroke-width="1.2" stroke-miterlimit="10"/>
<path d="M245.77 118.467C245.77 118.467 236.939 158.951 236.72 159.888C236.502 160.826 236.879 162.027 238.312 162.085C239.744 162.144 258.672 164.582 258.672 164.582" stroke="#352F5F" stroke-width="1.39" stroke-linecap="round" stroke-linejoin="round"/>
<path d="M216.764 173.659L226.481 188.687C236.367 185.904 240.503 178.246 243.242 174.218C246.53 169.388 256.533 164.16 256.123 162.009C255.713 159.859 244.641 166.059 244.641 166.059C247.343 162.576 258.473 154.705 257.572 153.019C256.672 151.332 242.686 160.912 242.239 159.948C241.792 158.983 257.477 148.262 256.613 145.618C255.749 142.975 239.083 154.594 239.083 154.594C243.242 145.081 249.847 144.933 249.539 143.689C248.405 141.48 242.949 142.607 238.717 146.561C235.4 149.639 222.263 171.678 216.75 173.659" fill="#F2986D"/>
<path d="M167.078 111.647C168.451 118.063 179.028 126.328 193.681 122.908L194.785 114.231C200.103 118.533 208.195 117.674 212.031 116.382C215.867 115.09 224.49 109.394 221.293 84.0032C218.097 58.6125 211.072 52.4392 211.072 52.4392L172.425 59.2219L171.037 81.0597C167.63 76.4352 160.373 72.7576 158.31 80.5385C156.98 85.53 160.925 90.8151 169.868 89.347C168.8 93.6559 167.078 111.618 167.078 111.618" fill="#F2986D"/>
<path d="M187.404 72.3524C190.384 69.9243 197.267 67.8559 202.077 70.314" stroke="#352F5F" stroke-width="1.75" stroke-miterlimit="10" stroke-linecap="round"/>
<path d="M218.846 68.9718C217.268 68.2816 215.538 68.0248 213.831 68.2275C212.124 68.4301 210.5 69.085 209.123 70.126C213.924 78.0122 217.762 87.3322 216.912 89.3754C216.063 91.4187 207.317 88.8736 207.317 88.8736" stroke="#352F5F" stroke-width="1.75" stroke-miterlimit="10" stroke-linecap="round"/>
<path d="M217.798 76.0784C217.789 76.378 217.725 76.668 217.611 76.9143C217.498 77.1605 217.34 77.3531 217.156 77.4693C216.973 77.5855 216.771 77.6206 216.575 77.5706C216.379 77.5205 216.196 77.3874 216.048 77.1866C215.9 76.9859 215.793 76.726 215.74 76.4371C215.686 76.1482 215.689 75.8423 215.746 75.5553C215.804 75.2682 215.915 75.0118 216.066 74.8161C216.216 74.6203 216.401 74.4932 216.598 74.4496C216.899 74.4337 217.192 74.5948 217.416 74.8987C217.64 75.2025 217.777 75.6255 217.798 76.0784Z" fill="#352F5F"/>
<path d="M199.981 78.1737C199.972 78.4737 199.908 78.764 199.794 79.0105C199.68 79.2571 199.522 79.4497 199.338 79.5658C199.155 79.6819 198.953 79.7168 198.756 79.6663C198.56 79.6157 198.377 79.4819 198.229 79.2805C198.082 79.079 197.975 78.8183 197.922 78.5289C197.869 78.2395 197.872 77.9333 197.93 77.6463C197.989 77.3593 198.1 77.1033 198.252 76.9084C198.404 76.7134 198.589 76.5875 198.786 76.5454C199.086 76.5317 199.378 76.6937 199.601 76.9972C199.824 77.3008 199.96 77.7224 199.981 78.1737Z" fill="#352F5F"/>
<path d="M172.267 83.8592L175.574 82.9949L175.323 64.2215C184.041 65.9502 195.373 63.1082 198.606 60.5153C201.839 57.9223 214.543 63.8479 220.641 54.5821C226.738 45.3164 227.366 33.0914 217.902 28.6453C208.439 24.1992 198.355 32.1026 195.247 31.8535C192.139 31.6045 185.651 29.5096 180.306 34.2048C174.962 38.8999 174.703 46.8033 171.344 47.6676C167.986 48.532 159.327 51.6596 158.64 57.0579C157.902 62.7859 157.407 70.8285 160.116 74.8424C161.799 77.3182 165.616 76.5417 168.392 78.5854C170.04 80.0525 171.346 81.8601 172.216 83.8811" fill="#2F408F"/>
<path d="M174.393 83.8811L173.128 59.0372C181.856 60.7667 193.21 57.9233 196.457 55.329C199.704 52.7347 212.419 59.6747 218.536 50.4041C224.653 41.1335 225.266 28.9021 215.791 24.4537C206.316 20.0052 196.205 27.9128 193.084 27.6636C189.962 27.4144 183.468 25.3184 178.113 30.0087C172.758 34.699 172.507 42.6212 169.134 43.486C165.761 44.3507 157.817 47.6192 156.411 52.8812C154.851 58.744 154.355 67.1719 155.672 73.3059" stroke="#DE2814" stroke-width="2.04" stroke-miterlimit="10" stroke-linecap="round"/>
<path d="M202.892 102.502C205.408 102.502 210.991 101.701 212.69 99.8539" stroke="#323264" stroke-width="2" stroke-miterlimit="7.15" stroke-linecap="round"/>
<path d="M289.548 134.431C311.788 120.112 313.759 100.134 310.868 92.3889C306.782 81.4204 297.306 85.0912 301.077 91.8852C307.153 102.816 360.34 95.77 363.74 58.6143C367.14 21.4586 347.533 11.8502 335.809 6.39737C321.724 -0.163593 286.992 -1.61808 269.261 18.0522C252.437 36.7214 250.56 75.1302 291.123 87.0306" stroke="#DD1D14" stroke-width="3" stroke-miterlimit="10" stroke-linecap="round"/>
<path fill-rule="evenodd" clip-rule="evenodd" d="M317.191 23.9788C328.181 28.5573 333.407 40.8801 329.071 51.72L328.848 52.2576C327.997 54.3088 328.249 55.6072 329.233 56.5908L332.405 59.7425L335.797 63.0747L338.179 65.3964C339.794 66.9653 339.877 69.4794 338.419 71.1454L338.195 71.3827C336.582 72.9661 334.012 73.0417 332.307 71.6045L332.08 71.3992L323.688 63.2524C323.111 62.692 323.106 61.7784 323.677 61.2118C324.2 60.6924 325.026 60.6449 325.605 61.0723L325.756 61.2006L334.148 69.3474C334.648 69.833 335.429 69.8715 335.973 69.4642L336.116 69.342C336.65 68.8126 336.645 67.9666 336.111 67.4475L332.563 63.9844L330.319 61.7757L327.135 58.6127C325.411 56.8888 324.883 54.5189 325.953 51.6091L326.133 51.1492C330.244 41.6449 325.726 30.6696 316.042 26.6353C306.359 22.6009 295.177 27.0352 291.066 36.5395C286.956 46.0439 291.474 57.0191 301.157 61.0534C301.905 61.3648 302.253 62.2119 301.936 62.9455C301.619 63.6791 300.756 64.0213 300.008 63.7099C288.83 59.0528 283.615 46.3834 288.36 35.4119C293.105 24.4405 306.013 19.3217 317.191 23.9788ZM308.489 28.038C317.382 28.038 324.591 35.2472 324.591 44.1403C324.591 53.0334 317.382 60.2426 308.489 60.2426C299.596 60.2426 292.386 53.0334 292.386 44.1403C292.386 35.2472 299.596 28.038 308.489 28.038ZM308.489 30.5152C300.964 30.5152 294.864 36.6154 294.864 44.1403C294.864 51.6652 300.964 57.7653 308.489 57.7653C316.014 57.7653 322.114 51.6652 322.114 44.1403C322.114 36.6154 316.014 30.5152 308.489 30.5152Z" fill="#E52600"/>
<path fill-rule="evenodd" clip-rule="evenodd" d="M303.718 39.2607C304.215 38.7757 304.993 38.7556 305.512 39.1946L305.606 39.2822L308.479 42.221L311.296 39.4709C311.823 38.9557 312.669 38.9657 313.184 39.4932C313.669 39.9898 313.688 40.7677 313.249 41.287L313.162 41.3812L310.345 44.1311L313.218 47.069C313.734 47.5963 313.724 48.4416 313.197 48.9571C312.701 49.4421 311.923 49.4621 311.403 49.0232L311.309 48.9356L308.435 45.9965L305.619 48.747C305.091 49.2621 304.246 49.2521 303.731 48.7247C303.246 48.2281 303.226 47.4501 303.666 46.9308L303.753 46.8366L306.569 44.0864L303.697 41.1487C303.182 40.6215 303.191 39.7762 303.718 39.2607Z" fill="#E52600"/>
</svg>
