<svg width="389" height="251" viewBox="0 0 389 251" fill="none" xmlns="http://www.w3.org/2000/svg">
<path d="M102.693 214.96C136.109 220.092 169.927 204.829 184.038 183.71C198.148 162.592 199.999 130.303 195.541 120.191C191.083 110.079 207.505 73.1184 196.02 40.5529C189.654 22.4882 159.771 0.0284424 105.564 0.0284424C51.3575 0.0284424 26.9837 21.531 11.7462 37.9775C0.884688 49.7205 8.71755 116.231 2.88697 118.711C-5.6511 122.338 6.50748 166.389 16.5315 180.946C31.895 203.255 69.2648 209.822 102.68 214.947" fill="#BBE5FA"/>
<path d="M172.616 131.619C226.596 126.444 220.066 167.547 209.897 196.694C199.729 225.84 222.535 239.567 222.535 239.567L125.757 241.153C111.521 203.872 123.138 136.367 172.616 131.594" fill="#2F408F"/>
<path d="M97.8508 237.369C79.1375 230.859 78.0042 187.18 114.555 154.079C147.448 124.284 197.953 114.027 224.323 144.3C245.806 170.185 219.714 227.729 232.665 240.31" stroke="#352F5F" stroke-width="1.75" stroke-miterlimit="10" stroke-linecap="round"/>
<path d="M107.006 207.291C121.721 203.425 161.887 207.643 176.664 214.33" stroke="#352F5F" stroke-width="1.75" stroke-miterlimit="10" stroke-linecap="round"/>
<path d="M181.639 106.817C163.089 105.558 145.541 95.7858 145.541 75.4795C145.541 60.9094 151.837 53.9517 157.114 50.539C158.757 49.4824 160.507 48.6004 162.334 47.9071C166.848 46.1504 213.726 41.8876 217.491 52.9443C221.256 64.001 219.745 67.4828 219.745 67.4828L181.639 106.817Z" fill="#A91917"/>
<path d="M175.437 235.537C134.427 241.399 110.545 241.374 99.0158 237.797C76.0021 230.663 81.31 182.212 115.62 153.078" stroke="#352F5F" stroke-width="1.75" stroke-miterlimit="10" stroke-linecap="round"/>
<path d="M169.751 92.8579C171.52 99.9855 172.798 104.765 176.784 108.637C176.381 118.623 171.01 129.541 167.024 136.077C166.655 136.677 166.46 137.368 166.46 138.073C166.46 138.778 166.655 139.469 167.024 140.069C170.802 146.202 183.565 150.307 191.102 144.697C191.526 144.379 191.874 143.972 192.121 143.504C192.368 143.036 192.508 142.518 192.532 141.99C193.042 132.003 192.311 118.888 192.311 118.888C202.298 127.766 215.753 124.303 218.341 105.81C220.929 87.317 219.821 59.9271 219.821 59.9271L171.338 59.1904L170.255 83.6146C161.005 76.2162 159.551 82.1349 159.551 84.3576C159.551 86.5802 160.526 92.8642 169.776 92.8642" fill="#BD5118"/>
<path d="M226.929 67.3948C220.123 71.2609 209.085 67.0359 207.41 63.1006C205.798 65.1595 192.809 69.8946 188.313 59.4487C181.387 67.6342 169.625 61.6398 171.117 56.0863C171.617 53.8995 172.591 51.8489 173.969 50.0794C166.124 51.9117 158.921 53.8006 158.921 53.8006C143.69 56.8796 138.633 40.0553 148.217 31.278C141.41 24.2762 148.078 10.6192 160.445 12.0674C167.471 -5.60057 185.631 3.14516 183.603 14.4537C195.384 6.92936 204.35 14.9134 197.814 28.3375C202.852 29.3891 205.206 33.7651 204.81 37.9586C218.662 29.9621 230.374 40.6031 224.423 50.199C231.268 49.5694 236.79 61.7846 226.942 67.3948" fill="#A91917"/>
<path d="M206.447 87.2351C206.447 93.0153 201.284 96.6484 195.516 97.0765C189.069 97.5488 184.617 91.6049 184.617 85.8184C184.617 80.0319 187.872 76.3295 195.516 76.1406C203.513 75.9391 206.447 81.4549 206.447 87.2351Z" stroke="#B8E1F6" stroke-width="1.75" stroke-miterlimit="10"/>
<path d="M185.781 73.704C189.748 70.1905 197.411 70.1906 201.195 72.9862" stroke="#352F5F" stroke-width="2.1" stroke-miterlimit="10" stroke-linecap="round"/>
<path d="M223.907 73.8865C221.294 72.1738 214.62 72.3564 211.83 74.7868C212.101 81.543 215.885 100.017 214.173 100.558C212.46 101.1 208.046 99.8407 205.609 98.487" stroke="#352F5F" stroke-width="2.1" stroke-miterlimit="10" stroke-linecap="round"/>
<path d="M228.932 86.2277C228.967 88.3336 228.188 90.372 226.759 91.9188C225.329 93.4656 223.358 94.4019 221.256 94.5329C216.729 94.9359 213.606 89.9112 213.606 85.0314C213.606 80.1516 215.892 77.0222 221.256 76.8459C226.866 76.6885 228.932 81.3416 228.932 86.2277Z" stroke="#B8E1F6" stroke-width="1.75" stroke-miterlimit="10"/>
<path d="M206.498 85.9506C207.757 82.9598 212.253 82.6072 213.424 84.8928" stroke="#B8E1F6" stroke-width="1.75" stroke-miterlimit="10"/>
<path d="M184.793 81.7257L168.573 81.5431" stroke="#B8E1F6" stroke-width="1.75" stroke-miterlimit="10" stroke-linecap="round"/>
<path d="M200.177 109.727C200.155 110.775 205.896 110.933 209.818 108.452" stroke="#352F5F" stroke-width="2.1" stroke-miterlimit="10" stroke-linecap="round"/>
<path d="M200.963 86.7629C200.963 88.0222 200.276 89.0234 199.433 89.0234C198.589 89.0234 197.903 88.0222 197.903 86.7629C197.903 85.5036 198.583 84.5024 199.426 84.5024C200.27 84.5024 200.956 85.5099 200.956 86.7629" fill="#352F5F"/>
<path d="M219.606 86.7629C219.606 88.0222 218.92 89.0234 218.083 89.0234C217.245 89.0234 216.553 88.0096 216.553 86.7629C216.553 85.5162 217.239 84.4961 218.083 84.4961C218.926 84.4961 219.606 85.5099 219.606 86.7629Z" fill="#352F5F"/>
<path d="M160.621 138.602L168.422 166.88L183.509 150.717L202.637 162.302L196.442 136.971" stroke="#F9F9F5" stroke-width="1.75" stroke-linecap="round" stroke-linejoin="round"/>
<path d="M186.72 163.517C186.744 163.74 186.721 163.965 186.651 164.178C186.581 164.391 186.467 164.586 186.315 164.752C186.164 164.917 185.979 165.048 185.773 165.136C185.567 165.223 185.345 165.266 185.121 165.261C184.882 165.271 184.643 165.233 184.419 165.15C184.194 165.067 183.989 164.94 183.813 164.778C183.638 164.615 183.496 164.42 183.396 164.202C183.297 163.985 183.241 163.75 183.232 163.511C183.206 163.025 183.372 162.549 183.695 162.184C184.018 161.82 184.471 161.598 184.957 161.565C185.446 161.599 185.902 161.822 186.23 162.186C186.558 162.55 186.731 163.028 186.714 163.517" fill="#F9F9F5"/>
<path d="M185.807 171.848C186.025 171.794 186.251 171.788 186.471 171.828C186.692 171.869 186.901 171.956 187.085 172.083C187.27 172.21 187.425 172.375 187.541 172.567C187.657 172.759 187.732 172.973 187.759 173.195C187.841 173.67 187.732 174.158 187.454 174.553C187.177 174.947 186.754 175.215 186.279 175.298C185.802 175.391 185.307 175.291 184.903 175.021C184.498 174.751 184.217 174.333 184.119 173.856C184.086 173.368 184.243 172.886 184.558 172.511C184.872 172.136 185.32 171.899 185.807 171.848Z" fill="#F9F9F5"/>
<path d="M202.644 233.434L257.039 227.244L243.269 245.284L202.644 233.434Z" fill="#B8E1F6"/>
<path d="M202.662 240.297L202.644 233.434L239.749 235.94L240.87 178.213L324.953 175.468L319.532 243.313L243.269 245.284L202.662 240.297Z" fill="#007FAA"/>
<path d="M246.581 176.23L244.321 247.57" stroke="#352F5F" stroke-width="1.75" stroke-linecap="round" stroke-linejoin="round"/>
<path d="M175.764 218.026L175.229 231.463C183.716 234.819 196.58 229.033 196.58 229.033C200.289 230.581 204.696 235.915 207.404 236.847C210.111 237.778 204.079 230.55 203.38 229.65C202.682 228.749 200.289 226.174 200.289 226.174C202.839 226.804 205.005 228.957 205.855 230.273C206.705 231.589 209.878 236.381 212.737 236.998C214.519 237.539 208.638 226.867 208.638 226.867L204.312 223.158C206.619 223.914 208.713 225.209 210.42 226.936C210.961 227.629 215.369 235.518 217.145 235.121C218.524 234.825 215.753 227.78 213.996 224.531C212.24 221.282 208.581 217.881 208.581 217.881C213.379 216.798 224.203 224.764 226.986 221.823C225.053 217.34 209.28 212.378 207.039 212.466C204.797 212.555 180.253 215.741 175.783 218.007" fill="#BD5118"/>
<path d="M362.412 227.301C366.146 208.342 363.218 188.263 359.264 181.167C355.309 174.07 345.613 171.841 345.178 174.732C344.744 177.622 351.166 180.701 363.388 184C366.46 184.831 372.537 185.259 372.48 181.557C372.411 177.042 341.967 182.634 344.026 190.271C345.285 194.918 371.605 173.806 365.623 169.915C361.304 167.113 351.261 195.057 354.604 196.719C358.3 198.551 358.823 186.248 358.823 186.248" stroke="#2F408F" stroke-width="2.63" stroke-linecap="round" stroke-linejoin="round"/>
<path d="M374.394 229.228C371.523 214.639 373.764 199.187 376.818 193.728C379.872 188.269 384.475 186.342 385.551 188.773C386.464 190.832 383.719 192.733 374.564 196.064C372.587 196.782 366.605 198.583 366.649 195.711C366.706 192.242 387.176 193.583 385.589 199.458C384.626 203.041 369.659 189.938 373.292 187.18C375.962 185.158 382.541 204.653 379.689 205.043C375.596 205.597 375.968 195.97 375.968 195.97" stroke="#2F408F" stroke-width="2.1" stroke-linejoin="round"/>
<path d="M353.754 212.284L379.733 211.761L386.017 246.317L346.425 246.518L353.754 212.284Z" fill="#D0EAFA"/>
<path d="M357.758 214.916L380.785 214.582L387.604 249.698L350.429 250L357.758 214.916Z" stroke="#2F408F" stroke-width="1.75" stroke-linejoin="round"/>
<path d="M279.436 155.779C301.675 141.461 303.646 121.482 300.756 113.737C296.67 102.769 287.193 106.439 290.965 113.233C297.041 124.164 350.228 117.118 353.628 79.9626C357.028 42.8069 337.421 33.1984 325.697 27.7456C311.611 21.1847 276.88 19.7302 259.149 39.4005C242.324 58.0697 240.448 96.4784 281.01 108.379" stroke="#DD1D14" stroke-width="3" stroke-miterlimit="10" stroke-linecap="round"/>
<path fill-rule="evenodd" clip-rule="evenodd" d="M303.148 35.2448C303.171 35.4319 303.157 35.6216 303.105 35.803C303.054 35.9843 302.968 36.1539 302.85 36.3015C302.733 36.4491 302.588 36.5719 302.423 36.6629C302.258 36.7539 302.077 36.8112 301.889 36.8315C298.697 37.2093 296.48 39.8665 295.133 43.8459C293.906 47.8175 293.478 51.9926 293.874 56.1304C293.909 56.5043 293.798 56.8773 293.562 57.1701C293.327 57.4629 292.987 57.6524 292.614 57.6982C292.236 57.7333 291.86 57.6172 291.567 57.3753C291.274 57.1334 291.09 56.7854 291.053 56.4074C290.625 51.8639 291.109 47.2805 292.476 42.9265C293.949 38.5882 296.745 34.5585 301.612 33.9855C301.981 33.9552 302.348 34.0697 302.635 34.3046C302.921 34.5396 303.106 34.8767 303.148 35.2448Z" fill="#E52600"/>
<path fill-rule="evenodd" clip-rule="evenodd" d="M309.842 39.4573C308.136 37.4235 305.573 36.4034 301.896 36.8315C301.708 36.8543 301.518 36.8399 301.336 36.7888C301.155 36.7377 300.985 36.651 300.837 36.5339C300.689 36.4168 300.565 36.2717 300.473 36.1066C300.382 35.9415 300.324 35.7599 300.303 35.5722C300.281 35.3853 300.296 35.1959 300.347 35.0148C300.399 34.8338 300.486 34.6647 300.603 34.5172C300.72 34.3698 300.865 34.2469 301.029 34.1557C301.194 34.0644 301.375 34.0066 301.562 33.9855C305.97 33.4629 309.59 34.697 312.033 37.6123C314.476 40.5276 315.515 44.6518 315.572 49.7142C315.575 50.0939 315.428 50.4595 315.162 50.7309C314.897 51.0023 314.535 51.1574 314.155 51.1624C313.776 51.1641 313.411 51.0164 313.14 50.7512C312.869 50.486 312.713 50.1248 312.707 49.7457C312.656 45.0044 311.611 41.5729 309.842 39.4573Z" fill="#E52600"/>
<path fill-rule="evenodd" clip-rule="evenodd" d="M327.422 57.0245C328.65 67.5271 328.417 79.0938 327.422 91.1705C327.421 91.5306 327.285 91.8773 327.04 92.1411C326.794 92.4049 326.459 92.5665 326.1 92.5935C310.896 93.7884 295.632 94.0114 280.4 93.261C279.936 93.2206 279.49 93.0652 279.102 92.809C278.714 92.5529 278.396 92.2039 278.177 91.7938C277.804 91.1751 277.588 90.4748 277.547 89.7538C276.656 79.2828 276.528 68.7608 277.163 58.2712C277.179 57.5832 277.46 56.9279 277.946 56.4413C278.433 55.9547 279.088 55.6742 279.776 55.6582L285.009 55.4252C285.197 55.4159 285.384 55.4439 285.561 55.5077C285.738 55.5715 285.901 55.6698 286.04 55.7969C286.179 55.924 286.291 56.0773 286.37 56.2481C286.449 56.4188 286.494 56.6034 286.501 56.7915C286.51 56.9794 286.482 57.1674 286.418 57.3444C286.354 57.5214 286.256 57.684 286.129 57.8228C286.002 57.9616 285.849 58.0739 285.678 58.153C285.507 58.2321 285.322 58.2766 285.134 58.2838L280.015 58.5167C279.392 68.8702 279.522 79.2555 280.406 89.5901C280.409 89.6193 280.409 89.6489 280.406 89.6781C280.406 89.6781 280.406 89.6782 280.406 89.7286C280.413 89.7869 280.428 89.8441 280.45 89.8986C280.488 90.0359 280.546 90.1673 280.62 90.289L280.695 90.396C295.345 91.1051 310.025 90.9138 324.651 89.8231C325.552 78.269 325.722 67.3131 324.57 57.4024L292.426 57.692C292.046 57.6937 291.681 57.5448 291.411 57.2782C291.141 57.0115 290.987 56.6486 290.984 56.269C290.982 56.0813 291.018 55.895 291.088 55.7209C291.158 55.5469 291.262 55.3884 291.394 55.2545C291.525 55.1207 291.682 55.014 291.855 54.9406C292.027 54.8673 292.213 54.8287 292.401 54.827L324.714 54.5374C325.402 54.5134 326.071 54.7607 326.578 55.2261C327.084 55.6915 327.388 56.3375 327.422 57.0245Z" fill="#E52600"/>
<path fill-rule="evenodd" clip-rule="evenodd" d="M305.214 70.1528C305.197 69.901 305.13 69.6551 305.017 69.4297C304.904 69.2042 304.747 69.0036 304.555 68.8398C304.363 68.6761 304.14 68.5525 303.9 68.4763C303.659 68.4 303.406 68.3728 303.155 68.396C302.904 68.3745 302.652 68.4033 302.412 68.4807C302.173 68.5582 301.951 68.6827 301.761 68.8469C301.57 69.0111 301.414 69.2119 301.302 69.4372C301.19 69.6625 301.124 69.9078 301.108 70.1589C301.117 70.4561 301.203 70.7459 301.357 70.9998C301.512 71.2537 301.73 71.463 301.99 71.6071L302.569 71.9598V78.1367C302.568 78.2138 302.583 78.2903 302.612 78.3618C302.641 78.4332 302.684 78.4981 302.739 78.5527C302.793 78.6072 302.858 78.6502 302.93 78.6793C303.001 78.7085 303.078 78.7231 303.155 78.7222C303.235 78.7274 303.316 78.7161 303.392 78.689C303.467 78.662 303.537 78.6198 303.596 78.565C303.655 78.5102 303.702 78.444 303.734 78.3704C303.767 78.2967 303.784 78.2172 303.785 78.1367V71.9346L304.37 71.5882C304.623 71.4419 304.833 71.2329 304.981 70.9813C305.128 70.7298 305.209 70.4445 305.214 70.1528ZM303.149 66.0096C304.288 65.9688 305.398 66.3823 306.232 67.1593C307.067 67.9363 307.559 69.0131 307.6 70.1528C307.597 70.7407 307.464 71.3206 307.212 71.8516C306.959 72.3826 306.593 72.8516 306.139 73.2254V78.1367C306.139 78.5283 306.061 78.9159 305.91 79.2773C305.759 79.6388 305.538 79.967 305.26 80.243C304.983 80.5191 304.653 80.7377 304.291 80.8862C303.928 81.0347 303.54 81.1103 303.149 81.1086C302.36 81.1086 301.604 80.7955 301.047 80.2381C300.49 79.6808 300.177 78.9249 300.177 78.1367V73.238C299.723 72.8624 299.358 72.3921 299.105 71.8602C298.853 71.3283 298.72 70.7476 298.716 70.1589C298.731 69.5933 298.858 69.0364 299.09 68.5201C299.321 68.0037 299.652 67.5382 300.064 67.1502C300.476 66.7623 300.961 66.4596 301.49 66.2596C302.019 66.0595 302.583 65.9659 303.149 65.9844V66.0096Z" fill="#E52600"/>
<mask id="mask0_1614_102088" style="mask-type:alpha" maskUnits="userSpaceOnUse" x="0" y="0" width="201" height="216">
<path d="M102.815 214.932C136.231 220.063 170.049 204.8 184.16 183.682C198.27 162.563 200.122 130.275 195.664 120.163C191.206 110.05 207.627 73.09 196.142 40.5244C189.776 22.4597 159.893 0 105.687 0C51.4798 0 27.1061 21.5026 11.8685 37.9491C1.007 49.6921 8.83986 116.202 3.00929 118.683C-5.52878 122.31 6.62979 166.36 16.6538 180.918C32.0173 203.226 69.3871 209.794 102.803 214.919" fill="#BBE5FA"/>
</mask>
<g mask="url(#mask0_1614_102088)">
<path d="M1.27139 50.7375C1.06149 50.7359 0.860653 50.6517 0.712225 50.5032C0.563796 50.3548 0.479674 50.154 0.478027 49.9441L0.83063 49.1003C0.829792 48.9959 0.849741 48.8924 0.889314 48.7958C0.928887 48.6992 0.987301 48.6114 1.06114 48.5376C1.13498 48.4637 1.22276 48.4053 1.31939 48.3657C1.41603 48.3261 1.51958 48.3061 1.624 48.307C1.72789 48.307 1.83075 48.3276 1.92666 48.3675C2.02256 48.4075 2.10961 48.466 2.18278 48.5397C2.25595 48.6135 2.31379 48.701 2.35297 48.7972C2.39215 48.8934 2.41189 48.9965 2.41106 49.1003L2.06476 49.9441C2.06476 50.1545 1.98117 50.3563 1.83239 50.5051C1.6836 50.6539 1.48181 50.7375 1.27139 50.7375Z" fill="white"/>
<path d="M13.3544 50.7375C13.1445 50.7359 12.9437 50.6517 12.7952 50.5032C12.6468 50.3548 12.5627 50.154 12.561 49.9441L12.9136 49.1003C12.9128 48.9965 12.9326 48.8934 12.9717 48.7972C13.0109 48.701 13.0688 48.6135 13.1419 48.5397C13.2151 48.466 13.3022 48.4075 13.3981 48.3675C13.494 48.3276 13.5968 48.307 13.7007 48.307C13.8051 48.3061 13.9087 48.3261 14.0053 48.3657C14.1019 48.4053 14.1897 48.4637 14.2636 48.5376C14.3374 48.6114 14.3958 48.6992 14.4354 48.7958C14.475 48.8924 14.4949 48.9959 14.4941 49.1003L14.1478 49.9441C14.1478 50.1545 14.0642 50.3563 13.9154 50.5051C13.7666 50.6539 13.5648 50.7375 13.3544 50.7375Z" fill="white"/>
<path d="M19.3991 50.7375C19.1898 50.7358 18.9896 50.6515 18.8422 50.5029C18.6948 50.3543 18.6121 50.1535 18.6121 49.9441L18.9584 49.1003C18.9575 48.9959 18.9775 48.8924 19.017 48.7958C19.0566 48.6992 19.115 48.6114 19.1889 48.5376C19.2627 48.4637 19.3505 48.4053 19.4471 48.3657C19.5438 48.3261 19.6473 48.3061 19.7517 48.307C19.9621 48.307 20.1639 48.3906 20.3127 48.5394C20.4615 48.6882 20.5451 48.8899 20.5451 49.1003L20.1925 49.9441C20.1925 50.1545 20.1089 50.3563 19.9601 50.5051C19.8113 50.6539 19.6095 50.7375 19.3991 50.7375Z" fill="white"/>
<path d="M31.4945 50.7375C31.2846 50.7359 31.0838 50.6517 30.9354 50.5032C30.7869 50.3548 30.7028 50.154 30.7012 49.9441L31.0538 49.1003C31.0529 48.9965 31.0727 48.8934 31.1119 48.7972C31.1511 48.701 31.2089 48.6135 31.2821 48.5397C31.3552 48.466 31.4423 48.4075 31.5382 48.3675C31.6341 48.3276 31.737 48.307 31.8408 48.307C31.9453 48.3061 32.0488 48.3261 32.1454 48.3657C32.2421 48.4053 32.3299 48.4637 32.4037 48.5376C32.4775 48.6114 32.536 48.6992 32.5755 48.7958C32.6151 48.8924 32.6351 48.9959 32.6342 49.1003L32.2879 49.9441C32.2879 50.1545 32.2043 50.3563 32.0555 50.5051C31.9067 50.6539 31.705 50.7375 31.4945 50.7375Z" fill="white"/>
<path d="M37.5397 50.7375C37.3293 50.7375 37.1275 50.6539 36.9787 50.5051C36.8299 50.3563 36.7463 50.1545 36.7463 49.9441L37.0926 49.1003C37.0918 48.9959 37.1117 48.8924 37.1513 48.7958C37.1909 48.6992 37.2493 48.6114 37.3231 48.5376C37.397 48.4637 37.4848 48.4053 37.5814 48.3657C37.678 48.3261 37.7816 48.3061 37.886 48.307C38.0964 48.307 38.2982 48.3906 38.447 48.5394C38.5958 48.6882 38.6793 48.8899 38.6793 49.1003L38.3267 49.9441C38.3267 50.1535 38.244 50.3543 38.0966 50.5029C37.9492 50.6515 37.749 50.7358 37.5397 50.7375Z" fill="white"/>
<path d="M49.6288 50.7375C49.4189 50.7359 49.2181 50.6517 49.0696 50.5032C48.9212 50.3548 48.8371 50.154 48.8354 49.9441L49.1881 49.1003C49.1872 48.9959 49.2072 48.8924 49.2467 48.7958C49.2863 48.6992 49.3447 48.6114 49.4186 48.5376C49.4924 48.4637 49.5802 48.4053 49.6768 48.3657C49.7734 48.3261 49.877 48.3061 49.9814 48.307C50.1918 48.307 50.3936 48.3906 50.5424 48.5394C50.6912 48.6882 50.7748 48.8899 50.7748 49.1003L50.4222 49.9441C50.4222 50.1545 50.3386 50.3563 50.1898 50.5051C50.041 50.6539 49.8392 50.7375 49.6288 50.7375Z" fill="white"/>
<path d="M55.6798 50.7375C55.4694 50.7375 55.2676 50.6539 55.1188 50.5051C54.97 50.3563 54.8865 50.1545 54.8865 49.9441L55.2328 49.1003C55.2328 48.8899 55.3163 48.6882 55.4651 48.5394C55.6139 48.3906 55.8157 48.307 56.0261 48.307C56.1306 48.3061 56.2341 48.3261 56.3307 48.3657C56.4273 48.4053 56.5152 48.4637 56.589 48.5376C56.6628 48.6114 56.7212 48.6992 56.7608 48.7958C56.8004 48.8924 56.8203 48.9959 56.8195 49.1003L56.4732 49.9441C56.4715 50.154 56.3874 50.3548 56.239 50.5032C56.0905 50.6517 55.8897 50.7359 55.6798 50.7375Z" fill="white"/>
<path d="M13.3544 62.0271C13.1445 62.0255 12.9437 61.9413 12.7952 61.7928C12.6468 61.6444 12.5627 61.4436 12.561 61.2337L12.9136 60.3899C12.9128 60.2861 12.9326 60.183 12.9717 60.0868C13.0109 59.9906 13.0688 59.9031 13.1419 59.8293C13.2151 59.7556 13.3022 59.6971 13.3981 59.6571C13.494 59.6172 13.5968 59.5966 13.7007 59.5966C13.8051 59.5957 13.9087 59.6157 14.0053 59.6553C14.1019 59.6949 14.1897 59.7533 14.2636 59.8272C14.3374 59.901 14.3958 59.9888 14.4354 60.0854C14.475 60.1821 14.4949 60.2855 14.4941 60.3899L14.1478 61.2337C14.1478 61.4441 14.0642 61.6459 13.9154 61.7947C13.7666 61.9435 13.5648 62.0271 13.3544 62.0271Z" fill="white"/>
<path d="M25.4501 62.0271C25.2397 62.0271 25.0379 61.9435 24.8891 61.7947C24.7403 61.6459 24.6567 61.4441 24.6567 61.2337L25.003 60.3899C25.003 60.1795 25.0866 59.9778 25.2354 59.829C25.3842 59.6802 25.586 59.5966 25.7964 59.5966C25.9008 59.5957 26.0044 59.6157 26.101 59.6553C26.1976 59.6949 26.2854 59.7533 26.3593 59.8272C26.4331 59.901 26.4915 59.9888 26.5311 60.0854C26.5707 60.1821 26.5906 60.2855 26.5898 60.3899L26.2434 61.2337C26.2418 61.4436 26.1577 61.6444 26.0093 61.7928C25.8608 61.9413 25.66 62.0255 25.4501 62.0271Z" fill="white"/>
<path d="M19.3991 62.0271C19.1898 62.0254 18.9896 61.9411 18.8422 61.7925C18.6948 61.6439 18.6121 61.4431 18.6121 61.2337L18.9584 60.3899C18.9575 60.2855 18.9775 60.1821 19.017 60.0854C19.0566 59.9888 19.115 59.901 19.1889 59.8272C19.2627 59.7533 19.3505 59.6949 19.4471 59.6553C19.5438 59.6157 19.6473 59.5957 19.7517 59.5966C19.9621 59.5966 20.1639 59.6802 20.3127 59.829C20.4615 59.9778 20.5451 60.1795 20.5451 60.3899L20.1925 61.2337C20.1925 61.4441 20.1089 61.6459 19.9601 61.7947C19.8113 61.9435 19.6095 62.0271 19.3991 62.0271Z" fill="white"/>
<path d="M31.4945 62.0271C31.2846 62.0255 31.0838 61.9413 30.9354 61.7928C30.7869 61.6444 30.7028 61.4436 30.7012 61.2337L31.0538 60.3899C31.0529 60.2861 31.0727 60.183 31.1119 60.0868C31.1511 59.9906 31.2089 59.9031 31.2821 59.8293C31.3552 59.7556 31.4423 59.6971 31.5382 59.6571C31.6341 59.6172 31.737 59.5966 31.8408 59.5966C31.9453 59.5957 32.0488 59.6157 32.1454 59.6553C32.2421 59.6949 32.3299 59.7533 32.4037 59.8272C32.4775 59.901 32.536 59.9888 32.5755 60.0854C32.6151 60.1821 32.6351 60.2855 32.6342 60.3899L32.2879 61.2337C32.2879 61.4441 32.2043 61.6459 32.0555 61.7947C31.9067 61.9435 31.705 62.0271 31.4945 62.0271Z" fill="white"/>
<path d="M37.5397 62.0271C37.3293 62.0271 37.1275 61.9435 36.9787 61.7947C36.8299 61.6459 36.7463 61.4441 36.7463 61.2337L37.0926 60.3899C37.0918 60.2855 37.1117 60.1821 37.1513 60.0854C37.1909 59.9888 37.2493 59.901 37.3231 59.8272C37.397 59.7533 37.4848 59.6949 37.5814 59.6553C37.678 59.6157 37.7816 59.5957 37.886 59.5966C38.0964 59.5966 38.2982 59.6802 38.447 59.829C38.5958 59.9778 38.6793 60.1795 38.6793 60.3899L38.3267 61.2337C38.3267 61.4431 38.244 61.6439 38.0966 61.7925C37.9492 61.9411 37.749 62.0254 37.5397 62.0271Z" fill="white"/>
<path d="M55.6798 62.0271C55.4694 62.0271 55.2676 61.9435 55.1188 61.7947C54.97 61.6459 54.8865 61.4441 54.8865 61.2337L55.2328 60.3899C55.2328 60.1795 55.3163 59.9778 55.4651 59.829C55.6139 59.6802 55.8157 59.5966 56.0261 59.5966C56.1306 59.5957 56.2341 59.6157 56.3307 59.6553C56.4273 59.6949 56.5152 59.7533 56.589 59.8272C56.6628 59.901 56.7212 59.9888 56.7608 60.0854C56.8004 60.1821 56.8203 60.2855 56.8195 60.3899L56.4732 61.2337C56.4715 61.4436 56.3874 61.6444 56.239 61.7928C56.0905 61.9413 55.8897 62.0255 55.6798 62.0271Z" fill="white"/>
<path d="M1.27139 73.3167C1.06098 73.3167 0.859184 73.2332 0.7104 73.0844C0.561616 72.9356 0.478027 72.7338 0.478027 72.5233L0.830631 71.6797C0.830631 71.4693 0.914219 71.2674 1.063 71.1186C1.21179 70.9698 1.41359 70.8864 1.624 70.8864C1.83332 70.888 2.03349 70.9723 2.18092 71.1209C2.32834 71.2695 2.41107 71.4704 2.41106 71.6797L2.06476 72.5233C2.0656 72.6278 2.04565 72.7314 2.00608 72.828C1.96651 72.9247 1.90809 73.0124 1.83425 73.0863C1.76042 73.1601 1.67263 73.2184 1.576 73.258C1.47936 73.2976 1.37581 73.3175 1.27139 73.3167Z" fill="white"/>
<path d="M7.30975 73.3167C7.20533 73.3175 7.1018 73.2976 7.00517 73.258C6.90853 73.2184 6.82073 73.1601 6.74689 73.0863C6.67305 73.0124 6.61464 72.9247 6.57507 72.828C6.53549 72.7314 6.51554 72.6278 6.51638 72.5233L6.8627 71.6797C6.8627 71.4693 6.94629 71.2674 7.09507 71.1186C7.24386 70.9698 7.44566 70.8864 7.65607 70.8864C7.86597 70.888 8.06681 70.972 8.21524 71.1205C8.36367 71.2689 8.44777 71.4698 8.44942 71.6797L8.10312 72.5233C8.10312 72.7338 8.01953 72.9356 7.87074 73.0844C7.72196 73.2332 7.52016 73.3167 7.30975 73.3167Z" fill="white"/>
<path d="M19.3991 73.3167C19.2953 73.3167 19.1924 73.2962 19.0965 73.2563C19.0006 73.2163 18.9135 73.1577 18.8404 73.084C18.7672 73.0102 18.7094 72.9227 18.6702 72.8265C18.631 72.7303 18.6113 72.6272 18.6121 72.5233L18.9584 71.6797C18.9584 71.4693 19.042 71.2674 19.1908 71.1186C19.3395 70.9698 19.5413 70.8864 19.7518 70.8864C19.9617 70.888 20.1625 70.972 20.3109 71.1205C20.4594 71.2689 20.5435 71.4698 20.5451 71.6797L20.1925 72.5233C20.1933 72.6278 20.1734 72.7314 20.1338 72.828C20.0942 72.9247 20.0358 73.0124 19.962 73.0863C19.8882 73.1601 19.8004 73.2184 19.7037 73.258C19.6071 73.2976 19.5036 73.3175 19.3991 73.3167Z" fill="white"/>
<path d="M31.8345 70.8864C32.0449 70.8864 32.2467 70.9698 32.3955 71.1186C32.5443 71.2674 32.6279 71.4693 32.6279 71.6797L32.2816 72.5233C32.2824 72.6278 32.2624 72.7314 32.2229 72.828C32.1833 72.9247 32.1249 73.0124 32.051 73.0863C31.9772 73.1601 31.8894 73.2184 31.7928 73.258C31.6962 73.2976 31.5926 73.3175 31.4882 73.3167C31.384 73.3167 31.2808 73.2962 31.1846 73.2563C31.0883 73.2164 31.0009 73.1581 30.9272 73.0844C30.8535 73.0108 30.7951 72.9232 30.7552 72.8269C30.7154 72.7307 30.6948 72.6275 30.6948 72.5233" fill="white"/>
<path d="M37.5392 73.3167C37.4348 73.3175 37.3313 73.2976 37.2346 73.258C37.138 73.2184 37.0502 73.1601 36.9763 73.0863C36.9025 73.0124 36.8441 72.9247 36.8046 72.828C36.765 72.7314 36.745 72.6278 36.7459 72.5233L37.0922 71.6797C37.0922 71.4693 37.1757 71.2674 37.3245 71.1186C37.4733 70.9698 37.6751 70.8864 37.8855 70.8864C38.0954 70.888 38.2963 70.972 38.4447 71.1205C38.5931 71.2689 38.6772 71.4698 38.6789 71.6797L38.3263 72.5233C38.3271 72.6272 38.3074 72.7303 38.2682 72.8265C38.229 72.9227 38.1712 73.0102 38.098 73.084C38.0248 73.1577 37.9378 73.2163 37.8419 73.2563C37.746 73.2962 37.6431 73.3167 37.5392 73.3167Z" fill="white"/>
<path d="M49.6288 73.3167C49.4184 73.3167 49.2166 73.2332 49.0678 73.0844C48.9191 72.9356 48.8354 72.7338 48.8354 72.5233L49.1881 71.6797C49.1881 71.4693 49.2717 71.2674 49.4204 71.1186C49.5692 70.9698 49.771 70.8864 49.9814 70.8864C50.1913 70.888 50.3922 70.972 50.5406 71.1205C50.689 71.2689 50.7731 71.4698 50.7748 71.6797L50.4222 72.5233C50.423 72.6278 50.4031 72.7314 50.3635 72.828C50.3239 72.9247 50.2655 73.0124 50.1917 73.0863C50.1178 73.1601 50.03 73.2184 49.9334 73.258C49.8368 73.2976 49.7332 73.3175 49.6288 73.3167Z" fill="white"/>
<path d="M1.27139 95.8961C1.06207 95.8961 0.861214 95.8134 0.71261 95.666C0.564005 95.5186 0.479689 95.3184 0.478027 95.109L0.830631 94.259C0.830628 94.1551 0.851193 94.0522 0.89114 93.9563C0.931087 93.8604 0.989634 93.7733 1.06339 93.7002C1.13714 93.627 1.22466 93.5692 1.32087 93.53C1.41709 93.4908 1.52011 93.4711 1.624 93.4719C1.83274 93.4719 2.03293 93.5549 2.18054 93.7025C2.32814 93.8501 2.41106 94.0502 2.41106 94.259L2.06476 95.109C2.06477 95.2129 2.0442 95.3158 2.00425 95.4117C1.96431 95.5076 1.90576 95.5947 1.83201 95.6678C1.75825 95.741 1.67074 95.7988 1.57452 95.838C1.4783 95.8772 1.37528 95.8969 1.27139 95.8961Z" fill="white"/>
<path d="M13.3544 95.8961C13.1451 95.8961 12.9442 95.8134 12.7956 95.666C12.647 95.5186 12.5627 95.3184 12.561 95.109L12.9136 94.259C12.9136 94.0502 12.9966 93.8501 13.1442 93.7025C13.2918 93.5549 13.492 93.4719 13.7007 93.4719C13.8046 93.4711 13.9076 93.4908 14.0038 93.53C14.1001 93.5692 14.1876 93.627 14.2613 93.7002C14.3351 93.7733 14.3936 93.8604 14.4336 93.9563C14.4735 94.0522 14.4941 94.1551 14.4941 94.259L14.1478 95.109C14.1478 95.2129 14.1272 95.3158 14.0873 95.4117C14.0473 95.5076 13.9888 95.5947 13.915 95.6678C13.8413 95.741 13.7537 95.7988 13.6575 95.838C13.5613 95.8772 13.4583 95.8969 13.3544 95.8961Z" fill="white"/>
<path d="M25.4501 95.8961C25.3462 95.8969 25.2432 95.8772 25.147 95.838C25.0507 95.7988 24.9632 95.741 24.8895 95.6678C24.8157 95.5947 24.7572 95.5076 24.7172 95.4117C24.6773 95.3158 24.6567 95.2129 24.6567 95.109L25.003 94.259C25.0047 94.0496 25.089 93.8494 25.2376 93.702C25.3862 93.5546 25.5871 93.4719 25.7964 93.4719C25.9003 93.4711 26.0033 93.4908 26.0995 93.53C26.1957 93.5692 26.2832 93.627 26.357 93.7002C26.4307 93.7733 26.4893 93.8604 26.5292 93.9563C26.5692 94.0522 26.5898 94.1551 26.5898 94.259" fill="white"/>
<path d="M19.3991 95.8961C19.1904 95.8961 18.9902 95.8131 18.8426 95.6655C18.695 95.5179 18.6121 95.3178 18.6121 95.109L18.9584 94.259C18.9584 94.1551 18.9789 94.0522 19.0189 93.9563C19.0588 93.8604 19.1174 93.7733 19.1911 93.7002C19.2649 93.627 19.3524 93.5692 19.4486 93.53C19.5448 93.4908 19.6478 93.4711 19.7517 93.4719C19.9611 93.4719 20.1619 93.5546 20.3105 93.702C20.4591 93.8494 20.5434 94.0496 20.5451 94.259L20.1925 95.109C20.1925 95.2129 20.1719 95.3158 20.132 95.4117C20.092 95.5076 20.0335 95.5947 19.9597 95.6678C19.886 95.741 19.7985 95.7988 19.7023 95.838C19.606 95.8772 19.503 95.8969 19.3991 95.8961Z" fill="white"/>
<path d="M37.5397 95.8961C37.4358 95.8969 37.3328 95.8772 37.2366 95.838C37.1403 95.7988 37.0528 95.741 36.9791 95.6678C36.9053 95.5947 36.8468 95.5076 36.8068 95.4117C36.7669 95.3158 36.7463 95.2129 36.7463 95.109L37.0926 94.259C37.0926 94.1551 37.1132 94.0522 37.1531 93.9563C37.1931 93.8604 37.2516 93.7733 37.3254 93.7002C37.3991 93.627 37.4866 93.5692 37.5829 93.53C37.6791 93.4908 37.7821 93.4711 37.886 93.4719C38.0953 93.4719 38.2961 93.5546 38.4448 93.702C38.5934 93.8494 38.6777 94.0496 38.6793 94.259" fill="white"/>
<path d="M55.6798 95.8961C55.5759 95.8969 55.4729 95.8772 55.3767 95.838C55.2805 95.7988 55.193 95.741 55.1192 95.6678C55.0455 95.5947 54.9869 95.5076 54.947 95.4117C54.907 95.3158 54.8865 95.2129 54.8865 95.109L55.2328 94.259C55.2344 94.0496 55.3188 93.8494 55.4674 93.702C55.616 93.5546 55.8168 93.4719 56.0261 93.4719C56.13 93.4711 56.233 93.4908 56.3292 93.53C56.4255 93.5692 56.513 93.627 56.5867 93.7002C56.6605 93.7733 56.719 93.8604 56.759 93.9563C56.7989 94.0522 56.8195 94.1551 56.8195 94.259L56.4732 95.109C56.4715 95.3184 56.3872 95.5186 56.2386 95.666C56.09 95.8134 55.8891 95.8961 55.6798 95.8961Z" fill="white"/>
<path d="M7.30975 84.6063C7.20533 84.6071 7.1018 84.5873 7.00517 84.5477C6.90853 84.5081 6.82073 84.4497 6.74689 84.3758C6.67305 84.302 6.61464 84.2142 6.57507 84.1176C6.53549 84.0209 6.51554 83.9175 6.51638 83.8131L6.8627 82.9693C6.8627 82.7589 6.94629 82.5571 7.09507 82.4083C7.24386 82.2595 7.44566 82.1759 7.65607 82.1759C7.86597 82.1775 8.06681 82.2616 8.21524 82.41C8.36367 82.5585 8.44777 82.7594 8.44942 82.9693L8.10312 83.8131C8.10312 84.0235 8.01953 84.2252 7.87074 84.374C7.72196 84.5228 7.52016 84.6063 7.30975 84.6063Z" fill="white"/>
<path d="M25.4501 84.6063C25.3457 84.6071 25.2422 84.5873 25.1455 84.5477C25.0489 84.5081 24.9611 84.4497 24.8873 84.3758C24.8134 84.302 24.755 84.2142 24.7154 84.1176C24.6759 84.0209 24.6559 83.9175 24.6568 83.8131L25.0031 82.9693C25.0047 82.7594 25.0888 82.5585 25.2372 82.41C25.3857 82.2616 25.5865 82.1775 25.7964 82.1759C26.0068 82.1759 26.2086 82.2595 26.3574 82.4083C26.5062 82.5571 26.5898 82.7589 26.5898 82.9693L26.2435 83.8131C26.2435 83.9172 26.223 84.0204 26.1831 84.1167C26.1432 84.2129 26.0848 84.3003 26.0111 84.374C25.9374 84.4477 25.85 84.5061 25.7537 84.546C25.6575 84.5859 25.5543 84.6063 25.4501 84.6063Z" fill="white"/>
<path d="M19.3991 84.6063C19.2953 84.6063 19.1924 84.5858 19.0965 84.5458C19.0006 84.5059 18.9135 84.4473 18.8404 84.3735C18.7672 84.2998 18.7094 84.2123 18.6702 84.116C18.631 84.0198 18.6113 83.9169 18.6121 83.8131L18.9584 82.9693C18.9584 82.7589 19.042 82.5571 19.1908 82.4083C19.3395 82.2595 19.5413 82.1759 19.7518 82.1759C19.9617 82.1775 20.1625 82.2616 20.3109 82.41C20.4594 82.5585 20.5435 82.7594 20.5451 82.9693L20.1925 83.8131C20.1933 83.9175 20.1734 84.0209 20.1338 84.1176C20.0942 84.2142 20.0358 84.302 19.962 84.3758C19.8882 84.4497 19.8004 84.5081 19.7037 84.5477C19.6071 84.5873 19.5036 84.6071 19.3991 84.6063Z" fill="white"/>
<path d="M31.4945 84.6063C31.2841 84.6063 31.0823 84.5228 30.9336 84.374C30.7848 84.2252 30.7012 84.0235 30.7012 83.8131L31.0538 82.9693C31.0538 82.7599 31.1365 82.5591 31.2839 82.4105C31.4314 82.2619 31.6315 82.1776 31.8408 82.1759C32.0513 82.1759 32.2531 82.2595 32.4019 82.4083C32.5506 82.5571 32.6342 82.7589 32.6342 82.9693L32.2879 83.8131C32.2887 83.9175 32.2688 84.0209 32.2292 84.1176C32.1896 84.2142 32.1312 84.302 32.0574 84.3758C31.9836 84.4497 31.8958 84.5081 31.7991 84.5477C31.7025 84.5873 31.599 84.6071 31.4945 84.6063Z" fill="white"/>
<path d="M37.5392 84.6063C37.4348 84.6071 37.3313 84.5873 37.2346 84.5477C37.138 84.5081 37.0502 84.4497 36.9763 84.3758C36.9025 84.302 36.8441 84.2142 36.8046 84.1176C36.765 84.0209 36.745 83.9175 36.7459 83.8131L37.0922 82.9693C37.0922 82.7589 37.1757 82.5571 37.3245 82.4083C37.4733 82.2595 37.6751 82.1759 37.8855 82.1759C38.0954 82.1775 38.2963 82.2616 38.4447 82.41C38.5931 82.5585 38.6772 82.7594 38.6789 82.9693L38.3263 83.8131C38.3271 83.9169 38.3074 84.0198 38.2682 84.116C38.229 84.2123 38.1712 84.2998 38.098 84.3735C38.0248 84.4473 37.9378 84.5059 37.8419 84.5458C37.746 84.5858 37.6431 84.6063 37.5392 84.6063Z" fill="white"/>
<path d="M49.6288 84.6063C49.4184 84.6063 49.2166 84.5228 49.0678 84.374C48.9191 84.2252 48.8354 84.0235 48.8354 83.8131L49.1881 82.9693C49.1881 82.7589 49.2717 82.5571 49.4204 82.4083C49.5692 82.2595 49.771 82.1759 49.9814 82.1759C50.1913 82.1775 50.3922 82.2616 50.5406 82.41C50.689 82.5585 50.7731 82.7594 50.7748 82.9693L50.4222 83.8131C50.423 83.9175 50.4031 84.0209 50.3635 84.1176C50.3239 84.2142 50.2655 84.302 50.1917 84.3758C50.1178 84.4497 50.03 84.5081 49.9334 84.5477C49.8368 84.5873 49.7332 84.6071 49.6288 84.6063Z" fill="white"/>
<path d="M48.2373 44.2268H59.9236C62.4978 44.216 64.9864 43.3018 66.9554 41.6435C68.9243 39.9853 70.2485 37.6885 70.697 35.1536" stroke="white" stroke-width="2" stroke-linecap="round" stroke-linejoin="round"/>
<path d="M42.9103 6.62417C42.1412 6.40363 41.3425 6.30382 40.5428 6.32825C37.0498 6.32023 33.6846 7.64114 31.1297 10.023C28.5748 12.4049 27.0215 15.6692 26.7849 19.1542C26.7777 19.2585 26.75 19.3604 26.7033 19.4539C26.6567 19.5475 26.592 19.6308 26.513 19.6993C26.434 19.7677 26.3423 19.8198 26.2431 19.8527C26.1439 19.8856 26.0391 19.8987 25.9349 19.891C25.8019 19.8836 25.6734 19.84 25.5634 19.7649C23.4062 18.3815 20.7881 17.9108 18.2841 18.4563C15.7801 19.0017 13.5949 20.5187 12.2085 22.674C11.2051 24.2367 10.6739 26.0557 10.6784 27.9127V28.2526C10.6835 28.3568 10.668 28.4611 10.6327 28.5593C10.5975 28.6575 10.5432 28.7477 10.4731 28.8249C10.4029 28.9021 10.3182 28.9648 10.2237 29.0092C10.1293 29.0536 10.0271 29.0789 9.92285 29.0838C9.8333 29.0845 9.74417 29.0717 9.6584 29.046C8.9111 28.82 8.13458 28.7056 7.35388 28.7061C5.29368 28.7078 3.31835 29.5269 1.86157 30.9837C0.404793 32.4404 -0.414348 34.4157 -0.416016 36.4759C-0.411014 38.5333 0.409797 40.5048 1.86639 41.9578C3.32299 43.4109 5.29644 44.2269 7.35388 44.2269H42.9103" stroke="white" stroke-width="2" stroke-linecap="round" stroke-linejoin="round"/>
<path d="M50.6551 10.7986C50.0414 10.0367 49.3276 9.36106 48.5332 8.79004" stroke="white" stroke-width="2" stroke-linecap="round" stroke-linejoin="round"/>
<path d="M87.4267 22.6171C86.7868 22.6089 86.1495 22.7003 85.5377 22.888C85.4669 22.9002 85.3945 22.9002 85.3236 22.888C85.2377 22.8881 85.1526 22.8706 85.0736 22.8367C84.9947 22.8027 84.9235 22.7528 84.8645 22.6903C84.8055 22.6278 84.7599 22.5539 84.7306 22.4731C84.7013 22.3923 84.6888 22.3063 84.694 22.2205V21.9435C84.6898 20.4394 84.2526 18.9681 83.4347 17.7058C82.8806 16.8435 82.1619 16.0988 81.3199 15.5143C80.4778 14.9299 79.5288 14.5171 78.5271 14.2996C77.5254 14.0821 76.4907 14.064 75.4821 14.2466C74.4734 14.4291 73.5106 14.8087 72.6487 15.3635C72.5568 15.4193 72.4535 15.4539 72.3465 15.4644C72.2618 15.4721 72.1764 15.4626 72.0954 15.4364C72.0145 15.4102 71.9396 15.3679 71.8755 15.312C71.8113 15.2561 71.7592 15.1877 71.7222 15.1111C71.6852 15.0345 71.6641 14.9512 71.6602 14.8662C71.4585 12.072 70.2084 9.45722 68.1604 7.54578C66.1123 5.63433 63.4176 4.56739 60.6161 4.55878C58.5363 4.56476 56.5 5.15461 54.7389 6.26111C52.9779 7.36761 51.5629 8.94626 50.655 10.8175C52.9917 13.3594 54.2825 16.6899 54.2692 20.1426C54.2655 20.9284 54.1918 21.7123 54.0489 22.4849C54.0188 22.6471 54.0408 22.8146 54.1118 22.9635C54.1557 23.0576 54.2179 23.142 54.2946 23.212C54.3713 23.282 54.4612 23.3362 54.5589 23.3713C54.6567 23.4064 54.7604 23.4218 54.8641 23.4166C54.9679 23.4115 55.0696 23.386 55.1634 23.3413C56.6243 22.6504 58.2193 22.2891 59.8354 22.2834C61.2791 22.2776 62.7098 22.5562 64.0458 23.1034C65.3819 23.6505 66.5971 24.4555 67.622 25.4722C68.647 26.489 69.4616 27.6978 70.0195 29.0294C70.5773 30.361 70.8673 31.7894 70.8731 33.2331C70.8721 33.8898 70.8131 34.545 70.6968 35.1913H87.4267C89.0966 35.1913 90.6982 34.5279 91.879 33.347C93.0598 32.1662 93.7232 30.5647 93.7232 28.8947C93.7182 27.2281 93.0526 25.6315 91.8723 24.4547C90.692 23.278 89.0934 22.6171 87.4267 22.6171V22.6171Z" stroke="white" stroke-width="2" stroke-linecap="round" stroke-linejoin="round"/>
<path d="M70.6968 35.1725C70.8131 34.5262 70.872 33.8709 70.8731 33.2142C70.8673 31.77 70.577 30.341 70.0188 29.009C69.4606 27.677 68.6454 26.468 67.6197 25.4512C66.5941 24.4343 65.3782 23.6295 64.0414 23.0828C62.7046 22.536 61.2733 22.258 59.829 22.2647C58.2129 22.2704 56.6179 22.6315 55.157 23.3224C55.0632 23.3671 54.9615 23.3928 54.8578 23.3979C54.754 23.4031 54.6503 23.3875 54.5526 23.3524C54.4548 23.3173 54.365 23.2632 54.2883 23.1932C54.2115 23.1232 54.1494 23.0387 54.1055 22.9446C54.0345 22.7957 54.0124 22.6282 54.0425 22.466C54.1854 21.6934 54.2592 20.9095 54.2629 20.1238C54.2762 16.671 52.9854 13.3405 50.6487 10.7986" stroke="white" stroke-width="2" stroke-linecap="round" stroke-linejoin="round"/>
<path d="M1.27139 107.192C1.06149 107.19 0.860653 107.106 0.712225 106.958C0.563796 106.809 0.479674 106.608 0.478027 106.399L0.83063 105.555C0.829792 105.45 0.849741 105.347 0.889314 105.25C0.928887 105.154 0.987301 105.066 1.06114 104.992C1.13498 104.918 1.22276 104.86 1.31939 104.82C1.41603 104.781 1.51958 104.761 1.624 104.761C1.72789 104.761 1.83075 104.782 1.92666 104.822C2.02256 104.862 2.10961 104.921 2.18278 104.994C2.25595 105.068 2.31379 105.155 2.35297 105.252C2.39215 105.348 2.41189 105.451 2.41106 105.555L2.06476 106.399C2.06476 106.609 1.98117 106.811 1.83239 106.96C1.6836 107.108 1.48181 107.192 1.27139 107.192Z" fill="white"/>
<path d="M7.30997 107.192C7.09956 107.192 6.89776 107.108 6.74897 106.96C6.60019 106.811 6.5166 106.609 6.5166 106.399L6.86292 105.555C6.86208 105.45 6.88203 105.347 6.92161 105.25C6.96118 105.154 7.01957 105.066 7.09341 104.992C7.16725 104.918 7.25505 104.86 7.35169 104.82C7.44832 104.781 7.55187 104.761 7.65629 104.761C7.8667 104.761 8.06848 104.845 8.21726 104.994C8.36605 105.143 8.44964 105.344 8.44964 105.555L8.10334 106.399C8.10169 106.608 8.01757 106.809 7.86914 106.958C7.72071 107.106 7.51987 107.19 7.30997 107.192Z" fill="white"/>
<path d="M13.3544 107.192C13.1445 107.19 12.9437 107.106 12.7952 106.958C12.6468 106.809 12.5627 106.608 12.561 106.399L12.9136 105.555C12.9128 105.451 12.9326 105.348 12.9717 105.252C13.0109 105.155 13.0688 105.068 13.1419 104.994C13.2151 104.921 13.3022 104.862 13.3981 104.822C13.494 104.782 13.5968 104.761 13.7007 104.761C13.8051 104.761 13.9087 104.781 14.0053 104.82C14.1019 104.86 14.1897 104.918 14.2636 104.992C14.3374 105.066 14.3958 105.154 14.4354 105.25C14.475 105.347 14.4949 105.45 14.4941 105.555L14.1478 106.399C14.1478 106.609 14.0642 106.811 13.9154 106.96C13.7666 107.108 13.5648 107.192 13.3544 107.192Z" fill="white"/>
<path d="M19.3991 107.192C19.1898 107.19 18.9896 107.106 18.8422 106.957C18.6948 106.809 18.6121 106.608 18.6121 106.399L18.9584 105.555C18.9575 105.45 18.9775 105.347 19.017 105.25C19.0566 105.154 19.115 105.066 19.1889 104.992C19.2627 104.918 19.3505 104.86 19.4471 104.82C19.5438 104.781 19.6473 104.761 19.7517 104.761C19.9621 104.761 20.1639 104.845 20.3127 104.994C20.4615 105.143 20.5451 105.344 20.5451 105.555L20.1925 106.399C20.1925 106.609 20.1089 106.811 19.9601 106.96C19.8113 107.108 19.6095 107.192 19.3991 107.192Z" fill="white"/>
<path d="M30.6948 106.399L31.0474 105.555C31.0466 105.451 31.0664 105.348 31.1055 105.252C31.1447 105.155 31.2026 105.068 31.2757 104.994C31.3489 104.921 31.4359 104.862 31.5318 104.822C31.6278 104.782 31.7306 104.761 31.8345 104.761C31.9389 104.761 32.0425 104.781 32.1391 104.82C32.2357 104.86 32.3235 104.918 32.3973 104.992C32.4712 105.066 32.5296 105.154 32.5692 105.25C32.6087 105.347 32.6287 105.45 32.6279 105.555L32.2816 106.399" fill="white"/>
<path d="M37.5397 107.192C37.3293 107.192 37.1275 107.108 36.9787 106.96C36.8299 106.811 36.7463 106.609 36.7463 106.399L37.0926 105.555C37.0918 105.45 37.1117 105.347 37.1513 105.25C37.1909 105.154 37.2493 105.066 37.3231 104.992C37.397 104.918 37.4848 104.86 37.5814 104.82C37.678 104.781 37.7816 104.761 37.886 104.761C38.0964 104.761 38.2982 104.845 38.447 104.994C38.5958 105.143 38.6793 105.344 38.6793 105.555L38.3267 106.399C38.3267 106.608 38.244 106.809 38.0966 106.957C37.9492 107.106 37.749 107.19 37.5397 107.192Z" fill="white"/>
<path d="M49.6288 107.192C49.4189 107.19 49.2181 107.106 49.0696 106.958C48.9212 106.809 48.8371 106.608 48.8354 106.399L49.1881 105.555C49.1872 105.45 49.2072 105.347 49.2467 105.25C49.2863 105.154 49.3447 105.066 49.4186 104.992C49.4924 104.918 49.5802 104.86 49.6768 104.82C49.7734 104.781 49.877 104.761 49.9814 104.761C50.1918 104.761 50.3936 104.845 50.5424 104.994C50.6912 105.143 50.7748 105.344 50.7748 105.555L50.4222 106.399C50.4222 106.609 50.3386 106.811 50.1898 106.96C50.041 107.108 49.8392 107.192 49.6288 107.192Z" fill="white"/>
<path d="M55.6798 107.192C55.4694 107.192 55.2676 107.108 55.1188 106.96C54.97 106.811 54.8865 106.609 54.8865 106.399L55.2328 105.555C55.2328 105.344 55.3163 105.143 55.4651 104.994C55.6139 104.845 55.8157 104.761 56.0261 104.761C56.1306 104.761 56.2341 104.781 56.3307 104.82C56.4273 104.86 56.5152 104.918 56.589 104.992C56.6628 105.066 56.7212 105.154 56.7608 105.25C56.8004 105.347 56.8203 105.45 56.8195 105.555L56.4732 106.399C56.4715 106.608 56.3874 106.809 56.239 106.958C56.0905 107.106 55.8897 107.19 55.6798 107.192Z" fill="white"/>
<path d="M74.3109 39.4793C74.2068 39.4793 74.1036 39.4587 74.0073 39.4188C73.9111 39.379 73.8236 39.3207 73.75 39.247C73.6763 39.1733 73.6179 39.0858 73.578 38.9895C73.5381 38.8932 73.5176 38.7901 73.5176 38.6859L73.8702 37.8423C73.8702 37.6318 73.9538 37.4299 74.1026 37.2812C74.2514 37.1324 74.4531 37.0489 74.6635 37.0489C74.8729 37.0506 75.0731 37.1349 75.2205 37.2835C75.3679 37.4321 75.4506 37.6329 75.4506 37.8423L75.1043 38.6859C75.1052 38.7903 75.0852 38.8939 75.0456 38.9906C75.0061 39.0872 74.9476 39.175 74.8738 39.2488C74.8 39.3227 74.7122 39.381 74.6155 39.4205C74.5189 39.4601 74.4154 39.4801 74.3109 39.4793Z" fill="white"/>
<path d="M86.4003 39.4793C86.2961 39.4793 86.193 39.4587 86.0967 39.4188C86.0004 39.379 85.913 39.3207 85.8393 39.247C85.7656 39.1733 85.7072 39.0858 85.6673 38.9895C85.6274 38.8932 85.6069 38.7901 85.6069 38.6859L85.9595 37.8423C85.9595 37.6329 86.0422 37.4321 86.1897 37.2835C86.3371 37.1349 86.5373 37.0506 86.7466 37.0489C86.957 37.0489 87.1588 37.1324 87.3076 37.2812C87.4564 37.4299 87.54 37.6318 87.54 37.8423L87.1937 38.6859C87.1945 38.7903 87.1746 38.8939 87.135 38.9906C87.0954 39.0872 87.037 39.175 86.9632 39.2488C86.8893 39.3227 86.8016 39.381 86.7049 39.4205C86.6083 39.4601 86.5047 39.4801 86.4003 39.4793Z" fill="white"/>
<path d="M92.4386 39.4793C92.3344 39.4793 92.2312 39.4587 92.135 39.4188C92.0387 39.379 91.9513 39.3207 91.8776 39.247C91.8039 39.1733 91.7455 39.0858 91.7056 38.9895C91.6658 38.8932 91.6453 38.7901 91.6453 38.6859L91.9979 37.8423C91.9979 37.6318 92.0814 37.4299 92.2302 37.2812C92.379 37.1324 92.5808 37.0489 92.7912 37.0489C93.0005 37.0506 93.2007 37.1349 93.3481 37.2835C93.4956 37.4321 93.5783 37.6329 93.5783 37.8423L93.232 38.6859C93.2328 38.7903 93.2129 38.8939 93.1733 38.9906C93.1337 39.0872 93.0753 39.175 93.0015 39.2488C92.9276 39.3227 92.8398 39.381 92.7432 39.4205C92.6466 39.4601 92.543 39.4801 92.4386 39.4793Z" fill="white"/>
<path d="M68.26 50.7689C68.1555 50.7697 68.052 50.7499 67.9553 50.7103C67.8587 50.6707 67.7709 50.6123 67.6971 50.5384C67.6232 50.4646 67.5648 50.3768 67.5253 50.2802C67.4857 50.1836 67.4657 50.0799 67.4666 49.9755L67.8129 49.1319C67.8145 48.922 67.8987 48.7211 68.0471 48.5726C68.1955 48.4242 68.3964 48.3401 68.6063 48.3385C68.8167 48.3385 69.0185 48.422 69.1672 48.5708C69.316 48.7196 69.3996 48.9215 69.3996 49.1319L69.0533 49.9755C69.0533 50.1859 68.9697 50.3878 68.8209 50.5366C68.6721 50.6854 68.4704 50.7689 68.26 50.7689Z" fill="white"/>
<path d="M74.3109 50.7689C74.1005 50.7689 73.8988 50.6854 73.75 50.5366C73.6012 50.3878 73.5176 50.1859 73.5176 49.9755L73.8702 49.1319C73.8702 48.9215 73.9538 48.7196 74.1026 48.5708C74.2514 48.422 74.4531 48.3385 74.6635 48.3385C74.8729 48.3402 75.0731 48.4245 75.2205 48.5731C75.3679 48.7217 75.4506 48.9225 75.4506 49.1319L75.1043 49.9755C75.1052 50.0799 75.0852 50.1836 75.0456 50.2802C75.0061 50.3768 74.9476 50.4646 74.8738 50.5384C74.8 50.6123 74.7122 50.6707 74.6155 50.7103C74.5189 50.7499 74.4154 50.7697 74.3109 50.7689Z" fill="white"/>
<path d="M80.3556 50.7689C80.2512 50.7697 80.1477 50.7499 80.051 50.7103C79.9544 50.6707 79.8666 50.6123 79.7927 50.5384C79.7189 50.4646 79.6605 50.3768 79.621 50.2802C79.5814 50.1836 79.5614 50.0799 79.5623 49.9755L79.9086 49.1319C79.9102 48.922 79.9943 48.7211 80.1428 48.5726C80.2912 48.4242 80.492 48.3401 80.7019 48.3385C80.9123 48.3385 81.1141 48.422 81.2629 48.5708C81.4117 48.7196 81.4953 48.9215 81.4953 49.1319L81.149 49.9755C81.149 50.1859 81.0654 50.3878 80.9166 50.5366C80.7678 50.6854 80.566 50.7689 80.3556 50.7689Z" fill="white"/>
<path d="M92.4386 50.7689C92.2282 50.7689 92.0264 50.6854 91.8776 50.5366C91.7288 50.3878 91.6453 50.1859 91.6453 49.9755L91.9979 49.1319C91.9979 48.9215 92.0814 48.7196 92.2302 48.5708C92.379 48.422 92.5808 48.3385 92.7912 48.3385C93.0005 48.3402 93.2007 48.4245 93.3481 48.5731C93.4956 48.7217 93.5783 48.9225 93.5783 49.1319L93.232 49.9755C93.2328 50.0799 93.2129 50.1836 93.1733 50.2802C93.1337 50.3768 93.0753 50.4646 93.0015 50.5384C92.9276 50.6123 92.8398 50.6707 92.7432 50.7103C92.6466 50.7499 92.543 50.7697 92.4386 50.7689Z" fill="white"/>
<path d="M62.2092 62.0586C62.0004 62.0586 61.8002 61.9757 61.6526 61.8281C61.505 61.6805 61.4221 61.4803 61.4221 61.2716L61.7684 60.4278C61.7676 60.3234 61.7875 60.2199 61.8271 60.1233C61.8667 60.0266 61.9251 59.9388 61.9989 59.865C62.0728 59.7912 62.1605 59.7327 62.2572 59.6931C62.3538 59.6536 62.4574 59.6336 62.5618 59.6344C62.666 59.6344 62.7691 59.655 62.8654 59.6948C62.9616 59.7347 63.0491 59.7932 63.1228 59.8669C63.1964 59.9405 63.2549 60.0279 63.2947 60.1242C63.3346 60.2204 63.3551 60.3236 63.3551 60.4278L63.0025 61.2716C63.0025 61.3755 62.982 61.4784 62.942 61.5743C62.9021 61.6702 62.8435 61.7572 62.7698 61.8304C62.696 61.9035 62.6085 61.9614 62.5123 62.0005C62.4161 62.0397 62.3131 62.0595 62.2092 62.0586Z" fill="white"/>
<path d="M68.2602 62.0586C68.1563 62.0595 68.0532 62.0397 67.957 62.0005C67.8608 61.9614 67.7733 61.9035 67.6995 61.8304C67.6258 61.7572 67.5672 61.6702 67.5273 61.5743C67.4873 61.4784 67.4668 61.3755 67.4668 61.2716L67.8131 60.4278C67.8131 60.3236 67.8336 60.2204 67.8735 60.1242C67.9134 60.0279 67.9718 59.9405 68.0455 59.8669C68.1192 59.7932 68.2066 59.7347 68.3029 59.6948C68.3991 59.655 68.5023 59.6344 68.6065 59.6344C68.7109 59.6336 68.8144 59.6536 68.9111 59.6931C69.0077 59.7327 69.0955 59.7912 69.1693 59.865C69.2432 59.9388 69.3016 60.0266 69.3412 60.1233C69.3807 60.2199 69.4007 60.3234 69.3998 60.4278L69.0535 61.2716C69.0519 61.4809 68.9676 61.6811 68.819 61.8285C68.6704 61.976 68.4695 62.0587 68.2602 62.0586Z" fill="white"/>
<path d="M74.3109 62.0586C74.1016 62.0587 73.9008 61.976 73.7522 61.8285C73.6036 61.6811 73.5192 61.4809 73.5176 61.2716L73.8702 60.4278C73.8693 60.3234 73.8893 60.2199 73.9289 60.1233C73.9684 60.0266 74.0269 59.9388 74.1007 59.865C74.1745 59.7912 74.2623 59.7327 74.3589 59.6931C74.4556 59.6536 74.5591 59.6336 74.6636 59.6344C74.7674 59.6344 74.8703 59.655 74.9662 59.695C75.0621 59.7349 75.1492 59.7934 75.2223 59.8672C75.2955 59.9409 75.3533 60.0284 75.3925 60.1247C75.4317 60.2209 75.4514 60.3239 75.4506 60.4278L75.1043 61.2716C75.1043 61.3755 75.0837 61.4784 75.0438 61.5743C75.0038 61.6702 74.9453 61.7572 74.8716 61.8304C74.7978 61.9035 74.7103 61.9614 74.6141 62.0005C74.5179 62.0397 74.4148 62.0595 74.3109 62.0586Z" fill="white"/>
<path d="M80.3556 62.0586C80.2517 62.0595 80.1487 62.0397 80.0525 62.0005C79.9563 61.9614 79.8687 61.9035 79.795 61.8304C79.7212 61.7572 79.6627 61.6702 79.6227 61.5743C79.5828 61.4784 79.5623 61.3755 79.5623 61.2716L79.9086 60.4278C79.9086 60.3236 79.9291 60.2204 79.9689 60.1242C80.0088 60.0279 80.0672 59.9405 80.1409 59.8669C80.2146 59.7932 80.3021 59.7347 80.3983 59.6948C80.4946 59.655 80.5977 59.6344 80.7019 59.6344C80.8063 59.6336 80.9098 59.6536 81.0065 59.6931C81.1031 59.7327 81.1909 59.7912 81.2648 59.865C81.3386 59.9388 81.397 60.0266 81.4366 60.1233C81.4761 60.2199 81.4961 60.3234 81.4952 60.4278L81.1489 61.2716C81.1473 61.4809 81.063 61.6811 80.9144 61.8285C80.7658 61.976 80.5649 62.0587 80.3556 62.0586Z" fill="white"/>
<path d="M92.4386 62.0586C92.2293 62.0587 92.0284 61.976 91.8798 61.8285C91.7312 61.6811 91.6469 61.4809 91.6453 61.2716L91.9979 60.4278C91.997 60.3234 92.017 60.2199 92.0565 60.1233C92.0961 60.0266 92.1545 59.9388 92.2283 59.865C92.3022 59.7912 92.39 59.7327 92.4866 59.6931C92.5833 59.6536 92.6868 59.6336 92.7912 59.6344C92.8951 59.6344 92.998 59.655 93.0939 59.695C93.1898 59.7349 93.2768 59.7934 93.35 59.8672C93.4231 59.9409 93.481 60.0284 93.5202 60.1247C93.5594 60.2209 93.5791 60.3239 93.5782 60.4278L93.2319 61.2716C93.2319 61.3755 93.2114 61.4784 93.1715 61.5743C93.1315 61.6702 93.073 61.7572 92.9992 61.8304C92.9255 61.9035 92.8379 61.9614 92.7417 62.0005C92.6455 62.0397 92.5425 62.0595 92.4386 62.0586Z" fill="white"/>
<path d="M62.2092 84.6441C61.9999 84.6425 61.7997 84.5582 61.6522 84.4096C61.5048 84.261 61.4221 84.0601 61.4221 83.8508L61.7684 83.0071C61.7676 82.9027 61.7875 82.7991 61.8271 82.7025C61.8667 82.6058 61.9251 82.518 61.9989 82.4442C62.0728 82.3704 62.1605 82.3119 62.2572 82.2723C62.3538 82.2328 62.4574 82.2129 62.5618 82.2138C62.666 82.2138 62.7691 82.2343 62.8654 82.2742C62.9616 82.3141 63.0491 82.3724 63.1228 82.446C63.1964 82.5197 63.2549 82.6073 63.2947 82.7035C63.3346 82.7998 63.3551 82.903 63.3551 83.0071L63.0025 83.8508C63.0025 84.0612 62.9189 84.2631 62.7702 84.4119C62.6214 84.5606 62.4196 84.6441 62.2092 84.6441Z" fill="white"/>
<path d="M68.2602 84.6441C68.0498 84.6441 67.8479 84.5606 67.6992 84.4119C67.5504 84.2631 67.4668 84.0612 67.4668 83.8508L67.8131 83.0071C67.8131 82.903 67.8336 82.7998 67.8735 82.7035C67.9134 82.6073 67.9718 82.5197 68.0455 82.446C68.1192 82.3724 68.2066 82.3141 68.3029 82.2742C68.3991 82.2343 68.5023 82.2138 68.6065 82.2138C68.7109 82.2129 68.8144 82.2328 68.9111 82.2723C69.0077 82.3119 69.0955 82.3704 69.1693 82.4442C69.2432 82.518 69.3016 82.6058 69.3412 82.7025C69.3807 82.7991 69.4007 82.9027 69.3998 83.0071L69.0535 83.8508C69.0519 84.0607 68.9678 84.2616 68.8193 84.41C68.6709 84.5584 68.4701 84.6425 68.2602 84.6441Z" fill="white"/>
<path d="M74.3109 84.6441C74.101 84.6425 73.9002 84.5584 73.7518 84.41C73.6033 84.2616 73.5192 84.0607 73.5176 83.8508L73.8702 83.0071C73.8693 82.9027 73.8893 82.7991 73.9289 82.7025C73.9684 82.6058 74.0269 82.518 74.1007 82.4442C74.1745 82.3704 74.2623 82.3119 74.3589 82.2723C74.4556 82.2328 74.5591 82.2129 74.6636 82.2138C74.7674 82.2138 74.8703 82.2342 74.9662 82.2742C75.0621 82.3141 75.1492 82.3728 75.2223 82.4465C75.2955 82.5203 75.3533 82.6078 75.3925 82.704C75.4317 82.8002 75.4514 82.9033 75.4506 83.0071L75.1043 83.8508C75.1043 84.0612 75.0207 84.2631 74.8719 84.4119C74.7231 84.5606 74.5214 84.6441 74.3109 84.6441Z" fill="white"/>
<path d="M86.4003 84.6441C86.1904 84.6425 85.9896 84.5584 85.8411 84.41C85.6927 84.2616 85.6086 84.0607 85.6069 83.8508L85.9595 83.0071C85.9587 82.9033 85.9785 82.8002 86.0176 82.704C86.0568 82.6078 86.1147 82.5203 86.1878 82.4465C86.261 82.3728 86.3481 82.3141 86.444 82.2742C86.5399 82.2342 86.6427 82.2138 86.7466 82.2138C86.851 82.2129 86.9546 82.2328 87.0512 82.2723C87.1479 82.3119 87.2356 82.3704 87.3095 82.4442C87.3833 82.518 87.4417 82.6058 87.4813 82.7025C87.5209 82.7991 87.5408 82.9027 87.54 83.0071L87.1937 83.8508C87.1937 84.0612 87.1101 84.2631 86.9613 84.4119C86.8125 84.5606 86.6107 84.6441 86.4003 84.6441Z" fill="white"/>
<path d="M80.3556 84.6441C80.1452 84.6441 79.9434 84.5606 79.7946 84.4119C79.6458 84.2631 79.5623 84.0612 79.5623 83.8508L79.9086 83.0071C79.9086 82.903 79.9291 82.7998 79.9689 82.7035C80.0088 82.6073 80.0672 82.5197 80.1409 82.446C80.2146 82.3724 80.3021 82.3141 80.3983 82.2742C80.4946 82.2343 80.5977 82.2138 80.7019 82.2138C80.8063 82.2129 80.9098 82.2328 81.0065 82.2723C81.1031 82.3119 81.1909 82.3704 81.2648 82.4442C81.3386 82.518 81.397 82.6058 81.4366 82.7025C81.4761 82.7991 81.4961 82.9027 81.4952 83.0071L81.1489 83.8508C81.1473 84.0607 81.0632 84.2616 80.9147 84.41C80.7663 84.5584 80.5655 84.6425 80.3556 84.6441Z" fill="white"/>
<path d="M62.2092 73.3545C61.9999 73.3528 61.7997 73.2685 61.6522 73.1199C61.5048 72.9713 61.4221 72.7705 61.4221 72.5611L61.7684 71.7173C61.7676 71.6129 61.7875 71.5095 61.8271 71.4128C61.8667 71.3162 61.9251 71.2284 61.9989 71.1546C62.0728 71.0807 62.1605 71.0223 62.2572 70.9827C62.3538 70.9431 62.4574 70.9231 62.5618 70.924C62.7722 70.924 62.974 71.0076 63.1228 71.1564C63.2715 71.3052 63.3551 71.5069 63.3551 71.7173L62.9773 72.5611C62.9774 72.7673 62.8973 72.9654 62.7539 73.1135C62.6106 73.2615 62.4152 73.348 62.2092 73.3545Z" fill="white"/>
<path d="M68.2602 73.3545C68.0498 73.3545 67.8479 73.2709 67.6992 73.1221C67.5504 72.9733 67.4668 72.7715 67.4668 72.5611L67.8131 71.7173C67.8131 71.5069 67.8967 71.3052 68.0455 71.1564C68.1943 71.0076 68.3961 70.924 68.6065 70.924C68.7109 70.9231 68.8144 70.9431 68.9111 70.9827C69.0077 71.0223 69.0955 71.0807 69.1693 71.1546C69.2432 71.2284 69.3016 71.3162 69.3412 71.4128C69.3807 71.5095 69.4007 71.6129 69.3998 71.7173L69.0535 72.5611C69.0519 72.771 68.9678 72.972 68.8193 73.1204C68.6709 73.2688 68.4701 73.3529 68.2602 73.3545Z" fill="white"/>
<path d="M86.4003 73.3545C86.1904 73.3529 85.9896 73.2688 85.8411 73.1204C85.6927 72.972 85.6086 72.771 85.6069 72.5611L85.9595 71.7173C85.9587 71.6135 85.9785 71.5104 86.0176 71.4142C86.0568 71.318 86.1147 71.2305 86.1878 71.1567C86.261 71.083 86.3481 71.0245 86.444 70.9845C86.5399 70.9446 86.6427 70.924 86.7466 70.924C86.851 70.9231 86.9546 70.9431 87.0512 70.9827C87.1479 71.0223 87.2356 71.0807 87.3095 71.1546C87.3833 71.2284 87.4417 71.3162 87.4813 71.4128C87.5209 71.5095 87.5408 71.6129 87.54 71.7173L87.1937 72.5611C87.1937 72.7715 87.1101 72.9733 86.9613 73.1221C86.8125 73.2709 86.6107 73.3545 86.4003 73.3545Z" fill="white"/>
<path d="M80.3556 73.3545C80.1452 73.3545 79.9434 73.2709 79.7946 73.1221C79.6458 72.9733 79.5623 72.7715 79.5623 72.5611L79.9086 71.7173C79.9086 71.5069 79.9921 71.3052 80.1409 71.1564C80.2897 71.0076 80.4915 70.924 80.7019 70.924C80.8063 70.9231 80.9098 70.9431 81.0065 70.9827C81.1031 71.0223 81.1909 71.0807 81.2648 71.1546C81.3386 71.2284 81.397 71.3162 81.4366 71.4128C81.4761 71.5095 81.4961 71.6129 81.4952 71.7173L81.1489 72.5611C81.1473 72.771 81.0632 72.972 80.9147 73.1204C80.7663 73.2688 80.5655 73.3529 80.3556 73.3545Z" fill="white"/>
<path d="M92.4386 73.3545C92.2287 73.3529 92.0278 73.2688 91.8794 73.1204C91.731 72.972 91.6469 72.771 91.6453 72.5611L91.9979 71.7173C91.997 71.6129 92.017 71.5095 92.0565 71.4128C92.0961 71.3162 92.1545 71.2284 92.2283 71.1546C92.3022 71.0807 92.39 71.0223 92.4866 70.9827C92.5833 70.9431 92.6868 70.9231 92.7912 70.924C92.8951 70.924 92.998 70.9446 93.0939 70.9845C93.1898 71.0245 93.2768 71.083 93.35 71.1567C93.4231 71.2305 93.481 71.318 93.5202 71.4142C93.5594 71.5104 93.5791 71.6135 93.5782 71.7173L93.2319 72.5611C93.2319 72.7715 93.1484 72.9733 92.9996 73.1221C92.8508 73.2709 92.649 73.3545 92.4386 73.3545Z" fill="white"/>
<path d="M62.2092 95.9339C62.1053 95.9339 62.0024 95.9132 61.9065 95.8733C61.8106 95.8333 61.7236 95.7747 61.6504 95.701C61.5773 95.6272 61.5194 95.5397 61.4802 95.4435C61.441 95.3473 61.4213 95.2444 61.4221 95.1405L61.7684 94.2967C61.7684 94.0863 61.852 93.8846 62.0008 93.7358C62.1496 93.587 62.3514 93.5034 62.5618 93.5034C62.7717 93.505 62.9725 93.589 63.121 93.7375C63.2694 93.8859 63.3535 94.0868 63.3551 94.2967L63.0025 95.1405C63.0034 95.2449 62.9834 95.3484 62.9438 95.445C62.9043 95.5417 62.8459 95.6294 62.7721 95.7033C62.6982 95.7771 62.6104 95.8356 62.5138 95.8751C62.4171 95.9147 62.3136 95.9347 62.2092 95.9339Z" fill="white"/>
<path d="M68.26 95.9339C68.1555 95.9347 68.052 95.9147 67.9553 95.8751C67.8587 95.8356 67.7709 95.7771 67.6971 95.7033C67.6232 95.6294 67.5648 95.5417 67.5253 95.445C67.4857 95.3484 67.4657 95.2449 67.4666 95.1405L67.8129 94.2967C67.8145 94.0868 67.8987 93.8859 68.0471 93.7375C68.1955 93.589 68.3964 93.505 68.6063 93.5034C68.8167 93.5034 69.0185 93.587 69.1672 93.7358C69.316 93.8846 69.3996 94.0863 69.3996 94.2967L69.0533 95.1405C69.0533 95.3509 68.9697 95.5527 68.8209 95.7014C68.6721 95.8502 68.4704 95.9339 68.26 95.9339Z" fill="white"/>
<path d="M86.4003 95.9339C86.1899 95.9339 85.9881 95.8502 85.8393 95.7014C85.6905 95.5527 85.6069 95.3509 85.6069 95.1405L85.9595 94.2967C85.9595 94.0874 86.0422 93.8865 86.1897 93.7379C86.3371 93.5893 86.5373 93.505 86.7466 93.5034C86.957 93.5034 87.1588 93.587 87.3076 93.7358C87.4564 93.8846 87.54 94.0863 87.54 94.2967L87.1937 95.1405C87.1945 95.2449 87.1746 95.3484 87.135 95.445C87.0954 95.5417 87.037 95.6294 86.9632 95.7033C86.8893 95.7771 86.8016 95.8356 86.7049 95.8751C86.6083 95.9147 86.5047 95.9347 86.4003 95.9339Z" fill="white"/>
<path d="M80.3556 95.9339C80.2512 95.9347 80.1477 95.9147 80.051 95.8751C79.9544 95.8356 79.8666 95.7771 79.7927 95.7033C79.7189 95.6294 79.6605 95.5417 79.621 95.445C79.5814 95.3484 79.5614 95.2449 79.5623 95.1405L79.9086 94.2967C79.9102 94.0868 79.9943 93.8859 80.1428 93.7375C80.2912 93.589 80.492 93.505 80.7019 93.5034C80.9123 93.5034 81.1141 93.587 81.2629 93.7358C81.4117 93.8846 81.4953 94.0863 81.4953 94.2967L81.149 95.1405C81.149 95.3509 81.0654 95.5527 80.9166 95.7014C80.7678 95.8502 80.566 95.9339 80.3556 95.9339Z" fill="white"/>
<path d="M92.4386 95.9339C92.2282 95.9339 92.0264 95.8502 91.8776 95.7014C91.7288 95.5527 91.6453 95.3509 91.6453 95.1405L91.9979 94.2967C91.9979 94.0863 92.0814 93.8846 92.2302 93.7358C92.379 93.587 92.5808 93.5034 92.7912 93.5034C93.0005 93.505 93.2007 93.5893 93.3481 93.7379C93.4956 93.8865 93.5783 94.0874 93.5783 94.2967L93.232 95.1405C93.2328 95.2449 93.2129 95.3484 93.1733 95.445C93.1337 95.5417 93.0753 95.6294 93.0015 95.7033C92.9276 95.7771 92.8398 95.8356 92.7432 95.8751C92.6466 95.9147 92.543 95.9347 92.4386 95.9339Z" fill="white"/>
<path d="M62.2092 107.28C62.1053 107.28 62.0024 107.26 61.9065 107.22C61.8106 107.18 61.7236 107.121 61.6504 107.047C61.5773 106.974 61.5194 106.886 61.4802 106.79C61.441 106.694 61.4213 106.591 61.4221 106.487L61.7684 105.643C61.7684 105.539 61.789 105.436 61.8289 105.34C61.8689 105.244 61.9274 105.157 62.0012 105.084C62.0749 105.011 62.1624 104.953 62.2587 104.914C62.3549 104.875 62.4579 104.855 62.5618 104.856C62.7711 104.856 62.9719 104.939 63.1206 105.086C63.2692 105.234 63.3535 105.434 63.3551 105.643L63.0025 106.487C63.0034 106.591 62.9834 106.695 62.9438 106.791C62.9043 106.888 62.8459 106.976 62.7721 107.05C62.6982 107.123 62.6104 107.182 62.5138 107.221C62.4171 107.261 62.3136 107.281 62.2092 107.28Z" fill="white"/>
<path d="M68.26 107.28C68.1555 107.281 68.052 107.261 67.9553 107.221C67.8587 107.182 67.7709 107.123 67.6971 107.05C67.6232 106.976 67.5648 106.888 67.5253 106.791C67.4857 106.695 67.4657 106.591 67.4666 106.487L67.8129 105.643C67.8145 105.434 67.8989 105.234 68.0475 105.086C68.1961 104.939 68.3969 104.856 68.6063 104.856C68.7101 104.855 68.8132 104.875 68.9094 104.914C69.0056 104.953 69.0931 105.011 69.1669 105.084C69.2406 105.157 69.2992 105.244 69.3391 105.34C69.379 105.436 69.3996 105.539 69.3996 105.643L69.0533 106.487C69.0533 106.697 68.9697 106.899 68.8209 107.048C68.6721 107.197 68.4704 107.28 68.26 107.28Z" fill="white"/>
<path d="M74.3109 107.28C74.1005 107.28 73.8988 107.197 73.75 107.048C73.6012 106.899 73.5176 106.697 73.5176 106.487L73.8702 105.643C73.8702 105.539 73.8908 105.436 73.9307 105.34C73.9707 105.244 74.0292 105.157 74.1029 105.084C74.1767 105.011 74.2642 104.953 74.3604 104.914C74.4566 104.875 74.5597 104.855 74.6635 104.856C74.8723 104.856 75.0725 104.939 75.2201 105.086C75.3677 105.234 75.4506 105.434 75.4506 105.643L75.1043 106.487C75.1052 106.591 75.0852 106.695 75.0456 106.791C75.0061 106.888 74.9476 106.976 74.8738 107.05C74.8 107.123 74.7122 107.182 74.6155 107.221C74.5189 107.261 74.4154 107.281 74.3109 107.28Z" fill="white"/>
<path d="M86.4003 107.28C86.1899 107.28 85.9881 107.197 85.8393 107.048C85.6905 106.899 85.6069 106.697 85.6069 106.487L85.9595 105.643C85.9595 105.434 86.0424 105.234 86.1901 105.086C86.3377 104.939 86.5379 104.856 86.7466 104.856C86.8505 104.855 86.9535 104.875 87.0498 104.914C87.146 104.953 87.2335 105.011 87.3072 105.084C87.381 105.157 87.4395 105.244 87.4795 105.34C87.5194 105.436 87.54 105.539 87.54 105.643L87.1937 106.487C87.1945 106.591 87.1746 106.695 87.135 106.791C87.0954 106.888 87.037 106.976 86.9632 107.05C86.8893 107.123 86.8016 107.182 86.7049 107.221C86.6083 107.261 86.5047 107.281 86.4003 107.28Z" fill="white"/>
<path d="M80.3556 107.28C80.2512 107.281 80.1477 107.261 80.051 107.221C79.9544 107.182 79.8666 107.123 79.7927 107.05C79.7189 106.976 79.6605 106.888 79.621 106.791C79.5814 106.695 79.5614 106.591 79.5623 106.487L79.9086 105.643C79.9102 105.434 79.9946 105.234 80.1432 105.086C80.2918 104.939 80.4926 104.856 80.7019 104.856C80.8058 104.855 80.9088 104.875 81.005 104.914C81.1013 104.953 81.1888 105.011 81.2625 105.084C81.3363 105.157 81.3948 105.244 81.4348 105.34C81.4747 105.436 81.4953 105.539 81.4953 105.643L81.149 106.487C81.149 106.697 81.0654 106.899 80.9166 107.048C80.7678 107.197 80.566 107.28 80.3556 107.28Z" fill="white"/>
<path d="M96.0276 120.994H-5.87515C-7.3781 120.994 -8.81948 120.397 -9.88222 119.334C-10.945 118.271 -11.542 116.83 -11.542 115.327L-14.3691 45.8514L-11.542 -3.104C-11.542 -4.60695 -10.945 -6.04837 -9.88222 -7.11111C-8.81948 -8.17386 -7.3781 -8.77087 -5.87515 -8.77087L99.497 -10.2758C101 -10.2758 102.441 -9.67881 103.504 -8.61607C104.567 -7.55332 105.164 -6.1119 105.164 -4.60896C105.164 -4.60896 105.831 47.967 105.831 59.2126C105.831 70.4581 101.663 115.333 101.663 115.333C101.661 116.83 101.068 118.265 100.012 119.325C98.9564 120.386 97.524 120.986 96.0276 120.994V120.994Z" stroke="white" stroke-width="2" stroke-linecap="round" stroke-linejoin="round"/>
<path d="M43.1179 52.7208V46.8147L43.2438 2.81463C43.2438 1.87645 43.2439 1.00119 43.2754 0.245605L2.53061 0.944586C1.02767 0.944586 -0.413718 1.5416 -1.47646 2.60434C-2.5392 3.66708 -3.13625 5.1085 -3.13625 6.61145C-4.89771 20.0942 -5.84181 33.6713 -5.96338 47.2681C-5.96338 49.0311 -5.96338 50.9201 -5.90671 52.9349C-5.22669 52.8468 -3.62738 52.7838 -1.76362 52.7838L43.1179 52.7208Z" stroke="white" stroke-width="2" stroke-linecap="round" stroke-linejoin="round"/>
<path d="M48.3818 52.7208H48.7973C57.7006 52.7208 93.2318 52.9034 93.2318 52.9034C94.6272 52.8844 96.0227 52.9369 97.4127 53.0608C97.312 36.501 96.6823 5.09405 96.6823 5.09405C96.6823 3.5911 96.0853 2.14968 95.0225 1.08694C93.9598 0.0241946 92.5184 -0.572815 91.0155 -0.572815L48.344 0.151223C48.344 0.566792 48.344 0.994955 48.344 1.41053C48.3566 1.4483 48.3755 36.5451 48.3818 52.7208Z" stroke="white" stroke-width="2" stroke-linecap="round" stroke-linejoin="round"/>
<path d="M-5.84351 54.465C-5.35867 75.4575 -3.11082 105.63 -3.11082 105.63C-3.11082 107.133 -2.51379 108.575 -1.45105 109.638C-0.388307 110.7 1.0531 111.297 2.55604 111.297H43.2567C43.2567 110.668 43.2567 109.994 43.2567 109.276L43.156 57.9974H38.2447L-0.516661 57.8776" stroke="white" stroke-width="2" stroke-linecap="round" stroke-linejoin="round"/>
<path d="M48.3818 57.9785C48.3818 58.2807 48.3818 58.564 48.3818 58.8221C48.3818 68.928 48.1929 109.27 48.1929 109.27C48.1929 109.988 48.1929 110.674 48.1929 111.291H87.5335C89.0364 111.291 90.4778 110.694 91.5405 109.631C92.6033 108.569 93.2003 107.127 93.2003 105.624C93.2003 105.624 97.3371 72.7626 97.4442 57.7076C96.0504 57.8383 94.6505 57.893 93.2507 57.8714L48.3818 57.9785Z" stroke="white" stroke-width="2" stroke-linecap="round" stroke-linejoin="round"/>
<path d="M48.1867 111.291H43.2502" stroke="white" stroke-width="2" stroke-linecap="round" stroke-linejoin="round"/>
<path d="M97.4129 53.042C96.0229 52.9181 94.6274 52.8655 93.232 52.8846C93.232 52.8846 57.7008 52.7019 48.7975 52.7019H48.382C48.382 36.5262 48.382 1.42947 48.382 1.42947C48.382 0.982416 48.382 0.554253 48.382 0.170166L43.3007 0.25825C43.3007 1.01383 43.2692 1.8891 43.2692 2.82728L43.1433 46.8272V52.7334L-1.71308 52.765C-3.60204 52.765 -5.17618 52.8279 -5.8562 52.9161C-5.8562 53.4324 -5.8562 53.9487 -5.81842 54.4776L-5.6799 57.7139C-5.6799 57.8462 -2.99128 57.8903 -0.516751 57.8903L38.2446 58.0098H43.1559L43.2566 109.289C43.2566 110.007 43.2566 110.693 43.2566 111.31H48.1868C48.1868 110.68 48.1868 110.007 48.1868 109.289C48.1868 109.289 48.3757 68.9469 48.3757 58.841C48.3757 58.5829 48.3757 58.2996 48.3757 57.9974L93.2257 57.8966C94.6255 57.9182 96.0254 57.8635 97.4192 57.7328C97.4192 57.5251 97.4192 57.3236 97.4192 57.1032C97.4318 55.9006 97.4255 54.5405 97.4129 53.042Z" stroke="white" stroke-width="2" stroke-linecap="round" stroke-linejoin="round"/>
</g>
</svg>
