<svg width="532" height="342" viewBox="0 0 532 342" fill="none" xmlns="http://www.w3.org/2000/svg">
<circle cx="247" cy="174" r="93" fill="white"/>
<path d="M176.393 96.8931C183.012 111.645 178.944 120.015 164.012 126.827C149.08 133.64 125.927 129.778 108.774 122.85C96.7011 117.973 85.7061 112.477 71.2996 101.446C56.8932 90.4158 47.1247 77.5557 39.2451 65.0443C24.417 41.5001 18.7212 27.5021 15.721 0.999796" stroke="#E52600" stroke-width="1.5" stroke-linecap="round"/>
<path d="M304.192 78.4984C227.147 40.2479 176.404 86.3286 158.049 117.235C127.25 169.092 146.779 285.239 261.989 281.931C388.795 278.29 393.731 93.8578 299.316 71.4353C227.795 54.4518 261.905 117.587 299.224 134.11C321.626 144.028 386.974 153.766 460.608 144.294C472.098 142.393 491.222 135.166 487.14 117.235C482.154 95.331 455.506 100.36 438.158 117.235C420.81 134.11 399.369 182.99 487.14 207.027C524.387 217.228 510.101 214.168 530 217.228" stroke="#E52600" stroke-width="1.5" stroke-linecap="round"/>
<path d="M531 264C512.854 266.606 495.269 272.651 478.433 279.954C466.196 285.263 457.949 292.299 450.309 303.042C442.733 313.695 436.562 327.715 437.617 341.132M395 341.132C404.198 336.149 414.208 332.371 424.071 329.995C441.63 325.764 457.383 327.167 472.523 337.318C473.855 338.211 475.198 339.216 476.5 340.317" stroke="#E52600" stroke-width="1.5" stroke-linecap="round"/>
<mask id="mask0_4937_464" style="mask-type:alpha" maskUnits="userSpaceOnUse" x="136" y="60" width="227" height="227">
<path fill-rule="evenodd" clip-rule="evenodd" d="M249.501 60.156C186.902 60.156 136.156 110.902 136.156 173.5V173.5C136.156 236.099 186.902 286.845 249.501 286.845V286.845C312.099 286.845 362.844 236.099 362.844 173.5V173.5" fill="white"/>
</mask>
<g mask="url(#mask0_4937_464)">
<path fill-rule="evenodd" clip-rule="evenodd" d="M313.609 297.881C313.359 299.148 319.204 308.852 318.122 309.431C316.65 310.228 310.787 299.269 310.787 299.269C310.38 299.635 314.087 308.543 312.933 308.542C311.677 308.537 303.054 290.805 299.005 283.787C302.047 280.622 306.388 276.695 308.153 276.662C316.281 276.51 326.941 288.66 326.723 290.004C326.542 291.132 320.59 285.968 317.902 285.649C317.812 287.506 328.041 303.583 326.376 304.797C325.44 305.47 318.109 294.226 317.144 294.804C316.181 295.382 323.81 308.67 322.641 309.494C321.466 310.325 315.294 299.453 313.609 297.881" fill="#9B5A19"/>
</g>
<mask id="mask1_4937_464" style="mask-type:alpha" maskUnits="userSpaceOnUse" x="136" y="60" width="227" height="227">
<path fill-rule="evenodd" clip-rule="evenodd" d="M249.501 60.156C186.902 60.156 136.156 110.902 136.156 173.5V173.5C136.156 236.099 186.902 286.845 249.501 286.845V286.845C312.099 286.845 362.844 236.099 362.844 173.5V173.5C362.844 110.902 312.099 60.156 249.501 60.156Z" fill="white"/>
</mask>
<g mask="url(#mask1_4937_464)">
<path fill-rule="evenodd" clip-rule="evenodd" d="M272.813 181.268C275.94 183.049 278.814 186.55 281.023 192.15L281.023 192.15C284.935 202.071 286.144 208.48 287.263 214.404C287.446 215.377 287.627 216.336 287.817 217.296C289.156 224.054 290.957 230.916 297.332 242.757C301.069 249.699 303.807 254.866 305.714 258.792C307.615 262.705 308.722 265.447 309.161 267.52C309.61 269.641 309.373 271.135 308.533 272.473C307.892 273.494 306.897 274.405 305.779 275.43C305.539 275.651 305.293 275.876 305.043 276.11L304.504 275.532L305.043 276.11C304.104 276.987 302.533 277.929 300.85 278.425C299.183 278.917 297.216 279.023 295.653 277.936C275.148 263.698 258.65 231.312 254.336 198.3L254.336 198.3C253.315 190.483 257.597 183.186 263.409 180.721C266.345 179.476 269.664 179.474 272.813 181.268ZM264.026 182.175C258.932 184.336 254.964 190.91 255.903 198.095C260.181 230.839 276.538 262.74 296.554 276.639L296.554 276.639C297.544 277.327 298.932 277.344 300.403 276.91C301.86 276.48 303.212 275.658 303.965 274.955C304.251 274.687 304.521 274.439 304.775 274.206C305.882 273.189 306.678 272.456 307.195 271.633C307.769 270.72 308.001 269.666 307.615 267.847C307.22 265.979 306.19 263.389 304.293 259.483C302.402 255.59 299.68 250.451 295.941 243.506L296.613 243.144L295.941 243.506C289.484 231.512 287.634 224.498 286.268 217.603C286.075 216.633 285.893 215.667 285.709 214.692C284.593 208.781 283.408 202.505 279.553 192.729L280.288 192.439L279.553 192.729C279.553 192.729 279.553 192.729 279.553 192.729C277.426 187.335 274.742 184.185 272.031 182.641C269.341 181.109 266.542 181.108 264.026 182.175Z" fill="#323264"/>
</g>
<mask id="mask2_4937_464" style="mask-type:alpha" maskUnits="userSpaceOnUse" x="136" y="60" width="227" height="227">
<path fill-rule="evenodd" clip-rule="evenodd" d="M249.501 60.156C186.902 60.156 136.156 110.902 136.156 173.5V173.5C136.156 236.099 186.902 286.845 249.501 286.845V286.845C312.099 286.845 362.844 236.099 362.844 173.5V173.5C362.844 110.902 312.099 60.156 249.501 60.156Z" fill="white"/>
</mask>
<g mask="url(#mask2_4937_464)">
<path fill-rule="evenodd" clip-rule="evenodd" d="M215.981 245.876C205.148 257.834 201.919 312.623 203.197 358.967C202.095 381.015 191.856 391.168 192.133 400.445C204.892 405.883 217.494 410.5 229.455 404.38L240.995 360.537L243.562 311.303L255.153 411.13C255.153 411.13 274.307 419.137 288.39 408.228C288.39 408.228 284.831 327.073 281.239 290.292C278.126 258.446 276.232 249.335 276.232 249.335L215.981 245.876Z" fill="#AA0A0A"/>
</g>
<mask id="mask3_4937_464" style="mask-type:alpha" maskUnits="userSpaceOnUse" x="136" y="60" width="227" height="227">
<path fill-rule="evenodd" clip-rule="evenodd" d="M249.501 60.156C186.902 60.156 136.156 110.902 136.156 173.5V173.5C136.156 236.099 186.902 286.845 249.501 286.845V286.845C312.099 286.845 362.844 236.099 362.844 173.5V173.5" fill="white"/>
</mask>
<g mask="url(#mask3_4937_464)">
<path fill-rule="evenodd" clip-rule="evenodd" d="M206.076 254.267C205.9 263.465 259.68 273.547 280.67 263C280.67 263 291.46 182.336 258.858 176.95C244.415 174.566 233.289 177.207 226.434 184.146C208.922 201.879 206.14 250.962 206.076 254.267" fill="#284B9B"/>
</g>
<mask id="mask4_4937_464" style="mask-type:alpha" maskUnits="userSpaceOnUse" x="136" y="60" width="227" height="227">
<path fill-rule="evenodd" clip-rule="evenodd" d="M249.501 60.156C186.902 60.156 136.156 110.902 136.156 173.5V173.5C136.156 236.099 186.902 286.845 249.501 286.845V286.845C312.099 286.845 362.844 236.099 362.844 173.5V173.5" fill="white"/>
</mask>
<g mask="url(#mask4_4937_464)">
<path fill-rule="evenodd" clip-rule="evenodd" d="M276.534 120.483C280.071 121.365 285.262 119.016 280.099 110.603C274.935 102.189 262.386 95.8274 255.867 95.9648C255.867 95.9648 253.45 85.9565 242.53 81.1053C220.895 71.4966 207.911 86.1053 206.648 96.6534C205.575 105.598 210.776 130.437 196.679 135.621C190.016 138.072 212.746 138.659 219.98 128.526C219.98 128.526 215.936 149.402 246.696 163.247C246.696 163.247 272.997 119.599 276.534 120.483" fill="#323264"/>
</g>
<mask id="mask5_4937_464" style="mask-type:alpha" maskUnits="userSpaceOnUse" x="136" y="60" width="227" height="227">
<path fill-rule="evenodd" clip-rule="evenodd" d="M249.501 60.156C186.902 60.156 136.156 110.902 136.156 173.5V173.5C136.156 236.099 186.902 286.845 249.501 286.845V286.845C312.099 286.845 362.844 236.099 362.844 173.5V173.5" fill="white"/>
</mask>
<g mask="url(#mask5_4937_464)">
<path fill-rule="evenodd" clip-rule="evenodd" d="M234.924 143.75C234.037 151.718 244.166 160.206 246.698 163.247C245.73 170.379 245.043 172.429 243.581 176.302C243.218 177.266 242.869 178.234 243.316 179.163C245.549 183.813 254.229 187.614 259.912 184.105C260.558 183.707 261.461 182.94 261.102 182.26C258.824 177.942 259.833 167.984 259.833 167.984C271.071 165.073 276.266 160.176 279.287 150.45C283.277 137.614 280.173 117.222 280.173 117.222L238.849 115.432L236.46 132.128C231.209 128.543 227.344 130.022 226.663 134.318C226.017 138.387 228.428 143.126 234.924 143.75" fill="#9B5A19"/>
</g>
<mask id="mask6_4937_464" style="mask-type:alpha" maskUnits="userSpaceOnUse" x="136" y="60" width="227" height="227">
<path fill-rule="evenodd" clip-rule="evenodd" d="M249.501 60.156C186.902 60.156 136.156 110.902 136.156 173.5V173.5C136.156 236.099 186.902 286.845 249.501 286.845V286.845C312.099 286.845 362.844 236.099 362.844 173.5V173.5" fill="white"/>
</mask>
<g mask="url(#mask6_4937_464)">
<path fill-rule="evenodd" clip-rule="evenodd" d="M255.021 127.46C252.809 127.333 250.595 127.764 249.198 128.804C249.003 128.948 248.728 128.908 248.583 128.714C248.439 128.519 248.479 128.244 248.674 128.099C250.303 126.888 252.755 126.451 255.071 126.583C257.384 126.716 259.694 127.424 261.033 128.649C261.211 128.813 261.224 129.09 261.06 129.269C260.896 129.448 260.619 129.46 260.44 129.297C259.312 128.265 257.235 127.587 255.021 127.46Z" fill="#323264"/>
</g>
<mask id="mask7_4937_464" style="mask-type:alpha" maskUnits="userSpaceOnUse" x="136" y="60" width="227" height="227">
<path fill-rule="evenodd" clip-rule="evenodd" d="M249.501 60.156C186.902 60.156 136.156 110.902 136.156 173.5V173.5C136.156 236.099 186.902 286.845 249.501 286.845V286.845C312.099 286.845 362.844 236.099 362.844 173.5V173.5" fill="white"/>
</mask>
<g mask="url(#mask7_4937_464)">
<path fill-rule="evenodd" clip-rule="evenodd" d="M276.789 127.611C277.748 127.846 278.584 128.195 279.089 128.621C279.274 128.777 279.298 129.054 279.142 129.239C278.986 129.425 278.709 129.448 278.523 129.292C278.171 128.995 277.489 128.686 276.58 128.464C275.685 128.244 274.616 128.119 273.526 128.156C271.325 128.23 269.171 128.954 268.099 130.719L268.099 130.719C266.776 132.897 267.216 135.646 267.952 138.643C268.051 139.047 268.155 139.455 268.26 139.865C268.536 140.947 268.816 142.043 269.012 143.105C269.284 144.574 269.407 146.032 269.136 147.389C268.83 148.923 267.523 149.813 266.137 149.98C264.747 150.147 263.192 149.604 262.301 148.193C262.171 147.988 262.232 147.717 262.437 147.587C262.642 147.458 262.913 147.519 263.043 147.724C263.728 148.808 264.929 149.241 266.032 149.108C267.139 148.975 268.061 148.291 268.275 147.217C268.514 146.021 268.413 144.69 268.149 143.264C267.959 142.234 267.69 141.182 267.416 140.111C267.31 139.694 267.203 139.275 267.099 138.852C266.374 135.896 265.813 132.792 267.349 130.263C268.649 128.123 271.178 127.357 273.497 127.279C274.668 127.239 275.817 127.373 276.789 127.611Z" fill="#323264"/>
</g>
<mask id="mask8_4937_464" style="mask-type:alpha" maskUnits="userSpaceOnUse" x="136" y="60" width="227" height="227">
<path fill-rule="evenodd" clip-rule="evenodd" d="M249.501 60.156C186.902 60.156 136.156 110.902 136.156 173.5V173.5C136.156 236.099 186.902 286.845 249.501 286.845V286.845C312.099 286.845 362.844 236.099 362.844 173.5V173.5" fill="white"/>
</mask>
<g mask="url(#mask8_4937_464)">
<path fill-rule="evenodd" clip-rule="evenodd" d="M257.246 153.098C257.48 153.036 257.72 153.177 257.781 153.411C258.409 155.815 260.065 157.064 261.677 157.246C263.281 157.427 264.921 156.566 265.605 154.557C265.683 154.327 265.932 154.205 266.162 154.283C266.391 154.361 266.514 154.61 266.436 154.84C265.621 157.235 263.597 158.346 261.578 158.118C259.567 157.891 257.641 156.349 256.932 153.633C256.871 153.399 257.011 153.159 257.246 153.098Z" fill="#323264"/>
</g>
<mask id="mask9_4937_464" style="mask-type:alpha" maskUnits="userSpaceOnUse" x="136" y="60" width="227" height="227">
<path fill-rule="evenodd" clip-rule="evenodd" d="M249.501 60.156C186.902 60.156 136.156 110.902 136.156 173.5V173.5C136.156 236.099 186.902 286.845 249.501 286.845V286.845C312.099 286.845 362.844 236.099 362.844 173.5V173.5C362.844 110.902 312.099 60.156 249.501 60.156Z" fill="white"/>
</mask>
<g mask="url(#mask9_4937_464)">
<path fill-rule="evenodd" clip-rule="evenodd" d="M237.989 121.65C240.767 122.727 267.681 123.499 276.768 118.318C276.768 118.318 279.189 120.758 282.029 121.487C284.867 122.22 281.88 115.531 281.88 115.531L267.038 108.794L246.874 107.42L236.743 113.13L237.989 121.65Z" fill="#323264"/>
</g>
<mask id="mask10_4937_464" style="mask-type:alpha" maskUnits="userSpaceOnUse" x="136" y="60" width="227" height="227">
<path fill-rule="evenodd" clip-rule="evenodd" d="M249.501 60.156C186.902 60.156 136.156 110.902 136.156 173.5V173.5C136.156 236.099 186.902 286.845 249.501 286.845V286.845C312.099 286.845 362.844 236.099 362.844 173.5V173.5" fill="white"/>
</mask>
<g mask="url(#mask10_4937_464)">
<path d="M207.886 83.6581C212.63 79.6733 219.875 77.0936 230.547 78.8649C238.399 80.1681 243.505 84.5262 246.636 88.537C248.2 90.5409 249.275 92.4628 249.96 93.8857C250.303 94.5978 250.549 95.1866 250.71 95.6005L250.722 95.6313C261.023 94.1995 270.375 98.3702 276.569 103.889C279.731 106.707 282.107 109.908 283.369 112.952C284.622 115.974 284.831 118.993 283.374 121.278C283.139 121.646 282.651 121.754 282.283 121.519C281.915 121.285 281.807 120.797 282.042 120.429C283.101 118.768 283.071 116.357 281.91 113.557C280.758 110.778 278.544 107.765 275.518 105.069C269.464 99.6748 260.311 95.6773 250.326 97.2882C249.941 97.3504 249.567 97.1212 249.448 96.749L249.446 96.7434L249.438 96.7181C249.43 96.6946 249.418 96.658 249.401 96.6091C249.366 96.5112 249.313 96.3641 249.239 96.1741C249.09 95.794 248.86 95.2428 248.537 94.5711C247.89 93.2265 246.871 91.4057 245.391 89.5091C242.432 85.719 237.648 81.6449 230.288 80.4234C220.012 78.7178 213.249 81.2167 208.902 84.8678C208.72 85.0207 208.542 85.1757 208.368 85.3327C207.978 85.6849 207.608 86.047 207.257 86.4164C204.007 89.8405 202.429 93.899 201.897 96.7009C201.272 99.9968 201.715 103.072 202.496 106.134C202.543 106.315 202.59 106.496 202.639 106.677C202.926 107.753 203.248 108.82 203.573 109.897L203.573 109.897L203.573 109.898C203.656 110.172 203.738 110.448 203.821 110.724C204.28 112.258 204.727 113.815 205.053 115.398C205.707 118.576 205.878 121.891 204.69 125.465C203.633 128.647 201.519 131.97 197.827 135.556C197.781 135.601 197.735 135.645 197.689 135.69C198.075 135.718 198.52 135.741 199.015 135.752C200.876 135.792 203.431 135.66 206.209 134.972C209.964 134.042 214.134 132.1 217.57 128.169C218.365 127.26 219.12 126.245 219.822 125.111C220.558 123.923 221.235 122.604 221.836 121.142L221.838 121.138L221.839 121.136C222.007 120.734 222.468 120.542 222.871 120.709C223.273 120.875 223.465 121.336 223.299 121.739C222.459 123.78 221.479 125.56 220.398 127.111C216.475 132.741 211.229 135.357 206.589 136.505C203.642 137.235 200.942 137.374 198.98 137.331C197.998 137.31 197.198 137.243 196.64 137.181C196.36 137.15 196.142 137.12 195.99 137.097C195.915 137.086 195.856 137.076 195.816 137.07L195.768 137.062L195.755 137.059L195.75 137.058C195.75 137.058 195.748 137.058 195.89 136.281L195.748 137.058C195.451 137.004 195.212 136.785 195.13 136.495C195.048 136.205 195.139 135.893 195.364 135.692C195.651 135.435 195.929 135.18 196.199 134.927C200.094 131.268 202.186 127.99 203.191 124.966C204.264 121.741 204.125 118.726 203.506 115.716C203.195 114.206 202.765 112.706 202.308 111.177C202.227 110.907 202.146 110.637 202.064 110.365L202.063 110.364L201.912 109.863C201.582 108.765 201.253 107.65 200.966 106.524C200.158 103.36 199.658 100.027 200.345 96.4065C201.012 92.8929 203.172 87.6177 207.886 83.6581Z" fill="#0082AA"/>
</g>
<mask id="mask11_4937_464" style="mask-type:alpha" maskUnits="userSpaceOnUse" x="136" y="60" width="227" height="227">
<path fill-rule="evenodd" clip-rule="evenodd" d="M249.501 60.156C186.902 60.156 136.156 110.902 136.156 173.5V173.5C136.156 236.099 186.902 286.845 249.501 286.845V286.845C312.099 286.845 362.844 236.099 362.844 173.5V173.5" fill="white"/>
</mask>
<g mask="url(#mask11_4937_464)">
<path fill-rule="evenodd" clip-rule="evenodd" d="M245.978 96.7456C250.553 95.5561 255.456 95.1995 259.351 95.4832C259.786 95.5149 260.113 95.8933 260.081 96.3284C260.05 96.7635 259.671 97.0906 259.236 97.0589C255.508 96.7872 250.778 97.1298 246.376 98.2745C241.956 99.424 237.981 101.352 235.634 104.161C235.354 104.495 234.856 104.54 234.521 104.26C234.187 103.98 234.142 103.482 234.422 103.147C237.076 99.9718 241.422 97.9303 245.978 96.7456Z" fill="#0082AA"/>
</g>
<mask id="mask12_4937_464" style="mask-type:alpha" maskUnits="userSpaceOnUse" x="136" y="60" width="227" height="227">
<path fill-rule="evenodd" clip-rule="evenodd" d="M249.501 60.156C186.902 60.156 136.156 110.902 136.156 173.5V173.5C136.156 236.099 186.902 286.845 249.501 286.845V286.845C312.099 286.845 362.844 236.099 362.844 173.5V173.5" fill="white"/>
</mask>
<g mask="url(#mask12_4937_464)">
<path fill-rule="evenodd" clip-rule="evenodd" d="M271.286 135.55C271.272 136.517 271.779 137.308 272.417 137.318C273.056 137.326 273.586 136.551 273.6 135.582C273.616 134.616 273.107 133.824 272.469 133.816C271.829 133.806 271.301 134.582 271.286 135.55" fill="#323264"/>
</g>
<mask id="mask13_4937_464" style="mask-type:alpha" maskUnits="userSpaceOnUse" x="136" y="60" width="227" height="227">
<path fill-rule="evenodd" clip-rule="evenodd" d="M249.501 60.156C186.902 60.156 136.156 110.902 136.156 173.5V173.5C136.156 236.099 186.902 286.845 249.501 286.845V286.845C312.099 286.845 362.844 236.099 362.844 173.5V173.5" fill="white"/>
</mask>
<g mask="url(#mask13_4937_464)">
<path fill-rule="evenodd" clip-rule="evenodd" d="M253.675 134.604C253.655 135.572 254.156 136.366 254.795 136.378C255.433 136.392 255.968 135.619 255.988 134.651C256.007 133.685 255.507 132.89 254.868 132.877C254.229 132.863 253.694 133.637 253.675 134.604" fill="#323264"/>
</g>
<mask id="mask14_4937_464" style="mask-type:alpha" maskUnits="userSpaceOnUse" x="136" y="60" width="227" height="227">
<path fill-rule="evenodd" clip-rule="evenodd" d="M249.501 60.156C186.902 60.156 136.156 110.902 136.156 173.5V173.5C136.156 236.099 186.902 286.845 249.501 286.845V286.845C312.099 286.845 362.844 236.099 362.844 173.5V173.5C362.844 110.902 312.099 60.156 249.501 60.156Z" fill="white"/>
</mask>
<g mask="url(#mask14_4937_464)">
<path fill-rule="evenodd" clip-rule="evenodd" d="M236.21 188.527C237.22 191.919 237.067 196.455 235.301 202.19L235.301 202.19C232.102 212.58 229.505 217.361 227.127 221.741C226.827 222.292 226.531 222.837 226.238 223.387C223.653 228.225 221.24 233.439 218.415 246.499C216.032 257.51 214.775 266.867 213.767 274.372C213.366 277.356 213.004 280.048 212.627 282.435C211.97 286.59 211.255 289.886 210.156 292.119C209.601 293.247 208.922 294.161 208.05 294.772C207.163 295.395 206.135 295.664 204.969 295.595L204.969 295.595L204.831 295.587C203.536 295.509 199.863 295.291 196.396 294.726C194.603 294.434 192.82 294.043 191.44 293.514C190.751 293.249 190.122 292.936 189.634 292.554C189.15 292.175 188.731 291.667 188.629 291.008L189.41 290.887L188.629 291.008C186.733 278.703 187.424 259.579 191.194 240.318C194.963 221.065 201.832 201.544 212.387 188.516C217.29 182.465 224.749 179.831 230.228 181.866C233.002 182.897 235.192 185.107 236.21 188.527ZM229.678 183.347C225.027 181.619 218.236 183.807 213.615 189.511L213.615 189.511C203.296 202.246 196.492 221.473 192.745 240.622C188.998 259.763 188.331 278.694 190.191 290.767L189.411 290.887L190.191 290.767C190.207 290.876 190.292 291.062 190.609 291.31C190.922 291.556 191.39 291.802 192.006 292.039C193.235 292.51 194.891 292.881 196.65 293.167C200.035 293.718 203.64 293.933 204.931 294.01L205.063 294.018C205.91 294.068 206.577 293.876 207.143 293.479C207.724 293.072 208.254 292.407 208.738 291.422C209.719 289.429 210.407 286.357 211.067 282.188C211.436 279.852 211.793 277.193 212.191 274.23C213.202 266.712 214.474 257.242 216.871 246.165C219.725 232.973 222.186 227.619 224.844 222.642C225.139 222.09 225.436 221.543 225.736 220.991C228.099 216.64 230.638 211.965 233.792 201.725C235.503 196.166 235.586 191.968 234.696 188.978C233.814 186.016 231.969 184.198 229.678 183.347Z" fill="#323264"/>
</g>
<mask id="mask15_4937_464" style="mask-type:alpha" maskUnits="userSpaceOnUse" x="136" y="60" width="227" height="227">
<path fill-rule="evenodd" clip-rule="evenodd" d="M249.501 60.156C186.902 60.156 136.156 110.902 136.156 173.5V173.5C136.156 236.099 186.902 286.845 249.501 286.845V286.845C312.099 286.845 362.844 236.099 362.844 173.5V173.5" fill="white"/>
</mask>
<g mask="url(#mask15_4937_464)">
<path fill-rule="evenodd" clip-rule="evenodd" d="M136.406 235.493C129.095 253.12 125.654 293.983 125.654 293.983L142.262 298.1L152.949 257.25L153.429 280.22L219.696 284.736V253.217L230.896 298.1L246.159 292.639C249.296 233.507 226.354 208.883 212.977 202.806C197.883 195.949 153.316 194.726 136.406 235.493" fill="#F5F5F0"/>
</g>
<mask id="mask16_4937_464" style="mask-type:alpha" maskUnits="userSpaceOnUse" x="136" y="60" width="227" height="227">
<path fill-rule="evenodd" clip-rule="evenodd" d="M249.501 60.156C186.902 60.156 136.156 110.902 136.156 173.5V173.5C136.156 236.099 186.902 286.845 249.501 286.845V286.845C312.099 286.845 362.844 236.099 362.844 173.5V173.5" fill="white"/>
</mask>
<g mask="url(#mask16_4937_464)">
<path fill-rule="evenodd" clip-rule="evenodd" d="M175.465 175.148C169.897 180.853 167.113 174.111 167.113 174.111C161.548 177.742 160.789 170.739 161.548 169.702C157.247 172.815 154.968 167.367 156.486 163.996C151.932 164.515 154.463 158.809 154.463 158.809C151.173 158.03 151.932 152.326 155.222 152.584C150.921 150.51 154.209 147.138 154.209 147.138C151.173 147.138 151.72 139.099 157.646 139.877C153.197 135.468 158.51 131.577 161.294 132.614C160.281 130.281 163.065 127.427 165.09 128.984C163.825 125.094 169.391 121.462 172.428 125.353C172.681 120.166 178.248 119.388 179.261 122.24C179.767 114.72 186.851 117.412 187.358 120.604C189.129 116.535 194.696 118.092 194.19 121.722C199.758 116.535 202.539 121.462 202.287 123.279C206.588 120.685 208.361 123.019 207.348 125.612C211.143 124.834 214.568 130.815 211.395 133.133C215.192 133.392 214.348 139.877 212.645 140.654C215.192 142.73 212.916 146.878 209.878 146.36C206.842 145.841 175.465 175.148 175.465 175.148" fill="#0A1414"/>
</g>
<mask id="mask17_4937_464" style="mask-type:alpha" maskUnits="userSpaceOnUse" x="136" y="60" width="227" height="227">
<path fill-rule="evenodd" clip-rule="evenodd" d="M249.501 60.156C186.902 60.156 136.156 110.902 136.156 173.5V173.5C136.156 236.099 186.902 286.845 249.501 286.845V286.845C312.099 286.845 362.844 236.099 362.844 173.5V173.5" fill="white"/>
</mask>
<g mask="url(#mask17_4937_464)">
<path fill-rule="evenodd" clip-rule="evenodd" d="M158.45 280.455L216.686 284.715C220.717 308.01 220.269 362.662 220.269 362.662C213.997 371.622 191.983 365.35 191.983 365.35L188.048 324.897L184.747 363.143C178.16 371.206 153.521 367.59 150.834 364.007C150.387 361.318 143.218 303.073 158.45 280.455" fill="#E52600"/>
</g>
<mask id="mask18_4937_464" style="mask-type:alpha" maskUnits="userSpaceOnUse" x="136" y="60" width="227" height="227">
<path fill-rule="evenodd" clip-rule="evenodd" d="M249.501 60.156C186.902 60.156 136.156 110.902 136.156 173.5V173.5C136.156 236.099 186.902 286.845 249.501 286.845V286.845C312.099 286.845 362.844 236.099 362.844 173.5V173.5" fill="white"/>
</mask>
<g mask="url(#mask18_4937_464)">
<path fill-rule="evenodd" clip-rule="evenodd" d="M166.583 156.855C160.618 151.928 155.431 157.115 157.246 161.524C159.062 165.933 164.112 168.785 167.484 168.785C169.038 175.788 174.745 183.69 182.007 186.284C182.525 195.361 178.514 199.389 176.179 201.204C178.254 207.169 197.187 210.022 200.558 202.5C197.187 201.204 194.594 192.784 194.594 187.856C203.611 187.607 213.922 179.038 213.145 160.883C212.367 142.73 208.72 137.25 208.72 137.25C202.394 140.141 176.956 135.589 172.288 139.737C167.62 143.889 170.992 155.04 166.583 156.855" fill="#693223"/>
</g>
<mask id="mask19_4937_464" style="mask-type:alpha" maskUnits="userSpaceOnUse" x="136" y="60" width="227" height="227">
<path fill-rule="evenodd" clip-rule="evenodd" d="M249.501 60.156C186.902 60.156 136.156 110.902 136.156 173.5V173.5C136.156 236.099 186.902 286.845 249.501 286.845V286.845C312.099 286.845 362.844 236.099 362.844 173.5V173.5" fill="white"/>
</mask>
<g mask="url(#mask19_4937_464)">
<path fill-rule="evenodd" clip-rule="evenodd" d="M169.424 200.048C169.575 200.458 169.365 200.912 168.955 201.062C153.497 206.744 142.882 216.5 135.745 231.337C128.588 246.214 124.916 266.226 123.447 292.418L123.445 292.443C123.393 293.033 123.874 293.764 125.302 294.502C126.653 295.202 128.546 295.734 130.519 296.04C132.488 296.346 134.467 296.416 135.972 296.232C136.729 296.14 137.319 295.989 137.719 295.802C138.134 295.607 138.201 295.445 138.211 295.405C138.215 295.384 138.221 295.364 138.228 295.344L150.538 257.077C150.661 256.697 151.048 256.468 151.44 256.544C151.832 256.619 152.106 256.976 152.078 257.374L150.532 279.378L218.315 284.467C218.75 284.499 219.076 284.878 219.043 285.313C219.01 285.748 218.631 286.075 218.196 286.042L149.63 280.895C149.196 280.862 148.871 280.485 148.901 280.052L150.045 263.768L139.74 295.802C139.557 296.512 138.975 296.958 138.389 297.233C137.776 297.52 137.001 297.698 136.163 297.801C134.477 298.006 132.347 297.922 130.277 297.601C128.21 297.28 126.134 296.712 124.576 295.906C123.098 295.141 121.732 293.966 121.87 292.318C123.344 266.067 127.03 245.809 134.321 230.652C141.634 215.451 152.56 205.405 168.41 199.58C168.82 199.429 169.274 199.639 169.424 200.048Z" fill="#0082AA"/>
</g>
<mask id="mask20_4937_464" style="mask-type:alpha" maskUnits="userSpaceOnUse" x="136" y="60" width="227" height="227">
<path fill-rule="evenodd" clip-rule="evenodd" d="M249.501 60.156C186.902 60.156 136.156 110.902 136.156 173.5V173.5C136.156 236.099 186.902 286.845 249.501 286.845V286.845C312.099 286.845 362.844 236.099 362.844 173.5V173.5" fill="white"/>
</mask>
<g mask="url(#mask20_4937_464)">
<path fill-rule="evenodd" clip-rule="evenodd" d="M208.161 202.566C208.399 202.2 208.888 202.097 209.254 202.335C224.43 212.227 232.284 225.38 236.807 240.502C240.664 253.397 242.108 267.768 243.615 282.763C243.869 285.298 244.126 287.851 244.396 290.418C244.418 290.63 244.354 290.841 244.22 291.003C244.214 291.012 244.206 291.024 244.195 291.041C244.186 291.056 244.173 291.077 244.157 291.102C244.125 291.152 244.084 291.219 244.042 291.284C243.907 291.494 243.715 291.78 243.453 292.114C242.93 292.781 242.137 293.63 240.976 294.449C238.641 296.096 234.887 297.572 228.998 297.302C228.855 297.296 228.716 297.25 228.596 297.171C228.429 297.059 228.338 296.907 228.314 296.867L228.312 296.864C228.273 296.797 228.239 296.727 228.211 296.665C228.154 296.539 228.093 296.38 228.03 296.2C227.901 295.838 227.742 295.334 227.558 294.718C227.189 293.482 226.707 291.752 226.155 289.7C225.048 285.593 223.65 280.171 222.277 274.769C220.904 269.366 219.557 263.981 218.552 259.946C218.05 257.928 217.633 256.249 217.343 255.073L216.887 253.228C216.887 253.228 216.886 253.226 217.622 253.045L216.886 253.226C216.782 252.803 217.041 252.375 217.464 252.27C217.888 252.166 218.316 252.425 218.42 252.848L217.653 253.037C218.42 252.848 218.42 252.848 218.42 252.848L218.876 254.694C219.167 255.869 219.583 257.548 220.085 259.564C221.089 263.598 222.436 268.981 223.808 274.38C225.18 279.78 226.577 285.193 227.68 289.289C228.232 291.338 228.709 293.05 229.072 294.265C229.254 294.874 229.404 295.348 229.519 295.674C229.527 295.697 229.536 295.72 229.544 295.742C234.838 295.899 238.103 294.542 240.065 293.158C241.081 292.442 241.766 291.706 242.21 291.139C242.432 290.856 242.595 290.613 242.713 290.43C242.745 290.379 242.771 290.338 242.795 290.3C242.534 287.812 242.286 285.343 242.04 282.895C240.531 267.891 239.104 253.692 235.294 240.954C230.852 226.105 223.186 213.302 208.391 203.659C208.026 203.421 207.922 202.931 208.161 202.566Z" fill="#0082AA"/>
</g>
<mask id="mask21_4937_464" style="mask-type:alpha" maskUnits="userSpaceOnUse" x="136" y="60" width="227" height="227">
<path fill-rule="evenodd" clip-rule="evenodd" d="M249.501 60.156C186.902 60.156 136.156 110.902 136.156 173.5V173.5C136.156 236.099 186.902 286.845 249.501 286.845V286.845C312.099 286.845 362.844 236.099 362.844 173.5V173.5" fill="white"/>
</mask>
<g mask="url(#mask21_4937_464)">
<path fill-rule="evenodd" clip-rule="evenodd" d="M143.06 217.897C143.197 217.483 143.644 217.258 144.058 217.396C153.221 220.433 169.193 222.105 184.829 222.172C192.634 222.206 200.327 221.839 207.01 221.049C213.711 220.257 219.335 219.047 223.039 217.422C223.439 217.247 223.904 217.429 224.08 217.828C224.255 218.228 224.073 218.693 223.674 218.869C219.751 220.589 213.94 221.821 207.196 222.618C200.435 223.417 192.676 223.786 184.822 223.752C169.14 223.685 152.966 222.013 143.561 218.895C143.147 218.758 142.923 218.311 143.06 217.897Z" fill="#0082AA"/>
</g>
<mask id="mask22_4937_464" style="mask-type:alpha" maskUnits="userSpaceOnUse" x="136" y="60" width="227" height="227">
<path fill-rule="evenodd" clip-rule="evenodd" d="M249.501 60.156C186.902 60.156 136.156 110.902 136.156 173.5V173.5C136.156 236.099 186.902 286.845 249.501 286.845V286.845C312.099 286.845 362.844 236.099 362.844 173.5V173.5" fill="white"/>
</mask>
<g mask="url(#mask22_4937_464)">
<path fill-rule="evenodd" clip-rule="evenodd" d="M137.266 227.157C137.412 226.747 137.864 226.532 138.275 226.679C148.592 230.356 166.988 232.815 185.149 233.116C194.219 233.266 203.2 232.877 211.054 231.84C218.925 230.802 225.594 229.121 230.085 226.726C230.47 226.52 230.948 226.666 231.153 227.051C231.359 227.436 231.213 227.914 230.828 228.12C226.087 230.649 219.193 232.36 211.261 233.407C203.311 234.456 194.249 234.846 185.123 234.695C166.896 234.394 148.3 231.929 137.745 228.167C137.334 228.02 137.119 227.568 137.266 227.157Z" fill="#0082AA"/>
</g>
<mask id="mask23_4937_464" style="mask-type:alpha" maskUnits="userSpaceOnUse" x="136" y="60" width="227" height="227">
<path fill-rule="evenodd" clip-rule="evenodd" d="M249.501 60.156C186.902 60.156 136.156 110.902 136.156 173.5V173.5C136.156 236.099 186.902 286.845 249.501 286.845V286.845C312.099 286.845 362.844 236.099 362.844 173.5V173.5" fill="white"/>
</mask>
<g mask="url(#mask23_4937_464)">
<path fill-rule="evenodd" clip-rule="evenodd" d="M133.032 233.501C133.273 233.137 133.763 233.037 134.127 233.277C139.606 236.893 147.42 239.576 156.403 241.396C165.374 243.213 175.453 244.16 185.422 244.339C195.39 244.518 205.229 243.931 213.716 242.688C222.222 241.442 229.302 239.547 233.797 237.15C234.182 236.944 234.66 237.09 234.866 237.475C235.071 237.86 234.925 238.338 234.54 238.544C229.803 241.07 222.508 242.996 213.945 244.251C205.362 245.508 195.436 246.099 185.393 245.919C175.351 245.738 165.173 244.784 156.089 242.944C147.018 241.106 138.979 238.372 133.257 234.596C132.892 234.355 132.792 233.865 133.032 233.501Z" fill="#0082AA"/>
</g>
<mask id="mask24_4937_464" style="mask-type:alpha" maskUnits="userSpaceOnUse" x="136" y="60" width="227" height="227">
<path fill-rule="evenodd" clip-rule="evenodd" d="M249.501 60.156C186.902 60.156 136.156 110.902 136.156 173.5V173.5C136.156 236.099 186.902 286.845 249.501 286.845V286.845C312.099 286.845 362.844 236.099 362.844 173.5V173.5" fill="white"/>
</mask>
<g mask="url(#mask24_4937_464)">
<path fill-rule="evenodd" clip-rule="evenodd" d="M185.169 150.438C183.049 150.438 180.941 151.018 179.754 152.098C179.58 152.256 179.312 152.243 179.154 152.069C178.996 151.896 179.008 151.627 179.182 151.469C180.59 150.188 182.945 149.588 185.169 149.588C186.291 149.588 187.407 149.74 188.387 150.05C189.364 150.359 190.234 150.834 190.832 151.499C190.989 151.673 190.975 151.942 190.801 152.099C190.626 152.256 190.357 152.242 190.2 152.068C189.737 151.552 189.019 151.142 188.131 150.861C187.246 150.581 186.219 150.438 185.169 150.438Z" fill="#0A1414"/>
</g>
<mask id="mask25_4937_464" style="mask-type:alpha" maskUnits="userSpaceOnUse" x="136" y="60" width="227" height="227">
<path fill-rule="evenodd" clip-rule="evenodd" d="M249.501 60.156C186.902 60.156 136.156 110.902 136.156 173.5V173.5C136.156 236.099 186.902 286.845 249.501 286.845V286.845C312.099 286.845 362.844 236.099 362.844 173.5V173.5" fill="white"/>
</mask>
<g mask="url(#mask25_4937_464)">
<path fill-rule="evenodd" clip-rule="evenodd" d="M201.66 149.052C203.781 148.604 206.326 148.792 208.271 150.586C208.443 150.745 208.454 151.014 208.295 151.186C208.136 151.359 207.867 151.37 207.694 151.211C206.022 149.669 203.798 149.47 201.836 149.884C200.858 150.09 199.965 150.445 199.27 150.845C198.558 151.253 198.111 151.674 197.95 151.981L197.573 151.784L197.95 151.981C197.598 152.653 197.587 153.672 197.83 154.972C198.07 156.253 198.536 157.711 199.031 159.2C199.089 159.374 199.147 159.548 199.205 159.722C199.642 161.03 200.082 162.346 200.37 163.534C200.693 164.863 200.855 166.129 200.543 167.083C200.303 167.819 199.788 168.282 199.157 168.53C198.541 168.771 197.821 168.807 197.122 168.728C196.418 168.649 195.705 168.45 195.083 168.192C194.467 167.936 193.912 167.61 193.543 167.258C193.374 167.096 193.368 166.826 193.53 166.657C193.692 166.487 193.961 166.481 194.131 166.643C194.396 166.897 194.847 167.174 195.409 167.407C195.965 167.638 196.601 167.814 197.217 167.883C197.837 167.953 198.405 167.911 198.847 167.738C199.273 167.571 199.583 167.283 199.735 166.819L199.735 166.819C199.966 166.113 199.866 165.057 199.544 163.735C199.265 162.584 198.837 161.305 198.399 159.991C198.341 159.818 198.283 159.643 198.224 159.468C197.731 157.985 197.247 156.475 196.995 155.128C196.746 153.8 196.702 152.53 197.197 151.586C197.471 151.063 198.09 150.541 198.846 150.107C199.62 149.663 200.596 149.276 201.66 149.052Z" fill="#0A1414"/>
</g>
<mask id="mask26_4937_464" style="mask-type:alpha" maskUnits="userSpaceOnUse" x="136" y="60" width="227" height="227">
<path fill-rule="evenodd" clip-rule="evenodd" d="M249.501 60.156C186.902 60.156 136.156 110.902 136.156 173.5V173.5C136.156 236.099 186.902 286.845 249.501 286.845V286.845C312.099 286.845 362.844 236.099 362.844 173.5V173.5" fill="white"/>
</mask>
<g mask="url(#mask26_4937_464)">
<path fill-rule="evenodd" clip-rule="evenodd" d="M189.47 174.342C189.673 174.261 189.903 174.36 189.984 174.563C190.811 176.633 192.877 177.696 194.909 177.755C196.954 177.813 198.791 176.861 199.278 175.097C199.336 174.887 199.554 174.763 199.764 174.821C199.975 174.879 200.099 175.097 200.04 175.308C199.42 177.556 197.136 178.61 194.886 178.545C192.623 178.481 190.222 177.291 189.249 174.856C189.168 174.653 189.267 174.423 189.47 174.342Z" fill="#0A1414"/>
</g>
<mask id="mask27_4937_464" style="mask-type:alpha" maskUnits="userSpaceOnUse" x="136" y="60" width="227" height="227">
<path fill-rule="evenodd" clip-rule="evenodd" d="M249.501 60.156C186.902 60.156 136.156 110.902 136.156 173.5V173.5C136.156 236.099 186.902 286.845 249.501 286.845V286.845C312.099 286.845 362.844 236.099 362.844 173.5V173.5" fill="white"/>
</mask>
<g mask="url(#mask27_4937_464)">
<path fill-rule="evenodd" clip-rule="evenodd" d="M187.427 156.942C187.427 157.969 186.881 158.333 186.209 158.333C185.536 158.333 184.992 157.969 184.992 156.942C184.992 155.915 185.536 155.083 186.209 155.083C186.881 155.083 187.427 155.915 187.427 156.942" fill="#0A1414"/>
</g>
<mask id="mask28_4937_464" style="mask-type:alpha" maskUnits="userSpaceOnUse" x="136" y="60" width="227" height="227">
<path fill-rule="evenodd" clip-rule="evenodd" d="M249.501 60.156C186.902 60.156 136.156 110.902 136.156 173.5V173.5C136.156 236.099 186.902 286.845 249.501 286.845V286.845C312.099 286.845 362.844 236.099 362.844 173.5V173.5" fill="white"/>
</mask>
<g mask="url(#mask28_4937_464)">
<path fill-rule="evenodd" clip-rule="evenodd" d="M204.546 156.486C204.546 157.513 204 157.877 203.329 157.877C202.656 157.877 202.112 157.513 202.112 156.486C202.112 155.459 202.656 154.627 203.329 154.627C204 154.627 204.546 155.459 204.546 156.486" fill="#0A1414"/>
</g>
<mask id="mask29_4937_464" style="mask-type:alpha" maskUnits="userSpaceOnUse" x="136" y="60" width="227" height="227">
<path fill-rule="evenodd" clip-rule="evenodd" d="M249.501 60.156C186.902 60.156 136.156 110.902 136.156 173.5V173.5C136.156 236.099 186.902 286.845 249.501 286.845V286.845C312.099 286.845 362.844 236.099 362.844 173.5V173.5" fill="white"/>
</mask>
<g mask="url(#mask29_4937_464)">
<path fill-rule="evenodd" clip-rule="evenodd" d="M369.66 252.786C376.971 270.413 380.412 311.276 380.412 311.276L363.805 315.395L353.118 274.543L352.637 297.514L286.371 302.03V270.511L275.171 315.395L259.907 309.932C256.771 250.8 279.713 226.177 293.089 220.099C308.184 213.242 352.751 212.019 369.66 252.786" fill="#0082AA"/>
</g>
<mask id="mask30_4937_464" style="mask-type:alpha" maskUnits="userSpaceOnUse" x="136" y="60" width="227" height="227">
<path fill-rule="evenodd" clip-rule="evenodd" d="M249.501 60.156C186.902 60.156 136.156 110.902 136.156 173.5V173.5C136.156 236.099 186.902 286.845 249.501 286.845V286.845C312.099 286.845 362.844 236.099 362.844 173.5V173.5" fill="white"/>
</mask>
<g mask="url(#mask30_4937_464)">
<path fill-rule="evenodd" clip-rule="evenodd" d="M302.87 204.34C295.753 204.34 286.36 202.924 283.57 194.378C281.545 188.171 279.388 128.665 328.075 146.731C344.182 146.731 355.248 160.634 353.369 183.659C351.489 206.683 341.679 204.71 324.561 204.34C307.443 203.969 302.87 204.34 302.87 204.34" fill="#E52600"/>
</g>
<mask id="mask31_4937_464" style="mask-type:alpha" maskUnits="userSpaceOnUse" x="136" y="60" width="227" height="227">
<path fill-rule="evenodd" clip-rule="evenodd" d="M249.501 60.156C186.902 60.156 136.156 110.902 136.156 173.5V173.5C136.156 236.099 186.902 286.845 249.501 286.845V286.845C312.099 286.845 362.844 236.099 362.844 173.5V173.5C362.844 110.902 312.099 60.156 249.501 60.156Z" fill="white"/>
</mask>
<g mask="url(#mask31_4937_464)">
<path fill-rule="evenodd" clip-rule="evenodd" d="M280.821 187.998C280.953 190.154 281.192 191.687 281.422 192.39C282.752 196.467 285.65 198.85 289.121 200.226C292.603 201.607 296.638 201.961 300.164 201.962L300.202 201.96C300.242 201.957 300.301 201.953 300.382 201.948C300.544 201.939 300.793 201.925 301.144 201.911C301.846 201.881 302.958 201.847 304.604 201.823C307.896 201.777 313.325 201.777 321.889 201.963C323.069 201.988 324.211 202.021 325.314 202.053C328.236 202.137 330.895 202.214 333.315 202.125C336.644 202.003 339.441 201.569 341.749 200.451C346.293 198.25 349.187 193.265 350.123 181.799C351.056 170.368 348.99 161.506 344.77 155.519C340.563 149.551 334.172 146.375 326.285 146.375H326.183L326.089 146.34C314.007 141.856 305.12 142.164 298.601 145.135C292.076 148.108 287.814 153.797 285.088 160.303C282.362 166.81 281.196 174.086 280.841 180.133C280.663 183.154 280.689 185.86 280.821 187.998ZM300.208 203.089H300.186C296.601 203.089 292.39 202.735 288.705 201.274C285.003 199.806 281.809 197.208 280.35 192.739C280.073 191.89 279.829 190.233 279.696 188.067C279.561 185.882 279.536 183.132 279.716 180.067C280.076 173.943 281.257 166.531 284.049 159.868C286.84 153.203 291.264 147.239 298.133 144.109C304.989 140.985 314.172 140.734 326.386 145.248C334.562 145.275 341.273 148.602 345.691 154.869C350.113 161.142 352.192 170.297 351.246 181.891C350.303 193.449 347.352 198.989 342.241 201.465C339.722 202.685 336.739 203.128 333.356 203.251C330.896 203.341 328.182 203.263 325.246 203.178C324.149 203.147 323.022 203.114 321.865 203.089C313.311 202.904 307.895 202.904 304.62 202.95C302.983 202.973 301.881 203.008 301.191 203.037C300.846 203.051 300.604 203.064 300.449 203.073C300.372 203.078 300.316 203.082 300.28 203.084L300.242 203.087L300.233 203.087L300.208 203.089Z" fill="#AA0A0A"/>
</g>
<mask id="mask32_4937_464" style="mask-type:alpha" maskUnits="userSpaceOnUse" x="136" y="60" width="227" height="227">
<path fill-rule="evenodd" clip-rule="evenodd" d="M249.501 60.156C186.902 60.156 136.156 110.902 136.156 173.5V173.5C136.156 236.099 186.902 286.845 249.501 286.845V286.845C312.099 286.845 362.844 236.099 362.844 173.5V173.5" fill="white"/>
</mask>
<g mask="url(#mask32_4937_464)">
<path fill-rule="evenodd" clip-rule="evenodd" d="M354.771 298.484C370.169 320.741 365.07 442.76 364.615 445.405C361.898 448.932 328.032 455.731 321.373 447.797L321.092 346.784L313.362 445.405C313.362 445.405 284.642 451.468 278.301 442.651C278.301 442.651 281.496 324.687 285.572 301.763C295.916 296.903 290.893 219.006 290.893 219.006L296.563 217.242L298.509 244.587L336.748 244.262L338.691 219.623L343.043 221.291L343.311 246.367C343.311 246.367 343.603 292.636 354.771 298.484" fill="#323264"/>
</g>
<mask id="mask33_4937_464" style="mask-type:alpha" maskUnits="userSpaceOnUse" x="136" y="60" width="227" height="227">
<path fill-rule="evenodd" clip-rule="evenodd" d="M249.501 60.156C186.902 60.156 136.156 110.902 136.156 173.5V173.5C136.156 236.099 186.902 286.845 249.501 286.845V286.845C312.099 286.845 362.844 236.099 362.844 173.5V173.5" fill="white"/>
</mask>
<g mask="url(#mask33_4937_464)">
<path fill-rule="evenodd" clip-rule="evenodd" d="M336.535 178.758C342.283 174.008 347.282 179.902 345.532 184.151C343.782 188.399 338.917 190.254 335.668 190.254C334.168 197.002 329.565 204.616 322.567 207.116C322.067 215.862 325.933 219.744 328.182 221.494C326.183 227.242 307.937 229.992 304.688 222.744C307.937 221.494 310.438 213.38 310.438 208.631C301.747 208.39 291.144 200.093 292.561 182.64C293.467 171.471 295.036 167.913 295.036 167.913C306.406 168.242 318.161 164.73 332.825 161.369C336.28 166.297 334.157 177.049 336.535 178.758" fill="#F5AA6E"/>
</g>
<mask id="mask34_4937_464" style="mask-type:alpha" maskUnits="userSpaceOnUse" x="136" y="60" width="227" height="227">
<path fill-rule="evenodd" clip-rule="evenodd" d="M249.501 60.156C186.902 60.156 136.156 110.902 136.156 173.5V173.5C136.156 236.099 186.902 286.845 249.501 286.845V286.845C312.099 286.845 362.844 236.099 362.844 173.5V173.5" fill="white"/>
</mask>
<g mask="url(#mask34_4937_464)">
<path fill-rule="evenodd" clip-rule="evenodd" d="M320.369 171.741C322.514 171.741 324.786 172.32 326.147 173.557C326.32 173.714 326.332 173.981 326.175 174.154C326.018 174.327 325.751 174.339 325.578 174.182C324.437 173.145 322.41 172.587 320.369 172.587C319.359 172.587 318.37 172.724 317.519 172.994C316.665 173.264 315.976 173.658 315.531 174.152C315.375 174.326 315.107 174.34 314.934 174.184C314.76 174.027 314.746 173.76 314.902 173.587C315.481 172.944 316.322 172.485 317.264 172.187C318.211 171.888 319.287 171.741 320.369 171.741Z" fill="#323264"/>
</g>
<mask id="mask35_4937_464" style="mask-type:alpha" maskUnits="userSpaceOnUse" x="136" y="60" width="227" height="227">
<path fill-rule="evenodd" clip-rule="evenodd" d="M249.501 60.156C186.902 60.156 136.156 110.902 136.156 173.5V173.5C136.156 236.099 186.902 286.845 249.501 286.845V286.845C312.099 286.845 362.844 236.099 362.844 173.5V173.5" fill="white"/>
</mask>
<g mask="url(#mask35_4937_464)">
<path fill-rule="evenodd" clip-rule="evenodd" d="M304.246 172.085C302.377 171.676 300.278 171.847 298.672 173.327C298.501 173.486 298.233 173.475 298.075 173.303C297.916 173.131 297.927 172.864 298.099 172.706C299.979 170.973 302.399 170.815 304.426 171.259C305.443 171.481 306.378 171.858 307.128 172.279C307.865 172.693 308.466 173.177 308.769 173.637C310.322 176.003 309.389 178.648 308.382 180.916C308.231 181.258 308.078 181.59 307.929 181.914C307.566 182.703 307.225 183.444 306.982 184.147C306.64 185.141 306.541 185.938 306.798 186.567L306.798 186.567C307.214 187.589 308.086 188.326 309.048 188.635C310.009 188.943 311.013 188.812 311.736 188.169C311.91 188.014 312.178 188.03 312.333 188.204C312.488 188.379 312.472 188.646 312.298 188.801C311.306 189.683 309.972 189.819 308.79 189.44C307.608 189.061 306.532 188.157 306.015 186.886C305.636 185.958 305.825 184.908 306.183 183.871C306.44 183.126 306.808 182.325 307.179 181.519C307.324 181.204 307.47 180.887 307.609 180.573C308.632 178.269 309.337 176.043 308.062 174.102L308.062 174.101C307.869 173.808 307.405 173.405 306.713 173.016C306.034 172.634 305.177 172.289 304.246 172.085Z" fill="#323264"/>
</g>
<mask id="mask36_4937_464" style="mask-type:alpha" maskUnits="userSpaceOnUse" x="136" y="60" width="227" height="227">
<path fill-rule="evenodd" clip-rule="evenodd" d="M249.501 60.156C186.902 60.156 136.156 110.902 136.156 173.5V173.5C136.156 236.099 186.902 286.845 249.501 286.845V286.845C312.099 286.845 362.844 236.099 362.844 173.5V173.5" fill="white"/>
</mask>
<g mask="url(#mask36_4937_464)">
<path fill-rule="evenodd" clip-rule="evenodd" d="M306.294 195.136C306.519 195.074 306.752 195.206 306.814 195.431C307.292 197.165 308.883 198.258 310.585 198.41C312.269 198.56 314.008 197.781 314.797 195.806C314.883 195.589 315.129 195.484 315.346 195.57C315.563 195.657 315.669 195.903 315.582 196.12C314.637 198.486 312.517 199.431 310.51 199.252C308.522 199.075 306.587 197.789 305.999 195.656C305.937 195.431 306.069 195.198 306.294 195.136Z" fill="#323264"/>
</g>
<mask id="mask37_4937_464" style="mask-type:alpha" maskUnits="userSpaceOnUse" x="136" y="60" width="227" height="227">
<path fill-rule="evenodd" clip-rule="evenodd" d="M249.501 60.156C186.902 60.156 136.156 110.902 136.156 173.5V173.5C136.156 236.099 186.902 286.845 249.501 286.845V286.845C312.099 286.845 362.844 236.099 362.844 173.5V173.5" fill="white"/>
</mask>
<g mask="url(#mask37_4937_464)">
<path fill-rule="evenodd" clip-rule="evenodd" d="M318.195 178.841C318.195 179.831 318.719 180.181 319.366 180.181C320.014 180.181 320.539 179.831 320.539 178.841C320.539 177.852 320.014 177.05 319.366 177.05C318.719 177.05 318.195 177.852 318.195 178.841" fill="#323264"/>
</g>
<mask id="mask38_4937_464" style="mask-type:alpha" maskUnits="userSpaceOnUse" x="136" y="60" width="227" height="227">
<path fill-rule="evenodd" clip-rule="evenodd" d="M249.501 60.156C186.902 60.156 136.156 110.902 136.156 173.5V173.5C136.156 236.099 186.902 286.845 249.501 286.845V286.845C312.099 286.845 362.844 236.099 362.844 173.5V173.5" fill="white"/>
</mask>
<g mask="url(#mask38_4937_464)">
<path fill-rule="evenodd" clip-rule="evenodd" d="M301.698 178.402C301.698 179.391 302.222 179.742 302.87 179.742C303.517 179.742 304.043 179.391 304.043 178.402C304.043 177.412 303.517 176.61 302.87 176.61C302.222 176.61 301.698 177.412 301.698 178.402" fill="#323264"/>
</g>
<mask id="mask39_4937_464" style="mask-type:alpha" maskUnits="userSpaceOnUse" x="136" y="60" width="227" height="227">
<path fill-rule="evenodd" clip-rule="evenodd" d="M249.501 60.156C186.902 60.156 136.156 110.902 136.156 173.5V173.5C136.156 236.099 186.902 286.845 249.501 286.845V286.845C312.099 286.845 362.844 236.099 362.844 173.5V173.5C362.844 110.902 312.099 60.156 249.501 60.156Z" fill="white"/>
</mask>
<g mask="url(#mask39_4937_464)">
<path fill-rule="evenodd" clip-rule="evenodd" d="M287.481 169.187V166.62L295.26 167.918V170.467L287.481 169.187Z" fill="#284B9B"/>
</g>
<mask id="mask40_4937_464" style="mask-type:alpha" maskUnits="userSpaceOnUse" x="136" y="60" width="227" height="227">
<path fill-rule="evenodd" clip-rule="evenodd" d="M249.501 60.156C186.902 60.156 136.156 110.902 136.156 173.5V173.5C136.156 236.099 186.902 286.845 249.501 286.845V286.845C312.099 286.845 362.844 236.099 362.844 173.5V173.5C362.844 110.902 312.099 60.156 249.501 60.156Z" fill="white"/>
</mask>
<g mask="url(#mask40_4937_464)">
<path fill-rule="evenodd" clip-rule="evenodd" d="M303.143 259.283C303.158 258.971 303.416 258.726 303.728 258.726H332.514C332.808 258.726 333.056 258.944 333.094 259.235L332.514 259.311C333.094 259.235 333.094 259.235 333.094 259.236L333.095 259.237L333.095 259.241L333.097 259.257L333.105 259.317C333.111 259.369 333.12 259.445 333.131 259.545C333.153 259.743 333.182 260.032 333.214 260.399C333.278 261.134 333.351 262.181 333.387 263.436C333.458 265.943 333.383 269.297 332.79 272.658C332.198 276.011 331.082 279.424 329.031 282.004C326.959 284.61 323.955 286.334 319.698 286.305C315.909 286.28 312.902 285.5 310.544 284.076C308.181 282.65 306.511 280.604 305.358 278.121C303.067 273.187 302.797 266.479 303.143 259.283ZM331.992 259.896H304.286C303.982 266.864 304.316 273.099 306.419 277.628C307.49 279.935 309.016 281.788 311.148 283.075C313.285 284.364 316.072 285.111 319.706 285.135C323.59 285.161 326.258 283.611 328.115 281.276C329.993 278.914 331.062 275.718 331.638 272.455C332.213 269.2 332.288 265.931 332.217 263.469C332.182 262.24 332.111 261.216 332.049 260.501C332.028 260.264 332.009 260.061 331.992 259.896Z" fill="#F5F5F0"/>
</g>
</svg>
