<svg width="184" height="184" viewBox="0 0 184 184" fill="none" xmlns="http://www.w3.org/2000/svg">
<g clip-path="url(#clip0_6181_13548)">
<path fill-rule="evenodd" clip-rule="evenodd" d="M49.2109 27.3093L51.2024 28.9817C51.2024 28.9817 50.1635 32.2445 47.1333 33.8349C46.262 33.1033 45.9844 32.8701 45.1418 32.1626C47.8682 30.8828 49.2109 27.3093 49.2109 27.3093Z" fill="#E52600"/>
<path fill-rule="evenodd" clip-rule="evenodd" d="M15.3316 84.4585L13.626 86.422C13.626 86.422 10.3845 85.3256 8.84843 82.2656C9.59459 81.4065 9.83238 81.1328 10.5539 80.302C11.785 83.0525 15.3316 84.4585 15.3316 84.4585Z" fill="#E52600"/>
<path fill-rule="evenodd" clip-rule="evenodd" d="M29.2191 120.903L30.8196 118.853C30.8196 118.853 34.1141 119.778 35.808 122.753C35.1078 123.65 34.8847 123.936 34.2075 124.803C32.8344 122.121 29.2191 120.903 29.2191 120.903Z" fill="#284B9B"/>
<path d="M20.0945 134.444L19.3281 133.426C20.4657 133.009 21.4214 132.252 22.1123 131.578C22.503 131.197 22.8189 130.833 23.0459 130.55L23.8409 131.606C23.8164 131.641 23.7894 131.678 23.7601 131.717C23.5782 131.962 23.3048 132.298 22.943 132.657C22.2735 133.323 21.3179 134.052 20.0945 134.444Z" fill="#D9DADA" stroke="#A5AAAA" stroke-width="0.999056"/>
<path fill-rule="evenodd" clip-rule="evenodd" d="M23.0449 129.719L24.453 131.589C24.453 131.589 22.8819 134.24 19.9029 135.02C19.2868 134.202 19.0905 133.941 18.4948 133.15C21.1445 132.58 23.0449 129.719 23.0449 129.719Z" fill="#0082AA"/>
<path fill-rule="evenodd" clip-rule="evenodd" d="M51.5234 44.5403L53.2334 45.1632C53.2334 45.1632 53.1724 47.9935 51.4013 50.2009C50.6532 49.9284 50.4148 49.8416 49.6913 49.578C51.3151 47.7073 51.5234 44.5403 51.5234 44.5403Z" fill="#0082AA"/>
<path fill-rule="evenodd" clip-rule="evenodd" d="M88.6191 47.4658L89.6765 49.8426C89.6765 49.8426 87.3136 52.3194 83.8934 52.4195C83.4308 51.3796 83.2834 51.0483 82.836 50.0427C85.847 50.0885 88.6191 47.4658 88.6191 47.4658Z" fill="#0082AA"/>
<path fill-rule="evenodd" clip-rule="evenodd" d="M90.8242 16.1509L88.5935 14.8619C88.5935 14.8619 89.0462 11.4992 91.7297 9.42549C92.7056 9.98941 93.0167 10.1691 93.9604 10.7144C91.5201 12.4327 90.8242 16.1509 90.8242 16.1509Z" fill="#E52600"/>
<path fill-rule="evenodd" clip-rule="evenodd" d="M118.16 49.0918L119.941 50.1208C119.941 50.1208 119.58 52.8053 117.437 54.4607C116.658 54.0106 116.41 53.8671 115.656 53.4318C117.605 52.06 118.16 49.0918 118.16 49.0918Z" fill="#E52600"/>
<path fill-rule="evenodd" clip-rule="evenodd" d="M100.059 41.2749L101.839 40.2459C101.839 40.2459 103.982 41.9014 104.343 44.5859C103.564 45.0361 103.316 45.1795 102.562 45.6149C102.349 43.2405 100.059 41.2749 100.059 41.2749Z" fill="#284B9B"/>
<path fill-rule="evenodd" clip-rule="evenodd" d="M108.508 42.4579L108.712 41.0026C108.712 41.0026 110.585 40.524 112.253 41.5007C112.164 42.1373 112.135 42.3402 112.049 42.9559C110.62 42.032 108.508 42.4579 108.508 42.4579Z" fill="#E52600"/>
<path fill-rule="evenodd" clip-rule="evenodd" d="M65.2893 40.5072L65.4936 39.052C65.4936 39.052 67.3662 38.5733 69.0345 39.55C68.9451 40.1867 68.9166 40.3896 68.8301 41.0052C67.4015 40.0813 65.2893 40.5072 65.2893 40.5072Z" fill="#284B9B"/>
<path fill-rule="evenodd" clip-rule="evenodd" d="M170.462 10.941L168.641 12.7638C168.641 12.7638 165.513 11.4558 164.206 8.32501C165.003 7.52751 165.256 7.27336 166.027 6.50216C167.054 9.30592 170.462 10.941 170.462 10.941Z" fill="#E52600"/>
<path fill-rule="evenodd" clip-rule="evenodd" d="M89.3599 88.4741L88.408 89.9988C88.408 89.9988 86.0773 89.6011 84.6984 87.6789C85.1149 87.0118 85.2476 86.7993 85.6503 86.1543C86.7876 87.8982 89.3599 88.4741 89.3599 88.4741Z" fill="#E52600"/>
<path fill-rule="evenodd" clip-rule="evenodd" d="M95.0195 84.2036L97.3045 85.4712C97.3045 85.4712 96.9048 88.8893 94.2202 91.0398C93.2206 90.4852 92.902 90.3085 91.9353 89.7722C94.3796 87.9865 95.0195 84.2036 95.0195 84.2036Z" fill="#0082AA"/>
<path fill-rule="evenodd" clip-rule="evenodd" d="M91.4805 96.5576L92.8649 98.7749C92.8649 98.7749 90.8596 101.571 87.4698 102.149C86.8641 101.179 86.6711 100.87 86.0854 99.9315C89.0883 99.5557 91.4805 96.5576 91.4805 96.5576Z" fill="#284B9B"/>
<path fill-rule="evenodd" clip-rule="evenodd" d="M164.646 135.246L167.423 136.149C167.423 136.149 167.712 139.983 165.226 142.914C164.012 142.519 163.625 142.393 162.45 142.011C164.75 139.531 164.646 135.246 164.646 135.246Z" fill="#284B9B"/>
<path fill-rule="evenodd" clip-rule="evenodd" d="M128.139 155.077L128.375 157.002C128.375 157.002 126.151 158.253 123.691 157.578C123.588 156.736 123.555 156.467 123.455 155.653C125.591 156.342 128.139 155.077 128.139 155.077Z" fill="#E52600"/>
<path fill-rule="evenodd" clip-rule="evenodd" d="M117.778 176.26L115.89 176.696C115.89 176.696 114.415 174.614 114.829 172.095C115.655 171.904 115.918 171.843 116.717 171.658C116.255 173.857 117.778 176.26 117.778 176.26Z" fill="#0082AA"/>
<path fill-rule="evenodd" clip-rule="evenodd" d="M95.1842 182.778L95.6858 180.904C95.6858 180.904 98.2156 180.579 100.244 182.127C100.024 182.946 99.9545 183.208 99.7423 184C98.0195 182.56 95.1842 182.778 95.1842 182.778Z" fill="#284B9B"/>
<path fill-rule="evenodd" clip-rule="evenodd" d="M45.1074 155.986L43.5753 154.605C43.5753 154.605 44.4889 152.048 46.9346 150.871C47.6049 151.475 47.8185 151.668 48.4667 152.252C46.2705 153.191 45.1074 155.986 45.1074 155.986Z" fill="#284B9B"/>
<path fill-rule="evenodd" clip-rule="evenodd" d="M122.812 119.995L120.727 119.357C120.727 119.357 120.46 116.496 122.28 114.273C123.192 114.553 123.483 114.642 124.365 114.912C122.679 116.795 122.812 119.995 122.812 119.995Z" fill="#E52600"/>
<path fill-rule="evenodd" clip-rule="evenodd" d="M40.4282 21.7158L39.3883 23.5183C39.3883 23.5183 36.6755 23.1525 35.0025 20.9841C35.4574 20.1955 35.6024 19.9442 36.0424 19.1816C37.4286 21.1534 40.4282 21.7158 40.4282 21.7158Z" fill="#E52600"/>
<path fill-rule="evenodd" clip-rule="evenodd" d="M9.08203 57.2197L10.6181 57.4908C10.6181 57.4908 11.0564 59.4981 9.95856 61.2343C9.28652 61.1157 9.07236 61.0779 8.42247 60.9633C9.45547 59.4797 9.08203 57.2197 9.08203 57.2197Z" fill="#0082AA"/>
<ellipse cx="58.4636" cy="34.1369" rx="2.92459" ry="2.92599" fill="#0082AA"/>
<ellipse cx="73.5672" cy="155.956" rx="2.92459" ry="2.92599" fill="#0082AA"/>
<ellipse cx="5.82107" cy="129.069" rx="2.92459" ry="2.92599" fill="#AA0A0A"/>
<ellipse cx="8.74685" cy="149.876" rx="2.92459" ry="2.92599" fill="#284B9B"/>
<ellipse cx="39.6165" cy="55.9193" rx="2.27468" ry="2.27577" fill="#E52600"/>
<ellipse cx="81.0478" cy="175.397" rx="2.11221" ry="2.11321" fill="#284B9B"/>
<ellipse cx="129.626" cy="143.08" rx="2.1122" ry="2.11322" fill="#0082AA"/>
<ellipse cx="30.0302" cy="166.294" rx="2.1122" ry="2.11322" fill="#E52600"/>
<ellipse cx="23.206" cy="98.3461" rx="2.1122" ry="2.11322" fill="#E52600"/>
<ellipse cx="116.143" cy="105.174" rx="2.1122" ry="2.11321" fill="#0082AA"/>
<ellipse cx="101.847" cy="143.537" rx="2.1122" ry="2.11321" fill="#E52600"/>
<ellipse cx="52.452" cy="73.6379" rx="2.1122" ry="2.11322" fill="#284B9B"/>
<ellipse cx="69.3505" cy="22.9206" rx="2.1122" ry="2.11321" fill="#284B9B"/>
<ellipse cx="78.9373" cy="47.7916" rx="1.62477" ry="1.62555" fill="#E52600"/>
<ellipse cx="96.8084" cy="57.2198" rx="1.62477" ry="1.62555" fill="#E52600"/>
<ellipse cx="105.908" cy="63.722" rx="1.62477" ry="1.62555" fill="#0082AA"/>
<ellipse cx="114.681" cy="74.4505" rx="1.62476" ry="1.62555" fill="#284B9B"/>
<ellipse cx="127.679" cy="98.1837" rx="1.62477" ry="1.62555" fill="#0082AA"/>
<ellipse cx="149.776" cy="110.863" rx="1.29981" ry="1.30044" fill="#284B9B"/>
<ellipse cx="145.472" cy="125.033" rx="1.29982" ry="1.30044" fill="#284B9B"/>
<ellipse cx="147.177" cy="162.555" rx="1.29982" ry="1.30045" fill="#284B9B"/>
<ellipse cx="107.532" cy="103.71" rx="1.29982" ry="1.30044" fill="#284B9B"/>
<ellipse cx="138.077" cy="97.8585" rx="1.29982" ry="1.30044" fill="#284B9B"/>
<ellipse cx="169.274" cy="108.262" rx="1.29981" ry="1.30044" fill="#284B9B"/>
<ellipse cx="169.274" cy="95.2577" rx="1.29981" ry="1.30044" fill="#E52600"/>
<ellipse cx="176.423" cy="67.9484" rx="1.29981" ry="1.30044" fill="#0082AA"/>
<ellipse cx="161.476" cy="70.224" rx="1.29981" ry="1.30044" fill="#284B9B"/>
<ellipse cx="160.175" cy="24.0585" rx="1.29982" ry="1.30044" fill="#0082AA"/>
<ellipse cx="115.331" cy="116.065" rx="1.29982" ry="1.30044" fill="#0082AA"/>
<ellipse cx="90.3096" cy="109.888" rx="1.29982" ry="1.30044" fill="#284B9B"/>
<ellipse cx="85.4346" cy="80.9528" rx="1.29982" ry="1.30044" fill="#E52600"/>
<ellipse cx="35.1768" cy="112.395" rx="1.29982" ry="1.30044" fill="#284B9B"/>
<ellipse cx="32.1436" cy="87.7799" rx="1.29982" ry="1.30044" fill="#E52600"/>
<ellipse cx="32.8779" cy="97.4589" rx="1.29982" ry="1.30044" fill="#E52600"/>
<ellipse cx="7.4463" cy="95.9079" rx="1.29982" ry="1.30044" fill="#0082AA"/>
<ellipse cx="63.6631" cy="165.156" rx="1.29982" ry="1.30044" fill="#E52600"/>
<path fill-rule="evenodd" clip-rule="evenodd" d="M16.9883 37.0627L21.0687 38.157L19.9757 42.2394L15.8953 41.1452L16.9883 37.0627Z" fill="#0082AA"/>
<path fill-rule="evenodd" clip-rule="evenodd" d="M61.5508 0L65.2092 2.1139L63.0977 5.77409L59.4393 3.6602L61.5508 0Z" fill="#0082AA"/>
<path fill-rule="evenodd" clip-rule="evenodd" d="M100.058 79.3955L102.305 77.7013L103.997 79.9488L101.75 81.643L100.058 79.3955Z" fill="#0082AA"/>
<path fill-rule="evenodd" clip-rule="evenodd" d="M37.2081 133.595L36.2578 137.715L32.143 136.764L33.0933 132.645L37.2081 133.595Z" fill="#E52600"/>
<path fill-rule="evenodd" clip-rule="evenodd" d="M88.8761 160.579L87.9258 164.699L83.811 163.748L84.7613 159.629L88.8761 160.579Z" fill="#284B9B"/>
<path fill-rule="evenodd" clip-rule="evenodd" d="M152.969 61.1182L151.021 65.9428L146.202 63.9942L148.15 59.1696L152.969 61.1182Z" fill="#284B9B"/>
<path fill-rule="evenodd" clip-rule="evenodd" d="M152.701 80.9521V84.2043H149.453V80.9521H152.701Z" fill="#0082AA"/>
<path fill-rule="evenodd" clip-rule="evenodd" d="M151.77 34.1365L153.091 37.1075L150.124 38.4298L148.802 35.4588L151.77 34.1365Z" fill="#0082AA"/>
<path fill-rule="evenodd" clip-rule="evenodd" d="M79.9551 18.8562L81.2768 21.8272L78.3091 23.1495L76.9874 20.1785L79.9551 18.8562Z" fill="#0082AA"/>
<path fill-rule="evenodd" clip-rule="evenodd" d="M39.9102 85.179L43.6741 87.0983L41.7569 90.8641L37.9929 88.9447L39.9102 85.179Z" fill="#284B9B"/>
<path fill-rule="evenodd" clip-rule="evenodd" d="M170.086 82.5781L171.828 84.0414L170.367 85.7848L168.624 84.3215L170.086 82.5781Z" fill="#284B9B"/>
<path fill-rule="evenodd" clip-rule="evenodd" d="M185.01 34.7869L187.499 36.8773L185.411 39.3678L182.922 37.2774L185.01 34.7869Z" fill="#E52600"/>
<path fill-rule="evenodd" clip-rule="evenodd" d="M116.352 32.8362L118.343 34.5085L116.673 36.5009L114.681 34.8286L116.352 32.8362Z" fill="#E52600"/>
<path fill-rule="evenodd" clip-rule="evenodd" d="M114.402 0.975342L116.394 2.6477L114.723 4.64009L112.732 2.96773L114.402 0.975342Z" fill="#0082AA"/>
<path fill-rule="evenodd" clip-rule="evenodd" d="M114.452 156.395L113.135 158.425L111.107 157.107L112.424 155.077L114.452 156.395Z" fill="#284B9B"/>
<path fill-rule="evenodd" clip-rule="evenodd" d="M110.15 57.5447L112.648 58.2145L111.979 60.7135L109.481 60.0436L110.15 57.5447Z" fill="#284B9B"/>
<path fill-rule="evenodd" clip-rule="evenodd" d="M99.1035 97.5332L101.601 98.203L100.932 100.702L98.4345 100.032L99.1035 97.5332Z" fill="#284B9B"/>
<path fill-rule="evenodd" clip-rule="evenodd" d="M124.106 80.7073L126.66 80.3025L127.064 82.8577L124.51 83.2626L124.106 80.7073Z" fill="#284B9B"/>
<path fill-rule="evenodd" clip-rule="evenodd" d="M125.771 71.5242L127.442 73.5172L125.452 75.189L123.781 73.196L125.771 71.5242Z" fill="#0082AA"/>
<path fill-rule="evenodd" clip-rule="evenodd" d="M76.6953 8.45312L80.3596 9.78789L79.0263 13.4539L75.3621 12.1192L76.6953 8.45312Z" fill="#284B9B"/>
<path fill-rule="evenodd" clip-rule="evenodd" d="M143.135 134.921L146.015 135.429L145.507 138.311L142.627 137.802L143.135 134.921Z" fill="#284B9B"/>
<path fill-rule="evenodd" clip-rule="evenodd" d="M111.855 132.645L114.259 133.069L113.835 135.474L111.432 135.05L111.855 132.645Z" fill="#E52600"/>
<path fill-rule="evenodd" clip-rule="evenodd" d="M123.844 102.41L124.819 104.1L123.131 105.075L122.156 103.385L123.844 102.41Z" fill="#284B9B"/>
<path fill-rule="evenodd" clip-rule="evenodd" d="M50.5801 63.0715L53.0229 63.9614L52.1341 66.4054L49.6912 65.5156L50.5801 63.0715Z" fill="#E52600"/>
<path fill-rule="evenodd" clip-rule="evenodd" d="M30.1328 52.0173L30.8099 55.8606L26.971 56.5381L26.2938 52.6948L30.1328 52.0173Z" fill="#0082AA"/>
<path fill-rule="evenodd" clip-rule="evenodd" d="M16.3906 15.9307L18.5281 16.7093L16.0838 23.4304L13.9463 22.6517L16.3906 15.9307Z" fill="#0082AA"/>
<path fill-rule="evenodd" clip-rule="evenodd" d="M41.1934 40.6389L42.6555 42.3828L37.1808 46.9803L35.7187 45.2364L41.1934 40.6389Z" fill="#284B9B"/>
<path fill-rule="evenodd" clip-rule="evenodd" d="M112.186 20.4821L111.211 22.172L105.584 18.9209L106.559 17.231L112.186 20.4821Z" fill="#0082AA"/>
<path fill-rule="evenodd" clip-rule="evenodd" d="M134.963 26.6592L135.245 28.2606L129.913 29.2015L129.631 27.6001L134.963 26.6592Z" fill="#E52600"/>
<path fill-rule="evenodd" clip-rule="evenodd" d="M169.268 58.1016L168.223 59.3472L164.076 55.8643L165.12 54.6186L169.268 58.1016Z" fill="#E52600"/>
<path fill-rule="evenodd" clip-rule="evenodd" d="M155.328 48.4417L156.48 48.645L155.803 52.487L154.651 52.2837L155.328 48.4417Z" fill="#0082AA"/>
<path fill-rule="evenodd" clip-rule="evenodd" d="M150.752 93.9656L152.07 91.681L159.677 96.0763L158.359 98.3609L150.752 93.9656Z" fill="#284B9B"/>
<path fill-rule="evenodd" clip-rule="evenodd" d="M178.938 143.049L180.244 143.804L177.73 148.162L176.424 147.406L178.938 143.049Z" fill="#284B9B"/>
<path fill-rule="evenodd" clip-rule="evenodd" d="M153.027 125.563L155.046 123.867L160.692 130.601L158.673 132.297L153.027 125.563Z" fill="#0082AA"/>
<path fill-rule="evenodd" clip-rule="evenodd" d="M179.516 117.04L181.798 118.359L177.407 125.972L175.124 124.653L179.516 117.04Z" fill="#E52600"/>
<path fill-rule="evenodd" clip-rule="evenodd" d="M152.703 147.995L154.722 146.3L160.368 153.034L158.348 154.729L152.703 147.995Z" fill="#0082AA"/>
<path fill-rule="evenodd" clip-rule="evenodd" d="M137.103 140.181L139.049 139.472L141.409 145.962L139.463 146.671L137.103 140.181Z" fill="#0082AA"/>
<path fill-rule="evenodd" clip-rule="evenodd" d="M101.682 162.825L103.385 162.555L104.283 168.232L102.581 168.502L101.682 162.825Z" fill="#E52600"/>
<path fill-rule="evenodd" clip-rule="evenodd" d="M56.0664 171.658L57.6644 172.305L55.513 177.634L53.915 176.988L56.0664 171.658Z" fill="#0082AA"/>
<path fill-rule="evenodd" clip-rule="evenodd" d="M139.38 174.876L139.806 173.284L145.107 174.705L144.681 176.298L139.38 174.876Z" fill="#E52600"/>
<path fill-rule="evenodd" clip-rule="evenodd" d="M113.057 80.3806L115.037 79.3271L118.545 85.9294L116.565 86.9829L113.057 80.3806Z" fill="#284B9B"/>
<path fill-rule="evenodd" clip-rule="evenodd" d="M114.953 92.9814L116.239 94.8196L110.119 99.1085L108.833 97.2704L114.953 92.9814Z" fill="#E52600"/>
<path fill-rule="evenodd" clip-rule="evenodd" d="M98.543 111.838L100.698 112.457L98.6389 119.645L96.4835 119.026L98.543 111.838Z" fill="#0082AA"/>
<path fill-rule="evenodd" clip-rule="evenodd" d="M85.7612 117.259L87.2554 116.715L89.0677 121.698L87.5734 122.242L85.7612 117.259Z" fill="#E52600"/>
<path fill-rule="evenodd" clip-rule="evenodd" d="M101.379 103.385L102.633 105.245L96.4385 109.427L95.1847 107.566L101.379 103.385Z" fill="#E52600"/>
<path fill-rule="evenodd" clip-rule="evenodd" d="M120.15 86.1545L120.967 86.6261L119.396 89.3478L118.58 88.8762L120.15 86.1545Z" fill="#E52600"/>
<path fill-rule="evenodd" clip-rule="evenodd" d="M103.414 72.1743V74.158H96.8093V72.1743H103.414Z" fill="#E52600"/>
<path fill-rule="evenodd" clip-rule="evenodd" d="M108.531 83.8787L110.194 84.959L106.596 90.5027L104.934 89.4223L108.531 83.8787Z" fill="#0082AA"/>
<path fill-rule="evenodd" clip-rule="evenodd" d="M58.4654 53.2929L59.9837 52.0178L64.2292 57.0814L62.7109 58.3565L58.4654 53.2929Z" fill="#284B9B"/>
<path fill-rule="evenodd" clip-rule="evenodd" d="M91.6426 71.5242L92.3205 73.3882L86.114 75.649L85.4361 73.7849L91.6426 71.5242Z" fill="#284B9B"/>
<path fill-rule="evenodd" clip-rule="evenodd" d="M85.082 66.6819L83.1622 65.5726L86.8557 59.1702L88.7755 60.2795L85.082 66.6819Z" fill="#0082AA"/>
<path fill-rule="evenodd" clip-rule="evenodd" d="M96.3489 65.3214L94.7969 65.5953L93.885 60.4196L95.437 60.1457L96.3489 65.3214Z" fill="#284B9B"/>
<path fill-rule="evenodd" clip-rule="evenodd" d="M163.457 84.8538L164.135 86.7178L157.928 88.9786L157.251 87.1145L163.457 84.8538Z" fill="#0082AA"/>
<path fill-rule="evenodd" clip-rule="evenodd" d="M108.361 69.5737L110.481 70.7983L106.403 77.8664L104.284 76.6418L108.361 69.5737Z" fill="#0082AA"/>
<path fill-rule="evenodd" clip-rule="evenodd" d="M150.357 69.5737L151.378 70.431L148.524 73.8355L147.503 72.9782L150.357 69.5737Z" fill="#E52600"/>
<path fill-rule="evenodd" clip-rule="evenodd" d="M154.58 101.109L155.601 101.967L152.747 105.371L151.726 104.514L154.58 101.109Z" fill="#E52600"/>
<path fill-rule="evenodd" clip-rule="evenodd" d="M140.57 110.212V111.546H136.13V110.212H140.57Z" fill="#0082AA"/>
<path fill-rule="evenodd" clip-rule="evenodd" d="M110.284 117.376L109.5 118.455L105.908 115.843L106.691 114.764L110.284 117.376Z" fill="#284B9B"/>
<path fill-rule="evenodd" clip-rule="evenodd" d="M34.0449 66.3225L35.5071 68.0664L30.0324 72.6639L28.5702 70.92L34.0449 66.3225Z" fill="#E52600"/>
<path fill-rule="evenodd" clip-rule="evenodd" d="M17.8449 69.0563L20.7335 68.5985L22.1709 77.6812L19.2823 78.1391L17.8449 69.0563Z" fill="#0082AA"/>
<path fill-rule="evenodd" clip-rule="evenodd" d="M28.6328 107.937L29.9605 110.544L21.7735 114.719L20.4457 112.111L28.6328 107.937Z" fill="#E52600"/>
<path fill-rule="evenodd" clip-rule="evenodd" d="M41.5371 63.989L43.2256 64.9647L40.1628 70.274L38.4742 69.2983L41.5371 63.989Z" fill="#284B9B"/>
<path fill-rule="evenodd" clip-rule="evenodd" d="M13.5742 112.163L15.0002 113.494L10.8224 117.978L9.39648 116.647L13.5742 112.163Z" fill="#284B9B"/>
<path fill-rule="evenodd" clip-rule="evenodd" d="M76.2969 58.8452L77.3979 59.2463L76.1388 62.7082L75.0379 62.3071L76.2969 58.8452Z" fill="#E52600"/>
<ellipse cx="91.3688" cy="92.5179" rx="60.318" ry="60.318" fill="#C2E8FF"/>
</g>
<path fill-rule="evenodd" clip-rule="evenodd" d="M125.014 51.7123C125.276 51.962 125.411 52.3163 125.381 52.6767C125.079 56.4128 122.204 59.0628 119.343 60.8512C116.914 62.3701 114.244 63.4232 112.5 64.0803C112.537 64.5865 112.563 65.2292 112.583 65.8509C112.592 66.1377 112.599 66.4232 112.605 66.6928L130.912 60.5767C131.393 60.4162 131.923 60.5749 132.236 60.9732C133.2 62.1998 132.857 63.8177 132.229 65.1395C131.562 66.5454 130.362 68.1024 128.782 69.6563C125.769 72.619 121.193 75.7463 115.622 77.9674C115.663 78.2282 115.709 78.5193 115.756 78.8085C115.774 78.9197 115.792 79.0305 115.81 79.1388C116.256 79.0259 116.804 78.8891 117.429 78.7369C119.168 78.3126 121.505 77.7666 123.885 77.2828C126.256 76.8006 128.704 76.3728 130.655 76.1941C131.624 76.1054 132.524 76.0726 133.251 76.142C133.613 76.1766 133.985 76.2409 134.321 76.365C134.641 76.4833 135.072 76.7087 135.348 77.1599C135.952 78.142 135.682 79.1903 135.254 79.9744C134.825 80.7608 134.11 81.5429 133.294 82.2837C131.644 83.7803 129.273 85.3782 126.896 86.8246C124.505 88.2797 122.05 89.6165 120.197 90.5876C119.269 91.0737 118.49 91.4695 117.942 91.7441C117.884 91.7729 117.829 91.8004 117.777 91.8265L117.927 95.8593L128.654 94.4541C129.036 94.4042 129.418 94.5403 129.682 94.8201C129.946 95.0999 130.06 95.4895 129.988 95.8675C129.675 97.517 128.643 99.0592 127.435 100.39C126.21 101.74 124.701 102.985 123.259 104.034C121.812 105.088 120.403 105.967 119.357 106.581C118.834 106.889 118.399 107.132 118.094 107.299C117.941 107.383 117.82 107.447 117.737 107.491C117.695 107.513 117.663 107.53 117.641 107.542L117.615 107.555L117.607 107.559L117.604 107.561C117.604 107.561 117.604 107.561 117.104 106.591L117.604 107.561C117.015 107.864 116.291 107.632 115.988 107.043C115.685 106.454 115.917 105.731 116.506 105.428C116.506 105.428 116.506 105.428 116.506 105.428L116.506 105.428L116.511 105.425L116.531 105.415C116.549 105.405 116.577 105.391 116.614 105.371C116.689 105.331 116.8 105.272 116.943 105.194C117.229 105.037 117.642 104.807 118.141 104.513C119.142 103.925 120.481 103.089 121.847 102.095C123.218 101.097 124.584 99.9615 125.658 98.7781C126.181 98.2022 126.611 97.6395 126.939 97.0983L116.933 98.409C116.598 98.4528 116.261 98.3537 116.003 98.1358C115.745 97.9179 115.591 97.6015 115.579 97.2643L115.351 91.1394C115.333 90.6638 115.598 90.2226 116.027 90.0152L116.04 90.0089L116.081 89.9889C116.117 89.971 116.172 89.9442 116.244 89.9089C116.387 89.8383 116.599 89.7338 116.867 89.5992C117.404 89.3301 118.17 88.941 119.083 88.4626C120.911 87.5048 123.317 86.1941 125.649 84.7752C127.995 83.3477 130.206 81.8452 131.681 80.507C132.427 79.8304 132.91 79.2615 133.149 78.8247C133.208 78.7155 133.245 78.6283 133.267 78.5617C133.2 78.5504 133.119 78.5394 133.023 78.5302C132.517 78.4819 131.79 78.4993 130.874 78.5831C129.056 78.7496 126.71 79.1564 124.363 79.6337C122.024 80.1092 119.72 80.6475 117.997 81.0676C117.137 81.2775 116.423 81.4575 115.925 81.5849C115.676 81.6486 115.481 81.6991 115.349 81.7336C115.282 81.7509 115.232 81.7641 115.198 81.773L115.148 81.7861C115.148 81.7861 115.148 81.7862 114.841 80.6267L113.658 80.8259L113.635 80.6873C113.62 80.5992 113.599 80.4731 113.573 80.3211C113.523 80.0171 113.455 79.6089 113.388 79.1926C113.321 78.7771 113.253 78.3502 113.201 78.0101C113.176 77.8407 113.153 77.6878 113.137 77.5666L113.136 77.5578C113.125 77.4756 113.104 77.3146 113.104 77.1908C113.104 76.6903 113.414 76.2424 113.883 76.0672C119.561 73.9451 124.178 70.8197 127.1 67.9459C128.567 66.5026 129.558 65.1711 130.062 64.1104C130.219 63.7788 130.315 63.5074 130.37 63.2872L111.813 69.4869C111.449 69.6085 111.048 69.5485 110.736 69.3255C110.423 69.1025 110.237 68.7433 110.233 68.3594L110.233 68.3064L110.231 68.1533C110.229 68.021 110.227 67.8315 110.223 67.6034C110.216 67.1467 110.204 66.5378 110.185 65.9252C110.166 65.3091 110.14 64.7036 110.106 64.2482C110.09 64.027 110.074 63.8631 110.058 63.7581C109.977 63.5618 109.948 63.3441 109.98 63.1263C110.042 62.6946 110.335 62.3311 110.743 62.1769C110.875 62.1269 111.017 62.074 111.165 62.0182C112.881 61.3755 115.621 60.349 118.072 58.8171C120.227 57.4695 121.937 55.8675 122.649 53.9853L107.953 55.8612C107.296 55.9451 106.695 55.4804 106.611 54.8232C106.527 54.1661 106.992 53.5654 107.649 53.4815L124.034 51.39C124.393 51.3443 124.753 51.4627 125.014 51.7123ZM114.841 80.6267L113.658 80.8259C113.714 81.1585 113.907 81.4522 114.191 81.6349C114.474 81.8177 114.822 81.8724 115.148 81.7861L114.841 80.6267ZM133.514 78.6256C133.514 78.6257 133.51 78.6244 133.505 78.6214C133.511 78.624 133.514 78.6255 133.514 78.6256Z" fill="#E52600"/>
<path fill-rule="evenodd" clip-rule="evenodd" d="M98.1207 135.997C98.6696 136.368 98.8141 137.114 98.4432 137.663L90.9678 148.73C90.811 148.962 90.5777 149.132 90.3086 149.21L81.0443 151.902L79.5689 163.286C79.4838 163.943 78.8821 164.406 78.2252 164.321C77.5682 164.236 77.1046 163.635 77.1898 162.978L78.766 150.815C78.8273 150.342 79.1629 149.951 79.6209 149.818L89.2226 147.027L96.4552 136.32C96.8261 135.771 97.5717 135.627 98.1207 135.997Z" fill="#E52600"/>
<path fill-rule="evenodd" clip-rule="evenodd" d="M68.6935 70.6099C68.1754 58.6679 68.6757 57.1456 74.3968 56.142C79.7727 55.1979 104.204 52.931 108.9 53.1036C112.696 53.2433 112.472 61.1609 113.098 65.1304C113.708 69.0029 124.45 128.274 121.357 134.525C118.876 139.536 82.0631 143.531 78.9605 141.154C74.5793 137.799 68.6935 70.6099 68.6935 70.6099" fill="#284B9B"/>
<path fill-rule="evenodd" clip-rule="evenodd" d="M73.4989 63.5113L75.3214 63.3547C73.4989 63.5113 73.4989 63.5122 73.4989 63.5122L73.4991 63.5146L73.4999 63.5238L73.5031 63.5601L73.5154 63.7024L73.564 64.2563L73.7522 66.3577L74.4593 73.8749L76.9267 96.8868C77.931 105.317 79.087 113.87 80.2923 120.512C80.8939 123.827 81.5159 126.712 82.1496 128.882L83.157 131.684C83.4679 132.347 83.9564 133.229 84.7526 133.717C85.689 134.29 87.0196 134.594 88.3656 134.777C89.7822 134.97 91.4846 135.062 93.3479 135.068C97.0792 135.081 101.595 134.753 106.038 134.135C110.472 133.519 114.907 132.603 118.453 131.416C120.223 130.824 121.832 130.144 123.127 129.364C124.38 128.61 125.559 127.632 126.148 126.343C126.454 125.675 126.607 124.842 126.696 124.02C126.788 123.16 126.826 122.143 126.822 121.014C126.814 118.753 126.64 115.914 126.352 112.722C125.774 106.331 124.728 98.3915 123.576 90.5576C121.708 77.8524 119.545 65.3103 118.636 60.0381C118.425 58.814 118.281 57.9818 118.225 57.6305C118.123 57.0002 118.04 56.3081 117.947 55.5401C117.901 55.1537 117.852 54.7482 117.797 54.3217C117.64 53.0979 117.442 51.7613 117.126 50.5217C116.815 49.3049 116.353 48.0225 115.581 47.0022C114.76 45.9173 113.559 45.1055 111.947 45.0475C111.441 45.0293 109.731 45.1309 107.506 45.2908L98.9735 45.9852L80.7809 48.0858C79.368 48.3288 78.0219 48.5849 76.9234 49.0793C75.7037 49.6283 74.7617 50.4773 74.1682 51.8104C73.6282 53.0231 73.426 54.5334 73.3599 56.3276C73.2926 58.151 73.3631 60.4796 73.4939 63.4356L73.4956 63.4735L73.4989 63.5113ZM99.2993 49.6292C92.8612 50.2048 85.6127 50.9663 81.4016 51.6913C79.9207 51.946 79.0328 52.1419 78.425 52.4155C77.9383 52.6345 77.7013 52.8696 77.5104 53.2984C77.2659 53.8477 77.0781 54.7772 77.0159 56.4625C76.9551 58.1115 77.0171 60.2904 77.1472 63.2357L77.1602 63.3853C77.171 63.5094 77.1871 63.694 77.2083 63.9349C77.2508 64.4169 77.3138 65.1248 77.3957 66.027C77.5595 67.8316 77.7988 70.4135 78.1007 73.5212C78.7046 79.7376 79.5586 88.0523 80.5596 96.454C81.5614 104.863 82.7069 113.329 83.892 119.859C84.4857 123.13 85.0812 125.869 85.6615 127.857C85.9529 128.855 86.2253 129.61 86.4692 130.13C86.6173 130.446 86.7184 130.594 86.7548 130.646C87.0564 130.795 87.7184 130.997 88.8595 131.152C90.0628 131.316 91.5929 131.404 93.3608 131.41C96.8919 131.422 101.233 131.11 105.534 130.512C109.841 129.913 114.035 129.037 117.292 127.947C118.923 127.4 120.259 126.821 121.24 126.23C122.263 125.614 122.688 125.113 122.821 124.822C122.876 124.702 122.981 124.345 123.058 123.629C123.131 122.951 123.167 122.081 123.163 121.026C123.156 118.918 122.992 116.198 122.708 113.051C122.14 106.763 121.105 98.9019 119.957 91.0897C118.101 78.467 115.966 66.0863 115.045 60.7432C114.825 59.4672 114.674 58.5926 114.612 58.2119C114.5 57.5102 114.401 56.6952 114.303 55.8827C114.259 55.5132 114.214 55.1442 114.168 54.7865C114.015 53.5919 113.839 52.439 113.581 51.4266C113.317 50.3912 113.003 49.659 112.664 49.2102C112.373 48.8262 112.125 48.7148 111.816 48.7037L99.2993 49.6292Z" fill="#C2E8FF"/>
<path fill-rule="evenodd" clip-rule="evenodd" d="M74.2902 79.9484C74.8137 79.5447 75.5653 79.6407 75.9705 80.1631C77.6392 82.3145 77.6529 85.0436 76.9863 87.6538C76.3163 90.2772 74.9058 93.016 73.374 95.4608C71.8341 97.9185 70.1289 100.146 68.8139 101.754C68.1686 102.543 67.6145 103.186 67.2158 103.638C67.7305 104.431 68.2808 105.504 68.8235 106.794C69.616 108.678 70.4305 111.119 71.1168 114.035C72.4897 119.868 73.3574 127.64 72.4882 136.724C72.4251 137.383 71.8394 137.867 71.1799 137.804C70.5205 137.741 70.037 137.155 70.1001 136.495C70.9427 127.689 70.0987 120.18 68.7816 114.584C68.1229 111.785 67.348 109.474 66.6121 107.724C65.8626 105.942 65.1897 104.83 64.7718 104.359C64.3615 103.895 64.3708 103.196 64.7932 102.744L64.7933 102.744L64.7946 102.743L64.8013 102.736L64.83 102.705C64.8559 102.677 64.895 102.634 64.9464 102.577C65.049 102.465 65.2004 102.297 65.3921 102.079C65.7756 101.645 66.3197 101.014 66.9568 100.235C68.2335 98.6737 69.8723 96.5312 71.3411 94.187C72.8179 91.8299 74.081 89.3346 74.6618 87.0601C75.1029 85.3328 75.1209 83.8649 74.6672 82.6872L55.0392 97.8229L40.3189 162.852C40.1727 163.498 39.5303 163.903 38.8842 163.757C38.238 163.611 37.8328 162.968 37.9791 162.322L52.7948 96.8719C52.8564 96.5996 53.0111 96.3574 53.2322 96.1869L74.2902 79.9484Z" fill="#E52600"/>
<path d="M112.32 90.8788C112.32 98.8285 105.875 105.273 97.9254 105.273C89.9757 105.273 83.5312 98.8285 83.5312 90.8788C83.5312 82.9291 89.9757 76.4846 97.9254 76.4846C105.875 76.4846 112.32 82.9291 112.32 90.8788ZM87.1684 90.8788C87.1684 96.8197 91.9845 101.636 97.9254 101.636C103.866 101.636 108.682 96.8197 108.682 90.8788C108.682 84.9379 103.866 80.1218 97.9254 80.1218C91.9845 80.1218 87.1684 84.9379 87.1684 90.8788Z" fill="#F9F9F6"/>
<path fill-rule="evenodd" clip-rule="evenodd" d="M101.615 83.7339C102.414 83.95 102.887 84.7732 102.671 85.5726L99.6725 96.6681C99.5305 97.1936 99.1148 97.6009 98.5865 97.7321C98.0582 97.8633 97.5003 97.6979 97.1289 97.3L92.9306 92.8018C92.3656 92.1964 92.3983 91.2476 93.0037 90.6826C93.6091 90.1176 94.5579 90.1503 95.1229 90.7557L97.4812 93.2824L99.7764 84.7902C99.9924 83.9908 100.816 83.5179 101.615 83.7339Z" fill="#F9F9F6"/>
<defs>
<clipPath id="clip0_6181_13548">
<rect width="184" height="184" fill="white"/>
</clipPath>
</defs>
</svg>
