<svg width="184" height="184" viewBox="0 0 184 184" fill="none" xmlns="http://www.w3.org/2000/svg">
<g clip-path="url(#clip0_6038_15421)">
<circle cx="86.25" cy="93.1499" r="51.75" fill="#C2E8FF"/>
<mask id="mask0_6038_15421" style="mask-type:alpha" maskUnits="userSpaceOnUse" x="-32" y="1" width="256" height="166">
<rect x="-31.05" y="1.1499" width="254.15" height="165.6" fill="white"/>
</mask>
<g mask="url(#mask0_6038_15421)">
<path d="M146.652 90.5293C151.203 114.009 176.311 134.6 197.503 124.152C222.704 111.726 255.521 112.811 256.52 95.6611C257.506 78.7261 253.656 70.7531 242.039 61.7586C230.421 52.7638 240.15 128.465 252.559 107.301C258.104 102.275 264.106 103.362 264.106 103.362C291.46 102.348 339.177 129.432 363.23 110.817C382.916 95.5836 370.717 78.4439 373.143 58.4822" stroke="#E52600" stroke-width="1.5" stroke-linecap="round"/>
<path d="M-35.0225 -61.2446C-84.9565 -21.4183 -84.6252 37.1127 -56.983 58.7039C-25.213 83.7357 57.2947 75.7213 73.2909 68.6477C91.0427 60.7977 107.268 30.8012 73.2472 38.8703C28.3357 49.5235 30.6836 137.15 91.0026 138.88C145.806 140.451 155.095 85.2684 140.445 60.6303C131.714 45.9463 102.507 22.1302 73.2217 38.7691" stroke="#E52600" stroke-width="1.5" stroke-linecap="round"/>
</g>
</g>
<path fill-rule="evenodd" clip-rule="evenodd" d="M31.9242 125.271C32.3948 124.844 33.1221 124.88 33.5486 125.351L33.518 125.378C33.5483 125.351 33.5485 125.351 33.5486 125.351L33.5535 125.356L33.571 125.375L33.6429 125.454C33.707 125.524 33.8031 125.628 33.9295 125.763C34.1822 126.033 34.5557 126.429 35.0354 126.925C35.995 127.916 37.3784 129.308 39.0692 130.905C42.4565 134.103 47.0527 138.098 51.9308 141.339C56.8453 144.605 61.8855 146.996 66.1904 147.195C68.3098 147.293 70.214 146.859 71.8563 145.767C73.5034 144.671 74.9852 142.849 76.1393 140.002L78.2708 140.867C76.9873 144.032 75.25 146.272 73.13 147.682C71.0052 149.095 68.5943 149.609 66.084 149.493C61.1293 149.263 55.6518 146.573 50.6579 143.255C45.6276 139.912 40.9249 135.82 37.4902 132.577C35.7701 130.953 34.3618 129.536 33.3825 128.524C32.8927 128.018 32.5099 127.612 32.2487 127.333C32.1181 127.193 32.0179 127.085 31.9498 127.011L31.8722 126.926L31.8519 126.904L31.8449 126.896C31.8445 126.895 31.8442 126.895 32.6964 126.123L31.8449 126.896C31.4184 126.425 31.4535 125.697 31.9242 125.271Z" fill="#E52600"/>
<path fill-rule="evenodd" clip-rule="evenodd" d="M80.5467 81.5475C77.4643 82.1693 73.8678 83.5963 71.3948 86.7616L71.3866 86.7721L71.3866 86.7721C67.9722 91.0399 67.1158 97.4587 67.1296 104.409C67.1358 107.504 67.3121 110.637 67.4823 113.664C67.5017 114.008 67.5209 114.35 67.5399 114.691C67.7242 118.01 67.878 121.196 67.7396 123.939C67.6028 126.65 67.1761 129.123 66.0595 130.904C65.4858 131.819 64.7232 132.563 63.7304 133.047C62.743 133.529 61.5997 133.719 60.3134 133.643C57.7815 133.494 54.5474 132.304 50.4244 129.995C46.2758 127.67 41.1159 124.147 34.7053 119.195L36.1113 117.375C42.479 122.294 47.5388 125.742 51.5485 127.988C55.584 130.249 58.4471 131.229 60.4489 131.347C61.4295 131.405 62.1622 131.253 62.722 130.98C63.2764 130.71 63.7324 130.286 64.1107 129.682C64.8983 128.426 65.3096 126.458 65.4425 123.823C65.5738 121.221 65.4287 118.156 65.2434 114.819C65.2245 114.479 65.2052 114.136 65.1858 113.791C65.0159 110.772 64.8359 107.575 64.8296 104.413C64.8157 97.427 65.6379 90.2802 69.5865 85.3404C72.5298 81.5764 76.7305 79.971 80.0919 79.2929C81.7827 78.9518 83.2929 78.8384 84.382 78.81C84.9275 78.7958 85.37 78.8028 85.6799 78.8136C85.8349 78.8191 85.9569 78.8255 86.0423 78.8307C86.085 78.8333 86.1186 78.8357 86.1425 78.8374L86.1712 78.8396L86.18 78.8403L86.183 78.8406L86.1842 78.8407C86.1847 78.8407 86.1851 78.8408 86.0877 79.9866C85.9902 81.1325 85.9906 81.1325 85.9909 81.1325L85.9893 81.1324L85.974 81.1313C85.9591 81.1302 85.9348 81.1285 85.9016 81.1264C85.8352 81.1224 85.7332 81.1169 85.5992 81.1122C85.3311 81.1028 84.9358 81.0963 84.442 81.1092C83.4526 81.1351 82.0786 81.2385 80.5467 81.5475Z" fill="#E52600"/>
<path fill-rule="evenodd" clip-rule="evenodd" d="M100.615 75.5519C66.8809 71.8049 72.0174 100.711 74.0684 118.702C75.4003 130.378 75.0758 138.41 73.1301 144.157C71.9091 147.761 71.7369 149.837 71.7369 152.386C71.7369 154.049 71.7385 166.788 97.2941 166.788C119.894 166.788 128.642 157.617 128.642 157.617C133.572 154.898 147.493 80.7607 100.615 75.5519Z" fill="#284B9B"/>
<path fill-rule="evenodd" clip-rule="evenodd" d="M95.6669 70.4766C95.6669 70.4766 104.561 76.6404 116.185 65.0172C117.381 63.8213 119.795 64.6649 122.965 63.9605C126.135 63.2556 134.148 60.7907 133.973 53.3933C133.796 45.9965 126.399 43.3542 125.342 40.7134C124.287 38.0706 123.758 28.8238 117.946 25.0379C112.135 21.2516 106.409 21.6912 104.737 21.7802C103.064 21.8686 102.624 16.2318 90.824 17.4648C79.0238 18.6983 73.7397 27.8566 72.9484 32.6991C72.705 34.1796 71.0105 35.9568 69.8654 36.8381C68.7204 37.7184 62.6439 42.0328 61.8516 45.6443C61.0587 49.2538 61.0587 57.0918 71.0984 63.8721C75.4798 66.8305 81.3129 68.4508 88.6218 68.0986L95.6669 70.4766Z" fill="#AA0A0A"/>
<path fill-rule="evenodd" clip-rule="evenodd" d="M118.669 117.437C126.115 117.633 133.581 118.554 138.149 120.558C138.704 120.802 138.957 121.45 138.713 122.006C138.47 122.562 137.821 122.814 137.266 122.571C133.117 120.751 126.023 119.829 118.611 119.634C111.236 119.441 103.747 119.971 98.9037 120.944C98.3086 121.064 97.7293 120.679 97.6097 120.084C97.49 119.489 97.8754 118.909 98.4705 118.79C103.524 117.774 111.188 117.241 118.669 117.437Z" fill="#E52600"/>
<path fill-rule="evenodd" clip-rule="evenodd" d="M41.3111 129.079L56.0267 127.605C57.1598 127.421 57.9228 126.32 57.7323 125.145L51.9123 94.6623C51.7234 93.4879 50.9274 92.0482 48.6163 92.5778L35.8009 95.0909C34.6684 95.2746 34.0472 97.2633 34.2382 98.4376L38.9142 127.284C39.1052 128.46 40.178 129.264 41.3111 129.079Z" fill="#0082AA"/>
<path fill-rule="evenodd" clip-rule="evenodd" d="M49.6595 96.9294C49.5511 96.257 49.0985 95.7002 48.589 95.3429C48.0809 94.9865 47.4134 94.7561 46.7738 94.8596C46.1058 94.9671 45.6202 95.4127 45.3285 95.9246C45.0377 96.4349 44.9072 97.0596 44.9621 97.6512C45.0291 98.3754 45.3381 98.9491 45.8323 99.3097C46.3174 99.6635 46.9174 99.7652 47.4883 99.6802C48.8576 99.475 49.8726 98.2393 49.6595 96.9294ZM47.9165 96.3018C47.5792 96.0652 47.2156 95.9745 46.9609 96.0158C46.7337 96.0523 46.5135 96.2107 46.346 96.5045C46.1777 96.8 46.0949 97.1831 46.1283 97.5428C46.1692 97.985 46.3399 98.2302 46.5225 98.3634C46.7143 98.5033 46.989 98.5703 47.3149 98.5219C48.1307 98.3995 48.5976 97.6951 48.5034 97.1171L48.5033 97.116C48.4597 96.8456 48.2525 96.5374 47.9165 96.3018Z" fill="#F5F5F0"/>
<path d="M50.5211 94.3191C50.5211 94.3191 56.0486 124.191 56.1605 124.882C56.2725 125.573 56.0093 126.446 54.9862 126.47C53.9625 126.494 40.4092 127.928 40.4092 127.928" stroke="#F5F5F0" stroke-width="1.18108" stroke-linecap="round"/>
<path d="M143.06 144.325C138.115 144.325 131.1 143.06 121.785 141.335C114.08 139.84 105.455 138.345 95.4499 136.965C94.8749 136.85 94.4149 136.275 94.5299 135.7C94.6449 135.125 95.2199 134.665 95.7949 134.665C105.8 136.045 114.54 137.655 122.13 139.035C134.09 141.22 142.83 142.83 146.97 141.565C151.11 140.3 152.72 136.62 153.295 133.63C156.17 119.83 144.44 100.05 132.135 89.5851C126.845 85.1001 116.955 79.8101 112.93 81.1901C112.01 81.5351 111.55 82.1101 111.32 83.1451C110.17 88.2051 124.2 107.985 133.4 119.14C133.745 119.6 133.745 120.405 133.285 120.75C132.825 121.095 132.02 121.095 131.675 120.635C131.56 120.52 125.58 113.16 119.83 104.88C107.87 87.8601 108.79 83.8351 109.02 82.5701C109.48 80.7301 110.515 79.5801 112.125 79.0051C117.875 77.0501 129.26 84.2951 133.515 87.8601C150.305 101.89 157.895 122.475 155.48 134.205C154.56 139.15 151.8 142.485 147.66 143.75C146.395 144.095 144.9 144.325 143.06 144.325Z" fill="#E52600"/>
<path fill-rule="evenodd" clip-rule="evenodd" d="M38.4127 123.957C32.8816 125.465 28.8702 117.768 28.7509 114.949C28.6326 112.13 40.3894 103.208 41.3785 104.692C42.366 106.177 35.6594 109.47 34.9566 112.307C40.4726 107.793 47.1482 106.24 47.3005 107.95C47.4528 109.66 42.0065 110.021 37.0955 114.794C44.406 110.296 48.6963 110.972 48.8637 111.824C49.1291 113.167 40.3449 114.743 39.2924 117.359C46.3664 114.674 47.9081 113.613 48.4137 114.846C48.9182 116.081 39.866 119.551 39.1056 120.63C38.3447 121.708 38.4127 123.957 38.4127 123.957Z" fill="#E67350"/>
<path fill-rule="evenodd" clip-rule="evenodd" d="M99.1069 124.262L95.3499 131.786C89.6864 131.071 84.3803 124.024 84.3803 124.024C81.8798 123.752 77.8548 125.35 76.0917 125.043C74.3291 124.736 79.8016 122.612 80.4636 122.312C81.1246 122.013 83.2075 121.337 83.2075 121.337C81.6223 120.908 79.7833 121.441 78.9198 121.906C78.0573 122.37 74.8749 124.043 73.1202 123.52C71.983 123.281 78.4195 119.202 78.4195 119.202L81.9122 118.472C80.2611 118.061 77.927 118.491 77.4215 118.708C76.9144 118.927 72.1222 121.923 71.2639 121.176C70.5977 120.595 74.2396 117.567 76.1937 116.323C78.1468 115.078 81.1644 114.308 81.1644 114.308C78.8622 112.27 70.5286 113.375 69.8865 110.925C72.2975 109.049 82.4371 111.088 83.6424 111.807C84.8492 112.525 97.3402 121.673 99.1069 124.262Z" fill="#E67350"/>
<path fill-rule="evenodd" clip-rule="evenodd" d="M106.545 31.6123C109.928 33.1049 110.818 40.9994 111.449 46.7446C111.449 46.7446 115.442 44.9919 117.124 45.7633C118.805 46.5337 119.435 50.4571 117.404 52.4186C115.371 54.3806 113.621 55.221 110.818 54.5203C110.818 54.5203 109.557 66.1493 100.38 69.3019C100.38 69.3019 99.9589 70.0021 100.591 72.1039C101.22 74.2061 104.303 83.4529 104.443 84.2934C104.583 85.1344 105.284 87.726 96.8775 88.006C88.4707 88.2865 89.522 84.4337 89.5916 83.3127C89.6618 82.1912 91.6238 71.7527 91.8336 70.7029C91.8336 70.7029 88.0499 70.7029 86.2297 69.5123C84.408 68.3212 79.2945 64.8886 78.7335 52.4882C78.7335 52.4882 74.8796 52.6991 73.8293 49.1959C72.7795 45.6927 75.5108 44.8522 78.8031 46.1134C78.8031 46.1134 78.5231 38.6172 80.0643 37.077C81.6061 35.5358 83.9171 34.4839 88.2613 34.4839C92.6045 34.4839 99.2598 32.9431 101.011 32.2424C102.762 31.5417 104.163 30.562 106.545 31.6123Z" fill="#E67350"/>
<path d="M104.985 44.7941C105.307 45.1621 105.27 45.7222 104.902 46.0443C104.535 46.3659 103.976 46.3292 103.654 45.9628L103.649 45.9578C103.644 45.9523 103.636 45.9426 103.623 45.9289C103.597 45.9017 103.557 45.8591 103.501 45.8042C103.391 45.6944 103.223 45.5367 103.005 45.3556C102.565 44.9916 101.934 44.5449 101.159 44.201C99.6408 43.5276 97.5592 43.2325 95.1669 44.8145C94.759 45.0842 94.2096 44.9722 93.9398 44.5643C93.6701 44.1564 93.7821 43.607 94.19 43.3373C97.1823 41.3585 99.9209 41.7144 101.877 42.5822C102.839 43.009 103.608 43.5554 104.135 43.9919C104.399 44.2111 104.606 44.4054 104.749 44.5477C104.821 44.6188 104.877 44.6772 104.917 44.7195C104.936 44.7406 104.952 44.7577 104.963 44.7704L104.977 44.7861L104.982 44.7913L104.985 44.7941Z" fill="#323264"/>
<path fill-rule="evenodd" clip-rule="evenodd" d="M95.4146 60.0895C95.8273 60.3519 95.9491 60.8992 95.6867 61.3119C94.9464 62.4764 93.4899 63.5164 91.865 63.7742C90.1541 64.0457 88.3094 63.4385 86.9886 61.4062C86.7221 60.9961 86.8385 60.4477 87.2485 60.1812C87.6586 59.9147 88.207 60.0311 88.4735 60.4411C89.4104 61.8827 90.5624 62.1877 91.5875 62.0251C92.6985 61.8488 93.7174 61.1084 94.1923 60.3617C94.4546 59.949 95.0019 59.8271 95.4146 60.0895Z" fill="#323264"/>
<path d="M79.6578 42.2593C79.2303 42.4968 79.0762 43.0359 79.3137 43.4634C79.5512 43.8909 80.0903 44.0449 80.5178 43.8075L79.6578 42.2593ZM93.4339 57.5774C93.8405 57.3057 93.95 56.7559 93.6783 56.3492C93.4066 55.9425 92.8568 55.8332 92.4501 56.1048L93.4339 57.5774ZM80.0878 43.0334C80.5178 43.8075 80.5178 43.8075 80.5178 43.8075L80.5165 43.8082C80.5165 43.8082 80.5185 43.8071 80.5208 43.8059C80.5254 43.8034 80.5336 43.7989 80.5453 43.7928C80.5687 43.7805 80.6058 43.7612 80.6557 43.7365C80.7554 43.687 80.9052 43.6159 81.0963 43.5343C81.48 43.3706 82.0223 43.1683 82.654 43.0141C83.9384 42.7004 85.471 42.6138 86.8062 43.2989L87.6151 41.7235C85.7365 40.7595 83.7073 40.9338 82.2339 41.2936C81.4866 41.4761 80.8509 41.7136 80.4012 41.9054C80.1757 42.0017 79.995 42.0873 79.8684 42.1501C79.8051 42.1815 79.7551 42.2073 79.7197 42.226C79.7019 42.2354 79.6878 42.2429 79.6775 42.2485C79.6723 42.2513 79.668 42.2537 79.6648 42.2555L79.6606 42.2578L79.659 42.2586C79.659 42.2586 79.6578 42.2593 80.0878 43.0334ZM86.8062 43.2989C88.0084 43.9167 88.437 45.0691 88.4854 46.3981C88.534 47.7353 88.1793 49.0524 88.0085 49.6507L89.7115 50.1369C89.8875 49.52 90.3148 47.9713 90.2552 46.3337C90.1954 44.6879 89.6262 42.7569 87.6151 41.7235L86.8062 43.2989ZM88.0085 49.6507C87.9303 49.9248 87.7701 50.3753 87.5626 50.9795C87.3621 51.5634 87.1302 52.2557 86.9332 52.9537C86.7378 53.6459 86.5672 54.3763 86.5012 55.0328C86.4407 55.6354 86.4411 56.396 86.8126 56.9736L88.3022 56.0157C88.3035 56.0178 88.2721 55.9661 88.2544 55.8111C88.2373 55.6616 88.238 55.4617 88.2633 55.2099C88.3141 54.7047 88.4529 54.0888 88.6376 53.4347C88.8206 52.7865 89.0392 52.1325 89.2376 51.5547C89.4291 50.9972 89.6162 50.4706 89.7115 50.1369L88.0085 49.6507ZM86.8126 56.9736C87.202 57.5789 87.897 57.843 88.4543 57.9728C89.0532 58.1123 89.7331 58.1512 90.3635 58.1396C91.0002 58.1279 91.6274 58.0639 92.1374 57.9781C92.3921 57.9352 92.6288 57.8851 92.8295 57.8294C92.9989 57.7824 93.2408 57.7063 93.4339 57.5774L92.4501 56.1048C92.5126 56.0629 92.513 56.0794 92.3564 56.1228C92.2309 56.1576 92.057 56.1958 91.8436 56.2316C91.4173 56.3034 90.8775 56.3588 90.331 56.3689C89.7782 56.3791 89.2586 56.3418 88.8562 56.2481C88.6562 56.2015 88.5108 56.1466 88.4132 56.0939C88.3153 56.041 88.2968 56.0073 88.3022 56.0157L86.8126 56.9736Z" fill="#323264"/>
<path fill-rule="evenodd" clip-rule="evenodd" d="M96.4243 49.2606C96.4243 50.0425 96.8514 50.6762 97.3784 50.6762C97.9059 50.6762 98.3324 50.0425 98.3324 49.2606C98.3324 48.4787 97.9059 47.845 97.3784 47.845C96.8514 47.845 96.4243 48.4787 96.4243 49.2606Z" fill="#284B9B"/>
<path fill-rule="evenodd" clip-rule="evenodd" d="M83.4744 49.421C83.4744 50.2029 83.9014 50.8367 84.4284 50.8367C84.9559 50.8367 85.3825 50.2029 85.3825 49.421C85.3825 48.6392 84.9559 48.0049 84.4284 48.0049C83.9014 48.0049 83.4744 48.6392 83.4744 49.421Z" fill="#284B9B"/>
<defs>
<clipPath id="clip0_6038_15421">
<rect width="184" height="184" fill="white"/>
</clipPath>
</defs>
</svg>
