<svg width="40" height="40" viewBox="0 0 40 40" fill="none" xmlns="http://www.w3.org/2000/svg">
<circle cx="20" cy="20" r="20" fill="#323264"/>
<path fill-rule="evenodd" clip-rule="evenodd" d="M33.2948 11.682C35.8097 21.1873 29.3041 30.029 21.8735 28.7687C20.7881 28.5845 19.9151 28.1103 19.2451 27.4273L19.2009 27.3808L19.1251 27.4279C16.994 28.703 14.8333 29.1628 12.8725 28.4621L12.6771 28.3881C9.14036 26.9742 8.812 23.1387 11.0615 18.3807L11.2951 17.9019C11.6178 17.2595 11.986 16.6016 12.3982 15.9317L12.7156 15.4272L12.8804 15.1733L13.1337 14.792L12.5503 14.772L11.4167 14.7099L10.9824 14.6923L10.5914 14.6837C10.5296 14.6831 10.4693 14.6829 10.4106 14.6831L10.0753 14.6896L9.77108 14.707C9.19037 14.7532 8.76654 14.8693 8.32356 15.0818C7.66625 15.3971 6.87781 15.1199 6.56251 14.4626C6.24722 13.8052 6.52448 13.0168 7.18179 12.7015C8.22431 12.2014 9.10011 12.0342 10.4807 12.0413L10.9605 12.0498L11.4833 12.07L12.8521 12.1428L12.9414 12.1462C14.0951 12.1884 14.872 12.1023 15.5823 11.8149C16.8448 11.304 17.96 12.8075 17.1048 13.8674L16.8895 14.1364L16.4742 14.6692C12.0168 20.4895 11.2234 24.9638 13.6571 25.9368C14.7961 26.3921 16.2593 26.0459 17.8129 25.1031L17.8961 25.0504L17.888 25.0231C17.2924 23.0176 17.4731 20.4823 18.3544 18.0685L18.4391 17.8426C19.9262 13.9759 22.6777 11.6122 25.2667 12.6974C28.1775 13.9166 27.9952 17.46 25.5655 20.9841C24.3004 22.8191 22.9011 24.435 21.446 25.7136L21.3993 25.7536L21.4094 25.762C21.6386 25.9431 21.8988 26.0722 22.1889 26.1404L22.315 26.1659C27.6933 27.0781 32.8008 20.1365 30.7426 12.3573C30.5561 11.6525 30.9763 10.93 31.6811 10.7436C32.3858 10.5571 33.1083 10.9773 33.2948 11.682ZM20.9031 18.7902C20.3137 20.3231 20.1034 21.8649 20.2344 23.1419L20.2417 23.2096L20.2768 23.1772C21.2908 22.2121 22.2919 21.0463 23.219 19.7335L23.3919 19.4856C25.0114 17.1368 25.0962 15.4882 24.2464 15.1323C23.466 14.8051 21.9275 16.1268 20.9031 18.7902Z" fill="#E52600"/>
</svg>
