<svg width="46" height="30" viewBox="0 0 46 30" fill="none" xmlns="http://www.w3.org/2000/svg">
<path d="M42.0533 0.540249C40.1791 0.532215 38.3687 1.67301 37.1884 3.39223C42.7312 7.04758 35.9363 25.2199 25.9274 25.2199C24.7232 25.2199 23.7103 24.8664 23.0244 24.1514C28.4476 19.2267 32.3634 12.5427 32.3634 8.59809C32.3634 6.58162 31.3825 5.30426 29.0936 5.30426C22.4422 5.30426 15.432 16.2944 16.732 24.2318C12.537 25.7341 10.4555 23.8542 10.4555 20.0863C10.4555 12.2133 18.6221 4.04296 18.1436 1.59267C9.68191 4.21167 3.05451 -1.91004 0 8.05983C4.11521 5.80235 7.91141 9.4095 12.6008 6.77443C8.57335 11.4501 4.50599 18.0859 4.56182 23.6855C4.6017 27.3488 6.5636 29.9919 10.8224 29.9919C13.2388 29.9919 15.751 29.1404 18.1596 27.7505C19.1963 29.052 20.8631 29.9919 23.4072 29.9919C33.7989 29.9919 45.1477 15.2902 45.1477 4.79813C45.1556 2.01042 44.0551 0.548283 42.0533 0.540249ZM22.0594 20.7531C22.1472 15.0813 26.1268 9.12832 28.1365 9.12832C28.7347 9.12832 28.8543 9.52197 28.8543 9.93169C28.8623 11.8759 26.0072 17.0576 22.0594 20.7531Z" fill="#E52600"/>
</svg>
