<svg width="184" height="184" viewBox="0 0 184 184" fill="none" xmlns="http://www.w3.org/2000/svg">
<g clip-path="url(#clip0_4466_9102)">
<ellipse cx="92.334" cy="102.068" rx="68.1841" ry="68.0306" fill="#C2E8FF"/>
<path fill-rule="evenodd" clip-rule="evenodd" d="M104.328 95.2674C104.328 95.2674 111.767 100.93 114.057 107.56C116.347 114.19 108.843 104.523 108.245 107.956C107.645 111.39 111.578 118.143 112.152 123.486C112.725 128.829 104.197 119.58 101.862 117.751C99.527 115.921 102.197 130.364 98.6805 124.636C95.1632 118.908 91.8867 108.667 91.0999 101.817L104.328 95.2674Z" fill="#E52600"/>
<path fill-rule="evenodd" clip-rule="evenodd" d="M70.6067 100.358C70.565 95.2354 76.1855 87.832 76.1855 87.832L76.2894 86.4058C61.286 55.4358 62.8926 29.4113 68.5357 27.0364C73.1506 25.0965 96.809 39.3173 110.343 72.4996C110.343 72.4996 121.176 71.9864 127.569 77.2312C129.571 78.8732 133.223 96.394 131.599 98.5778C126.572 94.8037 117.895 85.703 115.187 87.2833C113.015 92.7758 94.5259 103.767 87.3931 101.606C87.3931 101.606 84.9806 110.01 85.1583 120.915C79.4065 119.535 70.6373 104.121 70.6067 100.358Z" fill="#C2E8FF"/>
<path fill-rule="evenodd" clip-rule="evenodd" d="M82.2157 61.6533C85.0413 60.5389 88.0956 61.0412 89.9291 65.6519C91.3189 69.1453 89.466 72.3465 86.6713 73.5396C84.2596 74.5695 81.2654 73.4065 79.48 69.6472C77.9593 66.4454 79.3901 62.7676 82.2157 61.6533Z" fill="#F5F5F0"/>
<path fill-rule="evenodd" clip-rule="evenodd" d="M73.3391 47.4329C74.7745 45.9309 77.2638 45.0343 79.8711 47.4114C81.8443 49.2124 81.6779 51.7498 80.2876 53.2916C79.0858 54.6227 76.9488 54.7414 74.6702 52.8508C73.0326 51.4914 71.9036 48.9349 73.3391 47.4329Z" fill="#F5F5F0"/>
<path fill-rule="evenodd" clip-rule="evenodd" d="M119.223 72.99L119.587 73.2841C119.469 73.1819 119.348 73.0839 119.223 72.99Z" fill="#323264"/>
<path fill-rule="evenodd" clip-rule="evenodd" d="M64.1405 24.2814C63.2504 24.7311 62.5544 25.6736 62.0066 26.7543C61.4371 27.8778 60.9353 29.3368 60.5277 31.0684C59.7111 34.5368 59.2424 39.2265 59.4322 44.8095C59.8065 55.8141 62.7426 70.385 70.7413 86.0871C70.6071 86.2367 70.454 86.4119 70.2859 86.6115C69.6743 87.3377 68.8608 88.3915 68.0424 89.7135C66.4124 92.3465 64.7227 96.1093 64.6427 100.501C64.6364 100.844 64.718 101.188 64.8118 101.483C64.9105 101.792 65.0489 102.125 65.2119 102.469C65.5381 103.157 65.997 103.961 66.5389 104.822C67.6251 106.55 69.0949 108.589 70.6432 110.542C72.1906 112.494 73.8379 114.388 75.2839 115.815C76.0048 116.527 76.6976 117.144 77.3186 117.598C77.6292 117.825 77.942 118.025 78.2474 118.177C78.5403 118.323 78.8974 118.46 79.2811 118.485C79.5865 118.505 79.8873 118.403 80.1171 118.201C80.3468 117.999 80.4864 117.713 80.5051 117.408C80.604 115.787 80.5661 114.021 80.5047 112.301C80.4884 111.846 80.4706 111.396 80.453 110.952C80.4033 109.694 80.3554 108.484 80.3504 107.355C80.3436 105.819 80.4192 104.548 80.643 103.627C80.7697 103.106 80.9173 102.799 81.0517 102.618C83.2264 103.596 85.8777 103.772 88.6009 103.438C91.6176 103.067 94.8462 102.054 97.8738 100.638C100.903 99.2211 103.773 97.3799 106.063 95.3184C107.969 93.6028 109.532 91.6812 110.409 89.6702L110.501 89.709L110.614 89.7568C111.436 90.1073 112.623 90.6507 114.062 91.4151C116.942 92.9446 120.824 95.3541 124.814 98.8665C125.081 99.1014 125.441 99.1997 125.791 99.1326C126.14 99.0656 126.438 98.8407 126.599 98.5236C127.429 96.8888 127.474 94.5999 127.182 92.2657C126.884 89.8762 126.201 87.2112 125.354 84.6666C124.506 82.1181 123.482 79.654 122.483 77.6605C121.984 76.664 121.485 75.7723 121.01 75.0405C120.548 74.3271 120.065 73.6978 119.587 73.2841L119.223 72.99C118.132 72.1668 116.81 71.6588 115.487 71.3445C114.005 70.9924 112.444 70.8656 111.043 70.8469C109.637 70.8281 108.362 70.9177 107.439 71.0114C107.206 71.0352 106.994 71.0592 106.808 71.082C104.57 66.0798 102.121 61.4084 99.5614 57.1015C94.2327 48.1337 88.4299 40.7464 83.0792 35.2452C79.0548 31.1075 75.2575 28.0073 72.081 26.107C70.4955 25.1585 69.024 24.4843 67.7271 24.144C66.457 23.8107 65.1844 23.7546 64.1405 24.2814ZM106.303 73.4749C105.783 73.564 105.269 73.2876 105.056 72.8044C101.752 65.2923 97.9599 58.5304 94.0345 52.6354C89.8398 46.3359 85.4936 41.0262 81.4305 36.8488C77.4941 32.8017 73.8521 29.8467 70.9002 28.0808C69.4215 27.1962 68.1566 26.6345 67.1434 26.3687C66.1034 26.0958 65.4919 26.1757 65.1772 26.3345C64.9567 26.4461 64.5412 26.841 64.0581 27.7942C63.987 27.9344 63.9162 28.0833 63.8459 28.2406C63.4597 29.1051 63.0887 30.2267 62.7665 31.5955L62.7375 31.7195C61.9943 34.9402 61.5488 39.3756 61.7309 44.7314C62.0393 53.7989 64.1447 65.436 69.5754 78.1673C70.6013 80.5724 71.7459 83.0166 73.0195 85.49C73.065 85.5783 73.1107 85.6667 73.1566 85.7552C73.3899 86.2054 73.3008 86.7552 72.9373 87.1087L72.9365 87.1095L72.9276 87.1183L72.923 87.1229L72.8849 87.1612C72.8456 87.201 72.7853 87.2631 72.7071 87.3464C72.5504 87.513 72.3219 87.7644 72.0451 88.0931C71.4908 88.7514 70.7467 89.7148 69.998 90.9241C68.494 93.3536 67.0122 96.7095 66.9423 100.543L66.9424 100.539C66.9424 100.539 66.9482 100.612 67.003 100.783C67.0604 100.963 67.1542 101.196 67.2903 101.484C67.5624 102.058 67.9693 102.777 68.4859 103.598C69.5167 105.237 70.9346 107.207 72.4457 109.114C73.9577 111.021 75.5416 112.838 76.8995 114.178C77.4018 114.674 77.8612 115.092 78.2653 115.422C78.2702 114.444 78.2432 113.421 78.2061 112.383C78.1907 111.951 78.1734 111.515 78.1562 111.078C78.1059 109.808 78.0556 108.538 78.0504 107.365C78.0435 105.8 78.1143 104.293 78.4081 103.084C78.6913 101.918 79.2744 100.665 80.5836 100.206C80.8921 100.098 81.232 100.126 81.5185 100.283C83.2121 101.215 85.5715 101.493 88.3203 101.155C91.0497 100.82 94.0436 99.8907 96.8991 98.5548C99.7535 97.2195 102.427 95.4974 104.525 93.6089C106.638 91.7062 108.085 89.7103 108.632 87.8466C108.72 87.5447 108.929 87.2923 109.208 87.1482C109.488 87.004 109.814 86.9807 110.112 87.0837L110.115 87.085L110.122 87.0872L110.143 87.0946C110.16 87.1009 110.185 87.1099 110.218 87.1216C110.282 87.1451 110.375 87.1795 110.494 87.2253C110.733 87.317 111.078 87.4544 111.516 87.6411C112.392 88.0145 113.638 88.5857 115.141 89.3838C117.814 90.8035 121.306 92.9452 124.968 95.9749C125.089 95.0557 125.069 93.9026 124.9 92.5507C124.626 90.3593 123.989 87.8488 123.172 85.3927C122.356 82.9406 121.373 80.5789 120.427 78.6906C119.954 77.7462 119.496 76.933 119.081 76.2921C118.653 75.6328 118.311 75.2216 118.082 75.023C117.652 74.6511 117.127 74.3407 116.527 74.0864C116.048 73.8835 115.52 73.7164 114.956 73.5822C113.691 73.2819 112.311 73.164 111.012 73.1467C109.718 73.1293 108.534 73.2121 107.672 73.2996C107.242 73.3433 106.895 73.388 106.658 73.4213C106.539 73.438 106.448 73.4518 106.388 73.4612L106.321 73.4719L106.306 73.4744L106.303 73.4749Z" fill="#323264"/>
<path fill-rule="evenodd" clip-rule="evenodd" d="M99.6508 154.002C97.8342 153.987 95.8801 153.606 93.7994 152.797C91.1719 151.776 89.5895 148.974 89.2622 146.481C89.0955 145.21 89.2302 143.872 89.8421 142.767C90.4814 141.613 91.5935 140.813 93.1223 140.641C94.0468 140.538 95.8809 140.736 97.964 142.82C100.196 145.051 101.405 148.131 101.802 151.508C102.924 151.287 103.95 150.887 104.884 150.35C107.577 148.8 109.648 146.025 111.007 142.723C112.362 139.427 112.965 135.708 112.797 132.416C112.626 129.082 111.68 126.401 110.176 124.958C109.718 124.518 109.703 123.79 110.142 123.332C110.582 122.874 111.31 122.859 111.768 123.298C113.886 125.33 114.91 128.712 115.094 132.298C115.279 135.927 114.62 139.986 113.134 143.598C111.651 147.202 109.301 150.461 106.031 152.343C104.782 153.062 103.419 153.568 101.949 153.82C101.999 157.767 101.074 162.046 99.3631 166.023C95.8196 174.259 88.692 181.599 79.2965 181.599C78.6614 181.599 78.1465 181.085 78.1465 180.449C78.1465 179.814 78.6614 179.299 79.2965 179.299C87.3817 179.299 93.885 172.936 97.2504 165.114C98.8292 161.445 99.6705 157.544 99.6508 154.002ZM99.5089 151.7C98.0255 151.667 96.4025 151.341 94.6327 150.653C93.0156 150.025 91.7965 148.116 91.5427 146.181C91.4189 145.238 91.5488 144.433 91.8539 143.882C92.1315 143.381 92.5886 143.015 93.3786 142.927C93.5906 142.903 94.7367 142.845 96.3377 144.446C98.0931 146.201 99.1469 148.725 99.5089 151.7Z" fill="#E52600"/>
</g>
<defs>
<clipPath id="clip0_4466_9102">
<rect width="184" height="184" fill="white"/>
</clipPath>
</defs>
</svg>
