<svg viewBox="0 0 32 32" fill="none" xmlns="http://www.w3.org/2000/svg">
<path fill-rule="evenodd" clip-rule="evenodd" d="M13.453 5.87809C13.453 4.00603 14.7374 2.83895 16.2871 2.94627C17.8295 3.05318 18.8977 4.45775 18.7037 5.97604C18.5226 7.39474 17.8857 8.21963 16.5097 8.93695L16.4308 8.97677L16.522 9.0639C17.2746 9.77201 18.2353 10.4302 19.3346 10.9665L19.4854 11.0388L19.7253 11.1499L19.9514 11.2497C20.5027 11.4861 20.9592 11.6278 21.5776 11.759L21.8342 11.811L22.2594 11.8896L22.867 11.9931L23.0862 12.032C23.1202 12.0382 23.153 12.0444 23.1849 12.0506L23.3664 12.088L23.5351 12.1272C23.5626 12.134 23.5901 12.1409 23.6176 12.1481C24.5731 12.3983 25.1599 13.1523 25.0465 14.0211C24.8043 15.879 22.5611 16.3328 19.9931 15.443C19.6487 15.3236 19.4663 14.9477 19.5856 14.6033C19.705 14.2589 20.0809 14.0764 20.4253 14.1957C22.3192 14.852 23.6419 14.5844 23.7376 13.8504C23.7595 13.6823 23.63 13.5159 23.2835 13.4251L23.1479 13.3918L23.0007 13.3599L22.8337 13.3277L22.5276 13.2745L22.1726 13.2144L21.8462 13.1565C21.794 13.147 21.7428 13.1375 21.6925 13.128L21.402 13.0709C20.5608 12.8989 19.9779 12.7131 19.1918 12.3574L18.9217 12.2324C17.4326 11.5291 16.1423 10.6165 15.1896 9.60131L15.1328 9.53997L14.8769 9.63642L13.6903 10.0603L13.3403 10.1897C12.2755 10.5922 11.5204 10.9733 10.8819 11.472C8.55861 13.2868 7.72282 15.6816 8.52663 16.1178C8.71749 16.2215 9.00399 16.1343 9.21396 15.8467L9.24869 15.7973L9.30373 15.7096L9.61131 15.1787L9.7815 14.8765C10.0744 14.3728 10.359 13.9598 10.7149 13.5558C10.7611 13.5033 10.8081 13.4515 10.8561 13.4002C11.3902 12.8301 11.9259 12.3854 12.4392 12.0514C12.6628 11.9059 12.8523 11.7998 12.9994 11.728L13.115 11.6746C13.1325 11.6671 13.1491 11.6602 13.1647 11.654C13.5886 11.4856 14.0515 11.7877 14.068 12.2435C14.224 16.5534 13.2133 20.2188 11.8924 22.6169C11.6548 23.0483 11.398 23.4633 11.1183 23.8735L11.0152 24.0211L10.8942 24.1884L10.6861 24.4684L10.3753 24.8764L9.62253 25.8409L9.08239 26.5294L9.07299 26.5424C8.80937 26.9181 8.84931 27.1915 9.18383 27.4326C9.39394 27.5841 9.67392 27.5511 10.0704 27.2502L10.164 27.176L10.2618 27.092L10.364 26.9981C10.3814 26.9816 10.399 26.9647 10.4168 26.9473L10.5259 26.838L10.6396 26.7181L10.7582 26.5875C10.7784 26.5648 10.7988 26.5417 10.8194 26.5181L10.9455 26.3709L11.0767 26.2124L11.2132 26.0422C11.2364 26.0129 11.2599 25.9831 11.2835 25.9528L11.4282 25.7649L11.5785 25.5649L11.7345 25.3525L11.9795 25.0102L12.2381 24.6389L12.5107 24.2376C12.5418 24.1913 12.5732 24.1445 12.6048 24.0971C12.7368 23.8992 12.8646 23.6949 12.9882 23.4847C13.5233 22.5747 13.9589 21.5949 14.3007 20.6146C14.4204 20.2716 14.5196 19.9536 14.5993 19.6693L14.6738 19.3906L14.6892 19.3267C14.8127 18.7873 15.5053 18.6303 15.8494 19.0637C16.24 19.5556 16.6129 20.0725 16.9704 20.6137C17.6508 21.6437 18.2521 22.7215 18.8288 23.9026L19.0406 24.3433L19.229 24.7506L20.1804 26.8702C20.5047 27.5634 20.8691 27.8105 21.1211 27.7205C21.4679 27.5969 21.5639 27.2672 21.3539 26.4066C21.3176 26.2577 21.2724 26.0992 21.2178 25.9302L21.1479 25.7222C21.1355 25.6867 21.1227 25.6507 21.1095 25.6143L21.0258 25.3902L20.9329 25.1549L20.8304 24.908C20.8126 24.8658 20.7943 24.8232 20.7756 24.78L20.6587 24.5148C20.6384 24.4695 20.6177 24.4237 20.5966 24.3774L20.4649 24.093C20.4421 24.0445 20.4189 23.9954 20.3953 23.9458L20.2484 23.6412L20.0912 23.3227L19.9236 22.9897L19.7454 22.642L19.5564 22.279L19.4579 22.0917C19.2636 21.7237 19.0475 21.3472 18.7985 20.939L18.6393 20.6811L17.446 18.8167L17.3515 18.6661C16.8835 17.9049 16.6421 17.4004 16.5837 16.9458L16.5763 16.8856L16.5649 16.7706L16.558 16.6601C16.5558 16.6055 16.5553 16.5512 16.5568 16.4956L16.5624 16.3817C16.5637 16.3623 16.5653 16.3425 16.5672 16.3223L16.5809 16.1964C16.5837 16.1745 16.5867 16.1521 16.59 16.1291L16.626 15.9047L16.6761 15.6377L16.7411 15.3169L16.7662 15.1961C16.9088 14.5126 16.9606 14.1053 16.9382 13.6278C16.9211 13.2637 17.2025 12.9546 17.5666 12.9376C17.9307 12.9205 18.2397 13.2018 18.2568 13.5659C18.2836 14.1372 18.2306 14.6095 18.0919 15.3019L17.9811 15.8437L17.9387 16.0666L17.9172 16.1914L17.9009 16.3005L17.8893 16.3966C17.8878 16.4116 17.8864 16.4263 17.8852 16.4406L17.8803 16.5222L17.8794 16.5977C17.8796 16.61 17.8799 16.622 17.8804 16.634L17.885 16.7055L17.8929 16.7776C17.9053 16.8743 17.9532 17.0117 18.039 17.1929L18.1104 17.337C18.1235 17.3624 18.1373 17.3885 18.1516 17.4153L18.2448 17.5846L18.3529 17.771L18.528 18.0581L19.7612 19.9854L19.7928 20.0361C20.1115 20.5497 20.3828 21.0162 20.6253 21.4756L20.9261 22.0514L21.1127 22.4158L21.2884 22.7653L21.4535 23.1004L21.6079 23.4216L21.752 23.7295C21.7751 23.7797 21.7979 23.8294 21.8202 23.8786L21.949 24.1676C21.9696 24.2147 21.9899 24.2614 22.0097 24.3075L22.1237 24.5787L22.228 24.8388C22.2445 24.8812 22.2607 24.9232 22.2765 24.9648L22.3666 25.2091C22.3809 25.249 22.3947 25.2885 22.4082 25.3275L22.4845 25.5574C22.5443 25.745 22.5948 25.9234 22.6363 26.0937C22.9871 27.5317 22.6869 28.5636 21.5647 28.9638C20.5411 29.3292 19.5632 28.6661 18.9848 27.4296L18.3229 25.9491L17.9422 25.1116L17.8094 24.8275C17.2042 23.5565 16.58 22.4177 15.869 21.3413C15.8016 21.2393 15.7337 21.1382 15.6652 21.0382L15.5884 20.928L15.5471 21.0493C15.2121 22.0098 14.7934 22.9706 14.2822 23.882L14.126 24.1539C13.99 24.3852 13.849 24.6106 13.7029 24.8296L13.3985 25.2802L13.2013 25.5653C13.1689 25.6118 13.1366 25.6578 13.1044 25.7033L12.9139 25.9703L12.7276 26.2252L12.5455 26.4681L12.3672 26.699L12.1928 26.9181L12.0221 27.1252C10.5581 28.8694 9.49253 29.2822 8.41202 28.5035C7.50718 27.8513 7.33089 26.803 7.93697 25.8665L8.00429 25.7678L8.18879 25.5282L9.03321 24.4524L9.48557 23.8668L9.76125 23.5009L9.93406 23.2637L10.0277 23.1298C10.2846 22.753 10.5195 22.3735 10.7362 21.98C11.8222 20.0084 12.6954 17.0466 12.76 13.537L12.7612 13.4404L12.636 13.5391C12.4137 13.7187 12.1865 13.9246 11.9573 14.1587L11.8195 14.3026C11.7808 14.3439 11.7428 14.3858 11.7055 14.4281C11.4502 14.7181 11.236 15.0188 11.0169 15.381L10.8874 15.6008L10.5813 16.1456L10.494 16.296C10.4804 16.319 10.4671 16.3411 10.4541 16.3624L10.3779 16.483L10.3403 16.5393C10.3204 16.5687 10.3004 16.5971 10.2803 16.6248C9.70241 17.4162 8.70866 17.7188 7.89685 17.2779C6.75867 16.6602 6.67014 15.2583 7.35722 13.7402L7.44913 13.5459C7.88147 12.6688 8.56592 11.7629 9.45053 10.9547L9.65039 10.7768C9.78579 10.6593 9.9255 10.5441 10.0694 10.4318C10.8319 9.8361 11.6952 9.40033 12.8736 8.95498L13.1121 8.86612L13.6037 8.68916L14.284 8.44757L14.2315 8.36382C13.7558 7.59288 13.48 6.79101 13.4549 5.99711L13.453 5.87809ZM16.1958 4.26312C15.4014 4.2081 14.773 4.7791 14.773 5.87809C14.773 6.51568 15.0286 7.1984 15.4875 7.87225L15.5368 7.94317L15.5974 7.91547C16.767 7.36229 17.2436 6.81257 17.3832 5.88894L17.3944 5.80885C17.4949 5.02209 16.9578 4.31593 16.1958 4.26312Z" fill="#E52600"/>
</svg>
