<svg width="48" height="48" viewBox="0 0 48 48" fill="none" xmlns="http://www.w3.org/2000/svg">
<circle cx="24" cy="24" r="23.5" fill="#F5F5F0" stroke="#D9DADA"/>
<path fill-rule="evenodd" clip-rule="evenodd" d="M14.2589 35.6312H26.2083C27.2686 35.6312 28.1283 34.7716 28.1283 33.7112V15.1025C28.1283 14.2203 27.527 13.4516 26.6707 13.2391L20.656 11.7464C19.6269 11.491 18.5855 12.1183 18.3301 13.1475C18.2926 13.2987 18.2736 13.454 18.2736 13.6099V26.1773C18.2736 27.2377 17.414 28.0973 16.3536 28.0973C16.2001 28.0973 16.0471 28.0789 15.898 28.0425L14.7144 27.7534C13.6843 27.5018 12.6453 28.1329 12.3937 29.163C12.3573 29.3121 12.3389 29.4651 12.3389 29.6186V33.7112C12.3389 34.7716 13.1985 35.6312 14.2589 35.6312Z" fill="var(--medication-icon-shadow,  #C2E8FF)"/>
<path fill-rule="evenodd" clip-rule="evenodd" d="M25.478 7.67989L26.8251 7.69955C28.4724 7.72338 29.7932 9.07474 29.8072 10.7328L29.807 10.8041L29.7665 13.6536C30.8671 13.917 31.6509 14.8981 31.6793 16.037L31.6801 16.103L31.6663 34.0431C31.6635 35.8978 30.1942 37.4035 28.3698 37.439L28.2985 37.4397L23.8153 37.4328V37.4327L16.4142 37.4212C15.2771 37.4195 14.3531 36.502 14.3229 35.3596L14.3221 35.2982L14.3298 30.164C14.3318 28.7823 15.6168 27.7777 16.9316 28.1102L16.9897 28.1258L18.6664 28.6002C19.4275 28.8156 20.2158 28.3891 20.4676 27.6416L20.4997 14.6255C20.5025 13.4236 21.3261 12.4559 22.3879 12.1889L22.4091 10.6966C22.4327 9.03003 23.7685 7.69384 25.4076 7.67969L25.478 7.67989ZM28.4511 10.7844L28.4148 13.3337L23.7435 12.2281L23.765 10.7163L23.7667 10.6605C23.8086 9.7539 24.5548 9.03846 25.4586 9.05152L26.8057 9.07118L26.8608 9.07288C27.7568 9.11526 28.464 9.87014 28.4511 10.7844ZM24.0322 36.0614L28.3006 36.0679C29.3891 36.0696 30.2764 35.1943 30.3093 34.1013L30.3103 34.0415L30.3193 22.2365L21.837 22.2233L21.8234 27.7313C21.8247 27.7969 21.8167 27.8637 21.7983 27.9302C21.3824 29.4343 19.857 30.3217 18.3688 29.9395L18.3011 29.9213L16.6245 29.4469C16.1669 29.3174 15.7132 29.6513 15.687 30.1239L15.6858 30.166L15.6782 35.3004C15.6775 35.6993 15.9854 36.0256 16.3742 36.0481L16.4162 36.0494L24.0214 36.0613L24.0322 36.0614ZM21.8404 20.8515L21.8557 14.6288L21.8567 14.5821C21.8863 13.8705 22.5503 13.3545 23.243 13.5185L29.4516 14.9879L29.5006 15.0007C29.9858 15.1388 30.3245 15.5878 30.3241 16.1019L30.3204 20.8647L21.8404 20.8515Z" fill="var(--medication-icon-border,  #0082AA)"/>
</svg>
