<svg width="25" height="24" viewBox="0 0 25 24" fill="none" xmlns="http://www.w3.org/2000/svg">
<path d="M18.2407 4.7078L18.308 16.629C18.3163 18.0894 17.7452 19.5272 16.7204 20.6261C15.6957 21.725 14.3012 22.395 12.8438 22.4887C11.3863 22.5823 9.98528 22.092 8.94885 21.1255C7.9125 20.1591 7.3256 18.7956 7.31737 17.3352L7.25006 5.41399C7.24455 4.44038 7.62528 3.48182 8.30843 2.74923C8.99159 2.01663 9.92125 1.56997 10.8929 1.50754C11.8645 1.44512 12.7986 1.77199 13.4895 2.4163C14.1804 3.06061 14.5717 3.96958 14.5772 4.94319L14.638 16.8713C14.6408 17.3581 14.4504 17.8374 14.1088 18.2037C13.7673 18.57 13.3024 18.7933 12.8166 18.8245C12.3308 18.8557 11.8638 18.6923 11.5183 18.3701C11.1729 18.048 10.9772 17.5935 10.9745 17.1067L10.9188 6.09965" stroke="var(--accent-interactive,#284B9B)" stroke-width="1.35" stroke-linecap="round" stroke-linejoin="round"/>
</svg>
