<svg width="32" height="32" viewBox="0 0 32 32" fill="none" xmlns="http://www.w3.org/2000/svg">
<path fill-rule="evenodd" clip-rule="evenodd" d="M16.3147 0.00804978C16.2789 0.00274769 16.2423 0 16.2051 0H16.0313L15.9963 0.000399584L15.978 0.000131967L15.7949 7.28581e-05L15.7517 0.00130967C15.7292 0.00260233 15.707 0.00489882 15.6851 0.00815465L15.6609 0.00987192C13.0963 0.212584 10.8363 1.81992 9.73898 4.15657C9.32972 5.0281 9.09673 5.97333 9.05934 6.94497L9.05471 7.45125L9.05364 7.97817L9.05707 8.16663C9.06062 8.27373 9.06686 8.3803 9.07576 8.48672C9.2735 10.8437 10.7892 12.9261 12.9846 13.8978L13.01 13.9085L14.0311 14.3157L6.08104 17.4859L6.05551 17.4966L6.03041 17.5083C3.88826 18.5552 2.5 20.7481 2.5 23.1908V26.3339L2.50096 26.4289C2.52597 27.6652 3.03986 28.9406 4.13468 29.9477C5.57184 31.2696 7.8591 31.9998 11.0825 31.9998C12.8358 31.9998 14.5085 31.6528 15.9999 30.9835C17.4918 31.6529 19.1646 32 20.9175 32C24.1409 32 26.4282 31.2698 27.8653 29.9478C28.9882 28.915 29.5 27.5998 29.5 26.3341V23.1907L29.4991 23.0831C29.459 20.6838 28.0802 18.5397 25.9696 17.5082L25.9445 17.4965L17.9691 14.3158L18.9903 13.9086L19.0156 13.8979L19.115 13.853C21.2567 12.8629 22.7298 10.808 22.9242 8.48695C22.9376 8.33011 22.9449 8.16984 22.9463 8.00747L22.9461 7.66385L22.9411 6.95853L22.9331 6.7908C22.8783 5.87386 22.6489 4.98207 22.2613 4.15665C21.1604 1.81243 18.8895 0.202221 16.3147 0.00804978ZM15.9951 1.45762L15.9929 1.45765L15.8451 1.45757L15.7642 1.46351C13.7744 1.62579 12.0056 2.86554 11.1148 4.67923L11.0703 4.77194C10.7623 5.42796 10.5793 6.13541 10.5339 6.86333L10.5267 7.0108L10.5239 7.35054L10.5224 7.78253L10.5224 7.99571C10.5234 8.11905 10.5291 8.24272 10.5394 8.36609C10.6896 10.1565 11.8315 11.7531 13.4935 12.5265L13.5732 12.5626L16.0001 13.5305L18.4225 12.5645L18.5067 12.5266C20.1391 11.7669 21.2696 10.2133 21.4517 8.46093L21.4606 8.36516C21.4675 8.28484 21.4723 8.20329 21.475 8.12119L21.4777 7.94357L21.4743 7.07466L21.473 7.00063C21.4431 6.2238 21.2571 5.46872 20.9299 4.77202C20.0545 2.9078 18.2594 1.6284 16.2359 1.46358L16.1548 1.45757L15.9978 1.45766L15.9951 1.45762ZM16.0002 15.1009L6.65654 18.8267L6.59497 18.8578C5.02844 19.662 4.0051 21.2801 3.96967 23.0935L3.96872 23.1908V26.3339C3.96872 27.2143 4.32852 28.1389 5.13325 28.8791C6.27144 29.9261 8.20286 30.5427 11.0825 30.5427C12.2383 30.5427 13.3487 30.373 14.3777 30.0444C14.0508 29.8231 13.7427 29.5946 13.4529 29.3593C12.1505 28.3023 11.2667 27.1568 10.7299 26.0009C10.5378 25.5875 10.4035 25.1997 10.317 24.8468C10.306 24.8021 10.2962 24.7596 10.2874 24.7192L10.2641 24.6048C10.2607 24.5869 10.2575 24.5695 10.2546 24.5527L10.2397 24.459L10.2299 24.3795C10.2293 24.3734 10.2287 24.3674 10.2282 24.3616C10.2276 24.356 10.2272 24.3506 10.2267 24.3453C10.2245 24.3175 10.2239 24.29 10.2248 24.2628C10.2144 24.156 10.2092 24.0483 10.2092 23.9403C10.2092 22.1282 11.6668 20.6539 13.4722 20.6539C14.4825 20.6539 15.3913 21.1177 15.9923 21.8493C16.5936 21.1176 17.5031 20.6539 18.5139 20.6539C20.3193 20.6539 21.7766 22.1282 21.7766 23.9403C21.7766 24.0481 21.7714 24.1556 21.7611 24.2622C21.762 24.2896 21.7614 24.3174 21.7591 24.3453L21.7517 24.4175L21.7394 24.5041C21.7344 24.5354 21.7286 24.569 21.7218 24.6048L21.6985 24.7192L21.6689 24.8468C21.5824 25.1997 21.4481 25.5875 21.256 26.0009C20.7192 27.1568 19.8355 28.3023 18.5332 29.3593C18.2447 29.5935 17.938 29.821 17.6129 30.0414C18.6447 30.3721 19.7584 30.5428 20.9175 30.5428C23.7971 30.5428 25.7286 29.9263 26.8668 28.8793C27.6455 28.1629 28.0076 27.2739 28.0302 26.4194L28.0313 26.3341V23.1907C28.0313 21.3381 26.9995 19.6763 25.405 18.8577L25.3426 18.8262L16.0002 15.1009ZM11.6929 24.2419L11.695 24.2592L11.6976 24.2761C11.7035 24.3137 11.7113 24.3561 11.7213 24.4029L11.7441 24.5025C11.8087 24.766 11.9123 25.0649 12.0638 25.3911C12.5084 26.3484 13.255 27.3161 14.3828 28.2315C14.8201 28.5864 15.3073 28.9262 15.847 29.2488L15.993 29.3348L16.139 29.2488C16.6248 28.9585 17.068 28.6542 17.4705 28.3375L17.6032 28.2315C18.7309 27.3162 19.4775 26.3484 19.9221 25.3911C20.0736 25.0649 20.1772 24.766 20.2418 24.5025L20.2646 24.4029C20.2679 24.3873 20.271 24.3722 20.2739 24.3576L20.2883 24.2761L20.293 24.2436C20.2924 24.2247 20.2926 24.2057 20.2936 24.1865L20.297 24.1438C20.3042 24.0767 20.3079 24.0087 20.3079 23.9403C20.3079 22.9267 19.5017 22.1111 18.5139 22.1111C17.6108 22.1111 16.8477 22.7942 16.7302 23.6951L16.7237 23.7523C16.7195 23.7975 16.7112 23.8417 16.6989 23.8844C16.6354 24.1077 16.4686 24.284 16.2572 24.3652C16.175 24.3969 16.086 24.4141 15.9937 24.4142C15.9003 24.4145 15.8103 24.3972 15.7272 24.3652C15.6453 24.3338 15.5709 24.2884 15.5068 24.2322C15.4028 24.1414 15.3245 24.0214 15.2854 23.8835C15.2729 23.8398 15.2645 23.7946 15.2606 23.7482C15.1662 22.821 14.3917 22.1111 13.4722 22.1111C12.4843 22.1111 11.6779 22.9267 11.6779 23.9403C11.6779 23.9859 11.6795 24.0313 11.6828 24.0764L11.6888 24.1438C11.6924 24.1768 11.6937 24.2096 11.6929 24.2419Z" fill="var(--icon-stroke, #284B9B)"/>
</svg>
