<svg width="24" height="24" viewBox="0 0 24 24" fill="none" xmlns="http://www.w3.org/2000/svg">
<path fill-rule="evenodd" clip-rule="evenodd" d="M12.0001 0C17.3849 0 21.75 4.37371 21.75 9.76897C21.75 12.7829 20.3878 15.4781 18.2466 17.27L18.023 17.4539C17.9272 17.5369 17.8683 17.6528 17.8592 17.78L17.8579 17.815V22.2653C17.8579 23.4074 16.8236 24.2514 15.7684 23.9317L12.6467 22.8873C12.249 22.7542 11.8207 22.7472 11.4198 22.8663L11.3533 22.8873L8.27653 23.9173C7.22119 24.2704 6.17205 23.4475 6.14271 22.3141L6.14208 17.815C6.142 17.6602 6.06838 17.5188 5.9467 17.4297L5.9199 17.4114C5.87299 17.3817 5.83213 17.3459 5.79771 17.3058C3.63093 15.5148 2.25 12.8035 2.25 9.76897C2.25 4.37374 6.61529 0 12.0001 0ZM16.7654 18.2936C15.3564 19.0861 13.7309 19.5379 12.0001 19.5379C10.2693 19.5379 8.64377 19.0861 7.23471 18.2936L7.23485 22.2653C7.23485 22.6901 7.57478 22.9744 7.9015 22.8874L7.93028 22.8788L11.007 21.8488C11.6258 21.6418 12.2927 21.6335 12.9154 21.824L16.0694 22.8787C16.3953 22.9878 16.7445 22.7188 16.7642 22.3025L16.7654 18.2936ZM12.0001 1.09489C7.21882 1.09489 3.34277 4.97844 3.34277 9.76897C3.34277 14.5595 7.21882 18.4431 12.0001 18.4431C16.7813 18.4431 20.6572 14.5595 20.6572 9.76897C20.6572 4.9784 16.7813 1.09489 12.0001 1.09489ZM10.801 5.53449C11.274 4.57436 12.6085 4.54007 13.1431 5.43162L13.1991 5.53449L14.0118 7.18442C14.0403 7.24217 14.09 7.28576 14.1494 7.30683L14.1956 7.31827L16.0128 7.58286C17.0732 7.73707 17.5177 9.00431 16.8292 9.78855L16.7539 9.86789L15.4391 11.1523C15.3929 11.1973 15.3669 11.2581 15.3653 11.3213L15.3688 11.3689L15.6793 13.1823C15.8605 14.2414 14.7927 15.0572 13.8345 14.6406L13.7391 14.5948L12.114 13.7387C12.0604 13.7104 11.9992 13.7034 11.9419 13.7175L11.8863 13.7386L10.2608 14.5948C9.31166 15.0948 8.20737 14.3291 8.3068 13.2873L8.32081 13.1823L8.63119 11.3688C8.64206 11.3054 8.62744 11.2409 8.59158 11.1888L8.56078 11.1522L7.2461 9.86799C6.47877 9.11887 6.86235 7.83179 7.87956 7.60273L7.98703 7.58287L9.804 7.3183C9.86788 7.30898 9.92473 7.27503 9.96314 7.22488L9.98831 7.18436L10.801 5.53449ZM12.2192 6.01915C12.1385 5.85531 11.9207 5.83892 11.8125 5.96996L11.7809 6.0191L10.9681 7.66916C10.7909 8.02844 10.4638 8.28744 10.0785 8.37931L9.9613 8.40178L8.1441 8.6664C7.96192 8.69289 7.87926 8.89919 7.97476 9.04292L8.00883 9.08392L9.32355 10.3682C9.6102 10.6481 9.75516 11.0401 9.72315 11.4354L9.70821 11.554L9.39786 13.3673C9.36675 13.5492 9.53714 13.6918 9.70292 13.6454L9.75231 13.6256L11.3778 12.7694C11.7284 12.5848 12.1402 12.5663 12.5033 12.7141L12.6223 12.7695L14.2476 13.6256C14.4105 13.7114 14.5986 13.5931 14.6058 13.4206L14.6023 13.3674L14.2918 11.5542C14.224 11.1591 14.3367 10.7566 14.5946 10.4554L14.6763 10.3682L15.9912 9.08381C16.123 8.95512 16.0689 8.73953 15.9073 8.67949L15.8557 8.66638L14.0383 8.40176C13.6424 8.34398 13.2954 8.11225 13.0894 7.77364L13.0319 7.66892L12.2192 6.01915Z" fill='var(--brand-primary, #e52600)'/>
</svg>
