<svg width="73" height="67" viewBox="0 0 73 67" version="1.1" xmlns="http://www.w3.org/2000/svg" xmlns:xlink="http://www.w3.org/1999/xlink" fill="currentColor"><g id="StyleGuide" stroke="none" stroke-width="1"><g id="Illustration" transform="translate(-922.000000, -3720.000000)"><g id="Icons/Red/48" transform="translate(922.000000, 3720.000000)"><path d="M36.5000528,0 C47.1791058,0 56.1349883,7.15335424 58.5482782,16.7875199 L65.2001592,16.7898546 C69.5011146,16.7898546 73,20.1821066 73,24.3519845 L72.9898949,24.5955049 L72.960372,24.8371043 L67.2079763,59.7129591 C67.0630928,63.6163859 63.852013,66.775312 59.8456159,66.9885276 L59.4134192,67 L13.5860524,67 C9.52523336,67 6.17961385,63.9756748 5.81864623,60.1282342 L5.79149537,59.7129591 L0.0396279676,24.8371043 C0.0126809496,24.6767637 0,24.5148864 0,24.3519845 C0,20.3211026 3.26951398,17.0168688 7.37204139,16.8010653 L7.79931239,16.7898546 L14.4508036,16.7875201 C16.8642166,7.15335471 25.820549,0 36.5000528,0 Z M59.30427,22.1309386 C59.30427,34.2624093 49.0944283,44.0968829 36.5000531,44.0968829 C23.9051462,44.0968829 13.6947741,34.2624086 13.6947741,22.1309386 C13.6947741,21.4120366 13.7306294,20.701201 13.8007116,20 L7.65271877,20 C5.19967466,20 3.19035737,21.8285527 3.01276043,24.1476745 L3,24.4821709 L8.81629677,59.5179059 C8.81629677,61.8807222 10.7145959,63.8165989 13.1218151,63.9877058 L13.4690155,64 L35.1721084,64 L35.1721084,50.8457033 C35.1721084,49.9981598 35.8854151,49.31109 36.7653234,49.31109 C37.6138064,49.31109 38.3073754,49.9499597 38.3558338,50.7555331 L38.3585384,64 L59.5304534,64 C61.9834975,64 63.9932987,62.171524 64.1709396,59.8524022 L64.1837032,59.5179059 L70,24.4821709 C70,22.1193545 68.1017008,20.1834778 65.6940198,20.0123709 L65.3467502,20 L59.1983379,20 C59.2684165,20.7012009 59.30427,21.4120366 59.30427,22.1309386 Z M36.5005279,3 C25.7307595,3 17,11.5065996 17,22 C17,32.4934004 25.7307595,41 36.5005279,41 C47.2697309,41 56,32.4934369 56,22 C56,11.5065631 47.2697309,3 36.5005279,3 Z M30.8371839,13.38862 L35.5574592,17.7095441 C36.7343446,17.4071328 38.0499683,17.6804201 38.9760995,18.5294059 C40.3413002,19.7808874 40.3413002,21.8099073 38.9760995,23.0613889 C37.6103288,24.3128704 35.3975066,24.3128704 34.0317359,23.0613889 C33.1055358,22.2123399 32.8077024,21.00541 33.1382357,19.9261971 L28.500866,15.6760909 C27.8330447,15.0638981 27.8330447,14.0713374 28.500866,13.4591446 C29.1419745,12.8714395 30.1654833,12.8479313 30.8371839,13.38862 Z" id="Icon_Color"/></g></g></g></svg>
