<svg width="64" height="64" viewBox="0 0 64 64" fill="none" xmlns="http://www.w3.org/2000/svg">
<path fill-rule="evenodd" clip-rule="evenodd" d="M45.8549 13.6736C45.5234 15.6652 44.6446 17.4908 43.4313 18.1344C43.8843 18.7469 44.3779 19.0904 44.8256 19.1137C45.2534 19.1357 45.6862 18.8139 46.1018 18.146C46.2697 17.8762 46.4146 17.5791 46.533 17.2814L46.6043 17.0938L46.6634 16.9158C46.7996 16.4389 47.2132 16.0989 47.6992 16.051L47.8126 16.0453L53.0067 16.0249C54.8628 16.0035 56.2865 17.6508 56.3196 19.5837L56.1325 52.3065C56.0848 54.213 54.7209 55.7999 52.9786 55.8556L11.7023 56.0158C9.92262 55.9769 8.56751 54.4102 8.49073 52.5343L8.4873 52.3575L8.55611 19.7952C8.56008 17.8927 9.8795 16.2703 11.6498 16.157L11.812 16.1509L13.2432 16.1404L14.0448 16.1314L15.6171 16.1062L16.6962 16.0817L17.5273 16.057C16.9824 12.4438 18.0363 8.80986 20.7199 8.78369L20.8735 8.78626L21.049 8.7976C23.0652 8.97703 23.9915 10.7917 23.7474 13.0055C23.5328 14.9513 22.4707 16.951 20.9466 18.0299C20.8626 18.0894 20.7712 18.1378 20.6747 18.174C20.9764 18.6783 21.3076 18.936 21.6088 18.9377C22.3787 18.9417 22.9951 18.5588 23.5129 17.8547C23.711 17.5853 23.8769 17.2903 24.0086 16.9955L24.075 16.8403L24.1209 16.722L24.1466 16.6464C24.2911 16.1685 24.7145 15.834 25.2046 15.797L25.3188 15.7939L29.1218 15.8639L35.0983 15.958L39.1254 16.0019L39.9187 16.0064C39.0254 12.4057 39.9399 8.88861 42.9971 8.78593C45.4724 8.70287 46.3096 10.9415 45.8549 13.6736ZM53.8761 27.1405H10.9401L10.8873 52.3626C10.8859 53.0408 11.2663 53.5409 11.6477 53.6084L11.7238 53.6161L52.8402 53.4567C53.2449 53.4654 53.6599 53.0281 53.7247 52.3981L53.7329 52.2696L53.8761 27.1405ZM24.1676 41.5096C24.6854 41.5096 25.1112 41.9031 25.1624 42.4073L25.1676 42.5096V48.0536C25.1676 48.5713 24.7741 48.9972 24.2698 49.0484L24.1676 49.0536H18.8876C18.3698 49.0536 17.944 48.6601 17.8928 48.1558L17.8876 48.0536V42.5096C17.8876 41.9918 18.2811 41.5659 18.7853 41.5147L18.8876 41.5096H24.1676ZM35.0436 41.5096C35.5614 41.5096 35.9872 41.9031 36.0384 42.4073L36.0436 42.5096V48.0536C36.0436 48.5713 35.6501 48.9972 35.1458 49.0484L35.0436 49.0536H29.7636C29.2458 49.0536 28.82 48.6601 28.7688 48.1558L28.7636 48.0536V42.5096C28.7636 41.9918 29.1571 41.5659 29.6613 41.5147L29.7636 41.5096H35.0436ZM45.9196 41.5096C46.4374 41.5096 46.8632 41.9031 46.9144 42.4073L46.9196 42.5096V48.0536C46.9196 48.5713 46.5261 48.9972 46.0218 49.0484L45.9196 49.0536H40.64C40.1222 49.0536 39.6964 48.6601 39.6452 48.1558L39.64 48.0536V42.5096C39.64 41.9918 40.0335 41.5659 40.5377 41.5147L40.64 41.5096H45.9196ZM23.1672 43.5096H19.8872V47.0536H23.1672V43.5096ZM34.0432 43.5096H30.7632V47.0536H34.0432V43.5096ZM44.9192 43.5096H41.64V47.0536H44.9192V43.5096ZM24.1676 30.7936C24.6854 30.7936 25.1112 31.1871 25.1624 31.6913L25.1676 31.7936V37.3372C25.1676 37.8549 24.7741 38.2808 24.2698 38.332L24.1676 38.3372H18.8876C18.3698 38.3372 17.944 37.9437 17.8928 37.4394L17.8876 37.3372V31.7936C17.8876 31.2758 18.2811 30.8499 18.7853 30.7987L18.8876 30.7936H24.1676ZM35.0436 30.7936C35.5614 30.7936 35.9872 31.1871 36.0384 31.6913L36.0436 31.7936V37.3372C36.0436 37.8549 35.6501 38.2808 35.1458 38.332L35.0436 38.3372H29.7636C29.2458 38.3372 28.82 37.9437 28.7688 37.4394L28.7636 37.3372V31.7936C28.7636 31.2758 29.1571 30.8499 29.6613 30.7987L29.7636 30.7936H35.0436ZM45.9196 30.7936C46.4374 30.7936 46.8632 31.1871 46.9144 31.6913L46.9196 31.7936V37.3372C46.9196 37.8549 46.5261 38.2808 46.0218 38.332L45.9196 38.3372H40.64C40.1222 38.3372 39.6964 37.9437 39.6452 37.4394L39.64 37.3372V31.7936C39.64 31.2758 40.0335 30.8499 40.5377 30.7987L40.64 30.7936H45.9196ZM23.1672 32.7936H19.8872V36.3368H23.1672V32.7936ZM34.0432 32.7936H30.7632V36.3368H34.0432V32.7936ZM44.9192 32.7936H41.64V36.3368H44.9192V32.7936ZM26.0944 18.2088L26.0388 18.3229C25.8818 18.6272 25.6859 18.9509 25.4463 19.2766C24.511 20.5484 23.2268 21.3462 21.5959 21.3376C20.1048 21.3295 18.993 20.3333 18.2848 18.7639L18.2018 18.5729L18.1464 18.4352L17.4508 18.4608L16.8209 18.4792L15.6657 18.5057L14.8784 18.5196L12.4157 18.5475L11.8308 18.5508C11.4203 18.5555 11.009 19.0155 10.9608 19.6744L10.9561 19.8002L10.9457 24.7405H53.8897L53.9193 19.7177C53.9372 19.0092 53.5365 18.4845 53.1062 18.4296L53.0252 18.4248L48.652 18.4416L48.6168 18.5231C48.5522 18.665 48.4803 18.8115 48.4009 18.9606L48.276 19.1861L48.1394 19.4141C47.3109 20.7455 46.1796 21.5867 44.7015 21.5104C43.1588 21.4304 41.8766 20.3664 40.962 18.7217L40.854 18.5215L40.796 18.408L39.2355 18.4026L36.4425 18.3755L32.1523 18.3147L29.08 18.2635L26.0944 18.2088ZM43.0776 11.1846C42.1043 11.2173 41.6673 13.277 42.3004 15.6348L42.3573 15.8376L42.3896 15.944L42.4447 15.8872C42.5079 15.8164 42.5755 15.7267 42.6448 15.6203L42.7146 15.5085L42.7849 15.386C43.1002 14.8146 43.361 14.0394 43.4874 13.2796C43.7296 11.8248 43.4851 11.1709 43.0776 11.1846ZM20.7758 11.1843C20.5327 11.1744 20.2055 11.5839 19.9831 12.5928C19.8152 13.3544 19.7722 14.2719 19.8499 15.1778L19.8848 15.5167L19.9192 15.7704L19.9838 15.709C20.6119 15.0755 21.0994 14.125 21.2946 13.1685L21.3344 12.9478L21.3618 12.7423C21.4797 11.6734 21.2293 11.2028 20.7758 11.1843Z" fill="#606565"/>
</svg>
