<svg width="48" height="48" viewBox="0 0 48 48" fill="none" xmlns="http://www.w3.org/2000/svg">
<circle cx="24" cy="24" r="23.5" fill="#F5F5F0" stroke="#D9DADA"/>
<path fill-rule="evenodd" clip-rule="evenodd" d="M22.7811 9.28963L17.604 17.3485C17.4436 17.5981 17.4441 17.9185 17.6052 18.1677C19.4051 20.9503 23.9791 23.6914 28.0571 24.7328C28.3752 24.814 28.7094 24.6807 28.8842 24.4027L34.0213 16.2324C35.8958 13.2512 35.0602 9.33609 32.1719 7.37148L31.918 7.20712C28.8135 5.29696 24.7512 6.22284 22.7811 9.28963Z" fill="var(--medication-icon-shadow,  #C2E8FF)"/>
<path fill-rule="evenodd" clip-rule="evenodd" d="M23.9625 11.4216L23.8752 11.5454C23.8528 11.573 23.8324 11.6002 23.8139 11.6287L23.7735 11.7L12.5796 29.5936C12.4799 29.7522 12.3923 29.9196 12.2997 30.1204C10.9097 33.0874 12.1048 36.7366 15.0754 38.5956L15.2995 38.7303C18.082 40.3377 21.5251 39.9173 23.588 37.7465L23.7245 37.596L23.8011 37.5496C23.8813 37.4933 23.9517 37.4203 24.007 37.3321L35.5098 18.9467L35.5577 18.8573L35.5853 18.7832C37.24 15.7798 36.0983 11.8975 32.9938 9.95521C29.9097 8.02531 25.9549 8.67169 23.9625 11.4216ZM32.1918 11.237C34.6697 12.7873 35.5437 15.8615 34.203 18.1557L34.1552 18.2527L34.1491 18.2712L29.2878 26.0404C25.7059 25.0176 21.7591 22.584 20.2098 20.2481L25.0868 12.4526C26.5227 10.3042 29.5375 9.7169 31.9835 11.1125L32.1918 11.237ZM19.3459 21.629L13.8605 30.397C13.7993 30.4944 13.7402 30.6073 13.6708 30.7578C12.6117 33.0185 13.5392 35.8505 15.8774 37.3138C18.2126 38.7744 21.1652 38.3691 22.7344 36.4285L22.7717 36.3857L22.8115 36.3464L22.8682 36.3L28.4558 27.3701C24.9419 26.2784 21.2289 24.0163 19.3459 21.629Z" fill="var(--medication-icon-border,  #0082AA)"/>
</svg>
