<svg viewBox="0 0 34 32" fill="none" xmlns="http://www.w3.org/2000/svg">
<path fill-rule="evenodd" clip-rule="evenodd" d="M13.8989 7.08069L14.3325 7.0825L14.9681 7.09077L15.3811 7.1L15.7848 7.11222L16.1787 7.12745L16.7496 7.15594L17.1162 7.17872L17.4709 7.20455L17.813 7.23343L18.1419 7.26537L18.4571 7.3004L18.6094 7.31906L18.9028 7.35873L19.1811 7.4015C19.5417 7.4606 19.8601 7.52802 20.1299 7.60389C20.1648 7.61372 20.1988 7.6267 20.2315 7.64268C20.4546 7.752 20.7366 7.9279 21.0543 8.14906L21.2989 8.32307L21.4255 8.41582L21.6861 8.61154L21.9548 8.81924L22.2292 9.03691L22.5073 9.26255L22.8568 9.55278L23.2044 9.84844L23.4783 10.0863L23.7461 10.3231L24.1316 10.672L24.3747 10.8975L24.6042 11.115L24.8178 11.3225C24.8861 11.3897 24.9515 11.455 25.0134 11.518L25.1889 11.6994C25.2713 11.7863 25.3453 11.8672 25.4097 11.941L25.4567 11.9956L25.5599 12.0163C25.7241 12.0494 25.8894 12.0845 26.0552 12.1214L26.3872 12.1977L26.7197 12.2788L27.0516 12.3643L27.2171 12.4087L27.6285 12.524L28.035 12.6452L28.3555 12.7462C28.5676 12.8146 28.7762 12.8851 28.9802 12.9574L29.2824 13.0673L29.5878 13.184L29.8835 13.303C30.9489 13.7436 31.7989 14.2266 32.2019 14.6897L32.2513 14.7492C32.6813 15.2938 32.8993 16.0317 32.9727 16.9338C33.0136 17.4377 33.0085 17.9293 32.9711 18.5303L32.9288 19.1223C32.9172 19.4033 32.7659 19.6138 32.4202 19.7777L32.3255 19.8194L32.2748 19.8395L32.1665 19.8782L32.1089 19.8969L31.9216 19.9501L31.7846 19.9835L31.6375 20.0153L31.4802 20.0456L31.3125 20.0744L31.0408 20.1153L30.846 20.1411L30.64 20.1658L30.1934 20.2124L29.8275 20.2452L29.4342 20.2766L29.0127 20.3068L28.2458 20.3556L27.7373 20.3842C28.6583 22.9062 27.0264 25.1296 24.6378 24.9051C22.4019 24.695 21.2626 22.5571 21.9106 20.6103L21.1803 20.6225L20.3735 20.6327L19.5928 20.6391L18.8304 20.6414L18.0788 20.6397C17.8292 20.6384 17.5802 20.6364 17.3304 20.6337L16.5778 20.6234L15.8132 20.6086L14.6274 20.5776L13.7999 20.551L12.4843 20.5018C12.1532 20.4885 11.8956 20.2093 11.9088 19.8782C11.9221 19.5471 12.2013 19.2895 12.5324 19.3028L13.839 19.3516L14.6606 19.3781L15.4514 19.3997L16.4081 19.4203L17.3434 19.4338C17.5913 19.4365 17.8384 19.4384 18.0861 19.4397L18.8321 19.4414L19.5889 19.4391L20.3642 19.4327L21.1655 19.4226L22.0003 19.4087L22.891 19.3911L22.9314 19.3926L22.8763 19.3912C22.8983 19.3908 22.92 19.3915 22.9414 19.3933L22.995 19.4004L23.0496 19.4128L23.1024 19.4301L23.1535 19.4524L23.2168 19.4884L23.233 19.4995C23.2615 19.5194 23.2878 19.5414 23.3117 19.5651L23.3383 19.5933C23.3573 19.6146 23.3745 19.637 23.3899 19.6604C23.407 19.6864 23.4218 19.713 23.4344 19.7405L23.4612 19.8101C23.4684 19.8326 23.4743 19.8558 23.4787 19.8795C23.4916 19.9479 23.4927 20.0184 23.4815 20.0877L23.4747 20.1226L23.464 20.1634L23.4495 20.2059L23.4273 20.2567L23.4091 20.2906L23.3808 20.335C22.3954 21.7441 23.096 23.5549 24.75 23.7104C26.3973 23.8652 27.4535 22.2031 26.3494 20.2315L26.2812 20.1121L26.2677 20.085C26.2636 20.0761 26.2597 20.067 26.256 20.0579C26.2392 20.0164 26.2274 19.9739 26.2203 19.931L26.2128 19.8549L26.2131 19.8047L26.2219 19.7272L26.2338 19.6745L26.2498 19.6247L26.2743 19.568L26.2913 19.5359L26.3197 19.491L26.3521 19.4486L26.3822 19.415L26.4182 19.381L26.4559 19.3508L26.5108 19.3145L26.5542 19.2916L26.6122 19.2677L26.6377 19.2592L26.6798 19.2481L26.738 19.2379L26.7817 19.2341L27.2371 19.2097L27.8898 19.1711L28.3037 19.1442L28.6999 19.1162L29.0778 19.0873L29.7766 19.0268L30.0962 18.9953L30.3951 18.963L30.6728 18.9298L30.9224 18.8968L31.149 18.8634L31.352 18.8297L31.5308 18.7958C31.5585 18.7902 31.5853 18.7845 31.6109 18.7789L31.7535 18.7444L31.7605 18.65C31.8059 18.0093 31.8162 17.5173 31.7766 17.0311C31.7207 16.3432 31.5651 15.8166 31.3095 15.4929C31.1227 15.2563 30.6853 14.9825 30.0932 14.7034L29.878 14.6048L29.6509 14.5059L29.4128 14.4073L29.1012 14.2848L28.7757 14.1636L28.5066 14.068L28.2307 13.9741L27.9491 13.882L27.8064 13.8367L27.5177 13.7481L27.3721 13.7047L27.0786 13.6202L26.783 13.5388L26.4864 13.4608L26.1895 13.3867L25.8934 13.3165C25.795 13.2939 25.6968 13.2719 25.599 13.2508L25.3072 13.1897L25.0621 13.1418C25.0352 13.1486 25.0076 13.153 24.9794 13.1553L24.9216 13.1574L7.0951 12.9552C6.78384 12.9517 6.52697 12.7107 6.5036 12.4003C6.48424 12.1431 6.62958 11.69 6.86363 11.1576L6.9618 10.9407L7.06835 10.717C7.08675 10.6793 7.10545 10.6413 7.12443 10.6032L7.25491 10.3466L7.42748 10.0218L7.60789 9.69667L7.7559 9.43935L7.83062 9.31239L8.05546 8.94175L8.27739 8.59241L8.32832 8.51469L7.96788 8.55238L7.82946 8.56835L7.51117 8.60916L7.23462 8.65092L7.04522 8.68476L6.86736 8.72321L6.77815 8.74707L6.74677 8.75721L6.6045 8.89473L6.28431 9.19285L5.66206 9.75724L4.69177 10.6204L4.41891 10.8704L4.16944 11.1039L3.83458 11.4268L3.63419 11.6272L3.45238 11.8155C3.30869 11.9675 3.18465 12.1068 3.08096 12.2332C1.96036 13.5993 1.57796 17.1694 2.61165 18.4811C2.62341 18.496 2.64653 18.5121 2.68082 18.5291L2.7406 18.5552L2.81695 18.5826L2.93548 18.6184L3.07936 18.6557L3.21252 18.6863L3.44198 18.7333L3.70664 18.7811L4.00595 18.8293L4.3394 18.8772L4.5804 18.9089L4.83617 18.94L5.2472 18.9857L5.53923 19.0151C5.74042 19.0346 5.90875 19.1513 6.00219 19.3142C6.19095 19.5184 6.21772 19.8333 6.05043 20.0688C4.97146 21.5878 5.78276 23.1454 7.20209 23.2848C8.2783 23.3906 8.95794 22.8537 9.09472 21.8221C9.19254 21.0828 8.94342 20.4305 8.62741 20.1907L8.58583 20.1618C8.30583 19.9845 8.22251 19.6139 8.39973 19.3339C8.57695 19.0539 8.9476 18.9706 9.2276 19.1478C9.97982 19.6239 10.445 20.7657 10.2843 21.9796C10.0624 23.6537 8.80378 24.648 7.08474 24.4791C5.0308 24.2773 3.74031 22.2047 4.64366 20.1273L4.36846 20.0946L4.10257 20.06L3.85183 20.0243L3.6159 19.9872C3.57779 19.9809 3.54028 19.9745 3.50337 19.9681L3.28899 19.9287L3.08852 19.8875C2.3463 19.726 1.90311 19.5207 1.66915 19.2239C0.253244 17.4271 0.701546 13.2418 2.15314 11.4722C2.32007 11.2687 2.52448 11.0446 2.76622 10.7983L2.98256 10.5816L3.27866 10.2949L3.60318 9.99029L4.01215 9.61791L5.33912 8.43772L5.79995 8.02176L5.88016 7.94412C5.96931 7.81626 6.17771 7.70569 6.49352 7.61034L6.6354 7.5704L6.79023 7.53228L6.95779 7.49596L7.23255 7.44477L7.43104 7.41277L7.75123 7.36788L7.97935 7.33998L8.343 7.30107L8.73181 7.26559L9.14507 7.2334L9.58207 7.2044L9.88626 7.18677L10.3613 7.1628L10.6902 7.14841L11.2013 7.12913L11.9148 7.10752L12.3288 7.0975L12.7849 7.08904L13.2353 7.0835L13.8989 7.08069ZM14.8331 8.28949L14.6355 11.8407L23.7631 11.9443L23.493 11.6968L23.01 11.2664L22.592 10.9033L22.2674 10.6267L22.0482 10.4428L21.7187 10.1708L21.3926 9.90735L21.1793 9.73865L20.9709 9.577L20.7688 9.4237L20.5272 9.24579L20.3002 9.08548L20.1309 8.97162C20.0221 8.90029 19.9216 8.83841 19.8312 8.78773L19.7499 8.74401L19.7138 8.73439C19.5267 8.68562 19.3128 8.64075 19.0747 8.59979L18.8288 8.56014L18.5673 8.5231C18.4777 8.51119 18.3855 8.49971 18.291 8.48867L17.85 8.44195L17.4595 8.40754L17.0494 8.37724L16.7079 8.35596L16.3552 8.33733L15.8065 8.31436L15.4285 8.30236L15.0414 8.29302L14.8331 8.28949ZM13.6315 8.28149L13.4142 8.28233L12.9908 8.28635L12.562 8.29306L12.1284 8.30246L11.5915 8.31777L11.0635 8.33692C10.9764 8.34042 10.8898 8.34408 10.8038 8.34788L10.2952 8.37242C10.2117 8.37679 10.129 8.38131 10.047 8.38595L9.89933 8.39531L9.88796 8.40867C9.86577 8.434 9.84195 8.46262 9.81666 8.49427L9.73656 8.59805L9.61773 8.76189L9.48729 8.95131L9.31139 9.2182L9.12545 9.51155L8.97249 9.76022L8.81829 10.0172L8.66515 10.2786L8.51539 10.5405L8.30211 10.9262L8.17087 11.1728C8.1289 11.253 8.08884 11.3312 8.05107 11.4065L7.94503 11.6235L7.89789 11.7246L7.87992 11.764L13.4347 11.8271L13.6315 8.28149Z" fill="#E52600"/>
</svg>
