<svg width="36" height="36" viewBox="0 0 36 36" fill="none" xmlns="http://www.w3.org/2000/svg">
<rect x="7" y="7" width="27" height="27" rx="13.5" fill="var(--icon-background, #C2E8FF)"/>
<path fill-rule="evenodd" clip-rule="evenodd" d="M31.6 9.5C31.6 7.8 30.25 6.4 28.55 6.4H8.35C6.75 6.4 5.45 7.7 5.45 9.35V22.95C5.45 24.4 6.55 25.55 7.95 25.55H9.8C10.95 25.55 11.95 26.55 11.95 27.7V30.95V31.05L14.85 27.55C15.5 26.85 16.8 25.6 18.55 25.6H28.9C30.45 25.6 31.6 24.5 31.6 23V9.5ZM8.3 5H28.55C31 5 33 7 33 9.5V22.95C33 25.25 31.15 26.95 28.9 26.95H18.55C17.55 26.95 16.55 27.7 15.9 28.45C15.0669 29.4433 14.2954 30.3955 13.7171 31.1093C13.393 31.5094 13.1296 31.8345 12.95 32.05C12.9 32.15 12.8 32.25 12.7 32.3C12.45 32.45 12.15 32.5 11.9 32.5C11.7 32.5 11.5 32.45 11.35 32.4C10.75 32.2 10.5 31.65 10.5 31V27.75C10.5 27.4 10.1 27 9.75 27H7.9C5.75 27 4 25.2 4 23V9.35C4 6.95 5.9 5 8.3 5ZM22.4303 14.9249C21.8089 14.8323 21.237 15.1597 21.1193 15.7413C20.9736 16.4624 21.3855 17.0648 22.0475 17.1989C22.7266 17.3362 23.2179 16.9569 23.3536 16.2863C23.4768 15.6769 23.148 15.108 22.575 14.9544L22.505 14.938L22.4303 14.9249ZM15.557 16.0088C15.557 15.3159 15.0877 14.9095 14.4037 14.9095C13.7571 14.9095 13.25 15.3803 13.25 16.0088C13.25 16.6716 13.6951 17.2076 14.3122 17.2076C15.0478 17.2076 15.557 16.6842 15.557 16.0088ZM19.3224 15.5042C19.0104 14.938 18.3536 14.7212 17.8029 15.0243C17.2224 15.3439 16.9676 15.9924 17.2652 16.5328C17.6203 17.1773 18.3241 17.3707 18.9157 17.0448C19.5224 16.7107 19.652 16.1035 19.3224 15.5042Z" fill="var(--icon-stroke, #284B9B)"/>
</svg>
