<svg fill="none" height="18" viewBox="0 0 18 18" width="18" xmlns="http://www.w3.org/2000/svg"><path d="m17.7737.226276c-.3017-.3017018-.7908-.3017009-1.0925 0l-7.68124 7.681174-7.68105-7.68117-.03224-.030357-.00477-.004194c-.303598-.2665862-.765934-.2550633-1.055623.034624-.3017027.301701-.3017027.790857 0 1.092557l7.681123 7.68109-7.681195 7.681-.030355.0323-.004197.0047c-.2665875.3036-.255064.766.034624 1.0557.301703.3017.790863.3017 1.092563 0l7.68112-7.6811 7.68114 7.6812.0322.0304.0048.0042c.3036.2665.7659.255 1.0556-.0347.3017-.3017.3017-.7908 0-1.0925l-7.6812-7.6812 7.6813-7.68109.0303-.03223.0042-.00479c.2666-.303591.2551-.765927-.0346-1.055614z" fill="#284b9b"/></svg>