<svg width="32" height="32" viewBox="0 0 32 32" fill="none" xmlns="http://www.w3.org/2000/svg">
<path fill-rule="evenodd" clip-rule="evenodd" d="M12.5944 1C14.1517 1 15.5712 1.80125 16.3871 3.08953C16.4128 3.11989 16.4361 3.15293 16.4567 3.18856C16.6869 3.58669 17.1025 3.84239 17.566 3.86221L17.6242 3.86345C17.6399 3.86345 17.6556 3.86399 17.671 3.86504L17.678 3.8646L17.7178 3.86345H20.1981H20.8831C23.23 3.86345 25.1375 5.74812 25.1782 8.08823L25.1789 8.1647V16.7677C24.9682 16.748 24.7548 16.7379 24.5389 16.7379C24.2969 16.7379 24.0578 16.7506 23.8223 16.7753V8.1647C23.8223 6.56269 22.5436 5.25945 20.9525 5.22254L20.8831 5.22174H20.1981C19.6525 5.22174 19.2073 5.65196 19.1823 6.19207L19.1812 6.23938L19.1813 6.25105C19.1813 7.60445 18.1028 8.70578 16.7594 8.7404L16.6942 8.74124H8.48457C7.11109 8.74124 5.99755 7.62628 5.99755 6.25105L5.99774 6.23479C5.99502 5.69087 5.56636 5.2478 5.02866 5.22285L4.98079 5.22174L4.96959 5.22165H4.29577C2.6958 5.22165 1.39422 6.502 1.35736 8.09514L1.35638 8.16442L1.35656 26.6908L1.3566 26.6988C1.3566 28.301 2.63511 29.604 4.22643 29.6409L4.29581 29.6417H20.8831C21.0819 29.6417 21.2761 29.622 21.4638 29.5843C22.0499 29.8833 22.6852 30.0995 23.3543 30.2175C22.6747 30.6968 21.8502 30.9838 20.9595 30.9993L20.8831 31H4.29581C1.92372 31 0.000847384 29.0752 4.54695e-05 26.7002L0 26.6987V7.81258C0 7.73764 0.00929105 7.6689 0.0263353 7.60637L0.0430029 7.55433L0.0527032 7.48895C0.372622 5.45897 2.1109 3.90084 4.2194 3.86403L4.29577 3.86336H7.59696L7.60608 3.86342C8.03825 3.86053 8.43345 3.65258 8.6826 3.31374C8.69766 3.2703 8.71738 3.22775 8.74193 3.18675C9.54727 1.84153 10.9986 1 12.5944 1ZM9.99478 3.74442C9.9805 3.787 9.96177 3.82878 9.93842 3.86916C9.45848 4.69912 8.57277 5.22174 7.59696 5.22174L7.58576 5.22165H7.12598C7.27239 5.5303 7.35431 5.87557 7.35431 6.24L7.35412 6.25631C7.35687 6.86253 7.83574 7.35627 8.43554 7.38191L8.48457 7.38296H16.6942C17.3021 7.38296 17.798 6.90245 17.8237 6.30014L17.8247 6.2517L17.8246 6.24C17.8246 5.87561 17.9065 5.53037 18.0529 5.22174H17.7178C17.7021 5.22174 17.6865 5.2212 17.671 5.22015C17.6556 5.2212 17.6399 5.22174 17.6242 5.22174C16.6939 5.22174 15.8454 4.74669 15.3524 3.98317C15.3287 3.95504 15.307 3.9246 15.2875 3.89194C14.7259 2.94813 13.7115 2.35829 12.5944 2.35829C11.537 2.35829 10.5714 2.88695 9.99478 3.74442ZM18.3962 12.7929C18.3962 12.4178 18.0925 12.1138 17.7179 12.1138H5.32212L5.28227 12.1149C4.92621 12.1356 4.64384 12.4312 4.64384 12.7929C4.64384 13.168 4.94752 13.472 5.32212 13.472H17.7179L17.7578 13.4709C18.1138 13.4502 18.3962 13.1546 18.3962 12.7929ZM13.2677 16.5201C13.2677 16.1451 12.964 15.841 12.5894 15.841H5.32212L5.28227 15.8421C4.92621 15.8628 4.64384 16.1584 4.64384 16.5201C4.64384 16.8952 4.94752 17.1993 5.32212 17.1993H12.5894L12.6293 17.1981C12.9853 17.1775 13.2677 16.8818 13.2677 16.5201ZM13.4445 4.5426C13.4445 5.01143 13.0651 5.3913 12.5968 5.3913C12.1288 5.3913 11.7492 5.01143 11.7492 4.5426C11.7492 4.07399 12.1288 3.69389 12.5968 3.69389C13.0651 3.69389 13.4445 4.07399 13.4445 4.5426Z" fill="var(--icon-stroke, #284B9B)"/>
<path fill-rule="evenodd" clip-rule="evenodd" d="M24.539 16.0587C20.4184 16.0587 17.0779 19.4035 17.0779 23.5293C17.0779 27.6552 20.4184 30.9999 24.539 30.9999C28.6595 30.9999 32 27.6552 32 23.5293C32 19.4035 28.6595 16.0587 24.539 16.0587ZM24.539 17.417C27.9103 17.417 30.6435 20.1537 30.6435 23.5293C30.6435 26.905 27.9103 29.6416 24.539 29.6416C21.1676 29.6416 18.4344 26.905 18.4344 23.5293C18.4344 20.1537 21.1676 17.417 24.539 17.417ZM27.6648 21.4286C27.3999 21.1634 26.9704 21.1634 26.7056 21.4286L23.5196 24.6185L22.3724 23.4696L22.3398 23.4391C22.0734 23.2048 21.6675 23.215 21.4132 23.4696C21.1483 23.7349 21.1483 24.1649 21.4132 24.4301L23.0401 26.0591L23.0727 26.0897C23.3391 26.3239 23.7451 26.3137 23.9994 26.0591L27.6648 22.389L27.6953 22.3564C27.9292 22.0897 27.9191 21.6832 27.6648 21.4286Z" fill="var(--icon-stroke, #284B9B)"/>
</svg>
