<svg width="24" height="24" viewBox="0 0 24 24" fill="none" xmlns="http://www.w3.org/2000/svg">
<path fill-rule="evenodd" clip-rule="evenodd" d="M12.1039 0.75C5.94819 0.75 0.958008 5.78679 0.958008 12C0.958008 18.2132 5.94819 23.25 12.1039 23.25C18.2597 23.25 23.2498 18.2132 23.2498 12C23.2498 5.78679 18.2597 0.75 12.1039 0.75ZM12.1039 1.78442C17.6936 1.78442 22.225 6.35808 22.225 12C22.225 17.6419 17.6936 22.2156 12.1039 22.2156C6.5142 22.2156 1.98286 17.6419 1.98286 12C1.98286 6.35808 6.5142 1.78442 12.1039 1.78442ZM11.34 8.86433C11.3232 8.57472 11.083 8.34505 10.7892 8.34505C10.4845 8.34505 10.2375 8.59205 10.2375 8.89674V11.326L10.2381 11.3928C10.2737 13.5911 12.0668 15.3622 14.2737 15.3622C14.5784 15.3622 14.8254 15.1152 14.8254 14.8105C14.8254 14.5058 14.5784 14.2588 14.2737 14.2588C12.6539 14.2588 11.3409 12.9458 11.3409 11.326V8.89674L11.34 8.86433Z" fill="var(--icon-stroke,#284B9B)"/>
</svg>
