<svg width="24" height="24" viewBox="0 0 24 24" fill="none" xmlns="http://www.w3.org/2000/svg">
<path fill-rule="evenodd" clip-rule="evenodd" d="M11.9584 0.750055L11.9674 0.750221L11.9846 0.75H12.0894C12.1129 0.75 12.136 0.751585 12.1587 0.754654C13.7419 0.873673 15.1374 1.87802 15.8125 3.33982C16.0492 3.85183 16.1896 4.40489 16.2238 4.97454L16.2291 5.08453L16.2317 5.42906L16.2318 5.50541C16.7263 5.17199 17.3008 4.96162 17.91 4.91061L17.935 4.90877C17.957 4.90587 17.9795 4.90438 18.0022 4.90438L18.0995 4.90447L18.1967 4.90438C18.2185 4.90438 18.24 4.90574 18.261 4.90839C19.5619 5.00671 20.7076 5.83157 21.2616 7.0311C21.4547 7.4486 21.5696 7.89907 21.5985 8.36163L21.6035 8.46414L21.6057 8.7236L21.606 8.98246C21.6053 9.06602 21.6017 9.14834 21.5949 9.22914C21.4969 10.418 20.7566 11.4706 19.6789 11.9808L19.6198 12.0081L19.602 12.0157L19.4012 12.0971L22.1849 13.2821L22.2121 13.2946C23.2785 13.8244 23.9752 14.9222 23.9994 16.1504L24 16.2163V18.9546C24 19.6148 23.7377 20.3001 23.1632 20.8372C22.4536 21.5007 21.3449 21.8695 19.8054 21.8846L19.7066 21.8851H19.2676C19.2385 21.9144 19.2086 21.9433 19.178 21.9719C18.2963 22.7963 16.8981 23.25 14.9351 23.25H9.00023C7.03732 23.25 5.63912 22.7963 4.75743 21.9719C4.72685 21.9433 4.69699 21.9144 4.66787 21.8851H4.29344C2.70251 21.8851 1.56145 21.5148 0.836766 20.8372C0.280246 20.3168 0.0166982 19.6575 0.000769962 19.0165L0 18.9546V16.2163C0 14.9836 0.678033 13.8735 1.7311 13.3235L1.78787 13.2946L1.81508 13.2821L4.5989 12.0971L4.39799 12.0157L4.38025 12.0081C3.27053 11.5088 2.5049 10.4396 2.40521 9.22997C2.40063 9.17555 2.39747 9.12082 2.39568 9.06555L2.3939 8.94144L2.39593 8.49735L2.39678 8.45569C2.41539 7.95928 2.53248 7.47644 2.73829 7.03129C3.28841 5.84017 4.42171 5.01856 5.71105 4.91061L5.73602 4.90877C5.75803 4.90587 5.78048 4.90438 5.80327 4.90438L5.90051 4.90447L5.99775 4.90438C6.01952 4.90438 6.04097 4.90574 6.06203 4.90839C6.65552 4.95324 7.21673 5.14932 7.70418 5.46321L7.70527 5.1668L7.70669 5.07511C7.7295 4.4706 7.87211 3.88245 8.12271 3.33991C8.79437 1.88607 10.1779 0.884821 11.7501 0.756741L11.7742 0.754987C11.7879 0.753063 11.8018 0.751683 11.8158 0.750869L11.8459 0.75L11.9584 0.750055ZM9.14584 7.22528C9.11996 7.15982 9.09222 7.09507 9.06264 7.0311C9.01782 6.93406 8.96913 6.83947 8.9168 6.74752C8.82068 6.49196 8.75876 6.22216 8.73586 5.94462C8.72975 5.87101 8.72639 5.79666 8.72575 5.72136L8.72581 5.57233L8.72854 5.11363C8.7462 4.64545 8.85662 4.19009 9.05084 3.76961L9.07964 3.70878C9.60759 2.6203 10.651 1.87694 11.8237 1.77785L11.8748 1.77401L11.9613 1.77405L11.9736 1.77389L12.0599 1.77401L12.1117 1.77785C13.3061 1.87893 14.3665 2.64822 14.8845 3.76959C15.0787 4.18979 15.1891 4.64515 15.2069 5.11391L15.2096 5.67618L15.208 5.79699C15.2064 5.84613 15.2035 5.89549 15.1995 5.94442C15.1669 6.33842 15.0559 6.72098 14.8741 7.07268L14.8405 7.13594C14.5312 7.70137 14.0484 8.16047 13.4657 8.43925L13.406 8.46682L11.9677 9.04983L10.5281 8.46631L10.4782 8.44322C9.91549 8.1761 9.4538 7.74632 9.14584 7.22528ZM7.99339 7.19472C8.05866 7.35686 8.13426 7.51437 8.2195 7.6663C8.3162 7.93031 8.37159 8.20901 8.3824 8.49429L8.38451 8.97611L8.38334 9.03251C8.3821 9.07004 8.37994 9.10735 8.37685 9.14412C8.312 9.93098 7.83677 10.6366 7.13865 11.0072L5.94521 11.491L5.91827 11.5035C5.90945 11.5078 5.90066 11.5122 5.89188 11.5167L4.79372 11.0716L4.74713 11.05C4.00289 10.6929 3.49162 9.96244 3.42425 9.14496C3.41953 9.08884 3.41701 9.03265 3.41659 8.97499L3.41661 8.82418L3.41841 8.50153L3.42297 8.4123C3.44557 8.08042 3.52846 7.75939 3.66637 7.46111L3.69226 7.40663C4.09777 6.57695 4.89318 6.01032 5.78588 5.93165L5.83061 5.9282L5.90045 5.92815L5.97019 5.9282L6.01514 5.93165C6.82967 6.00343 7.5632 6.48145 7.99339 7.19472ZM4.09097 13.4256L2.23064 14.2175L2.1936 14.2367C1.49907 14.6043 1.04363 15.3364 1.02328 16.1588L1.02257 16.2163V18.9546C1.02257 19.3456 1.18028 19.7576 1.53475 20.0891C2.00982 20.5333 2.80276 20.8138 3.97794 20.8559C3.83255 20.5031 3.75874 20.1359 3.75073 19.7738L3.75 19.7076V15.0488C3.75 14.4759 3.87054 13.9249 4.09097 13.4256ZM5.38732 21.1575C5.34628 21.0692 5.28084 20.9946 5.19966 20.9424C4.90646 20.5598 4.77257 20.1252 4.77257 19.7076V15.0488L4.77322 14.9859C4.79401 13.9776 5.31406 13.0711 6.1244 12.56L7.41126 12.0123L7.47088 11.9848C7.5012 11.9704 7.53126 11.9556 7.56104 11.9405L11.9677 10.1543L17.3407 12.3323L17.6327 12.4566C18.562 12.9514 19.1629 13.9431 19.1629 15.0488V19.7076L19.1621 19.7619C19.148 20.2695 18.9358 20.7977 18.48 21.2237C17.8066 21.8534 16.6574 22.2263 14.9351 22.2263H9.00023L8.90336 22.2259C7.23478 22.2121 6.11611 21.8415 5.45541 21.2238C5.43208 21.2019 5.40938 21.1798 5.38732 21.1575ZM19.8293 13.3917C20.0499 13.8789 20.1749 14.4165 20.1848 14.9764L20.1855 15.0488V19.7076C20.1855 20.0917 20.1115 20.483 19.9567 20.8579C21.1679 20.8241 21.9814 20.5415 22.4653 20.0891C22.805 19.7714 22.9639 19.3798 22.9766 19.0035L22.9774 18.9546V16.2163C22.9774 15.3707 22.5171 14.6128 21.8064 14.2367L21.7698 14.2178L19.8293 13.3917ZM18.0714 11.531C18.0534 11.5217 18.0352 11.5125 18.017 11.5035L17.9901 11.491L17.7243 11.3833L16.9889 11.0702L16.9372 11.0462C16.2019 10.6929 15.6906 9.96244 15.6232 9.14496C15.6185 9.08896 15.616 9.03259 15.6155 8.97438L15.6154 8.88467L15.6174 8.50219L15.622 8.41225C15.6447 8.0802 15.7276 7.75913 15.8653 7.46111L15.8912 7.40663C16.2967 6.57695 17.0922 6.01032 17.9849 5.93165L18.0297 5.9282L18.0995 5.92815L18.1692 5.9282L18.2141 5.93165C19.1262 6.01203 19.9368 6.60181 20.3335 7.46091C20.483 7.78424 20.5679 8.13408 20.5814 8.49409L20.5835 8.96008L20.5823 9.03226C20.5811 9.07001 20.5789 9.10727 20.5758 9.14412L20.5704 9.20107C20.4845 9.9962 19.9798 10.7012 19.2529 11.05L19.2048 11.0721L18.0721 11.5313L18.0714 11.531ZM14.8421 10.215L13.3301 9.60207L13.8019 9.41082L13.8195 9.40331L13.8959 9.368C14.1428 9.25077 14.3761 9.10945 14.5929 8.9471L14.5929 8.96202L14.5947 9.06568C14.5965 9.12131 14.5996 9.17583 14.6042 9.22997L14.6102 9.29464C14.6429 9.61455 14.7223 9.92402 14.8421 10.215ZM9.17029 10.1837L10.6053 9.60205L10.1336 9.41083L10.1159 9.40327C9.86416 9.29002 9.62699 9.15262 9.40694 8.99447C9.406 9.07414 9.40234 9.15242 9.39589 9.22914C9.36855 9.56085 9.29121 9.88196 9.17029 10.1837Z" fill="var(--icon-stroke,#284B9B)"/>
</svg>
