<svg viewBox="0 0 32 32" fill="none" xmlns="http://www.w3.org/2000/svg">
<path fill-rule="evenodd" clip-rule="evenodd" d="M24.536 2.93994C26.3211 2.93994 28.0404 4.5464 28.0404 6.42577C28.0404 8.50235 27.0975 10.1195 25.493 11.1688L25.4301 11.2091L25.4501 11.2261C27.6312 13.0713 28.6933 14.695 28.9558 17.468L28.9715 17.6466L28.9859 17.8309L29.0115 18.197L29.0326 18.5597L29.0493 18.9187L29.0616 19.274L29.0693 19.6253C29.0702 19.6835 29.0709 19.7415 29.0714 19.7994L29.0723 20.1444C29.0717 20.3159 29.0692 20.4857 29.0651 20.6538L29.0545 20.9876C29.0523 21.0429 29.05 21.0979 29.0474 21.1527L29.0298 21.4793L29.0075 21.8009C29.0034 21.854 28.9991 21.907 28.9946 21.9597L28.9651 22.2733C28.9545 22.377 28.9431 22.4797 28.9309 22.5815L28.8919 22.8841C28.885 22.9341 28.8778 22.9838 28.8705 23.0332L28.8242 23.327L28.773 23.6148C28.7641 23.6623 28.7549 23.7094 28.7456 23.7564L28.6869 24.0347C28.0659 26.8324 26.6741 28.6275 24.3652 28.6275C21.3054 28.6275 19.8176 26.9651 19.4128 23.5793L19.3815 23.2931L19.3552 22.999C19.3473 22.8996 19.3401 22.7989 19.3338 22.6969L19.3172 22.3867C19.3149 22.3344 19.3127 22.2817 19.3107 22.2287L19.3013 21.9065L19.2965 21.5764L19.2963 21.2382C19.3036 20.0509 19.4092 18.961 19.5811 17.9896L19.6275 17.7378L19.6736 17.5075L19.7186 17.2991L19.7621 17.1131L19.8033 16.9498L19.8417 16.8096L19.8767 16.693C19.9865 16.3454 20.3572 16.1527 20.7048 16.2624C21.0331 16.3661 21.2233 16.7026 21.151 17.0324L21.0884 17.2577L21.0604 17.367C20.9996 17.6099 20.9383 17.8951 20.8809 18.2197C20.7215 19.1201 20.6231 20.1362 20.6163 21.2463L20.6163 21.5782C20.6166 21.6326 20.6172 21.6866 20.6179 21.7402L20.6243 22.0566C20.6272 22.1603 20.6308 22.2623 20.6351 22.3627L20.6503 22.6586C20.6649 22.9009 20.6841 23.1328 20.7083 23.3544L20.7396 23.6154C21.0827 26.2189 22.168 27.3075 24.3652 27.3075C25.8891 27.3075 26.9089 25.8809 27.4027 23.6077L27.4554 23.3517L27.5037 23.0889L27.5477 22.8195C27.5617 22.7286 27.5749 22.6366 27.5874 22.5436L27.6227 22.2615C27.6282 22.2139 27.6336 22.1661 27.6387 22.1181L27.6675 21.8269C27.6763 21.7289 27.6845 21.6298 27.6919 21.5299L27.7119 21.2272C27.7178 21.1254 27.723 21.0227 27.7275 20.9191L27.7387 20.6057C27.7402 20.553 27.7415 20.5002 27.7427 20.4471L27.7473 20.1261L27.7475 19.8002L27.7433 19.4697L27.7347 19.1347C27.7329 19.0785 27.7309 19.0221 27.7287 18.9655L27.7134 18.6241C27.7076 18.5096 27.701 18.3945 27.6937 18.2786L27.6696 17.9293C27.6652 17.8708 27.6606 17.8121 27.6558 17.7532C27.4595 15.3296 26.6198 13.9732 24.7282 12.3453L24.1461 11.8567L24.0494 11.8942C22.957 12.3069 21.6794 12.5306 20.2668 12.5461L20.1092 12.547C18.6088 12.547 17.1881 12.2057 15.9915 11.6018L15.8969 11.5531L15.8522 11.5778C14.7014 12.1903 13.3758 12.5528 12.0345 12.5749L11.9046 12.5759C10.5909 12.5759 9.32662 12.3279 8.20828 11.8855L8.00568 11.8023L7.44785 12.3454L7.16528 12.6262C5.33289 14.4734 4.52176 15.8455 4.35784 17.8764L4.34324 18.0635L4.3174 18.4329L4.29609 18.7956C4.29292 18.8555 4.28993 18.9151 4.28714 18.9744L4.27264 19.3272C4.26653 19.5019 4.26214 19.674 4.25946 19.8436L4.25641 20.1793L4.25798 20.5082L4.26417 20.8301C4.26843 20.9893 4.27443 21.1458 4.28218 21.2997L4.30002 21.6038C4.30339 21.6539 4.30695 21.7037 4.3107 21.7532L4.33559 22.0466L4.3652 22.3327L4.39955 22.6114C4.79739 25.5907 6.03248 27.2641 8.20845 27.2641C9.36464 27.2641 10.4332 26.4687 11.23 25.1572L11.2541 25.1159L11.1959 24.9997C10.4544 23.4971 10.0396 21.6304 10.0192 19.5896L10.0184 19.4237L10.0208 19.1632L10.028 18.9106L10.0399 18.6662C10.1508 16.8243 10.7033 15.7177 11.9963 15.7177C13.1062 15.7177 13.6799 16.6723 13.873 18.1703L13.8985 18.3934C13.9023 18.4312 13.9059 18.4693 13.9093 18.5077L13.9269 18.7419C13.9319 18.8211 13.936 18.9015 13.9393 18.9831L13.9467 19.231C13.9484 19.3148 13.9492 19.3996 13.9492 19.4855C13.9492 21.5769 13.5224 23.5143 12.7824 25.0591L12.7649 25.0939L12.8097 25.1636C13.6071 26.3815 14.6899 27.1629 15.9605 27.3149L16.0668 27.3261C16.6001 27.3748 17.1136 27.2941 17.5799 27.1293C17.6284 27.1121 17.6737 27.0951 17.7155 27.0786L17.83 27.0309C17.8473 27.0234 17.8637 27.016 17.8791 27.0088L17.96 26.9693L18.0171 26.9378C18.3294 26.7498 18.735 26.8506 18.9229 27.1629C19.1109 27.4752 19.0101 27.8807 18.6978 28.0687C18.5586 28.1525 18.3282 28.2648 18.0197 28.3739C17.3852 28.5981 16.6856 28.7081 15.9469 28.6407C14.3925 28.4989 13.0843 27.6969 12.0955 26.4405L12.0253 26.3495L12.0136 26.3665C11.0443 27.7127 9.76747 28.5438 8.31504 28.5826L8.20845 28.5841C5.90731 28.5841 4.36685 27.2562 3.58185 24.9263C2.95927 23.0784 2.81133 20.6295 3.04212 17.7702C3.24116 15.3041 4.23961 13.6712 6.37629 11.5484L6.77288 11.1599L6.76571 11.1559C5.11233 10.1089 4.01948 8.56198 3.97466 6.78588L3.97323 6.6722C3.97323 4.41085 5.43027 2.94252 7.39053 2.94252C9.43974 2.94252 10.959 4.28645 10.959 6.62022C10.959 8.12849 10.3943 9.27249 9.14182 10.6501L9.02288 10.7791L9.08362 10.8004C9.90427 11.0777 10.8129 11.24 11.7619 11.2548L11.9046 11.2559C12.799 11.2559 13.6863 11.0727 14.4985 10.75L14.6093 10.7043L14.5616 10.6649C13.3454 9.64139 12.578 8.26109 12.5412 6.67728L12.5399 6.55812C12.5399 4.341 14.0017 2.93994 16.0068 2.93994C17.8607 2.93994 19.4393 4.52185 19.4393 6.34244C19.4393 7.98666 18.6016 9.47337 17.3142 10.5821L17.1853 10.6899L17.237 10.7107C18.06 11.0266 18.9883 11.2098 19.9688 11.2258L20.1092 11.227C21.0907 11.227 21.9854 11.1207 22.7776 10.9168L23.0005 10.8555L22.9777 10.8341C21.6458 9.55414 21.067 8.42229 21.0374 6.68394L21.0362 6.54165C21.0362 4.37546 22.6312 2.93994 24.536 2.93994ZM11.9963 17.0377C11.6266 17.0377 11.339 17.8267 11.3384 19.4243C11.3377 20.9049 11.5615 22.2664 11.9686 23.4277L11.9945 23.5003L12.0021 23.4788C12.3849 22.3588 12.6125 21.0514 12.6283 19.6424L12.6292 19.4855C12.6292 19.2233 12.6196 18.979 12.6022 18.7543L12.5822 18.5361C12.5747 18.4656 12.5664 18.3973 12.5574 18.3313L12.5281 18.1402C12.4078 17.4342 12.1979 17.0377 11.9963 17.0377ZM24.536 4.25994C23.3311 4.25994 22.3562 5.1373 22.3562 6.54165C22.3562 8.0495 22.8426 8.94457 24.1789 10.1494L24.3585 10.3087L24.4509 10.2576C25.8637 9.45594 26.6818 8.1841 26.7191 6.54358L26.7204 6.42577C26.7204 5.29619 25.6114 4.25994 24.536 4.25994ZM7.39053 4.26252C6.16157 4.26252 5.29323 5.1376 5.29323 6.6722C5.29323 8.02666 6.19361 9.26497 7.59072 10.1121L7.74648 10.2035L7.82316 10.1259C9.07337 8.83592 9.60542 7.90713 9.63746 6.73448L9.639 6.62022C9.639 5.05397 8.74431 4.26252 7.39053 4.26252ZM16.0068 4.25994C14.7185 4.25994 13.8599 5.08285 13.8599 6.55812C13.8599 7.92618 14.6251 9.13507 15.842 9.9798L15.8881 10.0111L15.9042 10.0005C17.1914 9.11139 18.0743 7.83433 18.1177 6.4492L18.1193 6.34244C18.1193 5.25026 17.1311 4.25994 16.0068 4.25994Z" fill="#E52600"/>
</svg>
