<svg width="24" height="24" viewBox="0 0 24 24" fill="none" xmlns="http://www.w3.org/2000/svg">
<path fill-rule="evenodd" clip-rule="evenodd" d="M9.44577 0.75C10.6138 0.75 11.6784 1.35094 12.2903 2.31714C12.3096 2.33991 12.3271 2.3647 12.3425 2.39142C12.5152 2.69002 12.8269 2.88179 13.1745 2.89666L13.2182 2.89759C13.23 2.89759 13.2417 2.89799 13.2533 2.89878L13.2585 2.89845L13.2884 2.89759H15.1486H15.6624C17.4225 2.89759 18.8531 4.31109 18.8837 6.06617L18.8842 6.12352V12.5758C18.7262 12.561 18.5661 12.5534 18.4042 12.5534C18.2227 12.5534 18.0434 12.5629 17.8668 12.5815V6.12352C17.8668 4.92202 16.9077 3.94459 15.7144 3.91691L15.6624 3.9163H15.1486C14.7394 3.9163 14.4054 4.23897 14.3867 4.64405L14.3859 4.67957L14.3859 4.68829C14.3859 5.70334 13.5771 6.52934 12.5696 6.5553L12.5207 6.55593H6.36343C5.33332 6.55593 4.49816 5.71971 4.49816 4.68829L4.49831 4.6761C4.49627 4.26816 4.17477 3.93585 3.77149 3.91714L3.73559 3.9163L3.72721 3.91624H3.22183C2.02185 3.91624 1.04567 4.8765 1.01802 6.07136L1.01728 6.12332L1.01742 20.0181L1.01745 20.0241C1.01745 21.2257 1.97633 22.203 3.16982 22.2307L3.22186 22.2313H15.6624C15.8114 22.2313 15.9571 22.2165 16.0979 22.1882C16.5374 22.4125 17.0139 22.5746 17.5157 22.6631C17.0061 23.0226 16.3876 23.2378 15.7196 23.2495L15.6624 23.25H3.22186C1.44279 23.25 0.000635778 21.8064 3.41023e-05 20.0252L0 20.024V5.85944C0 5.80323 0.00696829 5.75168 0.0197515 5.70478L0.0322522 5.66574L0.0395274 5.61671C0.279467 4.09422 1.58317 2.92563 3.16455 2.89802L3.22183 2.89752H5.69772L5.70456 2.89757C6.02869 2.8954 6.32509 2.73943 6.51195 2.48531C6.52324 2.45273 6.53804 2.42081 6.55645 2.39006C7.16045 1.38115 8.24895 0.75 9.44577 0.75ZM7.49609 2.80831C7.48538 2.84025 7.47133 2.87159 7.45382 2.90187C7.09386 3.52434 6.42957 3.9163 5.69772 3.9163L5.68934 3.91624H5.34448C5.45429 4.14773 5.51573 4.40668 5.51573 4.68L5.51559 4.69223C5.51765 5.14689 5.8768 5.5172 6.32666 5.53643L6.36343 5.53722H12.5207C12.9766 5.53722 13.3485 5.17683 13.3677 4.72511L13.3685 4.68874L13.3684 4.68C13.3684 4.40671 13.4299 4.14778 13.5397 3.9163H13.2884C13.2766 3.9163 13.2649 3.9159 13.2533 3.91511C13.2417 3.9159 13.23 3.9163 13.2182 3.9163C12.5204 3.9163 11.8841 3.56002 11.5143 2.98738C11.4965 2.96628 11.4802 2.94345 11.4657 2.91896C11.0444 2.2111 10.2836 1.76872 9.44577 1.76872C8.65273 1.76872 7.92857 2.16521 7.49609 2.80831ZM13.7971 9.59468C13.7971 9.31337 13.5694 9.08532 13.2884 9.08532H3.99159L3.9617 9.08618C3.69466 9.10168 3.48288 9.32341 3.48288 9.59468C3.48288 9.87599 3.71064 10.104 3.99159 10.104H13.2884L13.3183 10.1032C13.5854 10.0877 13.7971 9.86594 13.7971 9.59468ZM9.95078 12.3901C9.95078 12.1088 9.72303 11.8807 9.44207 11.8807H3.99159L3.9617 11.8816C3.69466 11.8971 3.48288 12.1188 3.48288 12.3901C3.48288 12.6714 3.71064 12.8995 3.99159 12.8995H9.44207L9.47196 12.8986C9.739 12.8831 9.95078 12.6614 9.95078 12.3901ZM10.0834 3.40695C10.0834 3.75857 9.79881 4.04347 9.44763 4.04347C9.09663 4.04347 8.81192 3.75857 8.81192 3.40695C8.81192 3.05549 9.09663 2.77042 9.44763 2.77042C9.79881 2.77042 10.0834 3.05549 10.0834 3.40695Z" fill="#284B9B"/>
<path fill-rule="evenodd" clip-rule="evenodd" d="M18.4044 12.0441C15.314 12.0441 12.8086 14.5527 12.8086 17.647C12.8086 20.7414 15.314 23.2499 18.4044 23.2499C21.4948 23.2499 24.0002 20.7414 24.0002 17.647C24.0002 14.5527 21.4948 12.0441 18.4044 12.0441ZM18.4044 13.0628C20.9329 13.0628 22.9828 15.1153 22.9828 17.647C22.9828 20.1788 20.9329 22.2312 18.4044 22.2312C15.8759 22.2312 13.826 20.1788 13.826 17.647C13.826 15.1153 15.8759 13.0628 18.4044 13.0628ZM20.7488 16.0715C20.5501 15.8726 20.228 15.8726 20.0293 16.0715L17.6399 18.4639L16.7795 17.6023L16.7551 17.5793C16.5552 17.4037 16.2508 17.4113 16.0601 17.6023C15.8614 17.8012 15.8614 18.1237 16.0601 18.3226L17.2803 19.5444L17.3047 19.5673C17.5045 19.743 17.809 19.7353 17.9997 19.5444L20.7488 16.7918L20.7717 16.7674C20.9471 16.5673 20.9395 16.2624 20.7488 16.0715Z" fill="#284B9B"/>
</svg>
