<svg width="48" height="48" viewBox="0 0 48 48" fill="none" xmlns="http://www.w3.org/2000/svg">
<circle cx="24" cy="24" r="23.5" fill="#F5F5F0" stroke="#D9DADA"/>
<path fill-rule="evenodd" clip-rule="evenodd" d="M11.52 21.6005C11.52 20.1882 12.4633 18.9498 13.8249 18.5746L14.69 18.3347L16.2995 17.8789L17.4011 17.5582L18.4122 17.2556L19.6195 16.8803L20.1628 16.7047L20.9023 16.4564L21.345 16.301L21.9337 16.0828L22.2758 15.9474L22.5777 15.8201L22.8394 15.7008L23.0609 15.5895C24.3674 14.8938 25.3275 13.5374 25.9412 11.5205C26.5827 13.5453 27.5475 14.9016 28.8354 15.5895L29.0539 15.6996L29.3126 15.8178C29.3591 15.8382 29.4072 15.8589 29.457 15.88L29.9506 16.0787L30.5346 16.2958L31.209 16.5313L32.2489 16.8738L33.1344 17.1521L34.1102 17.4488L35.5521 17.8729L37.5805 18.449C37.724 18.4891 37.8693 18.5295 38.0163 18.5703C39.3777 18.9482 40.32 20.1876 40.32 21.6005C40.32 22.926 39.2455 24.0005 37.92 24.0005H39.36C41.4808 24.0005 43.2 25.7197 43.2 27.8405C43.2 29.9613 41.4808 31.6805 39.36 31.6805H12.48C10.3592 31.6805 8.64001 29.9613 8.64001 27.8405C8.64001 25.7197 10.3592 24.0005 12.48 24.0005H13.92C12.5945 24.0005 11.52 22.926 11.52 21.6005Z" fill="var(--medication-icon-shadow,  #C2E8FF)"/>
<path fill-rule="evenodd" clip-rule="evenodd" d="M24.7187 11.8067L24.6882 11.732C24.6811 11.713 24.6731 11.6942 24.6644 11.6759C24.501 11.3292 24.097 11.1617 23.7344 11.3032C23.529 11.3832 23.3798 11.5459 23.3093 11.7388C23.2914 11.7841 23.2684 11.8385 23.2398 11.9013L23.1289 12.1314L22.9786 12.4147C22.9502 12.466 22.9201 12.5194 22.8883 12.5747C22.5158 13.2212 22.0412 13.8794 21.4559 14.5092C19.7504 16.3442 17.5674 17.4867 14.9526 17.911L14.5762 17.9667C11.7414 18.3466 10.0107 19.237 9.47445 20.6674C9.1027 21.6593 9.33693 22.6098 9.79732 23.3776C7.66061 23.7401 6.03357 25.6001 6.03357 27.84C6.03357 30.3399 8.06011 32.3664 10.56 32.3664H37.44C39.9398 32.3664 41.9664 30.3399 41.9664 27.84C41.9664 25.6001 40.3394 23.7402 38.2027 23.3776C38.6631 22.6097 38.8973 21.6592 38.5256 20.6674C38.0093 19.2899 36.3853 18.4133 33.7344 18.011L33.424 17.9667C30.6416 17.5938 28.3307 16.4315 26.5443 14.5092C25.9605 13.8811 25.4869 13.2248 25.1148 12.5797L25.024 12.4192L24.8725 12.1337L24.7603 11.9011C24.7449 11.8671 24.731 11.8356 24.7187 11.8067ZM36.4984 23.3136C36.5251 23.2051 36.5765 23.1012 36.6535 23.0109C37.0458 22.5449 37.3803 21.8051 37.1476 21.1891C36.8395 20.3732 35.4918 19.7404 33.23 19.4374L32.8329 19.3789C29.685 18.8718 27.2443 17.4449 25.4433 15.4947C24.8348 14.8358 24.3589 14.194 24.0001 13.6149C23.6411 14.194 23.1649 14.8364 22.5569 15.4947C20.6809 17.5261 18.1108 18.9898 14.7703 19.4374L14.4923 19.477C12.398 19.7935 11.1479 20.4072 10.8526 21.1891C10.62 21.805 10.9594 22.5558 11.3473 23.0115C11.4235 23.1019 11.4746 23.2056 11.501 23.3136H36.4984ZM10.56 24.6864H37.44C39.1817 24.6864 40.5936 26.0983 40.5936 27.84C40.5936 29.5817 39.1817 30.9936 37.44 30.9936H10.56C8.81828 30.9936 7.40637 29.5817 7.40637 27.84C7.40637 26.0983 8.81828 24.6864 10.56 24.6864Z" fill="var(--medication-icon-border,  #0082AA)"/>
</svg>
