<svg width="32" height="32" viewBox="0 0 32 32" fill="none" xmlns="http://www.w3.org/2000/svg">
<path fill-rule="evenodd" clip-rule="evenodd" d="M19.612 0C21.2086 0 22.5289 1.18345 22.7455 2.72197C22.7617 2.77584 22.7719 2.83233 22.7753 2.89067L22.7766 2.9336C22.7766 3.85665 23.5085 4.60862 24.4231 4.63955L24.4817 4.64054H28.3308H28.7703C29.1733 4.64054 29.5 4.96764 29.5 5.37114C29.5 5.76023 29.1962 6.07829 28.8131 6.10051L28.7703 6.10175H28.3308C27.1757 6.10175 26.2054 6.96349 26.0605 8.09875L24.1273 28.6814C23.9574 30.5346 22.4245 31.9588 20.5748 31.9991L20.4941 32H11.4924C9.63357 32 8.07671 30.6023 7.86759 28.7628L7.85935 28.6825L5.93947 8.09633C5.79346 6.96227 4.82372 6.10175 3.66944 6.10175H3.22973C2.82671 6.10175 2.5 5.77464 2.5 5.37114C2.5 4.98205 2.80379 4.664 3.18685 4.64178L3.22973 4.64054H3.66944H7.51857C8.44065 4.64054 9.19182 3.9078 9.22272 2.99228L9.22371 2.9336C9.22371 2.86016 9.23453 2.78925 9.25466 2.72238C9.46771 1.20777 10.7506 0.0371084 12.3135 0.000865244L12.3882 0H19.612ZM24.6134 7.90878C24.7008 7.23103 24.9671 6.61326 25.3617 6.10175H24.4817H7.51857H6.63853C7.03623 6.6172 7.30357 7.24056 7.38885 7.92446C7.38972 7.93149 7.3905 7.93851 7.39117 7.94552L7.39136 7.94704L9.3126 28.5478C9.41407 29.6545 10.3256 30.5061 11.4286 30.5379L11.4924 30.5388H20.4941C21.6042 30.5388 22.5348 29.7079 22.6674 28.6099L22.6741 28.5462L24.6089 7.94656C24.6101 7.93386 24.6116 7.92126 24.6134 7.90878ZM21.3184 3.21108C21.3218 3.26942 21.332 3.32594 21.3482 3.37982C21.4129 3.83903 21.5759 4.26661 21.8152 4.64054H10.185C10.4244 4.26649 10.5875 3.83875 10.6521 3.37937C10.6722 3.3125 10.683 3.24159 10.683 3.16815L10.684 3.10947C10.7149 2.19395 11.4661 1.46121 12.3882 1.46121H19.612L19.6706 1.4622C20.5853 1.49313 21.3172 2.245 21.3172 3.16815L21.3184 3.21108ZM13.5676 13.3552C13.9562 13.3552 14.2739 13.6594 14.2961 14.0429L14.2973 14.0859V22.5548C14.2973 22.9583 13.9706 23.2854 13.5676 23.2854C13.1789 23.2854 12.8613 22.9812 12.8391 22.5977L12.8378 22.5548V14.0859C12.8378 13.6823 13.1645 13.3552 13.5676 13.3552ZM19.1609 14.0429C19.1387 13.6594 18.8211 13.3552 18.4324 13.3552C18.0294 13.3552 17.7027 13.6823 17.7027 14.0859V22.5548L17.7039 22.5977C17.7261 22.9812 18.0438 23.2854 18.4324 23.2854C18.8355 23.2854 19.1622 22.9583 19.1622 22.5548V14.0859L19.1609 14.0429Z" fill="var(--icon-stroke, #284B9B)"/>
</svg>
