<svg width="32" height="32" viewBox="0 0 32 32" fill="none" xmlns="http://www.w3.org/2000/svg">
<path fill-rule="evenodd" clip-rule="evenodd" d="M30.6307 1.36928C32.4347 3.17325 32.4562 6.08482 30.6951 7.91521L9.18149 29.4304L9.10936 29.499C8.83813 29.8085 8.47247 30.0479 8.02301 30.1703L3.72151 31.2196C3.20385 31.3459 2.69682 31.2883 2.25272 31.0991C2.10208 31.0751 1.9471 31.1183 1.82828 31.2198L1.26222 31.7834C0.973469 32.0722 0.505313 32.0722 0.216563 31.7834C-0.0606375 31.5062 -0.0717255 31.0637 0.183299 30.7733L0.216563 30.7378L0.751565 30.2028C0.892525 30.0619 0.941849 29.8582 0.887296 29.6718L0.874012 29.6322C0.849797 29.5682 0.83504 29.503 0.829047 29.438C0.746502 29.1054 0.735626 28.7489 0.814361 28.3861L1.81522 24.2746C1.90265 23.7655 2.13598 23.2766 2.5152 22.8751L2.56995 22.8188L24.0849 1.30485C25.9152 -0.456167 28.8268 -0.434691 30.6307 1.36928ZM4.19885 23.2799L3.6156 23.8645C3.4676 24.0125 3.36512 24.1888 3.30816 24.376L3.30732 24.3954L2.26483 28.6766C2.16274 29.0952 2.39793 29.5087 2.75198 29.6988C2.79932 29.7101 2.84536 29.7256 2.891 29.7428L2.98149 29.7853C3.09323 29.8108 3.21097 29.8147 3.32969 29.7919L7.61001 28.7498C8.19691 28.6066 8.3887 27.8724 7.94 27.381L4.8119 24.2512C4.52825 23.9676 4.32389 23.6346 4.19885 23.2799ZM25.1249 2.35644L5.85756 21.6224C5.43413 22.0459 5.4209 22.7244 5.81786 23.1638L7.338 24.686L8.95255 26.3007C9.18041 26.5286 9.35132 26.7842 9.46859 27.053L27.0007 9.51977C27.4242 9.0961 27.4375 8.41769 27.0405 7.97827L25.3687 6.30418C25.08 6.01541 25.08 5.54725 25.3688 5.25852C25.646 4.98134 26.0885 4.97028 26.3789 5.22533L26.4144 5.2586L28.0465 6.89089C28.3301 7.17455 28.5345 7.50747 28.6595 7.86213L29.5851 6.93518C30.8333 5.68698 30.8333 3.66314 29.5851 2.41494C28.3567 1.18655 26.3771 1.16705 25.1249 2.35644Z" fill="var(--icon-stroke, #284B9B)"/>
</svg>
