<svg width="24" height="24" viewBox="0 0 24 24" fill="none" xmlns="http://www.w3.org/2000/svg">
<path d="M12 4.5C8.68632 4.5 6 7.18632 6 10.5C6 11.3899 6.19376 12.2346 6.54139 12.9942C6.6214 13.169 6.79945 13.275 6.99171 13.275C7.40572 13.275 7.66237 12.8026 7.50266 12.4206C7.25938 11.8388 7.125 11.2001 7.125 10.53C7.125 7.82107 9.32107 5.625 12.03 5.625C14.7389 5.625 16.935 7.82107 16.935 10.53C16.935 11.2162 16.7941 11.8695 16.5396 12.4625C16.384 12.8252 16.6282 13.275 17.0229 13.275C17.2062 13.275 17.3758 13.1739 17.4525 13.0074C17.804 12.2445 18 11.3951 18 10.5C18 7.18632 15.3137 4.5 12 4.5Z" fill="#414646"/>
<path d="M0 15.5475C0 15.2451 0.245124 15 0.5475 15H23.4525C23.7549 15 24 15.2451 24 15.5475C24 15.8499 23.7549 16.095 23.4525 16.095H0.5475C0.245124 16.095 0 15.8499 0 15.5475Z" fill="#414646"/>
<path d="M8.7975 18C8.49512 18 8.25 18.2451 8.25 18.5475C8.25 18.8499 8.49512 19.095 8.7975 19.095H15.7025C16.0049 19.095 16.25 18.8499 16.25 18.5475C16.25 18.2451 16.0049 18 15.7025 18H8.7975Z" fill="#414646"/>
</svg>
