<svg width="24" height="24" viewBox="0 0 24 24" fill="none" xmlns="http://www.w3.org/2000/svg">
<path fill-rule="evenodd" clip-rule="evenodd" d="M22.1244 2.6902C22.0937 1.19931 20.873 0 19.3718 0H4.62823L4.57062 0.000589435C3.0766 0.0311903 1.875 1.24941 1.875 2.74768V6.90565L1.87604 6.98162C1.89053 7.51223 2.05663 8.01878 2.35102 8.45017L2.37649 8.48454C2.39435 8.50676 2.41392 8.52759 2.43504 8.54682L8.03008 13.6406L8.05254 13.6787C8.13265 13.8234 8.17549 13.9866 8.17549 14.157H8.17543V19.7749L8.17623 19.8302C8.1975 20.5657 8.64183 21.2268 9.32754 21.5625L9.33823 21.5675L12.6984 23.7777L12.7827 23.8157C14.1817 24.4193 15.8142 23.4705 15.8142 21.9833V14.1648C15.8142 14.1622 15.8142 14.1596 15.8142 14.157L15.8155 14.1061C15.8232 13.9541 15.8651 13.8089 15.9372 13.6786L15.9592 13.6408L21.5681 8.54728L21.595 8.5211C21.6296 8.4851 21.6589 8.44477 21.6824 8.40135L21.6859 8.39384L21.695 8.38037C21.974 7.94357 22.125 7.43501 22.125 6.90565V2.74768L22.1244 2.6902ZM14.7129 14.157C14.7129 13.7276 14.8437 13.3159 15.0834 12.9695C15.0993 12.9465 15.1169 12.9248 15.136 12.9046L15.1659 12.8753L20.7658 7.78971L20.7773 7.7723C20.926 7.5329 21.011 7.25922 21.0224 6.97214L21.0237 6.90565V2.74768C21.0237 1.85351 20.3102 1.12549 19.4205 1.09978L19.3718 1.09907H4.62823C3.73215 1.09907 3.00276 1.81106 2.977 2.69907L2.97629 2.74768V6.90565C2.97629 7.19945 3.05293 7.48054 3.19594 7.7277L3.22845 7.78129L8.82412 12.8758C8.84461 12.8944 8.86365 12.9146 8.88107 12.9361L8.90598 12.9693C9.14592 13.3157 9.27678 13.7274 9.27678 14.157C9.27678 14.1596 9.27676 14.1622 9.27673 14.1648V19.7749C9.27673 20.0986 9.47275 20.4029 9.79726 20.5681L9.83848 20.588L9.87679 20.6055L13.2309 22.8116L13.2336 22.8128C13.917 23.0971 14.6844 22.6596 14.7121 22.0191L14.7129 21.9833V14.157H14.7129Z" fill="#284B9B"/>
</svg>
