<svg width="60" height="70" viewBox="0 0 60 70" version="1.1" xmlns="http://www.w3.org/2000/svg" xmlns:xlink="http://www.w3.org/1999/xlink" fill="currentColor"><g id="StyleGuide" stroke="none" stroke-width="1"><g id="Illustration" transform="translate(-1361.000000, -3719.000000)"><g id="Icons/Red/51" transform="translate(1361.000000, 3719.000000)"><path d="M26.6568083,1.43833553 C28.4973895,-0.421330611 31.4470322,-0.47768413 33.3548293,1.26927497 L33.5305674,1.43833553 L50.9757618,19.0644183 C62.5080841,30.7163188 62.5080841,49.6085932 50.9757334,61.2610997 C39.442868,72.9129715 20.7444763,72.9129715 9.21215393,61.2610711 C-2.20538926,49.7251399 -2.31956469,31.0934191 8.86962763,19.4161323 L9.21215393,19.0644183 L26.6568083,1.43833553 Z M31.2392637,3.75339764 C30.6438309,3.15179084 29.7000878,3.11640221 29.0637704,3.64713764 L28.9482236,3.75328478 L11.5034292,21.3795091 C1.23604725,31.7528391 1.23604725,48.5721363 11.5034576,58.946009 C21.7703374,69.3193455 38.4170696,69.3193455 48.6844297,58.9460376 C58.8486688,48.6758972 58.9503111,32.0885593 48.9893844,21.6926014 L48.6844581,21.3794804 L31.2392637,3.75339764 Z M18.7383163,26.1500688 C19.4197677,26.7360031 19.5020742,27.7691502 18.9221531,28.4576675 C18.1029625,29.43026 17.3876775,30.4855982 16.7890607,31.6070629 C15.3880447,34.2296343 14.6444673,37.1665202 14.6444673,40.2160562 C14.6444673,43.2652529 15.3881467,46.2026691 16.7892034,48.8253168 C17.3923471,49.9548468 18.1128402,51.0165027 18.937221,51.9921044 C19.5182268,52.6796875 19.4375492,53.7129658 18.7570224,54.2999961 C18.0764957,54.8870264 17.0538214,54.8055122 16.4728156,54.1179291 C15.4999113,52.9665594 14.6494912,51.7134544 13.9375282,50.3801343 C12.2829303,47.2828811 11.4040746,43.8115398 11.4040746,40.2160562 C11.4040746,36.6202213 12.2828336,33.1494122 13.9372672,30.0524669 C14.6439563,28.7285363 15.4881636,27.4829851 16.4543994,26.3358118 C17.0343205,25.6472944 18.0568649,25.5641345 18.7383163,26.1500688 Z" id="Icon_Color"/></g></g></g></svg>
