<svg viewBox="0 0 32 32" fill="none" xmlns="http://www.w3.org/2000/svg">
<path fill-rule="evenodd" clip-rule="evenodd" d="M21.744 3.33997C26.1349 3.33997 29.0599 6.81177 29.0599 12.1417C29.0599 16.5387 27.1371 20.7648 23.9848 24.1924C21.3218 27.0881 18.0304 29.06 15.9298 29.06C13.9955 29.06 10.7278 27.1234 8.10402 24.3312C4.89218 20.9132 2.93994 16.6762 2.93994 12.1417C2.93994 6.77963 5.75151 3.33997 10.1156 3.33997C11.741 3.33997 13.2867 3.85712 14.7055 4.71396C15.1275 4.96884 15.5129 5.23923 15.8581 5.51242L16.0273 5.6492L16.0663 5.68197L16.1166 5.64167C16.4573 5.37074 16.8332 5.10022 17.239 4.84269L17.4444 4.71506C18.8527 3.85836 20.3061 3.33997 21.744 3.33997ZM21.744 4.65997C20.5861 4.65997 19.3502 5.10079 18.1305 5.84278C17.6956 6.10733 17.2946 6.39132 16.9383 6.67474L16.7637 6.81664L16.5823 6.97175L16.5079 7.0388C16.2471 7.28392 15.8384 7.2765 15.5867 7.02207L15.5205 6.95865L15.4255 6.87178L15.2724 6.73855C15.2449 6.71527 15.2164 6.69148 15.187 6.66721C14.8477 6.38711 14.4572 6.10607 14.0231 5.84389C12.7947 5.10203 11.4735 4.65997 10.1156 4.65997C6.54587 4.65997 4.25994 7.45657 4.25994 12.1417C4.25994 16.3113 6.06931 20.2383 9.06596 23.4273C9.72012 24.1234 10.4168 24.7606 11.1144 25.3193L11.3935 25.5385C13.1132 26.8639 14.8053 27.6954 15.8468 27.7382L15.9295 27.74L16.0215 27.7382C17.6643 27.6757 20.5122 25.9662 22.8798 23.4426L23.0133 23.2989C25.9562 20.0989 27.7399 16.1784 27.7399 12.1417C27.7399 7.49547 25.351 4.65997 21.744 4.65997Z" fill="#E52600"/>
</svg>
