<svg width="48" height="48" viewBox="0 0 48 48" fill="none" xmlns="http://www.w3.org/2000/svg">
<circle cx="24" cy="24" r="23.5" fill="#F5F5F0" stroke="#D9DADA"/>
<path fill-rule="evenodd" clip-rule="evenodd" d="M28.3687 15.7012L35.0212 22.3536L22.3815 34.9933C20.5445 36.8303 17.5661 36.8303 15.729 34.9933C13.892 33.1563 13.892 30.1779 15.729 28.3408L28.3687 15.7012Z" fill="var(--medication-icon-shadow,  #C2E8FF)"/>
<path fill-rule="evenodd" clip-rule="evenodd" d="M33.8694 7.12089C33.6004 6.93662 33.2298 6.96903 32.9973 7.21257C32.739 7.48317 32.7489 7.91194 33.0195 8.17027L35.4256 10.4672L31.5261 14.4019L27.3974 10.2653L27.3839 10.2517L27.3838 10.2517L26.8347 9.70155L26.8014 9.67022C26.5283 9.42998 26.1122 9.44042 25.8516 9.70155C25.5801 9.97356 25.5801 10.4146 25.8516 10.6866L26.4029 11.239L26.4414 11.2793C26.9121 11.794 26.9009 12.5923 26.4076 13.0935L26.4007 13.1002L14.6978 24.8261L14.6332 24.8919C13.1025 26.481 12.8091 28.8233 13.7529 30.7013L13.7493 30.7209L13.5493 31.8982L13.5432 31.9428C13.5286 32.0826 13.5568 32.2224 13.6219 32.3442L9.80358 36.1701L9.7723 36.2036C9.53253 36.4772 9.54297 36.894 9.8036 37.1552C10.0751 37.4272 10.5153 37.4272 10.7867 37.1551L14.6215 33.3128C14.741 33.3626 14.8737 33.3786 15.0048 33.3563L16.1797 33.1562L16.2188 33.1484L16.2317 33.1454C18.1186 34.0569 20.4526 33.7285 22.0178 32.1602L33.7209 20.4346L33.721 20.4346L33.7633 20.394C34.2761 19.9234 35.071 19.9338 35.5714 20.4252L36.1299 20.9848L36.1633 21.0161C36.4363 21.2563 36.8524 21.2459 37.113 20.9848C37.3845 20.7128 37.3845 20.2717 37.113 19.9997L36.564 19.4496L36.564 19.4496L36.5605 19.4461L32.5092 15.387L36.4324 11.4283L38.7544 13.645L38.84 13.7144C39.109 13.8987 39.4796 13.8663 39.7121 13.6228C39.9704 13.3522 39.9604 12.9234 39.6898 12.6651L33.955 7.19035L33.8694 7.12089ZM28.0732 12.9125C27.9577 13.3192 27.7456 13.7042 27.4367 14.031L27.3839 14.0854L27.3838 14.0854L15.6809 25.8111C14.2643 27.2302 14.2444 29.5186 15.6207 30.9621L15.6805 31.0234L15.8323 31.1752C17.2486 32.5945 19.5326 32.6144 20.9734 31.2351L21.0346 31.1751L22.1502 30.0574L20.306 28.2095C20.0346 27.9375 20.0346 27.4965 20.3061 27.2245C20.5667 26.9633 20.9828 26.9529 21.2559 27.1932L21.2892 27.2245L23.1334 29.0724L29.2196 22.9745L27.3753 21.1265C27.1039 20.8545 27.1039 20.4135 27.3754 20.1415C27.636 19.8804 28.0521 19.8699 28.3252 20.1102L28.3585 20.1415L30.2027 21.9895L32.7378 19.4496C33.0753 19.1114 33.4798 18.8812 33.9086 18.7591L28.0732 12.9125Z" fill="var(--medication-icon-border,  #0082AA)"/>
</svg>
