<svg width="48" height="48" viewBox="0 0 48 48" fill="none" xmlns="http://www.w3.org/2000/svg">
<circle cx="24" cy="24" r="23.5" fill="#F5F5F0" stroke="#D9DADA"/>
<path fill-rule="evenodd" clip-rule="evenodd" d="M26.6131 7.41406L14.7838 11.6783V30.6148L26.6132 34.5807L38.609 29.5975V11.6788L26.6131 7.41406Z" fill="var(--medication-icon-shadow,  #C2E8FF)"/>
<path fill-rule="evenodd" clip-rule="evenodd" d="M10.9862 14.5732V14.5731C10.9862 14.2833 11.1748 14.0376 11.4359 13.9521L23.2372 9.68236C23.5587 9.57201 23.9077 9.57201 24.2291 9.68243L36.0201 13.7304C36.2748 13.8092 36.4629 14.0397 36.4789 14.3162L36.4789 14.3169C36.4797 14.3294 36.48 14.342 36.48 14.3546M35.1733 15.5022L24.3865 19.3786V36.8157L35.041 32.1768C35.1132 32.1454 35.1626 32.0778 35.1718 32.0006L35.1733 31.9745V15.5022ZM23.0798 19.3807L12.2929 15.7045V32.8121C12.2929 32.8957 12.3399 32.9712 12.4131 33.0086L12.4384 33.0196L23.0798 36.8804V19.3807ZM10.9862 14.5732V14.7916V32.8121L10.9873 32.8703C11.0108 33.4893 11.4068 34.0354 11.9928 34.248L23.1829 38.3078L23.248 38.3299C23.5975 38.4393 23.9756 38.4196 24.3132 38.2728L35.5624 33.375L35.6157 33.3505C36.1425 33.097 36.48 32.5627 36.48 31.9745V14.5732V14.3548M23.8046 10.9183L34.1664 14.4754L23.8213 18.1933C23.7608 18.2161 23.7055 18.2161 23.6555 18.1972L23.635 18.1898L13.3 14.6672L23.6715 10.9147C23.7006 10.9048 23.7386 10.9028 23.7764 10.9106L23.8046 10.9183Z" fill="var(--medication-icon-border,  #0082AA)"/>
</svg>
