<svg width="48" height="48" viewBox="0 0 48 48" fill="none" xmlns="http://www.w3.org/2000/svg">
<circle cx="24" cy="24" r="23.5" fill="#F5F5F0" stroke="#D9DADA"/>
<path fill-rule="evenodd" clip-rule="evenodd" d="M24.3168 7.3257C25.0765 6.55813 26.2847 6.51975 27.0892 7.21057L27.2128 7.3257L34.5625 14.7516C39.4211 19.6606 39.4211 27.62 34.5625 32.5292C29.7037 37.4382 21.826 37.4382 16.9674 32.5292C12.1857 27.6979 12.1098 19.9125 16.7397 14.9877L16.9674 14.7516L24.3168 7.3257Z" fill="var(--medication-icon-shadow,  #C2E8FF)"/>
<path fill-rule="evenodd" clip-rule="evenodd" d="M21.9857 9.60743L14.6362 17.0334C9.51255 22.2099 9.51255 30.6001 14.6362 35.7769C19.7635 40.9573 28.0797 40.9573 33.2073 35.7769C38.3307 30.6001 38.3307 22.2099 33.2073 17.0334L25.8576 9.60743C24.7892 8.52799 23.054 8.52799 21.9857 9.60743ZM24.8816 10.5734L32.2313 17.9993C36.8251 22.6408 36.8251 30.1693 32.2313 34.8109C27.6412 39.4484 20.2021 39.4484 15.6122 34.8109C11.0181 30.1693 11.0181 22.6408 15.6122 17.9993L22.9617 10.5734C23.4926 10.0369 24.3506 10.0369 24.8816 10.5734ZM19.178 20.7081C18.8909 20.4612 18.4601 20.4963 18.2158 20.7864C17.8087 21.2697 17.453 21.7944 17.1553 22.3522C16.4583 23.6569 16.0881 25.1192 16.0881 26.6341C16.0881 28.1489 16.4583 29.6114 17.1554 30.9163C17.4554 31.478 17.8136 32.006 18.2235 32.491C18.4683 32.7807 18.8992 32.8151 19.1859 32.5677C19.4726 32.3204 19.5066 31.8851 19.2618 31.5954C18.9145 31.1844 18.6109 30.7371 18.3568 30.2612C17.7666 29.1563 17.4532 27.9188 17.4532 26.6341C17.4532 25.3494 17.7665 24.112 18.3568 23.0071C18.609 22.5347 18.9103 22.0901 19.2554 21.6803C19.4998 21.3902 19.4651 20.955 19.178 20.7081Z" fill="var(--medication-icon-border,  #0082AA)"/>
</svg>
