<svg width="48" height="48" viewBox="0 0 48 48" fill="none" xmlns="http://www.w3.org/2000/svg">
<circle cx="24" cy="24" r="23.5" fill="#F5F5F0" stroke="#D9DADA"/>
<path fill-rule="evenodd" clip-rule="evenodd" d="M15.648 14.3994H28.512C31.8522 14.3994 34.56 17.1072 34.56 20.4474V33.3114C34.56 36.6516 31.8522 39.3594 28.512 39.3594H15.648C12.3078 39.3594 9.59998 36.6516 9.59998 33.3114V20.4474C9.59998 17.1072 12.3078 14.3994 15.648 14.3994Z" fill="var(--medication-icon-shadow,  #C2E8FF)"/>
<path fill-rule="evenodd" clip-rule="evenodd" d="M30.432 10.876H17.568C13.8723 10.876 10.8763 13.8719 10.8763 17.5677V30.4317C10.8763 34.1274 13.8723 37.1233 17.568 37.1233H30.432C34.1277 37.1233 37.1237 34.1274 37.1237 30.4317V17.5677C37.1237 13.8719 34.1277 10.876 30.432 10.876ZM17.568 12.1633H30.432C33.4167 12.1633 35.8363 14.5829 35.8363 17.5677V30.4317C35.8363 33.4164 33.4167 35.836 30.432 35.836H17.568C14.5833 35.836 12.1637 33.4164 12.1637 30.4317V17.5677C12.1637 14.5829 14.5833 12.1633 17.568 12.1633ZM17.7103 16.7997L16.8 17.71L30.1903 31.1003L31.1006 30.19L17.7103 16.7997Z" fill="var(--medication-icon-border,  #0082AA)"/>
</svg>
