<svg viewBox="0 0 80 80" fill="none" xmlns="http://www.w3.org/2000/svg">
<path fill-rule="evenodd" clip-rule="evenodd" d="M16.7443 12.6465L17.2 12.7467L17.4382 12.8037L18.1954 13.0019L18.7367 13.1559L19.3083 13.3267L19.9108 13.5137L20.5453 13.7163C21.0783 13.8885 21.6308 14.0752 22.1985 14.2743C23.0017 14.556 23.8073 14.8523 24.5939 15.1523L25.6375 15.5566L26.7222 15.9919C27.4877 16.3086 27.8515 17.1859 27.5347 17.9514C27.2366 18.6719 26.442 19.0365 25.7113 18.8128L25.5326 18.7464L24.7824 18.4444L24.2824 18.2477C23.2842 17.858 22.2407 17.4683 21.2057 17.1053C20.6605 16.9141 20.1314 16.7352 19.623 16.571L18.902 16.3437L18.222 16.141C18.1122 16.1094 18.0043 16.0788 17.8982 16.0493L17.2846 15.8855C16.7928 15.7603 16.3506 15.6634 15.9649 15.5977C15.7673 15.564 15.5891 15.5394 15.433 15.5236L15.295 15.511L15.2758 15.7351L15.2262 16.4891L15.1749 17.5013L15.0919 19.6009L15.0019 22.5668L14.8899 27.7178L14.8439 30.7921L14.8115 33.9961L14.7949 37.5859L14.7976 40.8848L14.8134 43.7115L14.826 45.0765L14.8506 47.0515L14.8709 48.3137L14.907 50.1147L14.9498 51.7922L15.0069 53.5421L15.0683 55.0045L15.1188 55.9722L15.1546 56.5537L15.2113 57.3276L15.2539 57.8049L15.2976 58.2123L15.348 58.587L15.4206 58.6296C15.6649 58.7659 15.9551 58.9106 16.2876 59.0613L16.5449 59.1754C17.371 59.5344 18.3914 59.9106 19.5755 60.2983L20.3889 60.5584L21.2488 60.8215L21.6956 60.954L22.6214 61.2209C24.2265 61.6751 25.9305 62.1162 27.6514 62.5322L29.1137 62.8789L29.644 63.001L29.7003 55.7754L29.7381 49.4271L29.758 44.7966L29.7723 38.4799L29.7661 32.4604L29.7392 27.7707L29.6911 24.001L29.649 22.1123L29.6134 21.0179L29.5814 20.3002L29.5371 19.6056C29.4367 18.367 30.1394 17.668 32.0133 16.92L32.4491 16.7527L32.6818 16.668L33.1771 16.4956L33.997 16.2268L34.9116 15.9415L35.3734 15.802L36.3507 15.5186L37.3969 15.2298L38.5085 14.9359L39.0876 14.7873C40.6382 14.393 42.2785 14.0042 43.9335 13.6322L45.3391 13.3209L47.5848 12.8444C47.7328 12.8143 47.8802 12.8072 48.0233 12.8206L48.1654 12.8408L49.2753 13.0618L50.4495 13.3053L50.8678 13.3941C52.8901 13.8261 54.9131 14.2937 56.8055 14.781L57.8173 15.0469L58.7792 15.311C60.4957 15.7935 61.9514 16.2663 63.0941 16.7262C64.8182 17.4201 65.8456 18.0487 66.283 18.9787C66.3089 19.0338 66.3343 19.1023 66.359 19.1839L66.4078 19.3645L66.4552 19.5793L66.5233 19.9647L66.5881 20.424L66.6496 20.9555L66.7265 21.7729L66.7803 22.4651L66.847 23.49L66.908 24.6271L66.9763 26.1994L67.0571 28.6666L67.1045 30.6067L67.15 33.1165L67.1835 35.8099L67.2022 38.1837L67.2151 42.2027L67.2091 45.6313L67.184 49.1503L67.16 51.1731L67.1295 53.1115L67.0926 54.9508L67.0493 56.676L66.97 59.162L66.8983 60.9565L66.8461 61.96L66.7874 62.8232L66.7377 63.3855L66.7011 63.7227L66.6616 64.0315L66.6186 64.3134L66.572 64.5698L66.5214 64.8022L66.452 65.0613L66.3753 65.2882L66.3082 65.4484L66.2357 65.5913C66.1855 65.6811 66.1315 65.7604 66.0732 65.8312L65.9825 65.9311L65.9347 65.9767C65.3176 66.5378 64.4521 66.6537 63.0234 66.3832L62.6196 66.2999C62.5499 66.2844 62.479 66.2682 62.4068 66.2511L61.9584 66.1396L61.4786 66.0096L60.9659 65.8613L60.4188 65.6951L59.5309 65.4127L58.5578 65.0913L57.789 64.8314L56.9168 64.5284C56.127 64.2503 55.3275 63.9593 54.5367 63.664L52.7738 62.9934L51.826 62.6217C51.0568 62.314 50.6827 61.4411 50.9903 60.6719C51.2799 59.948 52.0702 59.574 52.8034 59.789L52.9401 59.8362L53.8579 60.1961L54.4316 60.417C55.5742 60.8542 56.7563 61.2914 57.9132 61.6987L58.7603 61.993L59.5554 62.2612L60.2915 62.5011L60.9846 62.7181L61.6321 62.9112L62.2316 63.0794L62.7807 63.2217L63.0355 63.2828C63.1839 63.3173 63.3237 63.3477 63.454 63.374L63.701 63.42L63.7554 62.8684L63.8153 62.0824L63.8533 61.4845L63.9073 60.4799L63.9736 58.9474L64.0041 58.1017L64.0506 56.5892L64.0935 54.8773L64.1301 53.0511L64.1691 50.4638L64.1964 47.7346L64.2091 45.6157L64.2153 42.7227L64.2111 40.3361L64.1927 37.2194L64.1781 35.7023L64.1384 32.7796L64.0851 30.0445L64.0364 28.1443L63.9953 26.8273L63.9441 25.4756L63.8742 23.9575L63.7862 22.4269L63.7281 21.6069L63.686 21.108L63.6462 20.7158L63.6094 20.4367L63.59 20.332L63.578 20.3226C63.5395 20.2923 63.4913 20.2577 63.4337 20.2199L63.3404 20.1608C63.0227 19.9664 62.5608 19.7454 61.9741 19.5093C61.6212 19.3673 61.2296 19.2222 60.8021 19.0744L60.1341 18.8508L59.4143 18.6237L59.0356 18.5088L58.2418 18.277L57.8272 18.16L56.9642 17.9242L56.0575 17.6862C54.2099 17.2105 52.2258 16.7519 50.2411 16.328L49.424 16.156L49.5002 20.0823L49.5681 24.0291L49.6297 28.047L49.6833 32.0739L49.7421 37.6502L49.7672 41.0149L49.7832 44.9044L49.7824 48.074L49.7705 50.4553L49.7483 52.6171L49.7154 54.5514L49.6812 55.9296L49.6282 57.4341L49.5775 58.4583L49.5345 59.119L49.4872 59.6857L49.4704 59.8534C49.3692 60.8212 48.7263 61.4347 47.1473 62.0863L46.6451 62.2833L46.0844 62.485L45.5921 62.6512L45.0596 62.8232L44.4858 63.002L43.209 63.3853L42.7056 63.532L41.6466 63.8312L40.5213 64.1372L39.935 64.2926C38.4483 64.6835 36.8785 65.0732 35.2924 65.4504L33.6897 65.8261L31.3763 66.3473L31.2333 66.3643L31.0947 66.3674L30.9256 66.3537L30.7849 66.3281L30.0372 66.165L29.2661 65.9921L27.9984 65.699C25.8889 65.2029 23.7786 64.6662 21.8045 64.1076C21.4521 64.0078 21.1076 63.9084 20.7714 63.8093L19.7879 63.5131L18.8559 63.2191L17.9773 62.9274C16.9841 62.5886 16.1037 62.2547 15.3492 61.9269C14.4708 61.5452 13.7615 61.1711 13.2211 60.79L13.1657 60.7493L13.0604 60.6612L12.9625 60.5632L12.8717 60.4536C12.8134 60.3765 12.7596 60.2906 12.7097 60.194L12.6379 60.0408L12.5717 59.87L12.5109 59.68L12.455 59.4694L12.4037 59.2365L12.3567 58.9799L12.3136 58.6979L12.2556 58.2242L12.2209 57.8724L12.1738 57.2866L12.1317 56.6266L12.0694 55.3479L11.9899 53.1417L11.9344 51.2721L11.8917 49.4386L11.8567 47.4755L11.8219 44.6852L11.8009 41.7333L11.7944 39.437L11.8048 34.6367L11.8447 29.8368L11.8759 27.6216L11.9327 24.7445L12.0056 22.1468L12.0677 20.4732L12.1236 19.2488L12.2016 17.8676L12.2527 17.1211L12.326 16.225L12.365 15.8205L12.4263 15.2694L12.491 14.7866L12.5593 14.3734L12.6068 14.1375L12.6559 13.9337L12.7066 13.7625L12.759 13.6244C12.7767 13.5839 12.7947 13.549 12.813 13.5197C13.4967 12.4253 14.6811 12.2235 16.7443 12.6465ZM46.4194 16.1561L45.5725 16.3409C43.6123 16.7724 41.6526 17.2305 39.8269 17.6948L38.717 17.9823L37.6717 18.2645L36.6949 18.5405L35.7909 18.8097L35.1262 19.0187L34.5183 19.2205C33.843 19.4517 33.288 19.6672 32.8685 19.8623L32.7271 19.9299L32.569 20.01L32.6003 20.6482L32.6401 21.7769L32.6924 24.0578L32.7351 27.2949L32.7653 32.166L32.7721 35.2253L32.7669 41.8074L32.7522 46.3356L32.7206 52.6003L32.6631 60.8045L32.6434 62.9861L33.0144 62.9031L33.4206 62.8089C35.3827 62.3521 37.3443 61.8717 39.1722 61.3912L40.3018 61.0893L41.366 60.7946C41.5376 60.7461 41.7064 60.6979 41.8722 60.6501L42.7259 60.399L43.7452 60.0834L44.6443 59.7851L45.1737 59.5966C45.3406 59.5352 45.4978 59.4753 45.645 59.4169L46.025 59.2601L46.3183 59.1278L46.533 59.02L46.5674 58.5441L46.6032 57.9194L46.6553 56.7041L46.6983 55.277L46.7382 53.2953L46.7655 51.0315L46.784 46.6655L46.7731 42.1433L46.737 37.103L46.7067 34.1046L46.6578 30.1028L46.6001 26.0787L46.5353 22.0945L46.4194 16.1561ZM43.5107 47.9203L43.6221 47.9719L44.7601 48.5754C45.309 48.8665 45.518 49.5475 45.2269 50.0964C44.9552 50.6087 44.3439 50.8249 43.8173 50.6148L43.7059 50.5632L42.5679 49.9597C42.019 49.6686 41.81 48.9876 42.1011 48.4387C42.3728 47.9264 42.9841 47.7102 43.5107 47.9203ZM54.1547 48.4235C54.4272 48.9354 54.2642 49.563 53.7954 49.8817L53.6903 49.9452L52.5538 50.5502C52.0053 50.8421 51.3241 50.6342 51.0321 50.0857C50.7596 49.5739 50.9226 48.9463 51.3914 48.6275L51.4965 48.564L52.633 47.959C53.1815 47.6671 53.8628 47.875 54.1547 48.4235ZM56.6143 43.6839C57.1728 43.8402 57.5143 44.3914 57.4212 44.9506L57.3945 45.0705L57.0475 46.3105C56.8801 46.9088 56.2593 47.2581 55.661 47.0907C55.1025 46.9344 54.761 46.3832 54.8541 45.824L54.8808 45.7041L55.2278 44.4641C55.3952 43.8658 56.016 43.5165 56.6143 43.6839ZM41.3408 44.0825L41.3947 44.1928L41.8967 45.3788C42.1389 45.951 41.8713 46.6111 41.2992 46.8533C40.7651 47.0794 40.1545 46.8614 39.8785 46.3661L39.8246 46.2558L39.3226 45.0698C39.0805 44.4976 39.348 43.8375 39.9201 43.5953C40.4542 43.3692 41.0649 43.5872 41.3408 44.0825ZM55.08 34.9776L55.1815 35.0687L57.2654 37.1521L59.3497 35.0688C59.8379 34.5806 60.6293 34.5806 61.1175 35.0688C61.5731 35.5244 61.6035 36.2442 61.2086 36.735L61.1175 36.8365L59.0334 38.9201L61.1175 41.0047C61.6056 41.4929 61.6056 42.2843 61.1175 42.7725C60.6619 43.2281 59.9421 43.2585 59.4512 42.8636L59.3497 42.7725L57.2654 40.6881L55.1815 42.7725C54.6933 43.2607 53.9019 43.2607 53.4137 42.7725C52.9581 42.3169 52.9277 41.5971 53.3226 41.1063L53.4137 41.0048L55.4974 38.9201L53.4137 36.8365C52.9256 36.3483 52.9256 35.5569 53.4137 35.0687C53.8693 34.6131 54.5892 34.5827 55.08 34.9776ZM40.4304 38.2446C40.9939 38.3815 41.3542 38.9206 41.2805 39.4827L41.258 39.6034L40.954 40.8549C40.8074 41.4587 40.199 41.8292 39.5953 41.6826C39.0317 41.5457 38.6714 41.0066 38.7451 40.4445L38.7676 40.3238L39.0716 39.0723C39.2183 38.4685 39.8266 38.098 40.4304 38.2446ZM40.3215 33.4124L40.4057 33.5132L41.1732 34.5477C41.5434 35.0467 41.439 35.7514 40.94 36.1216C40.4767 36.4653 39.836 36.3998 39.4505 35.9892L39.3662 35.8884L38.5987 34.8539C38.2285 34.3549 38.3329 33.6503 38.8319 33.2801C39.2952 32.9363 39.9359 33.0018 40.3215 33.4124ZM37.5208 31.8274C37.5613 32.4059 37.157 32.9128 36.599 33.0131L36.4772 33.0283L35.1927 33.1183C34.5729 33.1617 34.0352 32.6945 33.9918 32.0747C33.9513 31.4962 34.3556 30.9893 34.9136 30.889L35.0354 30.8738L36.3199 30.7838C36.9397 30.7404 37.4774 31.2076 37.5208 31.8274ZM26.469 28.311L26.577 28.3694L27.675 29.0424C28.2047 29.3671 28.3709 30.0598 28.0462 30.5895C27.7432 31.0839 27.1196 31.2617 26.6071 31.0192L26.4992 30.9608L25.4012 30.2878C24.8714 29.9631 24.7052 29.2704 25.0299 28.7407C25.3329 28.2463 25.9565 28.0685 26.469 28.311ZM20.931 21.7105C23.0593 21.7105 24.7845 23.4356 24.7845 25.564C24.7845 27.6927 23.0594 29.418 20.931 29.418C18.8021 29.418 17.077 27.6928 17.077 25.564C17.077 23.4355 18.8022 21.7105 20.931 21.7105ZM20.931 23.9605C20.0448 23.9605 19.327 24.6782 19.327 25.564C19.327 26.4501 20.0448 27.168 20.931 27.168C21.8167 27.168 22.5345 26.4501 22.5345 25.564C22.5345 24.6783 21.8166 23.9605 20.931 23.9605Z" fill="#E52600"/>
</svg>
