<svg viewBox="0 0 32 32" fill="none" xmlns="http://www.w3.org/2000/svg">
<path fill-rule="evenodd" clip-rule="evenodd" d="M14.3879 3.8335L14.819 3.83691L15.0909 3.84183L15.35 3.84895L15.5964 3.85834L15.8298 3.8701L16.0502 3.88428L16.2574 3.90097C16.3242 3.90696 16.3889 3.91338 16.4512 3.92025L16.6316 3.94218L16.7167 3.95417L16.8766 3.98023C17.2081 4.03977 17.4424 4.11936 17.5732 4.22251C18.0097 4.567 18.1689 5.22971 18.2291 6.23214C18.2502 6.58434 18.2548 6.95109 18.2476 7.31033L18.3516 7.31267L18.6398 7.32593L18.7867 7.33627L18.9558 7.35308L19.0981 7.37358L19.1897 7.39153L19.2446 7.40479L19.3189 7.4267L19.3852 7.45112L19.4452 7.47818L19.5007 7.50798L19.5534 7.54063L19.6223 7.58881C20.0418 7.89648 20.1796 8.65055 20.1804 9.74207L20.1782 9.9999L20.1716 10.2715L20.1565 10.6491L20.1423 10.8821C20.0731 11.8592 19.8952 12.4146 19.4149 12.5519C19.3666 12.5657 19.3047 12.5773 19.2282 12.587L19.1023 12.6L18.9536 12.6105L18.7814 12.6185L18.5444 12.6248L18.5525 12.6663C18.5888 12.867 18.6149 13.0985 18.6351 13.3641L18.6565 13.6904L18.6772 14.1499L18.6901 14.635L18.7036 15.8903L18.7071 17.366C19.4912 16.989 20.3705 16.7844 21.2992 16.7991C24.9632 16.8569 26.9072 19.5451 26.5512 23.043C26.2308 26.1904 24.0021 28.1295 20.79 28.1632C19.8248 28.1733 18.951 27.9924 18.1982 27.6446L18.1917 27.6507L18.1488 27.6851L18.1032 27.7174L18.0792 27.7329L18.0283 27.7623L17.9731 27.7899L17.9132 27.8157L17.8478 27.8397L17.7384 27.8725L17.6135 27.9017L17.5207 27.9193L17.4196 27.9354L17.3097 27.9501L17.1903 27.9634L16.9921 27.981L16.7694 27.9959L16.5201 28.0082L16.2424 28.0183L15.9342 28.0262L15.4726 28.0338L14.662 28.0397L13.1083 28.0394L10.702 28.0301L9.99513 28.0221L9.41467 28.0094L9.09048 27.9974L8.81135 27.9823L8.62889 27.9685L8.51901 27.958L8.4179 27.9465L8.28144 27.9271L8.1998 27.9127L8.12499 27.8969L8.02433 27.8709L7.96412 27.8517L7.90879 27.8311L7.85778 27.809L7.81054 27.7853L7.74551 27.7466L7.70524 27.7186L7.66678 27.6889L7.6296 27.6574L7.57808 27.6094L7.5481 27.5789L7.49272 27.514L7.45501 27.4603L7.43161 27.4213L7.40955 27.3792L7.37888 27.3092L7.35099 27.2299L7.33386 27.171L7.31025 27.0726L7.29584 26.9997L7.27612 26.8781L7.2531 26.691L7.23352 26.4722L7.21702 26.2181L7.2002 25.8454L7.18468 25.3083L7.16996 24.4202L7.15834 23.1539L7.13424 19.7059L7.12965 19.5074L7.11795 18.7741L7.10993 17.9527L7.10544 17.049L7.10429 16.322L7.10556 15.3213L7.10971 14.3009L7.12344 12.5795L6.70904 12.5793L6.36377 12.5733L6.26243 12.5678L6.21467 12.5631C5.7083 12.5005 5.50602 12.1268 5.43898 11.3821L5.4254 11.1962L5.4165 10.9959L5.41175 10.781L5.41064 10.5513L5.41265 10.3066L5.41467 10.1786C5.41791 9.99676 5.42366 9.82154 5.43228 9.654L5.44739 9.40858C5.50521 8.61057 5.63887 8.01783 5.89164 7.76507L5.95305 7.70679L6.0169 7.65381L6.06195 7.6213L6.10978 7.59096L6.16108 7.56272L6.21651 7.5365L6.27676 7.51223L6.30891 7.50081L6.37767 7.47933L6.45296 7.45962L6.53544 7.44161L6.62581 7.42522L6.72474 7.41038L6.83292 7.39702L7.01399 7.37959L7.14825 7.36961L7.37164 7.35691L7.66064 7.3455L7.66048 7.24165C7.65984 6.88411 7.6672 6.49237 7.6873 6.11406L7.70117 5.87779L7.7171 5.66056L7.73582 5.46148C7.79684 4.89056 7.90511 4.55254 8.14785 4.33898C8.20574 4.2881 8.3059 4.24204 8.44523 4.20035L8.55703 4.16989L8.68323 4.14102L8.75164 4.12717L8.89891 4.10062L9.05987 4.07555L9.23421 4.05193L9.52022 4.01913L9.83475 3.98934L10.1768 3.96243L10.4197 3.94601L10.8055 3.92358L11.0766 3.91002L11.8011 3.88069L12.4262 3.86159L13.1039 3.84584L13.4429 3.84L13.929 3.83461L14.3879 3.8335ZM21.1618 17.9986C18.7211 18.022 16.7287 19.9601 16.5398 22.4572C16.4667 23.4205 16.651 24.3182 17.0662 25.0517C17.7595 26.2757 19.0495 26.9814 20.7774 26.9632C23.3907 26.9359 25.1001 25.4485 25.3574 22.9215C25.6428 20.117 24.2238 18.1064 21.411 18.0024L21.2802 17.9989L21.1618 17.9986ZM12.8992 12.5536L11.6077 12.5536L8.32304 12.5723L8.3116 13.8945C8.35715 13.8868 8.40483 13.8797 8.4548 13.8732L8.61239 13.855L8.69667 13.8472L8.87677 13.8336L9.07305 13.8229L9.28643 13.8147L9.64058 13.8068L10.0384 13.8034H10.3015L10.8656 13.8067L11.3722 13.8136L11.7037 13.8216L11.9975 13.8328L12.174 13.8423L12.3363 13.8536L12.5551 13.8744L12.7171 13.8956L12.8627 13.9207C12.8995 13.928 12.9348 13.9357 12.9687 13.9438L13.0664 13.9698C13.0821 13.9744 13.0974 13.9791 13.1125 13.984L13.1997 14.0146C13.2278 14.0254 13.2549 14.0367 13.2813 14.0486L13.358 14.086L13.4489 14.138L13.553 14.2084L13.638 14.2742L13.672 14.3024L13.7062 14.3317C13.8698 14.474 13.9985 14.6858 14.0977 14.9961L14.1335 15.1171C14.1393 15.1381 14.1449 15.1594 14.1504 15.1812L14.1822 15.3167L14.2114 15.4623L14.238 15.6184L14.2504 15.7004L14.2734 15.8727L14.284 15.9631L14.3034 16.1525L14.3205 16.3536L14.3354 16.5669L14.3481 16.7927L14.3588 17.0313L14.371 17.414L14.3788 17.8274L14.3825 18.2727L14.3828 18.5879L14.3785 19.2636L14.3449 21.9099L14.3304 22.586L14.3181 22.962L14.3068 23.2086L14.2886 23.4945L14.272 23.6798L14.2527 23.8426L14.2381 23.9398L14.222 24.0287L14.1949 24.148L14.1747 24.2191L14.1468 24.2997L14.1159 24.3724L14.0889 24.4258L14.0598 24.4756L14.0284 24.5225L13.9769 24.5889L13.9197 24.6527L13.8512 24.722C13.6117 24.9528 13.3651 25.0625 12.7266 25.0951L12.5331 25.1023C12.4649 25.1041 12.3927 25.1052 12.3164 25.1056L12.0452 25.1049L11.7122 25.0993L11.0585 25.0797L10.0908 25.0417C9.75969 25.0278 9.50251 24.7482 9.51634 24.4171C9.53018 24.0861 9.80979 23.8289 10.1409 23.8427L11.0063 23.8765L11.6782 23.8969L12.0334 23.9033L12.3178 23.9041L12.5842 23.8986L12.7285 23.891L12.9122 23.8765L12.965 23.8693C12.9936 23.8642 13.0102 23.8581 13.0232 23.8497L13.028 23.846C13.0237 23.8466 13.023 23.8429 13.0241 23.8353L13.0409 23.7563L13.0585 23.6495L13.0746 23.5195L13.082 23.4455L13.0992 23.2287L13.1148 22.9509L13.1276 22.6161L13.1424 22.0113L13.1786 19.2393L13.1821 18.7033L13.1811 18.2081L13.178 17.9001L13.1697 17.4707L13.1617 17.2056L13.1519 16.9571L13.1401 16.7249L13.1188 16.4067L13.0933 16.1234L13.0838 16.0366C13.0767 15.9744 13.0693 15.916 13.0618 15.8614L13.0387 15.7089L13.0155 15.5786L12.9928 15.4699L12.982 15.4236L12.9616 15.3467L12.9438 15.2903C12.9356 15.2671 12.9286 15.2515 12.9234 15.2431L12.9187 15.2371L12.8897 15.213L12.8594 15.1907L12.8098 15.1603L12.7725 15.142L12.7307 15.1252L12.6835 15.1098L12.6301 15.0958L12.536 15.0772L12.4628 15.0663L12.3347 15.0521L12.2358 15.0439L12.0016 15.0303L11.7904 15.0224L11.263 15.0111L10.4327 15.0039L10.0372 15.004L9.68688 15.0075L9.37959 15.0144L9.19751 15.0208L8.95693 15.0332L8.81727 15.0433L8.69343 15.0549L8.58475 15.068L8.48769 15.0831L8.40796 15.0988L8.3983 15.1921L8.38712 15.3263L8.37635 15.4919L8.36631 15.6897L8.35352 16.0333L8.34342 16.4328L8.33354 17.0977L8.32868 17.9229L8.33175 19.4201L8.33304 19.6399L8.34466 20.1115C8.34577 20.149 8.34342 20.1857 8.33791 20.2215L8.3663 23.9824L8.37634 24.671L8.38747 25.157L8.40183 25.5923L8.42511 26.0773L8.44634 26.3762L8.46233 26.5446L8.47928 26.6843L8.48556 26.7272L8.52058 26.7329C8.56194 26.7393 8.60743 26.7454 8.65713 26.7511L8.81895 26.7673L9.00655 26.7815L9.22046 26.7938L9.76023 26.8141L10.5188 26.8277L13.2366 26.8397L14.6408 26.8389L15.1969 26.8349L15.7788 26.8258L16.0798 26.8181L16.3531 26.8086L16.4822 26.8029L16.7184 26.7902L16.9082 26.7768C16.5617 26.4502 16.2642 26.0706 16.0219 25.643C15.4857 24.6955 15.2527 23.5604 15.3432 22.3665C15.4727 20.6554 16.2878 19.1499 17.507 18.1372L17.5041 16.0016L17.4924 14.7796L17.4804 14.2701L17.4636 13.8548L17.4462 13.5609L17.4308 13.3608L17.4224 13.2696L17.404 13.1044C17.3846 12.9506 17.3624 12.8307 17.3376 12.7418L17.3248 12.7L17.2579 12.6895L17.1392 12.6742L16.9986 12.6598L16.8363 12.6463L16.5532 12.6278L16.2459 12.6124L16.135 12.61L16.106 12.6087L16.072 12.6048L15.6416 12.5904L15.1819 12.5787L14.6765 12.5692L13.9337 12.5599L12.8992 12.5536ZM21.3326 19.5293C21.6444 19.5296 21.9005 19.7677 21.9293 20.072L21.932 20.1298L21.9296 22.9644C21.9311 23.3935 21.5468 23.7137 21.1323 23.648L21.0781 23.6373L19.2527 23.1983C18.9306 23.1208 18.7322 22.7968 18.8097 22.4746C18.8826 22.1714 19.1739 21.9778 19.4765 22.0207L19.5333 22.0315L20.73 22.3192L20.732 20.1288C20.7323 19.8169 20.9705 19.5608 21.2748 19.532L21.3326 19.5293ZM17.1867 8.49836L16.473 8.49962L13.2541 8.52365L12.2659 8.52693L10.1874 8.5247L9.05495 8.52592L8.43026 8.53177L8.09709 8.5387L7.70496 8.55227L7.47112 8.56397L7.36439 8.57071L7.17099 8.58595L7.00388 8.60361C6.95251 8.6099 6.90543 8.61659 6.86256 8.6237L6.76756 8.64123L6.76259 8.66111C6.74951 8.71472 6.7366 8.77791 6.72422 8.8493L6.70027 9.00261C6.65298 9.33805 6.62216 9.76909 6.61448 10.2C6.60755 10.5885 6.61991 10.9501 6.64954 11.2254L6.66145 11.3245L6.66916 11.3788L8.41507 11.3725L11.1304 11.3552L12.1154 11.3528L13.3744 11.355L14.3541 11.3632L15.0517 11.3743L15.525 11.3855L15.9558 11.3994L16.2724 11.4124L16.6991 11.4205L17.2188 11.4272L17.719 11.4304L18.1351 11.4294L18.54 11.4239L18.8516 11.4148L18.8654 11.3451L18.8774 11.2764C18.929 10.9656 18.9648 10.5428 18.9756 10.1082C18.987 9.65556 18.9706 9.22543 18.9282 8.89955C18.9144 8.79341 18.8982 8.70141 18.8806 8.62662L18.8664 8.57083L18.797 8.56066L18.7435 8.55415C18.6983 8.54904 18.6489 8.5443 18.5952 8.53994L18.421 8.52793L18.324 8.52274L18.1095 8.51395L17.723 8.50608C17.6775 8.51371 17.6304 8.51618 17.5824 8.51289C17.5547 8.511 17.5275 8.50725 17.5011 8.50178L17.1867 8.49836ZM14.3126 5.03679L13.8935 5.03701L13.2354 5.04401L12.7813 5.05305L12.3178 5.0656L11.8594 5.08126L11.4111 5.09979L10.7689 5.13241L10.3683 5.15702L9.86973 5.19361L9.63421 5.21398L9.42133 5.23478L9.23256 5.25587L9.03816 5.28161L8.97956 5.29083L8.97156 5.33182L8.96151 5.38848C8.95311 5.43874 8.94522 5.49331 8.93785 5.55185L8.9173 5.73912C8.90464 5.8715 8.89407 6.01855 8.88561 6.17773C8.87153 6.4428 8.8641 6.71799 8.86152 6.9816L8.86104 7.3275L9.38972 7.32476L12.2639 7.32693L13.2478 7.32367L16.8643 7.29837L17.0476 7.29902C17.0545 6.96505 17.0505 6.62474 17.0313 6.30406C17.0107 5.96194 16.9737 5.66972 16.9204 5.44792L16.8939 5.3482L16.869 5.26883L16.8392 5.18843L16.7643 5.17162L16.6511 5.15177L16.5019 5.13121L16.265 5.10643L15.9897 5.08521L15.6113 5.06463L15.4447 5.05788L15.0912 5.04718L14.9049 5.04321L14.5153 5.03802L14.3126 5.03679Z" fill="#E52600"/>
</svg>
