<svg width="64" height="64" viewBox="0 0 64 64" fill="none" xmlns="http://www.w3.org/2000/svg">
<path fill-rule="evenodd" clip-rule="evenodd" d="M28.7758 7.66699L29.6381 7.67382L30.1817 7.68365L30.7001 7.69789L31.1928 7.71669L31.6597 7.7402L32.1004 7.76857L32.5148 7.80195C32.6485 7.81393 32.7777 7.82677 32.9025 7.8405L33.2632 7.88436L33.4334 7.90834L33.7532 7.96047C34.4163 8.07953 34.8849 8.23873 35.1464 8.44501C36.0194 9.13399 36.3378 10.4594 36.4582 12.4643C36.5005 13.1687 36.5095 13.9022 36.4952 14.6207L36.7031 14.6253L37.2796 14.6519L37.5734 14.6725L37.9115 14.7062L38.1961 14.7472L38.3794 14.7831L38.4892 14.8096L38.6379 14.8534L38.7705 14.9022L38.8905 14.9564L39.0014 15.016L39.1067 15.0813L39.2446 15.1776C40.0835 15.793 40.3592 17.3011 40.3607 19.4841L40.3564 19.9998L40.3432 20.5431L40.3129 21.2982L40.2847 21.7641C40.1462 23.7183 39.7904 24.8293 38.8298 25.1038C38.7333 25.1314 38.6095 25.1546 38.4564 25.1739L38.2046 25.2001L37.9073 25.221L37.5629 25.237L37.0887 25.2497L37.1051 25.3325C37.1777 25.734 37.2299 26.1969 37.2703 26.7282L37.313 27.3808L37.3544 28.2997L37.3801 29.27L37.4071 31.7806L37.4142 34.732C38.9824 33.9779 40.7409 33.5689 42.5983 33.5982C49.9265 33.7138 53.8144 39.0902 53.1024 46.086C52.4616 52.3807 48.0043 56.2591 41.58 56.3264C39.6495 56.3467 37.9019 55.9849 36.3964 55.2892L36.3834 55.3014L36.2977 55.3701L36.2064 55.4349L36.1583 55.4658L36.0565 55.5246L35.9463 55.5798L35.8263 55.6313L35.6956 55.6793L35.4767 55.745L35.227 55.8034L35.0415 55.8386L34.8393 55.8707L34.6194 55.9001L34.3805 55.9268L33.9842 55.962L33.5388 55.9918L33.0403 56.0165L32.4848 56.0366L31.8685 56.0524L30.9453 56.0676L29.3241 56.0795L26.2167 56.0788L21.4039 56.0602L19.9903 56.0442L18.8293 56.0187L18.181 55.9949L17.6227 55.9646L17.2578 55.937L17.038 55.9161L16.8358 55.893L16.5629 55.8542L16.3996 55.8253L16.25 55.7939L16.0487 55.7417L15.9282 55.7034L15.8176 55.6622L15.7156 55.618L15.6211 55.5705L15.491 55.4932L15.4105 55.4373L15.3336 55.3779L15.2592 55.3148L15.1562 55.2189L15.0962 55.1577L14.9854 55.028L14.91 54.9206L14.8632 54.8425L14.8191 54.7583L14.7578 54.6185L14.702 54.4598L14.6677 54.342L14.6205 54.1452L14.5917 53.9993L14.5522 53.7562L14.5062 53.3821L14.467 52.9444L14.434 52.4361L14.4004 51.6907L14.3694 50.6166L14.3399 48.8404L14.3167 46.3077L14.2685 39.4118L14.2593 39.0149L14.2359 37.5481L14.2199 35.9053L14.2109 34.098L14.2086 32.644L14.2111 30.6425L14.2194 28.6018L14.2469 25.159L13.4181 25.1585L12.7275 25.1465L12.5249 25.1355L12.4294 25.1262C11.4166 25.0011 11.012 24.2536 10.878 22.7642L10.8508 22.3924L10.833 21.9918L10.8235 21.562L10.8213 21.1026L10.8253 20.6132L10.8293 20.3571C10.8358 19.9935 10.8473 19.6431 10.8646 19.308L10.8948 18.8172C11.0104 17.2211 11.2777 16.0357 11.7833 15.5301L11.9061 15.4136L12.0338 15.3076L12.1239 15.2426L12.2196 15.1819L12.3222 15.1254L12.433 15.073L12.5535 15.0245L12.6178 15.0016L12.7553 14.9587L12.9059 14.9192L13.0709 14.8832L13.2516 14.8504L13.4495 14.8208L13.6658 14.794L14.028 14.7592L14.2965 14.7392L14.7433 14.7138L15.3213 14.691L15.321 14.4833C15.3197 13.7682 15.3344 12.9847 15.3746 12.2281L15.4023 11.7556L15.4342 11.3211L15.4716 10.923C15.5937 9.78111 15.8102 9.10508 16.2957 8.67796C16.4115 8.57621 16.6118 8.48409 16.8905 8.40069L17.1141 8.33977L17.3665 8.28204L17.5033 8.25434L17.7978 8.20123L18.1197 8.1511L18.4684 8.10387L19.0404 8.03826L19.6695 7.97868L20.3536 7.92485L20.8394 7.89203L21.611 7.84716L22.1533 7.82003L23.6021 7.76138L24.8524 7.72319L26.2078 7.69167L26.8858 7.68L27.858 7.66922L28.7758 7.66699ZM42.3236 35.9971C37.4422 36.0439 33.4575 39.9202 33.0796 44.9144C32.9335 46.8411 33.302 48.6363 34.1323 50.1034C35.519 52.5513 38.099 53.9628 41.5548 53.9265C46.7814 53.8718 50.2003 50.8969 50.7148 45.8429C51.2856 40.2341 48.4477 36.2128 42.8221 36.0048L42.5605 35.9979L42.3236 35.9971ZM25.7984 25.1072L23.2154 25.1073L16.6461 25.1446L16.6232 27.789C16.7143 27.7736 16.8097 27.7594 16.9096 27.7463L17.2248 27.7101L17.3933 27.6943L17.7536 27.6672L18.1461 27.6457L18.5729 27.6294L19.2812 27.6135L20.0768 27.6068H20.6029L21.7311 27.6135L22.7444 27.6271L23.4075 27.6432L23.995 27.6655L24.3481 27.6845L24.6726 27.7072L25.1103 27.7488L25.4343 27.7912L25.7254 27.8415C25.7991 27.8559 25.8696 27.8713 25.9374 27.8877L26.1328 27.9397C26.1642 27.9488 26.1949 27.9583 26.225 27.9679L26.3995 28.0292C26.4556 28.0507 26.5099 28.0733 26.5625 28.0971L26.7161 28.172L26.8978 28.276L27.106 28.4168L27.276 28.5484L27.344 28.6048L27.4124 28.6634C27.7397 28.9481 27.997 29.3716 28.1954 29.9922L28.267 30.2342C28.2785 30.2761 28.2898 30.3189 28.3008 30.3624L28.3644 30.6334L28.4228 30.9247L28.4761 31.2367L28.5009 31.4008L28.5468 31.7455L28.5679 31.9262L28.6067 32.3049L28.641 32.7073L28.6708 33.1339L28.6963 33.5854L28.7176 34.0626L28.742 34.8279L28.7577 35.6548L28.7651 36.5454L28.7657 37.1757L28.7569 38.5273L28.6898 43.8198L28.6609 45.172L28.6361 45.924L28.6136 46.4172L28.5771 46.9891L28.5441 47.3596L28.5054 47.6852L28.4762 47.8796L28.444 48.0574L28.3898 48.2959L28.3493 48.4382L28.2936 48.5994L28.2319 48.7449L28.1779 48.8516L28.1196 48.9511L28.0568 49.045L27.9537 49.1779L27.8395 49.3054L27.7023 49.444C27.2233 49.9056 26.7302 50.1249 25.4531 50.1902L25.0663 50.2047C24.9297 50.2082 24.7854 50.2104 24.6327 50.2113L24.0904 50.2099L23.4245 50.1986L22.1169 50.1594L20.1815 50.0833C19.5194 50.0557 19.005 49.4964 19.0327 48.8343C19.0604 48.1721 19.6196 47.6578 20.2817 47.6854L22.0126 47.753L23.3565 47.7938L24.0669 47.8065L24.6357 47.8082L25.1684 47.7971L25.4571 47.7821L25.8245 47.753L25.93 47.7386C25.9871 47.7284 26.0204 47.7163 26.0464 47.6995L26.0559 47.6921C26.0475 47.6933 26.046 47.6858 26.0482 47.6705L26.0817 47.5126L26.117 47.299L26.1491 47.039L26.164 46.8911L26.1983 46.4573L26.2295 45.9018L26.2553 45.2323L26.2849 44.0226L26.3572 38.4787L26.3642 37.4066L26.3622 36.4162L26.356 35.8003L26.3394 34.9413L26.3235 34.4111L26.3037 33.9142L26.2801 33.4499L26.2376 32.8133L26.1865 32.2468L26.1676 32.0732C26.1534 31.9487 26.1387 31.832 26.1235 31.7228L26.0775 31.4178L26.031 31.1571L25.9857 30.9399L25.9639 30.8472L25.9232 30.6934L25.8875 30.5805C25.8712 30.5342 25.8573 30.5029 25.8467 30.4862L25.8373 30.4742L25.7793 30.4261L25.7189 30.3814L25.6196 30.3206L25.545 30.284L25.4614 30.2504L25.3671 30.2197L25.2601 30.1916L25.0721 30.1545L24.9255 30.1327L24.6693 30.1042L24.4716 30.0878L24.0032 30.0607L23.5808 30.0447L22.5261 30.0222L20.8653 30.0078L20.0743 30.008L19.3738 30.015L18.7592 30.0287L18.395 30.0416L17.9139 30.0664L17.6345 30.0867L17.3869 30.1099L17.1695 30.136L16.9754 30.1661L16.8159 30.1977L16.7966 30.3841L16.7742 30.6527L16.7527 30.9838L16.7326 31.3793L16.707 32.0667L16.6868 32.8657L16.6671 34.1953L16.6574 35.8457L16.6635 38.8402L16.6661 39.2798L16.6893 40.223C16.6915 40.2979 16.6868 40.3714 16.6758 40.4429L16.7326 47.9647L16.7527 49.3421L16.7749 50.314L16.8037 51.1846L16.8502 52.1547L16.8927 52.7524L16.9247 53.0892L16.9586 53.3687L16.9711 53.4545L17.0412 53.4658C17.1239 53.4786 17.2149 53.4907 17.3143 53.5022L17.6379 53.5346L18.0131 53.563L18.4409 53.5877L19.5205 53.6283L21.0377 53.6553L26.4732 53.6794L29.2816 53.6778L30.3937 53.6697L31.5575 53.6517L32.1595 53.6363L32.7062 53.6171L32.9644 53.6059L33.4369 53.5803L33.8163 53.5536C33.1233 52.9005 32.5284 52.1413 32.0439 51.2859C30.9713 49.3911 30.5053 47.1208 30.6864 44.7331C30.9454 41.3107 32.5756 38.2997 35.0141 36.2744L35.0081 32.0032L34.9849 29.5592L34.9608 28.5401L34.9272 27.7097L34.8924 27.1218L34.8616 26.7216L34.8447 26.5391L34.808 26.2088C34.7693 25.9012 34.7248 25.6614 34.6753 25.4836L34.6495 25.4001L34.5158 25.3791L34.2784 25.3484L33.9971 25.3195L33.6726 25.2925L33.1065 25.2555L32.4918 25.2249L32.2701 25.2201L32.212 25.2174L32.1439 25.2097L31.2831 25.1808L30.3638 25.1574L29.353 25.1384L27.8675 25.1197L25.7984 25.1072ZM42.6651 39.0586C43.2889 39.0591 43.8011 39.5355 43.8587 40.144L43.8641 40.2596L43.8593 45.9288C43.8622 46.7869 43.0936 47.4273 42.2647 47.2961L42.1563 47.2745L38.5055 46.3965C37.8611 46.2415 37.4644 45.5936 37.6194 44.9492C37.7652 44.3427 38.3478 43.9556 38.953 44.0414L39.0667 44.063L41.4599 44.6385L41.4641 40.2576C41.4646 39.6338 41.941 39.1216 42.5495 39.064L42.6651 39.0586ZM34.3733 16.9967L32.946 16.9992L26.5082 17.0473L24.5318 17.0539L20.3748 17.0494L18.1099 17.0518L16.8605 17.0635L16.1942 17.0774L15.4099 17.1045L14.9422 17.1279L14.7288 17.1414L14.342 17.1719L14.0078 17.2072C13.905 17.2198 13.8109 17.2332 13.7251 17.2474L13.5351 17.2825L13.5252 17.3222C13.499 17.4294 13.4732 17.5558 13.4484 17.6986L13.4005 18.0052C13.306 18.6761 13.2443 19.5382 13.229 20.3999C13.2151 21.1771 13.2398 21.9002 13.2991 22.4508L13.3229 22.649L13.3383 22.7577L16.8301 22.745L22.2608 22.7104L24.2308 22.7055L26.7489 22.7101L28.7082 22.7264L30.1034 22.7486L31.05 22.7711L31.9115 22.7987L32.5447 22.8249L33.3982 22.841L34.4376 22.8545L35.438 22.8609L36.2703 22.8588L37.0799 22.8477L37.7031 22.8297L37.7308 22.6902L37.7548 22.5527C37.858 21.9312 37.9295 21.0856 37.9513 20.2163C37.9739 19.3111 37.9413 18.4509 37.8564 17.7991C37.8288 17.5868 37.7964 17.4028 37.7612 17.2532L37.7327 17.1417L37.5941 17.1213L37.487 17.1083C37.3966 17.0981 37.2979 17.0886 37.1905 17.0799L36.8421 17.0559L36.648 17.0455L36.219 17.0279L35.4461 17.0122C35.3551 17.0274 35.2608 17.0324 35.1647 17.0258C35.1093 17.022 35.0551 17.0145 35.0021 17.0036L34.3733 16.9967ZM28.6253 10.0736L27.7869 10.074L26.4708 10.088L25.5627 10.1061L24.6356 10.1312L23.7187 10.1625L22.8222 10.1996L21.5378 10.2648L20.7365 10.314L19.7395 10.3872L19.2684 10.428L18.8427 10.4696L18.4651 10.5117L18.0763 10.5632L17.9591 10.5817L17.9431 10.6636L17.923 10.777C17.9062 10.8775 17.8904 10.9866 17.8757 11.1037L17.8346 11.4782C17.8093 11.743 17.7881 12.0371 17.7712 12.3555C17.7431 12.8856 17.7282 13.436 17.723 13.9632L17.7221 14.655L18.7794 14.6495L24.5277 14.6539L26.4956 14.6473L33.7286 14.5967L34.0951 14.598C34.1089 13.9301 34.101 13.2495 34.0625 12.6081C34.0214 11.9239 33.9474 11.3394 33.8408 10.8958L33.7879 10.6964L33.7379 10.5377L33.6783 10.3769L33.5286 10.3432L33.3022 10.3035L33.0037 10.2624L32.53 10.2129L31.9793 10.1704L31.2226 10.1293L30.8894 10.1158L30.1823 10.0944L29.8098 10.0864L29.0306 10.076L28.6253 10.0736Z" fill="#606565"/>
</svg>
