<svg width="36" height="36" viewBox="0 0 36 36" fill="none" xmlns="http://www.w3.org/2000/svg">
<rect x="4.5" y="3" width="27" height="27" rx="13.5" fill="var(--icon-background, #C2E8FF)"/>
<path fill-rule="evenodd" clip-rule="evenodd" d="M17.4304 4.72865L18.7986 4.72756L19.6485 4.7326L20.2503 4.7415L20.7651 4.7558L21.036 4.76742L21.3571 4.78694L21.5017 4.79857L21.6365 4.81155L21.7621 4.82594L21.9344 4.85032L22.0893 4.87826L22.1838 4.89897C22.199 4.90257 22.2139 4.90624 22.2286 4.90998L22.3139 4.93335L22.3937 4.95857C22.4066 4.96294 22.4193 4.96738 22.4318 4.9719L22.5046 5.00004L22.5734 5.03019L22.6389 5.06245L22.7015 5.09686L22.762 5.1335C22.7719 5.1398 22.7818 5.14619 22.7916 5.15268L22.8509 5.19352L22.9446 5.26357L23.0332 5.33514L23.1125 5.40717L23.1604 5.45667C23.1757 5.47347 23.1904 5.49062 23.2044 5.50823L23.2448 5.56258C23.2576 5.58124 23.2699 5.6005 23.2816 5.62047L23.315 5.68263C23.3202 5.69338 23.3254 5.70435 23.3304 5.71554L23.3589 5.78551L23.3842 5.8616C23.3922 5.88807 23.3996 5.91568 23.4066 5.94456L23.4261 6.03513C23.4291 6.0509 23.432 6.06702 23.4348 6.0835L23.4503 6.18688L23.4633 6.29971L23.4739 6.42275L23.4822 6.55673L23.4907 6.77985L23.4948 7.03175L23.495 7.31495L23.4918 7.63193L23.4765 8.37728L23.4718 8.55657L23.7554 8.56255L23.9331 8.56829L24.1686 8.57934L24.3702 8.59356L24.5418 8.61118L24.6414 8.62495L24.7306 8.64042L24.8105 8.65766L24.8823 8.67675L24.9472 8.69776L25.0063 8.72076L25.0608 8.74584L25.1118 8.77307L25.1829 8.81711L25.2528 8.86618C25.7098 9.2013 25.8585 10.0151 25.8589 11.1956L25.8564 11.4745L25.8495 11.7588L25.8398 12.0273L25.827 12.2805C25.8246 12.3214 25.822 12.3617 25.8193 12.4013L25.8008 12.6315C25.7153 13.5586 25.5145 14.0872 25.025 14.227C24.9631 14.2447 24.881 14.259 24.7766 14.2705L24.6405 14.2829L24.4824 14.2929L24.3015 14.3005L24.0744 14.3064L24.0867 14.3737C24.1256 14.6009 24.1545 14.864 24.1779 15.1676L24.1997 15.4848L24.2281 16.0344L24.246 16.5497L24.2605 17.2513L24.2724 18.6708L24.276 20.6466L24.2728 24.0967L24.2626 25.8158L24.2508 26.7251L24.231 27.6051L24.2109 28.1632L24.1857 28.6417L24.1657 28.9198L24.1431 29.1677L24.1176 29.3874L24.0965 29.535L24.0736 29.6687L24.0489 29.7895L24.0314 29.8632L24.013 29.9318L23.9936 29.9956L23.9629 30.0827L23.9413 30.1355L23.907 30.2073L23.8829 30.2507L23.8448 30.3096L23.8044 30.3619L23.7615 30.4085L23.7316 30.4369L23.6943 30.4684L23.6249 30.5198L23.5747 30.5515L23.5209 30.5814L23.4627 30.6094L23.3997 30.6357L23.3313 30.6602L23.257 30.683L23.1762 30.7042L23.0883 30.7239L22.9929 30.742L22.8342 30.7665L22.6553 30.7879L22.4544 30.8065L22.3073 30.8173L22.0654 30.8314L21.7006 30.8465L21.1703 30.86L20.8091 30.8656L19.9814 30.8721L19.5112 30.8733L16.0466 30.8644L15.0683 30.8548L14.479 30.8426L14.0711 30.8278L13.8591 30.8165L13.611 30.7984L13.4485 30.7823L13.3044 30.7636L13.1769 30.7424L13.0641 30.7184L12.9645 30.6914L12.9045 30.6717L12.8491 30.6505L12.7976 30.6277L12.7497 30.6034L12.7047 30.5775L12.6621 30.5499L12.6216 30.5206L12.5632 30.4732L12.5063 30.4216L12.4603 30.3759L12.4175 30.3281L12.3908 30.2944L12.3531 30.2404L12.3184 30.1809L12.2865 30.1146L12.2666 30.066L12.248 30.0135L12.222 29.9264L12.1983 29.8283L12.1769 29.7178L12.1638 29.6366L12.1458 29.5027L12.1247 29.2994L12.1067 29.0649L12.0879 28.7234L12.0727 28.3226L12.0547 27.5428L12.0335 25.5448L12.0167 23.1266C12.0044 21.7597 12.0272 20.3961 12.0753 19.0496L12.1166 18.0342L12.1184 17.9984L12.1183 17.9914L12.2481 14.2534L11.4674 14.258L11.0079 14.2572L10.7544 14.2512L10.659 14.2441L10.6179 14.2394C10.025 14.1663 9.81446 13.7108 9.75783 12.7873L9.74823 12.5895L9.74258 12.3782C9.74194 12.3418 9.74145 12.3049 9.74109 12.2674L9.74051 12.0355L9.74275 11.7897L9.74479 11.6615C9.74641 11.5704 9.74861 11.4808 9.75144 11.3929L9.76182 11.1344L9.77616 10.8865L9.7947 10.6499L9.81766 10.4254C9.89341 9.77045 10.032 9.28689 10.2618 9.05712L10.3045 9.0159L10.3479 8.97708L10.3929 8.9406L10.4401 8.90637L10.4902 8.87433L10.5437 8.8444L10.6015 8.81653L10.6641 8.79063L10.7323 8.76665L10.8067 8.74449L10.888 8.72411L10.9769 8.70542L11.074 8.68836L11.1799 8.67286L11.3571 8.65237L11.558 8.63499L11.7063 8.62501L11.9519 8.61228L12.026 8.60936L12.0314 8.41295L12.0358 8.28982C12.0493 7.92858 12.0683 7.56706 12.0939 7.22783L12.1225 6.87401L12.1426 6.66206C12.146 6.62826 12.1496 6.59521 12.1531 6.56289L12.1757 6.37755C12.1835 6.31858 12.1918 6.26235 12.2005 6.20871L12.2283 6.05538C12.3019 5.6906 12.4085 5.46189 12.5891 5.29944C12.6768 5.2205 12.7956 5.15163 12.9512 5.09173L13.0489 5.05686C13.066 5.05123 13.0834 5.04568 13.1012 5.04022L13.2127 5.00847L13.3336 4.97875L13.4642 4.95099L13.6049 4.92515L13.7558 4.90116L13.9172 4.87899L14.0894 4.85857L14.2727 4.83985L14.4673 4.82278L14.781 4.80015L15.005 4.78697L15.3641 4.76992L15.6193 4.7603L16.0263 4.74834L16.3142 4.74195L16.931 4.7327L17.4304 4.72865ZM13.5691 14.2455L13.5209 15.6362C13.5234 15.6359 13.526 15.6356 13.5285 15.6353L13.7277 15.6143L14.015 15.5905L14.1667 15.5804L14.3258 15.5716L14.6717 15.5575L15.063 15.5478L15.5106 15.5423L16.1652 15.5404L17.2642 15.5459L17.8498 15.5539L18.1172 15.5596L18.4884 15.5707L18.8256 15.5852L19.131 15.6035L19.318 15.618L19.4924 15.6345L19.6549 15.6531L19.8062 15.6739L19.9468 15.6971L20.0774 15.7228C20.1613 15.7408 20.2389 15.7605 20.3112 15.7821L20.4156 15.8159C20.4827 15.8395 20.5448 15.865 20.6028 15.8926L20.6869 15.9357L20.7654 15.9821C20.778 15.9902 20.7905 15.9983 20.8027 16.0066L20.8741 16.0583L20.9416 16.1136L21.0196 16.1836L21.0732 16.236L21.1227 16.2897L21.1683 16.3461L21.1965 16.386L21.2359 16.4501L21.2601 16.4964L21.2828 16.5459L21.3039 16.5992L21.3237 16.6566L21.3506 16.7514L21.3668 16.8209L21.3818 16.896L21.4018 17.0199L21.4136 17.1108L21.4292 17.2603L21.4461 17.4866L21.459 17.7468L21.468 18.0442L21.4753 18.5673L21.4765 18.9721L21.47 20.0664L21.4189 24.2399L21.4041 24.9519L21.3949 25.2562L21.376 25.6945L21.362 25.9199L21.3513 26.0558L21.333 26.2399L21.3192 26.3503L21.304 26.4517L21.2873 26.5448C21.2844 26.5597 21.2814 26.5742 21.2784 26.5884L21.2593 26.6702L21.2384 26.7452L21.2157 26.8142C21.2118 26.8252 21.2078 26.836 21.2037 26.8466L21.1781 26.9078L21.1504 26.9645L21.1206 27.0175C21.1154 27.0261 21.1102 27.0345 21.1049 27.0428L21.0716 27.0915L21.036 27.138L20.9779 27.2054L20.9312 27.2539L20.8753 27.3043C20.7874 27.3773 20.6813 27.4394 20.5507 27.4917L20.46 27.5251C20.4442 27.5304 20.4281 27.5356 20.4117 27.5407L20.3093 27.5698C20.2738 27.579 20.2369 27.5878 20.1985 27.5961L20.079 27.6197L19.9504 27.6407L19.8123 27.6591L19.6642 27.675L19.5057 27.6884L19.3364 27.6995L19.1559 27.7083L18.9638 27.7148L18.7596 27.7192L18.4299 27.7218L18.0708 27.7199L17.6809 27.7137L17.1107 27.6991L16.4799 27.6777L15.7851 27.6502C15.4209 27.635 15.1381 27.3274 15.1533 26.9632C15.1685 26.599 15.4761 26.3162 15.8403 26.3314L16.3819 26.3528L17.0378 26.3749L17.4822 26.3866L17.8879 26.3941L18.1378 26.3968L18.4827 26.3974L18.7936 26.3938L19.0721 26.386L19.158 26.3825C19.3098 26.3758 19.4444 26.3668 19.5621 26.3558L19.726 26.3377C19.7765 26.3312 19.8227 26.3242 19.8648 26.3167L19.9486 26.2999L19.978 26.2924L19.9869 26.2506C19.9967 26.1996 20.0059 26.1396 20.0145 26.07L20.0309 25.918C20.0335 25.8905 20.036 25.862 20.0384 25.8323L20.056 25.5783L20.0737 25.2037L20.0836 24.9014L20.104 23.8854L20.1542 19.5408L20.156 19.1108L20.1546 18.6345L20.1493 18.2976L20.1404 18.0056L20.1366 17.9132C20.1335 17.8428 20.13 17.7767 20.1261 17.7148L20.1132 17.5416L20.0979 17.3924C20.0897 17.3237 20.0806 17.2637 20.0706 17.2118L20.0542 17.1366L20.0392 17.0848L20.033 17.0813C20.0149 17.0716 19.9933 17.0622 19.968 17.053L19.9122 17.0352L19.8458 17.0181L19.7683 17.0017L19.6792 16.9862L19.578 16.9716L19.4024 16.9511L19.1968 16.9326L18.9592 16.9162L18.7824 16.9063L18.3818 16.8894L18.0384 16.8793L17.6563 16.8714L17.2338 16.8658L16.3185 16.8606L15.4267 16.8631L14.9134 16.8713L14.6458 16.8792L14.2538 16.8975L14.0445 16.912L13.8399 16.9305C13.7446 16.9405 13.6599 16.9516 13.586 16.9635L13.49 16.9808L13.4316 18.1746L13.4202 18.4331C13.3663 19.719 13.3344 21.0226 13.3335 22.33L13.3615 26.407L13.3763 27.3883L13.3954 28.0819L13.4064 28.3657L13.4189 28.6262L13.4329 28.8601L13.4484 29.0675L13.4656 29.2483L13.4838 29.3981L13.4896 29.438L13.5579 29.4486L13.7039 29.4667C13.7303 29.4696 13.7579 29.4723 13.7865 29.475L13.9715 29.49C14.0046 29.4924 14.0388 29.4946 14.0741 29.4968L14.4718 29.5162L14.9136 29.5296L15.462 29.5388L18.7122 29.5529L20.1387 29.55L20.7999 29.543L21.2471 29.5342L21.6386 29.5223L21.8547 29.5133L22.0857 29.5012L22.2916 29.4872L22.4728 29.4714C22.5292 29.4659 22.5815 29.46 22.6298 29.4538L22.7712 29.4324L22.783 29.3582L22.8008 29.2211L22.8181 29.0582L22.8346 28.8703C22.8372 28.8371 22.8398 28.8031 22.8424 28.7681L22.864 28.429L22.8831 28.04L22.8996 27.6007L22.9228 26.7127L22.9397 25.6115L22.9524 23.7512L22.956 21.7548L22.9525 18.6954L22.9436 17.5017L22.9348 16.9419L22.9157 16.2529L22.8957 15.8059L22.8819 15.5631L22.8647 15.3203C22.8617 15.2819 22.8586 15.2444 22.8554 15.2079L22.8351 15.0007C22.8137 14.8051 22.7891 14.6443 22.7614 14.5164L22.7356 14.4103L22.7268 14.3792L22.6024 14.3626L22.454 14.3471L22.187 14.3255L21.98 14.3124L21.5169 14.2903L21.4957 14.2898L21.4313 14.2863L20.8891 14.2683L19.9373 14.2475L19.0234 14.236L17.7903 14.229L16.0923 14.2304L13.5691 14.2455ZM22.1733 7.60516L22.1507 8.55177L21.9427 8.55239L20.1693 8.56522L17.7735 8.58102L14.1319 8.57957L13.6732 8.58101L13.3472 8.58361L13.3507 8.45748L13.3656 8.0802C13.3773 7.82201 13.392 7.56743 13.4101 7.32683L13.4315 7.06764L13.4551 6.83135L13.4806 6.62008C13.4895 6.55406 13.4987 6.49255 13.5082 6.43592L13.5198 6.37074L13.538 6.27998L13.5802 6.26988L13.7005 6.24448C13.8503 6.21606 14.0401 6.19015 14.2699 6.16726L14.5131 6.1454L14.7335 6.12897L15.097 6.10714L15.5007 6.08867L15.9453 6.07358L16.4316 6.06184L16.9601 6.05346L17.7321 6.04751L18.4586 6.04698L19.5393 6.05233L20.1908 6.06149L20.7209 6.07551L21.0135 6.08777L21.3179 6.10657L21.5172 6.12454L21.6435 6.13981L21.7518 6.15667L21.8437 6.17517L21.921 6.19536L21.9652 6.20979L22.0042 6.22501L22.0384 6.24103L22.0683 6.25787L22.0945 6.27555L22.104 6.29269L22.1126 6.32023L22.1224 6.36387L22.133 6.42636L22.1491 6.56145L22.1594 6.68308L22.1712 6.89406L22.1761 7.09622L22.1764 7.34921L22.1733 7.60516ZM21.6098 9.87398L22.8598 9.87264L23.2656 9.87874L23.7356 9.89229C23.774 9.89387 23.8112 9.89553 23.8471 9.89729L24.0484 9.90901L24.2213 9.92306L24.3547 9.93793L24.4192 9.94719L24.4321 9.99756C24.4508 10.0773 24.4682 10.1756 24.4829 10.2891C24.5284 10.6384 24.5459 11.1 24.5337 11.5857C24.522 12.0521 24.4836 12.5058 24.4283 12.8391L24.4032 12.976L24.3015 12.9793L23.9254 12.9876L23.3298 12.992L22.6617 12.9884L22.104 12.9811L21.6426 12.9727L20.9214 12.9475L20.4277 12.935L19.8897 12.9251L19.3071 12.9176L18.6799 12.9123L17.7739 12.9087L16.7673 12.9086L11.1212 12.9376L11.1034 12.7961C11.0708 12.4996 11.0571 12.1072 11.0646 11.685C11.0728 11.2225 11.1059 10.7598 11.1566 10.4L11.1692 10.3151C11.1863 10.2056 11.2046 10.1109 11.2232 10.0346L11.2256 10.026L11.2789 10.0159L11.3348 10.0066C11.3569 10.0031 11.3799 9.99973 11.4039 9.99644L11.5598 9.97778C11.5877 9.97485 11.6167 9.97201 11.6466 9.96926L11.8382 9.95381L12.0541 9.94046L12.2946 9.92917L12.6838 9.91597L13.1178 9.90701L13.7656 9.90102L15.0967 9.89954L17.1945 9.90203L18.2407 9.8992L21.6098 9.87398Z" fill="var(--icon-stroke, #284B9B)"/>
</svg>
