<svg width="40" height="40" viewBox="0 0 40 40" fill="none" xmlns="http://www.w3.org/2000/svg">
<path fill-rule="evenodd" clip-rule="evenodd" d="M19.2879 3.41078L20.9982 3.40942L22.0605 3.41572L22.8128 3.42684L23.4563 3.44472L23.7949 3.45925L24.1963 3.48364L24.377 3.49819L24.5456 3.51441L24.7025 3.5324L24.9179 3.56287L25.1115 3.59779L25.2296 3.62369C25.2486 3.62818 25.2673 3.63277 25.2857 3.63745L25.3922 3.66666L25.492 3.69819C25.5081 3.70364 25.524 3.7092 25.5396 3.71485L25.6306 3.75002L25.7166 3.78771L25.7985 3.82803L25.8768 3.87104L25.9524 3.91685C25.9648 3.92472 25.9771 3.93271 25.9894 3.94082L26.0635 3.99187L26.1807 4.07943L26.2915 4.1689L26.3905 4.25893L26.4504 4.32081C26.4695 4.34181 26.4879 4.36324 26.5054 4.38526L26.5559 4.4532C26.572 4.47653 26.5873 4.50059 26.6019 4.52555L26.6436 4.60326C26.6502 4.6167 26.6566 4.63041 26.6629 4.6444L26.6985 4.73186L26.7302 4.82697C26.7401 4.86006 26.7494 4.89457 26.7581 4.93067L26.7825 5.04389C26.7863 5.0636 26.79 5.08375 26.7935 5.10435L26.8128 5.23357L26.829 5.37461L26.8423 5.52841L26.8526 5.69589L26.8633 5.97478L26.8684 6.28966L26.8687 6.64366L26.8646 7.03989L26.8455 7.97157L26.8397 8.19568L27.1941 8.20316L27.4163 8.21033L27.7107 8.22415L27.9627 8.24191L28.1771 8.26394L28.3016 8.28115L28.4131 8.30049L28.513 8.32204L28.6028 8.3459L28.6839 8.37216L28.7578 8.40092L28.8259 8.43227L28.8896 8.4663L28.9786 8.52135L29.0659 8.58269C29.6371 9.00159 29.823 10.0189 29.8235 11.4945L29.8204 11.8431L29.8117 12.1985L29.7996 12.5341L29.7836 12.8506C29.7806 12.9017 29.7774 12.9521 29.774 13.0016L29.751 13.2893C29.644 14.4482 29.393 15.1089 28.7812 15.2837C28.7038 15.3058 28.6011 15.3237 28.4706 15.3381L28.3006 15.3536L28.1029 15.3661L27.8767 15.3756L27.5929 15.383L27.6083 15.4671C27.6569 15.7511 27.693 16.08 27.7223 16.4594L27.7495 16.856L27.785 17.543L27.8074 18.1871L27.8255 19.0641L27.8404 20.8385L27.8449 23.3082L27.8409 27.6209L27.8281 29.7697L27.8134 30.9063L27.7887 32.0064L27.7635 32.704L27.732 33.302L27.7071 33.6497L27.6788 33.9596L27.6469 34.2343L27.6206 34.4187L27.592 34.5858L27.561 34.7368L27.5391 34.829L27.5161 34.9148L27.492 34.9945L27.4536 35.1034L27.4265 35.1693L27.3837 35.2591L27.3536 35.3133L27.306 35.3869L27.2554 35.4524L27.2018 35.5106L27.1643 35.5461L27.1177 35.5855L27.031 35.6497L26.9683 35.6894L26.901 35.7267L26.8283 35.7617L26.7496 35.7945L26.6641 35.8252L26.5712 35.8537L26.4701 35.8802L26.3603 35.9048L26.241 35.9275L26.0426 35.9581L25.8191 35.9849L25.5679 36.008L25.384 36.0216L25.0817 36.0392L24.6257 36.0581L23.9627 36.075L23.5113 36.082L22.4767 36.09L21.8889 36.0915L17.5581 36.0805L16.3353 36.0685L15.5986 36.0532L15.0888 36.0347L14.8238 36.0206L14.5136 35.998L14.3106 35.9778L14.1304 35.9545L13.971 35.928L13.8301 35.898L13.7056 35.8642L13.6306 35.8396L13.5612 35.8131L13.4969 35.7846L13.437 35.7543L13.3807 35.7219L13.3276 35.6874L13.2768 35.6507L13.2039 35.5915L13.1328 35.527L13.0753 35.4698L13.0218 35.4101L12.9884 35.368L12.9413 35.3005L12.8979 35.2261L12.858 35.1432L12.8332 35.0825L12.8098 35.0168L12.7774 34.908L12.7478 34.7853L12.7211 34.6472L12.7047 34.5458L12.6822 34.3784L12.6558 34.1242L12.6332 33.8311L12.6097 33.4043L12.5908 32.9032L12.5683 31.9285L12.5418 29.431L12.5208 26.4082C12.5054 24.6996 12.5339 22.9951 12.594 21.3119L12.6457 20.0427L12.6479 19.998L12.6478 19.9892L12.81 15.3167L11.8342 15.3225L11.2598 15.3215L10.9429 15.314L10.8237 15.3051L10.7723 15.2993C10.0312 15.2078 9.76798 14.6384 9.69718 13.4841L9.68519 13.2368L9.67812 12.9727C9.67732 12.9273 9.67671 12.8811 9.67626 12.8342L9.67554 12.5444L9.67834 12.237L9.68088 12.0768C9.68291 11.9629 9.68567 11.851 9.6892 11.7411L9.70218 11.4179L9.7201 11.1081L9.74327 10.8124L9.77197 10.5317C9.86666 9.71304 10.04 9.10858 10.3272 8.82136L10.3805 8.76984L10.4348 8.72132L10.4911 8.67571L10.55 8.63293L10.6126 8.59287L10.6796 8.55547L10.7518 8.52063L10.8301 8.48826L10.9153 8.45827L11.0083 8.43058L11.1099 8.4051L11.221 8.38175L11.3423 8.36042L11.4748 8.34104L11.6962 8.31543L11.9474 8.2937L12.1328 8.28123L12.4398 8.26531L12.5323 8.26167L12.5392 8.01617L12.5447 7.86225C12.5616 7.4107 12.5853 6.9588 12.6172 6.53476L12.653 6.09248L12.6781 5.82755C12.6825 5.7853 12.6868 5.74399 12.6913 5.70359L12.7195 5.47191C12.7293 5.3982 12.7396 5.32791 12.7505 5.26086L12.7853 5.0692C12.8773 4.61322 13.0105 4.32733 13.2363 4.12427C13.3459 4.0256 13.4944 3.93951 13.6889 3.86464L13.8111 3.82105C13.8324 3.814 13.8541 3.80707 13.8764 3.80024L14.0157 3.76056L14.1669 3.72341L14.3302 3.68871L14.506 3.65641L14.6947 3.62643L14.8964 3.59871L15.1117 3.57318L15.3408 3.54978L15.584 3.52844L15.9761 3.50015L16.2562 3.48368L16.7051 3.46237L17.024 3.45034L17.5327 3.4354L17.8926 3.4274L18.6636 3.41584L19.2879 3.41078ZM14.4613 15.3068L14.401 17.0452C14.4042 17.0448 14.4073 17.0444 14.4105 17.0441L14.6595 17.0179L15.0187 16.988L15.2083 16.9754L15.4072 16.9644L15.8395 16.9468L16.3287 16.9348L16.8881 16.9278L17.7064 16.9254L19.0802 16.9323L19.8121 16.9423L20.1464 16.9494L20.6104 16.9633L21.0319 16.9814L21.4137 17.0043L21.6474 17.0224L21.8654 17.0431L22.0686 17.0663L22.2576 17.0924L22.4334 17.1214L22.5967 17.1535C22.7015 17.176 22.7986 17.2006 22.8889 17.2276L23.0195 17.2699C23.1033 17.2993 23.1809 17.3312 23.2534 17.3658L23.3585 17.4196L23.4566 17.4777C23.4724 17.4877 23.488 17.4979 23.5033 17.5083L23.5926 17.5728L23.6769 17.6419L23.7744 17.7295L23.8414 17.7949L23.9033 17.862L23.9602 17.9326L23.9956 17.9824L24.0447 18.0626L24.075 18.1204L24.1033 18.1824L24.1298 18.249L24.1545 18.3207L24.1881 18.4392L24.2085 18.526L24.2271 18.6199L24.2522 18.7749L24.267 18.8884L24.2864 19.0753L24.3076 19.3582L24.3236 19.6835L24.335 20.0553L24.3441 20.7091L24.3455 21.2151L24.3374 22.5829L24.2735 27.7999L24.255 28.6898L24.2436 29.0702L24.22 29.6181L24.2024 29.8998L24.189 30.0697L24.1662 30.2998L24.1489 30.4379L24.1299 30.5646L24.1091 30.681C24.1054 30.6995 24.1017 30.7177 24.0979 30.7355L24.074 30.8377L24.0479 30.9315L24.0196 31.0177C24.0146 31.0315 24.0096 31.045 24.0045 31.0582L23.9725 31.1347L23.9379 31.2056L23.9007 31.2719C23.8942 31.2826 23.8876 31.2931 23.881 31.3035L23.8394 31.3643L23.7949 31.4225L23.7223 31.5067L23.6639 31.5674L23.594 31.6303C23.4842 31.7216 23.3516 31.7993 23.1883 31.8646L23.0748 31.9063C23.0551 31.9129 23.0351 31.9194 23.0145 31.9258L22.8865 31.9622C22.8421 31.9737 22.796 31.9847 22.748 31.9951L22.5987 32.0246L22.4379 32.0508L22.2653 32.0738L22.0801 32.0937L21.882 32.1105L21.6704 32.1244L21.4448 32.1353L21.2046 32.1435L20.9495 32.149L20.5373 32.1522L20.0885 32.1498L19.6011 32.142L18.8883 32.1238L18.0997 32.0972L17.2313 32.0628C16.7761 32.0437 16.4225 31.6592 16.4415 31.204C16.4605 30.7488 16.845 30.3952 17.3003 30.4142L17.9773 30.441L18.7971 30.4686L19.3527 30.4832L19.8598 30.4926L20.1721 30.496L20.6033 30.4967L20.9919 30.4922L21.34 30.4825L21.4474 30.4781C21.6372 30.4697 21.8054 30.4585 21.9526 30.4447L22.1575 30.4221C22.2205 30.414 22.2783 30.4052 22.3309 30.3958L22.4357 30.3749L22.4724 30.3655L22.4835 30.3132C22.4958 30.2495 22.5073 30.1744 22.518 30.0875L22.5385 29.8975C22.5417 29.8631 22.5449 29.8274 22.5479 29.7903L22.5699 29.4729L22.5921 29.0046L22.6044 28.6267L22.6299 27.3568L22.6926 21.926L22.695 21.3884L22.6931 20.7931L22.6866 20.3719L22.6754 20.0069L22.6706 19.8914C22.6668 19.8034 22.6624 19.7208 22.6575 19.6435L22.6414 19.4269L22.6223 19.2405C22.612 19.1546 22.6007 19.0796 22.5882 19.0147L22.5676 18.9207L22.5489 18.856L22.5412 18.8516C22.5186 18.8395 22.4916 18.8277 22.4599 18.8163L22.3901 18.7939L22.3071 18.7725L22.2102 18.7521L22.0989 18.7328L21.9724 18.7144L21.753 18.6889L21.4958 18.6658L21.1989 18.6452L20.9778 18.6329L20.4772 18.6118L20.0479 18.5991L19.5703 18.5892L19.0421 18.5822L17.8981 18.5758L16.7833 18.5788L16.1417 18.5891L15.8071 18.5989L15.3172 18.6219L15.0555 18.6399L14.7998 18.6631C14.6807 18.6757 14.5747 18.6894 14.4824 18.7043L14.3624 18.726L14.2894 20.2182L14.2752 20.5414C14.2077 22.1487 14.1679 23.7782 14.1667 25.4124L14.2018 30.5087L14.2203 31.7354L14.2442 32.6024L14.2579 32.957L14.2735 33.2827L14.291 33.5751L14.3105 33.8343L14.3319 34.0604L14.3546 34.2476L14.3619 34.2975L14.4473 34.3108L14.6297 34.3334C14.6628 34.3369 14.6972 34.3404 14.733 34.3437L14.9643 34.3625C15.0057 34.3654 15.0484 34.3682 15.0925 34.371L15.5897 34.3952L16.1419 34.412L16.8274 34.4235L20.8901 34.4411L22.6732 34.4375L23.4998 34.4288L24.0588 34.4178L24.5482 34.4028L24.8183 34.3917L25.1071 34.3765L25.3644 34.359L25.5909 34.3393C25.6613 34.3323 25.7267 34.3249 25.7872 34.3172L25.9639 34.2905L25.9787 34.1977L26.0009 34.0264L26.0225 33.8227L26.0431 33.5878C26.0464 33.5464 26.0497 33.5038 26.0529 33.4602L26.0799 33.0362L26.1038 32.55L26.1244 32.0008L26.1534 30.8909L26.1745 29.5143L26.1904 27.189L26.1949 24.6935L26.1905 20.8692L26.1794 19.377L26.1685 18.6773L26.1445 17.8161L26.1195 17.2573L26.1022 16.9539L26.0808 16.6504C26.077 16.6023 26.0731 16.5554 26.0691 16.5098L26.0437 16.2508C26.017 16.0063 25.9863 15.8054 25.9516 15.6455L25.9194 15.5129L25.9084 15.474L25.753 15.4533L25.5674 15.4338L25.2337 15.4069L24.9749 15.3904L24.396 15.3629L24.3695 15.3623L24.2891 15.3578L23.6112 15.3353L22.4215 15.3094L21.2791 15.2949L19.7378 15.2862L17.6153 15.2879L14.4613 15.3068ZM25.2165 7.00642L25.1883 8.18967L24.9283 8.19045L22.7115 8.20649L19.7168 8.22624L15.1648 8.22443L14.5914 8.22623L14.1838 8.22948L14.1882 8.07182L14.2069 7.60022C14.2215 7.27748 14.24 6.95926 14.2626 6.65851L14.2893 6.33452L14.3187 6.03916L14.3507 5.77507C14.3618 5.69254 14.3733 5.61566 14.3852 5.54487L14.3996 5.4634L14.4224 5.34995L14.4751 5.33732L14.6256 5.30558C14.8127 5.27005 15.05 5.23766 15.3373 5.20905L15.6412 5.18172L15.9167 5.16119L16.3712 5.13389L16.8758 5.11082L17.4316 5.09194L18.0393 5.07727L18.7001 5.0668L19.665 5.05936L20.5732 5.05869L21.924 5.06538L22.7384 5.07683L23.401 5.09436L23.7668 5.10968L24.1473 5.13318L24.3964 5.15565L24.5543 5.17473L24.6896 5.19581L24.8045 5.21893L24.9012 5.24417L24.9564 5.26221L25.0051 5.28123L25.0479 5.30126L25.0853 5.32232L25.118 5.34441L25.1299 5.36584L25.1406 5.40026L25.1529 5.45481L25.1661 5.53292L25.1863 5.70178L25.1991 5.85383L25.2139 6.11755L25.2201 6.37024L25.2205 6.68649L25.2165 7.00642ZM24.5121 9.84244L26.0746 9.84076L26.582 9.84839L27.1694 9.86533C27.2174 9.8673 27.2639 9.86938 27.3088 9.87158L27.5604 9.88622L27.7766 9.90379L27.9433 9.92238L28.0239 9.93395L28.0401 9.99691C28.0634 10.0966 28.0851 10.2195 28.1036 10.3613C28.1604 10.798 28.1823 11.3749 28.1671 11.982C28.1525 12.5651 28.1045 13.1322 28.0353 13.5488L28.0039 13.72L27.8768 13.7241L27.4066 13.7345L26.6621 13.74L25.827 13.7355L25.1299 13.7264L24.5532 13.7159L23.6517 13.6843L23.0346 13.6687L22.362 13.6563L21.6338 13.6469L20.8498 13.6404L19.7173 13.6359L18.459 13.6357L11.4014 13.672L11.3791 13.495C11.3383 13.1244 11.3212 12.6339 11.3306 12.1062C11.3409 11.5281 11.3823 10.9498 11.4456 10.4999L11.4614 10.3939C11.4828 10.257 11.5057 10.1387 11.5289 10.0432L11.5319 10.0325L11.5985 10.0199L11.6684 10.0082C11.696 10.0039 11.7248 9.99963 11.7548 9.99551L11.9496 9.97219C11.9846 9.96853 12.0207 9.96498 12.0582 9.96154L12.2976 9.94223L12.5675 9.92554L12.8682 9.91143L13.3547 9.89493L13.8972 9.88373L14.7069 9.87624L16.3708 9.87439L18.993 9.87751L20.3007 9.87397L24.5121 9.84244Z" fill="var(--icon-stroke, #323264)"/>
</svg>
