<svg width="184" height="184" viewBox="0 0 184 184" fill="none" xmlns="http://www.w3.org/2000/svg">
<path fill-rule="evenodd" clip-rule="evenodd" d="M107.461 52.7767L102.166 70.0953L167.506 89.0317L173.063 69.7118L166.879 67.8212L170.062 57.411C170.302 56.6248 169.851 55.7911 169.057 55.5483L120.864 41.5071C120.07 41.2642 119.23 41.7032 118.989 42.4894L115.321 54.487C115.321 54.487 107.44 52.7704 107.461 52.7767Z" fill="#F5F5F0"/>
<path fill-rule="evenodd" clip-rule="evenodd" d="M132.531 170.294L79.0029 153.929L105.082 65.1658L160.841 82.2131L132.531 170.294Z" fill="#E52600"/>
<path fill-rule="evenodd" clip-rule="evenodd" d="M162.094 55.5949C164.172 56.1936 165.384 58.3727 164.745 60.4623L162.359 68.2645L164.782 69.0052C166.876 69.6454 168.101 71.8622 167.45 73.9927L163.416 87.188C162.768 89.3063 160.539 90.4548 158.459 89.8441L98.4963 73.6039L98.4602 73.5929C96.3649 72.9523 95.1413 70.7346 95.7927 68.6039L100.119 54.4534C100.771 52.3203 103.027 51.1706 105.12 51.8105C106.151 52.1259 107.528 52.5345 108.684 52.8749L111.043 45.0954L111.045 45.0905C111.677 43.0217 113.84 41.8634 115.904 42.4333L115.909 42.4347C123.276 44.4872 154.783 53.5013 162.09 55.5937L162.094 55.5949ZM110.25 55.7718C109.596 58.0182 109.596 58.0182 109.596 58.0182L108.99 57.8413C108.613 57.7311 108.088 57.5773 107.495 57.4028C106.53 57.1187 105.379 56.7777 104.392 56.4798L100.475 69.2921L159.137 85.1799L162.774 73.2841L156.517 71.3712L160.032 59.8717C151.749 57.5003 123.447 49.4049 115.317 47.1277L111.817 58.6646L109.596 58.0182L110.25 55.7718Z" fill="#AA0A0A"/>
<path fill-rule="evenodd" clip-rule="evenodd" d="M159.182 72.1731L109.841 58.0862L111.125 53.5868L160.467 67.6737L159.182 72.1731Z" fill="#AA0A0A"/>
<path fill-rule="evenodd" clip-rule="evenodd" d="M16.2441 39.0135L16.9901 60.3769L96.1758 56.437L94.9581 32.7391L87.4263 33.0021L86.9778 20.1605C86.944 19.1907 86.1305 18.4332 85.1629 18.467L26.7298 21.29C25.7623 21.3238 25.0036 22.1362 25.0375 23.1061L25.5543 37.9058C25.5543 37.9058 16.2189 39.0144 16.2441 39.0135Z" fill="#F5F5F0"/>
<path fill-rule="evenodd" clip-rule="evenodd" d="M88.5145 160.567L23.3201 162.843L18.3301 53.7546L86.2422 51.3831L88.5145 160.567Z" fill="#C2E8FF"/>
<path fill-rule="evenodd" clip-rule="evenodd" d="M77.5303 21.6122C79.8624 21.4927 81.812 23.3097 81.8927 25.62L82.2435 35.6662L85.5827 35.5496C87.9515 35.4669 89.9315 37.3234 90.0139 39.6847L90.5823 55.9619C90.6644 58.3111 88.8414 60.2879 86.4958 60.3942L14.2596 65.2798L14.2215 65.2811C11.851 65.3639 9.87103 63.5074 9.78851 61.1444L9.17895 43.6889C9.09635 41.3233 10.9448 39.3374 13.3126 39.2547C14.6197 39.2091 16.3745 39.1328 17.8087 39.0676C17.8838 39.0641 17.9579 39.0608 18.0311 39.0574L17.6584 29.0499L17.6582 29.0445C17.578 26.7485 19.334 24.7928 21.6412 24.6485L21.6465 24.6481C30.542 24.1117 68.6776 22.0814 77.5262 21.6124L77.5303 21.6122ZM20.5689 43.6226L19.8341 43.6578C19.3773 43.6794 18.7407 43.7092 18.0213 43.742C16.7221 43.801 15.1451 43.8699 13.869 43.917L14.4508 60.5769L85.8927 55.7451L85.3512 40.2398L77.7304 40.5059L77.2348 26.3136C67.6187 26.8237 31.76 28.7339 22.3499 29.2936L22.8794 43.5103L20.5689 43.6226Z" fill="#284B9B"/>
<path fill-rule="evenodd" clip-rule="evenodd" d="M80.5791 40.3917L20.863 43.6045L20.6116 38.9321L80.3278 35.7192L80.5791 40.3917Z" fill="#284B9B"/>
<path fill-rule="evenodd" clip-rule="evenodd" d="M32.2874 126.979L33.0201 147.961C33.1488 150.539 35.3293 152.546 37.917 152.456C40.5112 152.365 42.5582 150.205 42.5069 147.63L41.7741 126.648C41.6455 124.069 39.4652 122.063 36.8773 122.153C34.2828 122.244 32.236 124.402 32.2874 126.979ZM29.7147 127.043C29.6283 123.045 32.7935 119.721 36.7875 119.581C40.7846 119.442 44.1526 122.542 44.345 126.532L44.3458 126.549L45.0796 147.566C45.166 151.563 42.001 154.888 38.0068 155.028C34.0094 155.167 30.6416 152.065 30.4493 148.077L30.4485 148.06L29.7147 127.043Z" fill="#323264"/>
<path fill-rule="evenodd" clip-rule="evenodd" d="M65.2452 107.986C63.7693 105.87 60.857 105.327 58.7114 106.78C56.561 108.235 55.9708 111.153 57.3818 113.308L69.1347 130.701C70.6103 132.815 73.5211 133.359 75.6688 131.907M65.2452 107.986L76.9979 125.377C78.4078 127.534 77.817 130.452 75.6688 131.907M57.269 104.649C60.5822 102.406 65.0836 103.244 67.363 106.524L67.3725 106.538L79.1452 123.959C81.3388 127.302 80.4181 131.8 77.1113 134.038C73.7968 136.279 69.2968 135.442 67.0172 132.163L67.0074 132.149L55.2353 114.728C53.0391 111.385 53.9609 106.887 57.269 104.649Z" fill="#323264"/>
<path fill-rule="evenodd" clip-rule="evenodd" d="M48.6479 105.865C45.9132 102.956 41.3376 102.787 38.388 105.489C35.4448 108.189 35.1901 112.773 37.8522 115.759L52.0515 131.274L52.0577 131.28C54.7951 134.188 59.3707 134.358 62.3193 131.655C65.2624 128.956 65.5167 124.37 62.8541 121.385L48.6595 105.878L48.6479 105.865ZM46.7673 107.622C44.9987 105.747 42.0382 105.636 40.1269 107.386C38.213 109.142 38.0565 112.114 39.768 114.041L53.9373 129.522C55.71 131.399 58.6712 131.508 60.58 129.759C62.494 128.003 62.6498 125.029 60.9387 123.104L46.7673 107.622Z" fill="#323264"/>
<path fill-rule="evenodd" clip-rule="evenodd" d="M47.5005 144.042C47.5319 141.449 49.6376 139.364 52.2155 139.355L47.5005 144.042ZM52.2155 139.355L73.1943 139.605C75.7671 139.673 77.8273 141.819 77.7978 144.417C77.7667 147.011 75.6608 149.096 73.0827 149.104L52.104 148.857C49.5316 148.788 47.471 146.641 47.5005 144.042M44.9272 144.012C44.9752 140.012 48.2259 136.789 52.2194 136.782L52.2368 136.782L73.2506 137.032C77.2486 137.132 80.4169 140.452 80.371 144.447C80.3231 148.447 77.0723 151.671 73.0788 151.678L73.0615 151.678L52.0477 151.43C48.0492 151.33 44.8813 148.006 44.9272 144.012Z" fill="#323264"/>
<path fill-rule="evenodd" clip-rule="evenodd" d="M75.773 83.1945C74.2569 79.4974 70.0454 77.6742 66.3246 79.1429L66.3092 79.149L46.8754 87.1095L46.8593 87.1163C43.1857 88.6796 41.4488 92.9171 42.9647 96.6193C44.4775 100.316 48.6911 102.138 52.4091 100.674L71.8577 92.7033L71.8735 92.6966C75.5459 91.1337 77.2875 86.8978 75.773 83.1945ZM67.2766 81.5338L47.8594 89.4874C45.4898 90.5006 44.3629 93.2431 45.3461 95.644C46.3293 98.0468 49.0635 99.2204 51.4583 98.2822L70.8733 90.3254C73.2442 89.3117 74.373 86.5699 73.3916 84.1699C72.4046 81.7646 69.6716 80.5929 67.2766 81.5338Z" fill="#323264"/>
</svg>
