<svg viewBox="0 0 32 32" fill="none" xmlns="http://www.w3.org/2000/svg">
<path fill-rule="evenodd" clip-rule="evenodd" d="M16.9801 3.11438C23.8165 3.11438 29.0467 8.27858 29.0467 14.2758C29.0467 19.8315 23.2259 24.2537 16.0733 24.4376L15.3774 24.4507C15.2198 24.4543 15.0644 24.4587 14.9109 24.4638L14.4566 24.4814L14.0139 24.5037L13.7969 24.5167L13.3714 24.5463C9.31168 24.857 6.79843 25.8798 4.6567 28.2662C4.41324 28.5375 3.99596 28.56 3.72468 28.3166C3.4534 28.0731 3.43085 27.6558 3.67432 27.3846C6.16063 24.6142 9.06859 23.4947 13.6957 23.2006L14.1564 23.1743C14.2341 23.1704 14.3123 23.1667 14.391 23.1631L14.8689 23.1445C14.9495 23.1418 15.0306 23.1393 15.1122 23.137L15.5933 23.1259L15.8381 23.122C22.4386 23.032 27.7267 19.065 27.7267 14.2758C27.7267 9.01138 23.0912 4.43438 16.9801 4.43438C10.0698 4.43438 4.27691 8.41605 4.27691 13.4744C4.27691 15.24 4.60156 16.5009 5.29338 17.966L5.41829 18.2245L5.88719 19.1605L6.00091 19.3959L6.10003 19.6106L6.14519 19.7129L6.2288 19.9121C6.86659 21.4891 6.75828 22.8844 5.66337 24.8008C5.48255 25.1173 5.07939 25.2273 4.7629 25.0464C4.4464 24.8656 4.33642 24.4625 4.51725 24.146C5.41392 22.5765 5.48938 21.6045 5.00509 20.407L4.93262 20.2346L4.89281 20.1446L4.75445 19.8491L4.19506 18.7282C3.36098 17.0158 2.95691 15.5344 2.95691 13.4744C2.95691 7.55889 9.42319 3.11438 16.9801 3.11438ZM18.8889 13.4936C19.0027 12.9316 19.5553 12.6153 20.1557 12.7048L20.228 12.7175L20.2956 12.7333C20.8493 12.8817 21.167 13.4315 21.048 14.0203C20.9168 14.6683 20.4421 15.0348 19.7859 14.9021C19.1462 14.7726 18.7481 14.1904 18.8889 13.4936ZM12.3997 12.6899C13.0607 12.6899 13.5141 13.0826 13.5141 13.7521C13.5141 14.4048 13.0222 14.9105 12.3113 14.9105C11.7151 14.9105 11.2849 14.3926 11.2849 13.7521C11.2849 13.1448 11.7749 12.6899 12.3997 12.6899ZM15.6844 12.8008C16.2165 12.508 16.8511 12.7174 17.1526 13.2646C17.4712 13.8436 17.3459 14.4303 16.7597 14.7532C16.188 15.0682 15.5079 14.8813 15.1648 14.2585C14.8772 13.7363 15.1234 13.1096 15.6844 12.8008Z" fill="#E52600"/>
</svg>
