<svg width="48" height="48" viewBox="0 0 48 48" fill="none" xmlns="http://www.w3.org/2000/svg">
<circle cx="24" cy="24" r="23.5" fill="#F5F5F0" stroke="#D9DADA"/>
<path fill-rule="evenodd" clip-rule="evenodd" d="M35.3081 27.5868C35.3081 35.1575 29.4822 39.9398 21.7268 40.1241C12.7738 40.337 7.68005 33.9868 7.68005 26.4161C7.68005 18.8453 13.9691 12.6897 21.7268 12.708C31.4723 12.7312 35.3081 20.016 35.3081 27.5868Z" fill="var(--medication-icon-shadow,  #C2E8FF)"/>
<path fill-rule="evenodd" clip-rule="evenodd" d="M24.8046 8.8886C16.6635 8.76091 9.95735 15.1374 9.84885 23.1114C9.73367 31.5769 15.5331 37.8206 24.428 37.7277C32.7924 37.6402 38.7781 32.4412 38.8839 24.6693C39.0082 15.5367 34.0382 9.03356 24.8046 8.8886ZM24.7823 10.314C33.1452 10.4453 37.5729 16.2389 37.4584 24.6499C37.3638 31.6012 32.0434 36.2224 24.4131 36.3022C16.3425 36.3864 11.1697 30.8174 11.2743 23.1308C11.3707 16.0503 17.2582 10.3565 24.4806 10.3126L24.7823 10.314ZM19.2 24.9595C20.2604 24.9595 21.12 24.0999 21.12 23.0395C21.12 21.9791 20.2604 21.1195 19.2 21.1195C18.1396 21.1195 17.28 21.9791 17.28 23.0395C17.28 24.0999 18.1396 24.9595 19.2 24.9595ZM26.88 23.0395C26.88 24.0999 26.0204 24.9595 24.96 24.9595C23.8996 24.9595 23.04 24.0999 23.04 23.0395C23.04 21.9791 23.8996 21.1195 24.96 21.1195C26.0204 21.1195 26.88 21.9791 26.88 23.0395ZM30.72 24.9595C31.7804 24.9595 32.64 24.0999 32.64 23.0395C32.64 21.9791 31.7804 21.1195 30.72 21.1195C29.6596 21.1195 28.8 21.9791 28.8 23.0395C28.8 24.0999 29.6596 24.9595 30.72 24.9595Z" fill="var(--medication-icon-border,  #0082AA)"/>
</svg>
