<svg width="32" height="32" viewBox="0 0 32 32" fill="none" xmlns="http://www.w3.org/2000/svg">
<path fill-rule="evenodd" clip-rule="evenodd" d="M25.6782 0.24099H23.6165C23.4444 0.0907921 23.2205 0 22.9757 0C22.4327 0 21.9925 0.447095 21.9925 0.998307C21.9925 1.54952 22.4327 1.99661 22.9757 1.99661C23.244 1.99661 23.4871 1.88761 23.6645 1.71089H25.6782L25.7376 1.71183C26.7449 1.74372 27.5519 2.58272 27.5519 3.61319L27.5506 3.77896C27.4634 9.23896 23.0755 13.6382 17.6757 13.6382C12.2213 13.6382 7.79943 9.14964 7.79943 3.61294L7.80035 3.55256C7.83177 2.53005 8.65838 1.71089 9.67346 1.71089H11.8863C12.0637 1.88761 12.3067 1.99661 12.5748 1.99661C13.1181 1.99661 13.5583 1.54952 13.5583 0.998307C13.5583 0.447095 13.1181 0 12.5748 0C12.3301 0 12.1063 0.0907921 11.9342 0.24099H9.67346L9.59826 0.241837C7.7983 0.282417 6.35137 1.77615 6.35137 3.61319L6.35288 3.80327C6.44923 9.83501 11.1229 14.7377 17.0015 15.088V24.1586L17.0007 24.2639C16.9453 27.7343 14.1567 30.5301 10.7247 30.5301C7.25819 30.5301 4.44806 27.6775 4.44806 24.1586C4.44806 24.0699 4.44985 23.9815 4.4534 23.8934C5.07675 24.6819 6.03404 25.1866 7.1075 25.1866C8.98603 25.1866 10.509 23.6408 10.509 21.7341C10.509 19.8272 8.98608 18.2813 7.1075 18.2813C5.79226 18.2813 4.65145 19.0391 4.08554 20.148C3.37978 21.3494 3 22.7261 3 24.1586C3 28.4893 6.45845 32 10.7247 32C14.9911 32 18.4496 28.4894 18.4496 24.1586V15.0816C24.3428 14.6779 29 9.69741 29 3.61294L28.9992 3.53661C28.9592 1.70961 27.4875 0.24099 25.6782 0.24099ZM5.35543 20.8567C5.22666 21.1212 5.1543 21.4191 5.1543 21.7341C5.1543 22.8291 6.02875 23.7167 7.1075 23.7167C8.18631 23.7167 9.06093 22.829 9.06093 21.7341C9.06093 20.639 8.18634 19.7512 7.1075 19.7512C6.42555 19.7512 5.82527 20.1059 5.47592 20.6436L5.48478 20.6495C5.44031 20.7178 5.39718 20.7869 5.35543 20.8567Z" fill="var(--icon-stroke, #284B9B)"/>
</svg>
