<svg width="24" height="24" viewBox="0 0 24 24" fill="none" xmlns="http://www.w3.org/2000/svg">
<path d="M12 3.75C12.292 3.75 12.5307 3.97825 12.5474 4.26605L12.5483 4.29826V9.13797C12.5483 9.44077 12.3028 9.68623 12 9.68623C11.7081 9.68623 11.4694 9.45799 11.4527 9.17018L11.4518 9.13797V4.29826C11.4518 3.99547 11.6972 3.75 12 3.75Z" fill="#414646"/>
<path d="M23.4517 15.2018C23.7545 15.2018 23.9999 15.4472 23.9999 15.75C23.9999 16.042 23.7717 16.2807 23.4839 16.2974L23.4517 16.2983H18.612C18.3092 16.2983 18.0637 16.0528 18.0637 15.75C18.0637 15.4581 18.292 15.2194 18.5798 15.2027L18.612 15.2018H23.4517Z" fill="#414646"/>
<path d="M5.93623 15.75C5.93623 15.4472 5.69076 15.2018 5.38796 15.2018H0.548263L0.516049 15.2027C0.228246 15.2194 0 15.4581 0 15.75C0 16.0528 0.245466 16.2983 0.548263 16.2983H5.38796L5.42018 16.2974C5.70798 16.2807 5.93623 16.042 5.93623 15.75Z" fill="#414646"/>
<path d="M3.57916 7.32916C3.78471 7.12362 4.11285 7.11539 4.32821 7.3045L4.35452 7.32916L7.17387 10.1485C7.38799 10.3626 7.38799 10.7098 7.17387 10.9239C6.96833 11.1294 6.64018 11.1376 6.42483 10.9485L6.39851 10.9239L3.57916 8.10452C3.36505 7.89041 3.36505 7.54327 3.57916 7.32916Z" fill="#414646"/>
<path d="M20.4206 7.32915C20.2065 7.11505 19.8594 7.11506 19.6453 7.32917L16.8261 10.1485L16.8014 10.1748C16.6123 10.3902 16.6206 10.7184 16.8261 10.9239C17.0402 11.138 17.3874 11.138 17.6015 10.9239L20.4207 8.10451L20.4453 8.0782C20.6344 7.86284 20.6262 7.53469 20.4206 7.32915Z" fill="#414646"/>
<path d="M11.9998 11.4509C9.62548 11.4509 7.70068 13.3757 7.70068 15.75C7.70068 16.0612 7.73374 16.3646 7.79652 16.657C7.84404 16.8782 8.04717 17.025 8.2735 17.025C8.64542 17.025 8.89952 16.6384 8.83943 16.2714C8.81166 16.1017 8.79721 15.9276 8.79721 15.75C8.79721 13.9813 10.2311 12.5474 11.9998 12.5474C13.7685 12.5474 15.2024 13.9813 15.2024 15.75C15.2024 15.9276 15.1879 16.1017 15.1602 16.2714C15.1001 16.6384 15.3542 17.025 15.7261 17.025C15.9524 17.025 16.1556 16.8782 16.2031 16.657C16.2659 16.3646 16.2989 16.0612 16.2989 15.75C16.2989 13.3757 14.3741 11.4509 11.9998 11.4509Z" fill="#414646"/>
<path d="M0.5475 18.75C0.245124 18.75 0 18.9951 0 19.2975C0 19.5999 0.245124 19.845 0.5475 19.845H23.4525C23.7549 19.845 24 19.5999 24 19.2975C24 18.9951 23.7549 18.75 23.4525 18.75H0.5475Z" fill="#414646"/>
</svg>
