<svg fill="none" height="24" viewBox="0 0 24 24" width="24" xmlns="http://www.w3.org/2000/svg"><path clip-rule="evenodd" d="m8.34774.75h-5.77952c-1.41849 0-2.56822 1.15075-2.56822 2.57049v5.10979c0 1.41963 1.14978 2.57052 2.56822 2.57052h5.77952c1.41843 0 2.56826-1.15089 2.56826-2.57052v-5.10979c0-1.41974-1.14978-2.57049-2.56826-2.57049zm-5.77952 1.0282h5.77952c.85113 0 1.54093.69041 1.54093 1.54229v5.10979c0 .85178-.68987 1.5423-1.54093 1.5423h-5.77952c-.85107 0-1.54093-.69052-1.54093-1.5423v-5.10979c0-.85188.6898-1.54229 1.54093-1.54229zm5.77952 11.221h-5.77952c-1.41849 0-2.56822 1.1508-2.56822 2.5705v5.1098c0 1.4196 1.14978 2.5705 2.56822 2.5705h5.77952c1.41843 0 2.56826-1.1509 2.56826-2.5705v-5.1098c0-1.4197-1.14978-2.5705-2.56826-2.5705zm-5.77952 1.0282h5.77952c.85113 0 1.54093.6904 1.54093 1.5423v5.1098c0 .8518-.68987 1.5423-1.54093 1.5423h-5.77952c-.85107 0-1.54093-.6905-1.54093-1.5423v-5.1098c0-.8519.6898-1.5423 1.54093-1.5423zm13.08388-1.0282h5.7797c1.4184 0 2.5682 1.1508 2.5682 2.5705v5.1098c0 1.4196-1.1499 2.5705-2.5682 2.5705h-5.7797c-1.4183 0-2.5682-1.1509-2.5682-2.5705v-5.1098c0-1.4197 1.1498-2.5705 2.5682-2.5705zm5.7797 1.0282h-5.7797c-.851 0-1.5409.6905-1.5409 1.5423v5.1098c0 .8517.6899 1.5423 1.5409 1.5423h5.7797c.8509 0 1.5409-.6906 1.5409-1.5423v-5.1098c0-.8518-.6899-1.5423-1.5409-1.5423zm0-13.2774h-5.7797c-1.4184 0-2.5682 1.1508-2.5682 2.57049v5.10979c0 1.41957 1.1499 2.57052 2.5682 2.57052h5.7797c1.4183 0 2.5682-1.15095 2.5682-2.57052v-5.10979c0-1.41969-1.1498-2.57049-2.5682-2.57049zm-5.7797 1.0282h5.7797c.851 0 1.5409.69047 1.5409 1.54229v5.10979c0 .85172-.69 1.5423-1.5409 1.5423h-5.7797c-.851 0-1.5409-.69058-1.5409-1.5423v-5.10979c0-.85182.6899-1.54229 1.5409-1.54229z" fill="currentColor" fill-rule="evenodd"/></svg>
