<svg width="24" height="24" viewBox="0 0 24 24" fill="none" xmlns="http://www.w3.org/2000/svg">
<path fill-rule="evenodd" clip-rule="evenodd" d="M12.1515 0L12.0106 9.90383e-05L11.9982 0.000399066L11.9896 0.000190591L11.8487 9.15527e-05L11.8163 0.00101271C11.801 0.00188665 11.7859 0.00337664 11.7709 0.0054579C9.8346 0.147978 8.1267 1.35699 7.30005 3.11749C6.9933 3.77048 6.81881 4.47861 6.79077 5.20722L6.78708 5.64556L6.78661 6.0035C6.78757 6.1232 6.7931 6.24314 6.80309 6.36273C6.9488 8.10184 8.05326 9.64259 9.65973 10.3849L9.73423 10.4185L9.75321 10.4265L10.5325 10.7373L4.54094 13.1272L4.52206 13.136C2.91545 13.9211 1.875 15.5647 1.875 17.3948V19.753L1.87572 19.8241C1.89445 20.7498 2.27932 21.7051 3.09984 22.46C4.17806 23.4519 5.89464 24 8.3135 24H19.125L19.1574 23.9991C19.4466 23.9826 19.6759 23.7463 19.6759 23.4574C19.6759 23.1577 19.4293 22.9147 19.125 22.9147H8.3135L8.20049 22.9143C6.10332 22.8984 4.69074 22.4385 3.85192 21.6669C3.2474 21.1107 2.97682 20.4153 2.97682 19.753V17.3948L2.97751 17.3229C3.00369 15.9592 3.77286 14.743 4.94947 14.1394L4.99516 14.1163L12.0002 11.3226L19.005 14.1162L19.0507 14.1393C19.2338 14.2332 19.407 14.3419 19.569 14.4637L21.2266 14.6094C20.7796 13.9907 20.1834 13.4806 19.4781 13.1359L19.4592 13.1271L13.4679 10.7373L14.247 10.4266L14.266 10.4186L14.3405 10.3849C15.9469 9.64268 17.0514 8.10193 17.1971 6.36282C17.2071 6.24324 17.2126 6.12329 17.2136 6.00359L17.2131 5.64565L17.2094 5.20731C17.1814 4.4787 17.0069 3.77058 16.7001 3.11758C15.8739 1.3579 14.1672 0.149194 12.232 0.00574887C12.2161 0.00346682 12.2001 0.00184774 12.1839 0.000921161L12.1515 0ZM11.9934 1.08571L11.8823 1.08565L11.821 1.0902C10.3038 1.21388 8.95719 2.17367 8.30005 3.57314C8.05408 4.09677 7.91429 4.66407 7.89182 5.24795L7.89094 5.30245L7.88834 5.97878L7.89033 6.08814C7.89239 6.14968 7.89602 6.21169 7.90119 6.27357L7.90794 6.3455C8.04465 7.66142 8.8938 8.82835 10.1185 9.39808L10.1798 9.4258L12.0002 10.1519L13.8204 9.42589L13.8817 9.39817C15.1064 8.82844 15.9555 7.66151 16.0922 6.34559L16.099 6.27366C16.1042 6.21178 16.1078 6.14977 16.1099 6.08823L16.1118 5.97887L16.1092 5.30254L16.1084 5.24804C16.0859 4.66416 15.9461 4.09686 15.7001 3.57324C15.043 2.17376 13.6964 1.21397 12.1792 1.09029L12.1179 1.08574L11.9974 1.08581L11.9934 1.08571Z" fill="#284B9B"/>
<path fill-rule="evenodd" clip-rule="evenodd" d="M18.75 14.5875C16.4511 14.5875 14.5875 16.4511 14.5875 18.75C14.5875 21.0488 16.4512 22.9125 18.75 22.9125C21.0489 22.9125 22.9125 21.0489 22.9125 18.75C22.9125 16.451 21.049 14.5875 18.75 14.5875ZM13.5 18.75C13.5 15.8505 15.8505 13.5 18.75 13.5C21.6496 13.5 24 15.8504 24 18.75C24 21.6495 21.6495 24 18.75 24C15.8506 24 13.5 21.6494 13.5 18.75ZM18.7464 16.5C19.036 16.5 19.2727 16.7001 19.2892 16.9524L19.2901 16.9807V18.21H20.5193C20.7848 18.21 21 18.4534 21 18.7537C21 19.0433 20.7999 19.28 20.5476 19.2966L20.5193 19.2975H19.2901V20.5193C19.2901 20.7848 19.0467 21 18.7464 21C18.4568 21 18.2201 20.7999 18.2036 20.5476L18.2026 20.5193V19.2975H16.9807C16.7152 19.2975 16.5 19.054 16.5 18.7537C16.5 18.4642 16.7001 18.2275 16.9524 18.2109L16.9807 18.21H18.2026V16.9807C18.2026 16.7152 18.4461 16.5 18.7464 16.5Z" fill="#284B9B"/>
</svg>
