<svg width="48" height="48" viewBox="0 0 48 48" fill="none" xmlns="http://www.w3.org/2000/svg">
<circle cx="24" cy="24" r="23.5" fill="#F5F5F0" stroke="#D9DADA"/>
<path fill-rule="evenodd" clip-rule="evenodd" d="M15.6047 29.2966L27.0585 12.8199C27.1493 12.6893 27.3288 12.6571 27.4594 12.7478C27.4874 12.7673 27.5118 12.7917 27.5313 12.8198L39.1153 29.4576L15.6047 29.2966Z" fill="var(--medication-icon-shadow,  #C2E8FF)"/>
<path fill-rule="evenodd" clip-rule="evenodd" d="M11.9796 30.1543L12.1961 29.8895L23.0986 14.206C23.6041 13.4788 24.6035 13.2991 25.3307 13.8046C25.487 13.9133 25.6227 14.0489 25.7315 14.2051L36.7356 30.0131L37.0009 30.3423C37.0499 30.4099 37.0881 30.4821 37.1157 30.5567H38.88C39.2355 30.5567 39.5236 30.8449 39.5236 31.2004C39.5236 31.5236 39.2855 31.7911 38.9751 31.8371L38.88 31.8441H10.08C9.72446 31.8441 9.43628 31.5559 9.43628 31.2004C9.43628 30.8772 9.67445 30.6097 9.98484 30.5637L10.08 30.5567H11.6732L11.9796 30.1543ZM24.639 14.8976L24.5959 14.8617C24.4525 14.762 24.2554 14.7974 24.1556 14.9409L13.3017 30.5514L35.4854 30.4689L24.675 14.9407L24.639 14.8976ZM23.04 28.8004C23.5702 28.8004 24 28.3706 24 27.8404C24 27.3102 23.5702 26.8804 23.04 26.8804C22.5098 26.8804 22.08 27.3102 22.08 27.8404C22.08 28.3706 22.5098 28.8004 23.04 28.8004ZM26.88 24.9604C26.88 25.4906 26.4502 25.9204 25.92 25.9204C25.3898 25.9204 24.96 25.4906 24.96 24.9604C24.96 24.4302 25.3898 24.0004 25.92 24.0004C26.4502 24.0004 26.88 24.4302 26.88 24.9604ZM23.04 23.0404C23.5702 23.0404 24 22.6106 24 22.0804C24 21.5502 23.5702 21.1204 23.04 21.1204C22.5098 21.1204 22.08 21.5502 22.08 22.0804C22.08 22.6106 22.5098 23.0404 23.04 23.0404ZM21.12 24.9604C21.12 25.4906 20.6902 25.9204 20.16 25.9204C19.6298 25.9204 19.2 25.4906 19.2 24.9604C19.2 24.4302 19.6298 24.0004 20.16 24.0004C20.6902 24.0004 21.12 24.4302 21.12 24.9604ZM17.28 28.8004C17.8102 28.8004 18.24 28.3706 18.24 27.8404C18.24 27.3102 17.8102 26.8804 17.28 26.8804C16.7498 26.8804 16.32 27.3102 16.32 27.8404C16.32 28.3706 16.7498 28.8004 17.28 28.8004Z" fill="var(--medication-icon-border,  #0082AA)"/>
</svg>
