<svg width="16" height="16" viewBox="0 0 16 16" fill="none" xmlns="http://www.w3.org/2000/svg">
<path fill-rule="evenodd" clip-rule="evenodd" d="M7.97721 9.89419L12.8794 4.21649C13.0603 3.92336 13.0392 3.52753 12.8059 3.25732C12.5096 2.91422 11.9946 2.91423 11.6984 3.25732L6.97264 8.73072L7.97721 9.89419ZM3.62647 9.49261L5.98177 12.2205L5.53094 12.7427C5.24896 13.0693 4.76161 13.0889 4.45732 12.7794L4.45161 12.7736L4.42875 12.7488L1.19415 9.00247C0.935285 8.70266 0.935285 8.24277 1.19415 7.94296C1.47612 7.61638 1.96347 7.59679 2.26776 7.90625L2.27347 7.91206L2.29633 7.93688L3.51984 9.35392C3.55243 9.40171 3.58797 9.44803 3.62647 9.49261ZM14.6984 3.25732L7.97722 11.0418L5.29633 7.93688L5.27347 7.91206L5.26776 7.90625C4.96347 7.59679 4.47612 7.61638 4.19414 7.94296C3.93529 8.24277 3.93529 8.70266 4.19414 9.00247L7.42875 12.7488L7.45161 12.7736L7.45732 12.7794C7.76161 13.0889 8.24896 13.0693 8.53094 12.7427L15.8111 4.3108L15.8322 4.28468L15.837 4.27836C16.0622 3.98125 16.056 3.54707 15.8059 3.25732C15.5096 2.91422 14.9946 2.91423 14.6984 3.25732Z" fill="#606565"/>
</svg>
