<svg width="184" height="184" viewBox="0 0 184 184" fill="none" xmlns="http://www.w3.org/2000/svg">
<path fill-rule="evenodd" clip-rule="evenodd" d="M130.448 151.521H34.7312L33.3496 60.6709H132.25L130.448 151.521Z" fill="#C2E8FF"/>
<path fill-rule="evenodd" clip-rule="evenodd" d="M45.1802 56.324C45.1802 56.3249 45.1802 56.3258 45.1802 56.3267L46.4765 139.356C46.4861 140.106 47.1177 140.769 47.9655 140.769H137.088C137.933 140.769 138.565 140.11 138.578 139.359L138.578 139.351L140.27 56.3321C140.27 56.3306 140.27 56.3291 140.27 56.3277C140.28 55.5614 139.644 54.8754 138.78 54.8754H46.6671C45.8083 54.8754 45.1721 55.5571 45.1802 56.324ZM40.5806 56.3843C40.538 52.9908 43.3073 50.2754 46.6671 50.2754H138.78C142.152 50.2754 144.926 53.0068 144.869 56.4089L144.869 56.4174L143.177 139.437C143.177 139.439 143.177 139.441 143.177 139.442C143.117 142.764 140.379 145.369 137.088 145.369H47.9655C44.669 145.369 41.9215 142.751 41.8769 139.418C41.8769 139.417 41.8769 139.416 41.8769 139.414L40.5806 56.3843Z" fill="#284B9B"/>
<path fill-rule="evenodd" clip-rule="evenodd" d="M128.845 30.4584C130.463 31.0409 131.303 32.8251 130.72 34.4433L98.241 124.664C97.868 125.701 96.9753 126.463 95.8934 126.669C94.8114 126.875 93.7011 126.494 92.9734 125.667L64.0111 92.7672C62.8746 91.4762 62.9999 89.5084 64.2909 88.3719C65.5819 87.2355 67.5497 87.3607 68.6861 88.6517L94.166 117.596L124.86 32.3337C125.443 30.7154 127.227 29.8758 128.845 30.4584Z" fill="#0082AA"/>
</svg>
