<svg width="603"  viewBox="0 0 603 330" fill="none" xmlns="http://www.w3.org/2000/svg">
<path d="M493.5 329.067C519.119 311.141 531.816 284.074 528.867 270.667C526.343 259.193 516.799 262.587 513.952 275.394C511.237 287.609 516.159 303.689 534.07 312.14C557.182 323.045 579.095 312.318 584.853 286.818C589.083 268.088 576.033 254.129 571.594 254.45C568.208 254.694 564.667 259.667 574.848 263.873C581.891 266.783 591.33 267.924 602 266.57" stroke="var(--svg-background-stroke)" stroke-width="1.76" stroke-linecap="round"/>
<path d="M424 328.83C418.481 325.031 413.158 320.39 408.212 314.841C377.811 280.732 355.442 275.668 341.411 286.806C332.053 294.234 329.685 315.493 329.146 328.83" stroke="var(--svg-background-stroke)" stroke-width="1.75" stroke-linecap="round" style="display: var(--second-disapear);"/>
</svg>
