<svg width="64" height="64" viewBox="0 0 64 64" fill="none" xmlns="http://www.w3.org/2000/svg">
<path fill-rule="evenodd" clip-rule="evenodd" d="M36.0307 9.66747C46.6775 14.1032 51.7406 26.0415 47.5404 36.5432L47.3241 37.064C46.4991 39.0513 46.744 40.3092 47.6973 41.2621L50.7703 44.3155L54.0557 47.5437L56.364 49.793C57.9288 51.313 58.0093 53.7486 56.5964 55.3627L56.3793 55.5925C54.8164 57.1265 52.3267 57.1997 50.6754 55.8074L50.4555 55.6085L42.3253 47.7159C41.766 47.173 41.7611 46.2879 42.3142 45.7389C42.8213 45.2358 43.6213 45.1897 44.1819 45.6038L44.3284 45.7281L52.4587 53.6207C52.9433 54.0912 53.6995 54.1284 54.2272 53.7339L54.365 53.6155C54.8822 53.1027 54.8779 52.283 54.3602 51.7801L50.9226 48.425L48.7487 46.2852L45.6646 43.2209C43.994 41.5508 43.4828 39.2548 44.519 36.4358L44.6938 35.9902C48.676 26.7824 44.2991 16.1496 34.9177 12.2411C25.5363 8.3326 14.7031 12.6286 10.7209 21.8364C6.73877 31.0442 11.1157 41.677 20.4971 45.5855C21.2211 45.8872 21.559 46.7079 21.2516 47.4185C20.9442 48.1292 20.1081 48.4608 19.384 48.1591C8.55451 43.6473 3.50195 31.3731 8.0988 20.7439C12.6957 10.1148 25.2012 5.15565 36.0307 9.66747ZM27.5999 13.6C36.2155 13.6 43.1999 20.5844 43.1999 29.2C43.1999 37.8156 36.2155 44.8 27.5999 44.8C18.9843 44.8 11.9999 37.8156 11.9999 29.2C11.9999 20.5844 18.9843 13.6 27.5999 13.6ZM27.5999 16C20.3097 16 14.3999 21.9098 14.3999 29.2C14.3999 36.4902 20.3097 42.4 27.5999 42.4C34.8901 42.4 40.7999 36.4902 40.7999 29.2C40.7999 21.9098 34.8901 16 27.5999 16ZM27.09 19.2C32.4526 19.2 36.7999 23.5473 36.7999 28.9099C36.7999 29.7329 36.1328 30.4 35.3098 30.4C34.4869 30.4 33.8198 29.7329 33.8198 28.9099C33.8198 25.1932 30.8067 22.1801 27.09 22.1801C26.267 22.1801 25.5999 21.513 25.5999 20.6901C25.5999 19.8671 26.267 19.2 27.09 19.2Z" fill="var(--icon-fill, #606565)"/>
</svg>
