<svg width="64" height="64" viewBox="0 0 64 64" fill="none" xmlns="http://www.w3.org/2000/svg">
<path fill-rule="evenodd" clip-rule="evenodd" d="M36.0308 9.66747C46.6776 14.1032 51.7407 26.0415 47.5405 36.5432L47.3242 37.064C46.4991 39.0513 46.7441 40.3092 47.6974 41.2621L50.7704 44.3155L54.0558 47.5437L56.3641 49.793C57.9289 51.313 58.0094 53.7486 56.5965 55.3627L56.3794 55.5925C54.8165 57.1265 52.3268 57.1997 50.6755 55.8074L50.4556 55.6085L42.3254 47.7159C41.7661 47.173 41.7611 46.2879 42.3143 45.7389C42.8214 45.2358 43.6214 45.1897 44.182 45.6038L44.3285 45.7281L52.4588 53.6207C52.9434 54.0912 53.6996 54.1284 54.2273 53.7339L54.3651 53.6155C54.8823 53.1027 54.878 52.283 54.3603 51.7801L50.9227 48.425L48.7488 46.2852L45.6647 43.2209C43.9941 41.5508 43.4829 39.2548 44.5191 36.4358L44.6939 35.9902C48.6761 26.7824 44.2991 16.1496 34.9178 12.2411C25.5364 8.3326 14.7032 12.6286 10.721 21.8364C6.73886 31.0442 11.1158 41.677 20.4971 45.5855C21.2212 45.8872 21.559 46.7079 21.2517 47.4185C20.9443 48.1292 20.1082 48.4608 19.3841 48.1591C8.55461 43.6473 3.50204 31.3731 8.09889 20.7439C12.6958 10.1148 25.2013 5.15565 36.0308 9.66747ZM27.6 13.6C36.2156 13.6 43.2 20.5844 43.2 29.2C43.2 37.8156 36.2156 44.8 27.6 44.8C18.9844 44.8 12 37.8156 12 29.2C12 20.5844 18.9844 13.6 27.6 13.6ZM27.6 16C20.3098 16 14.4 21.9098 14.4 29.2C14.4 36.4902 20.3098 42.4 27.6 42.4C34.8902 42.4 40.8 36.4902 40.8 29.2C40.8 21.9098 34.8902 16 27.6 16Z" fill="var(--icon-fill, #606565)"/>
<path fill-rule="evenodd" clip-rule="evenodd" d="M22.9784 24.4727C23.4593 24.0028 24.2129 23.9834 24.7163 24.4086L24.8076 24.4936L27.5908 27.3406L30.3196 24.6763C30.8307 24.1772 31.6496 24.1869 32.1487 24.6979C32.6184 25.179 32.6374 25.9327 32.2119 26.4358L32.1269 26.5271L29.3986 29.1912L32.1819 32.0374C32.6813 32.5483 32.672 33.3672 32.1612 33.8666C31.6804 34.3365 30.9267 34.3559 30.4234 33.9307L30.3321 33.8457L27.5475 30.9984L24.8196 33.663C24.3086 34.1621 23.4897 34.1524 22.9905 33.6414C22.5208 33.1603 22.5018 32.4066 22.9273 31.9035L23.0123 31.8123L25.7396 29.1479L22.9577 26.3018C22.4584 25.791 22.4677 24.9721 22.9784 24.4727Z" fill="var(--icon-fill, #606565)"/>
</svg>
