<svg fill="none" height="16" viewBox="0 0 16 16" width="16" xmlns="http://www.w3.org/2000/svg"><path clip-rule="evenodd" d="m2.91345 10.338c-.99814-.98449-1.55345-2.2988-1.56334-3.70086-.00989-1.40189.52651-2.72389 1.51068-3.72239.99439-1.00908 2.32251-1.56474 3.73961-1.56474 1.3883 0 2.6975.53689 3.6861 1.51199.9981.9845 1.5535 2.29882 1.5633 3.70088.0099 1.40189-.5265 2.72388-1.5106 3.72242-.99459 1.009-2.32272 1.5647-3.73965 1.5647-1.38829 0-2.6975-.5369-3.6861-1.512zm12.88785 4.5003-4.0709-4.0832c2.125-2.60633 1.9561-6.44838-.489-8.85604-1.28663-1.26706-2.96205-1.89906-4.63661-1.89906-1.70589 0-3.41109.656-4.70335 1.96528-2.560873 2.59421-2.531256 6.77072.06621 9.32832 1.28665 1.2671 2.96206 1.8991 4.63646 1.8991 1.47762 0 2.95406-.4931 4.16279-1.4754l4.0701 4.0825c.1329.1335.3076.2002.4822.2002.1738 0 .3478-.0664.4807-.1988.2662-.2654.2669-.6965.0014-.9629z" fill="currentColor" fill-rule="evenodd"/></svg>
