<svg viewBox="0 0 32 32" fill="none" xmlns="http://www.w3.org/2000/svg">
<path fill-rule="evenodd" clip-rule="evenodd" d="M15.8008 2.93994C19.0676 2.93994 21.4178 5.59012 21.4178 9.02947C21.4178 11.094 20.5485 12.6663 18.9108 13.8967C18.4802 14.2201 18.0436 14.4999 17.5379 14.7713L17.462 14.8111L17.8711 14.966L19.0817 15.4169L19.6015 15.6145L20.0794 15.8007L20.3764 15.9194L20.6576 16.0345L20.9239 16.1466L21.1765 16.2561L21.4164 16.3638L21.6447 16.4702C21.6819 16.4879 21.7186 16.5055 21.7549 16.5231L21.9679 16.6287C22.0026 16.6463 22.037 16.6639 22.071 16.6815L22.2711 16.7875L22.464 16.8945C22.4956 16.9125 22.527 16.9305 22.5581 16.9486L22.7421 17.0583L22.9217 17.1704L23.0978 17.2857C23.1269 17.3052 23.1559 17.3248 23.1849 17.3446L23.3579 17.4655C23.3866 17.4861 23.4153 17.5068 23.444 17.5277C24.9794 18.6459 25.8142 20.0575 25.8582 21.8957L25.86 22.0499V25.9661C25.86 26.3306 25.5645 26.6261 25.2 26.6261C24.8547 26.6261 24.5713 26.3609 24.5424 26.023L24.54 25.9661V22.0499C24.54 20.5852 23.9217 19.5085 22.6669 18.5947L22.514 18.4857L22.3589 18.38L22.2007 18.277L22.0382 18.1763L21.8706 18.0773C21.8421 18.0609 21.8134 18.0445 21.7845 18.0282L21.6072 17.9308C21.5771 17.9146 21.5466 17.8984 21.5158 17.8823L21.3266 17.7853L21.1283 17.6879L20.9199 17.5897L20.7002 17.49L20.4685 17.3884C20.4288 17.3713 20.3886 17.354 20.3478 17.3367L19.9646 17.1773L19.5473 17.0101L19.2486 16.8934L18.9322 16.7719L18.4225 16.5795L17.3553 16.1824L16.9444 16.0268L16.5574 15.8777L16.193 15.7342L15.7996 15.5747L15.4034 15.7356L15.035 15.8807L14.4387 16.1093L13.0027 16.645L12.3514 16.8934L11.9096 17.0668L11.6354 17.1773L11.2522 17.3367L11.014 17.4395L10.7885 17.54L10.5746 17.6389L10.3713 17.7367L10.1777 17.8338C10.1462 17.85 10.115 17.8661 10.0842 17.8823L9.90324 17.9794C9.8737 17.9957 9.84446 18.0119 9.8155 18.0282L9.64489 18.1266C9.61696 18.1431 9.58926 18.1596 9.56178 18.1763L9.39932 18.277L9.24104 18.38L9.08594 18.4857L8.93303 18.5947C7.71877 19.479 7.10054 20.5159 7.06189 21.9034L7.05996 22.0433L7.09943 26.0155C7.12796 26.8044 8.06103 27.3507 9.94542 27.5863C11.0513 27.7245 12.4641 27.5746 13.8781 27.1884L14.0276 27.1463L13.8885 27.0496C13.6798 26.9025 13.4699 26.7473 13.2584 26.5841L13.0995 26.4602C10.0827 24.0845 10.2553 19.9016 13.4015 19.5545C14.3221 19.453 15.1356 19.9312 15.7154 20.6557L15.7608 20.7143L15.779 20.6901C16.5275 19.6945 17.5129 19.2531 18.8144 19.6774L18.9236 19.7148C21.6427 20.6888 21.0115 24.9377 18.0298 26.8227C17.7949 26.9712 17.5514 27.1129 17.3009 27.2475L17.1676 27.3175L17.2619 27.3507C18.8043 27.8709 20.4065 27.8757 22.3717 27.3827L22.557 27.335C22.9095 27.2421 23.2705 27.4526 23.3634 27.805C23.4563 28.1575 23.2459 28.5185 22.8934 28.6115C20.0474 29.3616 17.811 29.1859 15.595 28.0805L15.5248 28.0443L15.3204 28.1189C13.4702 28.7746 11.5031 29.0715 9.95229 28.9153L9.78172 28.8961C7.3737 28.5951 5.8977 27.7521 5.78495 26.1416L5.77989 26.046L5.73999 22.0499C5.73999 20.1361 6.57791 18.6769 8.15593 17.5277L8.32843 17.4046C8.35725 17.3844 8.38613 17.3644 8.41508 17.3446L8.58988 17.2276L8.76757 17.114C8.79749 17.0953 8.82757 17.0767 8.85784 17.0583L9.0419 16.9486C9.07302 16.9305 9.10436 16.9125 9.13597 16.8945L9.32885 16.7875L9.52896 16.6815L9.73739 16.5759C9.77289 16.5583 9.80877 16.5407 9.84507 16.5231L10.1836 16.3638L10.4235 16.2561L10.6761 16.1466L10.9424 16.0345L11.2235 15.9194L11.5206 15.8007L11.8347 15.6778L12.3401 15.4842L12.8899 15.2779L13.7288 14.966L14.1376 14.8111L14.0621 14.7713C13.5925 14.5193 13.1825 14.26 12.7816 13.9653L12.6892 13.8967C11.0515 12.6663 10.1822 11.094 10.1822 9.02947C10.1822 5.59044 12.5338 2.93994 15.8008 2.93994ZM18.4784 20.9574C17.6979 20.6778 17.2227 20.9093 16.7459 21.6064L16.6874 21.6938L16.6311 21.7827L16.5379 21.9392L16.4169 22.1515C16.1059 22.7018 15.3099 22.6554 15.0541 22.0883C14.7293 21.37 14.099 20.8056 13.5463 20.8666C11.807 21.0585 11.6989 23.6771 13.9162 25.4232C14.4707 25.86 15.0065 26.2343 15.5359 26.5469L15.6116 26.5907L15.6728 26.5657C16.1905 26.345 16.6893 26.0933 17.1525 25.8133L17.3244 25.707C19.5119 24.324 19.9346 21.4791 18.4784 20.9574ZM15.8008 4.25994C13.3003 4.25994 11.5022 6.28662 11.5022 9.02947C11.5022 10.6568 12.1614 11.8492 13.482 12.8413C14.0662 13.2801 14.6841 13.6378 15.5442 14.0274L15.8 14.1407L15.8677 14.1114C16.7858 13.7069 17.4337 13.3444 18.0361 12.9021L18.1179 12.8413C19.4386 11.8492 20.0978 10.6568 20.0978 9.02947C20.0978 6.28618 18.3009 4.25994 15.8008 4.25994Z" fill="#E52600"/>
</svg>
