<svg viewBox="0 0 32 32" fill="none" xmlns="http://www.w3.org/2000/svg">
<path fill-rule="evenodd" clip-rule="evenodd" d="M15.3549 2.9402L15.4759 2.94281C17.2253 3.0044 18.4023 3.75221 19.1087 4.96929C19.173 5.08011 19.2323 5.19284 19.2874 5.30816L19.3533 5.45281L19.4505 5.48033C21.4795 6.07712 23.0572 8.05953 22.8537 10.4689L22.8416 10.5939C22.8019 10.9563 22.476 11.2179 22.1137 11.1782C21.7513 11.1385 21.4898 10.8127 21.5294 10.4503C21.6873 9.00817 20.9598 7.76473 19.8927 7.10967L19.8433 7.08041L19.8507 7.11914C19.9778 7.84663 20.0661 8.81922 20.0426 9.39712L20.0364 9.50725C19.9436 10.7574 19.1456 11.518 17.674 11.4833L17.5624 11.4792L15.0673 11.2824C13.8966 11.1899 13.0964 10.0698 13.3765 8.93003C13.5017 8.42092 13.6732 7.95568 13.8885 7.56196C14.6182 6.22815 15.8573 5.40444 17.6098 5.30067L17.7397 5.29401L17.6897 5.23128C17.2217 4.66576 16.5494 4.32827 15.5603 4.26825L15.4295 4.262C13.7858 4.20419 12.3107 5.4793 11.865 7.19449L11.8406 7.29561L11.8138 7.41938L11.7699 7.64525L11.7048 8.01611L11.6164 8.5713L11.5919 8.73386C11.5622 8.93219 11.5325 9.1378 11.503 9.34706L11.3418 10.5491C11.2984 10.894 10.995 11.146 10.648 11.1255C9.83048 11.0771 9.08018 11.074 8.47463 11.1351C8.41008 11.1416 8.34829 11.1489 8.28939 11.1568L8.12145 11.182C8.09495 11.1864 8.06919 11.1909 8.04421 11.1955L7.90363 11.2235L7.7822 11.2517C7.7636 11.2564 7.74583 11.261 7.72891 11.2656L7.6376 11.2918L7.5673 11.3151L7.51873 11.3342C7.50001 11.3424 7.48971 11.3486 7.48826 11.352L7.47834 11.3834L7.46776 11.4326L7.45072 11.5385L7.42597 11.7371L7.39205 12.0719L7.34755 12.5898L7.29959 13.2216L7.21394 14.4904L7.13315 15.8173L7.04236 17.4389L6.96243 18.98L6.8679 20.9605L6.79079 22.752L6.73559 24.1998L6.69916 25.3089L6.67294 26.3009L6.6627 26.8286L6.66028 26.992C6.6552 27.3695 6.69915 27.4465 6.86959 27.5106L6.89913 27.5212L6.96181 27.5408C6.97272 27.5439 6.98387 27.5468 6.99531 27.5497L7.06752 27.5661L7.14788 27.5806L7.28682 27.5989L7.39382 27.609L7.57944 27.6213L7.79953 27.6305L7.96778 27.6352L8.36242 27.6417L15.4708 27.7189L17.771 27.736L18.7724 27.7396L19.8425 27.7393L20.7668 27.7338L21.4238 27.7249L22.9811 27.6876L23.4032 27.6713L23.5901 27.6609L23.7618 27.6487L23.9187 27.6345L24.0616 27.6181L24.1911 27.5992C24.2321 27.5925 24.271 27.5854 24.3078 27.5777L24.4122 27.5534C24.7243 27.4716 24.8622 27.3439 24.9138 27.1399L24.9273 27.0729C24.9327 27.0381 24.9362 27.0013 24.9382 26.9624L24.9401 26.8818L24.9381 26.3913L24.9317 25.8777L24.9113 24.9961L24.8685 23.7751L24.7894 22.0135L24.605 18.4685L24.2555 12.1044L24.2127 11.2904C24.1937 10.9264 24.4735 10.6159 24.8375 10.597C25.2015 10.5781 25.512 10.8578 25.5309 11.2218L26.049 20.7735L26.1579 23.0224L26.2085 24.272L26.2341 25.0738L26.2529 25.9429L26.2597 26.6695L26.2601 26.8818C26.2601 27.8238 25.8174 28.4553 24.9999 28.7511C24.9615 28.7651 24.9232 28.7782 24.8848 28.7906L24.7688 28.8258L24.6503 28.8568L24.5273 28.8841C24.5063 28.8884 24.485 28.8925 24.4635 28.8965L24.3304 28.9187C24.3075 28.9222 24.2842 28.9255 24.2605 28.9287L24.1131 28.9465L23.9539 28.9618L23.6889 28.9806L23.387 28.9952L23.042 29.0069L21.4541 29.0446L20.9304 29.0521L19.8566 29.0593L18.7789 29.0597L17.3405 29.0536L14.1435 29.0253L8.70826 28.9643L8.30898 28.9613L7.96373 28.956L7.6659 28.9476L7.49043 28.9398L7.33115 28.93L7.18611 28.9178L7.05336 28.9031C7.03215 28.9004 7.01136 28.8976 6.99097 28.8947L6.87297 28.8756L6.76237 28.8534C6.74444 28.8494 6.72674 28.8452 6.70923 28.8409L6.60606 28.8133C6.58912 28.8084 6.5723 28.8033 6.55553 28.7981L6.45539 28.7646C6.43872 28.7586 6.42203 28.7525 6.40528 28.7462C5.66981 28.4699 5.32833 27.8712 5.3404 26.9742L5.35346 26.2439L5.37364 25.4312L5.40796 24.3183L5.44197 23.3656L5.48117 22.3707L5.56043 20.5655L5.64119 18.9168L5.75362 16.8557L5.85188 15.2467L5.93144 14.073L5.99073 13.2786L6.05857 12.4635L6.10565 11.9655L6.15119 11.546L6.17761 11.3351L6.19482 11.2124L6.21166 11.1047L6.23619 10.972L6.25203 10.9036L6.26743 10.8517C6.26996 10.8445 6.27247 10.8379 6.27496 10.8321C6.63539 9.99121 7.74217 9.7401 9.51955 9.76139L9.81363 9.76718L10.1113 9.77681L10.196 9.16236L10.2864 8.53859L10.3365 8.21069L10.4054 7.78341L10.4451 7.55288L10.4831 7.34517L10.5194 7.16064L10.5542 6.99968L10.5874 6.86264C11.1693 4.62306 13.1016 2.92232 15.3549 2.9402ZM18.2459 6.61514C16.6326 6.54302 15.6301 7.12867 15.0466 8.19532C14.8904 8.48106 14.7578 8.84063 14.6584 9.24515C14.5761 9.57983 14.7918 9.90424 15.1187 9.95995L15.1712 9.96648L17.6469 10.162C18.4437 10.2014 18.6771 9.9873 18.72 9.40961C18.7623 8.83816 18.6055 7.40868 18.4469 6.8696L18.3729 6.62241L18.2459 6.61514Z" fill="#E52600"/>
</svg>
