<svg width="24" height="24" viewBox="0 0 24 24" fill="none" xmlns="http://www.w3.org/2000/svg">
<path fill-rule="evenodd" clip-rule="evenodd" d="M2.39844 2.9999C2.39844 1.56396 3.5625 0.399902 4.99844 0.399902H14.9984C16.4344 0.399902 17.5984 1.56396 17.5984 2.9999V9.01419C17.5984 9.34556 17.3298 9.61419 16.9984 9.61419C16.6671 9.61419 16.3984 9.34556 16.3984 9.01419V2.9999C16.3984 2.2267 15.7716 1.5999 14.9984 1.5999H4.99844C4.93685 1.5999 4.8762 1.60388 4.81672 1.61159L12.1649 3.73126C12.4217 3.80535 12.5986 4.04043 12.5986 4.30775V19.3078C12.5986 19.5654 12.4341 19.7942 12.19 19.8764L4.75452 22.3787C4.83373 22.3926 4.91524 22.3999 4.99844 22.3999H14.9984C15.7716 22.3999 16.3984 21.7731 16.3984 20.9999V14.9856C16.3984 14.6542 16.6671 14.3856 16.9984 14.3856C17.3298 14.3856 17.5984 14.6542 17.5984 14.9856V20.9999C17.5984 22.4358 16.4344 23.5999 14.9984 23.5999H4.99844C3.5625 23.5999 2.39844 22.4358 2.39844 20.9999V2.9999ZM3.68583 21.4879C3.7233 21.465 3.76388 21.446 3.80722 21.4314L11.3986 18.8766V12.5999H9.99844C9.66707 12.5999 9.39844 12.3313 9.39844 11.9999C9.39844 11.6685 9.66707 11.3999 9.99844 11.3999H11.3986V4.75914L3.8323 2.57655C3.77953 2.56133 3.73046 2.53949 3.68573 2.5122C3.62928 2.66407 3.59844 2.82838 3.59844 2.9999V20.9999C3.59844 21.1715 3.62932 21.3359 3.68583 21.4879ZM13.3984 11.9999C13.3984 11.6685 13.6671 11.3999 13.9984 11.3999H21.553L19.5773 9.42417C19.343 9.18985 19.343 8.80995 19.5773 8.57564C19.8116 8.34132 20.1915 8.34132 20.4258 8.57564L23.4258 11.5756C23.6601 11.81 23.6601 12.1899 23.4258 12.4242L20.4258 15.4242C20.1915 15.6585 19.8116 15.6585 19.5773 15.4242C19.343 15.1899 19.343 14.81 19.5773 14.5756L21.553 12.5999H13.9984C13.6671 12.5999 13.3984 12.3313 13.3984 11.9999Z" fill="var(--icon-stroke,#E52600)"/>
</svg>
