<svg width="48" height="48" viewBox="0 0 48 48" fill="none" xmlns="http://www.w3.org/2000/svg">
<circle cx="24" cy="24" r="23.5" fill="#F5F5F0" stroke="#D9DADA"/>
<path fill-rule="evenodd" clip-rule="evenodd" d="M21.254 10.3073L33.226 17.2193C33.6392 17.4579 33.7808 17.9863 33.5422 18.3996L21.0142 40.0987C20.7756 40.5119 20.2472 40.6535 19.834 40.4149L7.86201 33.5029C7.44877 33.2643 7.30718 32.7359 7.54577 32.3227L20.0738 10.6236C20.3124 10.2103 20.8408 10.0687 21.254 10.3073Z" fill="var(--medication-icon-shadow,  #C2E8FF)"/>
<path fill-rule="evenodd" clip-rule="evenodd" d="M37.1344 15.1934L25.1631 8.28089C24.409 7.84543 23.4446 8.10378 23.0092 8.85794L10.4805 30.5565C10.0451 31.3106 10.3034 32.275 11.0576 32.7104L23.0289 39.623C23.783 40.0584 24.7474 39.8001 25.1828 39.0459L37.7115 17.3474C38.1469 16.5933 37.8886 15.6289 37.1344 15.1934ZM24.4503 9.51544L36.4216 16.428C36.4939 16.4697 36.5187 16.5622 36.4769 16.6345L28.207 30.9574L15.9734 23.8943L24.2437 9.57077C24.2855 9.49845 24.378 9.47368 24.4503 9.51544ZM15.2605 25.1289L11.7151 31.2694C11.6733 31.3417 11.6981 31.4341 11.7704 31.4759L23.7417 38.3884C23.814 38.4302 23.9065 38.4054 23.9483 38.3331L27.4941 32.192L15.2605 25.1289Z" fill="var(--medication-icon-border,  #0082AA)"/>
</svg>
