<svg width="48" height="48" viewBox="0 0 48 48" fill="none" xmlns="http://www.w3.org/2000/svg">
<circle cx="24" cy="24" r="23.5" fill="#F5F5F0" stroke="#D9DADA"/>
<path fill-rule="evenodd" clip-rule="evenodd" d="M24.8107 15.4447L30.5308 13.9813C31.0363 13.852 31.5524 14.15 31.6932 14.6524L33.286 20.3379C33.4951 21.0843 33.3945 21.8835 33.0069 22.5548L22.9883 39.9075C22.193 41.285 20.4316 41.757 19.0542 40.9617L14.0658 38.0817C12.6884 37.2864 12.2164 35.525 13.0117 34.1475L23.0303 16.7948C23.4179 16.1235 24.0597 15.6368 24.8107 15.4447Z" fill="var(--medication-icon-shadow,  #C2E8FF)"/>
<path fill-rule="evenodd" clip-rule="evenodd" d="M30.4495 9.47385L24.7295 10.937C23.792 11.1767 22.9908 11.7843 22.507 12.6223L12.488 29.9747C11.4952 31.6942 12.0842 33.893 13.8037 34.8859L18.7917 37.7661C20.5112 38.759 22.7099 38.1699 23.7028 36.4504L33.7217 19.098C34.2056 18.26 34.3312 17.2623 34.0702 16.3305L32.4777 10.645C32.2322 9.76833 31.3315 9.24826 30.4495 9.47385ZM31.1003 11.0307L32.6929 16.7163C32.85 17.2774 32.7744 17.8781 32.483 18.3827L22.4641 35.7352C21.8663 36.7705 20.5423 37.1253 19.507 36.5274L14.519 33.6472C13.4836 33.0494 13.1289 31.7254 13.7267 30.69L23.7457 13.3375C24.037 12.833 24.5194 12.4671 25.0839 12.3227L30.8039 10.8596C30.9328 10.8266 31.0644 10.9026 31.1003 11.0307Z" fill="var(--medication-icon-border,  #0082AA)"/>
</svg>
