<svg width="32" height="32" viewBox="0 0 32 32" fill="none" xmlns="http://www.w3.org/2000/svg" style="margin: 2px;">
<rect x="4.5" y="3" width="25" height="25" rx="13.5" fill="var(--icon-background, #C2E8FF)"/>
<path fill-rule="evenodd" clip-rule="evenodd" d="M16 26.5C10.201 26.5 5.5 21.799 5.5 16C5.5 10.201 10.201 5.5 16 5.5C21.799 5.5 26.5 10.201 26.5 16C26.5 21.799 21.799 26.5 16 26.5ZM4 16C4 9.37258 9.37258 4 16 4C22.6274 4 28 9.37258 28 16C28 22.6274 22.6274 28 16 28C9.37258 28 4 22.6274 4 16Z" fill="var(--icon-stroke,#284B9B)"/>
<path d="M14.5859 18.4609H16.6562V18.0469C16.6562 17.2812 16.9453 16.8984 17.9844 16.2969C19.0859 15.6484 19.6562 14.8281 19.6562 13.6562V13.6406C19.6562 11.8672 18.1797 10.625 15.9453 10.625C13.5469 10.625 12.1875 11.9688 12.1484 13.8828V13.8984L14.2578 13.8906H14.2734C14.3125 13.0078 14.9062 12.4375 15.8047 12.4375C16.6953 12.4375 17.2891 12.9766 17.2891 13.7109V13.7266C17.2891 14.4609 16.9844 14.8438 15.9766 15.4453C14.8984 16.0781 14.4688 16.7812 14.5703 18.0078L14.5859 18.4609ZM15.7031 22.2266C16.5781 22.2266 17.1172 21.7266 17.1172 20.9219C17.1172 20.1094 16.5781 19.6094 15.7031 19.6094C14.8281 19.6094 14.2812 20.1094 14.2812 20.9219C14.2812 21.7266 14.8281 22.2266 15.7031 22.2266Z" fill="var(--icon-stroke,#284B9B)"/>
</svg>
