<svg width="48" height="48" viewBox="0 0 48 48" fill="none" xmlns="http://www.w3.org/2000/svg">
<circle cx="24" cy="24" r="23.5" fill="#F5F5F0" stroke="#D9DADA"/>
<path fill-rule="evenodd" clip-rule="evenodd" d="M35.308 27.5868C35.308 35.1575 29.4821 39.9398 21.7267 40.1241C12.7737 40.337 7.67999 33.9868 7.67999 26.4161C7.67999 18.8453 13.969 12.6897 21.7267 12.708C31.4723 12.7312 35.308 20.016 35.308 27.5868Z" fill="var(--medication-icon-shadow,  #C2E8FF)"/>
<path fill-rule="evenodd" clip-rule="evenodd" d="M24.0331 8.8886C15.892 8.76091 9.18586 15.1374 9.07737 23.1114C8.96218 31.5769 14.7616 37.8205 23.6565 37.7277C32.0209 37.6402 38.0067 32.4412 38.1124 24.6693C38.2367 15.5367 33.2667 9.03356 24.0331 8.8886ZM24.0108 10.314C32.3737 10.4453 36.8014 16.2389 36.6869 24.6499C36.6465 27.6241 35.6493 30.1718 33.9239 32.1196L15.1233 13.4597C17.4338 11.514 20.4342 10.3325 23.7091 10.3126L24.0108 10.314ZM32.79 33.226L13.9743 14.551C11.8564 16.8188 10.5478 19.8235 10.5028 23.1308C10.3983 30.8174 15.571 36.3864 23.6417 36.3022C27.3472 36.2634 30.508 35.1536 32.79 33.226Z" fill="var(--medication-icon-border,  #0082AA)"/>
</svg>
