<svg width="4" height="16" viewBox="0 0 4 16" fill="none" xmlns="http://www.w3.org/2000/svg">
<path d="M1.99998 4.39998C3.04932 4.39998 3.89998 3.54932 3.89998 2.49998C3.89998 1.45063 3.04932 0.599976 1.99998 0.599976C0.950635 0.599976 0.0999756 1.45063 0.0999756 2.49998C0.0999756 3.54932 0.950635 4.39998 1.99998 4.39998Z" fill="var(--icon-stroke, #284B9B)"/>
<path d="M1.99998 9.89998C3.04932 9.89998 3.89998 9.04932 3.89998 7.99998C3.89998 6.95063 3.04932 6.09998 1.99998 6.09998C0.950635 6.09998 0.0999756 6.95063 0.0999756 7.99998C0.0999756 9.04932 0.950635 9.89998 1.99998 9.89998Z" fill="var(--icon-stroke, #284B9B)"/>
<path d="M1.99998 15.4C3.04932 15.4 3.89998 14.5493 3.89998 13.5C3.89998 12.4506 3.04932 11.6 1.99998 11.6C0.950635 11.6 0.0999756 12.4506 0.0999756 13.5C0.0999756 14.5493 0.950635 15.4 1.99998 15.4Z" fill="var(--icon-stroke, #284B9B)"/>
</svg>
