<svg width="16" height="16" viewBox="0 0 16 16" fill="none" xmlns="http://www.w3.org/2000/svg">
<path fill-rule="evenodd" clip-rule="evenodd" d="M9.19508 1.39293C8.60714 0.509492 7.29116 0.536675 6.75447 1.47334L0.437332 13.1538L0.43318 13.1623C-0.0340062 14.1094 0.644119 15.25 1.72256 15.25L14.2772 15.2501L14.3625 15.2476L14.3703 15.2471C15.4239 15.181 16.0566 14.017 15.5243 13.0825L9.2486 1.47927L9.19976 1.39996L9.19508 1.39293ZM7.74342 2.041L7.76847 2.00262C7.88961 1.84609 8.14695 1.85418 8.25647 2.04188L14.5271 13.6358L14.5481 13.6768C14.6381 13.8828 14.4894 14.1056 14.277 14.1056H1.72847L1.68604 14.1036C1.48496 14.0802 1.35876 13.8536 1.4575 13.6628L7.74342 2.041Z" fill="#F26522"/>
<path fill-rule="evenodd" clip-rule="evenodd" d="M8.10658 10.9609C7.68415 10.9609 7.34521 11.3059 7.34521 11.7266C7.34521 12.1474 7.68415 12.4923 8.10658 12.4923C8.52908 12.4923 8.86805 12.1474 8.86805 11.7266C8.86805 11.3058 8.52908 10.9609 8.10658 10.9609Z" fill="#F26522"/>
<path fill-rule="evenodd" clip-rule="evenodd" d="M8.10664 5C7.79018 5 7.53711 5.2581 7.53711 5.57216L7.53765 9.19681L7.53806 9.20396C7.55524 9.50281 7.80144 9.74285 8.10664 9.74285C8.42311 9.74285 8.67618 9.48475 8.67618 9.17069L8.67628 5.57216L8.67564 5.54607L8.67523 5.53889C8.65805 5.24003 8.41185 5 8.10664 5Z" fill="#F26522"/>
</svg>
