<svg width="68" height="64" viewBox="0 0 68 64" version="1.1" xmlns="http://www.w3.org/2000/svg" xmlns:xlink="http://www.w3.org/1999/xlink" fill="currentColor"><g id="StyleGuide" stroke="none" stroke-width="1"><g id="Illustration" transform="translate(-636.000000, -3721.000000)"><g id="Icons/Red/46" transform="translate(636.000000, 3721.000000)"><path d="M50.983931,0.367076348 L56.204125,5.5936 L58.1813453,3.61224318 C60.4275021,1.36176743 64.0692255,1.36176743 66.3153824,3.61224318 C68.5615392,5.86271893 68.5615392,9.5114446 66.3153824,11.7619203 C64.107296,13.9742524 60.5505495,14.0117496 58.2967458,11.8744118 L56.202,9.7792 L48.705,17.2928 L58.4892556,27.09643 C59.066401,27.6746851 59.066401,28.6122219 58.4892556,29.190477 C57.935196,29.7456019 57.0506579,29.7678069 56.4701601,29.257092 L56.3992273,29.190477 L55.209625,28 L55.0114378,27.8218384 C53.9451701,26.957278 52.3920428,26.9948675 51.3681106,27.9346071 L51.2781108,28.0209201 L26.3986894,52.947686 C23.0717596,56.281465 18.1105342,56.9796764 14.0994765,55.0427516 L11.4899435,55.4905084 C11.211543,55.537933 10.9297924,55.5039233 10.6760016,55.3984695 L2.52291355,63.5662824 C1.94578264,64.144552 1.01004509,64.1445755 0.432885237,63.5663349 C-0.121188221,63.0112239 -0.14337278,62.1249856 0.366347468,61.5433587 L0.432832838,61.4722879 L8.54933451,53.3372894 C8.41139886,53.0786727 8.35191387,52.7822691 8.38283421,52.4856513 L8.39580852,52.3908927 L8.8292726,49.8477662 C6.82205467,45.8551508 7.44564784,40.8749545 10.700047,37.4964519 L10.837273,37.356511 L35.716283,12.4291701 C36.7792308,11.3647888 36.8079507,9.65717322 35.802755,8.55803838 L35.7165954,8.46787916 L35.717,8.46506667 L34.5488721,7.29810802 C33.9717267,6.7198529 33.9717267,5.78231612 34.5488721,5.204061 C35.1029317,4.64893609 35.9874698,4.62673109 36.5679676,5.13744601 L37.82925,6.39786667 L46.614,15.2 L54.113125,7.6864 L48.9648354,2.52773835 C48.38769,1.94948324 48.38769,1.01194645 48.9648354,0.433691337 C49.518895,-0.121433574 50.4034331,-0.143638571 50.983931,0.367076348 Z M37.6858417,13.8085589 L12.5253509,39.2236441 C9.56199401,42.2971764 9.52025659,47.2535343 12.39945,50.3797955 L12.8420443,50.8414011 C15.8049878,53.9153385 21.4018404,53.9961948 24.4159885,51.0087678 L26.8770438,48.4561627 L23.0198998,44.4557226 C22.4519878,43.8665546 22.4520359,42.9113744 23.0200073,42.322268 C23.5652597,41.7567258 24.4356933,41.7341501 25.0069078,42.2545071 L25.076706,42.3223795 L28.9326075,46.3239786 L41.6653928,33.1157391 L37.8086365,29.1150206 C37.2407245,28.5258526 37.2407726,27.5706724 37.808744,26.981566 C38.3539965,26.4160238 39.22443,26.3934481 39.7956445,26.9138051 L39.8654427,26.9816775 L43.7230477,30.9835549 L48.987641,26.1392478 C49.6939796,25.4065486 50.5405745,24.907988 51.4377796,24.6435766 L38.8628902,11.7491928 C38.6214528,12.6306587 38.3323208,13.1002586 37.6858417,13.8085589 Z M60.3905711,5.3873729 L60.2990242,5.48105497 L58.0182507,7.92289793 L60.2990242,10.1357356 C61.4097863,11.3232426 63.5019021,10.9869855 64.6126642,9.79947856 C65.7234263,8.6119716 65.7234263,6.97207662 64.6126642,5.78456966 C63.5319227,4.62915748 61.5066273,4.29441543 60.3905711,5.3873729 Z" id="Icon_Color"/></g></g></g></svg>
