<svg width="184" height="184" fill="none" xmlns="http://www.w3.org/2000/svg"><g clip-path="url(#a)"><circle cx="92.2877" cy="93.3224" fill="#F5F5F0" r="59.5125"/><path fill-rule="evenodd" clip-rule="evenodd" d="M95.4746 37.8972c.098.0567.2065.1328.3251.2275l.2504.2143.2767.2631.3022.3108.3272.3574.3514.4031.3751.4476.6055.7525.655.8466.7024.9373.7474 1.0242.523.7294 1.385 1.9785.882 1.2881 1.55 2.3036 1.638 2.4852 2.07 3.1984 2.166 3.407 1.866 2.9777 2.298 3.7146 3.134 5.1453 2.381 3.9659 2.387 4.0257 1.814 3.0924 2.557 4.4088 2.506 4.3825 1.953 3.4622 1.428 2.5587 1.844 3.3454.893 1.64 1.722 3.2 1.627 3.079 1.52 2.94.717 1.412.685 1.369.653 1.325.916 1.9.566 1.204.528 1.151.49 1.096c.235.534.454 1.047.658 1.536.504 1.21-.069 2.598-1.278 3.102-1.209.503-2.598-.069-3.101-1.278l-.415-.977-.458-1.037-.497-1.095-.538-1.152-.876-1.826-.955-1.939-1.03-2.041-1.1-2.137-1.164-2.224-1.223-2.302-1.714-3.176-1.342-2.452-1.853-3.3468-1.916-3.4164-1.967-3.4664-2.512-4.3732-1.016-1.7538-3.137-5.3606-2.339-3.9461-2.32-3.8708-2.281-3.7659-2.663-4.3391-2.135-3.4311-1.64-2.6026-1.95-3.0505-1.468-2.2598-1.3775-2.0828-.9675-1.4368-1.1953-1.7366-1.0785-1.5178-.4926-.6722-.4599-.6119-.6261-.8004-.1299-.1572-.7449.9965-.701.9591-.7198 1.0064-.7386 1.0534-.7571 1.1004-.7758 1.147-1.1985 1.8075-1.2401 1.9114-1.2814 2.0145-.8772 1.4-1.35 2.1848-1.391 2.2861-1.4316 2.3866-.9769 1.6465-1.4991 2.5526-1.5393 2.6513-1.5793 2.7492-1.6192 2.8464-1.6589 2.943-2.2732 4.073-2.1243 3.8439-1.9343 3.5289-1.9816 3.641-2.5429 4.706-3.9659 7.4053-4.2658 8.036-9.4213 17.877.9918.127.8904.096 1.5044.138 1.7021.13 1.8944.121 1.3673.076 2.3015.112 2.4812.1 3.5709.119 2.8623.076 4.0429.085 3.1893.051 3.313.041 4.5926.036 2.3648.011c1.4209.005 2.8476.007 4.2766.007l3.7537-.007 5.8088-.033 4.0922-.04 6.0371-.084 5.858-.111 4.698-.114 3.613-.103 5.129-.176 3.968-.164 3.65-.179 2.666-.154 1.839-.121 1.692-.125 1.538-.131c1.304-.119 2.458.843 2.577 2.147.119 1.305-.843 2.459-2.147 2.577l-1.063.093-1.734.133-1.893.129-2.044.124-3.717.193-4.068.176-3.48.129-3.657.117-3.814.105-4.954.114-5.125.094-5.2529.072-6.4149.058-4.3109.02-5.3902.003-4.5276-.016-5.7472-.049-3.2955-.045-3.169-.055-3.0326-.066-2.8866-.077-1.8384-.058-2.6213-.095-2.4492-.105-2.2512-.116-1.3754-.081-2.4991-.175-1.1218-.094-1.0354-.099-1.1714-.129-1.0332-.137-.4239-.065-.772-.135c-.6022-.117-1.1031-.245-1.5147-.391-.5242-.186-.9549-.411-1.3403-.771-.83-.776-1.1422-2.005-.5498-3.128l9.9328-18.856 5.0246-9.472 2.6748-5.0025 3.2166-5.9695 2.6209-4.8206 1.9413-3.5417 2.1527-3.8953 2.3424-4.1962 1.7086-3.0299 1.6671-2.9287 1.6257-2.8269 1.5841-2.7246 1.5426-2.6218 1.501-2.5183 1.4593-2.4144 1.4177-2.3098 1.3759-2.2047.8941-1.4111 1.3062-2.0283.8476-1.293.829-1.2455.8103-1.1977 1.1806-1.7069.7637-1.0777.745-1.0295.7264-.981 1.0545-1.3804.6795-.8591c.1117-.1392.2227-.2762.3328-.4112.7361-.9024 2.0184-1.137 3.0263-.5535Zm-.8677 72.2148c5.1624 0 9.0191 4.11 9.0191 9.252 0 5.102-4.6981 9.699-9.893 9.699-5.0792 0-8.6653-3.895-8.9705-9.034-.3657-6.166 4.0508-9.917 9.8444-9.917Zm0 4.744c-3.2733 0-5.2971 1.719-5.1089 4.892.1643 2.767 1.8256 4.572 4.235 4.572 2.5976 0 5.1494-2.498 5.1494-4.956 0-2.587-1.8028-4.508-4.2755-4.508Zm-1.7074-53.0757c1.2689-.0328 2.5994-.0126 3.9252.0449l.9925.05.7969.0501.8076.0619c1.1073.0988 1.9863.9496 2.1383 2.0313l.02.2193.362 7.653.42 9.3008.248 5.8882.233 6.1467.11 3.723.037 2.1024-.002 1.2961-.012.5-.019.4-.027.3-.016.113c-.855 4.986-14.8685 5.549-16.8787.687-.0916-.222-.149-.456-.1704-.694l-.0094-.239.4151-36.8145c.0121-1.0712.7406-2.0013 1.7777-2.2696 1.2854-.3325 2.9169-.5007 4.8512-.5506Zm.9984 4.7288-.8761.0133c-.4816.0125-.9369.0333-1.3618.0626l-.6689.0553-.3811 33.8487.1688.065.1988.065.2232.062c.897.231 2.1218.333 3.4073.281 1.0979-.044 2.1528-.197 2.9644-.42l.3323-.1.1927-.067.1579-.064v-.4991l-.0219-1.6329-.0532-2.2242-.1302-3.9872-.3007-7.6146-.3805-8.6406-.4276-9.1322-.3141-.0153c-.6138-.0267-1.2276-.0447-1.8317-.0524l-.8976-.0034Z" fill="#E52600"/></g><defs><clipPath id="a"><path fill="#fff" d="M0 0h184v184H0z"/></clipPath></defs></svg>